<?xml version="1.0" standalone="no"?>
<svg version="1.0" xmlns="http://www.w3.org/2000/svg"
 width="420.000000pt" height="420.000000pt" viewBox="0 0 420.000000 420.000000"
 preserveAspectRatio="xMidYMid meet">

<g transform="translate(0.000000,420.000000) scale(0.100000,-0.100000)"
fill="#000000" stroke="none">
<path d="M1798 4053 c-10 -2 -18 -11 -18 -18 0 -21 -17 -27 -40 -13 -17 11
-22 11 -29 -1 -5 -7 -14 -10 -20 -6 -8 4 -16 -5 -24 -24 -13 -36 -22 -39 -37
-11 -6 11 -20 20 -31 20 -19 0 -20 -4 -15 -35 l7 -35 -47 7 c-45 6 -47 5 -42
-15 5 -17 2 -22 -14 -22 -15 0 -19 -5 -15 -20 4 -15 0 -20 -15 -20 -12 0 -22
-8 -25 -20 -3 -12 -12 -19 -22 -18 -12 2 -16 -5 -15 -34 1 -28 -3 -38 -17 -41
-11 -3 -19 -13 -19 -24 0 -19 -30 -52 -65 -71 -48 -27 -50 -29 -35 -47 13 -15
10 -21 -23 -51 -22 -21 -47 -34 -63 -34 -23 0 -25 -3 -20 -24 5 -22 3 -25 -26
-28 -23 -2 -32 -8 -30 -17 5 -21 -19 -61 -35 -61 -8 0 -27 -13 -43 -28 -44
-45 -106 -52 -432 -52 l-288 0 0 -90 0 -90 40 0 40 0 0 -40 0 -40 45 0 45 0 0
-44 c0 -54 14 -61 100 -51 32 4 68 4 79 0 18 -6 19 -9 6 -43 -7 -20 -22 -56
-33 -80 -14 -31 -18 -56 -14 -87 4 -36 -1 -56 -24 -101 -23 -46 -26 -57 -14
-64 12 -7 11 -20 -9 -80 -30 -94 -37 -167 -22 -237 18 -81 -1 -248 -35 -314
-28 -55 -30 -79 -9 -79 8 0 15 -7 15 -16 0 -9 7 -22 16 -28 14 -11 14 -19 0
-95 -18 -95 -20 -149 -6 -171 9 -13 13 -11 30 10 l20 25 0 -56 c0 -57 12 -81
36 -72 8 3 14 0 14 -6 0 -32 44 -123 64 -130 34 -14 58 -96 55 -188 -3 -72 -2
-78 16 -78 18 0 20 -6 17 -75 -3 -56 2 -93 18 -143 12 -37 28 -105 35 -149 9
-52 22 -89 34 -102 11 -12 27 -50 35 -85 17 -73 20 -78 40 -62 12 10 17 8 26
-9 6 -11 16 -18 22 -14 18 11 28 -19 28 -88 0 -38 3 -68 7 -68 3 0 15 8 26 18
19 17 19 16 16 -53 -5 -83 9 -93 64 -46 62 55 108 34 89 -41 -6 -23 -9 -45 -6
-49 7 -11 46 2 81 27 32 25 113 34 113 14 0 -24 91 10 119 44 21 25 27 19 23
-19 -4 -30 -1 -35 17 -35 11 0 30 11 43 24 13 13 35 26 51 30 23 5 27 3 27
-14 0 -40 51 -13 87 46 11 18 12 18 12 -3 2 -43 42 -39 66 7 9 17 25 30 43 33
33 7 50 40 73 141 11 51 14 56 22 38 6 -12 16 -22 23 -22 14 0 50 43 59 70 4
12 12 17 21 13 23 -9 82 44 115 103 17 30 33 54 36 54 3 0 2 -18 -2 -40 -9
-54 12 -54 58 0 19 22 36 40 39 40 3 0 10 -19 17 -42 7 -24 21 -52 31 -63 11
-11 20 -39 22 -64 4 -55 21 -63 38 -19 7 18 29 66 48 106 28 58 39 72 57 72
16 0 39 17 68 51 35 40 49 50 65 45 16 -5 35 7 84 53 47 43 70 59 84 55 25 -7
103 69 142 138 29 51 42 60 42 29 0 -30 21 -37 40 -13 10 12 32 68 50 124 44
143 48 152 49 102 1 -67 49 -86 71 -28 12 30 34 27 38 -5 6 -38 25 -21 105 89
18 25 18 25 12 -37 -3 -35 -2 -63 3 -63 31 0 120 150 157 268 11 34 22 62 25
62 7 0 48 -41 64 -64 7 -10 18 -16 24 -12 18 11 32 103 32 214 l0 106 41 -42
c22 -23 45 -40 51 -36 11 7 6 96 -7 128 -9 20 1 20 48 1 36 -15 9 70 -51 158
-18 26 -18 31 -5 58 8 16 19 29 24 29 22 0 6 34 -37 76 -37 37 -43 48 -33 60
9 11 9 18 1 26 -18 18 -15 28 7 28 36 0 31 17 -19 80 -48 60 -63 104 -39 112
16 5 -3 61 -41 122 -29 45 -38 76 -22 76 4 0 21 -9 37 -20 17 -11 33 -20 38
-20 24 0 -15 118 -62 189 -21 32 -28 52 -25 71 4 17 0 31 -10 39 -23 19 -20
28 14 40 39 13 38 27 -6 72 -24 25 -34 42 -28 51 4 7 9 30 9 52 1 35 -3 42
-52 79 -49 36 -52 41 -38 57 21 23 19 27 -17 47 l-33 17 33 9 c40 12 40 23 2
45 -30 17 -39 32 -20 32 20 0 9 21 -15 30 -24 9 -35 30 -15 30 18 0 10 29 -10
35 -25 8 -25 28 -3 66 20 33 12 46 -32 52 -20 3 -29 9 -27 19 1 9 -13 21 -38
31 -42 16 -51 31 -25 41 19 7 20 42 1 49 -9 4 -12 15 -8 33 5 26 4 27 -31 21
-31 -5 -36 -3 -39 16 -4 26 -60 40 -122 31 -38 -6 -38 -6 -31 24 3 17 2 33 -3
36 -9 5 -45 -3 -86 -19 -16 -7 -17 -4 -11 23 7 34 -2 40 -36 22 -16 -9 -19 -7
-19 8 0 27 -10 33 -32 21 -13 -7 -24 -7 -30 -1 -7 7 -24 4 -51 -8 -23 -10 -52
-21 -65 -25 -21 -6 -22 -5 -16 34 8 47 -2 52 -44 22 -27 -19 -107 -61 -116
-61 -3 0 -4 19 -3 43 2 41 1 42 -28 39 -16 -2 -41 -16 -55 -30 l-25 -27 -3 25
c-5 44 -12 70 -20 70 -4 0 -17 -16 -30 -36 -23 -35 -42 -38 -42 -5 0 9 -6 26
-14 36 -14 19 -15 19 -27 -8 -7 -15 -19 -27 -27 -27 -7 0 -22 -10 -33 -22
l-18 -23 -1 21 c0 12 -8 32 -19 45 l-18 23 -14 -22 c-9 -14 -24 -22 -41 -22
-15 0 -30 -4 -33 -10 -11 -17 -35 -11 -35 9 0 45 -23 68 -34 33 -8 -25 -63
-18 -71 9 -8 24 -17 24 -40 -1 -20 -22 -63 -18 -78 7 -8 13 -18 14 -49 6z
m201 -65 c11 4 12 -4 8 -39 -11 -74 -20 -239 -14 -239 3 0 15 15 26 34 17 26
21 51 22 117 1 74 2 80 11 49 10 -33 11 -34 19 -12 5 12 13 22 18 22 16 0 6
-105 -12 -134 -46 -70 10 -39 69 39 32 41 74 61 74 35 0 -7 7 -7 21 1 21 11
22 10 15 -22 -27 -134 -14 -155 35 -57 54 107 98 153 84 87 l-7 -31 26 17 26
17 -25 -53 c-25 -54 -32 -99 -17 -99 5 0 15 12 23 26 25 48 98 103 133 102 17
0 50 2 74 6 34 6 51 3 90 -16 41 -20 61 -23 170 -23 67 0 122 -2 122 -6 0 -3
-5 -10 -12 -17 -9 -9 -7 -12 10 -12 12 0 22 -4 22 -10 0 -5 -4 -10 -9 -10 -5
0 -26 -7 -47 -16 -51 -21 -34 -30 87 -45 82 -9 126 -19 91 -19 -6 0 -9 -6 -6
-14 4 -10 -7 -15 -40 -20 -59 -9 -66 -23 -18 -36 22 -5 69 -23 105 -40 36 -16
84 -32 106 -36 31 -5 41 -11 41 -26 0 -10 -8 -21 -17 -24 -10 -3 -29 -10 -43
-16 l-25 -11 33 -10 c38 -12 41 -22 10 -31 -13 -3 -34 -14 -47 -25 l-24 -19
54 -15 c52 -15 141 -78 128 -91 -17 -18 -276 74 -295 105 -3 5 17 6 43 3 66
-9 53 2 -103 86 -71 38 -123 70 -116 70 45 0 -44 60 -137 92 -50 17 -90 22
-161 23 -87 0 -210 -20 -210 -34 0 -3 40 -14 89 -23 50 -10 116 -30 148 -44
l58 -26 -33 -10 c-29 -8 -37 -28 -11 -28 16 0 189 -153 183 -162 -3 -4 -336
-8 -740 -8 -812 0 -761 -5 -729 65 25 52 85 83 186 96 114 15 145 30 49 24
-61 -4 -69 -3 -45 6 39 13 151 15 355 5 161 -8 166 -7 210 16 l45 23 7 75 c3
41 4 77 1 80 -2 3 -26 -18 -51 -46 -41 -46 -82 -74 -82 -58 0 3 18 26 40 51
40 46 67 110 51 126 -5 5 -22 -8 -39 -28 -25 -31 -159 -110 -170 -100 -2 2 4
17 12 34 15 27 22 71 12 71 -2 0 -20 -16 -39 -35 -19 -19 -44 -35 -56 -35 -26
0 -26 -2 3 51 14 24 28 62 32 83 8 44 5 44 -61 -10 -22 -18 -83 -52 -135 -77
-52 -24 -110 -56 -127 -71 -37 -31 -41 -28 -17 10 43 64 -33 32 -84 -36 -18
-25 -44 -60 -58 -77 -14 -18 -59 -52 -102 -75 l-77 -43 36 -3 c20 -2 64 3 98
11 l62 14 -40 -36 c-21 -20 -46 -53 -54 -73 l-16 -38 -91 0 -92 0 26 31 c38
45 32 51 -26 24 -57 -27 -78 -31 -78 -15 0 6 7 10 16 10 17 0 68 48 69 65 0 5
14 12 31 15 35 8 54 18 54 29 0 4 25 33 56 64 41 41 55 62 51 76 -3 15 8 30
42 59 42 36 49 38 59 24 9 -14 11 -7 11 33 1 72 32 100 52 48 10 -26 12 -27
19 -8 5 11 9 36 9 56 1 22 8 43 20 53 19 17 20 17 31 -26 22 -86 31 -80 45 35
6 46 25 57 25 14 0 -32 18 -90 34 -112 12 -17 13 -12 9 47 -9 113 18 193 30
90 11 -98 66 -165 68 -84 1 53 13 87 29 87 8 0 16 9 19 20 3 21 18 35 37 35
15 0 46 -153 38 -187 -6 -27 -6 -27 11 -11 15 14 19 38 23 123 4 96 6 104 21
92 9 -8 22 -12 30 -9z m-1071 -810 l3 -48 40 0 39 0 0 51 0 50 48 -3 47 -3 0
-45 0 -45 -47 -3 -48 -3 0 -40 c0 -39 0 -39 -40 -39 l-40 0 0 40 0 40 -50 0
-50 0 0 -40 0 -40 -40 0 -40 0 0 40 0 40 40 0 40 0 0 43 c0 24 3 47 7 51 4 4
25 6 48 4 l40 -3 3 -47z m1170 0 l3 -48 40 0 39 0 0 50 0 50 45 0 45 0 0 -50
0 -50 -45 0 -45 0 0 -40 0 -40 -40 0 -40 0 0 -45 0 -45 -50 0 -50 0 0 45 0 45
-45 0 -45 0 0 -45 0 -45 -50 0 -50 0 0 45 0 45 50 0 50 0 0 40 0 40 45 0 45 0
0 51 0 50 48 -3 47 -3 3 -47z m1204 12 c90 -28 131 -50 94 -50 -24 0 -19 -16
9 -34 19 -13 24 -22 19 -40 -4 -15 6 -42 30 -84 20 -33 36 -65 36 -70 0 -16
-39 -21 -51 -6 -19 23 -149 117 -155 112 -5 -5 33 -39 100 -91 21 -16 51 -51
68 -78 28 -46 48 -62 48 -39 0 19 16 10 33 -19 9 -16 17 -31 17 -34 0 -3 -24
1 -52 9 -60 16 -138 19 -138 5 0 -5 19 -25 41 -45 23 -19 61 -58 85 -87 34
-39 42 -54 34 -65 -8 -9 -8 -19 -1 -32 14 -26 5 -32 -46 -32 -24 0 -43 -3 -43
-7 0 -5 16 -19 36 -32 36 -25 104 -101 104 -117 0 -4 -5 -3 -12 4 -40 40 -32
-15 18 -124 18 -41 31 -74 28 -74 -2 0 -18 10 -34 22 -16 12 -32 19 -35 16 -3
-3 13 -40 35 -83 43 -82 45 -103 7 -67 -39 37 -48 27 -28 -30 22 -64 33 -131
22 -126 -16 6 -140 176 -156 214 -9 21 -30 104 -46 183 -17 84 -44 179 -65
230 -19 47 -43 106 -51 131 -9 25 -20 49 -24 54 -17 19 -9 -31 15 -95 37 -99
68 -314 64 -444 l-3 -110 -25 40 c-14 21 -30 53 -37 70 l-11 30 -1 -40 c-1
-57 -20 -32 -29 41 l-8 59 -11 -35 c-7 -19 -14 -59 -17 -89 -5 -47 -16 -84
-16 -53 0 7 -4 12 -9 12 -12 0 6 -57 21 -66 17 -11 21 5 20 68 l-2 63 20 -37
c20 -38 39 -49 42 -25 3 26 16 -122 17 -198 1 -99 -14 -90 -30 18 -6 42 -14
75 -18 73 -9 -6 -6 -256 3 -288 5 -18 4 -28 -2 -28 -6 0 -16 25 -22 55 -15 73
-32 71 -24 -2 9 -96 24 -161 50 -220 15 -33 20 -53 12 -51 -20 7 -78 99 -91
145 -6 24 -14 43 -18 43 -3 0 -9 -31 -12 -68 -8 -76 -25 -135 -37 -127 -5 3
-7 14 -5 25 7 38 -10 19 -40 -42 -44 -89 -56 -82 -23 14 20 60 27 101 27 148
l-1 65 -9 -55 c-11 -75 -34 -143 -74 -216 -30 -54 -58 -164 -41 -164 3 0 37
48 76 108 54 83 70 101 70 81 0 -14 3 -29 7 -32 8 -8 40 62 54 120 6 24 16 43
21 43 18 0 40 -76 44 -155 4 -79 2 -87 -10 -32 -11 49 -23 29 -29 -50 -9 -101
-56 -253 -79 -253 -4 0 -8 39 -8 87 0 47 -3 84 -6 80 -3 -3 -12 -38 -20 -77
-7 -40 -27 -95 -44 -124 -33 -58 -105 -144 -113 -136 -3 3 3 41 13 85 18 73
27 175 15 163 -3 -2 -12 -42 -21 -88 -21 -114 -42 -151 -133 -235 -23 -22 -34
-26 -40 -17 -5 9 -22 -2 -59 -37 -35 -34 -57 -48 -70 -44 -24 6 -71 -49 -109
-129 -15 -32 -30 -58 -33 -58 -3 0 -4 18 -2 40 4 38 2 42 -26 52 -32 12 -42
32 -42 83 0 23 11 42 45 75 39 38 45 41 45 23 0 -30 17 -38 30 -13 6 11 17 20
24 20 19 0 62 53 93 114 32 63 30 61 47 47 20 -17 57 36 86 121 24 75 34 87
49 61 9 -16 12 -16 21 -3 5 8 10 29 10 45 0 33 13 58 26 53 5 -1 10 23 12 55
2 42 7 57 17 57 18 0 18 11 4 100 -14 83 -9 106 22 90 33 -18 38 -1 23 70 -17
82 -18 232 -2 248 20 20 26 14 33 -28 4 -22 10 -40 14 -40 20 0 41 42 52 105
10 61 17 74 48 101 l36 32 3 149 c4 160 -10 269 -50 393 -28 90 -102 230 -144
276 l-35 39 30 -47 c83 -126 148 -298 170 -445 13 -84 15 -303 3 -303 -4 0
-13 5 -20 12 -9 9 -12 1 -12 -36 0 -26 -4 -45 -9 -42 -8 5 -13 27 -41 176 -16
83 -30 96 -30 28 0 -89 -9 -97 -36 -32 -25 61 -40 82 -50 71 -4 -4 0 -15 9
-25 17 -19 28 -47 47 -120 13 -50 25 -48 35 5 l8 38 13 -64 c10 -46 11 -82 4
-135 -5 -39 -10 -79 -10 -88 0 -27 -20 -22 -20 5 0 24 -25 67 -39 67 -5 0 -16
-21 -26 -47 -23 -61 -86 -173 -98 -173 -11 0 0 52 23 105 20 46 34 105 26 105
-3 0 -21 -34 -40 -75 -25 -55 -39 -73 -50 -69 -8 3 -19 -2 -24 -13 -8 -15 -32
-142 -32 -169 0 -5 -4 -4 -9 1 -6 6 -11 52 -12 103 -2 61 -6 89 -13 82 -16
-16 -10 -163 9 -199 23 -45 39 -34 47 35 10 76 13 84 38 84 15 0 20 -7 20 -25
0 -38 27 -30 50 15 11 22 24 40 28 40 7 0 42 -162 36 -168 -1 -2 -10 10 -19
28 -9 17 -22 29 -28 27 -14 -5 -16 -120 -3 -187 8 -40 7 -43 -8 -31 -29 24
-34 -26 -10 -106 13 -48 -18 -21 -46 38 -19 40 -30 54 -32 42 -7 -31 -29 21
-35 83 -3 30 -9 54 -14 54 -10 0 -18 -51 -17 -100 2 -51 -17 -128 -37 -150
-12 -13 -19 -48 -25 -132 -7 -90 -15 -129 -40 -193 -17 -44 -38 -87 -47 -95
-14 -13 -15 -13 -8 5 21 55 38 121 60 233 28 138 29 152 15 152 -5 0 -10 -8
-10 -18 0 -38 -92 -371 -107 -392 -2 -2 -8 2 -13 9 -4 8 -15 11 -24 8 -13 -5
-15 5 -11 76 4 79 4 80 -6 27 -5 -30 -14 -69 -18 -87 -5 -19 -5 -35 1 -41 7
-7 3 -14 -10 -21 -11 -6 -42 -45 -67 -86 -26 -41 -51 -75 -56 -75 -13 0 -11
214 2 284 12 68 6 84 -11 29 -7 -21 -17 -42 -23 -48 -11 -11 -11 -9 27 115 31
100 44 218 28 246 -10 16 -11 13 -12 -22 0 -22 -16 -96 -35 -164 -19 -68 -35
-134 -35 -147 0 -30 -72 -135 -109 -157 -16 -10 -17 -12 40 79 47 76 69 154
75 270 6 98 -8 101 -21 6 -9 -70 -33 -138 -78 -226 l-36 -70 -1 60 c0 33 -12
103 -25 154 -14 52 -25 103 -25 113 0 10 -4 18 -10 18 -5 0 -10 -16 -10 -35 0
-19 -4 -35 -10 -35 -5 0 -10 3 -10 8 0 4 -7 41 -16 82 -9 41 -20 120 -23 175
-7 97 -11 103 -27 40 -5 -20 -10 23 -15 130 -4 88 -10 201 -14 250 l-6 90 29
-45 c48 -75 84 -91 48 -22 -17 33 -48 150 -70 261 -10 46 -29 120 -43 164 -14
44 -27 88 -30 96 -3 9 4 5 16 -9 l21 -25 0 31 c0 46 -24 107 -76 190 -53 86
-88 170 -74 179 6 4 13 -1 16 -9 3 -9 10 -16 15 -16 14 0 11 47 -6 87 -8 20
-14 37 -12 39 1 2 22 -22 46 -52 24 -30 45 -53 48 -51 8 9 -28 69 -69 113
l-41 44 49 0 c37 0 60 -7 94 -30 51 -34 64 -31 30 5 l-23 25 65 0 c56 0 68 -3
82 -22 l17 -23 -6 23 c-6 21 -4 22 74 22 l81 0 0 39 c0 43 10 50 55 42 24 -5
33 -15 47 -54 63 -170 62 -442 -3 -612 l-23 -60 -7 35 c-5 29 -7 30 -8 9 0
-15 -7 -45 -15 -67 -12 -34 -12 -43 -1 -52 10 -8 18 -4 35 20 12 17 24 30 26
28 12 -13 -88 -262 -120 -300 -21 -24 -35 -184 -18 -214 10 -17 11 -17 16 6 2
14 7 50 10 80 6 70 38 166 54 163 7 -2 12 7 12 20 0 24 48 102 57 93 6 -6 -10
-48 -55 -144 -21 -45 -24 -61 -18 -113 12 -104 31 -119 35 -28 2 41 16 78 66
179 89 178 108 282 86 475 -8 67 -7 84 4 73 13 -13 35 -182 35 -269 0 -75 -5
-113 -24 -170 -13 -41 -22 -76 -19 -79 10 -11 45 50 67 121 34 104 49 253 37
360 -5 46 -8 85 -6 87 4 5 69 -111 95 -170 11 -26 26 -83 32 -127 11 -71 10
-88 -9 -162 -11 -46 -33 -109 -47 -139 -28 -59 -29 -41 -2 23 11 24 12 36 5
32 -24 -15 -88 -173 -115 -284 -24 -98 -29 -110 -36 -85 -7 26 0 80 28 204 l5
25 -15 -26 c-36 -62 -43 -245 -10 -256 5 -2 20 41 33 97 12 55 28 117 36 138
l14 37 0 -38 c1 -38 21 -45 21 -7 0 10 32 80 70 155 39 75 70 144 71 153 1 10
4 7 9 -8 l7 -25 12 28 c13 33 15 60 3 53 -5 -3 -14 25 -21 62 -25 134 -53 219
-105 317 -77 149 -199 335 -261 401 -39 42 -55 67 -55 86 0 26 3 28 45 28 l45
0 0 40 0 40 45 0 45 0 0 40 0 40 218 0 217 0 48 -54 c26 -30 47 -57 47 -60 0
-3 -25 6 -55 21 -30 15 -57 24 -61 20 -3 -3 8 -24 25 -45 35 -45 38 -54 15
-45 -14 5 -14 2 1 -28 10 -19 26 -45 36 -58 22 -28 24 -42 5 -35 -8 3 -17 1
-20 -4 -7 -11 95 -122 112 -122 7 0 12 -7 12 -15 0 -18 39 -35 81 -35 16 0 29
-5 29 -11 0 -8 -12 -10 -35 -6 -19 3 -35 2 -35 -4 0 -15 86 -11 100 6 14 17 5
23 -50 27 -19 2 -34 8 -33 13 1 6 -11 24 -26 40 -50 53 -66 106 -39 133 17 17
22 15 58 -14 38 -33 51 -24 22 15 -14 20 -18 31 -10 33 8 3 -2 24 -26 57 -21
28 -36 54 -34 56 3 3 31 -15 63 -40 54 -43 100 -64 111 -52 3 2 -6 20 -19 40
-28 42 -52 96 -44 103 2 3 20 -4 38 -15 20 -12 51 -21 74 -20 l40 0 -35 27
c-59 46 -95 81 -85 82 6 0 54 -14 107 -30z m-2084 -172 c-32 -41 -64 -63 -73
-49 -3 6 6 16 20 23 14 6 24 17 21 25 -5 13 19 32 43 33 9 0 6 -10 -11 -32z
m224 6 c5 -3 8 -18 8 -35 0 -16 3 -30 8 -30 4 -1 20 -3 36 -5 47 -5 56 -12 56
-40 0 -21 -3 -25 -17 -19 -65 27 -140 24 -233 -10 -50 -18 -174 -95 -165 -103
2 -3 37 10 75 28 62 28 87 33 198 41 224 17 204 18 213 -16 5 -16 6 -40 2 -53
-6 -24 -56 -62 -83 -62 -8 0 -1 9 17 20 37 22 53 48 53 84 0 30 -8 33 -26 9
-10 -15 -29 -18 -126 -18 -109 0 -154 -9 -129 -25 7 -3 -13 -12 -44 -19 -30
-7 -55 -16 -55 -21 0 -4 17 -4 38 1 63 15 130 10 172 -11 22 -11 44 -20 50
-20 13 0 69 -62 88 -96 16 -29 13 -30 -33 -3 -20 12 -38 20 -40 17 -2 -2 12
-24 32 -48 89 -112 138 -213 196 -405 68 -222 76 -280 87 -625 5 -168 16 -361
25 -430 12 -88 15 -175 13 -295 -4 -166 -11 -211 -29 -199 -5 3 -9 -4 -9 -16
0 -34 -17 -14 -29 34 -11 46 -28 68 -35 44 -17 -66 -41 -128 -57 -148 -19 -25
-19 -25 -19 75 0 55 -9 163 -20 240 -11 77 -20 163 -21 190 l-1 50 -13 -30
c-28 -61 -46 -175 -54 -342 -7 -171 -8 -173 -44 -246 -42 -85 -67 -111 -109
-113 -23 -1 -28 1 -22 15 40 97 30 270 -22 388 -27 62 -46 71 -33 16 12 -53
11 -202 -2 -262 -10 -48 -48 -112 -49 -82 0 7 -6 11 -14 8 -12 -5 -16 5 -18
39 -2 24 -7 45 -13 47 -5 1 -21 -21 -35 -50 -42 -87 -43 -86 -85 42 -30 94
-36 124 -30 160 3 25 4 45 1 45 -9 0 -52 -91 -66 -138 -7 -23 -16 -42 -20 -42
-4 0 -20 24 -34 53 -15 29 -52 84 -83 122 -65 81 -92 136 -93 184 l0 34 23
-20 c32 -30 82 -53 112 -53 20 0 29 -7 38 -30 13 -35 30 -40 25 -8 -3 19 3 23
38 30 22 5 103 39 180 77 275 134 311 169 383 374 37 107 39 121 9 114 -20 -6
-20 -5 -5 10 15 16 18 15 40 -5 29 -27 41 -28 27 -2 -6 11 -22 23 -35 26 -30
7 -30 -1 -5 115 11 52 20 115 20 141 0 70 -25 175 -71 298 -22 60 -38 113 -35
119 4 5 2 12 -3 16 -5 3 -37 61 -70 128 -33 68 -79 144 -103 171 -46 54 -121
106 -150 106 -10 0 -27 9 -38 20 -10 10 -21 16 -24 12 -2 -4 -55 -9 -117 -10
-116 -3 -222 -20 -286 -47 -38 -16 -52 -10 -53 23 0 6 -4 12 -10 12 -13 0 -13
-12 0 -44 8 -23 7 -26 -11 -26 -11 0 -22 -8 -26 -17 -3 -10 -12 -25 -20 -35
-10 -11 -16 -56 -20 -147 -3 -72 -9 -131 -13 -131 -4 0 -17 32 -30 72 -29 91
-23 164 20 276 37 97 81 159 123 177 18 7 41 23 52 35 18 20 26 22 83 16 34
-4 62 -3 62 1 0 4 -20 16 -45 26 -25 11 -45 23 -45 27 0 30 197 150 247 150
31 0 53 -15 53 -37 0 -7 -16 -31 -36 -53 -20 -22 -34 -44 -32 -50 5 -16 76 37
83 62 18 59 118 139 198 159 30 7 92 3 109 -7z m-692 -82 c0 -3 -11 -20 -25
-38 -27 -36 -31 -50 -14 -56 7 -2 2 -22 -15 -56 -14 -28 -26 -58 -26 -67 0
-15 2 -15 22 -1 48 34 38 13 -20 -44 -34 -33 -64 -60 -66 -60 -3 0 4 19 14 43
29 65 43 139 29 148 -9 5 -3 22 20 59 17 28 29 55 26 60 -7 12 25 29 42 23 7
-3 13 -8 13 -11z m52 -17 c13 -30 55 -34 93 -9 13 9 30 14 36 12 7 -2 -10 -18
-37 -36 -27 -17 -63 -45 -79 -62 -16 -16 -32 -30 -37 -30 -4 0 -8 34 -8 75 0
78 11 95 32 50z m208 -380 c0 -8 5 -15 10 -15 16 0 12 -18 -9 -39 -28 -28 -61
-17 -61 20 0 16 7 32 18 38 25 15 42 13 42 -4z m100 0 c0 -8 5 -15 10 -15 16
0 11 -36 -8 -60 l-19 -23 -21 31 c-28 38 -27 47 0 66 28 20 38 20 38 1z m114
-5 c51 -20 146 -91 146 -111 0 -5 -11 -4 -26 1 -45 17 -71 12 -99 -22 -24 -29
-27 -38 -22 -84 3 -29 13 -65 22 -81 15 -26 16 -26 10 -3 -4 14 -9 50 -12 81
-5 49 -2 59 18 78 30 28 82 28 110 0 23 -23 23 -11 -1 -251 -8 -71 -16 -128
-19 -128 -3 0 -19 34 -36 76 -16 41 -31 69 -33 60 -2 -8 6 -36 17 -62 l21 -46
-28 -32 c-15 -18 -42 -54 -59 -79 -33 -47 -53 -60 -53 -32 0 8 -20 30 -45 49
-26 19 -55 46 -66 60 -11 14 -29 26 -39 26 -11 0 -24 9 -30 20 -6 12 -21 20
-35 20 -14 0 -25 5 -25 10 0 25 -50 60 -83 60 -30 0 -35 4 -40 28 -12 55 -44
90 -98 109 -28 10 -53 23 -56 30 -9 24 47 82 91 94 22 6 52 16 66 22 14 5 41
12 60 13 89 7 110 12 136 29 19 12 29 14 32 7 2 -7 12 -22 22 -34 15 -20 20
-21 35 -8 22 18 46 67 44 88 -4 39 0 40 75 12z m-301 -24 c8 -24 6 -32 -9 -43
-40 -29 -73 -2 -60 51 9 35 57 30 69 -8z m-95 -34 c3 -26 -1 -34 -20 -41 -30
-11 -38 -6 -38 28 0 57 53 69 58 13z m-68 -27 c0 -6 -11 -17 -25 -23 -33 -15
-44 7 -19 37 13 15 21 18 31 9 7 -6 13 -16 13 -23z m-74 -39 c7 -19 -14 -58
-29 -53 -14 4 -21 32 -13 53 7 18 35 18 42 0z m-6 -129 c0 -1 -9 -20 -20 -42
-11 -22 -20 -48 -19 -60 0 -12 10 1 24 33 30 65 57 70 104 17 40 -46 41 -95 5
-168 -15 -28 -37 -79 -49 -112 -18 -45 -25 -56 -30 -42 -4 10 -5 34 -2 54 7
41 -3 36 -19 -10 l-11 -32 -19 55 c-25 75 -26 231 -1 278 10 17 22 32 27 32 6
0 10 -1 10 -3z m757 -47 c4 -16 8 -18 19 -9 11 9 14 6 14 -14 0 -14 -5 -38
-10 -52 -9 -23 -13 -25 -25 -15 -13 11 -18 10 -30 -6 -13 -18 -14 -16 -15 23
0 73 33 125 47 73z m-823 -193 c18 -87 20 -112 11 -148 -19 -73 -26 -131 -16
-125 5 4 13 20 16 37 5 23 10 28 18 20 7 -7 14 -72 17 -169 4 -110 8 -147 13
-125 11 44 25 50 33 16 11 -44 76 -204 81 -199 3 3 9 42 14 88 5 46 12 91 15
101 3 9 1 17 -5 17 -6 0 -13 -11 -17 -25 -10 -38 -24 -30 -24 14 0 22 -11 75
-24 118 -14 43 -30 98 -36 123 -6 25 -13 53 -16 63 -4 12 0 17 13 17 12 -1 32
-26 60 -77 42 -76 29 -77 -23 -2 -15 22 -29 37 -32 34 -3 -2 23 -41 57 -86 48
-63 61 -89 62 -117 1 -36 1 -36 10 -10 8 20 6 35 -6 60 l-16 33 22 -25 c19
-23 21 -32 15 -104 -7 -87 -15 -110 -27 -80 -6 16 -8 14 -8 -9 -1 -16 3 -26 9
-22 13 8 13 -8 1 -21 -11 -10 -38 -138 -43 -197 -4 -50 -21 -49 -30 1 -8 49
-45 137 -64 153 -10 8 -14 8 -14 0 0 -6 -4 -11 -8 -11 -18 0 -44 139 -41 219
4 87 -8 96 -18 13 -9 -76 -23 -63 -24 21 l0 72 -15 -40 c-42 -114 -41 -25 1
138 12 48 19 87 15 87 -4 0 -10 -9 -13 -20 -7 -27 -29 -25 -27 3 3 36 1 40
-15 27 -23 -19 -27 -7 -9 30 9 18 21 67 26 109 6 42 12 87 15 100 8 43 25 6
47 -102z m892 88 c7 -28 -3 -47 -14 -28 -5 8 -13 9 -22 3 -31 -20 -38 -9 -12
19 34 36 40 37 48 6z m-611 -25 c0 -8 6 -17 13 -20 11 -5 9 -11 -6 -30 -19
-24 -21 -24 -40 -7 -12 11 -22 14 -26 8 -4 -5 -2 -12 4 -16 13 -8 3 -25 -13
-25 -7 0 -18 4 -26 9 -19 12 4 80 33 91 30 13 61 8 61 -10z m95 -77 c0 -24 -3
-25 -36 -20 -30 5 -37 3 -41 -13 -3 -11 -11 -16 -19 -13 -21 8 -17 21 18 51
39 36 78 33 78 -5z m64 -35 c14 -23 8 -27 -47 -32 -52 -5 -72 9 -34 23 14 6
28 15 32 21 9 15 36 9 49 -12z m36 -48 c0 -5 7 -7 16 -3 12 4 15 2 12 -8 -4
-12 -30 -21 -93 -31 -34 -5 -22 24 15 38 44 16 50 16 50 4z m70 -54 c0 -22
-17 -46 -32 -46 -4 0 -8 6 -8 14 0 8 -6 16 -12 19 -9 3 -4 11 12 25 29 23 40
20 40 -12z m-194 -88 c65 -105 135 -250 154 -320 7 -27 17 -48 22 -48 5 0 7 8
4 18 -11 35 -47 254 -43 258 8 9 55 -15 90 -45 41 -36 79 -118 80 -175 1 -23
0 -89 -1 -147 -2 -117 -3 -119 -84 -134 l-34 -6 -51 93 c-28 51 -68 129 -87
172 -40 87 -59 99 -26 17 26 -66 26 -66 -10 -41 -21 15 -39 20 -55 16 -23 -6
-27 -12 -40 -70 -13 -58 -16 -15 -5 57 9 56 10 95 1 157 -6 46 -9 85 -7 87 2
3 14 -1 26 -7 36 -19 46 1 27 51 -10 26 -13 47 -8 53 6 7 4 27 -5 51 -29 83
-17 75 52 -37z m664 -128 c0 -35 -31 -171 -52 -235 -34 -97 -123 -245 -149
-245 -5 0 -29 32 -54 70 -25 39 -47 70 -50 70 -2 0 -11 -21 -20 -47 l-15 -48
3 110 c3 126 20 175 82 243 34 38 123 92 151 92 8 0 0 -27 -22 -74 -30 -62
-36 -88 -41 -167 -7 -107 3 -112 22 -12 19 98 50 173 91 221 39 46 54 52 54
22z m1101 -364 c17 -36 37 -70 45 -77 22 -18 17 -30 -10 -23 -30 7 -40 -9 -60
-102 -26 -127 -45 -151 -61 -79 -5 23 -4 26 4 15 6 -8 11 -13 11 -10 5 27 21
192 26 258 4 45 9 82 11 82 2 0 18 -29 34 -64z m-1374 -78 c15 -37 25 -52 37
-50 9 2 16 -3 16 -9 0 -17 -30 -49 -46 -49 -7 0 -14 -6 -17 -12 -10 -29 -21 8
-25 87 -5 99 6 109 35 33z m-369 -114 c28 -13 52 -27 52 -30 0 -3 -7 -3 -16 0
-23 9 -44 -12 -44 -44 0 -32 21 -53 44 -44 26 10 18 -12 -9 -24 -67 -31 -147
-2 -160 58 -4 16 -11 32 -16 35 -5 4 -9 21 -8 38 0 30 2 28 30 -28 33 -68 60
-95 96 -95 32 0 21 16 -17 23 -31 7 -46 32 -80 127 -29 83 -28 86 26 44 27
-20 73 -48 102 -60z m220 64 c17 -17 15 -43 -5 -59 -12 -10 -17 -11 -20 -2 -2
7 -10 10 -17 7 -8 -3 -16 2 -19 10 -5 12 0 16 19 16 21 0 24 4 19 20 -7 22 5
26 23 8z m-90 -84 c-34 -19 -60 -17 -56 3 4 21 48 34 66 20 11 -8 8 -13 -10
-23z m171 -8 c13 -16 1 -29 -42 -45 -35 -14 -48 10 -22 39 21 23 48 26 64 6z
m-263 -41 c0 -11 -2 -24 -4 -28 -7 -13 -32 14 -32 35 0 26 35 19 36 -7z m84
-10 c0 -15 -8 -26 -21 -30 -32 -10 -44 8 -24 38 19 30 45 25 45 -8z m230 28
c0 -18 -326 -151 -338 -138 -5 5 0 7 128 55 47 18 110 45 140 61 59 30 70 33
70 22z m-170 -14 c0 -5 4 -8 9 -4 5 3 12 1 16 -4 6 -11 -25 -31 -49 -31 -19 0
-21 21 -4 38 15 15 28 15 28 1z"/>
<path d="M2000 3090 l0 -40 45 0 45 0 0 40 0 40 -45 0 -45 0 0 -40z"/>
<path d="M2690 2558 c0 -4 7 -33 15 -65 8 -31 15 -74 15 -95 0 -20 5 -40 10
-43 13 -8 13 31 -1 96 -10 48 -38 124 -39 107z"/>
<path d="M2190 2266 c-36 -71 -73 -133 -82 -140 -12 -7 -18 -23 -18 -46 l0
-35 28 55 c53 104 115 215 129 232 8 9 13 27 11 40 -2 17 -20 -11 -68 -106z"/>
<path d="M2124 2216 c-14 -31 -24 -61 -22 -68 2 -6 16 17 31 52 35 79 27 93
-9 16z"/>
<path d="M2222 2078 c-20 -26 -50 -94 -56 -128 -3 -19 -3 -28 1 -20 8 20 65
143 70 153 7 12 -4 8 -15 -5z"/>
<path d="M2590 1790 c0 -6 -18 -56 -41 -113 -40 -100 -41 -103 -29 -160 7 -36
8 -63 2 -70 -5 -7 -12 -30 -16 -52 l-6 -40 19 23 c11 12 25 48 31 80 7 31 23
85 36 120 13 34 19 62 15 62 -5 0 -21 -30 -35 -67 l-26 -68 5 50 c4 28 17 82
29 120 32 96 38 125 26 125 -5 0 -10 -5 -10 -10z"/>
<path d="M2466 1555 c-65 -144 -92 -254 -67 -270 5 -3 15 12 22 32 13 42 39
84 78 126 17 18 22 30 15 37 -7 7 -21 -7 -45 -42 -45 -70 -50 -42 -9 52 17 39
30 79 27 88 -2 12 -9 4 -21 -23z"/>
<path d="M1510 2407 c0 -5 18 -39 41 -77 57 -97 122 -248 159 -373 40 -134 41
-205 6 -351 -31 -127 -32 -138 -5 -71 27 69 49 183 49 252 0 97 -68 314 -143
453 -43 80 -107 180 -107 167z"/>
</g>
</svg>
