<svg xmlns="http://www.w3.org/2000/svg" style="transform: scale(-1,1)" xmlns:xlink="http://www.w3.org/1999/xlink" viewBox="0 0 720 640"><defs><path xmlns="http://www.w3.org/2000/svg" id="k" d="m2711.8 107 .5-.1-.5.1zm19.8-3.3h-.2.2z"/></defs><circle xmlns="http://www.w3.org/2000/svg" cx="360" cy="320" r="264.4" fill="#e8ecef"/><g xmlns="http://www.w3.org/2000/svg" fill="#fff"><path d="M296.8 446.5zm10 0zm10 0zm175-85.3zm0 0h-.1s-.2 0 0 0c-.3 0 .1 0 0 0l-.2-.1h-.1.3s-.3 0 0 0c.2 0-.2 0 0 0h-.1.1s-.1 0 0 0c.1-.1 0-.1-.1-.1-.2 0 .3 0 0 0l-1-.1c-.1 0 0 0 0 0 .1 0-.1 0 0 0h-.1.1c.1 0 0 0 0 0h.1c.1 0-.2 0 0 .1h.3-.3c.1 0 0 0 0 0s-.2 0 0 0h-.2s.1 0 0 0 .1 0 0 0h-.1c-.2 0 0 0 0 0h.1l-.1.1c.1 0-.1 0 0 0h.2-.2.1-.2c.1 0 .2 0 0 0 0 0 .2 0 0 0h.4-.1v.1h.1-.1.2-.2c-.1 0 .1 0 0 0h.1-.1.4v.1h1-.2l.2-.1zm-76.7-83h1-1zM530 296.8h.2-.2zm46.3-84h11a8 8 0 0 0 8.1-8.1v-26.5c0-4.5-3.6-8.2-8.1-8.2h-85.6a8.2 8.2 0 0 0-8.1 8.2v12.6h-74.3a6.4 6.4 0 0 0-6.4 6.4V278h163.4v-65.2zm-163.8 17.8v-.8.8zm-102 176v-.4.2zm282.3-32v.8-.8zm-8.3 10.6v-.2.2zm12.7-55.8a11.6 11.6 0 0 0 11.6-11.5h-101l-.9-21.5h62.8a6.5 6.5 0 0 0 6.5-6.5v-11.3H412.8V290a6.5 6.5 0 0 0 6.5 6.5H482l-.8 21.5H293.5a11.6 11.6 0 0 0 11.6 11.5h14v.2h-7.5v29.9h4.4l-8.7 85.6h-.1v.1c0 .1-.1-.2-.2.1h-.2v.1-.1c-.1 0 0 0 0 0h-.2l-.2.2v-.2c0-.1 0 .1-.1 0a.2.2 0 0 1 0 .1v-.1h-.2v.1-.1.1h-.1v.1h-.1v.1h-.2c-.4.7 0 1 0 1l.4-.2c.1 0 .2.2.4.1h.2l.2-.1h.1l-3.5 34.8h5l16.8-121.8h256L598 481.2h5l-12.4-121.8h3.7v-29.9h-6.7v-.1h9.5zm-19.9.2H329.4v-.2h247.8v.2zM504 359.9h1.2-1.6.4zm13.5-190.6h-.3.3zm-15.8-5.7h85.5c4.5 0 8.2-3.7 8.2-8.2V129c0-4.5-3.7-8.1-8.2-8.1h-85.5a8.2 8.2 0 0 0-8.2 8.1v26.5a8.2 8.2 0 0 0 8.2 8.2zm-.7.7h-.2.2zM76.7 480.8h-.4.4zM91 482h.1zm171-280.6-.4-.1.4.1zm-1.6.2H100.6a4.6 4.6 0 0 0-4.6 4.6v100.7a4.6 4.6 0 0 0 4.6 4.6h159.8a4.6 4.6 0 0 0 4.6-4.6V206.2a4.6 4.6 0 0 0-4.6-4.6zm-124.2-.4h1-1zM200.4 78a10 10 0 1 0-10-10.1 10 10 0 0 0 10 10zm6.6-1.9h-.2.2zm57.7 14c4.5 0 8.1-3.7 8.1-8.2a8.2 8.2 0 0 0-8.1-8.1 8.1 8.1 0 0 0 0 16.3zm7.7 34.8a13.8 13.8 0 0 0 0 27.6 13.8 13.8 0 1 0 0-27.6z"/><circle cx="191.2" cy="153.8" r="16.7"/><path d="m201.7 167.3.2-.2-.2.2z"/><circle cx="225.7" cy="111.1" r="29.2"/><path d="m243.8 134.5.4-.3-.4.3zm-10.3-52h.1z"/></g><g xmlns="http://www.w3.org/2000/svg" fill="#8f99a8"><path d="M481.6 190.1h.3zm11.1-36.1v1.7a9 9 0 0 0 2 5.2 8.9 8.9 0 0 0 6.3 3.4h16.7-.3 6.5l-.1-.2h9.7c4.8-.1 7.7.2 12.7 0h.2l4.9-.1c1.7 0 1.4 0 1.6.1h2.8-.6 3.8l-.8-.2 2.5.1v-.1c2.7 0 4.3.2 7 .3l19.2-.1c.7 0 1.5 0 2.2-.2a8.6 8.6 0 0 0 6.8-7.6l.1-2 .1-.5c.2-.2-.2-2.9 0-3.2l-.1-1.2v-2.5l.1-1.1v-17.9a8.6 8.6 0 0 0-8.8-7.6h-5.3c-8.5.2-18.4-.3-27 0h-9.1s-38.6-.1-9.2 1h-.2H551h-.1 8-.7 18.1-.2 4.1c1.8-.2 5.2 0 6.6-.1h.1c1.2 0 2.3.2 3.3.7a8.6 8.6 0 0 0-1.2-.4c.5-.1 2.5.8 4.1 2.6a11 11 0 0 1 1.7 3c.4 1.1.4 2.4.4 3.6 0 1.2-.2-1-.1.8-.1 0 0-.9-.1-.4v5l-.1.1v7.2c0 2.9-.2 1.9-.1 5l-.1 1v3.4a66.5 66.5 0 0 0 0 2.5 9 9 0 0 1-.3 2.3 7 7 0 0 1-3.2 4.2l-1.6.8c-.7.3-1.3.4-1.7.4h-1.8c-.8 0-1.2 0 0 0h.5l.3-.1c-2.4-.2-4.4 0-6.8 0 .7 0 1.7 0 1 .1H579h.5l-3.4-.1h.5-4c-.9 0 1.5.1-.2.2l-8.2-.2c.2.1-.5 0-1.3.1h-.1c-3 0-1-.2-4-.1l.3-.1-.8.2c-2.6.1-1.4-.2-4.4 0 1.2 0 .6.2-.8.1h.3-1.6c.5 0 .3-.1-.9-.1l.8-.1-2.2.1H540c.8 0-1.2 0-.7-.2-.9.1-3.7.2-4.8 0h.2c-4.1 0-7 .2-10.8.1.2.1-1.8 0-1.3.1-3.8.2-7-.2-8.4.2l-3-.1h.5-6.7c-1.2 0-1.4.2-3.5.1l-1-.1c.5 0 .7 0-.3-.2a11.7 11.7 0 0 1-.6 0v-.1l-.9-.3.5.2.1.1a10 10 0 0 1-2-1.1c-.7-.5-1.1-1-1.1-1a8 8 0 0 1-2.1-4.7l-.1-5 .1 1.5V150v2.1c.2-2.9 0-5.9 0-9.3v-.8l-.1-1.2.1-1.6v-5.5c0 1 0 .6-.1.2v-2h.1l-.1-2.5.1 1.5v-2.5l.1-.7.1-.6.3-1c.7-1.5-.2.3 0-.5a7.4 7.4 0 0 1 3.2-3.5l-.5.3a7.8 7.8 0 0 1 3.4-1.4h3c22-.7 4.6-1 4.6-1h-5.9a9 9 0 0 0-9.4 9.5v3.6l-.2 20.9zm16.6 26.6a3.6 3.6 0 0 0-3.6 3.6v13.5a3.6 3.6 0 0 0 3.6 3.6h13.5a3.6 3.6 0 0 0 3.6-3.6v-13.5a3.6 3.6 0 0 0-3.6-3.6h-13.5zm16.1 3.6v13.5a2.6 2.6 0 0 1-2.6 2.6h-13.5a2.6 2.6 0 0 1-2.6-2.6v-13.5a2.6 2.6 0 0 1 2.6-2.6h13.5a2.6 2.6 0 0 1 2.6 2.6zm-19.7-48.9v13.5a3.6 3.6 0 0 0 3.6 3.6h13.5a3.6 3.6 0 0 0 3.6-3.6v-13.5a3.6 3.6 0 0 0-3.6-3.6h-13.5a3.6 3.6 0 0 0-3.6 3.6zm19.8 0v13.5a2.6 2.6 0 0 1-2.6 2.6h-13.5a2.6 2.6 0 0 1-2.6-2.6v-13.5a2.6 2.6 0 0 1 2.6-2.6h13.5a2.6 2.6 0 0 1 2.6 2.6z"/><path d="m549 133.2-.2-.1h-2.5c-1.1-.1-3.2 0-4.4.1-1.6.2-3.6-.3-5.3-.1h-1.8s-7.6 0-1.8 1h2c0 .2.7 0 .9 0 .5 0 1 .2 1.5 0l-.1.1h3.5l.8-.1h2-.2c0-.2.5.1 1 0 .5 0 1-.4 1.5-.3.2 0-.2.1.1 0 0 .2-.2.1 0 .2h1v.1h1.3c.6 0 .4.2 1 0l.2.2c.3 0 .2-.2.5-.1 0 0 .4 0 .2.1h2.1l.8-.1s.8 0 .3.1h-.1c.5.2.9 0 1.3 0h-.2.5-.1.6c.2 0 .3.2.7 0 .2 0-.3 0 0 0h1.9c.6 0 .2.2.8.1h.1c.5-.2.3 0 .9-.1-.3 0-.1-.2.1-.2v.1h.5l-.2.2.4-.2 1 .1h1c-.2 0 .2 0 0 .1a2 2 0 0 1 1 0h2c0-.1.4 0 .3-.2.8 0 1.4.3 1.7 0h.6-.1 1.3c.2 0 .3-.2.7-.1h.2c-.1 0-.1 0 0 0h1.1l2-.1-.3.1h.5-.4c.5.2 1.1 0 1.8 0h.1l.3-.1c.1 0 0 .2.3.2l1.1-.1c-.2 0-.1 0 0 0h.9-.3 1c.3 0-.1 0 0-.2h2.2c4.4-.7 1-1 1-1-1.8-.2-2.6 0-4.7.1-1.7 0-2.2-.2-4 0h-6a7 7 0 0 1-1.2 0v.1h-2c-.9.2-1.4-.1-2.4 0 .1 0 0 0 0 0-.5 0-1 0-1 .2l-.3-.1h-.6.2-.8l.2.2-.5-.1v.1c-.6 0-.9-.2-1.4-.3-2.2 0-4.6.3-6.6 0h-.1c0-.2-.6.1-.6 0h-.3s-.2 0 0 0h-.5zm33 49.3c-1.7-.3-2.6 0-4.6 0h-6.8c-.4.1-1 0-1.6 0h-1.6a7 7 0 0 1-1.2 0v.1h-2c-.9.2-1.4-.2-2.4 0 .1 0 0 0 0 0-.5 0-1 0-1 .2l-.3-.1h-.6.2-.8l.2.2c-.4 0-.1-.2-.5-.1l-1.4-.2c-2.2 0-4.6.2-6.6 0h-.1c0-.2-.6.1-.6 0h-.3s-.2 0 0 0h-3.2c-1.1-.2-3.2 0-4.4 0-1.6.3-3.6-.2-5.3 0h-1.8s-7.6 0-1.8 1h2c0 .2.7 0 .9 0 .5 0 1 .2 1.5 0l-.1.1h3.5c.3-.2.4 0 .8-.1h2-.2c0-.2.5.1 1 0 .5 0 1-.4 1.4-.3.3-.1-.2.1.2 0 0 .2-.2.1 0 .2h.9v.1h1.4c.6 0 .4.2 1 0l.2.2c.3 0 .2-.2.5-.1h.2c.6.2 1.3 0 2.1.1l.7-.1s.9 0 .4.1h-.1c.4.2.8 0 1.3 0h-.2 1-.1c.3 0 .4.1.8 0 .1 0-.3 0 0 0h1.9c.6 0 .2.2.8.1h.1c.5-.2.3 0 .9-.1-.3 0-.1-.2.1-.2v.1h.4l-.1.2.4-.2 1 .1h1c-.2 0 .2 0 0 .1a2 2 0 0 1 1 0h2c0-.1.4 0 .3-.2.8 0 1.4.3 1.7 0h.6-.1 1.3c.2 0 .3-.2.7-.1h.2c-.1 0-.1 0 0 0h1.1l2-.1-.3.1h.5-.4c.5.2 1.1 0 1.8 0h.1l.3-.1c.1 0 0 .2.3.2l1.1-.1c-.2 0-.1 0 0 0h.9-.3 1c.3 0-.1 0 0-.2h2.2c4.3-.7 1-1 1-1zm-.9 9.2c4.3-.6.9-.9.9-.9-1.7-.2-2.6 0-4.6.1-1.8 0-2.3-.2-4.1-.1h-2.7l-1.6.1h-1.7.1a7 7 0 0 1-1.3 0v.1h-1.9c-.9.2-1.5-.2-2.4 0l-1 .1h-.9.1-.7l.2.2c-.4 0-.1-.2-.5-.2v.1c-.6 0-.9-.2-1.4-.3-2.2 0-4.6.3-6.6 0h-.1c0-.1-.6.2-.7 0l-.2.1h-.7c-.9-.2-1.6 0-2.5 0-1.1-.2-3.2 0-4.4 0-1.7.2-3.6-.3-5.3 0h-1.8s-7.6 0-1.8 1h2c0 .1.6 0 .8 0 .5 0 1.1.1 1.6 0l-.2.1h1l2.6-.1h2.8-.3c.1-.2.5.1 1 0 .5 0 1-.4 1.5-.3.2-.1-.2.1.1 0 0 .2-.1.1 0 .2h1v.1h1.4c.5 0 .3.2 1 0l.2.2c.2 0 .1-.2.4-.1h.2c.7.2 1.3 0 2.2.1l.7-.1s.8 0 .4.1h-.1c.4.2.8 0 1.2 0h-.2.5-.1 1.3c.2 0-.3 0 0 0h1.9c.6 0 .3.2.9.1.6-.2.3 0 1-.1-.3 0-.2-.2 0-.2v.1h.5l-.2.2.5-.2 1 .1h.9c-.2 0 .2 0 .1.1a2 2 0 0 1 1 0h2c0-.1.4 0 .3-.2.7 0 1.4.3 1.6 0h1.8c.3 0 .3-.2.7-.1h1.3l2-.1-.2.1h.4c0 .1-.2 0-.4 0 .6.2 1.2 0 1.8 0h.8c.2.2.7 0 1 0-.1 0 0 0 0 0h.9-.3 1c.3 0 0 0 0-.1h1v-.1h1.3zm-24.1-50c2.3-.6.5-.9.5-.9-1-.2-1.4 0-2.4.1-1 0-1.2-.2-2.2-.1h-1.4l-.8.1h-.9a2 2 0 0 1-.6 0v.1h-1c-.5.2-.8-.2-1.3 0l-.5.1h-.9l.1.2c-.2 0 0-.2-.2-.2v.1c-.3 0-.5-.2-.8-.3-1.1 0-2.4.3-3.4 0 0-.1-.4.2-.4 0l-.1.1s-.1 0 0 0h-.4c-.5-.2-.8 0-1.3 0-.6-.2-1.7 0-2.3 0-.9.2-1.9-.3-2.8 0h-.9s-4 0-1 1h2.4l-.1.1h.4l1.4-.1h1.5-.1c0-.2.2.1.5 0 .2 0 .5-.4.8-.3 0-.1-.1.1 0 0v.2h.5v.1c.3-.1.6.1.8 0 .3 0 .2.2.5 0v.2c.2 0 .2-.2.3-.1h.1c.4.2.7 0 1.1.1l.4-.1s.5 0 .2.1c.2.2.4 0 .7 0h-.1.8c.1 0-.1 0 0 0h1c-.1 0 0 0 0 0 .4 0 .2.2.5.1.3-.2.2 0 .5-.1-.2 0-.1-.2 0-.2v.1h.2v.2l.2-.2.5.1h.5s.1 0 0 .1h1.6c0-.1.2 0 .2-.2.4 0 .7.3.8 0h.3a4.3 4.3 0 0 1 .7 0c.1 0 .1-.2.4-.2-.1.1 0 0 0 0l.1.2c.2 0 .2 0 .1-.1h.4l1-.1c.1 0 0 0 0 .1h.2-.2c.3.2.6 0 1 0l.2-.1.1.2.6-.1c-.1 0 0 0 0 0h.4-.1.5c.2 0 0 0 0-.2h.6-.1a1 1 0 0 1 .7 0zM197.9 312.8c-.2.2 0 .3 0 .5 0 .1-.1.2 0 .4v.2c.1 0 0 .1 0 .2v.4h.2c-.1 0 0 0 0 .1h-.1c.2.1-.2.2 0 .3h.2l-.1.1v.1h.2-.1l-.2.2c0 .2.2.4 0 .6-.2 0 .1.1 0 .1v.1c-.1 0 0 .1 0 .2-.2.1 0 .3 0 .5.3.1-.2.3 0 .5v.1s0 .8 1 .2c.1 0 .1-.1 0-.2.2 0 0 0 0 0 0-.1.2-.2 0-.2h.1v-.4h-.1v-.2c-.2 0 .1 0 0-.1 0 0-.4-.1-.3-.2-.1 0 .1 0 0 0h.2s.1 0 0 0h.1c-.1-.1.1-.2 0-.2 0 0 .2 0 0-.1h.2-.1s0-.1 0 0c.2-.2 0-.2.1-.3h-.1l.1-.1c.2 0 0 0 0-.1v-.1s.1 0 0 0c0-.1 0 0-.1 0l.1-.3h.1-.1c-.2-.1.1 0 0-.1h-.2l.1-.1h.1s-.1-.1 0-.1v-.1h.1s-.1-.1 0-.1c0-.1-.2-.2 0-.2h-.2c0-.1.2-.2-.1-.2h.1v-.2h-.2c.1 0 0 0 0-.1h.2-.1l.1-.1-.2-.2h.2c.1 0-.1 0 0-.2a.2.2 0 0 1-.2 0h.2v-.1h-.1.1l-.1-.1-.1-.1v-.1h-.1v-.1c-.7-.4-1 0-1 0zm0 11.1z"/><use xmlns:xlink="http://www.w3.org/1999/xlink" xlink:href="#a"/><path d="M197.9 334z"/><use xmlns:xlink="http://www.w3.org/1999/xlink" xlink:href="#a" y="10"/><path d="M197.9 344z"/><use xmlns:xlink="http://www.w3.org/1999/xlink" xlink:href="#a" y="20"/><path d="M197.9 354z"/><use xmlns:xlink="http://www.w3.org/1999/xlink" xlink:href="#a" y="30"/><path d="M197.9 364z"/><use xmlns:xlink="http://www.w3.org/1999/xlink" xlink:href="#b"/><path d="M199.4 365zm-1.5 9z"/><use xmlns:xlink="http://www.w3.org/1999/xlink" xlink:href="#b" y="10"/><path d="M199.4 375zm-1.5 9zm1.5 1z"/><use xmlns:xlink="http://www.w3.org/1999/xlink" xlink:href="#b" y="20"/><path d="M197.9 394z"/><use xmlns:xlink="http://www.w3.org/1999/xlink" xlink:href="#b" y="30"/><path d="M199.4 395zm-1.5 9z"/><use xmlns:xlink="http://www.w3.org/1999/xlink" xlink:href="#b" y="40"/><path d="M199.4 405zm-1.5 9z"/><use xmlns:xlink="http://www.w3.org/1999/xlink" xlink:href="#b" y="50"/><path d="M199.4 415zm-1.5 9zm1.5 1z"/><use xmlns:xlink="http://www.w3.org/1999/xlink" xlink:href="#b" y="60"/><path d="M197.9 434z"/><use xmlns:xlink="http://www.w3.org/1999/xlink" xlink:href="#b" y="70"/><path d="M199.4 435zm-1.5 9zm.1-.7-.2.4v.2c.2 0 0 .1.2.2v.2c0 .1.1.1 0 .2.2.1-.2.2 0 .3h.2l-.1.1a.6.6 0 0 1 0 .1h.2-.1c0 .2-.1.2-.2.3 0 .4.2.6 0 1v.1c0 .2.3-.2.2 0h.6l.6-.1c.2-.2.4.3.5 0 0 .1 0 0 0 0h.2s.7.1.2-1h-.2c0-.1 0 0-.1 0 0 .1-.1-.1-.2 0h-.3c0 .1 0 0 0 0-.1.2-.2 0-.2.1 0 .2 0-.1 0 0 0 0-.2.4-.3.3 0 0 .1-.2 0 0l.1-.2s0-.1 0 0v-.1c0 .1 0-.1 0 0-.1 0 .1-.2 0 0v-.2s0 .1 0 0c.1 0 0 0 0 0l.1-.1c.2-.1 0 0 0 0s.1 0 0 0h-.1.1c-.1 0 .1 0 0 0h.1-.1c-.2 0 .1 0 0-.1h-.2.2l-.1-.1v-.1s.1-.1 0-.1h.2s-.2-.1 0-.1c0-.1-.2-.2 0-.2h-.2c-.1-.1.2-.2-.1-.2v-.2s-.1 0 0 0v-.4c.1 0 0 0 0 0 .2 0 0 0 0-.2.2 0 0-.1 0-.1v-.1l-.1-.1s-.1 0 0-.1h-.1c-.1 0-.1-.1 0-.1-.7-.4-1-.1-1-.1-.1.2 0 .2.2.4zm8.8 3.2z"/><use xmlns:xlink="http://www.w3.org/1999/xlink" xlink:href="#c"/><path d="M216.8 446.5z"/><use xmlns:xlink="http://www.w3.org/1999/xlink" xlink:href="#c" x="10"/><path d="M226.8 446.5z"/><use xmlns:xlink="http://www.w3.org/1999/xlink" xlink:href="#c" x="20"/><path d="M236.8 446.5z"/><use xmlns:xlink="http://www.w3.org/1999/xlink" xlink:href="#c" x="30"/><path d="M246.8 446.5zm.9-.3v.1h.1v-.2.1-.1l.2.3c.2 0 .5-.3.7 0 0 .2 0-.1 0 0h.3c.1.1.3 0 .5-.1.1-.2.3.3.4.1h.2s.8 0 .2-1c0-.1-.1-.1-.2 0 0-.2 0 0-.1 0 0 0-.1-.2-.1 0v-.1h-.4v.1h-.2c0 .2 0-.1-.1 0 0 0-.1.4-.2.3 0 0 0-.1 0 0v-.2s0-.1 0 0v-.1c-.1.1-.2-.1-.2 0 0 0 0-.2-.1 0v-.2.1l-.1-.1c0-.1-.1.1-.2 0v.1l-.1-.1c0-.2 0 0-.1 0s-.1-.2-.2 0h-.1c-.1 0 0-.2-.1-.1 0 .2 0 0-.1.1v.2-.4l-.1.1h-.1l-.1-.1h-.1s-.1.1-.2 0v.2s-.1-.3-.2 0c0 .1 0 0 0 0h-.2v.1c-.1 0 0 0 0 0h-.2l-.2.1v-.1c0-.2 0 0-.1 0 0-.2-.1 0-.2 0h-.1v.1s-.1.1-.1 0v.1c0 .1-.1.1-.2 0-.4.7 0 1 0 1 .1.1.2-.1.4-.2l.4.2h.2c0-.2.1 0 .2-.2v.1h.4v-.2c0 .1 0 0 .2 0v.1c0-.2.1.2.2 0v-.2zm9 .3z"/><use xmlns:xlink="http://www.w3.org/1999/xlink" xlink:href="#d"/><path d="M266.8 446.5z"/><use xmlns:xlink="http://www.w3.org/1999/xlink" xlink:href="#d" x="10"/><path d="M276.8 446.5z"/><use xmlns:xlink="http://www.w3.org/1999/xlink" xlink:href="#d" x="20"/><path d="m289.8 445.2-.2.1c-.1.1-.2 0-.2 0 0 .2-.1 0-.2 0 0 0 0 .4-.1.3 0 .1 0-.1 0 0v-.2h-.1s-.1-.2-.1 0c0 0 0-.3-.1-.1v-.1s0 .1-.1 0c0-.1-.1 0-.2 0h-.1v-.1c0-.2 0 0-.1 0h-.1s0-.1 0 0c-.1 0 0 .1 0 .1l-.3-.1c0 .1 0-.1 0 0-.1.2 0-.1-.1 0v.2l-.1-.1v-.1.1h-.1s-.1-.1-.1 0v-.2s-.1.1-.1 0c-.1 0-.2.2-.2 0v.2c-.1.1-.2-.2-.2.1h-.2s0 .1 0 0h-.1l-.3.1v-.1c0-.2 0 .1-.1 0a.2.2 0 0 1 0 .1l-.1-.1c0-.1 0 0-.1 0v.1-.1l-.1.1v-.1c-.1 0 0 .1 0 .2h-.2c0 .2 0 .1-.1 0-.4.7-.1 1-.1 1 .2.2.2 0 .4-.1.2 0 .3.2.4.1h.3c0-.2.1 0 .2-.1h.2v-.1c.1 0 .1-.1.2 0 .1-.2.2.2.2 0l.1-.2v.2l.1-.1v-.2l.1.2v-.2l.2.3c.2 0 .4-.2.6 0v.1c0 .1 0-.2 0 0l.1-.1h.3c.1.2.3 0 .4 0 .2-.3.4.3.5 0h.2s.7 0 .2-1c-.1-.1-.2-.1-.2 0 0-.1 0 0-.1 0 0 0-.1-.2-.2 0v-.1s0 .1 0 0zm6 .4c-.5.7-.2 1-.2 1 .2.1.3-.1.5-.2l.4.2h.2c0-.2.1 0 .2-.2h.4s0-.2.1 0c.1-.3.2.1.3 0v-.2l.1.1h.1v-.2.1-.1l.2.3c.2 0 .4-.3.6 0 0 .2.1-.2.1 0h.3c.1.1.3 0 .4-.1.2-.2.4.3.5 0 0 .1 0 0 0 0h.2s.7.1.2-1h-.4c0 .1-.1 0-.2 0h-.3v.1h-.2c0 .2-.1-.1-.2 0v.3c-.1 0 0-.2-.1 0v-.2s0-.1 0 0v-.1c-.1.1-.2-.1-.2 0 0 0 0-.2-.1 0v-.2.1l-.1-.1c0-.1-.1.1-.2 0v.1s-.2 0-.1-.1c0-.2-.1 0-.2 0 0 0 0-.2 0 0-.1 0 0 0 0 0h-.3v-.1l-.1.1v.2-.1h-.1v-.2.1h-.2v-.2l-.1.1c-.1 0-.2.1-.2 0v.2c-.1 0-.2-.3-.2 0 0 .1 0 0 0 0h-.2v.1h-.1l-.3.1v-.1c0-.2 0 0-.2 0 0-.2 0 0-.1 0h-.1c-.1 0 0 0 0 .1-.1 0-.1.1-.2 0v.1c0 .1 0 .1 0 0z"/><use xmlns:xlink="http://www.w3.org/1999/xlink" xlink:href="#d" x="60"/><use xmlns:xlink="http://www.w3.org/1999/xlink" xlink:href="#d" x="70"/><use xmlns:xlink="http://www.w3.org/1999/xlink" xlink:href="#d" x="80"/><use xmlns:xlink="http://www.w3.org/1999/xlink" xlink:href="#d" x="90"/><use xmlns:xlink="http://www.w3.org/1999/xlink" xlink:href="#d" x="100"/><use xmlns:xlink="http://www.w3.org/1999/xlink" xlink:href="#d" x="110"/><use xmlns:xlink="http://www.w3.org/1999/xlink" xlink:href="#d" x="120"/><use xmlns:xlink="http://www.w3.org/1999/xlink" xlink:href="#d" x="130"/><use xmlns:xlink="http://www.w3.org/1999/xlink" xlink:href="#d" x="140"/><use xmlns:xlink="http://www.w3.org/1999/xlink" xlink:href="#d" x="150"/><use xmlns:xlink="http://www.w3.org/1999/xlink" xlink:href="#d" x="160"/><use xmlns:xlink="http://www.w3.org/1999/xlink" xlink:href="#d" x="170"/><use xmlns:xlink="http://www.w3.org/1999/xlink" xlink:href="#d" x="180"/><use xmlns:xlink="http://www.w3.org/1999/xlink" xlink:href="#c" x="240"/><use xmlns:xlink="http://www.w3.org/1999/xlink" xlink:href="#c" x="250"/><use xmlns:xlink="http://www.w3.org/1999/xlink" xlink:href="#c" x="260"/><use xmlns:xlink="http://www.w3.org/1999/xlink" xlink:href="#d" x="220"/><use xmlns:xlink="http://www.w3.org/1999/xlink" xlink:href="#c" x="280"/><path d="M490.3 439z"/><use xmlns:xlink="http://www.w3.org/1999/xlink" xlink:href="#e"/><path d="M490.3 429z"/><use xmlns:xlink="http://www.w3.org/1999/xlink" xlink:href="#e" y="-10"/><use xmlns:xlink="http://www.w3.org/1999/xlink" xlink:href="#e" y="-20"/><path d="M490.3 419zm0-10z"/><use xmlns:xlink="http://www.w3.org/1999/xlink" xlink:href="#e" y="-30"/><use xmlns:xlink="http://www.w3.org/1999/xlink" xlink:href="#e" y="-40"/><path d="M490.3 399z"/><use xmlns:xlink="http://www.w3.org/1999/xlink" xlink:href="#e" y="-50"/><path d="M490.3 389zm0-10z"/><use xmlns:xlink="http://www.w3.org/1999/xlink" xlink:href="#e" y="-60"/><path d="M490.3 369z"/><use xmlns:xlink="http://www.w3.org/1999/xlink" xlink:href="#e" y="-70"/><path d="M524 277.9h.3zm-42 37.4zm8.9-27h-.1zm.2.3c0-.1.2-.1.2 0h-.1v.2l.1.1.2.4.2.3v.1l.3.3c.2.3.5.3.7.5h.2c.3 0 .5.4.7 0l.2.2h.9c.2 0 .2 0 0 0 .2 0 .4-.1.4 0l.7-.5v.2l.2-.1-.2.1c.3 0 .4-.3.7-.4v-.2s.1.2.2 0l.3-.3v-.1h.1v-.2c.1 0 0 0 0 .1l.2-.3v-.5c0-.2 0-.3.2-.4-.1-.5-.3-.7-.4-.8h-.3l-.2.3c-.3.4-.1.7-.4 1.2l-1 .5a4 4 0 0 1-.7.2c0 .1-.3 0-.4 0h-.4l-.4-.2v.1c-.2-.2-.4-.1-.5-.3-.3 0-.2-.4-.5-.5 0-.2 0-.3-.2-.2v-.2h-.1v-.3l-.2.1c0-.1.2 0 .1-.2h-.1l.2-.4.1-1c.1-.3.3-.6.6-.7l.1-.2h.1v-.1h.2c.2 0 .3-.3.6-.4h1.2c.3-.1.6 0 .7.3l.6.5a1.4 1.4 0 0 1 .3.4l.4.8c0 .2.1.3.3.3 0 0 .3-.2.5-.9 0-.3-.1-.6-.4-.7.2-.1 0-.3-.1-.4-.2 0-.2-.4-.4-.5l-.2-.3c-.3-.2-.7-.5-1-.4h-.9v-.2h-.3.1c0 .2-.2 0-.4 0s-.3.5-.5.4c0 .1 0-.1 0 0v-.2l-.5.1c-.1.2-.4 0-.5.3-.2.1-.3-.1-.4.1h-.1l-.1.2s-.2.1-.1 0c-.3.1-.3.5-.6.7 0 .1-.1.3 0 .4-.1 0-.2.3-.3 0-.2.1 0 .4-.1.6v-.1.2l-.1.2s-.2.1 0 .3c0 0 0-.1 0 0v.9c.1.3-.2.1 0 .4.3.2 0 .2.2.3zm-190.8 40.6-.3-.1-.4-.1.7.2z"/><path d="M304.8 476.7v.3zm198.3-116.8h1.5l2-.1c1.1 0-.1.1 3.8.1h13c-2.2 0-1.5 0-.5-.1h4.6l.2.1h5.9-3.6 12c4.2 0-.8 0 1.3-.2h11.6-1.4 16l24.8-.5c0 .6 0 .7.1 0 2.2-.1 1.7-.2 0-.3.2-2.2.3-9.7.6-25.3v.4-4.8c12.7-.4-12.3-.5-12.3-.5-21-.2-32 0-57.2 0H419a180.3 180.3 0 0 1-6.6 0h.1-11.7.7-15.9l.4.2h-23.7.1-8.1a196 196 0 0 0-6.8 0h-27.9l-.7.1c-4.1 0-3.3 0-3.9-.1h-3.9l-3 .1h1.5-4.6a11 11 0 0 1-4.3-1l1.6.8a8 8 0 0 1-2.7-1.2c-.2-.2-.5-.2-2.2-1.7v.1a10.7 10.7 0 0 1-3.4-7.5v-.2h1l2 .1h86.5l1.1.1c.5.2 7-.2 8 0h88v.1h13.1l.1.1c.1.2 1-.2 1.2 0l.4-.1h.9l.4.1h11.7v-.3l47.2.1h52.6v.6c-.3 1.9-1 3.7-2 5.2a11.4 11.4 0 0 1-6.8 4.6l-1.3.2-.8.1c-.4 0-.5.1-.2.1h2.1a11.4 11.4 0 0 0 9.3-8.3 8.3 8.3 0 0 0 .3-1.3l.1-1.3v-.4l-.3-.4h-2.2l-6.3-.1h.5c-10.6-.1-17.3-.1-24.7 0-1.1-.2-8.7 0-11.2 0h.2c-6.4 0-13.3-.2-19.6 0l1.9-.1h-38.8v-.7c-.4-3 0-6.6-.4-9.7a1.3 1.3 0 0 0 0-.4l-.1-2.9s-.2-4.9-.5-6.6h.1l17.6-.2h-.3 18.7-1.7c.6-.2 3.4.1 6.8 0 3 0 6.3-.4 9.5-.3 1.5 0-1.4.2 1 0 0 .2-1.1.1-.5.2h6.5v.1h5.2c1.7 0 3.1-.8 4-1.7a7.8 7.8 0 0 0 2-2.7 5.5 5.5 0 0 0 .4-1.1V289l.2-1.5V278h-.8c.2-.4.4-4.3.7-13.8v.3V246v.1-10 .8-22.7.2-1h8.2l3.8-.1a8.4 8.4 0 0 0 3.6-1.6 8.7 8.7 0 0 0 3.6-7v-25.8a8.6 8.6 0 0 0-3.7-7.5 8.2 8.2 0 0 0-4-1.4c-1 0-1.3 0-1 .1.2.1 1.3 0 3 .9a8.2 8.2 0 0 1 2.8 2.1 8 8 0 0 1 1.8 4.5v-.2 6a132.5 132.5 0 0 0 0 5v5c.1 2.8-.1 6 0 8.7v-.8 4.4l-.2.5a7.5 7.5 0 0 1-4.5 5.6c-1.1.5-2.3.7-3.5.7h-3 .3l-4.3.1h-11.5 1.5c-.5.2-3-.1-5.7 0-2.6 0-5.3.4-8 .3-1.4 0 1-.2-.9 0 0-.2 1-.1.4-.2H550v-.1h-8c-3.2 0-2.1-.2-5.4 0l-1.3-.2c-1.4 0-1 .2-2.6.1.1 0-2 0-1-.1h-12.3l-1 .7-.8.7-1.5 1-1.7 1.2.5-.4.2-.2c-2.3 1.4-4 2.9-6 4.4l.9-.6-2 1.4.4-.4-2.2 1.5v.1l-.2.1v-2.3c0-.9 0 1.7-.1-.2v-3l.1-4.1h-4.6c-1.5 0-1.8-.3-2-.4l-1.8-.9.3.1c-.3 0-.5-.1-.8-.3-1-.7-1.2-1.1-1.5-1.4-.2-.4-.5-.7-1.1-2 .2.5.3.7.1.5l-.2-.4a4 4 0 0 1-.3-1l.2.4c-.3-.8-.3-1-.3-1.6v-1l.1.9-.1-2.4v-10.5c0 .8 0-1.4.2-.7-.1-1-.2-4.1 0-5.3v.2-8.9c0-.8.2-1.7.6-2.5l.3-.7.3-.5a7 7 0 0 1 4.2-3l1.9-.2a9 9 0 0 0 1.5-.2l3.2.1h-.4 7.2c1.4 0 1.6-.2 4-.1h1c-.5 0-.7 0 .5.1h1.2-.3 4.5l11.4-.2-1.5.2h2.6-2.3 11.1l1.4-.2c.5.1 0 .2 1.8.2h6c-1 0-.8-.1-.3-.2h2.1l.1.2 2.7-.1h-1.6 5.5c2 0-.4 0 .6-.1h5.3l-.6-.1h7.4c24-.7 5-1 5-1-9.4-.1-14.3.1-25.6.2l-22.9-.2h-14.9c-2.3.2-6.3 0-9 .2h-7.6c-.6 0-1.2.2-1.7.4l.3-.1a9.2 9.2 0 0 0-5.6 4.9l.1-.2a8.1 8.1 0 0 0-.8 3.2v12.6h-6.2c-3.7 0-1.4-.2-5-.1l-.7.1h-5.5c1.4 0 .7.2-1.1.2h.4-2c.6-.1.3-.2-1.1-.2h1-14.9c1 0-1.6 0-.9-.1h-6 .2-13.6c.2.1-2.2 0-1.6.2-4.8 0-8.8-.2-10.6.1l-3.7-.1h.5-2.6a7.4 7.4 0 0 0-3.8 1 6.7 6.7 0 0 0-1.7 1.4 5.5 5.5 0 0 0-1 1.7c-.1.6-.4 1.3-.5 2.8v1.3c0-.7-.1-.9-.1.5v1.4-.3 5.2l.1 13v-1.7 3c-.2 0-.1-1.7-.1-2.6-.2 3.6 0 7.4 0 11.6v1.2l.1 1.5-.1 2.1v6.9c0-1.2 0-.8.1-.3v2.4l-.1.1v3.2-2 6.4c0 2.2 0-.4.2.6v6.2-.7 8.5l.5 13.5h-.8v4.3l.1 3.8c0-1.2 0-.8.1-.3v2.5h-.1v1.4a6.7 6.7 0 0 0 .4 2l-.2-.7-.2-1.3a6 6 0 0 0 .4 2.3l.4 1 .6.9a6.4 6.4 0 0 0 1.7 1.6c2.2 1.1-.3-.3.7.2s2 .7 3.1.7h3.3-.7c3.8-.1 6-.1 8.7 0 28.5-.7 6-1 6-1h-17.8a5 5 0 0 1-3-1.1 5.7 5.7 0 0 1-2-3c-.3-.7-.3-1.3-.3-2v-10.1h47.6a51 51 0 0 1 3.5 0h4.3-.1 2-.3a299.2 299.2 0 0 1 8.4 0l-.3-.2h12.6v.1c6.3-.2 10 .2 16.5 0h.3c3 0 6.2 0 6.3-.2 2.2 0 1.8 0 2 .1h3.7-.8 4.9l-1-.2c2.6 0 .7.2 3.1.1l9.2.2h20.7l10.3-.1h9.3v2.8c-.2.2.1 3.7 0 4.2v4.6l-.5 1.4a5.8 5.8 0 0 1-2.4 2.8c-1 .6-2.2.9-3.5.9h-8.4c-7.2-.2-20.8 0-28.7 0-8 .2-17 0-25.6 0-.7-.2-1.7-.2-1.7-.2-3.2-.2-4.8 0-8.5.1-3.3 0-4.1-.2-7.5-.1h-5a5.8 5.8 0 0 1-.8 0h-1.7v.2c-11.2 0-39.1.1-8 1h-.2 8.2v.5l-.1.4v2.7l-.1-.2v2.4c-.1 1.5 0 2-.2 3.4.2 1.8-.2 2.8-.1 4.6 0-.2 0 .1 0 0v3.4-.2 1.3-.2.9a10.2 10.2 0 0 1-.1 1 10.7 10.7 0 0 0 0 .6h-12.5 3.3c-1.2.1-6.6-.2-12.8 0-5.9 0-11.9.3-18 .3-2.9 0 2.6-.2-1.7-.1-.2-.1 2 0 .9-.1-4.3 0-7-.1-12.3 0l-.2-.1c-6.8.1-12.9-.1-17.4 0-7 0-4.8-.2-12.1 0l-2.9-.2h-48.3 1.4l.7-.1h-16.7c1.8 0 4 0 2.5.1h-5.4 1.1-8.1 1.1c-4 0-5.4-.2-9.8 0h-9.9l-8-.1h-2.2l-.7.7v.5c.1-.7 0 1.2.7 3.1v.3a12 12 0 0 0 1.7 3.3l1 1.1c.1.3.4.5 1 1 .5.5 1.3 1.2 2.9 2 .5 0 1 .2 1.5.4 1.6.4 2.7.4 3.5.4h5.9v14.5c0 7-.2 2.6-.1 9.5v-.6l.1 1.8v5h4.3l-.5 4.5-2.7 25.3-1.6 16.6-1 10-.1 1.1a51.6 51.6 0 0 1-.3 3.3l-.4 4v-.1l-.2 1.9v-.4a274.7 274.7 0 0 1-.8 8l.1-.3c-.6 5.2-.6 7.1-1.2 11.8-.4 6-1 9.3-1.5 15.5 0-.8 0 .3-.1.2-.3 2.9-.6 5.9-.4 6-.2 2-.2 1.6-.3 1.9l-.3 3.4v-.8l-.3 4.6.2-.9c-.3 2.5-.2.6-.5 3h.2l-.3 2h-1 .4-5c-.8 0-1 .2-2.5.1h-1.9.2-3l-7.6.1 1-.1H282h1.6c-2.1-.2-4.4 0-6.8 0h-.7l-.9.1c-.3 0 0-.2-1.2-.2l-4 .1c.7 0 .5 0 .2.1h-1.4l-.1-.1H267h1-3.6c-1.3 0 .3.1-.4.2h-3.6.4-4.9c-16.1.7-3.4 1-3.4 1 6.4.2 9.6 0 17.2-.1 6.7 0 8.4.2 15.3.1h10c1.5-.2 4.2 0 6-.1h6.2-.2a95.9 95.9 0 0 1 4.8 0l-.2-.1h7.2c3.5-.2 5.6.2 9.3 0h.2c1.7 0 3.5 0 3.5-.2 1.3 0 1 0 1.2.2l2-.1h-.4 2.8l-.6-.2c1.5 0 .4.2 1.8.2v-.2c2 0 3.2.2 5.2.3h24.6l.4.1c.1.1 2-.2 2.4 0l.9-.1h2.7c3.2.1 6 0 9.3 0 4.1.2 11.8 0 16.3 0 6.2-.3 13.5.3 19.9 0h6.6s28.3 0 6.8-1h-16.5.5l-3.3-.1-10 .1h.2H394h1c-.4.2-2 0-3.9 0-1.7 0-3.5.4-5.4.3h-.5c0-.1.6 0 .3-.2h-3.7c-2.1 0-4-.2-5.3 0-2.1 0-1.4-.3-3.7-.1l-.8-.1h-2.5c-2.3-.2-4.8 0-8 0h-4.1.4l.2-.1c-1.7-.2-3.2 0-5 0h.8-1.7.4-2.5.4-3c-.6 0 1.2.1-.1.1l-6-.1h-1c-2.2.1-.8-.2-3 0h-.3c-2 .2-1.1-.1-3.2 0 .8 0 .4.2-.7.2h.3-1.2c.4 0 .2-.1-.7-.1l.6-.1-1.6.1h-7c.5 0-1-.1-.5-.2h-3.6.2c-3 0-5.2.2-8 0 .2.2-1.2.1-.9.2h-1.4v-.4l5.6-40.6.1-.6c.2-.2.3-3.5.5-4l.2-1.4.1-.5.3-2.4.3-1.5 2-15.5a869 869 0 0 0 3.6-26.7c1-8.5 2.7-18 3.9-27h25c-1.8 0 3 0 1.6.1H364h-.5 25.6c-.4-.1 4.2 0 3-.2 9.2 0 16.7.2 20-.1l7 .1h-1l15.9-.1c2.9 0 3.3-.2 8.5-.1h4.7s.1 0 0 0a19.3 19.3 0 0 0 .7 0h9.7l24.7-.1-3.3.1h5.7-5c6.7.2 14 0 22 0h1.5zm68.7-81.8-5-.1-4.9.1c-.1 0-5.6 0-2.5-.1h1.1c-3.1-.2-5.7 0-8.8 0h1.3-2.9.6-4.3.6-5.2c-1.1 0 2 0-.2.1l-10.7-.2c.3.2-.6.1-1.6.2l-.1-.1c-3.9 0-1.4-.2-5.2-.1l-.7.1c-3.4.2-1.9-.1-5.7 0 1.5 0 .7.2-1.1.2h.5-2c.5-.1.2-.2-1.3-.2h1-15.2c1 0-1.7 0-.9-.1h-6.3.3-14c.2.1-2.3 0-1.7.2-5 0-9-.3-10.9.1l-3.8-.1h.5-8.6c-1.6 0-1.8.2-4.6.1h-3.3.3-5.3l-13.5.1 1.8-.1h-3 2.7c-3.7-.2-7.7 0-12 0H416l-1.6.1h-.4l-.4-.1h-.3c.2-1.8.2-7.7.2-7.7.2-11 0-16.6 0-29.6v-43.4c0-.7 0-1.3.3-2a5.7 5.7 0 0 1 1.2-2.2c.5-.6 1.3-1 2-1.4a6.4 6.4 0 0 1 2.2-.5l1.2.1h7.6-.1 2-.4 8.2l-.2-.2h12.2c6.1-.2 9.7.2 16 0h.3l6.1-.1c2.2 0 1.8 0 2 .1h3.5-.7 4.8l-1-.2 3 .1v-.1c3.5 0 5.6.2 9 .3h.2v7.9c0 2.6 0 5.3.2 5.3v1.9l.4 1 1 1.9-.4-.6a8.7 8.7 0 0 0 3 3.1l-.6-.6 1.1.9c.1 0 .2.2 1.3.5 1.2.4 2.4.4 3.4.5h2.3l.2.1V224l15-10.8h5.1l5.1.1.5.1c.3.1 3.2-.2 3.6 0l1.3-.1h18c5.5.2 15.6 0 22.3 0l-.1 27.9a10.4 10.4 0 0 0 0 .7v10.5s0 24.4.3 25.6h-4.2zM482 315.2v-.1c-.2-1 .1-.6 0-1.6 0 .4-.2.2-.2-.3v-.5c.1.2.2.1.2-.3v.3-.8l.1-1.8v-1.7c0 .3.1-.4.2-.2a6 6 0 0 1 0-1.8v.1c.2-1.5 0-2.5.2-3.9-.1 0 0-.6-.1-.5 0-1.4.3-2.5 0-3l.1-1v.1-1.3h1.9l1.6-.1h6.3-.2 2.3a8.4 8.4 0 0 0 .7 0h7.4l-1 .1h5.5l-.3 3.4c0 1.5 0 2.5.2 3.6-.2.2 0 1.3 0 1.6v3-.4 1.7c.1 1.6.2 3.8.4 4.9v-.1 1.4l.1 1v.3H503h.5l-9.3.1h-5.9c-.3 0-.4 0 0 0h.2v-.1H486c.3 0 .6 0 .4.1h-.8.2-1.2.1c-.6 0-.8-.2-1.4 0h.1-1.4v-.7c0-1 .2-.4.1-1.5zM311 330c-.2 0-.2 0 0 0zm13.7 30-1.8.2h1.7a34 34 0 0 1-.5 3.7l-2.1 16.4v-.3l-.6 4.8v.3c-.3 2.1-1 6.2-1.1 8l-.7 4.3.3-1.6c0 .6-.6 3.2-.9 6.4-.4 2.9-.4 5.9-1 8.9 0 1.4.1-1.3-.1.9-.1 0 0-1-.1-.5l-.9 6v.1c-.4 3.4-1 6.4-1.2 8.7-.4 3.5-.6 2.3-1 6l-.2 1.4c-.3 1.5 0 1.1-.3 2.8 0 0-.4 2.2-.3 1.2-.6 3.9-1 8-1.8 13 0 1.2-.5 3.8-.5 4.7 0 0-.7 5.2-.5 2.2l.1-.6v-.4c-.5 3-.6 5.4-1 8.3 0-.9.3-2 .2-1.3l-.4 2.7v-.5l-.6 4 .2-.6c-.3 2-.6 2.7-.8 5 0 1 .4-2 .1.1l-1 6.3h-2.8a17.1 17.1 0 0 1-.8 0v-.9l.2-.6.3-2.4v-.6c.1-3.3.3-1.7.4-5.3-.1 1.4-.2.6 0-1.1v.4l.2-1.9c0 .6 0 .3.2-1v.9l.1-2.7.7-6.2.5-5.4c0 .9.3-1.6.3-.9l.5-5.9v.3c.6-5 .8-8.6 1.3-13.1 0 .2.2-2.2 0-1.6.4-4.7 1.2-8.5 1-10.2l.4-3.6v.5l.8-8c.1-1.6 0-1.8.3-4.4 0 .8 0-.3.2-1.2 0 .6 0 .8.1-.5v-.7c.2-1.7.1-1.4 0-.7v.3l.6-5 1-12.6c.2-.5.1.5 0 1.7l.3-3c.1.1-.1 1.8-.2 2.7.5-3.5.6-7.2 1.2-11.3V374c.2-.6.2 0 .4-2 .3-1.6.5-4.5.6-6.6v.3l.2-2.4h.1l.2-3.1v1.8l.1-1.9h1.3a30 30 0 0 1-1.3 0l3.4-.2-.9.1h5.8zm150.5-1.3H443c-5 .2-13.6 0-19.5.1H407h.1-3.6.6-15.4.4c-10.2 0-13.9.2-23 0-11.5.3-18.3-.1-30.2.1h-8.3l-3.7.1h-10.4 1.4-2.8v-5.2l-.2 1.7c0-4.7.2-1.2.2-5.7h-.2l.3-16.8v-2.8l35.1-.1h12.8-.5 28.2l1 .1c.6.1 6.9-.2 7.8 0l2.9-.1h194.4v16.4l.3 11.8v.6l-13.8-.2c-20.6-.2-31.2 0-55.6.1l-49.5-.1z"/><path d="M527.7 360zm-.3-4.9h-.9c2.5.2 4.5 0 7 0h-1 2.2-.5 3.4-.5 4.1c.9 0-1.5 0 .2-.1l8.4.2c-.3-.1.5-.1 1.3-.1 3 0 1.1.2 4.1.1l.5-.1c2.7-.2 1.5.1 4.5 0-1.2 0-.6-.2.9-.2h-.4 1.6c-.5.1-.3.2 1 .2h-.9 12-.2 1.6v.1c.1 0 0 0 0 0h.1l-.1-3.1v-2.5.2-11c0 .2 0-1.8-.1-1.3v-4H572c-.9 0-1.6 0-2 .2l-3-.1h.3-6.7c-1.3 0-1.5.2-3.7.1h-1c.6 0 .7 0-.4-.1h-1.1l.2.1-4.1-.1-10.6.2 1.4-.1H539h2.1c-2.9-.2-6 0-9.4 0h-.9l-1.3.1-1.6-.1h-5.6c1 0 .7 0 .3.1H518h1.5-5.6c-1.6.1-3.2.2-5 .1l.5.1h-6.8c-22.4.7-4.7.9-4.7.9 8.8.2 13.4 0 23.8-.1l21.2.1h13.9l8.3-.1h1a31.3 31.3 0 0 1 2.7 0h4.9-.3 1.1v4.2-.1 9.8a87.6 87.6 0 0 1 0 3v2.2h-6.7c-2.4 0-5 0-5 .2-1.7 0-1.4 0-1.6-.1h-2.8.6-3.8l.7.2c-2 0-.5-.2-2.5-.1l-7.1-.2c-11.4 0-23.6.2-34.1 0h-.5c-.2-.2-3 .1-3.3 0h-17.9c-5.7-.2-16.3 0-22.5 0l-6.4.1h-6.1v-7a209.2 209.2 0 0 0 0-7 6.8 6.8 0 0 0 0-.7v-4.7h2.6s39.3 0 9.5-1h.2a159.6 159.6 0 0 0-11.3-.1h-2v2.5c0 2.7-.2 5.6 0 8.2l-.1-.8v11.7h4.8l3.2-.2h-.2 14.6-1.3c.5-.2 2.7.1 5.3 0 2.5 0 5-.4 7.5-.3h.7c0 .2-.8.1-.4.2h5.1l.1.1h7.3c3 0 2 .2 5 0l1.2.2c1.3 0 1-.2 2.4-.1h1c3.3.2 6.7 0 11 .1l3.8-.1c.2 0 4.4 0 2 .1z"/><path d="M555.2 355.2h-.2zM484 334.6h2.6c.3 0 .5-.2.5-.5s-.2-.5-.5-.5H484c-.3 0-.5.2-.5.5s.2.5.5.5zm28 10.5zm.2.4s.2-.1.2 0h-.1v.2l.1.1.2.4.2.3v.1l.3.3c.2.3.5.2.7.5l.2-.1c.3 0 .4.4.6.1.2 0 .2.1.2.2h.5c.1 0 .1-.2.3-.1h.1c.1 0 .1 0 0 0h.4c.3 0 .5-.2.7-.4v.2l.1-.1h-.1c.3.1.3-.2.6-.3v-.2h.3l.2-.3v-.1h.1v-.2c.1 0 0 0 0 .1.2-.2.2 0 .3-.3l-.2-.1c0-.1 0-.3.2-.3h-.1c0-.3 0-.4.2-.5-.1-.4-.3-.6-.4-.7h-.3l-.2.3c-.3.4 0 .6-.4 1.1-.3.3-.5.3-1 .5l-.6.2c0 .1-.3 0-.4 0h-.4a.4.4 0 0 1-.3-.2c-.2-.1-.4 0-.5-.2-.3 0-.1-.4-.4-.5 0-.2-.1-.3-.3-.2l.1-.1-.2-.1v-.2h-.1s.1 0 0-.1l.2-.4v-1c.1-.3.3-.6.6-.7.2.1 0-.2.1-.1v-.1h.3l.6-.4 1.2-.1c.2 0 .5.1.6.3.2.2.3.4.6.5a1.6 1.6 0 0 1 .2.4l.4.8c0 .2.2.3.3.3s.4-.2.5-.9c0-.3 0-.5-.3-.7l-.2-.3c-.2-.1-.1-.4-.4-.5h.1c0-.1-.3-.2-.2-.3-.3-.2-.7-.5-1-.4h-.3c-.2 0-.4-.2-.5-.1v-.1h-.3.1c0 .2-.2-.1-.4 0-.2 0-.3.4-.5.4 0 0 0-.2 0 0v-.2h-.4c-.2.2-.5 0-.5.3-.2.1-.3-.1-.4.1h-.1l-.1.2h-.2c-.2 0-.2.4-.5.6 0 .2-.1.3 0 .4-.1 0-.2.3-.2 0-.3.1-.1.4-.2.5v.1a1.3 1.3 0 0 0-.1.3v.3s0-.2 0 0v.7c.1.3-.2.2 0 .4.3.2 0 .2.2.4zm-180.6-2v.3zm88.2-10.1h-54.5.3a202.5 202.5 0 0 1-7 0l.2.1h-10.3c-5.2.2-8.2-.2-13.6 0h-4.6v1.4l.1.2.1.4c0 1.8 0 1.5-.1 1.7v3-.7 4l.2-.7c0 2.1-.2.5-.1 2.6h.1c0 2.9-.2 4.6-.3 7.5v2.2h9.3l8.7-.1h16.8l.5.1c.2.1 3.1-.2 3.5 0l1.3-.1H388c6 .2 17.2 0 23.6 0 9-.2 19.6.3 29 0h11.2v-8.6l-.1-9.2c-.2-5-.4-5.5-.9 8.6v-.2 8.4H436h.8l-4.9-.1-14.4.1h.2-4.4l-7 .1h-4.1 1.4c-.5.1-2.9-.2-5.6 0-2.6 0-5.2.3-7.9.3-1.2 0 1.2-.2-.7-.1-.1-.1.8 0 .4-.1h-5.4v-.1h-7.7c-3 0-2-.2-5.3-.1l-1.2-.1h-21.1.6l.3-.1h-7.3c.8 0 1.8 0 1.1.1h-2.4.5-3.5.5c-1.8 0-2.4-.2-4.3 0h-3.1v-6c-.1-3.2.2-1.2 0-4.3v-.6c-.2-2.8.1-1.5 0-4.6 0 1.2-.2.5-.2-1v.4-1.7c0 .5.1.3.1-1l.1.9v-1.3h10.1c-.8 0 1.3.1.7.2h5.2-.2c4.4 0 7.5-.2 11.5 0-.2-.2 1.9-.1 1.4-.2 4-.1 7.4.2 8.9-.1h3.2-.5 13.7-.3 4.4l11.1-.1h-1.5 2.6l-2.3.1c3 .2 6.3-.1 9.9 0h.9l1.4-.1 1.7.1h5.8c-1 0-.6-.1-.2-.1h4.8-1.6 5.3c2 0-.3 0 .6-.1h5.2l-.6-.1h7.2c23.5-.7 5-1 5-1-9.3-.1-14 .1-25 .2zm-26.3 10.9h.3l.2-.5c0-.8-.4-1.1-1-1.7-.4-.6-.5-.9-1.3-1.2l-1.1-.2c-.2.1-.5 0-.7.2h-.6l-.1.1-.5.2c-.3.2-.3.4-.6.5-.1.4-.6.4-.6.9 0-.1 0 0 0 0-.2.1-.2.3 0 .4-.1.1-.2 0-.2 0v.5l-.1.2h.1c0 .2-.3.3-.4.5 0 .5.1 1 .3 1.4l.7 1.1v.1c0 .1.3 0 .2.1h.1v.1h.2v.2c.3.3.6.3 1 .4.4.3 1.3.2 1.7 0l1-.4c.3-.2.7-.3.9-.7a3.3 3.3 0 0 0 .4-.6s0-.2.1-.4l.1-.8c0-.3-.1-.4-.3-.4s-.3.3-.6.6c-.2.2-.3.3-.2.6-.2-.1-.1.1-.2.1 0 .2-.3.2-.3.4 0 0-.2.1-.2 0l-.6.5-.2.2c0 .1-.3 0-.4 0h-.2.1c0 .3-.2 0-.3 0-.1 0-.3.4-.5.3 0 0 .1-.1 0-.1v-.1s0-.2-.2-.2l-.4-.2c-.2 0 0-.2-.2-.2v-.1h-.1v-.2c0-.1-.3-.1-.3-.4l-.2-.1s-.1-.2 0-.2c.2-.1 0-.1 0-.2h-.1v-.3s.1 0 0-.2c0 0-.1.1-.1 0l.1-.4c-.1-.2.1 0 .1-.2v-.1c-.2-.2 0 0 0-.3 0 .1-.2 0-.2 0v-.1h.2v-.1s0-.2.2-.2c0 0 .1-.1 0-.2h.2s0-.2.2-.2.2-.3.4-.3v-.1c.2-.2.4 0 .4-.3h.5s.1-.2.2-.1h.1c.1 0 .1 0 0 0l.3.1h.6l-.1.1h.1c0 .1 0 0-.1 0 0 .2.3.1.4.3h.2v.2l.3.1v.1h.2c0 .1-.1 0-.1 0l.1.3h.2s.2 0 .2.2c.1 0 .2.2.1.3l.6.7zm60.3-47.6c.2 0 .5-.2.5-.4s-.3-.6-.5-.6h-2.2c-.3 0-.5.3-.5.6s.2.4.5.4h2.2zM624 480.9h.1-11l.3-.1h-2.2l-6.6.1h.1-1.1v-.6l-.1-.6v-.6l-.2-2.4v.3-.3l-.2-.7c-.5-3.2 0-1.7-.6-5.3.2 1.4-.1.7-.2-1v.4l-.2-2c.1.7.2.4 0-1l.2 1-.4-2.7-.5-6.2-.6-5.5c.1 1-.1-1.5 0-.8l-.6-6v.3c-.4-5-1-8.5-1.3-13 0 .2-.3-2.2-.3-1.6-.6-4.7-.6-8.5-1.2-10.2l-.2-3.6v.5l-.8-8c-.2-1.5-.4-1.8-.6-4.4.2.8 0-.2 0-1.2v-.5l-.2-.7a8.2 8.2 0 0 0 0-.7v.3c-.2-1.7-.6-4.8-.5-5l-1.4-12.6.3 1.7-.3-3 .3 2.6c-.2-3.5-.9-7.1-1.2-11.2l-.1-.9v-.2l-.3-1.5c0-.6.2 0 0-2l-.8-6.6v.3l-.2-2.4-.4-3.1.3 1.8-.2-2.5H590l.6 5.3 2.4 25.4 1.8 16.5 1 10 .1 1.1.4 3.3.4 4 .2 1.8v-.3a249.3 249.3 0 0 1 .8 7.9v-.2L599 446v-.1c.8 6 .8 9.4 1.6 15.5v.3c.3 2.8.6 5.8.8 5.8.2 2 0 1.7 0 2l.5 3.3-.1-.7.5 4.6v-1l.2 3h.1l.1 1.4v.7h-4v-.7l-5.7-40.6v-.6c.1-.2-.6-3.4-.6-3.9l-.2-1.4c0-.5-.2-1.3 0-.6l-.4-2.4-.1-1.4-2.2-15.5c-.8-6.8-2.7-19.4-3.8-26.7-1.3-8.6-2.3-18.4-3.6-27.5h-1.2c.3 2 .7 4.4.6 4.5l2.4 16.4v-.2l.6 4.7v.3c.5 2.1 1 6.2 1.2 8l.6 4.4-.2-1.6c.2.5.3 3.2.8 6.3.4 2.9 1.2 5.8 1.5 8.8.3 1.5-.3-1.2 0 1l-.1-.5.8 6v.2c.5 3.4.7 6.4 1.1 8.6.6 3.5.1 2.4.8 6v1.5c.3 1.5.4 1 .6 2.8-.1-.1.2 2.2 0 1.2.4 4 1.2 8 1.8 13.1.3 1.1.5 3.7.7 4.5 0 .2.7 5.2.2 2.3v-.6l-.2-.4c.3 3 .8 5.4 1.2 8.3 0-.9-.2-2 0-1.3l.3 2.7-.1-.5.5 4v-.6c.2 2 .2 2.7.6 5 .2 1-.2-2 .1.1l.8 6.4H596l-3.6.3c-.6 0 .5-.2-.4-.1 0-.1.4 0 .2-.1h-2.4v-.1H586c-1.4 0-1-.2-2.4 0l-.6-.2h-9.6.4l.1-.1h-3.3c.3 0 .8 0 .5.1H570h.2-1.6.2c-.8 0-1-.2-2 0-.4 0 .8 0 0 0H562c-1.5 0-.5-.2-2-.1h.2-.4c-1.3.2-.7 0-2.1.1.5 0 .2.2-.5.2l.2-.1h-1.1l.4-.2-1.1.1h-4.7c.4 0-.6 0-.3-.2-.5.1-1.8.2-2.4.1h.1-5.3c.1.1-.8 0-.6.2-1.9 0-3.4-.3-4 0h-1.5.2-3.3c-.6 0-.7.2-1.7.1h-.5c.2 0 .3 0-.2-.1h-.6l.1.1h-7 .6-1.1 1c-1.4-.2-2.9 0-4.5 0H518c-.6-.2-1.8 0-2.6 0 .4 0 .3 0 0 0h-2.1.7-2.4c-.9 0 .1 0-.3.1H509l.3.1H506c-10.7.7-2.2 1-2.2 1 4.2.1 6.4-.1 11.4-.2l10.2.2h6.6c1-.2 2.8 0 4-.2l.5.1a7 7 0 0 1 1.3 0h2.3-.1 3.1v-.2h4.7v.1c2.4-.2 3.7.2 6.2 0h.1c1.1 0 2.3 0 2.4-.2.8 0 .6 0 .7.1h1.4-.3 1.9l-.4-.2c1 0 .2.2 1.2.1l3.5.2c5.4 0 11.3-.2 16.3 0h.2c.1.2 1.4-.1 1.6 0h15v.1h6.3v-.2c3.6 0 7.7.3 11.4.1h4.4s18.8 0 4.5-1zm-139 0h-.3c0-.2-.1 0-.2 0 0 0-.1-.2-.2 0v-.1h-.4c0 .2 0 0-.1.1 0 .1-.2 0-.2 0h-.1c0 .2 0-.1-.1 0 0 0-.1.4-.2.3 0 0 0-.1 0 0v-.2s0-.1-.1 0v-.1c-.1.1-.2-.1-.2 0-.1 0 0-.2-.2 0v-.2.1s-.1 0 0-.1c-.2-.1-.3.1-.4 0v.1s-.2 0-.1-.1c0-.2-.1 0-.2 0h-.1s0-.2-.1 0h-.3v-.1l-.2.1v.2-.4l-.1.2-.2-.1-.1-.1h-.4v.2c-.2 0-.3-.3-.3 0 0 .1 0 0 0 0h-.2s0 .2-.1.1h-.2l-.3.1v-.1c0-.1 0 0 0 0 0-.2-.1 0-.2 0-.1-.2-.2 0-.2 0h-.2v.1s-.1.1-.2 0v.1c0 .1 0 .1-.1 0-.6.7-.1 1-.1 1 .2.1.3-.1.6-.2l.6.2h.3c0-.2.2 0 .2-.2v.1h.4v-.2h.3c.1-.2.2.2.3 0l.2-.1v.1h.2v-.2.1-.1l.2.3c.3 0 .6-.3.9 0 0 .2 0-.2.1 0h.5c.1.1.4 0 .6-.1.2-.2.5.3.7.1h.2s1 0 .3-1h-.1zm-3.5-.4zm-283.8.3h.1-12.7l.4-.1h-2.6l-7.6.1h-2.2s-.1 0 0 0h-5.8.7c-.3.2-1.5-.1-3 0-1.3 0-2.7.4-4.1.3-.7.1.6-.1-.4 0 0-.2.4-.1.2-.2h-2.9v-.1h-4c-1.7 0-1.2-.2-2.9 0l-.6-.2c-.7 0-.5.2-1.3.1h-.6c-1.8-.2-3.7 0-6-.1l-2.2.1s-2.4 0-1-.1h.4c-1.4-.2-2.5 0-3.9 0h.6-1.3.3-1.9.3-2.3c-.5 0 .9 0 0 0H126c-1.8 0-.7-.2-2.3-.1h-.3c-1.5.2-.8 0-2.5.1.6 0 .3.2-.5.2l.2-.1h-1.4l.4-.2-1.2.2-2.9-.1H113c.4 0-.7 0-.4-.1h-2.8.2-6.1c0 .1-1 0-.8.2-2.1 0-4-.3-4.7 0h-1.7.3-3.8c-.6 0-.8.2-2 .1h-1.4.1-2.3l-5.8.1.8-.1h-1.4 1.2c-1.6-.2-3.3 0-5.2 0H75c-.7-.2-2 0-3 0 .5 0 .3 0 0 0h-2.5.9-2.8c-1 0 .1 0-.3.1h-2.8l.3.1a29 29 0 0 1-3.8 0c-12.4.7-2.6 1-2.6 1 4.9.1 7.4-.1 13.2-.2l11.8.2h7.7c1.2-.2 3.3 0 4.6-.2h4.8-.2 3.7-.1c2.4 0 3.3-.2 5.5 0 2.7-.3 4.3.1 7.2 0-.4 0 .1 0 0 0 1.4 0 2.8 0 2.8-.2l1 .1 1.5-.1h-.3 2l-.3-.1 1.3.1v-.1c1.6 0 2.5.2 4 .3 6.3 0 13.1-.3 19 0h.2c.1.2 1.7-.2 1.9 0h9.9c3.2.1 9.1 0 12.5-.1 4.8-.2 10.4.3 15.3 0h5.1s21.8.1 5.3-1zm4-168.8zM251 200.9l.3-.1zm10.3 110.2-.7.1c-.4 0-.5.1-.2.1s.9.1 1.8-.2a4.6 4.6 0 0 0 3-4.5v-5.4l.3-9.9v.4V261v.2-16.7 1.5l.1-9.5v-21l.1-2.3v.6-5.5c0-1.1-.1 2.1-.2-.2v-2.6a5.1 5.1 0 0 0-1.2-2.8 5.2 5.2 0 0 0-3-1.7h-1.5l-1.5-.1c.4.1-.7 0-1.7.1h-.1c-4 0-1.5-.2-5.5-.2l-.7.1c-3.6.2-2-.1-6 .1 1.6 0 .8.2-1.2.1h.5-2.1c.6 0 .3-.1-1.3-.1l1-.1-3 .1h-13c1 0-1.8-.1-1-.2-1.3.1-5 .2-6.6 0h.3c-5.7 0-9.7.2-14.7 0 .2.2-2.5.1-1.8.2-5.3.1-9.6-.2-11.5.1h-4 .5-7.1l-1.7-.1h-6.9c-6.8-.2-13.7 0-22.6 0h-11.8 1.2l.6-.1c-5.1-.2-9.2 0-14.3 0h2.2-4.7 1-7 1-8.4c-1.7 0 3.2.1-.4.1h-6.9l-1.3.1a5.2 5.2 0 0 0-3.7 3.4c-.3.9-.2 1.8-.3 2.5v2.2c.1-.6.1 1 .1 2.6v.2c0 6.1-.2 2.2-.1 8.4v-.6l.1 1.6c.2 5.5-.2 3 0 9.1 0-2.4.2-1.1.2 1.9v-.8 3.3c0-1-.2-.5-.2 2v-1.7 24.5c0-1.5 0 2.7-.1 1.5v10.1-.4 22.4c.1-.3 0 3.8.2 2.8v10.6a5 5 0 0 0 1.7 4 4 4 0 0 0 2.8 1.1l6.3.2h-.9 13.9c2.5 0 3-.2 7.4-.2h2.1c-1 0-1.4.1.8.2h1.3a15 15 0 0 0 .6-.1h8.5l21.7-.1-2.9.1h5-4.4c6 .2 12.3 0 19.3 0h2.9l1.6-.1c1 0 0 .2 3.4.2l11.4-.1c-2 0-1.3 0-.5-.1h4.1l.1.1h5.2-3 10.3c3.7 0-.6-.1 1.1-.2h10.3-1.2 14l23-.6zM96.8 206.7a4 4 0 0 1 4.1-4.3h7.2l16.9-.2 28.5.2H172c2.9-.2 7.9 0 11.3-.2l1.3.1h10.1-.3 8.8l-.2-.1h13a4.8 4.8 0 0 1 .4 0H237l22-.1h1.4c.7 0 1.4.3 2 .7a4 4 0 0 1 2 3.7v7.7l-16.2.2a831.7 831.7 0 0 1-16-.1l-.6-.1c-.2-.1-3.9.2-4.4 0l-1.7.1h-3.2l-1.6-.1h-17.5c-7.6-.1-22 0-30.2.1-11.7.2-25.2-.3-37 0h-12.4s-22.8 0-27 .2c.2-2.3.2-7.8.2-7.8zM199.2 311l-43.5-.2h-28.5c-4.3.2-12 0-17.1.2l-2-.1a131.6 131.6 0 0 1-5.6 0h-2c-.5 0-1-.2-1.5-.4a4 4 0 0 1-1.8-1.7 4 4 0 0 1-.4-1.2V306v.6V293l-.2.4V273c-.2-10.1.2-16 0-26.5v-7.3l-.1-3.3v-9.2 1.3-7.9l-.2 1.6c0-4.2.2-1 .2-5h-.2v-2c.2 1.1.2.9.3 0v-.1l14.4.5h-.3 13.8c.7.2 5 0 6.3 0h-.1c3.6 0 7.5.2 11 0l-1 .1h24.7-.2c2.2-.2 2.9 0 5.3-.1h14.3-1.8c.7-.2 3.7.1 7.2 0 3.3 0 6.6-.4 10-.3h1c.1.2-1.1.1-.5.2h7c3.8 0 7.2.2 9.8 0 4 0 2.7.3 6.8.1l1.6.1h4.5c4.4.2 9 0 14.8.1l5.2-.1h2.5a5 5 0 0 1-.7 0l-.4.2 9.3-.1h-1.4 3-.6 2.5v9.4l-.1 28.4v18.8l.1 34.9a4.3 4.3 0 0 1-3 4.2c-1-.3-13.5-.4-13.5-.4-18-.2-27.4 0-49 .1z"/><use xmlns:xlink="http://www.w3.org/1999/xlink" xlink:href="#f"/><path d="M165.2 277.1v-.1zm31 0v-.1z"/><use xmlns:xlink="http://www.w3.org/1999/xlink" xlink:href="#f" x="31"/><path d="M250.7 296.7c.3-.1.3-.2 0-.3l.5-3.3v-8 .2-7.8c-.2-.7 0-1.9-.1-2.4v-1.5.7-1.2a7.9 7.9 0 0 0-.7 0h-.7l-2.7.3c-.4 0 .4-.2-.2-.1 0-.1.3 0 .1-.1h-1.8v-.1h-2.6c-1 0-.7-.2-1.8-.1l-.4-.1c-.4 0-.3.1-.8 0h-6.3.2l.1-.1h-2.4c.3 0 .6 0 .4.1h-.8.1-1.2.2c-.6 0-.8-.2-1.4 0h-1.9v2.8c0 1-.2.4-.1 1.5v-.1.2c.2 1 0 .5.1 1.6 0-.4.2-.2.2.3l-.1-.1v.9l-.2-.3.1.8v3.4c0-.2 0 .5-.2.3.1.3.2 1.3.1 1.7v3.8c.1 0 0 .6.2.4 0 1.4-.3 2.5 0 3v1.1-.1 2.5l.1.9a6.6 6.6 0 0 1 1 0c-.2 0-.2 0 0 0h2.3l3.7-.1h-.5.9c0 .2-.5.1-.8.1 1 .2 2.1-.1 3.3 0h.3l.5-.1.6.1h2c-.4 0-.3-.1-.2-.1h.7v.1l1-.1h-.6 1.8c.7 0 0 0 .2-.1h1.8l-.2-.1h2.4l3.4-.4c.1.4.2.4.3 0zm-2.1-.5c-3.1-.2-4.7 0-8.4.2l-7.5-.2H228l-.2.1v-2.9.1-1.7a22.8 22.8 0 0 1 0-2.2h-.1v-3.5c-.2-1.7.2-2.7 0-4.5v-.1l-.1-1.7v-1.6.2-1.3l-.2.2c0-.7.2-.1.2-.8h-.1a9.2 9.2 0 0 1 0-1.3l.2-.6v-.6h11.2c0 .2 1-.1 1.1 0h10.1v3c.3 3-.2 6.5 0 9.6a.8.8 0 0 0 0 .4v2.9l.2 6.6-1.7-.2zM162.2 227c3 .2 4.5-.1 8-.2l7.1.2h4.6c.7-.2 2 0 2.8-.2l.4.1h2.5-.1 2.2v-.2c1.4.1 2 0 3.2 0 1.7-.2 2.6.2 4.3 0h.1l1.7-.1.5.1 1-.1h-.2 1.3l-.3-.1.8.1v-.1c1 0 1.5.2 2.4.3 3.8 0 8-.3 11.4 0h.2c0 .2 1-.2 1 0h6c2 .1 5.5 0 7.6-.1 2.9-.2 6.2.3 9.2 0h3s13.1.1 3.2-1a18 18 0 0 0-3.4 0h-4.3.3-6.2.1l-1.3.1h-3.6.5c-.2.2-1-.1-1.8 0-.8 0-1.7.4-2.5.3-.4 0 .3-.2-.3 0 0-.2.3-.1.2-.2H222v-.1h-2.5c-1 0-.7-.2-1.7 0l-.4-.2c-.4 0-.3.1-.8 0h-4l-1.3.1s-1.4 0-.6-.1h.2c-.7-.2-1.4 0-2.2 0h.3-.7.1-1.1.1c-.5 0-.7-.2-1.3 0-.3 0 .5 0 0 0h-3.3c-1 0-.4-.2-1.4-.1h-.2c-.9.2-.5 0-1.5.1.4 0 .2.2-.3.2l.2-.1h-.8l.3-.2-.8.2-1.7-.1h-1.5c.2 0-.5 0-.3-.1h-5.2c0 .1-.6 0-.4.2-1.3 0-2.4-.3-2.9 0h-1 .1a45 45 0 0 1-2.2 0c-.4 0-.5.2-1.2.1h-2.2l-3.5.1.4-.1h-.8.7c-1-.2-2 0-3.1 0h-3.2.1-1.6.6-1.7c-.6 0 0 0-.2.1h-1.7l.2.2h-2.2c-7.5.6-1.6.9-1.6.9zm0 10.7c3 .2 4.5 0 8-.1l7.1.1h4.6c.7-.2 2 0 2.8-.1h2.9-.1 2.2v-.1c1.4.1 2 0 3.2 0 1.7-.2 2.6.2 4.3 0h.1l1.7-.1h1.5-.2 1.3l-.3-.2c.7 0 .2.2.8.2v-.1c1 0 1.5.2 2.4.3 3.8 0 8-.3 11.4 0h.2c0 .2 1-.2 1 0l.5-.1h.8l.4.1h4.3c2 .1 5.5 0 7.6-.1 2.9-.2 6.2.3 9.2 0h3s13.1.1 3.2-1a18 18 0 0 0-3.4 0c-.2-.1-1.2 0-1.6 0h-2.7.3l-1.6-.1-4.6.1h.1-1.4l-2.3.1h-1.2.5c-.2.1-1-.2-1.8 0l-2.5.3c-.4 0 .3-.2-.3-.1 0-.1.3 0 .2-.1H222v-.1h-2.5c-1 0-.7-.2-1.7-.1l-.4-.1c-.4 0-.3.1-.8 0h-5.8.2v-.1h-2.2c.2 0 .5 0 .3.1h-.7.1-1.1.1c-.5 0-.7-.2-1.3 0-.3 0 .5 0 0 0h-3.3c-1 0-.4-.2-1.4-.1h.1-.3c-.9.2-.4 0-1.4.1.4 0 .2.2-.3.2v-.1h-.8l.3-.2-.8.1h-3.2c.2 0-.4 0-.2-.2-.4.1-1.3.2-1.7.1h-3.6c0 .1-.6 0-.4.2-1.3 0-2.4-.3-2.9 0h-1 .2a45 45 0 0 1-2.3 0c-.4 0-.5.2-1.2.1h-.4c.2 0 .3 0 0-.1h-.5l.1.1-1.4-.1-3.5.2.4-.1h-.8.7c-1-.2-2 0-3.1 0h-1.3c-.4-.2-1.3 0-1.8 0 .3 0 .2 0 0 0H169h.5-1.7c-.6 0 .1 0-.2.1-.5 0-1 .1-1.6 0l.2.1h-2.3c-7.5.7-1.6 1-1.6 1zm77.7 21.2h3.1s13.1 0 3.1-1a18 18 0 0 0-3.3 0c-.2-.2-1.3 0-1.6 0-.9 0-1.8-.2-2.7 0l.2-.1h-6.1l-1.3.1h-3.5.4c-.1.2-.9-.1-1.8 0-.8 0-1.6.4-2.5.3-.4.1.4-.1-.2 0 0-.2.3-.1.1-.2h-1.7v-.1h-2.4c-1 0-.7-.2-1.7 0l-.4-.2c-.5 0-.3.2-.8.1h-.4c-1-.2-2.2 0-3.6-.1l-1.3.1s-1.5 0-.7-.1h.3c-.8-.2-1.5 0-2.3 0h.4-.8.2-1.2.2c-.5 0-.7-.2-1.4 0-.2 0 .6 0 0 0h-3.3c-1 0-.4-.2-1.3-.1h-.2c-1 .2-.5 0-1.5.1.4 0 .2.2-.3.2l.1-.1h-.8l.2-.2-.7.2-1.7-.1H195c.3 0-.4 0-.2-.1h-1.7.1-3.6c0 .1-.6 0-.5.2-1.3 0-2.4-.3-2.8 0h-1 .1-2.3c-.4 0-.4.2-1.2.1h-2.2l-3.5.1.5-.1h-.8.7c-1-.2-2 0-3.2 0h-.2l-.5.1c-.2 0 0-.2-.5-.2l-1.9.1c.3 0 .2 0 0 0H169h.5-1.7c-.6 0 .1 0-.1.2H166h.2-2.3c-7.5.7-1.6 1-1.6 1 3 .2 4.5 0 8-.2l7.1.2h4.6c.7-.2 2 0 2.8-.2l.4.1h2.5-.1 2.2v-.1c1.4 0 2-.1 3.2 0 1.7-.2 2.6.2 4.4 0-.2 0 0 0 0 0 .8 0 1.7 0 1.7-.2.6 0 .4 0 .5.1h1-.2 1.3l-.3-.2c.7 0 .2.2.8.1l2.4.2c3.8 0 8-.2 11.4 0h.2c0 .2 1-.1 1.1 0h13.5c2.9-.2 6.2.3 9.2 0zm-48.4-11.2.2.1h2.4c1 .1 2.9 0 4-.1 1.6-.2 3.4.3 5 0 0 .1.1 0 .1 0h1.5s7 .1 1.7-1h-4.1.1-3.3l-.7.1h-1.9.3c-.1.2-.5-.1-1 0-.4 0-.9.4-1.3.3-.3 0 .2-.1-.2 0 0-.2.2-.1.1-.2h-.9v-.1h-1.3c-.5 0-.4-.2-1 0l-.1-.2c-.3 0-.2.2-.4.1 0 0-.4 0-.2-.1h-2l-.7.1s-.8 0-.3-.1h.1c-.4-.2-.8 0-1.2 0h.2-1 .1-.7c-.2 0 .3 0 0 0h-1.8c-.5 0-.2-.2-.7-.1l-.1.1c-.5.2-.3-.2-.8 0 .2 0 0 .2-.2.2h.1-.3c.1-.1 0-.2-.2-.2h.2-2.2c.1 0-.2 0-.1-.1h-1 .1c-.7 0-1.3.2-2 0 0 .1-.3 0-.2.2-.7 0-1.3-.2-1.5.1h-.6l.1-.1h-1.2c-.2 0-.2.2-.6.2.1-.1 0 0-.2 0 .1-.1.1-.1 0-.2h-.2c-.2 0-.2 0 0 .1h-.8l-1.9.1.3-.1h-.5.4c-.5-.2-1 0-1.7 0h-.1l-.3.1-.3-.1h-1c.2 0 .1 0 0 .1h-.3v-.1h-.5.3-.9c-.3 0 0 .1 0 .2h-1 .1a3 3 0 0 1-1.2 0c-4 .7-.9 1-.9 1 1.6.2 2.4 0 4.3-.1 1.7 0 2.1.2 3.8.1h2.5c.4-.2 1 0 1.5-.1h2.7v-.1h1.7c1-.2 1.4.2 2.4 0-.1 0 0 0 0 0 .4 0 .9 0 .9-.2.3 0 .2 0 .3.2l.5-.1h-.1.7l-.2-.2c.4 0 .1.2.5.2v-.2c.5 0 .8.2 1.3.3 2 0 4.2-.2 6.1 0l.1.1c0 .1.5-.2.6 0l.2-.1h.5z"/><use xmlns:xlink="http://www.w3.org/1999/xlink" xlink:href="#g"/><use xmlns:xlink="http://www.w3.org/1999/xlink" xlink:href="#g" x="7.2"/><use xmlns:xlink="http://www.w3.org/1999/xlink" xlink:href="#g" x="14.3"/><path d="M149.8 225.6v-1.4h-4 .4l-2.5-.1-7.2.1h-2.1c-1 .2-2.8 0-3.6.1h-2 .8c-.3.1-1.5-.2-2.8 0-1.3 0-2.6.3-4 .3-.6 0 .6-.2-.4-.1 0-.1.5 0 .2-.1H120v-.1h-4c-1.5 0-1-.2-2.6 0l-.7-.2H110v6.2c.1.4 0 1.6.2 2 0 0 0 2.3-.2 1v-.5c-.2 1.3 0 2.4 0 3.7 0-.4 0-1 .1-.6v1.2-.2l-.1 1.8v-.3 2.2c0 .4.1-.8.1 0l-.1 4.5c.1-.2 0 .2.1.7 0 1.6-.2.6-.2 2.2v-.2l.2.4c.1 1.5-.2.8 0 2.4 0-.6.2-.3.1.5v-.2.8c0-.2-.1-.1-.1.5l-.1-.4.1 1.2v5.1c0-.4 0 .7-.2.4.1.5.2 2 0 2.6v-.1 2.9h4.4c-.1-.2 1 0 .7-.2 2-.1 3.8.2 4.5-.1h1.6l-.2.1h3.5c.7 0 .8-.2 2-.2h.5c-.3 0-.4.1.2.2h.3c.8 0 .6-.1.3-.1h-.1 2.2l5.6-.1-.8.1h1.3-1.1c1.5.2 3.1 0 5 0h.4l.7-.1.9.1h3c-.6 0-.4 0-.2-.1h1v.1l1.4-.1-.8.1h3.4c0-.3 0-.2 0 0-.3-.1-.4-.1-.2-.2v-2.8.3-3.6c-.7-11.9-1-2.5-1-2.5v7.6h-1.1l-2.3.1c-4.8 0-6.1-.2-11.2-.1h-7.3c-1.1.2-3.1 0-4.4.1h-4.5.1-6.4v-1c-.2-2.6.2-4 0-6.8v-.1l-.1-2.6c0-1 0-.8.1-.9l-.1-1.5v.4-2l-.1.3.1-1.3h-.1c0-1.5.2-2.3.3-3.8l-.1-9.1v-8.6l.1-.1.2-.1h.7l.6-.1h1.3l.7.1h6.8c3 .1 8.7 0 12-.1 4.5-.2 9.8.3 14.5 0a1.5 1.5 0 0 0 .3 0h.2v3.2s0 20.8 1 5v-7.8zM265 89.4zm8 62.4h-.1zm-65-36.4zm30.2-17 .1.1a.3.3 0 0 0-.1-.1zm-48.6-31.3c0 .2.2-.4.2 0l-.2 2.2c.1-.1.1 0 .2.3.1.7-.2.3 0 1l.2.1c.3.6-.1.4.3 1 0-.2.1-.2.2.2l.1.3c0-.1-.1 0 0 .2h-.1l.3.4c.1.4.6 1 .6 1.1l.7.9c-.1-.1.2.3 0 .2l1 .9h-.1c.7.8 1.5 1 2.2 1.6 0-.1.4.1.4 0l1.2.5c.3.2.6.2.8.1l.7.3h-.1l1.7.1.9-.1h.2c-.1 0-.2 0 .1.1a.7.7 0 0 1 .2 0c.3 0 .2-.1 0 0 .1 0 0-.1 0-.1.4 0 1-.2 1 0l2.5-1-.3.2.5-.3-.4.3c.7-.2 1.3-.8 2-1.2v-.1h.1l.2-.3c.2 0 .1.1.4-.2.2 0 .4-.2.5-.4l.4-.6c-.1.2-.1 0 0 0 0-.2.2-.2.3-.4l.3-.5c.2 0-.1.3 0 .4l.6-1c.2-.5-.1 0 0-.3 0-.3.2-.7.4-1h-.1l.5-1.5a6 6 0 0 0 0-2.4c-.2-.4-.3-.4-.4-.2l-.3 1.3-.6 2.4c-.3.7-.6 1.5-1.3 2.4a8 8 0 0 1-1.8 1.5l-2 1c-1 .4-2 .7-3 .7a2 2 0 0 1-.9.1h-1l-.1-.1-.6-.1-.7-.2-.3-.1a4 4 0 0 1-1.3-.6v.1c-.8-.6-1.2-.6-1.8-1.3-1-.6-1-1.3-1.9-2.2.1.1 0 0 0 0-.3-.5-.5-1-.7-1v-.3l-.3-.6v.2a5 5 0 0 1-.2-.9l-.1.2V70h-.1v-1.7c0-1.2.2-2.5.6-3.8s1.2-2.3 2-3h.2c.1 0 .3-.7.5-.6l.2-.3h.1l.3-.3h.3c.8-.6 1.5-1 2.6-1.4.6 0 1.5-.3 2.4-.3h1.3l1.2.1c1 .1 2 .6 2.8 1.2A24.9 24.9 0 0 1 208 62a10.3 10.3 0 0 1 1 1.5l.1.4a5.8 5.8 0 0 1 .4.8c.3.7.5 1.5.6 2.2.1.7.2 1.2.4 1 0 0 .4-.8.2-2.7-.2-1-.5-1.7-1-2.3.2-.1-.4-.8-.5-1-.4-.4-.7-1.1-1.2-1.5h.1l-.8-.7a7.6 7.6 0 0 0-3-1.6l-1-.2-1.6-.3-.9-.1h.3c0 .2-.6-.2-1.3 0-.3 0-.6.1-.8.3l-1 .3c-.2.1.3-.2-.1 0 0-.2.2-.2 0-.2l-1.2.3c-.6.4-1.3.4-1.6.8-.6.4-.5 0-1 .7h-.4c-.2.3 0 .3-.4.5 0 0-.3.3-.2.1-.7.5-1 1.3-1.8 2.1l-.3 1s-.4 1-.3.3v-.2l-.3.8-.2.8.1-.2-.1.6v-.2a4.7 4.7 0 0 0-.3.9l.1-.1c0 .5-.2.6-.1 1zm.4 3.5h-.1zm66 13.6zm2.3 58.1h-.1z"/><path d="M173.9 154v1.8c.1-.1.2.2.2.5.3 1.2-.2.5.2 1.7l.2.2c.4 1 0 .6.6 1.7-.2-.5 0-.3.2.3l-.1-.1.3.6c-.2-.2-.2 0 0 .4l-.2-.3.5.8c.2.6 1 1.5 1 1.8l.4.7.7.8c-.2-.2.3.4.1.3l1.4 1.4c1.2 1.2 2.3 1.7 3.6 2.5 0 0 .7.3.5.1l1 .5 1 .4 1.3.3 1.1.3h-.1l2.7.3 1.4-.1h1c.5 0 1.5-.3 1.6-.2a16 16 0 0 0 4-1.5l-.5.3.9-.4-.8.4c1.1-.3 2.1-1.2 3.3-1.9l.2-.2.4-.4c.2 0 .1.1.6-.3l.8-.7.7-1c-.2.3-.2.2-.1 0l.5-.5h.1l.5-.9c.2-.1-.2.5-.2.6.8-1.1.4-.6 1-1.7.4-.7 0 0 0-.3.4-.6.5-1.2 1-1.8l-.3.2 1-2.6.1-1.4V154c-.2-.6-.3-.6-.3-.2l-.3 1.3v.6l-.1.3a19 19 0 0 1-1.2 4 16 16 0 0 1-2.3 4c-.6.7-1 1.2-1.6 1.6l-1.3 1a15.4 15.4 0 0 1-10 3h-1.7l-.3-.1c-.4 0-.7 0-1-.2l-1.3-.3-.5-.2h.1c-.8-.2-1.6-.6-2.3-1v.1c-1.3-.9-2-1-3-2.1-1.5-1.1-2-2.2-3.1-3.7.1.2 0-.1 0-.1l-.4-.6-.2-.5-.4-.5-.2-.6-.5-1 .1.3-.4-1.4v.3l-.2-1c-.2-1-.2-1.7 0-2.7-.1-2.1.2-4.4 1-6.4a13 13 0 0 1 3.3-5.3l.2-.1.9-1 .3-.3c.1 0 .4-.2.2 0l.6-.5.4-.2c1.4-.9 2.6-1.7 4.3-2.2 1.1-.2 2.6-.6 4.2-.6h2.3a12 12 0 0 1 6.8 2.3 24.6 24.6 0 0 1 4.1 3.7l1.7 2.6.5 1.1.3.8c.5 1.1.8 2.6 1 3.8.2 1.1.3 2 .4 1.7 0 0 .2-.4.2-1.1v-2.3l-.2-1a9.5 9.5 0 0 0-1.5-3.8l-.9-1.6-1-1.3-1-1.2-1-.9.6-.5c1.7-2 2.4-3 4.3-5.5 1.4 1.1 2.8 1.9 4.4 2.9-.1-.1 1.1.5.9.3l1.7.8 1.6.6a5 5 0 0 0 2.2.6l2 .5h-.2l2.5.4 2.1.1 2.6-.2h.7c-.4 0-.5.1.2.1a3.5 3.5 0 0 1 .5 0c1-.1.8-.2.3-.1h-.1c1 0 2.7-.4 2.8-.3a28.7 28.7 0 0 0 6-2l1.6-.7-1.3.7c1.9-.8 3.7-2 5.6-3.3l.4-.4.7-.7c.3-.1.1.2 1-.6l1.3-1.3 1.4-1.5c-.5.5-.4.3-.2 0l1-1 1-1.4-.6.9 1.5-2.2 1.5.8.2.1 2 1.3s4.5 2.6 5.3 2.8v.2l-.3.5s-.6 1.4-.4.6l.1-.2v-.1c-.3.3-.3.7-.5 1l-.2 1.2.1-.3-.2.8v-.2l-.3 1h.1c0 .5-.3.7-.2 1.3 0 .3.1-.5.1 0l-.1 1.4v1.5l.2.4h-.1c.3 1-.1.5.2 1.4l.1.2c.4.8 0 .5.5 1.4-.1-.4.1-.3.3.2l-.1-.1.2.5v.3l-.1-.2.4.6c.2.6.8 1.3.8 1.6l.4.5.6.7c-.2-.2.2.4 0 .3l1.2 1.1c1 1 2 1.4 3 2.2 0-.1.5.2.4 0l.9.4.7.3c.5.2.9.3 1.1.2l1 .4h-.1l2.2.2 1.2-.1h.9-.1c.5 0 1.3-.3 1.4-.2 1.3-.3 2.3-.7 3.3-1.2l-.4.3.7-.4-.6.4c1-.3 1.7-1 2.7-1.6l.2-.2.2-.2-.2.1.3-.3c.2 0 0 .2.5-.2a4.1 4.1 0 0 0 .6-.6l.6-.8c-.2.2-.1.1 0 0l.4-.5.5-.7-.2.5 1-1.4c.2-.6-.2 0-.1-.3l.7-1.4h-.2l.7-2 .2-1.2v-1l-.1-1.1c-.1-.5-.2-.4-.3-.2l-.2 1.1-.1.5-.1.2-1 3.3c-.3 1-.8 2-1.8 3.4a12.4 12.4 0 0 1-2.5 2 13.5 13.5 0 0 1-8.2 2.5h-1.3l-.3-.1c-.3 0-.6 0-.9-.2l-1-.2-.4-.2h.1c-.7-.1-1.3-.5-1.9-.8v.1c-1-.7-1.6-.9-2.4-1.7-1.3-1-1.6-1.9-2.6-3v-.2c-.4-.6-.7-1.3-1-1.2-.2-.5 0-.5 0-.5l-.4-.8v.1l-.3-1.1v.3c-.2-.7 0-.2-.1-.8h-.1v-2.3c0-1.7.2-3.6.8-5.3s1.6-3.2 2.8-4.3h.2c.1 0 .5-.8.7-.8l.2-.3c.1 0 .3-.2.2 0l.5-.5.3-.1c1.2-.7 2.2-1.4 3.6-1.8.9-.2 2.1-.5 3.4-.5h1.9c.6 0 1.2 0 1.6.2 1.4.2 2.7.8 4 1.6a22.6 22.6 0 0 1 3.4 3l1.3 2.2.3.5a7.9 7.9 0 0 1 .5 1.1c.4 1 .6 2.1.8 3 .1 1 .2 1.7.4 1.5 0-.1.4-1.2 0-3.6h.1a8 8 0 0 0-1.3-3.2c0-.2-.6-1-.8-1.3l-.8-1.1-.9-1h.1a5 5 0 0 1-1-1c-1.2-1-3-2-4-2.1l-1.3-.4-1.2-.2-1-.2h-1.3.5c-.2.1-1-.2-1.8 0l-1.2.3-1.2.3c-.4.2.3-.2-.2 0 0 0 .2-.1 0-.1-.5.1-1 .1-1.6.4-.8.5-1.7.6-2.2 1-.8.6-.7.2-1.4 1l-.4.1c-.3.3-.1.3-.5.6 0 0-.5.4-.4.2-.8.7-1.4 1.7-2.3 2.9v.2l-2.5-2c-1-.8-1.7-1.2-2.6-1.6 0-.2-.9-.5-1.1-.7-.7-.3-1.3-1-2-1.2h.2l-.6-.3c.2-.4 0-.1 0 0h-.1v-.2l1.5-3-.2.3 1.5-4.5.3-1.3.1-1.2.2-2v-2.4c-.2-1-.3-1-.4-.4a33.9 33.9 0 0 0-.4 3.5v.5a29.2 29.2 0 0 1-6.3 14.4l-1.5 1.6-1.3 1.2-2.5 1.9a27.6 27.6 0 0 1-15.3 5.3l-1.2.1H223l-1.4-.2-.6-.2-1-.1-.8-.2-2.2-.6-1-.3h.2c-1.4-.4-2.8-1.1-4-1.7-2.4-1.5-3.4-2-5.4-3.7-2.6-2.1-3.5-3.9-5.5-6.7.2.4 0-.1 0-.1l-.7-1-.5-1-.6-.9c-.5-1-.3-.9-.3-1l-.8-1.8.2.4-.7-2.5v.6c-.4-1.4 0-.4-.3-1.7h-.1l-.3-2.4V112c-.1-3.8.5-7.8 1.9-11.4 1.3-3.7 3.5-7 6-9.4l.3-.2 1.6-1.6.5-.6c.2 0 .6-.4.3 0l1-1 .8-.4c2.5-1.6 4.7-2.9 7.8-3.8 1.8-.4 4.5-1.1 7.3-1.1l1-.1h3l2 .3.8.1.8.2c2.9.5 5.8 1.9 8.5 3.6a37 37 0 0 1 7 6c0 .2.4.6.4.6l1.6 2.2 1.4 2.3.4 1 .6 1.1.5 1.4c.8 2 1.3 4.7 1.7 6.7.2 2 .3 3.4.4 3 .1 0 .2-.7.2-2v-2.2l-.2-1.6-.4-1.7h.1c-.3-1.4-.8-2.6-1.2-3.7L252 97c0-.3-.7-1.3-1.2-2.1a17 17 0 0 0 1.7-1.3l2-1.4s3.7-2.5 4.7-3.4l1.5 1h.3c.7.3 1.3.8 1.7.5.3 0 .4.2.5.2l1.3.2c.2 0 .3-.2.7-.2h.2s-.1.1.1.1h.2v-.1c.3 0 .8-.1.8 0a7 7 0 0 0 2-.9s0 .2-.2.3l.4-.3-.4.3c.6-.1 1-.7 1.7-1v-.1l.2-.1h-.1l.1-.2c.1 0 .1.2.4 0l.7-.9c-.1.1-.1 0 0 0 0-.2.1-.2.2-.3l.3-.4-.1.3.5-.9c.2-.3 0 0 0-.2l.3-.9v.1c0-.6.2-.9.4-1.2a7 7 0 0 0-.2-2c-.1-.3-.2-.3-.3-.1-.2.3-.3 1-.3 1l-.5 1.9-1 2a6.2 6.2 0 0 1-1.5 1 14.3 14.3 0 0 1-1.6 1l-2.3.5h-1.6l-.5-.1-.6-.2h-.2a3 3 0 0 1-1-.5v.1c-.6-.5-1-.5-1.4-1-.8-.5-.9-1.1-1.5-1.7v-.1c-.2-.3-.4-.8-.6-.7v-.3l-.3-.4h.1l-.2-.6-.1.2v-.5c-.2-.5 0-.8 0-1.3 0-1 .1-2 .5-3s.9-1.9 1.6-2.5h.1c.1 0 .3-.5.4-.4l.1-.2s.2-.1.1 0l.3-.3h.2c.7-.4 1.2-.9 2-1.1 1-.2 2.9-.4 4-.2.8 0 1.6.5 2.2 1l1.9 1.6.1.1a8.5 8.5 0 0 1 .8 1.2l.1.3.3.7.5 1.7c.1.6.2 1 .4.9 0-.1.4-.7.3-2.2-.2-1-.4-1.4-.8-2l-.4-.7c-.4-.4-.6-1-1-1.3l-.6-.6a5.8 5.8 0 0 0-2.5-1.3l-.8-.2-1.3-.2v-.1h-.8.3c0 .2-.5-.1-1 0-.3 0-.5.1-.8.3l-.7.2c-.2.2.2-.2-.1 0 0-.1.1-.1 0-.2-.3.2-.6 0-1 .3-.5.3-1 .3-1.3.6-.5.4-.4 0-.9.5l-.2.1c-.2.2 0 .2-.3.4 0 0-.3.2-.3 0l-1.4 1.8c0 .2-.3.6-.2.7 0 0-.4.8-.3.3v-.2c-.3.5-.3 1-.4 1.4 0-.1 0-.3.1-.2l-.1.5v-.1l-.2.6c0 .3-.2.4-.1.8 0 .2.1-.3.1 0 0 .5-.2 1.2-.1 1.7l.1.3c.2.6-.2.3 0 .9h.2c.2.5-.1.4.3.9-.1-.2.1-.2.2.1h-.1l.1.3v.2l-.1-.1.3.3c0 .4.5.8.5 1l.6.7c-.2 0 0 .3 0 .2l.7.7-2.6 1.3a10 10 0 0 0-2.5 1.7c-.2 0-.9.6-1.2.7-.6.6-1.4.8-2 1.4l.2-.2-.7.5-1.5-2c-.7-.7-1.2-1.5-2-2h.2c-.9-.8-2-1.8-2-2l-2.1-1.5-2.3-1.4a20 20 0 0 0-4-1.7 12.3 12.3 0 0 1-1.2-.4l-1.4-.4h-.1a12 12 0 0 0-2.4-.6l-2.2-.3-2.6-.2h1-3.7c-.9 0-1.7.3-2.6.5l-1.2.3-1.3.4c-.8.3.7-.4-.5 0 0 0 .6-.2.2-.2l-1.6.4a19.8 19.8 0 0 0-1.7.6h-.1l-.7.3-.6.3-1.2.6a9.1 9.1 0 0 0-2 1l-.2.2-.4-.5c.2.3.1.2 0 .1l-.3-.5-.4-.6c0-.2.2.3.3.3l-.8-1.3c-.4-.4 0 .2-.2 0l-.9-1.2v.2l-1-1.7c-4.2-5.3-1.6-.7-1.6-.7 1.3 2.3 2.2 3.3 4 5.9l.3.6c-.5.2-.7.3-1.7 1.2l-.8.4c-.7.6-.4.6-1.2 1.2 0 0-1 .8-.6.4l-1.2 1.2-1.2 1.4-2.3 3.4-.7 1.2-.5 1.2-.6 1.2c-.2.5-.4.8 0 0l.1-.4v-.2c-.5.7-.7 1.5-1 2.3l-.3 1c0 .5-.2.9-.3 1.3.2-.5.3-1.2.3-.7l-.4 1.5v-.3l-.3 1.1-.2 1.2.1-.3c-.2 1.1-.4 1.5-.4 2.8 0 .6.1-1 .1.2l-.2 2.7c0 1 0 2.1.2 3.1l.2.9c.4 2.1-.2.8.4 2.9l.2.3c.6 1.8.1 1 1 3-.3-.8 0-.5.3.5l-.1-.2.4 1c-.2-.3-.2-.1.2.6l-.3-.4.8 1.3.4 1 .5.8.8 1.4.2.3.6.8 1.2 1.4c-.4-.4.5.7.2.5l2.4 2.4h-.1l1 .9a.7.7 0 0 0-.1.2h-.1l-.4.6.2-.4-1 1.2c-.2.4.2 0 0 .2-.2.4-.4.8-.8 1.1h.2l-1.3 1.5c-.6.8-1 1.3-1.2 1.8l-1-.7-1.2-.8-2.4-1h.1c-.7 0-.8-.3-1.5-.4h-.1l-1.4-.3-1.3-.2-1.4-.1h.5c-.2.2-1-.2-2.1 0-.5 0-1 .2-1.5.4a9.9 9.9 0 0 1-.7.2 4.5 4.5 0 0 1-.7.2c-.5.2.4-.3-.3 0 0-.1.3-.2 0-.2-.6.2-1 .2-1.9.6-1 .5-2 .7-2.6 1.3-1 .6-.8.2-1.7 1l-.5.3c-.4.3-.2.3-.6.7l-.4.2c-1 .8-1.8 2-2.8 3.4l-.4.8-.2.7-.4.6c-.1.3-.2.5 0 0v-.4a3 3 0 0 0-.5 1.3l-.4 1.3.2-.4-.3 1v-.3l-.3 1.4.1-.2c-.1.7-.3.9-.3 1.6 0 .4.2-.6.1.1l-.2 1.7z"/><path d="M174.3 158v-.1zm22.3-39.7v-.1zm50-28.3.3.2a1 1 0 0 0-.2-.3zm-3.1 19.2c.1.3 0-.5.1-.3l-.3-1.7c-.2-1.4-.8-2.4-1.2-3.6 0 0-.3-.6-.4-.4l-.8-1.6-.6-.8-.6-.7-.2-.3h.1l-.6-.6-.5-.6-.3-.3h.1l-1.3-1.1-1.2-1-1.4-.8a11 11 0 0 0-2.4-1c-1-.4-2-.5-3-.8h-.3l-.6-.1-.5-.1a6 6 0 0 0-1.3 0l-.2-.1h.1-1.2a3.3 3.3 0 0 0-.4 0l-1.7.2c-.6.2.1.1-.1.2l-1.4.4h-.2s.3-.1 0-.1c-.6.2-1.1.2-2 .6-1 .5-2.1.8-2.7 1.3-1 .7-.8.2-1.8 1.1l-.4.2c-.5.4-.3.4-.7.8 0-.1-.6.5-.4.2-1 .9-1.8 2.1-3 3.6 0 .4-.5 1.1-.6 1.4 0 0-.7 1.7-.4.7v-.3c-.5.9-.6 1.8-.9 2.8l.2-.4-.2.9v-.2l-.4 1.4.1-.2c-.1.7-.3.9-.2 1.7 0 .4.1-.7 0 .1v3.5l.2.5c.2 1.3-.2.6.2 1.8l.1.2c.4 1 0 .6.6 1.7v-.2l.2.5.2.5.1.4-.2-.2.5.7c.2.7 1 1.6 1 2a9 9 0 0 0 .5.6l.7.9c-.2-.2.3.4 0 .3.4.2 1.3 1.1 1.6 1.4 1.2 1.3 2.4 1.8 3.7 2.7 0-.1.7.3.5.1l1 .5 1 .4 1.4.3h.4c.4.2.5.3.8.3h-.2l2.8.3 1.1-.1h1.5a7.2 7.2 0 0 1 1-.1l.6-.1 1.1-.3c.3 0 .4 0 1-.3h.5l.8-.4c0 .1.6-.2.3 0 1.1-.4 2.1-1.2 3.4-2 .2-.2 1-.6 1-.9 0 0 1.2-1 .6-.4l-.1.2a4 4 0 0 0 .9-.8l.7-1-.3.3.6-.6v.2l.7-1-.2.1c.4-.4.6-.5.9-1.1 0-.3-.4.4 0-.2l1.4-2.5v-.5h.1c.3-1 .4-.3.6-1.4v-.2c0-1 .2-.4.2-1.5 0 .4-.2.2 0-.3v.1-.6c0 .2.1.1.2-.3v.3-.8l.1-1.8s0-1.3-.2-1.6zm-11.7-14.8-.3-.1.3.1zM210 105c.8-2.2 2-4.1 3.6-5.5l.2-.1c.1 0 .7-1 .9-1l.3-.3c.2 0 .4-.2.2 0l.6-.6.5-.2.2-.1.8-.4.7-.4a30.4 30.4 0 0 1 3.5-1.3c1-.3 2.3-.6 4-.7l2 .2 1.4.3 1.5.4 1.9.6a19.1 19.1 0 0 1 3.9 2.3c.6.4 1.4 1.3 2 1.9l.2.3.6.7.6.8.3.5v-.1l.5 1 .5.9v-.1c.5 1.4.9 1.8 1 3.1.4.8.4 1.4.4 2.1l.1 2-.2 1.2v.7l-.1.2a19.3 19.3 0 0 1-3.6 8.4l-1.7 1.6c-.4.5-1 .8-1.4 1.1a16.4 16.4 0 0 1-10.4 3.2h-1l-.7-.1-.4-.1-1-.2-1.3-.4-.5-.2c-.8-.2-1.6-.6-2.3-1v.1c-1.4-.9-2-1.1-3.2-2.2l-.4-.4-1.9-2.2-1-1.3c.2.2 0 0 0 0l-.3-.6-.3-.6-.1-.2-.3-.6-.2-.5-.5-1.2-.4-1.7-.3-1.4v-1.2a17.5 17.5 0 0 1 1.1-6.7zm33 11 .1.1zm13.1-4.2z"/><use xmlns:xlink="http://www.w3.org/1999/xlink" xlink:href="#h"/><path d="M266.1 111.8z"/><use xmlns:xlink="http://www.w3.org/1999/xlink" xlink:href="#h" x="10"/><path d="M276.1 111.8z"/><use xmlns:xlink="http://www.w3.org/1999/xlink" xlink:href="#i"/><path d="M286.1 111.8z"/><use xmlns:xlink="http://www.w3.org/1999/xlink" xlink:href="#i" x="10"/><path d="M296.1 111.8z"/><use xmlns:xlink="http://www.w3.org/1999/xlink" xlink:href="#i" x="20"/><path d="M306.1 111.8z"/><use xmlns:xlink="http://www.w3.org/1999/xlink" xlink:href="#i" x="30"/><path d="M316.1 111.8z"/><use xmlns:xlink="http://www.w3.org/1999/xlink" xlink:href="#i" x="40"/><path d="M326.1 111.8z"/><use xmlns:xlink="http://www.w3.org/1999/xlink" xlink:href="#i" x="50"/><path d="M336.1 111.8z"/><use xmlns:xlink="http://www.w3.org/1999/xlink" xlink:href="#i" x="60"/><path d="M346.1 111.8z"/><use xmlns:xlink="http://www.w3.org/1999/xlink" xlink:href="#i" x="70"/><path d="M356.1 111.8z"/><use xmlns:xlink="http://www.w3.org/1999/xlink" xlink:href="#i" x="80"/><path d="M366.1 111.8z"/><use xmlns:xlink="http://www.w3.org/1999/xlink" xlink:href="#i" x="90"/><path d="M376.1 111.8z"/><use xmlns:xlink="http://www.w3.org/1999/xlink" xlink:href="#i" x="100"/><path d="M386.1 111.8z"/><use xmlns:xlink="http://www.w3.org/1999/xlink" xlink:href="#i" x="110"/><path d="M396.1 111.8z"/><use xmlns:xlink="http://www.w3.org/1999/xlink" xlink:href="#i" x="120"/><path d="M406.1 111.8z"/><use xmlns:xlink="http://www.w3.org/1999/xlink" xlink:href="#i" x="130"/><path d="M416.1 111.8z"/><use xmlns:xlink="http://www.w3.org/1999/xlink" xlink:href="#i" x="140"/><path d="M426.1 111.8z"/><use xmlns:xlink="http://www.w3.org/1999/xlink" xlink:href="#i" x="150"/><path d="M436.1 111.8z"/><use xmlns:xlink="http://www.w3.org/1999/xlink" xlink:href="#i" x="160"/><path d="M446.1 111.8z"/><use xmlns:xlink="http://www.w3.org/1999/xlink" xlink:href="#i" x="170"/><path d="M451.1 115.4z"/><use xmlns:xlink="http://www.w3.org/1999/xlink" xlink:href="#j"/><path d="M451.1 125.4z"/><use xmlns:xlink="http://www.w3.org/1999/xlink" xlink:href="#j" y="10"/><path d="M451.1 135.4z"/><use xmlns:xlink="http://www.w3.org/1999/xlink" xlink:href="#j" y="20"/><path d="M451.1 145.4z"/><use xmlns:xlink="http://www.w3.org/1999/xlink" xlink:href="#j" y="30"/><path d="M451.1 155.4z"/><use xmlns:xlink="http://www.w3.org/1999/xlink" xlink:href="#j" y="40"/><path d="M451.1 165.4z"/><use xmlns:xlink="http://www.w3.org/1999/xlink" xlink:href="#j" y="50"/><path d="M451.1 175.4z"/><use xmlns:xlink="http://www.w3.org/1999/xlink" xlink:href="#j" y="60"/><path d="M451.1 185.4z"/><use xmlns:xlink="http://www.w3.org/1999/xlink" xlink:href="#j" y="70"/></g><defs xmlns="http://www.w3.org/2000/svg"><path id="a" d="m198 323.3-.2.4v.2c.2 0 0 .1.2.2v.2c0 .1.1.1 0 .2.2.1-.2.2 0 .3h.2l-.1.1v.1h.2-.1l-.2.2c0 .2.2.4 0 .6-.2 0 .1 0 0 .1v.3c-.2.1 0 .3 0 .4.3.2-.2.4 0 .5v.2s0 .7 1 .2c.1 0 .1-.1 0-.2.2 0 0 0 0-.1 0 0 .2-.1 0-.2h.1v-.3h-.1v-.2c-.2 0 .1 0 0-.1 0 0-.4-.1-.3-.2-.1 0 .1 0 0 0h.2s.1 0 0 0h.1c-.1-.1.1-.2 0-.2 0 0 .2 0 0-.1h.1v-.1c.2 0 0-.1.1-.2h-.1s0-.2.1-.1c.2 0 0 0 0-.1v-.1s.1 0 0 0h-.1l.1-.2c0-.1.2 0 .1-.1h-.1c-.2 0 .1 0 0-.1h-.2.2v-.1s-.1 0 0-.1v-.1h.1s-.1 0 0-.1c0-.1-.2-.2 0-.2h-.2c0-.1.2-.2-.1-.2h.1v-.2h-.2c.1 0 0 0 0 0h.2v-.1h-.1.1c0-.2-.1-.2-.2-.3h.1c.1 0 0 0 0 0 .2 0 0 0 0-.2h.1v-.1h-.2s.1 0 0 0h.2l-.1-.1c0-.1 0 0-.1 0 0-.1-.1-.1 0-.2h-.1c-.1 0 0 0 0-.1-.7-.4-1-.1-1-.1-.1.2.1.3.2.5z"/><path id="b" d="m198 363.3-.2.4v.2c.2 0 0 .1.2.2v.2c0 .1.1.1 0 .2.2.1-.2.2 0 .3h.2l-.1.1v.1h.2-.1l-.2.2c0 .2.2.4 0 .6-.2 0 .1 0 0 .1v.3c-.2.1 0 .3 0 .4.3.2-.2.4 0 .5v.2s0 .7 1 .2c.1 0 .1-.1 0-.2.2 0 0 0 0-.1 0 0 .2-.1 0-.2h.1v-.3h-.1v-.2c-.2 0 .1 0 0-.1 0 0-.4-.1-.3-.2-.1 0 .1 0 0 0h.2s.1 0 0 0h.1c-.1-.1.1-.2 0-.2 0 0 .2 0 0-.1h.1v-.1c.2 0 0-.1.1-.2h-.1s0-.2.1-.1c.2 0 0 0 0-.1v-.1s.1 0 0 0h-.1l.1-.2c0-.1.2 0 .1-.1h-.1c-.2 0 .2 0 0-.1h-.2.2v-.4h.1s-.1 0 0-.1c0-.1-.1-.2 0-.2h-.2c0-.1.2-.2-.1-.2h.1v-.2h-.2.1v-.1l-.1-.3h.1c.2 0 0 0 0-.2.1 0 0 0 0-.1v-.1c0-.1 0 0-.2 0v-.2c-.1 0-.1 0 0-.1-.7-.4-1-.1-1-.1-.2.2 0 .3.1.5z"/><path id="c" d="M210.3 445.3h-.2c0-.1 0 0 0 0-.1.1-.2-.1-.2 0l-.1-.1-.3.1c0 .1 0 0 0 0l-.2.1c0 .1 0-.2-.1 0l-.1.3v-.2s0-.1-.1 0v-.1s-.1-.1-.2 0v-.1l-.1-.1s0 .1 0 0h-.3s-.1 0 0 0v-.1c-.1-.1-.1 0-.2 0v.1-.1h-.1v.1l-.2-.1v.1-.1h-.1v.1s0 .2-.1.1v-.2.1h-.2s0-.1 0 0v-.2c0 .1-.1.2-.2 0 0 0 0 .2-.2 0v.2c0 .1-.1-.2-.1.2l-.1-.1h-.1v.1h-.1v-.1h-.1l-.2.2v-.2c0-.1-.1.1-.2 0a.2.2 0 0 1 0 .1v-.1h-.1v.1-.1l-.1.1h-.1v.1h-.1v.1h-.1c-.4.7-.1 1-.1 1 .1.1.2-.2.4-.2s.2.2.4.1h.3l.1-.1h.4s.1-.2.2 0c0-.3.1.1.2-.1l.1-.1h.1v-.2l.1.2v-.1l.1.3c.2 0 .5-.3.7 0 0 .2 0-.2 0 0v-.1h.1v.1h.3l.4-.1c.1-.2.3.3.5 0h.1s.8 0 .2-1z"/><path id="d" d="M258.7 446.3v.1c0 .2 0-.2 0 0h.4l.4-.1c.1-.2.3.3.5 0 0 .1 0 0 0 0h.1s.8.1.2-1h-.2c0-.1 0 0 0 0-.1.1-.2-.1-.2 0l-.1-.1-.3.1c0 .1 0 0 0 0 0 .2-.1 0-.2.1 0 .2 0-.1-.1 0 0 0-.1.4-.2.3v-.2s0-.1 0 0v-.1c-.1.1-.2-.1-.2 0 0 0 0-.2 0 0l-.1-.2s0 .1 0 0h-.3s-.1 0 0 0v-.1c-.1-.1-.1 0-.2 0v.1s-.1-.2-.1 0h-.2s0-.2-.1-.1v.1s0 .2-.1.1v-.2.1h-.2s0-.1 0 0v-.2c0 .1-.1.2-.2 0 0 0-.1.2-.2 0v.2c0 .1-.1-.2-.2.2v-.1h-.1s0 .2-.1.1v-.1s-.1.1-.1 0l-.2.2v-.2c0-.1-.1.1-.2 0a.2.2 0 0 1 0 .1v-.1h-.1v.1-.1l-.1.1h-.1v.1h-.1v.1h-.1c-.5.7-.1 1-.1 1 .1.1.2-.1.4-.2.2 0 .2.2.4.1h.3l.1-.1h.4s0-.2.2 0c0-.3.1.1.2 0l.1-.2v.1-.1h.1v-.1.1-.1l.2.3c.2 0 .5-.2.7 0z"/><path id="e" d="M491.8 440.3v-.2l-.1-.2v-.4s-.2 0 0-.1c-.3-.1.1-.2 0-.3h-.2l.1-.1h-.1v-.1h-.1.1-.1l.3-.2c0-.2-.3-.4 0-.6.2 0-.2 0 0-.1v-.3c.1-.1 0-.3-.1-.5-.2-.1.3-.3 0-.5.1 0 0 0 0 0v-.1s.1-.7-1-.2v.4c.1 0-.1.1 0 .1v.4c.1 0 0 0 0 0 .2.1 0 .2.1.2.2 0-.1 0 0 .1 0 0 .4.1.3.2 0 0-.2 0 0 0h-.2s-.1 0 0 0h-.1c.1.1-.1.2 0 .2 0 0-.2 0 0 .1h-.2s.1 0 0 0v.1c-.1 0 .1.1 0 .2h.1s0 .2-.1.1c-.2 0 0 0 0 .1v.1s-.2 0 0 0v.2c0 .1-.2 0-.1.1.2 0 0 0 .1.1h.1-.2l.1.1v.2h-.2c.1 0 .2 0 .1.1 0 .1.1.2 0 .2h.1c.1.1-.2.2.2.2h-.1v.2h.1-.1v.1h.1-.1c0 .2.1.2.2.3h-.2c-.1 0 .1 0 0 .2a.2.2 0 0 1 .2 0h-.2v.1h.1v.1c0 .1 0 0 .1 0 0 .1.1.1 0 .2h.1c.1 0 0 0 0 .1.7.4 1 .1 1 .1.1-.2-.1-.2-.2-.4l.2-.5z"/><path id="f" d="M190 278.9v-5.3.7-1.2a7.9 7.9 0 0 0-.8 0h-.7c-.8 0-1.7.3-2.6.2h-.3c0-.1.3 0 .2-.2H184c-1 0-2-.2-2.6 0-1 0-.7-.3-1.8-.1l-.4-.1H172h.2v-.1c-.8-.2-1.5 0-2.4 0h.4-.8.2-1.2.1-1.4c-.3 0 .6.1 0 .1h-1.9v2.8c.1 1-.2.4 0 1.4v.2c.2 1-.1.5 0 1.6 0-.4.2-.2.2.3v-.1.5l-.1.4-.1-.3v4.2c0-.3 0 .5-.1.2v1.8-.1c0 1.5.2 2.5 0 3.8.1 0 0 .7.2.5.1 1.4-.2 2.5.1 3v1h-.1v2.4l.2 1a6.6 6.6 0 0 1 1-.1h-.1.4l.2.1h.4-.1 1.5l3.7-.2-.5.2h.8-.7c1 .2 2-.1 3.3 0h.2l.5-.1.6.1h2c-.4 0-.3-.1-.1-.1h.7v.1l.9-.1h-.5 1.8c.6 0-.2 0 .2-.1h1.7l-.2-.1h2.4l3.5-.4c0 .4.1.4.2 0a40.7 40.7 0 0 0 .5-3.6v-3.6c.2-.1 0-1.2 0-1.6 0-1 .2-2 0-2.8l.1.2V279zm-2.6 17.3c-3-.2-4.7 0-8.4.2l-7.4-.2h-4.8l-.1.1v-2.9.1-3.9h-.2v-3.5c-.1-1.7.2-2.7 0-4.5v-.1l-.1-1.7.1-.6v-1 .2-1.3l-.2.2.1-.8h-.1a9.2 9.2 0 0 1 .1-1.3l.1-.6v-.6h11.1c0 .2 1-.1 1.2 0h10.1v1.3l.1 1.6c.2 3-.3 6.5 0 9.7a.8.8 0 0 0 0 .3v2.9l.2 6.6-1.8-.2z"/><path id="g" d="M103.6 205.1a2.9 2.9 0 0 0 0 5.8 2.9 2.9 0 0 0 2.8-3 2.9 2.9 0 0 0-2.8-2.8zm0 4.8a1.9 1.9 0 0 1 0-3.8 1.9 1.9 0 1 1 0 3.8z"/><path id="h" d="M258 111.6v.1c0 .2 0-.2.1 0v-.1.1h.3c.1.1.3 0 .4-.1.2-.2.4.3.5 0 0 .1 0 0 0 0h.2s.7.1.2-1h-.2c0-.1 0 0-.1 0 0 .1-.1-.1-.2 0v-.1l-.3.1c0 .1 0 0 0 0l-.2.1c0 .1 0-.2-.1 0l-.2.3v-.2s0-.1 0 0v-.1c-.1.1-.2-.1-.2 0 0 0 0-.2-.1 0v-.2s0 .1 0 0h-.1c0-.1-.1.1-.2 0h-.1v-.1c0-.1 0 0-.1 0v.1c-.1 0-.1-.2-.2 0h-.1c-.1 0 0-.2-.1-.1 0 .2 0 0-.1.1v.1-.2l-.1.1h-.1s-.1 0 0-.2l-.2.1c0-.1-.1.1-.2 0v.1c0 .1-.1-.2-.2.2v-.1h-.2v.1-.1.1l-.2-.1-.2.2v-.1c0-.1 0 0 0 0 0-.2 0 0-.1 0v-.1h-.2v.2s0-.1 0 0v-.2.1h-.1v.1s-.1.1-.1 0v.1c0 .1-.1 0-.2 0-.4.7 0 1 0 1 .1.1.2-.1.4-.2l.4.2h.2c0-.2.1 0 .2-.2h.3s0-.1.1 0c.1-.2.2.1.3 0v-.2l.1.1h.1v-.2.1-.1l.2.3c.2 0 .4-.2.6 0z"/><path id="i" d="M275 111.8c.2.2.3 0 .5 0 .1 0 .2.1.4 0h.2c0-.1.1 0 .2 0h.2v-.2c.1.1.1 0 .2 0 .1-.1.2.2.3 0v.1-.2l.1.1h.1v-.2.1-.1l.2.3c.2 0 .4-.3.6 0 0 .2 0-.1 0 0h.4c.1.1.3 0 .4 0 .2-.3.4.2.5 0h.2s.7 0 .2-1c0-.1-.1-.1-.2 0 0-.2 0 0-.1 0 0 0-.1-.2-.2 0v-.1h-.3v.1h-.2c0 .2-.1-.1-.2 0v.3c-.1.1 0-.1-.1 0v-.2s0-.1 0 0v-.1c-.1.1-.2-.1-.2 0 0 0 0-.2-.1 0v-.2.1h-.1c0-.2-.1 0-.2-.1v.1s-.2 0-.1-.1c0-.2 0 0-.1 0h-.1s0-.2 0 0h-.2c-.1 0 0-.2-.1-.1v.1c0 .1 0-.2-.1 0v.2-.2h-.2l-.1-.1s0 .1-.1 0c0 0-.1.1-.2 0v.2s-.2-.3-.2.1v-.1h-.2v.1c-.1 0 0 0 0 0h-.2l-.2.1v-.1c0-.2 0 0-.1 0-.1-.1-.2 0-.2 0h-.1v.2h-.2c0 .1 0 .1 0 0-.5.7-.2 1-.2 1z"/><path id="j" d="M451 115.1v.3l.2.1v.4c0 .1.2.1 0 .2.3.1-.1.2 0 .2l.2.1h-.1v.1h.2l-.1.1h.1l-.3.2c0 .2.3.4 0 .6-.2 0 .2 0 0 0v.4c-.1.1 0 .3.1.4.2.2-.3.4 0 .5-.1 0 0 0 0 0v.2s-.1.7 1 .2v-.4c-.1 0 .1-.1 0-.2v-.3c-.1 0 0 0 0-.1-.2 0 0-.1-.1-.1v-.1c-.2 0 .1 0 0 0l-.3-.2s.2 0 0 0h.2s.1 0 0-.1h.1c-.1 0 .1-.1 0-.1 0-.1.2 0 0-.1h.2s-.1 0 0-.1c.1 0-.1-.1 0-.2l-.1-.1h.1c.2 0 0-.1 0-.1v-.1s.2 0 0-.1v-.2h.1l-.1-.1h-.1v-.1h.2-.1v-.2h.2l-.1-.1c.1-.1-.1-.2 0-.2h-.1c-.1-.1.2-.2-.2-.2h.1v-.2h-.1v-.1h.1-.1l.1-.1-.2-.2h.2c.1 0-.1 0 0-.2a.2.2 0 0 1-.2 0h.2v-.1h-.1v-.1l-.1-.1s-.1 0 0-.1h-.1c-.1 0 0 0 0-.1-.7-.4-1-.1-1-.1-.1.1.1.2.2.4-.1.2-.3.3-.2.4z"/></defs><g transform="translate(120 80)"><path xmlns="http://www.w3.org/2000/svg" d="M393.1 244.9v.1-.1zm-276-109.4v.1-.1z"/><path xmlns="http://www.w3.org/2000/svg" fill="#fff" d="M258.6 49.3c-3.5-4.6-12.1-.9-12.1-.9s-1.3-2.5-5.7-2.7c-1.8 0-3.9.3-6.1.4s-4.4-.2-7.1 1.1c-5.5 2.6-4.8 7.6-4.8 7.6s-1.6-.1-3.2 1.1c-1.6 1.3-3.4 3.3-2.3 6.7.7 2 2.6 9.8 2.6 9.8s.4-.6 1.2-1.2v.3c-1 1-1.5 2.5-1.5 4.1 0 3.2 2.4 5.7 5.3 5.7l1-.1-6.8 22.4-2.2 5.7s3.2 4.1 10.8 5.7a38 38 0 0 0 11 1c1.9-.2 4.2-.6 3-4-1.7-5.3-1.1-8.6-1.1-8.6l2-10.8c2.4.7 4.5 1 6.1.8 4.2-.4 6.2-3 6.6-6.3.2-1.7.4-4.4.3-6 0-1.3-.9-1.7-.9-1.7 0 .6-.3 1.6-.3 1.6a10 10 0 0 1-.4.2l.2-1a108.5 108.5 0 0 0 .5-18.8 39.6 39.6 0 0 0-.2-1.2c4.3-1.9 7.3-6.8 4.1-10.9zM228.3 80v.1z"/><path xmlns="http://www.w3.org/2000/svg" d="M249.3 46.8h.2-.2zm4.9 40.2v.1zm-32.6-15.9v-.3a8.7 8.7 0 0 0-1 .7l.2.5a6.2 6.2 0 0 1 .8-.9zm7.9 11.9a5 5 0 0 1-.2-1l-.1-.5-.5-2-.8.8.3 1.4a7 7 0 0 0 2.5 3.7 8 8 0 0 1-1.2-2.4z"/><path xmlns="http://www.w3.org/2000/svg" d="M225.2 72.6c-1.6 0-3 1.4-3 3s1.4 3 3 3 2.9-1.4 2.9-3-1.3-3-3-3zm0 5c-1 0-2-.9-2-2s1-2 2-2 1.9.9 1.9 2-.9 2-2 2zm35.6-25.3a7 7 0 0 0-3.4-5.2c-2-1-3.9-1-5-.8h.1c-1.2.2-1.6.1-3 .5h-.2l-2.4.8s-.2.1-.2 0l-.2-.1-.2-.2-.3-.3-.5-.4v-.1c-.8-.6-1.7-1-2.7-1.2a7.1 7.1 0 0 1 1 .4l-1.4-.4c-.7-.2-1.7-.3-2.7-.2-1.8 0-3.6 1-5.5.8-1 .2.8-.2-.6 0 0-.2.7-.2.3-.3-1.3.1-2.2-.2-3.9.2-1.2.2-2.2.6-3 1-.9.4-1.6 1-2.2 1.5l-1.4 1.4c-.2.3-.6.6-1 1.9a9 9 0 0 0-.3.9l-.1.9v.5l-.1.2-.2-.1h-.4a4 4 0 0 0-.5.1 6 6 0 0 0-1 .4 7.1 7.1 0 0 0-.9.6l-.7.7c-1 1-2 2.4-2.3 4.2 0 .5 0 1.1.2 1.7 0 .7.3 1.2.4 1.4 0 .1.9 3.1.2 1.4 0-.1-.1-.4 0-.4l-.2-.1c.3 1.8 1 3.1 1.3 4.9 0-.5-.2-1.2 0-.8l.3 1.7-.1-.4.8 3.6v-.8l.2 1.4v.5l-.1 1.5c0 3.4 2.6 6.2 5.8 6.2h.4l-6.7 21.6-2.3 6 .2.2c.1.2 3.4 4.2 11.1 5.9 3.4.7 6.5 1 9 1a22.6 22.6 0 0 0 2.2 0c1.2-.2 2.7-.4 3.4-1.5.5-.8.5-1.9 0-3.3-1.6-5-1.1-8.2-1.1-8.2l1.8-10 3.3.7a7 7 0 0 0 2.7-.2l2.4-.4a3 3 0 0 1-.4.1 7.6 7.6 0 0 0 2.7-1.5 7 7 0 0 0 1.6-2l.3-1.1.3-1.7c0 .5.1-.2.2-.8 0 .4 0 .5.1-.3v-.8.1c.1-1 0-3 .2-3.1v-2a2.8 2.8 0 0 0-.5-.9l-.8-.8h-.1a122 122 0 0 0 .3-17.5l-.1-.6.9-.5h-.1a12 12 0 0 0 2.6-2 7 7 0 0 0 1.7-2.7l-.1.6c.3-.7.5-1.7.6-2.4v-1l.2-.4zm-7.1 27.8-.2.7c-.5.2-1.2.5-1.9.6-.3 0 .3-.2 1-.4l-1.7.4 1.5-.4c-2 .3-4.3.8-6.7.2h-.6s-.6 0-1-.2c-.3-.2.1-.2-1-.6-1-.4-2.6-1-3.7-1.6.6.4.4.3.1.2l-1.1-.8V78c.1.3-1.3-.9-1.5-1-.2-.3.7.6 1 .6l-1.4-1.2-1.3-1.4c-.9-1 0 .3-.4-.1-.7-1-1.5-1.9-2-3.1l.1.4-.4-1.3c0-.4.3-.8.5-1.1l1.3-1.9a14 14 0 0 0 1.8-4.6 11.5 11.5 0 0 0 .1-3.1l.6-.1 2 .8c1.3.4 3.2 1 6 1.3 3.3.3 5.5 0 7.7-.7a5 5 0 0 0 1.6-.4l.1.4.3 5.3c0 4-.3 10-.8 13.3zm-28.8.7c-2.7 0-4.8-2.3-4.8-5.2a5.5 5.5 0 0 1 .7-2.6 8.7 8.7 0 0 1 .3-.4l.7-.7c.2-.3 0-.2-.3.1a5.4 5.4 0 0 1 .4-.4 7 7 0 0 1 2.3-1 8 8 0 0 1 2.7.3 5 5 0 0 1 2 1.8l.3.4-.1-.1.4.3.1.2v.4l-.2.4-.3 1.6c.1-.8.3-.3 0 .7v-.3c-.1.6 0 .8-.2 1.2 0-.3-.1-.2-.2.7v-.6a39.2 39.2 0 0 0 0 1.5l-.1-.2a4.6 4.6 0 0 1-3.7 1.9zm15.2 22.5c0 .1-.6 3.5 1.1 8.8.4 1 .4 1.9 0 2.4-.4.7-1.5.9-2.6 1a38 38 0 0 1-10.8-1 19.5 19.5 0 0 1-10.3-5.3l2-5.4 6.9-22.2a5.6 5.6 0 0 0 1.8-1l.3.2-.1-.3a12.2 12.2 0 0 0 0 1.2l.2 1.9.2.5a8.2 8.2 0 0 0 .5 1c.5.7 1 1.4 1.3 1.6-.5-.4.5.9.1.6l1.4 1.3 1.6 1.3a3.7 3.7 0 0 1-.1-.1c1.4 1 2.6 1.5 3.8 2l3.8 1.5h.7l-1.8 10zm3.3-38c-3.6-.4-5.2 2-5.3 2.1-.2.3-.2.8.2 1 .5.4.9.2 1.1 0 .1-.2 1.2-1.9 4-1.7.3 0 .7-.3.7-.7s-.3-.8-.7-.8zm7-.6a.7.7 0 0 0-.5 1c.1.3.5.5.9.4.1 0 1.2-.3 2.1.2l.4.1c.2 0 .5 0 .6-.3a.8.8 0 0 0-.2-1c-1.4-1-3.1-.4-3.3-.4z"/><circle xmlns="http://www.w3.org/2000/svg" cx="242.3" cy="71.9" r="1.4"/><circle xmlns="http://www.w3.org/2000/svg" cx="252.3" cy="71.1" r="1.4"/><path xmlns="http://www.w3.org/2000/svg" d="M248.3 72.3c-.4.1-.6.5-.4 1 .5 1.2 1.4 3.7 1.3 4.6s-.8 1-1.2 1.1c-.4.1-.7.5-.6 1 0 .5.6.6 1 .5.7 0 2.1-.9 2.2-2.4.1-1.6-1.2-5-1.4-5.4 0-.4-.5-.6-.9-.4zm-3.7 8.7.4.1-.4-.1z"/><path xmlns="http://www.w3.org/2000/svg" fill="#fff" d="M243.8 86c.4 0 .7-.4.6-.9 0-.3-.4-.6-.8-.6a4.4 4.4 0 0 1-4.7-2.7c-.2-.4-.6-.6-1-.4-.4.1-.5.5-.4 1a6.1 6.1 0 0 0 6.3 3.6z"/><use xmlns="http://www.w3.org/2000/svg" xlink:href="#k"/><path xmlns="http://www.w3.org/2000/svg" fill="#fff" d="m288.6 416.5-6.3-19.1 28-6.5 9.4 24.2z"/><path xmlns="http://www.w3.org/2000/svg" d="M283.5 402.3v-.3.3zm4.4-5.5z"/><path xmlns="http://www.w3.org/2000/svg" fill="#fff" d="m131 389.6 9.6-14.7 24.3 17.3-7.6 11.8s-10.2 1.3-15.5-2.4c-9.3-6.5-10.7-12-10.7-12zm146.4-2.3h.1zm27-6.5zm-22.6 6.6zm-5.4 1.2c1.4-.3 1.9-.2 3.3-.6l2.1-.6c.3-.2 1-.2 1.3-.4h.2l.4-.1.5-.2h.2a4.4 4.4 0 0 1 1-.3c.7-.1.9-.4 1.5-.4.7-.4 1.2-.1 2-.5-.1 0 0 0 0 0 .4 0 .8-.2.7-.4l.3.1.4-.2.5-.1-.1-.1c.3 0 0 .1.4 0 .4-.2.7 0 1.1 0 1.8-.4 3.6-1.2 5.3-1.4v.1c.1.1.5-.3.6-.2h.3l.3-.2h.2c.7 0 1.2-.3 2-.5.9 0 2.5-.6 3.4-.9 1.3-.5 3-.4 4.3-.9h.1l1.3-.4s6-1.4 1.2-1.3c-.7 0-1.1.2-1.6.4l-.7.1c-.4.2-.9.1-1.2.3-.2 0-.6.2-.7 0l-2 .7c-.3.1-.4 0-.7.2l-1 .3h-.6.2c0 .2-.4 0-.8.2-.4 0-.7.6-1.1.6-.2.1.1-.2-.1 0v-.2c-.3 0-.5 0-.8.2v-.1c-.4.2-.9 0-1.2.3-.4.2-.3-.2-.8 0h-.2c-.2 0 0 .2-.3.2h-.2c-.5 0-1 .3-1.7.3-.1.2-.5.2-.6.3h-.3s.1-.1.1 0v-.2c-.4 0-.6.3-1 .3h.2l-.4.1h-.5l.1.1-.6.1c-.1.1.3 0 0 .2l-1.3.1-.2.2v-.1c-.5.2-.2-.1-.7 0v.2c-.4.2-.3-.1-.7.2.2 0 .1.1-.1.1h-.4l.1-.1-.3.2c-.2 0-.6.2-.8 0l-.7.3c.1 0-.2 0-.1-.1l-.8.2c-.6 0-1 .4-1.7.4.1 0-.2.1-.1.2-.6.3-1.2 0-1.3.4h-.5l-1 .3c-.2 0-.2.2-.5.3 0-.1 0 0-.2 0 0 0 .1 0 0 0h-.2c-.2 0-.1 0 0 0l-.6.1-1.6.6.2-.2-.4.1.3-.1c-.5 0-.9.3-1.4.3l-.1.1-.2.2c-.1 0 0-.2-.3-.1l-.9.2c.2 0 .1 0 0 .1h-.3l-.3.2.2-.2-.8.2c-.3.1 0 0 0 .2l-.8.2-1 .3c-3.3 1.5-.5 1-.5 1 1.4 0 2-.4 3.6-1z"/><path xmlns="http://www.w3.org/2000/svg" d="M332 429.9zm24.3-7.4-.1-.5-.2-1a12 12 0 0 0-.7-2.2c.2.4 0-.2 0-.2-.4-1.5-1.1-3-1.4-3-.5-1-.3-.8-.3-1l-.4-.5c-.2-.3-.5-.7-1-1 .2 0 .4.2.5.3a8 8 0 0 0-2.3-1.6l.4.4c-1.2-.7-.2-.4-1.4-.9v.2l-4.2-2.2c-7-2.5-14.6-4-21.1-6l-.3-.2c0-.3-1.9-.2-2-.4l-.9-.1c-.2-.1-.6-.3-.2-.2l-1.3-.2-.7-.3-1-.3-.6-.1h-.7a2 2 0 0 0-1.3.2c0-.1-.7-1.7-.2-.8v.2h.2l-1-2.5c0 .3.1.6 0 .4l-.3-.8.1.1-.4-1.2v.2c-.2-.7-.2-1-.6-1.6-.1-.3.2.6 0 0l-1.1-3.1-.3-.5a8 8 0 0 1-.1-.4l9.2-2.3a2 2 0 0 0 1.6-1.9c0-.6-.2-1-.3-1v.7l-.3 1a1.6 1.6 0 0 1-.7.4c.6-.3 1-1 .7-1.8l-2.4-8.4c7.2 21.2 1-1.4 1-1.4-3.8-13.7-6.3-20.7-11.2-37l-9.5-33-6.9-21.4c-1.2-3.2-2.8-9-4.2-12.8l-.4-1.6-1.4-4.2-1.7-5.1h.1l-.8-2.4.2.4-3.3-10.1v.3c-2-6.8-3.1-9.2-4.9-15.3h.1c-2.8-7.5-3.6-12.2-6.5-20l.1.2v-.4l-.1-.3-1-3.2v-.2l1.3-3.7.5-1.4.1-.4.1-.2h-3.7a521.6 521.6 0 0 0-14.4.1h-16.4s-52.2 0-37.2 1h-2.6l-2.5 11.3c5.4-28.2-1.3-.2-1.3-.2-4 16.5-5.6 25.2-10.1 45l-5.1 19.5-2.6 8.6c-1.1 3-2.7 6.4-4.6 10.6-3.9 7.9-8.1 16.3-12.1 23.9-1.7 3.7-5.3 10-7.4 14.3l-1 1.6c-.7 1.5-1.6 3.3-2.5 4.7-1 2.2-2.5 4.6-3 5.7l-1.4 2.6.2-.5a370.4 370.4 0 0 1-6 11.2l.2-.2-1.4 2.6-.6 1.1-.4.7-.2.8a4 4 0 0 0 .7 2.9 3.9 3.9 0 0 0 1 1l.9.6 2.2 1.5-.4.6c-.2.5-.5 1-.9 1.4v.3h-.1s0 .3-.2.4l-.4.4-1 1.7c.2-.3.1-.1 0 0 0 .2-.2.3-.3.5h-.1l-.4.8.2-.5-1 1.5c-.2.6.2 0 .1.3-.3.4-.5 1-1 1.4h.3l-1.4 2a48.6 48.6 0 0 0-1.1 2.3 2 2 0 0 0-.7-.3 2.3 2.3 0 0 0-1-.1c-.4 0-.8.3-1 .4l-2.2 1.6a2.2 2.2 0 0 0-.5.4 36.3 36.3 0 0 0-4 3.7l-2.5 2.8-2 2.8-1 1.4-.4.7-.2.3a1.7 1.7 0 0 0-.3.5c-.2.6-.2 1.2 0 1.7a2.7 2.7 0 0 0 .5 1.2c.4.5.7.6.7.4l-.3-.8c0 .2.2.4.4.6l2.8 2.6c-7.5-5.8-.8 1-.8 1 4 4.2 6.4 6 11.5 10.6 4.3 4.1 5.3 5.4 10 9.6l3.2 3.1 1.7 1.6 1.1 1 .2.1h12.5-.2 4.3l-.1-.2c2.9.2 3.9 0 6.5.1 3.2-.3 5 .3 8.4 0h2.3c1 0 1.6-.2 1.5-.3h.4v-.5l.2-.4c0-.2 0-.1.2-.2l-.1-1a18.8 18.8 0 0 1 0-1.2v.4-2.6l-.2.5c0-1.3.3-.3.2-1.6h-.2l-.4-2.6-.6-1.2-.8-1a29.3 29.3 0 0 0-7.8-5 45.6 45.6 0 0 0-6.3-2.2l-1.1-.3h-.6l-.8-1.8-1-2v-.4c.2-.2-1-1.6-1-2l-.4-.6c-.1-.2-.3-.7 0-.3l-.7-1.1-.2-.8-1-2-.2-.4a3.3 3.3 0 0 0-1.5-1.5l.3-.2c.2-.4 0-.4.4-.8 0 0 .4-.5.3-.2.7-.9 1-2 2-3.2.1-.4.6-1 .7-1.2 0 0 .8-1.3.4-.5 0 0 0 .2-.1.1v.2c.6-.7.8-1.4 1.3-2.1l-.3.3.5-.7v.2l.6-1-.2.1.7-.9.5.3c-1-.6.4.4.3.4 3.7 2.6 7.7 5.4 8 5.2 2.7 1.9 2 1.6 2.5 2 0-.1.8.5 2.2.4a3.4 3.4 0 0 0 2-.9c.3-.2.5-.6.7-1l.5-.7-.6 1 4-6.3-1 1c2.1-3.2.8-.6 2.7-3.9h-.2l7.8-11.6 17.4-28.7 16.5-28 .5-.8c.2-.1.8-1.4 1.4-2.8.6-1.3 1.1-2.8 1.4-3l.8-2.3c.3-.6.9-2 .5-.8.8-2 .8-2.1 1.2-3.7l1-2.2.6-2 .3.7c3.2 6.6 6.2 12 9.6 18.9l3.4 7.3 2 4.3 1.8 4.7 6.5 17.3a517 517 0 0 1 7.4 20.9l3.6 10.8 1.9 5.2.5 1.3.2.7.4.8a3.8 3.8 0 0 0 3 1.9l1.2-.1.5-.2h.2l4.1-1a17.7 17.7 0 0 0 .2.4l.3.9.6 1.8.2.3.2.5v.7l.8 2c0-.3 0-.2 0 0 .2.2.2.4.3.7h-.1l.4 1-.3-.6.7 1.9c.3.7 0-.1.2.2l.7 1.8v-.2a14.7 14.7 0 0 1 .8 2.6c-.2 0-.4 0-.6.2a2 2 0 0 0-1.2 1.3l-.2.8v.6a14.1 14.1 0 0 0-.1 2.9 39 39 0 0 0 1.6 12.2l.5 1.7.2.7.3.8c.6 1.2 1.7 1.6 2.4 1.6s1-.2.7-.3c0 0-.4 0-.9-.3h.9l3.7-.5c-9 2.3.3 1.2.3 1.2 5.6-.5 8.5-1.3 15-2.4 6-.8 7.5-.8 13.5-1.8l8.8-1.4c1.3-.4 3.7-.5 5.3-1h.6l1.7-.2 2.1-.4 1-.1h-.2l4.2-.6-.1-.1c2.8-.3 3.7-.7 6.2-1v.1l.6-.1h.2l.4-.2c.5-.1 1-.4 1.3-.7.7-.7 1-1.6 1-2.5l-.1-.6zm-194.9-25.9-2.6 4-.5-.7c-.2-.2-.4-.4-.7-.4 0-.2-.3-.2-.3-.3-.3 0-.4-.4-.6-.5l-.3-.2c-.3-.2-.8-.6-1-.6-.3 0-.2-.1-.4-.2-.2 0-.4-.2-.5-.3l-.3-.2h.1c-.1.2-.1-.2-.4-.2l-.7-.1c-.2 0 .1-.1 0-.1v-.1c0-.1 0-.3-.3-.3v-.1c-.3 0-.3-.4-.5-.4-.3 0 0-.2-.4-.3v-.1c-.1-.1-.2 0-.2 0 0-.1-.1-.2 0-.2-.2-.3-.6-.2-.8-.6-.2 0-.3-.1-.4 0 0-.1-.3-.3 0-.3 0-.2-.4-.1-.5-.3v.1l-.2-.1h.1l-.2-.2c-.1 0-.1-.2-.3-.2-.1 0 0 .2-.1.1l-.5-.5h-.2v-.1c-.2 0 0-.2-.2-.3h-.1l-.4-.1c.1 0 0 .2-.1 0l-.1-.2h-.2l-.3-.3s-.2-.3-.4-.2c.1 0 0-.2 0-.2s-.3 0-.3-.2l-.8-.5s-.2-.1-.2 0c-.4 0-.4-.5-.7-.3-.2 0-.1-.2-.2-.2l-.5-.4h-.3v-.2h-.2l-.3-.2-.9-.4c0-.1.1-.1.2 0l-.2-.2h.2c-.1-.2-.5-.1-.7-.4h-.3s.1-.1 0-.2l-.5-.2h-.1v-.1h-.2c0-.1 0 0 .1 0-.2-.2 0-.2-.4-.3h-.1l-.4-.1c-.3 0-.4-.1-.5-.3-2-.6-.9.5-.9.5.6.6 1 .7 1.9 1.1.7.5.7.8 1.5 1.2l1 .7c.3 0 .5.3.8.3v.1l.2.1c.2 0 .2.2.3.2h.1a1.5 1.5 0 0 1 .5.4v-.1l.8.5c.4 0 .4.6 1 .6-.1 0 0 0 0 .1.1.1.3.2.4 0v.3h.3l.3.2v-.2l.1.3v-.1c.3.1.3.4.4.6.9.6 2 1 2.6 1.7 0 .2.4 0 .3.2h.2l.1.1.1.2c.3.2.7.3 1 .6.3.4 1.2.8 1.7 1 .8.3 1.3 1.2 2 1.5h.2l.6.5s.9.6 1.4.7l-.2.1c-.1 0-.4 1-.6 1l-.1.4c-.1.1-.3.3-.2.1l-.2.4c-.5-.1-1.1-.1-1.6 0l-2 .2c-1.8 0-4.4-.2-6.9-.9a21.6 21.6 0 0 1-11-7 16.3 16.3 0 0 1-3-5.4l-.5-.8.7-1c1.8-2.4 2.4-3.9 4.4-7l2-2.9.9-1.3.4-.6a162.2 162.2 0 0 1 4.2 3.1c7.5 4.9 11.7 8.5 19 13.4l-2.3 3.8zm121 2zm-.2 0 .2.3-.2-.2zm4.2 8.8c.5 0 .9-.3 1.6-.5.7-.2 1 0 1.7-.3l1.2-.3c.1-.2.4-.1.6-.3h.7a1.2 1.2 0 0 1 .6-.2c.3 0 .4-.3.7-.2.4-.3.7 0 1-.3h.1c.2 0 .4 0 .4-.3l.1.1.2-.1h.3l-.1-.2c.2 0 0 .2.2.1v-.1l.7.1c.9-.1 1.8-.6 2.7-.6.1.2.3-.2.4 0v-.2s.2 0 .1.1l.2-.1 1.1-.2c.5 0 1.4-.3 1.8-.5.7-.4 1.6 0 2.3-.5h.1l.7-.2s3.2-.7.5-1.1c-.4 0-.6 0-.8.2 0-.2-.3 0-.4 0-.2.2-.5 0-.7.2v-.1h-.3c-.4.1-1 .2-1.1.4l-.3.1c-.2.2-.5.1-.6.2h-.3.1c0 .2-.2 0-.4.1-.2 0-.3.5-.6.5v-.2h-.5l-.6.1c-.2.1-.2-.2-.4 0h-.4c-.3 0-.5.2-1 .1 0 .2-.2.1-.2.2 0 0-.4.1-.2 0v-.1c-.2-.1-.3.1-.5.1 0 0 .1 0 0 0l-.1.1h-.6c0 .1.2.1 0 .2h-.7v.1c-.3.1-.2-.2-.4 0v-.1.2c-.2.2-.2-.2-.4.1.1 0 .1.1 0 .1h-.2v-.1l-.1.1h-.5s-.3 0-.3.2c0 0-.2 0-.1-.2l-.4.2-1 .2c.1 0 0 0 0 .2-.3.1-.6-.1-.7.2h-.2l-.6.1s0 .2-.2.2h-.2c-.1 0-.1 0 0 0-.2 0-.3.1-.4 0l-.8.4.1-.1h-.2.2c-.3-.1-.5.2-.8.1v.1l-.1.1-.2-.1-.5.2c.1 0 .1 0 0 0h-.1l-.2.1.1-.1h-.4v.3c-.1 0-.2.1-.4 0v.1c-.2.2-.3.2-.5.1l-.2.2-.5-1.5-1.2-4-.6-1.7-.3-1 7.3-1.8 19.6-4.6.7 2.4 3.1 7.8-.3.2-.4.6-.3.5-.5.8-1.3 1.7c-1.2 1.3-3 3-5 4.4s-4.6 2.3-6.5 2.7a21.7 21.7 0 0 1-10.5 0 14 14 0 0 1-1-.3h-.1c-.6-2-1.2-3.4-2-5.4z"/><path xmlns="http://www.w3.org/2000/svg" d="m138 378.1.1-.2-.2.2zm5.2 13zm5.3 44.6h-.2.2zm144.1-150.1.1.3-.1-.3zM158.2 325l.1-.4-.1.4zm132.7 81.2z"/><g xmlns="http://www.w3.org/2000/svg" fill="#fff"><path d="M144.9 425.2v.1zm36.8 6.6v-1.1l-.2-1.3c0-.1-.2 0-.2.6a1.1 1.1 0 0 0 0 .2v-.8l-3-.1c7.8-.4-.5-.8-.5-.8-5.2-.3-7.9 0-14-.2l-6.1-.2-2.8-.1h-2.6a12.7 12.7 0 0 0-1 0c-1.3 0-2.7.3-3.6-.2l-.6-.5-.8-.7-1.4-1.4c-1-.7-2.5-2.4-3.6-3.3l-.3-.4a11 11 0 0 1-1.2-1.1l-1.4-1.4-.6-.6v.1l-2.7-2.7v.2c-1.8-1.9-2.6-2.4-4.1-4-2.3-2-3.2-3.4-5.5-5.3.3.2 0-.1 0-.1-1-1-2.1-2-2.2-1.9-.8-.7-.6-.6-.6-.8-.1.1-.7-.5-1.3-1l.3.2-1.7-1.5.3.4-.5-.6-.7-.8v.2l-.2-.2-.6.5-.4.4-.8.6-.6.5-.3.2v.2l.2.1.9 1.2c4.4 5 9.7 9.8 13.9 14.3l.1.3c0 .1 1.4 1 1.5 1.3l.5.4c.1.2.4.5.1.3l1 .7.4.6c1.8 1.9 3.5 3.3 5.5 5.2l4.8 4.4 1.3 1.2c.2.1.6.7 1.2.6h3.9c5-.3 11 .3 16.1 0h14.2l-.1-1.8zm-28-19.8zm-2.1.6c.4 0 .5-.2.8-.4.4 0 .5.2.8 0a2.3 2.3 0 0 0 .5-.2c0-.1.2 0 .3-.2v.1h.2v-.1h.4v-.2c.2.1.2 0 .4 0 .1-.3.3 0 .4-.2.1 0 .2 0 .2-.2v.1l.2-.1v-.2s0 .2.1.1l.3.1c.5 0 .8-.4 1.3-.3 0 .2 0-.2.1 0v-.1h.2l.5-.1.8-.3c.2-.3.7.1 1-.2h.3s1.5-.4.1-1.1l-.3.1c-.1-.2-.2 0-.2 0h-.5c-.2 0-.4 0-.5.2l-.1.1-.2.1h-.2c0 .2 0-.1-.1 0-.1 0-.1.5-.2.4 0 .1 0-.1 0 0l-.1-.2h-.5c0 .1-.1-.2-.2 0h-.1s-.1 0 0 0c-.2-.2-.3.1-.5 0v.2l-.2-.1v-.1c-.1-.1-.1 0-.2.1h-.4v.2h-.3l-.2-.1v.2c-.1.1-.1-.2-.2 0v.2l-.1-.1v-.1.1c-.1 0-.2.1-.2 0l-.2.1v-.2l-.2.1c-.2 0-.3.2-.4.1v.2c-.2.1-.3-.2-.3.2h-.1v-.1a.5.5 0 0 1-.3 0v.3c0-.1-.1 0-.1 0v-.1c-.1 0-.1 0 0 0-.1 0-.2.1-.2 0-.2 0-.3.2-.4.3v-.1c-.1-.2-.2.1-.3 0v.2l-.1-.2-.2.2h-.1c-.1 0 0 0 0 0h-.2v.2h-.2v.1c0 .1-.1.1-.2 0-.6 1 0 1 0 1zm5.8 5.3z"/><path d="M161 415c0 .2-.2 0-.2.1v.4c0 .1-.1-.1-.1 0v-.2h-.2l-.3.1c0 .1-.1-.2-.1 0h-.2c-.2-.1-.2.1-.4 0v.2l-.1-.1c-.1-.2 0 0-.2 0v.1h-.2c0 .1.1.1 0 .2h-.2c-.1 0-.2-.2-.2 0v-.1.4-.1h-.2v-.1.1s0 .1-.1 0c0 0-.2 0-.1.1l-.1-.1s0 .2-.2 0c-.1 0-.1.3-.3.2v.2c0 .1-.2-.1-.1.2h-.4v.2c-.1 0-.1 0 0 0h-.2l-.3.3v-.1h-.3v.1a.2.2 0 0 1 0 .1s0-.1 0 0c-.1-.1-.2 0-.2 0v.1h-.2v.2s0 .1-.1 0v.2h-.2c-.3 1 .3 1 .3 1 .3 0 .3-.3.6-.5l.7-.1.4-.2.2-.2h.2l.2-.2c.1 0 .1-.2.3-.1 0-.3.3 0 .3-.2.1 0 .2 0 .1-.2h.1l.1-.1v-.1s0 .1 0 0l.4.1c.3 0 .5-.5 1-.4 0 .2 0-.1 0 0v-.1h.1l.4-.2c.3 0 .5-.2.7-.3.1-.3.6 0 .8-.3l.2-.1s1.2-.5 0-1v-.1c-.3 0-.3 0-.4.2 0-.2 0 0-.1 0h-.4c-.1 0-.3.1-.3.3 0 .1-.1 0-.2 0l-.1.2h-.2zm-31.5-19.7zm-1-2.2c.3.6.2.8.6 1.4l.4.8c.2.1.2.4.3.5v.3l.2.2a.8.8 0 0 1 .1.5h.1c0 .3.2.4.1.7.3.3 0 .5.2.9 0 .1 0 .3.2.3v.6l.2-.1c0 .1-.2 0-.1.2h.1c0 .2-.2.3-.3.5 0 .8.2 1.7 0 2.4h-.2c-.1 0 .2.2 0 .2l.1.1s0 .1 0 0v.2h-.1l-.1 1c-.2.4-.2 1.2-.3 1.6 0 .7-.6 1.2-.6 1.9l-.2.6-.3 1.1c0 .4.1.8 1 0 .3-.3.3-.5.3-.8.2 0 0-.3.2-.3l.2-.6.1-.2c.1-.4.3-.8.2-1v-.8h.1v-.3.1c-.1 0 .2-.2.1-.4 0-.2-.3-.4-.2-.6 0-.1.2.1.1 0h.1c0-.1.2-.2.1-.4h.1c0-.2.2-.3 0-.5 0-.2.3-.1.2-.3v-.1c.1-.1 0-.1 0-.2.1 0 .1-.2.2 0v-1.3h.1c.2-.2 0-.3 0-.5 0 0 0 .1 0 0v-.5s0 .1-.1 0l.1-.6v-.1c0-.3.2-.1 0-.4-.2-.2.1-.1-.1-.3h-.1v-.2h.2l-.2-.2c.1-.1 0-.3 0-.4v-.3l.1-.1c-.1 0-.2-.3-.1-.4 0-.3-.3-.5-.2-.8-.1 0-.1-.1-.2 0-.2-.3 0-.7-.3-.6v-.3l-.2-.4c0-.1-.2 0-.2-.2v-.2c0-.1 0-.1 0 0 0-.1-.2-.3 0-.3l-.6-.7h.2l-.1-.1.1.1c0-.2-.3-.3-.3-.6h-.2v-.3l-.2-.3-.1-.1-.2-.2h.2l-.2-.2h-.2s-.2-.1-.2-.3v.1c-.2-.1-.3-.2-.3-.4-.8-.4-1-.3-1-.1-.1.1 0 .4 0 .4.2.7.6.8 1 1.4zm3.5 6zm223 23.1-.2-1.2v-.1l-4.2.7-2 .3a.6.6 0 0 1-.3 0c-2.2.6-4.9.5-7 1l-5.8.9-3.3.5h-.9l-.3.1c-.1 0-.8.3-.9.2-2.8.1-5.9.9-8.8 1.2h-1.9v.1h-.6.2l-1 .2h.2c-.4 0-.8.1-.7.2h-.5l-1.2.3s-.2 0 0 0c-1.3.4-2.1 0-3.4.5-1 0-1.3.2-2.5.3l-1.6.4h-.3l-.9.1-.7.1h-.2c-.6.2-1.6.2-2.1.4l-3.6.5-5.4.7c-2.6.4-3.8.8-6 1h-.9l.3 1.9.2 1a2.2 2.2 0 0 0 .4.8 2.5 2.5 0 0 0 .8.6h1l3.7-.5 3.1-.7a26 26 0 0 0 4.4-.6h-.4c1.2-.1 2.2-.4 3.2-.6.5-.2-.8 0 .3-.3l3.3-.5c-.2.1-1.3.3-1 .4.2-.1 1.8-.4 1.6-.5l.1.2c.4-.1.7 0 1.3-.2.3 0 .4-.1-.2 0l3.6-.7c1-.1.8 0 1 .1.4 0 .9-.2.9-.3h-.5.6l.4-.1c2.3-.1 4.2-.8 6.1-.9l-1.4.3 1.6-.3c-.6.2-1.1.3-.9.4l6.8-1.3c.1.2 1.7-.2 2.7-.2h-.2c-.4 0-.6 0 .3-.2h1.3c1.5-.1 1.5-.4 2.3-.6l4.4-.6h-.3 2c.8-.7 3-.5 5.4-1-.3-.2 1-.3.8-.4 2.5-.2 4.3-.8 7-1h-.1.5a.7.7 0 0 0 .4-.2c.2-.2.2-.5.2-.7 0 .1 0 0 .1 0 0-.1 0-.4.2-.2l-.4-1.5zm-35-16.3zm-2.2 7.8c.1-.2.2-.3.1-.4.2 0 .1-.2.2-.2-.1-.1.2-.1.1-.3 0 0 0-.1.2 0 0-.3.2-.5 0-.7 0 0 .1 0 0-.1h.1v-.3h.1v-.1c-.1 0 .2 0 .1-.2.1 0-.2-.3-.1-.4 0 0 .1.1 0 0h.4c0-.2.3-.2.2-.4 0-.1.2 0 .1-.1h.1v-.1h.1c.2-.1 0-.3.2-.4v-.2s0-.2.1 0c.2 0 0-.2.1-.3l.1-.1s.2 0 0-.2a2.1 2.1 0 0 0 .3-.3h-.1c0-.2.2 0 .2-.2h-.1c-.1-.2.2 0 0-.2 0 0-.1 0 0-.1h.2l-.1-.1.1-.2s.1-.1 0-.2h.2v-.1c.2-.2 0-.4.2-.5-.1-.3.3-.2 0-.4h.1a.6.6 0 0 1 .1-.3c0-.1-.1-.2 0-.2v-.1s0-.2.1-.1v-.5h.1c.1 0 0 0 0 0 .3 0 0-.2.2-.3v-.1h.1v-.3h.1v-.1l.1-.1-.1-.1v-.5c-.2-1.1-.7-.5-.7-.5-.3.2-.2.5-.3 1-.2.2-.4.3-.5.7l-.2.5c0 .1-.1.2 0 .4h-.1c0 .1-.1.2 0 .2h-.1l-.1.3-.1.4c0 .3-.3.2-.2.5v.3h-.1v.2h.1l-.2.1h.1c0 .2-.2.2-.3.2-.3.4-.2 1-.6 1.3-.2 0 0 .2 0 .2h-.1v.1h-.1c-.1.2 0 .4-.2.6-.2.1-.3.6-.3.8 0 .4-.6.6-.5 1l-.1.4s-.7 1.4.8.7zm2.5-5zm6.4-1zm-1.6 7.4c.2 0 .2-.2.1-.3.2 0 .1-.2.2-.2-.1-.1.2-.1 0-.3h.1s0-.1.1 0c0-.3.2-.5.1-.6v-.5h.1c-.1-.1.2-.1.1-.2 0-.1-.3-.4-.1-.4-.1 0 0 0 0 0h.2v-.1h.1c0-.2.2-.2 0-.3 0-.1.3 0 .2-.2h.1s0-.1.1 0c.2-.2 0-.4.2-.5-.1 0 0-.1 0-.2 0 0 0-.1 0 0 .3 0 0-.1.1-.2l.1-.1c0-.1.2 0 0-.2l.2-.3c0-.2.2 0 .1-.2-.2-.2 0 0 0-.2h-.2v-.1h.2c0-.1 0-.3.1-.2 0 0 .1-.2 0-.2h.2v-.2c.2-.1 0-.3.2-.4l-.2-.1c0-.2.3-.2 0-.4h.2a.8.8 0 0 1 0-.3s-.1-.1 0-.2c0-.1 0-.1 0 0l.1-.2v-.5l.1.1c.1 0 0 0 0 0 .2 0 0-.2.2-.3l-.1-.1h.1v-.3h.1v-.2.1-.4h-.1l.1-.3c-.3-1-.8-.5-.8-.5-.3.3-.1.5-.2 1-.2.2-.4.3-.5.7l-.1.5v.3h-.1v.3a.3.3 0 0 1-.1.3l-.1.3c.1.3-.3.3-.2.5l.1.3h-.1v.3h.1-.1c0 .2-.2.2-.3.2-.2.4-.1 1-.4 1.3h-.1c-.2 0 .1.2 0 .1v.1l-.1.1c-.2.2 0 .4-.2.5-.2.2-.2.6-.2.9 0 .4-.6.6-.5 1l-.1.3s-.6 1.5.9.8zm2.2-4.8zm-36.8 9.3zm0 0h.5v.1h.5l.5.2v-.1c.2.1.4 0 .6.2.4 0 .5.3.9.3-.1 0 0 0 0 0h.3c.1 0 0 0 0 .1h.5v.1h.1c.2 0 .2.3.3.4.6.4 1.5.7 1.9 1.3v.1c-.1.1.2 0 .2.1 0 0 .1.1 0 .1h.2v.2l.7.5c.1.4.7.8 1 1.1.6.4.5 1.2 1 1.6l.3.5.6 1c.2.2.6.4.6-.8 0-.4-.1-.5-.3-.7l-.1-.3c-.2-.1-.1-.4-.3-.5 0 0-.2-.2 0-.3-.3-.3-.5-.7-.8-.7l-.2-.2-.3-.4-.1-.2c-.1.2 0-.2-.2-.2-.1-.2-.5 0-.6-.2-.1 0 .1 0 0-.1l.1-.1s0-.2-.2-.3c-.2-.1-.1-.4-.3-.4-.2-.1 0-.3-.2-.3v-.2c-.1 0-.2.1-.2 0 0 0-.1-.1 0-.1-.1-.3-.5-.2-.6-.6h-.3s-.2-.2 0-.2c0-.2-.3-.2-.4-.3 0 0 .1.1 0 .1h-.1v-.1l-.1-.2v.1c-.1 0-.1-.2-.3-.2 0 0 0 .1 0 0-.2 0-.4-.2-.5-.3h-.2c-.2 0 0-.3-.2-.3v.1c-.3 0 0-.2-.4 0 .1 0 0 0 0 0h-.1v-.2h-.2c0-.1-.3 0-.3-.2h-.3v-.2l-.4-.1c-.2-.2-.5 0-.7-.2l-.1.1c-.3 0-.5-.4-.6 0-.2 0-.2-.2-.2-.2h-.8c.1 0 0 0 0 0v-.1h-1.1v-.1h-.1c0-.1.1 0 .2 0-.2-.3-.5 0-.7-.2l-.2.1v-.1h-.5c.1 0 0 0 0 0h-.3.1l-.3-.1c-.1 0 0 0 0 .2h-.9c-.8.3-.8.5-.7.7l.4.2c.6.2.9 0 1.6 0l1.4.4.9.1zm4.3-.2zm-143-53.2.1.1zm3.3 3.8zm29.3 18.8c-.6-.5-1-.8-1.6-1 0-.2-.5-.4-.6-.6-.5-.1-.7-.6-1.2-.8h.1c-.3-.2-.7-.4-.6-.5-.7-.4-1.6-1.1-2.2-1.3-.2 0-.2-.2-.5-.3l-1-.7-.6-.4.2.1c-.2.1-.3-.3-.8-.5-.4-.3-1-.2-1.3-.6-.2 0 .3 0 0 0 0-.2.1 0 0-.2l-.7-.5c-.4-.3-.7-.7-1-.8-.5-.3-.2-.4-.7-.6l-.2-.2-.4-.2s-.2-.2 0-.2l-1.7-1.1-.6-.3s-.6-.5-.2-.3h.2c-.3-.4-.7-.4-1-.7 0 .1.2.2 0 .2l-.3-.2h.1l-.5-.4c-.2-.1-.2-.3-.5-.4-.2 0 .1.3-.1.1l-1.2-1c0 .1-.1 0-.2 0v-.1c-.5-.2 0-.3-.6-.5h.1-.2c-.5-.1-.1-.3-.7-.4.2.1 0 .2-.2 0h.1l-.2-.1-.1-.2h.1l-.4-.1-.7-.6-.7-.4c.2 0-.1-.2 0-.3-.2 0-.7-.2-.8-.4-.5-.5-1-.7-1.6-1.1 0 0-.3-.2-.3 0-.6-.4-.9-1-1.3-.8l-.4-.4-1-.7-.6-.2c.2 0 0 0 0-.2h-.1l-.1-.1c-.2-.2-.2-.1-.1 0l-.6-.5-1.6-1 .2.1-.3-.2s.2 0 .3.2c-.3-.4-1-.5-1.4-1h-.1l-.3-.1c0-.1.1-.1-.1-.3l-.9-.5c.1.1 0 .1 0 .1l-.3-.2v-.1l-.4-.2h.3l-.7-.4c-.3-.2 0 0-.2 0-.3 0-.5-.2-.8-.4v.1l-1-.7c-3.6-1.8-1.2.3-1.2.3 1.2 1 2 1.3 3.6 2.3 1.4 1 1.7 1.4 3.1 2.3l2.1 1.4c.4.1.9.6 1.3.8l.1.1a1.2 1.2 0 0 1 .4.3l.5.3.2.2c.4.1.7.4 1 .6v-.1l1.5 1c.8.4 1 1 2 1.4-.2 0 0 0 0 0 .3.3.7.5.8.4l.1.2.5.2.5.4v-.2c.3.2 0 .2.3.4v-.1l1 1 5 3.4v.2l.6.2.2.1s.1.2 0 .1l.4.2.1.2 2 1.3c.7.7 2.4 1.7 3.4 2.2 1.4.8 2.6 2.2 4 3h.2l1.2.9s5.8 4 2 .1zm24.4-158.4.2-.4-.2.4zM173.6 333v-.1zm30.3-87zm30-34.5h-.1zm-2.5 2.8zm3-8-.4.7c-.4 1-.4 1.7-.7 3l-1.2 2.6-.7 1.7c0 .3-.4.7-.4 1l-.2.1-.1.3-.2.4-.1.2-.5.7h.1c-.4.5-.4.7-.8 1-.2.7-.7.8-1 1.4-.3.2-.5.5-.4.6-.1.1-.1.1-.2 0 0 .1 0 .3-.2.4l-.3.3h.2c-.3.2-.2 0-.4.1l.1.1c-.3.3-.6.3-.9.4l-.9.7-1 .6-2 1v-.1c-.1-.1-.3.3-.4.2l-.2.1s-.1 0 0 0l-.3.1h-.2l-1.6.7c-.7 0-2 .6-2.8 1-1 .4-2.5.2-3.6.6l-.1.1-1.1.1-2 .3h-.2l.3-1.4c-.1.5-.1.3 0 0l.3-1.1.3-1.6c.2-.3-.1.8 0 1l.6-3.2c.2-1-.1.2 0-.3l.6-3-.1.3 1-4.2c2.6-13.8-.2-3.1-.2-3.1-1.5 5.3-2 8.2-3.4 14.6l-2.9 11.2 1.1.2c.1-.2.1-.1 0 0h.1l.2-.7-.1.8 1.2-5.2v-.5l.2-.9.4-1 .3-1.3 1.2.3c.5 0 1 0 1.3-.2.1.2.5 0 .7 0 .3-.2.7 0 1-.2h.6l1.8-.5c.2-.2.2-.1.5-.2.2-.2.7-.2.9-.3h.5-.2c0-.2.4 0 .7-.3.3 0 .5-.5.8-.6.2-.1 0 .2.2 0 0 .2-.1.2 0 .2.2-.1.4 0 .6-.2.4-.2.8 0 1-.3.3-.2.3.1.6-.2h.2c.2 0 .1-.1.3-.2 0 .1.3 0 .2 0 .4 0 .8-.4 1.4-.5 0-.2.4-.2.4-.4 0 0 .5-.3.3 0v.2c.3-.1.4-.4.7-.6 0 0-.2.1-.1 0l.3-.1.4-.1h-.1c.2-.1.3 0 .5-.3 0-.1-.3 0 0-.1a10.3 10.3 0 0 0 1-.6c-.1 0 0-.1 0-.2.3-.3.3 0 .6-.3v-.1c.1-.4.2 0 .4-.5-.1.1-.2 0 0-.2v.1l.1-.1h.2v-.3c.3 0 .5-.4.6-.4 0 0 .4-.4.4-.6 0 .2.2 0 .2 0l.3-.5.9-1.2v-.3c.2-.5.7-.7.5-1 0-.2.2-.2.3-.3l.4-.8.1-.5c0 .1 0 0 .1 0l.1-.1v-.1c0-.2 0-.2 0 0 .1-.2.2-.6.3-.5l.4-1.4v.2l.2-.3-.1.3c.3-.4.2-.8.5-1.2v-.3l.2-.2.2-.7h-.1l.1-.3h.1v-.3.2l.2-.6c0-.3 0 0-.1-.2 0-.2 0-.4.2-.6h-.1c0-.4 0-.6.2-.9.1-1.5-.1-1.7-.3-1.6zm-6.5 15.2v.1zm26.4 75.8-.1-.3v.3zm2.6 9.5zm6.1-78 .1-.2-.1.2zm-4.1 8.1zm7.1-17.3c2-7.6-.3-1.9-.3-1.9-1.2 2.8-1.5 4.4-2.6 7.8l-2.7 6.9-1.5 4.5c-.1.8-.7 2-.9 2.8l-.2.3-.3.9c0 .4-.3.9-.3 1l-.2.6v-.1a21.8 21.8 0 0 1-.7 2.1c-.5 1.4-.5 2-1.1 3.2-.4 1.7-1 2.5-1.5 4.2 0-.2 0 .1 0 0l-.5 1.7c-.2.6-.2.5-.3.5.1 0 0 .6-.2 1v-.2l-.4 1.3.3-.2c-.3.6-.3 0-.5.7h.1c-.3 1-.7 1.5-1 2.3-1.4 3.7-2.6 7.8-4 11.1l-.1.2-.3 1-.1.5s-.2.3-.2.1l-.1.7-.3.3c-.5 1.5-.8 2.8-1.4 4.3-.8 1.8-2 5.3-2.5 7.4-.9 2.8-2.5 6-3.3 8.9l-.1.4-1 2.6s-4.6 12.8-.1 3.4a19 19 0 0 0 1.1-3.3c.2-.1.4-1.2.6-1.5.2-.9.8-1.7 1-2.6v.2l.5-1.5c.5-1.5 1.3-3.5 1.5-4.5 0-.5.2-.6.4-1.3l.7-2.2h.1l.4-1.2-.2.4c0-.2.5-.8.6-1.7.3-.8.2-1.8.6-2.6 0-.4 0 .4.2-.2v.2l.7-1.7c.3-1 .8-1.7.9-2.3.3-1 .4-.6.6-1.7l.3-.3.2-.8s.2-.6.2-.3c.4-1 .6-2.2 1.3-3.6l.3-1.3s.5-1.4.3-.5v.3c.4-.8.4-1.5.7-2.3 0 .2-.2.5-.2.3l.3-.7v.1l.4-1h-.1c.2-.5.4-.6.5-1.3 0-.3-.3.5 0 0l1-2.7v-.5h.2c.2-1 .2-.3.5-1.3v-.2c.1-1 .3-.4.4-1.4 0 .4-.2 0 0-.4v.2l.2-.6c0 .2 0 .1.2-.2v.3l.1-.8c.3-.6.5-1.5.7-1.7l.5-1.5c0 .3.2-.4.2-.1 0-.4.3-1.3.6-1.7l1.2-3.5c-.1 0 .2-.6 0-.5.4-1.3 1-2.2.9-2.8l.4-1v.2l.8-2.2.2-1.2c0 .2.1 0 .2-.3 0 .1 0 .2.1-.1v-.2c.2-.5.2-.4 0-.2.3-.4.5-1.3.6-1.3.5-1.3.7-2.3 1-3.5.2 0 .1.2 0 .5l.3-.8-.2.8 1-3.1v-.3h.1v-.5c.2-.1.2 0 .4-.5l.6-1.8c-.1.3-.1.2-.1 0l.3-.6.2-.9v.6l.5-1.7c.2-.6 0 0 0-.2l.5-1.7-.2.2c.4-1 .6-1.6 1-2.2zm-12.5 37zm-57 25.5v.2zm5-26v.2-.1l-1 4v-.1l-1.4 6-.7 3 1.2.6c0-.7.4-2.2.6-2.8v.2l1.6-6.7s.3-1.1 0-.8l.8-3-1-.6zm-8.1 36.9v-.1l-1-.8v.3l-2 5-2.1 5-.7 1.2 1 .6 1-2.2.9-2.2s1.1-2.5.6-1l-.1.2v.2c.7-1.3 1-2.6 1.6-4l-.3.6.5-1.3v.3l.7-2-.1.2zm-8.5 16-.3.7c-.1.2-.3.6-.2.2l-.5 1.2-.4.6-2.5 5 .8.6 2-3.7c.7-1.7.7-1 1.4-2.8l.5-.7c.3-.7.1-.5.6-1.3l-1-.8-.4 1zm11.6-31.8-.3 1-.3 1.7v-.4l-.6 2.3.3-.4c-.3 1.2-.3.3-.5 1.5h.1l-1.2 3.8 1 .6.6-2 .1-.7h.1c.4-1.9.3-.7.7-2.5v-.4c.3-1.6.4-.8.6-2.6-.1.7-.2.2 0-.6v.2l.3-1c0 .3 0 .2.2-.5v.5l.2-1.4.1-.5-1-.5c-.3 1-.5 1.8-.4 1.9zM204 246l-1.1 5 1 .4.7-2.7c.2-.8 0-1 .4-2.3 0 .5.1 0 .2-.6 0 .3 0 .5.2-.2v-.4c.2-.8.2-.7 0-.3v.1l.7-2.5.2-1-1.2-.2-1.1 4.7zm-43.6 111.4 3-5.6.5-.6-.9-.7-.7 1.2-4.7 8.8c-1.8 3.3-2.2 4.8 2.8-3.2zm7-12.5-.2.4 1.4-2.5 3.1-6-.8-.5-5.4 9.6 1 .7.8-1.7zm8.3-15.8 1.1-2-.4.7c0-.3 1-1.4 1.6-2.9l1-2.1-.7-.7-4.8 9.4.7.5 1.5-2.9zm103.6 36.2-1.8-5v.1l-.5-1.4-.4-1.3-.9.3.2.7c1 2.3 1.6 5.1 2.4 7.7l1.1-.5-.1-.6zm-10-30.1-.3-.8v.1l-.3-1.2v.2c-.2-.6-.1-.9-.5-1.5-.1-.3.1.6-.1 0l-1-3-1 .4.3 1.2 2.6 7.1.9-.5c-.1-.4-.2-.8 0-.2 0 0 .1.2 0 .2h.2c-.2-1-.6-1.6-1-2.4.1.2.3.6.1.4zM258 306.5l-.2-.4c.1.2.2.2 0-.2a1.2 1.2 0 0 1 0-.1c-.3-.5-.3-.4-.2-.2-.1-.5-.6-1.3-.5-1.4l-1.7-3.7.4.5-.4-.9.4.8-1.2-3-1.1.6 1.4 3.5 2 4.8.7 1.6 1-.6c-.2-.5-.4-.5-.7-1.3zm16 44.4c.1 0 .2.3.2.1l-.6-1.8v-.1c-.4-1-.5-2-.8-2.6-.4-1 0-.8-.6-1.8v-.5c-.1-.5-.2-.3-.4-.8.1 0-.1-.7 0-.4l-.1-.4-1.2.5.5 1 .2.5v.2c0 .4 0 .4.2.7l.1.5 1.6 4.6 1 3.1.9-.4c-.3-.7-.8-1.4-1-2.1-.2-.4.3.3 0-.3zm8.1 24v.1c-.4-1.6-.7-2.6-1.2-3.7.1-.1 0-.6-.2-1l-1 .3.4 1.3s4.5 14.2 2 3zm-30.4-83.5-.7-1.7v.2l-1-2.4c-3.9-7.6-1.5-1.3-1.5-1.3 1 2.9 1.8 4.4 3.1 7.4l1-.4-.2-.4.2.3-.7-1.6c-.3-.6 0 .2-.2-.1zm12.6 30.4-.7-1.6c.2.3 0-.5.1-.3a5 5 0 0 1-.7-1.7l-1.5-3.8s-.3-.6-.3-.4l-1-2.4-1 .6.2.5h-.1a22.5 22.5 0 0 1 1 2.3v-.1l1.3 3.5c1 1.6 1 2.8 1.8 4.5v.1l.5 1.1 1-.4c-.1-.7-.6-1.6-.6-1.9z"/></g><use xmlns="http://www.w3.org/2000/svg" xlink:href="#k"/><g xmlns="http://www.w3.org/2000/svg" fill="#fff"><path d="m323.8 121-5.5-1.8-.2.1 2.6-5.2s3.8-1.5 5.7-4.4.7-3.7.7-3.7-6.6 2-8.3 3.4c-1.7 1.3-4.7 3.2-5 5.2s-.4 4-1.8 6.4-16.5 16.2-16.5 16.2l11.3 14.4 14.3-19.5.8-.6 5.9-4.5c1.4-1 9.7-14.5 10.8-16.4L323.8 121z"/><path d="M336.4 105.7c-.9-.7-3.4-1.8-4.3-.3-.6 1.1.4 3 2 4.2l-1.1-.4c-1.2-.4-4.2-1-4.9.7-.6 1 .7 2.6 2.6 3.5l-.9-.2c-1.1-.3-3.8-.5-4.1 1.3-.3 1.5 1.9 3.1 4.3 3.4 2.4.4 4.3.1 4.7-1.9.2-.7-.4-1.3-1.1-1.7 1.9.4 3.3.2 4-1.4.4-.7-.1-1.4-.9-2 1.1.3 2-.1 2.7-1.3 1.1-1.7-2.1-3.2-3-3.9z"/><path d="M327.5 117.5c-1-.2-3.4-.4-3.7 1.2-.2 1.3 1.7 2.8 3.9 3.2 2.2.3 3.2-.2 3.6-2s-2.8-2-3.8-2.4zm-134 91.8s-.9 11 21 11c24.7 0 46.8-11 46.8-11h-67.8zM164 167.9c-3.9 6.5-3.6 7-3.3 21.1.4 14.2 3 43.3 3 43.3s-1.3 6.2 1.1 13.5 3.3 7.8 3.9 8.8c.5 1 1.7-.3 1.7-.3s.6 2.3 2 2.3c1.3 0 1.4-1.5 1.4-1.5s.9 1.6 2 .6c1-1 .6-2.9.8-5.6l.9-8.2c0-1 1 2.1 1.7 3.7s2.7 2.2 2.2-.8c-.6-3-.6-5.7-.8-6.5s-1-2.8-1.7-4.2l-.6-1.4s-.6-1-.1-4.2 7.2-34.8 8.5-39.5c1.5-5.9-19.3-26.6-22.7-21z"/></g><path xmlns="http://www.w3.org/2000/svg" d="M304.3 167.2v.2zm10.9-14.6-.3-.9a4 4 0 0 0-.5-.6l-1.5-1.6.2.1-6.6-6.6c0 .2-1-1-1-.7-2.3-2.2-3.9-4.6-5-5-1.1-1-1.2-1.3-1.8-1.9l.3.2-2.2-2.2c-.3-.2-.4-.5-1-.9-.3-.1-.7-.2-1-.1l-1 .6-.5.5-.3.4-1.4 1.2c.4-.4-.2 0-.7.5.3-.3.4-.4-.4 0a3 3 0 0 1-.3.4c-1 .7-.8.6-.3.3h.1c-1 .6-2.6 2-2.8 2l-7 5.2c-.3.1.2-.3.9-.8l-1.7 1.1 1.5-1c-1.1.5-2 1.3-3.2 1.7-1 .5-2.3.8-3.6.5h-.7l-1-.1c-.2-.3.2-.2-1-.8a23 23 0 0 1-3.7-2.4c.5.5.3.4 0 .2-.5-.4-.7-.8-1.1-1v-.2c.1.3-1.4-1.2-1.6-1.3-.2-.4.8.7 1 .7l-1.5-1.5-1.4-1.5c-1.1-1 0 .3-.5-.1l-2.8-3.1.2.5-1.6-1.8v-.4a70.2 70.2 0 0 0-10.1-19.2 37.6 37.6 0 0 0-7.7-7.6 26.7 26.7 0 0 0-4.2-2.6l-1.7-.9c-2-1-4.2-1.7-6.4-2a32 32 0 0 0-15.4 1.6 49.7 49.7 0 0 0-11.7 5.5 63 63 0 0 0-10.4 7.9l-6 5.9-3 3-2.7 3c-1.6 2-4.7 5.4-6.4 8l-.8.8-2 2.7c-.7 1.3-1.8 2.7-2.2 3.4v-.1l-1 1.6.1-.3-2 3.6-1.9 3.4.2-.1-1.5 3-1.1 2.6-1 2.5-1 3v-.1l-1.1 4-.5 1.8-.5 1.7a50 50 0 0 0-1.3 7.9c0-.8-.1.3-.2.2-.3 2.9-.5 5.9-.3 6l-.3 2v3.3-.7l-.2 4.6.2-.9c-.1 2.5-.3.6-.3 3h.2c0 3.4-.4 5.4-.5 8.7l.2 5.1.2 2.7.1 2.1c.7.2 1.5.1 2.2.1h5l.5 6.4.6 6.6v.7l.2 2.2.3 2.6v1.2-.2 1.2l-.2 1.4a39.7 39.7 0 0 0 0 2.6v-.1c0 1.7.2 3 .3 4l.8 3.9 1.7 4.8c.5 1.5 1 3 2.4 4.8-.3-.4 0 .2 0 .2l.3.3c.1.3.4.5.7.6s.6 0 .9-.1l.3-.2c.2.4.4.6.5.6l.8.9.2.2h.9c.2 0 .5 0 .8-.2a1.4 1.4 0 0 0 .4-.3l.1-.2v-.1.2-.1a1.3 1.3 0 0 0 .1-.3 1 1 0 0 0 .2.2.7.7 0 0 0 .2.1l.4.2.9-.1h-.9c.6 0 .9-.2 1-.2l.3-.2s.3 0 .7-1h-.2c.4-1.1.4-2 .5-3 0-.8 0-1.6.3-2.7l.3-3 .2-2v-.4h.2v.2l.2.4.3.9c.2.4.4 1 .8 1.3l.7.6c.3.1.7.2 1 .1.3 0 .6-.3.8-.7l.1-.4v-1.9c-.4-1.7-.6-3.4-.7-5.1v-.7l-.2-.7-.4-1.2-1-2.4v-.3l-.8-1.5-.2-.5a1.1 1.1 0 0 1 0-.3 6.5 6.5 0 0 1-.1-.9v-.3l.2-1.5.2-1 2-10 1.1-5.1h.1l5.5.2h.6l.1-.3.2-1.2v-1.5c.1-.9.1-1.8.3-2v-1.5c.2-.4.3-1.2.3-.5l.2-2.4.4-1.4.6-3.3-.3 2.7c-.5 5-.7 7.9.2 4.1l-.2 1.7-.2 1v.2l-.1.5h2.9v.2l-2.9.2h-.3v-.4a.4.4 0 0 1 0-.2 1.3 1.3 0 0 1 0-.1v-.4l.1-.9v-.5c-.1-.3-.2-.4-.3-.3v.6h-.1c-.1 0 0 0 0 0v.4l-.1.2-.1.4-.1.2-.1.3v.3l-.1 1 1.1.2h2.8l.1 1.1.5 1.4c.2.7.5 1.2.8 1.7l1.1 1.4 1.2 1 1.3 1c1.8 1 3.8 1.7 6.6 2.4l3.1.7 2.5.3c.8.2 1.6.2 2.5.2 1 0 2 .2 3.3 0a120.9 120.9 0 0 0 3.8 0l3.7-.4c1-.3 3.1-.4 4.4-.7h.5l1.5-.2 1.7-.4h.8c1-.3 2.3-.6 3.4-.7l-.1-.2c2.3-.3 3-.8 5.1-1.1 2.5-1 4.1-.8 6.7-2-.3.2.1 0 .1 0 1.2-.3 2.5-.8 2.4-1 .9-.4.7-.2 1-.2l1.3-.7-.3.2 1.9-.7-.5-.1c1-.3.4.2 1.3-.3v-.1c1.4-.5 2.3-.6 3.7-1l3.1-1.4h7.1a36.1 36.1 0 0 1 2.3-.2h4.2v-.4l-.2-.6-.2-1.3-.3-1.6a56 56 0 0 0-.5-2.5l-.1-1.2c-.3-1-.6-2.3-.7-3.3l-.8-4-.3-2 .1.4a148 148 0 0 1-1-4.7h.4c1.2-.1.8-.3 2-.5h.7c.3-.1.6-.2.2 0 2.9-.6 5.4-2 8.7-3.6l1.4-1 1.3-.8c.1 0 3-2 1.5-.7l-.4.2-.2.3c1.9-1 3.1-2.2 4.8-3.4l-.8.5a24.5 24.5 0 0 0 1.6-1.2l-.3.4 2.3-1.8-.4.2c1.1-.9 1.7-1 2.7-2.2.5-.6-1 .7 0-.3 1.4-1.1 3.5-3 5.2-4.7-.3 0 .2-.4.6-.9h.1c1.6-2 .8-.5 2.4-2.4l.2-.5c1.2-1.9 1-.7 2.3-2.9-.6.8-.5.2.3-.7l-.1.3.8-1c-.2.3 0 .2.6-.6l-.3.6 1-1.6c1-1 2.2-3 2.7-3.3 0 0 1.9-2.5 2.1-3.1-.1.2 0 0 .3-.1l.1-.2.2-.2c.1 0 .2-.1 0 .1.2-.4.5-.9.5-1.5zM180.6 216c-.1 1 0-.9-.2.6-.1 0 0-.7 0-.4l-1 4c-.4 2.3-1 4.2-1.2 5.7l-.4 2c-.1.4-.3.7-.3 2l-.1 1v1l.2.3.2.8c-.1-.1.5 1.3.2.7l.8 1.8.8 1.9a12.8 12.8 0 0 1 .4 1l.1 1 .2 2.4c.2.8.3 2.5.6 3v1.4c0 .2-.2.2-.2.2v-.2l.1-.3v-.2l-.1.4v.1h-.2s-.2 0-.3-.2a1.6 1.6 0 0 1-.3-.3l-.2-.5-.6-1.7.3 1.1c.1.2.1.3 0 0l-.4-1.1-.6-1.4.3.5-.5-1-.4-.3c0-.1-.2-.2-.4-.1l-.3.2h.2a2.3 2.3 0 0 1-.3.2l-.2.6-.2 1.6-.1 1v.6c0 .6.2-1.3 0 .1l-.4 3.1-.2 1.8-.1 1.7v1.1c0 1.2-.1 1.3-.2 1.5l-.2.2a1.2 1.2 0 0 1-.4.5v.1h-.2l-.2-.2-.2-.2h-.2l-1.3-10a.5.5 0 0 0-.5-.5c-.3 0-.5.3-.5.5l1.4 10.1-.2.1c0 .3-.3.6-.3.6s-.1.2-.3.2h.3l-.2.1h-.5a.6.6 0 0 0 .2 0c-.4 0-.5-.2-.7-.4l-.3-.6.4.4-.8-1.3-.1-.3-1.6-8.2c0-.3-.3-.5-.6-.4a.5.5 0 0 0-.4.5l1.6 8.3-.4.3-.3-.1c-.5-.8-1-1.4-1-1.7l-.6-1.4-.9-1.8c.3.5-.2-1 0-.6a32 32 0 0 1-1.3-3.7v.2a37 37 0 0 1-1.3-8.3s0-1.4-.1-1a16.4 16.4 0 0 1 .1-2.2 12.1 12.1 0 0 1 .2-1v-1c0-1.2-.2-2.1-.4-2.7v-2.4.4l-.5-5.4c-.1-1-.3-1-.4-2.8.1.5 0-.2 0-.8v-.4a4 4 0 0 1 0-.5c-.1-1-.1-.9 0-.4l-.1.2c0-1.1-.3-3.2-.2-3.3v-1.2h4.2l10.3.2 4 .1a21 21 0 0 1-.5 3.2zm8.8-8.6zm3.6 1.8h1.3l-1.3.2v-.2zm61.8 1.8h-.2c-1.3.7-.6-.1-2 .6l.1-.1-.3.4c-1.2.7-.8 0-2.2.8.6-.2.4.2-.3.4l.1-.2c-.4.2-.5.3-.8.3.2-.1 0-.2-.5 0l.3-.2-1 .6c-.9.1-2.2.7-2.6.7 0 0-2 .5-2.3.8.4-.2-.7 0-.4-.2a8 8 0 0 1-2.5.8v-.1l-2.8.7c-.9.3-1.7.5-2.7.6.1.2-1 .3-.6.4-2 .7-3.8.4-4.4 1-1 .2-1.1 0-1.6.1h.2l-3.5.5c-.7 0-.7.4-1.9.4h-.5c.2 0 .3-.1-.3-.1h-.3c-.7.2-.6.2-.2.2-.7 0-2 .2-2.1 0l-5.6.5c-.2-.1.2-.2.8-.2h-1.3c0-.2.7 0 1.1-.1h-2.3c-.9 0-1.7 0-2.6-.2h-.4s-.5.1-.8 0c-.2 0 .1-.2-.8-.3l-2.8-.4c.4.1.3.2 0 .2-.4 0-.6-.3-1-.3v-.2c.2.2-1-.2-1.2-.1-.2-.2.7 0 .8 0-1.7-.5-.9-.2-2.5-.9-1-.2 0 .2-.4.2l-1.1-.5-1.2-.7.2.3a7 7 0 0 1-2.6-2.3 9 9 0 0 1-2.5-3.9h2c10.9.4 16.5 0 29.5-.1 11.3 0 14.4.3 26.2.2h4.6-.3c.2.2-.2.3-.6.5z"/><path xmlns="http://www.w3.org/2000/svg" fill="#fff" d="m193 185.8.1-.2-.1.2zm28.9-33.8zm-25.3 27.7zm-3.2 8.5 1.9-5.1.6-1.7.7-1.6c0-.6.6-1.4.8-2l.1-.2a1.9 1.9 0 0 1 .3-.7l.4-.7.2-.4a10 10 0 0 1 .8-1.4h-.1c.6-1 .7-1.4 1.3-2.2.6-1.1 1.3-1.5 2-2.7-.2.1 0 0 0 0 .4-.5.8-1 .6-1.1.3-.3.3-.2.4-.2l.4-.7a.6.6 0 0 0-.1.2l.6-.8h-.2c.4-.3.2 0 .5-.3.5-.6.8-.8 1.4-1.2 2.1-2 4.4-4.3 6.7-5.8h.1c.1 0 .5-.6.7-.6l.2-.2s.2-.2.1 0l.4-.4.3-.1c1-.6 1.7-1.3 2.7-2 1.3-.7 3.5-2.4 4.8-3.3 1.8-1.4 4.2-2.4 6-3.9l.2-.2 1.8-1.2s2-1.5 3.1-2.8c.5-.6.9-1 .6-1 0 0-.3 0-.7.3l-.7.5-1 .7a7 7 0 0 0-2 1.6c-.3 0-.8.5-1 .7l-1.8 1.1.1-.1c-.4.3-.9.7-1 .6l-2.9 2c-.3.4-.4.4-.8.7l-1.5 1-.8.5.3-.2c0 .2-.7.3-1.2.8-.5.3-.8 1-1.4 1.3-.2.2.1-.3-.2 0 0 0 .1-.1 0-.1-.4.3-.7.3-1.1.7-.6.5-1.3.7-1.6 1-.6.6-.6.2-1.1.8h-.3c-.3.3-.1.3-.5.5 0 0-.4.3-.2 0-.8.5-1.3 1.2-2.3 1.8-.1.3-.6.6-.7.8 0 0-.9.7-.5.2h.1v-.2c-.5.3-.8.8-1.3 1.2.2 0 .4-.2.3 0l-.5.3v-.1l-.6.5h.1c-.3.3-.5.3-.8.7-.1.2.4-.2 0 .1l-1.6 1.5-.2.3c-.5.6-.4 0-.9.7v-.1.2c-.3.7-.4.2-.7 1 .2-.3.2 0 0 .2v-.1l-.3.3-.2.2v-.2l-.2.5c-.4.3-.8 1-1 1 0 0-.6.8-.6 1 0-.2-.3.2-.2 0l-.7 1.2c-.7.8-1 1.6-1.5 2.4 0 0-.2.4 0 .4-.5 1-1.2 1.5-1 2l-.5.7v-.1l-.7 1.6-.2.9c0-.2-.1 0-.2.2 0-.1 0-.2 0 0a.6.6 0 0 1-.1.2c-.2.4-.1.3 0 .2l-.5.9-.9 2.6v-.4l-.1.6v-.5c-.3.6-.3 1.5-.7 2.3v.7c-.2.1-.2 0-.3.4-.2.3-.3 1-.4 1.4 0-.3.1-.2.1 0l-.2.4-.1.7c-.1 0 0-.4 0-.4l-.4 1.3c0 .4.1 0 .2.1l-.3 1.3v-.1c0 .8-.2 1.2-.4 1.7-.3 3 0 3.3.2 2.9l.5-1.5c.7-2.2.7-3.4 1.4-6zm74.8-9zm-7.7-33.2zm7.7 27.9zm1.4 6.7c-.3-1.7-.3-2.2-.8-4l-.6-2.7-.5-1.5v-.2l-.1-.6-.2-.6v-.3a7 7 0 0 1-.3-1.2h-.1c-.1-.8-.4-1-.4-1.8-.5-1-.2-1.6-.7-2.5 0 .1 0 0 0 0 0-.5-.2-1-.3-1v-.3l-.2-.5v.1l-.1-.7-.1.2v-.5h-.1v-1.4l-1.6-6.5v-.1c.2-.1-.2-.5-.2-.7v-.2s0-.2 0 0l-.1-.5v-.2l-.7-2.5c0-1-.7-3-1-4.2-.6-1.6-.5-3.7-1.1-5.3a.3.3 0 0 0-.1-.2l-.4-1.6s-1.6-7.5-1.4-1.5c.1.8.2 1.3.5 1.9-.1.1.1.7.1.9.3.5.2 1.1.4 1.6l-.1-.2c0 .4.2.9.1 1 .3.8.5 2 .8 2.5.1.3 0 .4.2.7v.1l.3 1.3.1.7v-.3c.2 0 0 .6.2 1 .1.5.6.9.6 1.4.2.2-.1-.2 0 .1-.1 0-.1-.1-.1 0l.1 1c.2.5.1 1 .3 1.4.2.5-.1.4.2 1v.2l.1.5v.2c0 .6.4 1.2.4 2 .2.2.2.6.3.8 0 0 .2.8 0 .4v-.1h-.1l.3 1.2v-.2l.2.5-.1-.1v.6h.1c0 .3 0 .4.2.7 0 .2 0-.3 0 0l.3 1.7.2.2h-.1c.2.6-.1.3 0 .8h.2c.3.6 0 .4.3 1-.1-.3.1-.2.1 0v.5l-.1-.1.2.4c0 .3.2.8.1 1 0 0 .1.7.3.8-.1-.1 0 .3-.1.2 0 .2.3.7.2 1v-.1l.5 2.1s.1.3.2.2c.3.7.1 1.4.5 1.6v.6l.3 1.2c.1.3.3.3.3.7v.2c0-.1 0-.1 0 0v.2c.1.2.1.2 0 0h.1l.1.8.6 2-.2-.2.2.4-.2-.4c0 .6.4 1.1.4 1.8l.1.1.2.3c0 .1-.2 0-.1.4l.3 1c0-.2 0-.1 0 0l.1.3h-.1l.2.5-.1-.2.2 1c.2.3 0-.2.2 0l.3 1v-.2l.3 1.3c1.6 4.1 1.1.7 1.1.7-.2-1.7-.6-2.5-1.1-4.5z"/><path xmlns="http://www.w3.org/2000/svg" d="m340 102.6-.1.1h.1z"/><path xmlns="http://www.w3.org/2000/svg" d="M341.9 98.8c-.4-.5 0 0-.3-.1-.3-.4-.8-.5-1.2-.7v.1c-.7 0-1.1-.2-1.6-.4h-1.3l-1.5-.4a1 1 0 0 0-.4 0c-.2 0-.6-.1-1 .3l-1.2 1c-.8.7-1.3 1.3-1.7 2-.2 0-.6.7-.8.8l-1.4 1.6v-.2c-.3.4-.7 1-.8.9l-.8 1-.5.6-.2-.1-1.9.5-1.5.5-3.6 1.5-2 1-1.6 1.3c-1 .9-2.2 1.8-3 3.1l-.4 1.3-.1 1.3-.6 2.4-.2.5c-.1.4-.3 1-.6 1.4-.3.7-.7 1.2-1 1.5l-.5.7v-.2c-.8 1-1.7 2-2.6 2.8h.1l-4.2 4c-2 2.2-3.4 3-5.5 5.3.2-.3-.2 0-.2 0l-2 2.1c-1 1-1 .8-1 1l.5.6.8 1-.2-.3 1.4 1.8-.2-.5c.7 1 0 .4.8 1.3l.1-.1 2.4 3.5 3 3.7 3.3 4.2 3.6-5 3.2-4.1.2-.2c.2 0 .9-1.5 1-1.6l.5-.6.2-.2.6-1 .5-.5 4.5-6.2.4-.5.2-.1.3-.2.6-.5 1.3-.9 2.6-2 1.7-1.4.4-.3.5-.7 1.6-2.5 4.5-6.7 2.3-3.5.5-.6.1-.4.5-.7.5-.8.1-.2a.7.7 0 0 0 .1-.4l-.1-.1.7-.8c.3-.4.4-1 .3-1.3-.3-1-1.7-2-2.7-2.7l.8-1.2-.1.3.4-.5-.3.5c.6-.5.9-1.3 1.5-1.9l.1-.2.2-.3c.1 0 .1.1.4-.2l.9-1.2c-.2.2-.2 0-.1 0 0-.2.2-.2.3-.4h.1l.1-.2.2-.5-.1.5c.3-.5.2-.7.3-.8l-.2-.8zm-17.3 21c-.2-.3-.4-.6-.3-1 0-.3 0-.5.4-.8.7-.4 2-.3 2.7 0l.7.1c1.4.3 3 .7 2.8 1.7-.2 1.3-.8 2-3.1 1.6a5.2 5.2 0 0 1-3.2-1.7zm8.5-1.5-1.4 2.4-1.2 2h-.1c-.5 1-1.7 2.6-2.2 3.3h-.1l-.3.4-.3.3-.9.7.7-.5c-.1.3-1.4.9-2.5 1.9-1.2.8-2.1 2-3.4 2.9-.5.5.5-.5-.4.2 0 0 .4-.3.1-.3l-.3.3-1.6 2.1h-.1c-.9 1.5-2 2.5-2.5 3.5-1 1.4-.9.8-1.8 2.4l-.5.5c-.5.6-.2.5-.8 1.1 0 0-.7.9-.4.4l-3.9 5.3-1.2 1.9s-1.5 2-.8.8l.2-.3v-.1l-.6.8v.2h-.2l-.2-.4-.3-.4c.2.4.6.8.3.6l-.8-1.1.2.2-1.2-1.6.1.2-1.4-1.9c-.4-.3.5.8-.2 0l-3-4-.5-.5v-.1c-1.1-1.3-.2-.6-1.4-2l-.2-.1-.8-1-.2-.4-.3-.2-.2-.2-.1-.2v.1l.1.1c-.2 0-.3-.2-.4-.3h.2-.1c0-.1 0-.2.2-.2l.3-.3c0 .2-.2.3-.2.3l.2-.1.2-.3.4-.5 2.3-2 2-1.9c-.3.4.6-.4.4-.1.3-.5 1.5-1.7 2-2l4.6-4.5c-.1 0 .7-.8.4-.6 1.6-1.8 3.1-3 3.3-4l1-1.6-.1.3c.7-2 .8-2.5 1-4v-.9c0-.3 0-.6.3-1-.1.3 0-.2.3-.5l.2-.2a1.2 1.2 0 0 1 .2-.2c.5-.6.4-.5.1-.3a10 10 0 0 1 1.8-1.4l1.3-1 .7-.6.5-.4 2.6-1.3c.3 0-.2.2-.7.5l1.3-.6-1.1.5 2.5-1 1.3-.4.7-.2.3-.1h.2v-.1c.1 0 .2-.1.2 0v.2l.1.2-.1.8c-.1.5-.6 1.2-.8 1.6l-.6.7.3-.3c0 .2-.5.5-.9 1l-.5.9-.7.7c-.2.2.2-.3-.2 0 0 0 .2-.2 0-.2l-1.1.7c-.6.4-1.3.5-1.7.8l-.4.2c-.3.6-.4.4-.5 1l-.3.3-.2.6s-.2.4-.2.2l-.5 1.2-.3.6-.2.4-.4.7-.4.7 1 .2.7.3c.2 0 .3 0 0 0h-.4l.4.1.2.1a3.3 3.3 0 0 0 .4.1l.9.2-.3-.1.6.2h-.2l.9.3-.1-.1 1 .4c.2 0-.4-.3 0-.1l.5.1.2.1.4.2c.4 0 1 0 1.5-.3a6 6 0 0 0 2.6 1l1.2.1c1.3 0 2.5-.5 2.9-2.4a2 2 0 0 0-.6-1.5h.4a4 4 0 0 0 1.7-.2zm-3.1-.7c-1.5-.2-3-1-3.6-1.9-.2-.2-.4-.6-.3-1 0-.4.2-.6.5-.8.4-.3 1-.4 1.7-.4.5 0 1 0 1.4.2l.7.2.6.1 1 .4 1.1.3c.4.2.8.4 1 .7v.6c-.1 1-.8 2.1-4.1 1.6zm5.4-2.6-.4.6-.2-.7a3.5 3.5 0 0 0 .7 0zm1.7-2.4c-.7 1.4-1.7 1.7-4.1 1a13 13 0 0 0-1.7-.4c-1.3-.5-2.4-1.4-2.8-2.3a1 1 0 0 1-.1-.9c.6-1.4 3.4-.8 4.3-.5l.5.2.7.3.8.5a7 7 0 0 0 1.6.7c.4.2.7.5.8.8a.6.6 0 0 1 0 .6zm.8-1.2v.2l-.3-.3.6-.2-.3.3zm1.2-2.8-.1.7c-.7 1-1.3 1.4-2.2 1.2a10 10 0 0 0-2.6-1.2c-1-.8-1.7-1.7-2-2.6 0-.3 0-.8.2-1l.8-.6h.4c.9 0 2 .5 2.4 1l.7.3c.8.5 2.2 1.4 2.4 2.2zm-40.8 31h.1z"/></g></svg>
