<svg xmlns="http://www.w3.org/2000/svg" fill="none" viewBox="0 0 150 150"><mask id="a" width="150" height="150" x="0" y="0" maskUnits="userSpaceOnUse" style="mask-type:alpha"><circle cx="75" cy="75" r="75" fill="#D9D9D9"/></mask><g mask="url(#a)"><path fill="#E8ECEF" d="M69.3 329.6a175 175 0 1 1 0-350 175 175 0 0 1 0 350Z"/><path fill="#000" d="M-14.7 155v.1Zm155.4-61.5Z"/><path fill="#fff" d="M61 45c2-2.7 6.9-.6 6.9-.6S68.6 43 71 43l3.4.2c1.2 0 2.5 0 4 .7 3 1.4 2.7 4.2 2.7 4.2s.9 0 1.8.7 2 1.8 1.3 3.7L82.9 58l-.8-.8v.2c.6.6.9 1.4.9 2.4 0 1.7-1.3 3.2-3 3.2l-.6-.1 3.9 12.6 1.2 3.2s-1.8 2.3-6 3.2c-3 .7-5 .7-6.3.6-1-.1-2.3-.3-1.6-2.3 1-3 .6-4.8.6-4.8l-1.1-6a12 12 0 0 1-3.5.4c-2.4-.3-3.5-1.7-3.7-3.6a23 23 0 0 1-.2-3.4c0-.7.5-1 .5-1l.2 1h.2v-.5a61.1 61.1 0 0 1-.2-11.2c-2.5-1-4.2-3.8-2.4-6.2Zm17.1 17.2Z"/><path fill="#000" d="M66.3 43.5h-.1Zm-2.8 22.7Zm18.4-9V57l.5.4v.3l-.5-.5ZM77.5 64v-.5l.1-.3.3-1.1.5.4-.2.8a4 4 0 0 1-1.5 2c.4-.5.7-1 .7-1.3Z"/><path fill="#000" d="M79.9 58c.9 0 1.6.8 1.6 1.7 0 1-.7 1.7-1.6 1.7-1 0-1.7-.7-1.7-1.7 0-.9.8-1.6 1.7-1.6Zm0 2.9c.5 0 1-.5 1-1.2 0-.6-.5-1-1-1-.6 0-1.1.4-1.1 1 0 .7.5 1.2 1 1.2Zm-20-14.3a4 4 0 0 1 1.8-2.9c1.1-.6 2.2-.5 2.8-.4.7 0 .9 0 1.7.2l1.4.5h.2v-.1l.2-.1.1-.2.3-.2a4.3 4.3 0 0 1 1-.5l.8-.2c.3-.1 1-.2 1.5-.1 1 0 2 .5 3 .4.6.1-.4 0 .4 0 0 0-.4 0-.2-.1h2.2l1.7.6c.5.3 1 .5 1.2.9l.8.8c.2.1.4.3.6 1l.2.5v.8l.1.1h.5a3.3 3.3 0 0 1 1.1.6l.5.4a6 6 0 0 1 1.3 2.4c0 .2 0 .6-.2 1l-.2.7s-.5 1.8-.1.8v-.2l.1-.1-.8 2.8c0-.3.2-.7 0-.5l-.1 1v-.2l-.4 2v-.4l-.1.7v1.1c0 2-1.4 3.5-3.2 3.5h-.2l3.7 12.2 1.3 3.4h-.1c0 .2-2 2.5-6.3 3.4a25 25 0 0 1-6.2.6c-.7-.1-1.5-.2-2-.9-.2-.4-.2-1 0-1.8 1-2.8.7-4.6.6-4.7l-1-5.6-1.8.4-1.5-.1-1.4-.2h.2c-.5-.1-1-.4-1.5-.8A4 4 0 0 1 63 68l-.1-.7-.2-1-.1-.4c0 .3 0 .3-.1-.1v-.5l-.1-1.7v-1l.2-.6.5-.4a68.7 68.7 0 0 1 0-9.9v-.4l-.5-.2-1.4-1.1a4 4 0 0 1-1-1.6v.4l-.3-1.4v-.8Zm4 15.7v.4l1 .3-.5-.2 1 .2-.9-.2c1.2.2 2.4.4 3.8 0h.9l.6-.3 2-1c-.3.3-.2.2 0 .2l.6-.5V61c0 .2.8-.5.9-.6l-.6.4.8-.7.7-.8c.5-.5 0 .2.2 0 .5-.6.9-1 1.1-1.8v.3l.2-.8-.2-.6-.8-1a7.9 7.9 0 0 1-1-4.4h-.4l-1.1.4c-.8.2-1.8.5-3.4.7-1.8.1-3 0-4.3-.4l-1-.2v.2l-.2 3c0 2.2.2 5.6.5 7.5Zm16.1.4c1.5 0 2.7-1.3 2.7-3 0-.5-.1-1-.4-1.4l-.1-.2-.4-.4c-.2-.2 0-.1.1 0l-.2-.2-1.3-.5c-.5-.1-1 0-1.5.1-.5.2-.9.6-1.1 1l-.2.2-.2.2v.3l.1.2.2 1c-.1-.6-.2-.3 0 .3v-.1.6l.2.4V61v.8-.1c.5.6 1.3 1 2.1 1Zm-8.5 12.6c0 .1.3 2-.7 5-.2.6-.2 1 0 1.4.3.3.9.4 1.5.5 1.6.2 3.7 0 6-.5a11 11 0 0 0 6-3L83 75.6l-3.8-12.5c-.4 0-.7-.3-1-.5H78v-.1a7 7 0 0 1 0 1.7l-.2.3-.3.6a4 4 0 0 1-.7.9c.3-.2-.3.5 0 .3l-.9.8-.9.7h.1a79.4 79.4 0 0 1-4.3 2c0-.1-.2 0-.4 0l1 5.5Zm-2-21.4c2.1-.2 3 1.2 3 1.2.2.2.2.5 0 .6-.3.2-.5.1-.7 0 0-.1-.6-1-2.2-1-.2 0-.4-.1-.4-.3 0-.3.2-.5.4-.5Zm-3.9-.3a.4.4 0 0 1 .3.5c0 .3-.2.3-.5.3 0 0-.7-.2-1.2 0l-.2.2s-.3 0-.3-.2a.4.4 0 0 1 .1-.6c.8-.5 1.8-.2 1.8-.2Z"/><path fill="#000" d="M70.2 58.5a.8.8 0 1 1 0-1.6.8.8 0 0 1 0 1.6Zm-5.6-.5a.8.8 0 1 1 0-1.6.8.8 0 0 1 0 1.6Zm2.2-.1c.3 0 .4.3.3.5-.3.7-.8 2.1-.8 2.7 0 .5.5.5.7.6.2 0 .4.2.4.5-.1.3-.4.3-.6.3-.4 0-1.2-.5-1.3-1.3 0-1 .7-2.8.8-3 0-.3.3-.4.5-.3Zm2.1 4.9h-.2.2Z"/><path fill="#fff" d="M69.4 65.6c-.3 0-.4-.2-.4-.5 0-.2.2-.4.5-.3 2 .1 2.6-1.5 2.7-1.6 0-.2.3-.3.5-.2.2 0 .3.3.2.5-.3.8-1.4 2.2-3.5 2.1Z"/><path fill="#000" d="m6 255 .1-.2.1-.6c0-.4.2-.8.4-1.2-.1.2 0-.1 0-.1.2-.9.6-1.7.8-1.7.3-.6.2-.5.1-.6 0 0 .2 0 .3-.2l.5-.7-.2.2 1.2-.9-.1.3c.6-.4 0-.3.7-.5l2.4-1.2c3.9-1.4 8.2-2.2 11.9-3.4h.1c0-.2 1-.2 1.2-.3h.4c.2-.1.4-.2.2-.2h.7l.4-.3.6-.1h.3l.4-.1.7.1s.4-.9.1-.4v.1c0-.5.3-.9.5-1.4v.2l.2-.4h-.1l.2-.7v.2l.3-1c.1 0 0 .4.1 0l.6-1.7.2-.2v-.3l-5.2-1.3c-.3 0-.5-.2-.7-.4l-.2-.6c0-.4.2-.6.2-.6v.4a1 1 0 0 0 .6.8.9.9 0 0 1-.5-1l1.4-4.7c-4 11.9-.5-.8-.5-.8 2.1-7.8 3.5-11.7 6.3-20.9L38 190l3.9-12 2.4-7.2.2-.9.8-2.4.9-2.9.4-1.3v.2l1.8-5.7v.2l2.7-8.6c1.5-4.2 2-6.9 3.6-11.3v.1-.4l.6-1.8-.7-2.2-.3-.8-.1-.2h2a298.2 298.2 0 0 1 8.1 0h9.4s29.3 0 20.8.5H96l1.4 6.4c-3-15.9.7-.1.7-.1 2.3 9.3 3.2 14.2 5.8 25.3l2.8 11 1.5 4.8a283.6 283.6 0 0 0 9.4 19.5c1 2 3 5.6 4.1 8l.6 1 1.4 2.6 1.7 3.2.8 1.4-.1-.2 3.4 6.3-.2-.1.8 1.4.4.6.2.4v.5a2.2 2.2 0 0 1-.9 2.2l-.5.3-1.2.9.2.3.5.8v.1l.2.3.2.2.6 1c-.1-.2 0-.1 0 0l.2.3.2.4v-.3l.5.9c.1.3-.1 0 0 .1l.4.8.7 1.1.7 1.3.3-.2h.6l.6.2a10.5 10.5 0 0 1 1.5 1.2 20.3 20.3 0 0 1 3.6 3.6l1.2 1.6.5.8.3.4v.2l.2.2v1c0 .2 0 .5-.2.7-.3.3-.4.3-.4.2l.2-.5-.3.4-1.6 1.5c4.3-3.3.5.5.5.5-2.3 2.4-3.6 3.3-6.5 6l-5.6 5.4-1.9 1.7-1 .9-.5.6h-7.2.1-6c-1.8-.2-2.8.2-4.7 0 .2 0-.1 0 0 0h-1.3c-.6 0-1-.1-.9-.2h-.1l-.1-.3v-.2l-.2-.1v-1.2.2-1.5l.2.3c0-.7-.2-.2-.1-1h.1c0-.4 0-.9.2-1.3 0-.3.2-.5.3-.7l.5-.6a16.5 16.5 0 0 1 4.4-2.8 25.5 25.5 0 0 1 3.6-1.2l.6-.2h.3l.5-1 .5-1.2v-.2c-.1-.1.6-.9.6-1l.2-.4c0-.2.1-.4 0-.2l.4-.7.1-.4.5-1 .2-.4s0-.2.2-.3l.6-.5-.1-.1c-.2-.2 0-.2-.3-.4l-.1-.2-1.2-1.8-.3-.7s-.5-.7-.3-.2v.1l-.7-1.1.2.1-.3-.4v.1l-.3-.5c0-.2-.2-.2-.3-.4l-.3.1c.6-.4-.2.2-.1.2l-4.5 3c-1.6 1-1.2.9-1.4 1 0 0-.5.4-1.3.3a2 2 0 0 1-1.1-.5l-.4-.5-.3-.5.3.6-2.2-3.5.6.6c-1.3-1.9-.5-.4-1.6-2.2h.1c-1.6-2.7-2.7-4.1-4.3-6.6l-9.9-16.2-9.2-15.7-.3-.5a8 8 0 0 1-.8-1.5c-.3-.8-.6-1.6-.8-1.8l-.5-1.2-.2-.5-.7-2-.5-1.3-.4-1.1-.2.4-5.4 10.6-2 4.1-1 2.5-1 2.6-3.7 9.7-4.2 11.8-2 6-1 3-.3.8-.2.3c0 .1 0 .3-.2.5a2.2 2.2 0 0 1-2.4 1l-.2-.1H50l-2.4-.6v.2l-.2.5-.4 1v.2l-.2.3v.4c0 .3-.3.8-.5 1.1 0-.2 0-.1 0 0l-.1.4-.2.6.2-.4-.4 1.1c-.2.4 0 0-.1.1l-.4 1a8.3 8.3 0 0 0-.5 1.4h.4c.3.2.6.5.7.9v.4l.1.3a8 8 0 0 1 0 1.7v3l-.4 2-.5 1.8-.2 1-.2.4-.1.5c-.4.6-1 .9-1.4.8l-.4-.1.5-.2h-.5l-2-.3c5 1.3-.3.7-.3.7-3.1-.3-4.7-.8-8.4-1.4-3.3-.4-4.2-.4-7.6-1l-5-.8-2.9-.5h-.4l-1-.2-1.1-.2h-.6.1l-2.3-.4c-1.5-.2-2-.4-3.5-.5l-.3-.1h-.2l-.8-.5c-.4-.4-.6-.9-.5-1.4v-.3Zm109.8-14.5 1.5 2.3c0-.1 0-.3.2-.4.1-.2.3-.3.4-.3l.2-.2.3-.2.2-.2.6-.3h.2l.3-.3h.1s0-.2.2-.2h.4v-.1c0-.1 0-.2.2-.3.1 0 .1-.2.3-.2l.1-.2h.2v-.2c.1-.1.3 0 .4-.3h.3s.1-.2 0-.1c0-.2.2-.1.3-.2 0 0-.1 0 0 0l.1-.2v.1l.2-.1.3-.3h.1c.2 0 0-.1.1-.2h.4v-.2h.1s.2 0 .2-.2h.2v-.2h.2l.5-.4c.3 0 .3-.3.5-.1v-.2l.3-.1h.2v-.1h.1c0-.1 0 0 0 0l.2-.2.5-.2h-.1l.1-.1h-.1c0-.1.3 0 .4-.2h.1v-.2h.3l.1-.1h.1c0-.1 0 0 0 0 0-.2 0-.1.2-.2h.3l.2-.2c1.2-.4.5.3.5.3-.3.3-.5.3-1 .6l-.9.7-.6.3-.4.2-.1.1-.2.1-.3.2-.4.3c-.3 0-.3.3-.6.3l-.2.1c-.1 0 0 0 0 .1h-.2l-.2.1c-.2.1-.2.3-.3.4-.5.3-1 .5-1.4 1h-.2c-.1 0-.1.1 0 .1h-.2v.1l-.6.3c-.2.3-.7.5-1 .7-.4.1-.7.6-1 .8h-.2l-.3.2-.8.5h.1l.3.6.1.2s.2.2.1 0l.1.3h1l1.1.1c1 0 2.4-.1 3.8-.5a12.1 12.1 0 0 0 6.2-4c.8-1 1.4-2 1.8-3 0-.2 0-.3.2-.5l-.4-.5c-1-1.3-1.4-2.2-2.5-4l-1-1.6-.6-.7-.2-.3-2.4 1.7c-4.2 2.7-6.5 4.8-10.7 7.5l1.3 2.2Zm-68 1.1-.2.2.1-.2Zm-2.4 5-.9-.3c-.4-.1-.6 0-1-.2l-.6-.2-.4-.1H42l-.3-.1-.4-.2-.6-.1c-.2 0-.3 0-.2-.2h-.4v-.1h-.4c-.5 0-1-.3-1.6-.3 0 .1-.1 0-.2 0h-.2l-.6-.2-1-.3c-.4-.2-1 0-1.3-.2l-.4-.2s-1.8-.3-.3-.6l.4.1h.3l.3.1h.2c.2 0 .5 0 .7.2h.1l.3.2h.2c0 .1.1 0 .2 0l.3.3s0-.1 0 0v-.1h1.3c.2 0 .3.2.5.1l.2.1h.4s-.1 0 0 0h.2v.1h.5v.2c.2 0 .2-.2.3 0v-.1l.2.2h.4l.2.1h.2l.5.1s.1 0 0 .1c.2.1.4 0 .4.2h.5l.1.1h.1c.1 0 0 0 0 0 .1 0 .2.1.2 0l.5.3v-.1c.1 0 .2.1.4 0v.1h.2l.2.1h.4v.2h.2c.1.1.2.2.3.1l.1.1.3-.8.7-2.2.3-1 .2-.6-4.2-1-11-2.6-.4 1.3-1.7 4.4.1.2.3.3.2.3.3.4.6 1a16 16 0 0 0 3 2.4 12.2 12.2 0 0 0 9.5 1.6l.5-.2 1.2-3Z"/><path fill="#fff" d="m102.8 236 .9-.5.4-.3c.2 0 .4-.4.6-.5l.3-.2 1.2-.8.4-.2c.2 0 .4-.3.5-.3l.3-.3v.1s.1-.2.4-.3c.2-.1.5-.1.7-.3.1 0-.1 0 0 0v-.1l.4-.3.6-.5c.2-.1 0-.2.4-.3v-.1l.3-.1s.1-.1 0-.1l1-.7.3-.1s.4-.3.1-.2c0-.2.3-.2.5-.4 0 0-.1.1 0 .1l.1-.1.2-.2.3-.2c.1 0 0 .1.1 0l.6-.5h.2v-.1c.3-.1 0-.1.3-.3.3 0 .1-.1.5-.2-.1 0 0 .1 0 0h.2c-.1 0-.1-.1 0-.2h.1l.4-.4.4-.2s.1-.1 0-.1c.2 0 .4-.2.5-.3l.9-.6s.2-.1.1 0c.4-.2.6-.6.8-.5l.2-.2.5-.4.4-.1v-.1h.1c.2-.2.2-.1 0 0 .1 0 .1 0 0 0l.4-.3 1-.6h-.2.2c0-.1-.1 0-.2 0l.8-.5h.2l.1-.2c0-.2.3-.2.5-.3l.1-.1.3-.1c0-.1-.2 0-.2 0l.4-.3h.1c.2 0 .3 0 .5-.2.2 0 .4-.2.5-.4 2-1 .7.2.7.2-.7.6-1.1.8-2 1.3l-1.8 1.3-1.1.8c-.3 0-.5.4-.8.4v.1l-.3.2-.3.2-.6.4-.8.5c-.5.2-.6.6-1.1.8l-.5.2c-.2.1-.1.1-.1.2h-.3l-.3.3v-.1l-.1.2c-.3 0-.4.3-.6.5l-2.8 2s-.3 0-.3.2h-.2l-.2.1v.2l-1.1.7-2 1.3c-.7.4-1.4 1.2-2.2 1.6h-.1l-.7.5s-3.3 2.3-1.1.1Zm-13.7-89-.1-.3v.2Zm19.8 57.7v-.1Zm-17-49Zm-17-19.4h.1Zm1.5 1.5Z"/><path fill="#fff" d="m74.7 133.3.2.4.4 1.8.7 1.4.4 1 .2.5.2.3v.2h.1l.3.5.4.6c.1.3.4.3.6.7l.2.4h.1l.1.2.2.1h-.1l.2.1c0 .2.3.2.4.3l.5.4.6.3c.3.3.7.4 1.1.5.1 0 .2.2.3.1v.1h.4l1 .4c.4 0 1.1.4 1.5.6.6.3 1.4.1 2 .4h.7l1.2.2-.1-.8c0 .3 0 .2 0 0l-.1-.6h-.1l-.1-.9v.5l-.4-1.7c-.1-.6 0 .1 0-.2l-.3-1.7v.2l-.5-2.4c-1.5-7.7.1-1.7.1-1.7.8 3 1 4.6 1.9 8.2l1.6 6.3-.6.1-.1-.4v.5l-.7-3v-.7c-.2-.2-.2 0-.3-.6l-.2-.7-.6.1h-.8s-.3-.1-.4 0c-.1-.2-.4 0-.6-.2H86l-1-.3-.2-.1-.5-.2H84l-.3-.1c-.2 0-.3-.3-.5-.3 0-.1 0 0 0 0-.1 0 0 0 0 0h-.5c-.2-.2-.4-.1-.5-.2l-.4-.1-.2-.1h-.1c-.3 0-.5-.3-.8-.3l-.2-.2s-.3-.2-.2 0c-.2 0-.3-.2-.4-.3h-.1l-.2-.1c-.1 0-.2 0-.3-.2 0 0 .2 0 0 0l-.5-.4v-.1c-.2-.2-.2 0-.3-.2-.1-.2-.2 0-.3-.3 0 0 .1 0 0 0v-.1H78l-.1-.1-.3-.3-.2-.3h-.1l-.2-.3c-.3-.2-.3-.5-.5-.7v-.1c-.1-.3-.4-.4-.3-.6 0-.2-.1-.1-.2-.2l-.2-.4v-.3h-.1v-.1c-.1-.1-.1-.1 0 0l-.2-.3-.3-.8v.1-.2.2c-.2-.2-.1-.5-.3-.7v-.2c-.2-.1-.2-.3-.2-.5 0 .1 0 0 0 0v-.3l-.1.1-.1-.3c0-.2 0 0 0 0v-.5l-.1-.4c0-1 0-1 .2-1Zm3.6 8.7Zm-14.8 42.6v-.2.2Zm-1.5 5.3ZM58.6 146Zm2.3 4.6Zm-4-9.8c-1.1-4.2.1-1 .1-1 .7 1.5.9 2.4 1.5 4.4L60 148l.9 2.6c0 .4.4 1 .5 1.5v.2l.2.5.2.6.1.3.5 1.2h-.1c.3.7.3 1 .7 1.7.2 1 .6 1.4.8 2.4l.3 1 .1.3.1.5.3.6-.2-.1c.2.4.2 0 .3.4.1.6.3.8.5 1.3.8 2.1 1.4 4.4 2.2 6.3h.1l.2.7v.2s.2.2.1 0l.1.5.2.2.8 2.4 1.4 4.1c.5 1.6 1.4 3.4 1.9 5v.2l.5 1.5s2.6 7.2.1 2c-.3-.8-.5-1.3-.6-2l-.4-.8c0-.5-.4-1-.5-1.4v.1c0-.3-.2-.8-.3-.8l-.8-2.6-.2-.7-.5-1.3-.2-.6v.2c.1-.1-.2-.5-.3-1-.2-.4 0-1-.3-1.4 0-.3 0 .2-.1-.1 0 0 0 .1 0 0-.1-.3-.3-.4-.4-.9-.2-.5-.5-1-.5-1.3l-.4-1-.1-.1-.1-.5-.1-.1c-.3-.6-.4-1.3-.8-2l-.1-.8s-.3-.8-.2-.3v.1l-.4-1.2v.2-.5.1l-.3-.6v.1l-.2-.7c0-.2.1.2 0-.1l-.6-1.5v-.3c-.2-.5-.2-.1-.4-.7v-.1c0-.5-.1-.2-.2-.8 0 .2.1 0 0-.2l-.1-.2-.1-.2v.2l-.1-.5-.4-.9s-.3-.7-.2-.8c0 .1-.2-.3-.2-.1l-.3-1-.7-2v-.2c-.2-.7-.6-1.3-.5-1.6 0-.3-.2-.4-.2-.5l-.4-1.2-.2-.7v-.1l-.2-.1v-.2l-.3-.7-.6-2v.3l-.1-.5.1.4c-.3-.5-.3-1-.6-1.7v-.4l-.3-.3-.3-1c0 .1 0 0 0 0v-.4H58l-.1-.4v.3l-.3-1c-.1-.3 0 0 0-.1l-.3-1 .1.2-.5-1.3Zm7 20.8ZM96 176v.1Zm-2.8-14.7v.2l.6 2.2h-.1l.8 3.3.4 1.7-.6.4c0-.5-.3-1.3-.4-1.6l-.9-3.7v-.5l-.5-1.7.7-.3Zm-68.9-76 3.1-1h.1c-.6-1-1.4-2.9-1.4-2.9s-2.2-.8-3.2-2.4c-1-1.7-.4-2.1-.4-2.1s3.7 1.1 4.7 1.9c1 .7 2.6 1.8 2.7 3 .1 1 .3 2.1 1 3.5.9 1.4 9.4 9.1 9.4 9.1l-6.4 8.2-8-11-.5-.4-3.3-2.5c-.8-.6-5.5-8.2-6.1-9.2l8.3 5.8Z"/><path fill="#fff" d="M17.2 76.7c.5-.4 2-1 2.5-.2.3.7-.2 1.7-1.2 2.4l.6-.2c.7-.2 2.4-.6 2.8.4.3.6-.4 1.4-1.5 2l.6-.2c.6-.1 2-.3 2.3.8.1.8-1.1 1.7-2.5 1.9-1.3.2-2.4 0-2.6-1 0-.5.2-.8.6-1-1 .2-1.8 0-2.2-.8-.2-.5 0-.8.4-1.1-.6 0-1-.2-1.5-.8-.6-1 1.2-1.8 1.7-2.2Z"/><path fill="#fff" d="M22.2 83.4c.6-.2 2-.3 2.1.6.1.8-1 1.6-2.2 1.8-1.2.2-1.8 0-2-1.1-.2-1 1.6-1.2 2.1-1.3ZM97.7 135s.5 6.2-11.8 6.2c-14 0-26.4-6.2-26.4-6.2h38.2Zm16.6-23.3c2.2 3.7 2 4 1.9 12-.3 7.9-1.7 24.3-1.7 24.3s.7 3.5-.6 7.6c-1.4 4.1-2 4.4-2.2 5-.3.5-1-.2-1-.2s-.3 1.3-1.1 1.3-.8-.9-.8-.9-.5 1-1.1.4c-.6-.6-.4-1.7-.5-3.2 0-1.5-.4-4-.5-4.6 0-.6-.6 1.2-1 2-.3 1-1.5 1.3-1.2-.4.3-1.7.3-3.2.5-3.6 0-.5.5-1.6 1-2.4l.3-.8s.3-.5 0-2.3c-.3-1.9-4-19.6-4.8-22.3-.8-3.3 10.9-15 12.8-11.9Z"/><path fill="#000" d="M35.3 111.3v.1Zm-6.1-8.2.1-.5.3-.4.9-.9-.1.1 3.7-3.7.5-.4c1.4-1.2 2.2-2.6 2.9-2.8.6-.6.6-.8 1-1h-.2l1.2-1.2.6-.5h.6l.5.2.3.3.2.3.8.7c-.3-.3 0 0 .4.2-.2-.2-.3-.2.2 0 0 .1 0 .2.2.3l.1.1 1.5 1.1 4 3-.5-.5 1 .6-.9-.5 1.8 1c.6.2 1.3.4 2 .2h.9c.2-.2 0-.2.7-.5l2-1.3c-.3.3-.2.2 0 .1.3-.2.4-.5.7-.6v-.1c-.1.1.7-.7.9-.7 0-.3-.5.3-.6.4l.8-.9.8-.8c.6-.6 0 .2.3 0l1.6-1.8-.2.2 1-1v-.2c1.3-3.7 3.1-7.5 5.6-10.8a21.2 21.2 0 0 1 7.7-6.2c1.2-.6 2.4-1 3.6-1.2 2.5-.4 5.2-.2 8.7 1a28 28 0 0 1 6.5 3c1.8 1 3.5 2.3 5.9 4.5 1.2 1 2.3 2.2 3.4 3.3l1.7 1.7 1.5 1.7c.9 1.2 2.6 3 3.6 4.4l.4.5L111 95l1.3 2v-.1l.6 1-.1-.3 1.2 2 1 2h-.1l.9 1.6.6 1.5.5 1.4.6 1.6.6 2.3.3 1 .3 1a28.4 28.4 0 0 1 .7 4.4c0-.5 0 .2.1.1.2 1.6.3 3.3.2 3.4 0 1.1.1 1 .2 1v2-.4l.1 2.6-.2-.5c.1 1.3.2.3.2 1.6l.2 5-.1 2.8-.1 1.5-.1 1.2h-1.2l-2.8.1-.3 3.6c-.2.9-.2 2.6-.4 3.7v1.6l-.2 1.5v.7-.1.6a12.1 12.1 0 0 1 .1 2.3v-.1l-.2 2.3-.5 2.1-.9 2.8c-.3.8-.6 1.7-1.3 2.7.1-.3 0 0 0 0l-.2.3-.4.3h-.5l-.2-.2c-.1.2-.2.4-.3.3l-.4.6h-.2l-.4.1a1 1 0 0 1-.8-.4v-.2l-.2.1-.3.2h-.5l.5-.1h-.6l-.1-.2s-.2 0-.4-.5l-.1-1.7-.2-1.6-.2-1.6-.1-1.2v-.2h-.1v.1l-.1.2-.2.6-.5.7-.4.3c-.1.1-.3.2-.5 0a.7.7 0 0 1-.5-.3v-1.3l.4-2.9v-.8l.3-.7.6-1.3v-.2l.4-.8a.8.8 0 0 0 .1-.5v-1.5l-.1-.5-1.2-5.7-.6-2.9-3.2.2h-.3v-.2l-.1-.7v-.8l-.2-1.2v-.8c-.1-.2-.2-.7-.2-.3l-.1-1.3-.2-.8-.4-1.8.2 1.4c.3 2.8.4 4.5-.1 2.4l.1.9.1.6v.4h-1.6l1.7.2h.1v-1.4l.1-.2.1.3v.4l.1.2v.1l.1.2v.2l.1.6h-.6l-1.6.1v.6l-.3.8-.5 1-.6.7-.7.6-.7.5c-1 .6-2.1 1-3.7 1.4l-1.8.4-1.4.2h-5.3l-2.2-.2-2.5-.4h-1.1c-.3-.2-.8-.2-1-.3H76l-1.9-.4c-1.2-.3-1.6-.6-2.8-.7-1.4-.6-2.3-.5-3.8-1.1.2 0 0 0 0 0-.7-.2-1.4-.5-1.4-.7h-.5l-.8-.4h.2l-1-.3h.2c-.6-.3-.2 0-.8-.2v-.1l-2-.6-1.8-.8H52v-.6l.2-.7.2-1c0-.5.2-1 .3-1.4v-.6l.4-2v.1l.4-2.3.2-1v.2l.5-2.7H54c-.7 0-.5-.2-1.2-.3h-.5c-1.5-.3-3-1.1-4.8-2l-.8-.5-.7-.5c-.1 0-1.8-1.1-.9-.4l.3.1v.2c-1-.5-1.7-1.3-2.7-2 .3.3.7.5.5.3l-.9-.6.2.2-1.3-1h.2c-.6-.4-1-.5-1.5-1.2-.3-.3.6.5 0-.1a39 39 0 0 1-3-2.7c.2 0 0-.2-.3-.5-1-1-.5-.2-1.4-1.3l-.1-.3c-.7-1-.6-.4-1.3-1.6.3.4.3 0-.2-.4v.1l-.4-.6c.1.2 0 .2-.3-.2l.2.3-.6-1c-.6-.5-1.3-1.6-1.5-1.8l-1.2-1.7-.2-.1-.2-.2-.2-.8Zm75.8 35.7v.3c.1 0 0-.4.1-.2l.5 2.3.7 3.2.2 1c0 .3.2.5.2 1.2v1.3l-.2.5s-.3.7 0 .4l-.5 1-.5 1-.2.6v.6l-.2 1.3-.3 1.7v.8-.4l.1.2h.3l.1-.3.2-.2.3-1-.2.7s0 .1 0 0l.3-.7.3-.7-.2.2.3-.5.2-.2h.4v.2c.1 0 .2.1.2.3l.1.9v.5l.1.4c0 .3-.1-.7 0 0l.2 1.8.1 1v1.6c0 .6.1.7.2.8v.2l.3.2h.2l.1-.1h.1l.8-5.7v-.2h.3c.1 0 .3.1.2.3l-.7 5.6h.1l.1.4.2.1h-.1.3c.1 0 .2 0 .3-.2l.2-.3-.2.2c.2-.1.3-.4.4-.7v-.2l1-4.6c0-.2.1-.3.3-.2h.2v.3l-.9 4.6.3.2h.1l.6-1 .4-.8.4-1c-.1.3.2-.6 0-.3l.8-2a21 21 0 0 0 .7-4.7v-.6a9.3 9.3 0 0 0 0-1.7l-.1-.2v-.4c0-.7 0-1.2.2-1.5v-1.4.2l.3-3c0-.5.2-.6.2-1.6v-.5a2.6 2.6 0 0 0 0-.3v-.2l.2-1.8v-.7h-2.4l-5.8.1-2.2.1c0 .6 0 1.2.2 1.8Zm-5-4.8Zm-2 1h-.7.7Zm-34.8 1c.9.4.4 0 1.2.3l.1.2c.7.4.5 0 1.3.5-.4-.2-.3 0 .2.2l-.1-.1.4.1h.3l-.2-.1.6.3 1.5.4 1.3.5c-.2-.1.4 0 .2-.1.3.1 1 .4 1.4.4l1.6.4 1.5.3.4.2c1 .4 2 .2 2.4.6h1-.2l2 .3c.3 0 .4.3 1 .3h.3c-.1 0-.2-.1.2-.1h.1c.5 0 .4.1.2 0v.1H83l3 .3-.3-.1h.7-.6c.4-.2.8-.1 1.3-.1l1.4-.1h.8l.4-.1 1.7-.3c-.3.1-.2.1-.1.1l.5-.2.8-.1H92l1.4-.5c.5-.1 0 .1.2.1.3 0 .5-.2.7-.3.2 0 .4-.2.6-.4v.2a4 4 0 0 0 1.4-1.3 5.1 5.1 0 0 0 1.4-2.2h-1.1c-6.2.2-9.3 0-16.6 0H62.7l.2.1.3.2Z"/><path fill="#fff" d="M98 121.8Zm-16.3-19ZM96 118.4Zm1.8 4.7-1.1-2.8-.4-1-.3-.9c0-.3-.4-.8-.5-1.1v-.1l-.3-.4-.2-.4v-.2l-.5-.8-.7-1.2c-.3-.7-.7-1-1-1.6 0 .1-.1 0-.1 0-.2-.3-.5-.5-.4-.6-.1-.2-.1-.1-.2-.1 0 0 0-.3-.2-.4l-.3-.3h.1l-.3-.2c-.2-.3-.4-.5-.8-.7a23 23 0 0 0-3.7-3.3c-.2 0-.4-.3-.4-.3l-.2-.1s-.1-.1 0 0l-.3-.2-1.6-1.2-2.7-1.9c-1-.8-2.3-1.3-3.3-2.2H78l-1-.8s-1.1-.8-1.7-1.5l-.4-.6.4.2.4.3.6.3c.5.4.9.6 1.2 1l.5.3 1 .7v-.1l.5.3 1.6 1.2.5.3.8.6.5.3-.2-.1.7.4.8.8c.1.1 0-.2.1 0l.6.3 1 .6c.3.3.2 0 .5.4h.2c.2.2 0 .2.3.3 0 0 .2.2.1 0l1.3 1c0 .2.3.4.4.5 0 0 .5.4.3 0l.7.7s-.2-.2-.1 0l.3.1.3.3.4.3c0 .2-.2 0 0 .1l1 .8c-.1 0 0 .1 0 .2.3.4.2 0 .5.4l.4.6c0-.1-.1 0 0 .1l.2.2h.1l.1.2.5.6s.4.4.4.6c0-.1.2 0 .1 0l.4.6c.4.5.5 1 .9 1.4v.2c.2.5.6.9.5 1.1l.3.4.4.8.1.6.1.1s0-.1 0 0v.1h.1v.1l.3.5.4 1.5c.1 0 0 0 0-.2l.1.3v-.3l.4 1.3v.4l.2.2.2.7v.3h.1v.4-.2l.2.7c0 .2 0 0 0 0l.1.8.2.9c.2 1.6 0 1.8 0 1.6l-.4-.8-.8-3.4Zm-42.2-5ZM60 99.4Zm-4.3 15.7Zm-.9 3.8.5-2.3.4-1.5.2-.9v-.4l.2-.3v-.2l.2-.7c0-.4.2-.6.3-1 .2-.5 0-.9.3-1.4 0-.3.1-.5.2-.5v-.2l.1-.3.1-.4v.1-.2l.1-.8.9-3.7c-.1 0 .1-.3 0-.4l.1-.1s0-.1 0 0v-.4l.4-1.4c0-.7.4-1.8.6-2.4l.6-3v-.1l.3-.9s1-4.2.8-.9c0 .5-.1.8-.3 1.1v.5c-.2.3-.1.7-.3 1V97v.5l-.4 1.5-.1.4-.2.8v.4-.2c-.2 0 0 .3-.2.6l-.3.7c-.1.2 0 0 0 .1v.6c-.1.3 0 .6-.2.8v.6l-.1.3v.1c0 .4-.3.7-.3 1.2l-.1.4s-.1.5 0 .2l-.2.7v-.2.6l-.1.4c-.1 0 0-.2-.1 0l-.1 1c0-.1-.1 0-.1 0v.5h-.1l-.2.5v.4-.1.2l-.2.6-.1.5c0-.1 0 .1 0 0v.6l-.4 1.1v.2c-.2.4-.1.8-.4.9v.3l-.1.7c0 .1-.2.1-.2.4 0-.1 0 0 0 0v.2c0 .2-.2.4-.1.5l-.4 1c0 .1.1 0 .1 0v.2-.2l-.2 1-.1.2v.2l-.1.6c0-.1 0 0 0 0v.2l-.2.2.1-.1-.1.5c0 .2 0 0-.1 0l-.2.6-.1.7c-1 2.3-.7.4-.7.4.1-1 .4-1.5.7-2.6Z"/><path fill="#000" d="M15.2 75Zm-1.1-2.2c.3-.3 0 0 .2 0 .2-.3.5-.4.7-.4.4 0 .6 0 1-.2h.6l.9-.2h.2l.5.1.7.6c.5.4.7.7 1 1.1l.5.5.7.9V75l.5.5.4.5.3.4.1-.1 1 .3 1 .3 2 .8c.3.2.7.3 1 .6l1 .7c.6.5 1.2 1 1.7 1.8l.2.7v.7l.4 1.4.1.3.3.8.6.8.3.4v-.1c.4.6 1 1.1 1.5 1.6h-.1l2.3 2.2c1.2 1.2 2 1.7 3.2 3-.2-.2 0 0 0 0l1.2 1.2.6.5-.3.4-.5.5.1-.1-.8 1 .1-.3-.4.7-1.4 2-1.6 2-2 2.4-2-2.8-1.7-2.3-.2-.1-.6-1-.2-.3-.1-.1-.4-.6-.3-.2L26 92l-.2-.2-.1-.1-.2-.1-.4-.2-.6-.6-1.6-1.1-.9-.8-.2-.2-.3-.4-1-1.3-2.4-3.8-1.3-2a3.3 3.3 0 0 1-.4-.5l-.2-.5-.3-.4v-.1h-.1v-.4l-.4-.5a.9.9 0 0 1-.1-.7c.1-.6 1-1.1 1.5-1.5l-.5-.7v.2l-.1-.3.1.3-.8-1V75h-.1v-.2l-.3-.1c-.2-.1-.3-.4-.5-.7 0 .1 0 .1 0 0l-.1-.2h-.1v-.1l-.2-.3.1.3-.2-.4.1-.5ZM24 84.6l.2-.5c0-.2-.1-.3-.3-.5-.4-.2-1-.1-1.5 0H22c-.8.3-1.7.5-1.6 1 .2.8.5 1.2 1.8 1a3 3 0 0 0 1.8-1Zm-4.8-.8.8 1.3.7 1.1 1.3 2 .2.1.2.2.4.4-.3-.3c0 .2.7.5 1.4 1 .6.6 1.1 1.3 1.9 1.7.3.3-.3-.2.2.1 0 0-.2-.2 0-.1l.1.1 1 1.2c.5.9 1 1.5 1.4 2l1 1.3.3.3.4.7s.4.4.3.2l2.1 3 .7 1 .4.5v-.2l.3.4v.1h.1l.1-.2.2-.2-.2.3.5-.6h-.1l.6-.8v.1l.8-1c.2-.3-.3.4 0 0l1.7-2.3.3-.3.8-1.1.2-.1.4-.6.1-.2.2-.2.2-.1h-.1c0 .1 0 .1 0 0l.2-.1-.1-.1-.2-.2v.2-.1l-.1-.1-.3-.3c-.4-.4-1-1-1.3-1.1l-1-1.1c.1.2-.4-.3-.3-.1-.2-.2-.9-1-1.2-1.1h.1L32.9 88l-.3-.4c-.8-1-1.7-1.6-1.8-2.2l-.5-1v.2c-.4-1-.4-1.4-.6-2.2v-.5l-.1-.6c0 .2 0 0-.2-.3 0 .2.1.2-.1 0l-.1-.2c-.3-.3-.3-.3-.1-.2l-1-.8-.8-.6-.3-.2-.3-.3-1.5-.7.4.2-.7-.3.6.3-1.4-.5-.7-.3-.4-.1h-.3v-.1h-.1v.7c0 .3.3.7.4.9l.3.4V79c-.1.1.2.3.4.6l.3.5c0 .1.2.3.4.3 0 .2-.1-.1 0 0 .1 0 0 0 0 0l.7.3 1 .5.2.1.3.6.1.1.1.4s.2.2.1 0l.4.8.1.3.2.3.2.3c0 .1 0 .3.2.4l-.5.1-.5.2s-.1 0 0 0h.2-.1l-.2.1h-.2l-.5.2.1-.1-.3.1h.1l-.5.2-.5.2c-.1 0 .2-.2 0-.1l-.3.1h-.1l-.2.1a1 1 0 0 1-.8-.1l-1.5.6h-.7c-.7 0-1.4-.3-1.6-1.3 0-.4 0-.7.3-.9H19v-.1Zm1.7-.4c.9-.1 1.7-.6 2-1 .2-.2.3-.4.2-.6 0-.3 0-.4-.2-.5l-1-.2-.8.1-.4.1h-.3l-.6.3-.6.2c-.3 0-.5.2-.6.4v.3c.1.6.5 1.2 2.3 1Zm-3-1.5.2.4.1-.4a2 2 0 0 1-.4 0Zm-1-1.3c.4.8 1 1 2.4.6l.9-.3c.7-.3 1.4-.8 1.6-1.3v-.5c-.3-.8-1.9-.4-2.4-.3l-.2.2h-.4l-.5.4a4 4 0 0 1-.9.4c-.2.1-.4.3-.4.5a.3.3 0 0 0 0 .3Zm-.4-.7v.1l.1-.2h-.3l.2.1Zm-.7-1.6v.4c.4.6.8.8 1.3.7l1.5-.7c.5-.4 1-1 1-1.4v-.6a.5.5 0 0 0-.5-.3h-.2c-.5 0-1.1.3-1.3.5-.1 0-.3 0-.4.2-.5.3-1.3.8-1.4 1.2Zm22.9 17.5Z"/></g></svg>
