<svg xmlns="http://www.w3.org/2000/svg" fill="none" viewBox="0 0 150 150"><mask id="a" width="150" height="150" x="0" y="0" maskUnits="userSpaceOnUse" style="mask-type:alpha"><circle cx="75" cy="75" r="75" fill="#D9D9D9"/></mask><g mask="url(#a)"><circle cx="76" cy="78" r="78" fill="#DEF1FF"/><path fill="#EA9D7D" d="m82.7 58.7 4.2 13.9 1.3 3.2s-1.8 2.4-6.1 3.3c-3 .6-5 .6-6.3.5-1 0-2.4-.3-1.7-2.3 1-3 .6-4.8.6-4.8l-1.5-8.3 9.5-5.5Z"/><path fill="url(#b)" d="M83.4 66.2a15 15 0 0 1-5.4 4.6c-2 1-3.4 1.2-3.4 1.2l-1.2-6.9 9.3-6.4.5 1 .4 1.6s1 3-.2 4.9Z"/><path fill="#EA9D7D" d="M68.9 45.1s-1.7 2.7-2 4a61.5 61.5 0 0 0 .1 10.4c.6 3.1 2.2 5 4 5.6 1.8.6 5.1-.6 7.3-1.7 1.9-1 3-2 3.2-3.2l.9-2.9-.1-3.6-4.4-9.3-9 .7Z"/><path fill="url(#c)" d="M80.2 55.4s-3.3-3.7-5.4-4.5c-4-1.7-8-1.5-8-1.5l.7-2 10-.5 4 6.1-1.3 2.4Z"/><path fill="#EA9D7D" d="M83.6 60c-1.6 0-3-1.5-3-3.3 0-1.8 1.4-3.2 3-3.2 1.7 0 3 1.4 3 3.2 0 1.8-1.3 3.3-3 3.3Z"/><path fill="#CF7653" d="M87.8 76h.1l.2-.3-2.7-8.2a464.2 464.2 0 0 1-2.3-7.6l-.2.3 2 7.4 2.7 8.1c0 .2.1.2.2.2Z"/><path fill="#B76349" d="M83.6 60.2c1.9 0 3.3-1.6 3.3-3.5 0-1.8-1.4-3.4-3.3-3.4-1.8 0-3.2 1.6-3.2 3.4 0 1.9 1.4 3.5 3.2 3.5Zm0-6.5c1.6 0 2.8 1.4 2.8 3 0 1.7-1.2 3-2.8 3-1.5 0-2.7-1.3-2.7-3 0-1.6 1.2-3 2.7-3Z"/><path fill="url(#d)" d="M83.5 58.1c-.8 0-1.4-.6-1.4-1.4 0-.8.6-1.4 1.4-1.4.7 0 1.3.6 1.3 1.4 0 .8-.6 1.4-1.3 1.4Z"/><path fill="#EA9D7D" d="m80.4 54.7 1 .8.3 3.2-.2 1s-1.3-.8-1.4-2.3c-.1-1.4.3-2.7.3-2.7Z"/><path fill="#B76349" d="M72.9 65.3A9 9 0 0 0 75 65a15 15 0 0 0 5.7-3c1.3-1.3 1.1-2.5 1.1-2.6V59c-.2 0-.2.2-.3.3 0 .2 0 1.2-1 2.2a14.6 14.6 0 0 1-5.5 3c-1.8.4-2.1.5-3.4.4-1.3-.1-2-.6-2-.6-.2-.1-.4-.2-.2 0a4.6 4.6 0 0 0 3.4 1Z"/><path fill="#A84D3B" d="m81 62.5-.1.2-.3-.2h.4Z"/><path fill="#A84D3B" d="m80.8 62.1.2.5h-.6l.4-.5ZM78 64.4v.7l-.5-.3.5-.4Zm1.5-1 .1.6-.6-.2.5-.4Zm.8-.7.2.6-.7-.2.5-.4Zm.9-1.2.3.5h-.7l.4-.5Zm-4 4.4.3-.4.2.4h-.4Zm.8-.7.4-.5.1.5H78Zm-2.2 1.3.4-.4.1.4h-.5Zm-1.6.7.3-.4.2.4h-.5Zm2.8-2.1.3-.3.1.5-.4-.2Zm-.7 1.7.3-.3.2.4h-.5Zm2-2.4.5-.2v.5l-.4-.3Zm-2.8 1.4.5-.3v.7l-.5-.4Zm-1.1.2h.4v.5l-.4-.5Zm-.7 1h.5l-.2.4-.3-.4Zm1.6-.2.2-.4.3.4h-.5ZM74 68.2v-.5l.4.1-.4.4Zm.2.7v-.4h.4l-.4.4Zm1-.1.2.2-.3.1v-.3Zm-.4-2.2.3.2-.3.2v-.4Zm-1.3-.3h.3v.3l-.3-.3Zm1.3 3.2.2.2-.3.2v-.4Zm5.2-6.3.3.3-.3.1v-.4Zm1.8-2.7.2.2-.3.2v-.4Zm-.1-.7.2.2-.3.2v-.4Zm-5.3 6.4.2-.1v.3l-.2-.2Zm1.6-.5-.1-.2h.2l-.1.2Zm-.8.5L77 66h.2l-.1.2ZM76 67.4v.3l-.3-.2h.3Zm-1.7-1 .3.2-.3.1v-.3Z"/><path fill="#A84D3B" d="m74.2 66.1.4.3-.4.2V66Zm.8.2.2.2-.3.1v-.3Zm0 4 .2.2-.2.2v-.3Zm.5-.6v.2l-.3-.1h.3Zm0-1.4v.3l-.3-.2h.3Zm-1 .6.1-.1.1.2h-.2Zm7.7-3.1-.1.1-.2-.2.3.1Zm-1.1-.7.1.1H81Zm-1 2.1v.1Zm.5-1v.2h-.2l.2-.2Zm-3.8 2v.4l-.3-.1.3-.2Zm.3-2.5v.3l-.3-.1.3-.2Zm0-.6v.3l-.3-.1.3-.2Zm4.2-2v.3l-.3-.1.3-.2Zm-6.5 4.6h.3l-.2.3-.1-.3Zm1 2.3v-.2l.3.1h-.3Zm-.4-3-.1.3-.2-.3h.3Zm-.8.4-.2.3-.2-.3h.4Zm-.7-1 .2.2-.3.1v-.3Zm.4 1.8.3-.2v.3l-.3-.1Zm6.2-5.5.3.3-.4.2v-.5Zm1.1.4.1-.1.1.2h-.2Zm1-.6.2-.2.1.3h-.2Zm.5 1.7V64h.1v.2ZM81 63.1l-.2.2-.2-.2h.4Zm.6-.6-.1.3-.4-.2h.5Zm0-1.6.2.3h-.4l.2-.3Zm-1.5 3h.2l-.2.2v-.3Zm-.4-.3.1.1-.2.2v-.3Zm-.5.3h.2l-.2.3v-.3Zm1 1.4v-.1l.1.2H80Zm3.2-2.1-.1.2-.2-.2h.3ZM82 61.9l.2.2H82V62Zm.3 2.2V64l.1.2-.1-.1Zm-.4-2.4v.2l-.3-.2h.3Zm-.5.4-.2.2-.1-.2h.3Zm1.3-.7.1.1-.2.2v-.3Zm-1-1.1.2.2h-.3l.1-.2Zm.7.6.2-.2v.3l-.2-.1Zm-2.8 3.3v.2h-.2l.2-.2Zm-1 .5h.2l-.2.2v-.2Zm.4-.5h.2l-.1.2v-.2Zm-3.7 2h.2l-.1.2v-.2Zm.8-.5.2.1-.1.2v-.3Zm2.7.3v-.2l.2.2h-.2Zm-3 3 .1-.2.1.2h-.2Zm3.3-3.6v-.2l.2.1-.2.1Zm-1.5-.2v.2l-.3-.1.3-.1Zm-.9.3v.2l-.3-.1.3-.1Zm-1 .5h.2l-.2.2V66Zm.8 1.1.1-.2.2.2h-.3Zm2.5-.2v.2h-.3l.3-.2Zm-1.2-.5h.3l-.2.2v-.2Zm-1.8.5v-.1l.2.1H76Z"/><path fill="#F4B9A6" d="m72.7 56.8-.4-.3.5-.2-.1.5Zm5-.2.1-.3.3.3h-.5ZM71 57l-.5.4v-.7l.5.3Zm1.6-2.9-.8.5-.1-1 .9.5Z"/><path fill="#F4B9A6" d="m72.6 53.8-.8-.5.8-.5v1Zm-1.7 5-.8-.4.8-.5v1ZM70 58v-1h.9l-.7.9Zm2.8-1.7h.4l-.3.5-.1-.5Zm-.4-.7.5.2-.3.4-.2-.6Zm.1 2.5-.1.4-.4-.3.5-.1Zm-.2.8-.4.3-.1-.5.5.2ZM70 60.4h.4l-.3.5-.1-.5Zm1.9-9.7.1.3h-.5l.4-.3Zm-.5 2.7h.4l-.2.4-.2-.4ZM71 52h.4l-.2.4-.2-.4Zm3.3.9v.4l-.5-.1.5-.3Zm-1-.8.3.2-.4.3V52Zm1.7.6h.3l-.2.3v-.3Zm-4 7.7h.4l-.3.4-.1-.4Zm.4-.3.4.1-.3.4V60Zm3.3-2.5h.4l-.2.4-.2-.4Zm-1 .8h.5l-.3.4-.1-.4Zm1.4-2v.3l-.4-.1.4-.3Zm-2-.5v-.4l.4.4H73Zm-4.3 3.3-.1-.3h.4l-.3.3Zm1.7-1.2h-.2v-.2l.2.2Zm-2.6-2.6v.3l-.3-.1.3-.2Zm1.2 1.3h-.3v-.3l.3.3Z"/><path fill="#F4B9A6" d="M67.8 55.9v-.3h.2l-.2.3Zm8.3-2.2.2.2h-.4l.2-.2Zm-3.7-1.9H72l.4-.5.1.5Zm-.5 5.9-1-.3.8-.8.2 1Zm.8-3.9h.4l-.1.4-.3-.4Zm3 2.8v-.4l.4.2-.5.2Zm-2.3-3.9v.5l-.5-.3.5-.2Zm.5 1v.4l-.5-.3.5-.2Zm-.5-.4v.4l-.5-.3.5-.1Zm-4.2-.6-.4.2v-.4l.4.2Zm3.4 2.5.3-.3.2.3h-.5Zm-1.9 4.7.3.1-.2.3v-.4Zm1.8-2.4v.2h-.3l.3-.2Zm-.4 1.9.1-.3.2.3h-.3Zm-.7.3-.2-.3h.4l-.2.3Zm0-.7-.4-.3.4-.2v.5Z"/><path fill="#F4B9A6" d="m71.4 58.5-.4-.2.4-.2v.4Zm.2-1.7-.3-.2.4-.2v.4Zm.8.1-.3.3v-.4l.3.1ZM69 59.6l.3.1-.2.3-.1-.4Zm1.8-3.2.1.3h-.4l.3-.3ZM70 60l.2-.2.2.3-.4-.1Zm2 1.2v.3l-.5-.2.5-.1Zm1-1.9.3.2-.3.2v-.4Zm3.5-3.8.3-.2.1.3h-.4Zm-3.8 4.7h-.2v-.3l.2.3Zm1-.7-.2.2v-.4l.3.2Zm1.8.5.2.3h-.4l.2-.3Zm-1.2 1.2h.4l-.1.3-.3-.3Zm1.2.4h.3l-.1.4-.2-.4Zm-3.2-5.3-.7-.2.6-.5v.7Zm.5-1.5-.2.2-.2-.3h.4Zm0 .5-.4.6-.5-.7.8.1Zm-2-1 .5.3-.7.2.2-.6Zm4.2 1V55l.3.2-.3.1Zm-3.6-.2.3.2-.4.2.1-.4Zm1.3-2h-.4l.3-.4.1.4Zm-2.5.9-.4-.1.3-.4v.5Zm2.7 0h-.4l.3-.4.1.4ZM70 52l-.4-.1.3-.3.1.4Zm1.4-.9.2.2-.3.2v-.4Zm3.1 1.2V52l.3.2-.3.1Zm-.4 5v.5l-.5-.2.5-.3Zm.6-.2h.4l-.3.5-.1-.5Zm-1 1.8.1.4-.4-.2.4-.2Zm-.4-1.7-.1.4-.5-.2.6-.2Zm.3.8v.5l-.5-.2.5-.3Zm.6-1.2v-.4l.3.2-.3.2ZM69.1 54h-.4l.3-.3.1.4Zm1.5-1.2-.2.2-.2-.3h.4Zm-3 4.5-.3-.1.3-.3v.4Zm6.1-5V52l.4.1-.4.1Zm-2.4.7v.4l-.4-.2.4-.2Zm.5-.8.1.4-.5-.1.4-.3Zm-.2 3.8-.7.4-.3-.8 1 .4Zm-1.7 0-.8-.2.6-.7.2 1Zm1.8.4h-.3l.1-.2.2.2Zm.4-1.6v.3h-.3l.3-.3Zm-.7-.9.4.1-.3.3-.1-.4Zm-1.3.2h.4l-.2.4-.2-.4Z"/><path fill="#F4B9A6" d="m71.6 54.7-.8-.5 1-.5-.2 1Zm-1.2-3.3-.2-.3.6-.1-.4.4ZM71 58l-.2-.4h.6l-.4.4Zm.7-2-.7-.5.8-.5v1Zm-.4-3.5-.3.2v-.3l.3.1Zm-.9.7.4.6H70l.4-.6Zm-.5-.9.1.3h-.4l.3-.3Zm-.4 2.5-.3.2-.1-.3.4.1Zm1-2.8.2.3h-.4l.2-.3Zm5 3.3.4.2-.3.3v-.5Zm-.5-1.7.2.4h-.5l.3-.4Zm-.8 0v-.2l.3.2h-.3Zm.4 1.9V55l.4.2h-.4Z"/><path fill="#A84D3B" d="M73 48.7v.2h-.3l.3-.2Zm-.2.7.2-.2v.3l-.2-.1Zm-2.2-.4.2-.2.1.3-.3-.1Zm-1.9-.6-.2.2v-.3l.2.1Zm-1-.2-.2.1V48l.2.2Zm.3.3h-.2l.2-.3v.3Zm4.4.5.1-.2v.3h-.1Zm-2.8-.2.2-.2.1.3-.3-.1Zm3.7.3.2-.2v.3h-.2Zm4.1-1.2v.5l-.6-.2.6-.3Zm-2.1.4.1.3h-.3l.2-.3Zm1 .1v.4l-.4-.1.3-.3Zm0 1.2v.3l-.3-.2.3-.1Zm.8-.1v.2h-.3l.3-.2Zm-2.6-.9.2-.2.1.3h-.3Zm-.2-.2v.4l-.4-.2.4-.2Zm-3 .3-.1.3-.3-.3h.4Zm2.1 0-.1.1-.3-.2h.4Zm2 0v.4l-.4-.3.5-.1Zm-4.9 0-.2.2-.2-.3h.4Zm1.7 0v.3l-.5-.3h.5Zm2.6.3v.2l-.3-.2h.3Zm2 .9v.2h-.2l.2-.2Zm.3 0v.3h-.3l.3-.2Zm-2-1.3h-.2.2Zm-1.3.1v.1l-.2-.1h.2Zm-2.1.1v.2l-.2-.2h.2Zm5.6 1.3h.2l-.1.2V50Zm-1-1.3v.4l-.5-.2.5-.2Zm.9 1h.2l-.1.3-.1-.2Z"/><path fill="#A84D3B" d="m77.3 49.9.1-.3.3.2h-.4ZM76 49l-.3.1v-.3l.3.2Zm-.2-.5h-.2v-.3l.2.3Zm.8.2v.3l-.2-.1.2-.2Zm-.5.8h-.2v-.3l.2.3Zm1.3 1.2.1.2h-.2l.1-.2Zm-.7-1.3h.2l-.2.2v-.2Zm1.1.6.1.4-.4-.1.3-.3Zm0 .7-.2-.1.2-.2v.3Zm.4.7H78l.2-.2v.2Zm0-.4-.4-.1.3-.2v.3Zm.1.8-.1.2-.1-.2h.2Zm-.4-.5h-.3l.2-.2.1.2Zm.8 1.1h-.2l.2-.3v.3Zm-2-4.2v.4l-.4-.2.4-.2Zm.7.8-.2.2-.1-.3.3.1Z"/><path fill="#A84D3B" d="M76 48.2v.5l-.5-.1.5-.4Zm1 .6-.2.2v-.3h.2Zm-2.5.6h-.3v-.2l.3.2Zm-5.2-.7-.2.1v-.2l.2.1Zm8.1.9-.4-.2.4-.3v.5Zm-.5-1.4.2.4h-.4l.2-.4Zm-1.1 1.7h.1v.2l-.1-.2ZM77 48l.2.2-.2.1V48Zm-.3-.1v.2h-.2l.2-.2Zm.2.8.4-.1v.4l-.4-.3Zm-.7 0h.2l-.1.1-.1-.2Zm.8.3v.2l.2-.2Zm-1-.7.2-.2.1.4-.4-.2Z"/><path fill="#964C38" d="M82.2 57v-.2h.3l-.3.2Zm1-1.6h.2l-.2.2v-.2Z"/><path fill="#964C38" d="m83.2 55.4.3.4H83l.2-.4Zm.6 0h.3l-.3.4v-.4Zm-1.5.8.2.1-.3.1v-.2Zm.5-.3.2.2h-.3V56Z"/><path fill="#964C38" d="M82.5 56.3v.2h-.2l.2-.2Zm1.2-.4h.1l-.2.2.1-.2Zm.2-.2.3.3-.4.1.1-.4Zm-.9 1v.1l-.2-.1h.2Zm-.6-.7v.2h-.1V56Zm-.1.6h-.1Zm2-1 .3.3h-.4l.1-.3Zm-.5.9h.2l-.1.1v-.1Zm-.3.5v-.2l.2.2h-.2Zm-.4-1.4-.1-.1.1-.1v.2Zm.7 0v.2h-.2l.2-.2Zm.2.2.2-.2v.3l-.2-.1Z"/><path fill="#964C38" d="M84 55.8v-.2h.2l-.2.2Zm-1.3.2-.1.2-.1-.2h.2Zm.2-.5v.4l-.3-.1.3-.3Z"/><path fill="#964C38" d="m83 55.8-.2-.2.3.2Zm1.4.5.2.1h-.2v-.1Zm-1-1h.2v.2l-.2-.1Zm.4 1-.2.3v-.3h.2Zm-.5.8v.1h-.1l.1-.1Zm1.2-1.2.1.1-.2.1v-.2Z"/><path fill="#964C38" d="M84 57.1h.1v.1h-.2Zm.6-.9h-.2l.2-.2v.2Zm.2.6h-.1v-.1.1Zm-.1-.5h-.1V56v.2Zm-.4-.2v.2l-.2-.1.2-.1Zm.5.5h-.2l.1-.2.1.2Zm-.3 0v.2l-.2-.1h.2Zm-1.1-.7.1.1-.1.2v-.3Zm-.8.9v.2l-.3-.2h.3Zm1.1-1.3v.3l-.2-.2h.2Zm-.6.7.1-.2.1.2h-.2Z"/><path fill="#B4603F" d="m75.8 52.8.2-.1c.2-.1.3-.4.2-.6-.1 0-1-1.4-3-1.2-.3 0-.5.2-.5.4 0 .3.3.4.5.4 1.5 0 2.2.9 2.2 1h.4Zm-8.4-1.2h.2c.5-.4 1.2-.2 1.2-.2.3 0 .5 0 .5-.3.1-.2 0-.4-.2-.5-.1 0-1.1-.3-2 .2v.6l.3.2Z"/><path fill="#4F2B23" d="M73.7 55.5a.8.8 0 1 1 0-1.6.8.8 0 0 1 0 1.6Zm-5.8-.5a.8.8 0 1 1 0-1.6.8.8 0 0 1 0 1.6Z"/><path fill="#B4603F" d="m70.5 59.5.4-.3c0-.3-.1-.5-.4-.5 0 0-.6-.1-.6-.6-.1-.5.4-2 .7-2.7.1-.2 0-.4-.2-.5-.3-.1-.5 0-.5.2-.2.3-.9 2.2-.8 3.1 0 .8.8 1.3 1.3 1.4v-.1Z"/><path fill="#B23031" d="M77.3 48s.1 2 1.2 3.8c1.2 1.8 1.3 1.8 1.2 2.4 0 .7-1.8 4-5.7 5.5-3 1-5.5.5-6.8 0l-.1-1s-.5.3-.5 1l.1 3.4a3.8 3.8 0 0 0 3.8 3.6c1.8.2 5-.6 8-2.3a9 9 0 0 0 3.1-3.7c.3-1.8-.2-5.5-.2-5.5s.3-2 2.8-1.8c1.8 0 2.5 2 2.5 2l1.6-6.2c.6-1.9-.4-3-1.3-3.8-1-.6-1.8-.6-1.8-.6s.4-2.8-2.7-4.3c-1.6-.7-2.8-.6-4-.6l-3.5-.2c-2.5 0-3.3 1.5-3.3 1.5s-4.9-2.1-6.8.5c-2 2.5.2 5.6 3 6.4 1.9.6 4.9.9 9.4-.2Z"/><path fill="#EA9D7D" d="M72.6 62.4a3.5 3.5 0 0 0 3.3-2.5c0-.2 0-.5-.3-.5-.2 0-.4 0-.5.3a2.6 2.6 0 0 1-2.5 1.8c-.2 0-.4.3-.4.4 0 .3.2.5.4.5Z"/><path fill="#D3505D" d="M69.5 40.6v.4l-.4.1-.3-.6.7.1Zm-2.8 2.9.3-.2v.3l-.3-.1Zm-2.4 1.1.2-.1v.3l-.2-.2Zm2.8-.5v-.3l.3.1-.3.2Zm.6-3.3.2.4-.5.1.3-.5Zm-2 2.8.2.3-.4.1.2-.4Zm4-3 .5.2-.4.5-.1-.6Zm.8.2.4.3-.4.4v-.7Z"/><path fill="#D3505D" d="m74 39.9-.2.7-.6-.5.4-.2h.3Zm6.4.1-.4.6-.4-.7.8.1Zm-7.9.4.1.6-.5-.2.4-.4Zm-7.4 1h.4v.5l-.4-.4Zm2.6.6v-1l.8.5-.8.5Zm-1-.3.5-.7.4.8-1-.1Zm-.6.4-.1-.5.5.2-.4.3Zm-.4.6-.4.5-.3-.6h.7Zm-.6-1.2.3.8h-.9l.6-.8Zm.7 1.6.3.2-.3.1v-.3Zm4.2-.2.2.3h-.3l.1-.3Zm-1.8.7.1.3H68l.2-.3Zm6.6-3.3.4.6-.8.2.4-.8Zm2.2 0v.3h-.4l.4-.3Zm5 .4v.5l-.4-.1.4-.4Zm-.6.3v.4l-.5-.1.5-.3Zm1 .6-.9.3v-.8l.8.5Zm-2-.6.6.4-.5.4V41Z"/><path fill="#D3505D" d="M83 41.5h-.7l.2-.7.5.7Zm-9.6-.4.1.2h-.3l.2-.2Zm2.6-.7.2.2h-.3v-.2Zm-.7.3v-.3h.3l-.3.3Zm-9.8 2.1.2.3h-.2v-.3ZM64.3 44l.2.2-.3.1.1-.3Zm.9.7-.1.3-.2-.3h.3Zm-.6-1v.4l-.3-.3h.3Zm0 .6.3-.1v.3l-.3-.2Zm5 .2h-.3v-.2l.2.2Zm.9-2v.3h-.1v-.2Zm-1.9 1.8h.2v.2l-.2-.2Zm1-.8v.2h-.3l.2-.2ZM67.4 45h.1v.3l-.1-.3Zm-.7 1.6v-.2l.1.2h-.1ZM66 44v.4l-.4-.3h.4Zm0-3.2v.7l-.6-.3.5-.4Zm4.3.8-.1.3-.2-.3h.3Zm-6 1.1.3.4-.4.2v-.6Zm1.5 2.1.1-.2.2.3h-.3Z"/><path fill="#D3505D" d="m65 42.4-.3.3-.1-.4.3.1Zm0 .8-.3.3-.2-.4h.4Zm0-.4-.3.3v-.4l.3.1Zm1.7.5v.3h-.2l.2-.3Zm-.8.3h.3v.3l-.3-.3ZM72 41l.1.3h-.3l.2-.3Zm-1.9.2h.2v.3l-.2-.3Zm3.1-.4.4-.1v.5l-.4-.4Zm2 .3.3-.2v.6L75 41Zm-1.2-.6h.4v.4l-.4-.4Zm1.4-.1.4-.1v.5l-.4-.4Zm.7 0-.1-.5.6.1-.5.3Zm1.6-.2.5-.2v.5l-.5-.3Zm-.8 0 .4-.1v.5l-.4-.4Zm3.8.3.4-.2v.6l-.4-.4Zm.8.5-.2-.5h.6l-.4.5Zm-2.4-.8.4-.1v.4l-.4-.3Zm1.6.5-.5.2v-.7l.5.5Z"/><path fill="#D3505D" d="m81 40.9-.5.3v-.8l.6.5Zm-.5.1-.4.5-.3-.7.7.2Zm-7.6-.3v-.5l.5.2-.5.3Zm3-1-.3.6-.3-.6h.6Zm1.1.1-.3.5-.3-.5h.6Zm.9.1-.4.5-.3-.5h.7Zm4.8.8-.5.4v-.7l.5.3ZM71 42l-.2.3-.1-.3h.3Zm-1.3-.2-.1.2-.2-.3.3.1Z"/><path fill="#D3505D" d="m69.7 40.9.4.6-.7.2.3-.8Zm1.3.2h.4l-.2.4-.2-.4Zm9.5-1.1h.4l-.2.4-.2-.4Zm1.2.3h.5l-.3.5-.2-.5Zm1 .4.3.2-.3.2v-.4Zm-13.4 1.6.3-.1v.2l-.3-.1Zm.2.6-.2.3v-.4l.2.1Zm4.1-.8.1.2h-.3l.2-.2Zm-1.2-.8h.2v.2l-.2-.2Zm.7-.3-.2.2v-.4l.2.2Zm3.4-.7-.2.2v-.3l.2.1Zm-3 1.2v.3h-.2l.2-.3Zm5.2 3 .1.3h-.3l.2-.3Zm-4.3-4.7.2.5H74l.4-.5Zm-.5 2.2h.3v.2l-.3-.2Zm.2-.6-.3-.1.2-.2v.3Zm1.4.5h-.3l.2-.4v.4Zm-.7-1.7-.1-.4h.5l-.4.4Z"/><path fill="#D3505D" d="M75.5 42.3v.2l-.2-.2h.2Zm-.5-2-.1-.3h.5l-.4.4Zm3.6 0-.1-.4.5.2-.4.2Zm2.6.2v-.4l.5.1-.5.3ZM73.1 42l-.1.2-.2-.2h.3Zm1.2.5.2.1-.2.2v-.3Zm3.7 2.8.3.1-.3.1v-.2Zm-3.3-2h.2l-.2.3v-.3Zm-5.4-2-.1.4h-.4v-.4h.5Zm-1.7-.7h.6v.3l-.2.3-.4-.6Zm.7 0 .5.3-.2.3h-.3v-.7Zm-.4 1.7.3-.3.2.5-.5-.2ZM66.7 44l.1-.2.2.2h-.3Zm1.7-2.1v-.2l.2.3-.2-.1Zm-1.8-1.2v.6h-.4v-.5l.4-.1Zm1 2-.1.2-.3-.1h.3Zm-.2-2.2v.3l-.3.2-.3-.4h.6Zm-1.2 2.2v.5l-.3-.4h.3Zm.7 2.5v.2l-.3-.2h.3Zm.7-1 .2.2-.2.1v-.3Zm-2-2.4.2-.2v.3l-.2-.1Zm.1.9.1-.3.2.3h-.3Zm.7 1h.2l-.3.2v-.3Zm.6-2.8-.2.3-.2-.4.4.1Zm-1.6 4.7v.3l-.3-.2h.3Zm.3-1.3-.3.3v-.4l.3.1Zm-.6-.8-.1.2-.2-.4.3.2Zm.2 1.8V45l.2.3h-.2Zm-.6-.5.1-.2.1.2h-.2Zm3-1.4-.1.2-.2-.2h.2Zm-1.1-1.3.3.2-.4.3v-.5Zm0 2.3v-.2l.2.3-.3-.1Z"/><path fill="#D3505D" d="m65.3 42.3.2-.1.1.2h-.3Zm1.3-.5h.5l-.2.5-.3-.5Zm-.4-.4.5-.1-.1.5-.4-.4Zm2.5 1.3v-.3l.4.2-.4.1Zm.4-1 .3.5-.7.2.4-.7Zm.2 0 .1.1h-.2l.1-.2Zm-1 .8.1.2h-.2l.2-.2Zm0-1.3h.3v.3h-.2l-.2-.3Zm-.7.6v-.3l.3.3h-.3Zm.1.9v-.3l.3.1-.3.2Zm.1-.9-.2.3-.1-.3h.3Zm-1.5.5-.6.2V42l.6.3Zm1 .2-.5.6-.4-.5h.8Zm3.1-.4-.3.2v-.4l.3.2Zm1.7 0h-.3v-.3l.3.2Zm-3.2-.3-.4.5-.3-.7.7.2Zm-2.3 0v.2h-.2l.2-.1Zm.4.4.5-.3-.1.5-.4-.3Z"/><path fill="#D3505D" d="M66.4 42.8h.2v.2l-.2-.2Zm1.8.4v.1l-.2.1.2-.2Zm-2-.8.1-.1v.2l-.1-.1Zm.7.4.2.3h-.3l.1-.3Zm-1.4.8v.3l-.4-.3h.4Zm-.5.1v.3l-.3-.1.3-.2Zm-.4-.4.2.1-.2.2v-.3Zm.4 0 .2-.2v.2H65Zm0 1v-.1l.1.2-.2-.1Zm-.9-.8.2-.2v.3h-.2Zm4.4-.4.2-.2v.3h-.2Zm7.3.2V43l.2.1-.2.2ZM79 40l.5.2-.5.4V40Zm-3.5 1v-.6l.6.2-.6.3Zm3.1 1.5.3.5h-.5l.2-.5Zm-1.8 0 .2.4h-.4l.2-.3Zm1.3 1H78v-.1h.2Zm1.5-1.1v.2h-.2l.2-.2Zm-2.5.9h.2v.2l-.2-.2Zm1-.6v.4l-.4-.1.3-.3ZM76 44.1h.2l-.1.3-.1-.3Zm4.5-2.4-.1.6-.6-.5.7-.1Zm-.4 2-.3.4-.2-.4h.5Zm-1.8-3.6.5.5-.8.3v-.4l.3-.4Zm.2 1 .3.3-.5.2v-.4l.2-.2Zm-.3.5h.4l.3.2-.4.6-.3-.8Z"/><path fill="#D3505D" d="m80.4 44 .3.4H80l.3-.5Zm-2-3.4 1 .3-.7.5-.3-.8Zm1 0h.3l.3.2-.6.4v-.7Zm-3.2 0h.7l-.4.7-.3-.8Z"/><path fill="#D3505D" d="m75.7 40.8.7.2-.4.7-.3-.9Z"/><path fill="#D3505D" d="m75.8 41.7.4-.3.1.6-.5-.3Zm3.4.3.6-.4.2.4-.1.4-.7-.4Zm.4.5h.6l-.2.6-.4-.6Zm1-.6.6-.4.1.8-.7-.4Zm-4 .4v-.6l.6.2-.6.4Zm1 .5-.4-.4.6-.2-.2.6Zm0 1.6-.4-.3.5-.2-.2.5Zm3-.4-.3-.4.5-.2-.2.6Z"/><path fill="#D3505D" d="m81.4 45-.3-.2.4-.2-.1.4Zm-2.9-1-.4.2v-.5l.4.4Zm-.6-1.4.4-.4.3.5-.7-.1Zm.7-1.5.8.1-.5.7-.3-.8Zm-1.5-.6.6.1-.4.8-.2-.9Zm-.3.9.7.1-.4.7-.3-.8Zm.8.2.3.4h-.4l.1-.4Zm1 2 .2-.1v.2l-.2-.1Z"/><path fill="#D3505D" d="m79.2 43.1.4-.2v.6l-.4-.4Zm-1-1-.2.2-.1-.3.3.2Zm-.3-1.7-.2.3-.2-.2h.4Zm-1.4 1 .3-.3.2.5-.5-.2Zm2 .6h.6l-.2.5-.3-.5Z"/><path fill="#D3505D" d="M79 42.2h.4l-.1.5-.3-.5Zm0 1.5h.4l-.2.5-.3-.5Zm1.2-1.7h.5l-.2.5-.3-.5ZM77 41l.1-.1.1.3-.2-.1Zm-1.5 1.8v.2l-.3-.2h.3Zm.7.7.2.1-.2.1v-.2Zm0-1v.3l-.2-.2h.3Zm1.1-.6.1-.3.3.2-.4.1Zm.4-1 .4.3v.2l-.8.2.4-.7Zm.3-.1v.2-.2Zm-1 1v.1h-.2l.2-.1Zm.5 1.2v.2h-.2l.2-.2Zm-.6-2.4h.2v.1l-.2-.1Zm-2.4.8v-.3l.3.2-.3.1Zm.2.8V42l.3.2-.3.1Zm4.7 2.6v-.3l.3.1-.3.2Z"/><path fill="#D3505D" d="m75.3 41-.2.4-.1-.3h.3Zm4.8.5-.5.2v-.6l.5.4Zm-2.8-.4-.1.2-.2-.2h.3Zm-2.5.5h.2v.2l-.2-.2Zm4.9 3.7.2-.1v.2l-.2-.1Zm-3-3 .2.2-.2.1v-.3Zm.5 0 .1-.1.1.2-.2-.1Zm11.2 5.2h-.8l.4-.9.4 1Zm-7.8-3 .3.2-.3.2v-.4Zm1.7-1 .5.4-.6.3.1-.7Zm-.3 2.2.2-.2.1.3-.3-.1Zm0-.8.2-.2.1.4-.4-.2Zm4.5 1.4-.2.6-.5-.6h.7Zm-3.8-4-.2.5-.5-.5h.7Zm-1-.3-.1.3-.3-.3h.4Zm-.2.6-.1.3-.3-.2.4-.1Zm6.5 7.3-.2.9-.6-.5.8-.4Zm-.2 1-.2.6-.4-.6h.6Zm-1.5-.4-.1.3-.3-.3h.4Zm.8.2-.1.3-.3-.2h.4Zm-2-6.4v.5l-.5-.3.6-.2Zm.3 2 .2-.2v.3l-.2-.1Zm0 .4.3-.2.2.5-.6-.3Zm-2.2-2.1h-.5l.3-.5.2.5Z"/><path fill="#D3505D" d="m83.2 45.2-.1.2-.2-.1h.3Zm3 4-.1.3-.2-.2h.2Zm-1 .8h.2l-.1.3-.1-.3Zm2.4.3-.2.5-.5-.4.7-.1Zm-1.1 1-.1.3-.3-.3h.4Zm-5.3-9-.2.6-.6-.5.8-.1Zm1 1h-.8l.4-.8.4.8Zm1.3-.8h-.6l.3-.6.3.6Z"/><path fill="#D3505D" d="m81.7 42.2.4.2-.5.3v-.5Zm4.7 8.5-.2-.2.2-.1v.3Zm.4-1.3-.1.1-.1-.1h.2Zm-2.5-.6.1.1h-.1v-.1Zm.9 2.3v.1-.1Zm.5 1h.1-.2.1Zm-.2-3-.2.1V49h.2Zm.8.7-.3.2v-.3l.3.1Zm-2-1.5v.2H84l.1-.2Zm-3-4.8.4-.1-.1.4-.2-.3Zm2.2.4-.3.1v-.3l.3.2Zm2 1-.2.5-.4-.5h.7Zm1.9 3.8H87l.1-.3.3.3Zm.7 0-.5.2v-.6l.5.4Zm.3-.8-.5.2v-.6l.5.4Zm-4.4-5v.2l-.3-.1.3-.2Zm.4 0v.3L84 43l.3-.2ZM81 43h.5l-.4.6-.1-.6Zm0 .8.5.1-.3.5-.2-.6Zm-5.4-2 .6.1-.4.5-.2-.5Z"/><path fill="#D3505D" d="M84 42.8v-.6l.6.2-.6.4Zm-.2.5.5-.2v.6l-.5-.4Zm.5-.4.4-.4.2.6-.6-.2Zm.2.7-.1-.5.5.2-.4.3Z"/><path fill="#D3505D" d="M83 42.4h-.3l.2-.4.1.4Zm.5 0h.4l-.2.5-.2-.4Zm.8-.4-.2.3-.2-.3h.4Zm-2-.6.5.5-.7.4.2-.9Zm4.4 9.5-.2.2-.2-.2h.4Zm.7-2.3.2.1-.2.1v-.2Zm-.5 3.2.2.2h-.2v-.2Zm-.1-.4.1-.1v.2h-.1Zm.9-1.5H87l.4-.7.3.7Zm-.8-1.7h-.3l.2-.3v.3Zm1.6 0-.1.5-.6-.4.7-.1ZM87 49.7v.4l-.4-.3h.4Zm.3-2 .4.2-.4.3v-.5Zm-1 .7.4.3-.4.3v-.6Zm.3-2 .4.3-.5.3v-.5Zm1.5 3.3-.7-.5 1-.4-.3 1Z"/><path fill="#D3505D" d="m87.6 51.6-.2.8-.7-.6.9-.2Zm-1-1.4.3.2-.4.3.2-.5Zm.6 1.2h-.4l.3-.4.1.4Zm-1-.3-.2.2-.1-.2h.2Zm.3.8.2.1-.2.1V52Zm-1.7-6.1.1.3h-.3l.2-.3Zm.7-.4.1.3h-.3l.2-.3Zm1 .3.4.5h-.6l.3-.5Z"/><path fill="#D3505D" d="m84.9 44.8.1.2-.3.1.2-.3Zm.6 1.4.2.3h-.4l.2-.3Zm-.5-.4-.2.1v-.2l.2.1Zm2.3 3.4-.4.2v-.6l.4.4Zm-.8-1.4h-.1v-.2l.1.2Zm-2.9-3.6-.1.1v-.2l.1.1Zm.7.4-.1.1-.1-.2.2.1Zm.4-.3-.3.2V44l.3.2Zm2 2.8-.2.2V47l.2.1Zm-1.4-1.3.2.3h-.3l.1-.3Zm.4.2v-.4l.4.2-.4.2Zm.7-.3v-.5l.5.2-.5.3Zm-1.5-.2h.2v.2l-.2-.2Zm.3.8.1.3h-.2l.1-.3Zm.8.2h.3l-.1.2-.2-.2Zm.5 6-.1-.2h.3l-.2.2Zm.2 1.2v-.2h.2l-.2.2Zm.2-.8v-.2h.1l-.1.2Zm-.4 1.2h-.2V54l.2.2Zm0-.7-.1-.2h.3l-.2.2Z"/><path fill="#D3505D" d="M86 53v-.2l.2-.1-.2.3Zm1.3-.5h-.4v-.4l.4.4Zm-.3.4.1.6-.6-.2.5-.4Zm-.3.9v.2h-.2l.2-.2Zm.5-6.3-.4.2v-.6l.4.4Zm.5-1.3v.5l-.5-.2.5-.3Z"/><path fill="#D3505D" d="M87 47v.3l-.3-.2h.2Zm.4 0v.4l-.4-.2.4-.3Zm-2.2 0h.4l-.3.4v-.5Zm-3-4 .5.1-.4.4V43Zm.9 0h-.3l.1-.3.2.3Zm.4-1.6-.5.2v-.7l.5.5Zm0 1.6v.5L83 43l.5-.1Zm.7-1.2-.6.2v-.6l.6.4Z"/><path fill="#D3505D" d="m85.1 44.1-.5-.1.4-.5.1.6Zm-2.3-.7h.3l-.2.3-.1-.3Zm0 1.4h.1l-.1.2v-.2Zm3.2 2.5h.2l-.2.2v-.2Zm.2-2.3-.3.4-.3-.5.6.1Zm-2.6-3.2-.5.1v-.5l.5.4Zm4 4.3-.7.2v-.7l.7.5Zm-2.9 1.4h-.2v-.2l.2.2Zm-2.8-3h-.2v-.3l.2.2Zm2.4-.3-.3.3V44l.3.1Zm-.3-.6.1.3h-.4l.3-.3Zm.7 0-.3.3-.1-.4.4.2Zm.2.6-.2.2-.1-.4.3.2Zm-.5.8h.2l-.1.3V45Zm-1-.1h.3l-.2.3v-.3Zm1 2.6-.3.2v-.3l.3.1Z"/><path fill="#D3505D" d="M84.8 46.8v.2h-.3l.3-.2Zm1 .2.3-.2v.3L86 47Zm-.7 1.1-.2.2-.1-.2h.3Zm1-1 .1.3h-.4l.2-.3Z"/><path fill="#D3505D" d="m86.3 47.2-.3.1V47l.3.2Zm0 .5.2.3H86l.4-.3Zm-.2.7-.3.1v-.3l.3.2Zm-.9-1H85v-.2l.2.2Zm.4 1.5-.3.1.1-.3.2.2Zm.3-1.3v.2h-.2l.2-.2Zm-5.8-4.8h.5l-.3.7-.2-.7Zm3.5 1.6h.2l-.2.2v-.2Zm1.6 3.7h.1v.2l-.1-.2Z"/><path fill="#93282D" d="m71.8 66.3.3-.3.2.4h-.5Zm9.2-5v.4l-.4-.1.4-.2Zm-7 4.4-.2-.3h.4l-.2.3Zm5.2-2.8-.1-.3h.4l-.3.3Zm1-.3V62h.3l-.2.4Zm-10 4.1h-.8l.3-.7.5.7Zm.5 0-.3-.4h.5l-.2.4Zm.7-.1-.2-.3.4-.1-.2.4Zm5.4-1.5-.3.1v-.3l.3.2Zm-2.3-.1v.3h-.3l.3-.3Zm1.2-.3v.3h-.3l.3-.3Zm1.8-.2V64l.5.2-.5.2Zm-.4-1-.2-.2h.3l-.1.3Zm-6 .4-.1-.3h.3l-.1.3Zm-.2 1.4-.1-.3h.3l-.2.3Zm9.7-3-.2-.4h.4l-.2.3Zm-1.3-.5.3-.3v.4l-.3-.1Zm-.8 1.4.3-.2v.3h-.3Zm1.7-.4-.3.3-.2-.5.5.2Zm-12.1 1.8h.2v.2l-.2-.2Zm2.6-.2V64h.1l-.1.3Zm1-1.1V63l.3.1-.3.2Zm4.1 2.3V65l.7.3-.7.3Zm-4.7-.6.1-.4.4.3h-.5Zm7.7-1-.2-.1.3-.2v.4Zm.5-1.8-.2.2-.2-.4.4.2Zm-1.2 2.3v-.3l.4.1-.4.2Zm1-.6-.2-.6.7.2-.5.4Zm-1 0 .4-.3.1.5-.4-.2Zm1.5-.7h-.3l.1-.4.2.4ZM71 65.3l-.2.2V65l.2.2Zm-.7 0-.3.1v-.3l.3.2Zm.5 0v.3h-.3l.3-.3ZM70 65l.1-.2.2.3H70Zm1.8.2.2-.3.1.4h-.3Zm-.1.6-.2-.2.3-.1-.1.3Zm.4-1.3-.3.1v-.2l.3.1Zm-2.8 1 .2-.2.2.4-.4-.1Zm.8.5v-.3h.2l-.2.3Zm-.2-2.5-.3.1v-.3l.3.2Zm.5 2.4.2-.3.1.4-.3-.1Zm-1.6-2.3-.2-.3h.3l-.1.3Zm1.6 1.2-.2.1v-.3l.2.2Zm5.1-.1h-.4l.3-.4.1.4Z"/><path fill="#93282D" d="M75.5 65.6H75l.2-.4.2.4Zm.5 0-.4-.1.2-.4.2.4Zm-1.4-.5h-.3l.2-.3.1.3Zm.8-.3v-.3l.2.2-.2.1Zm2.3-.8.1-.2.2.1-.3.1Zm-8.9 2.3.4-.3.3.5-.7-.2Zm4 .2.2-.8.7.6-.9.2Zm-.3-1.4v-.3l.2.1-.2.2Zm5.3-.6v-.2l.3.1-.3.1Zm-.9.4.1-.2.2.1-.3.1Zm-4 .7.1-.3.3.2-.3.1Zm2.2-.4h-.3l.2-.4.1.4Zm-.5.3.2.1-.2.1v-.2Zm1.2-.6-.2.3-.2-.2h.4Zm-1.1-.2h-.2l.1-.3v.3Zm-.7.7-.1.2-.2-.2h.3Zm-4.5-.9.2.1-.1.2-.1-.3Zm-.7.6h.2l-.2.4V65Z"/><path fill="#93282D" d="M68.7 64.8h.2l-.1.3v-.3Zm-.7.6v-.3l.3.2-.3.1Zm1-1.5h.3l-.2.3-.2-.3Zm.2 2v-.2l.3.2h-.3Zm-.5-.1-.2-.1.2-.2v.3Zm-.4 0h-.2l.2-.2v.3Zm4-.2.1-.3.3.2-.3.1Zm1.3.3-.2-.2.2-.1v.3Zm-.7 0-.2-.1.3-.2v.3Zm1-1.6-.2.1-.1-.2h.3Zm5-2h-.3v-.2l.2.2Zm-.5.4.2-.2.1.3h-.3Zm-2.2 1.7.1-.4.3.3h-.4Zm1.7-1.2-.2.2-.1-.3.3.1Zm-4.6 1.6-.2.2v-.3l.2.1ZM75 66v-.4l.5.2-.5.2Z"/><path fill="#93282D" d="m74.2 63.9.1-.3.3.2h-.4Zm-.1 2.3v-.6l.7.4-.7.2Zm1.7-2.4v-.4l.4.2-.4.2Zm1.2.5.1-.3.3.2H77Zm.3.6-.2-.2.2-.2v.4Zm-.7-.1-.2.2-.1-.3h.3Zm.7-.4-.3.3-.2-.5.5.2ZM74.2 63l.3.2h-.3Zm2.2.1V63l.3.2h-.3Zm4.6-2V61l.3.1-.3.1Zm-5.8 3L75 64l.2-.2v.3Zm-1.5.7v.3h-.3l.3-.3Zm-.3.1H73l.3-.5v.5Z"/><path fill="#93282D" d="M73.2 65.1V65l.3.1-.3.1Zm-.6-.1h-.3l.2-.3v.3Zm-.5-.8V64l.4.2-.4.1Zm1.6-.2v-.2l.4.2h-.4Zm-.7.5h-.2l.3-.2v.2Zm4.8.2-.3.1-.1-.4.4.3ZM73 63.5l-.1.2-.2-.3h.3Zm-5.4 1.3v-.4l-.4.1.4.3Zm-1-2.5v.5l.6-.3-.6-.2Zm1.5 3.6.1-.6-.5.2.4.4Zm5.5.3h.4l-.3-.3-.1.3ZM68.2 64h.4l-.3-.4v.4Zm-.9 1 .3.5.3-.8-.6.2Zm2 .9-.3.2h.3V66Zm-.9-1.2-.2.2.3.2v-.4Zm-.6-1.8v-.4l-.3.2.3.2Z"/><path fill="#93282D" d="M68.3 63h.4l-.3-.3v.4Zm3.3 3.6h.4l-.3-.5-.1.5Zm-4.1-4.3v-.4l-.4.2.4.2Zm4.9 2.8.2-.2-.2.2Zm0 1.4h.4l-.3-.4v.4ZM66.6 61h.1v-.2l-.1.2Zm1.7 4 .3-.2-.4-.2.1.4Zm-1.6-2.7h.4L67 62l-.3.3Zm.4 1.1V63l-.4.2.4.2Zm.1-.5v-.3l-.4.3h.4Zm2 2v-.3l-.4.2.3.1Zm1.2 1.8h.4l-.3-.5-.1.5Zm-1-.2h.2l-.1-.3-.2.3Zm2.4-.6.1.2.2-.2h-.3Zm3 .2h.2l-.2-.3v.3Zm-4.4 0 .5.3.1-.7-.6.4Zm-2.3-.1.3.2v-.4l-.3.2Zm-.5-1 .5.4.2-.6-.7.2Zm5 1.2.1.1.2-.3-.4.2Zm-3.8-.8.1-.2h-.2v.2Zm.1.9.4-.6-.8-.1.4.7Zm-1.7-1.4.6-.6-1-.3.2.5.2.4Zm2.2-.3.2-.2h-.3l.1.2Zm-2.6-.7.4-.3-.5-.3v.6Z"/><path fill="#93282D" d="m68 64.4.2-.2-.2-.1v.3Zm.7 1.8.2-.1h-.3l.1.1Zm.4-1.8h-.6l.2.4.4-.4Zm-.7.8v.2h.2l-.2-.2Zm-.7-1.6-.1.5h.5l-.4-.5Zm.5.4v-.2l-.3-.1.3.3Zm.2 2h.2v-.2l-.2.2ZM67 62.7h.3v-.3l-.3.3Zm3 3.2v.3l.5-.2-.4-.1Zm-1.6-1.5.2-.3h-.4l.2.3Zm-.4-2v.3l.3-.1-.3-.1Zm1.1 3.3.1-.3H69l.2.3Zm1.2-.4.1-.2H70l.3.2Zm-2.8-1.8.1-.3h-.3l.2.3Zm1.7.7V64H69l.3.3Zm-2-.2h.3v-.2l-.3.2Zm.7.5v.2l.3-.1-.3-.1Zm0-1.1v.2l.3-.1-.2-.1Zm3 1.5.1-.3h-.4l.3.3Zm-1.6.1h.3l-.1-.3-.2.3Zm2 .9.4-.2-.3-.2v.4Zm-1.8-.3h.2l.1-.2-.3.2Zm2 1.1-.3-.6-.4.6h.6Zm-1-.8.1-.3h-.3l.2.3Z"/><path fill="#93282D" d="m72.2 66.6.2-.3h-.3l.1.3Zm-2.8-1h.2v-.2l-.2.2Zm-2.8-4.2v.3l.2-.2h-.2Zm.8 2v.2h.2l-.2-.2Zm4 2.5v.2h.3l-.3-.2ZM75.6 48l-.2-.3h.4l-.2.3Zm-4 .5-.2-.3.5-.2-.2.5Zm-1 0 .5-.6.5.7h-1Z"/><path fill="#93282D" d="M72.4 48.6h-.6l.2-.6.4.6Zm4-1-.2-.2.2-.1v.2Zm.5-.7.2.4h-.4l.2-.4Zm1.4.2-.3.2-.1-.4.4.2Zm-1.4.4-.3.3-.1-.5.4.2Zm-.5.2.3.4-.5.1.2-.5Zm-4 1 .2-.7.5.6h-.7Zm3-.4.2-.6.5.5h-.6Zm-1 .1.2-.5.4.4-.7.1Zm3.8-1.8-.2-.2.3-.1-.1.3ZM76 47.8l.1-.3.2.3H76Zm-3.8-2.2-.2-.1.2-.1v.2Zm5 .6-.2.1v-.2l.2.1Zm-.7.3h.3l-.1.4-.2-.4Zm-.6 0v-.3h.2l-.2.3Zm1.9-.6h-.2l.1-.2.1.2Z"/><path fill="#93282D" d="M73.4 45.4H73l.2-.2v.2Zm2.4.2-.2-.1.2-.2v.3Zm-.4.2.1.3h-.3l.2-.3ZM74 48.5h-.5l.1-.5.4.5Zm2.6-1.7.2.5h-.5l.3-.5Zm-3-.7V46l.2.2h-.3Zm-1 1-.3-.4h.3v.3Zm1.3-1.4h-.1v-.1h.1Z"/><path fill="#93282D" d="M74.3 45.2H74V45l.2.2ZM72 47.9l-.2-.5.7.1-.5.4Zm2.4.5-.7.1.2-.6.3.1.2.4Zm-.4-.7-.5-.2.3-.4.3.3v.3Z"/><path fill="#93282D" d="m73.5 48.4-.3.2-.3-.2.2-.5.4.5Zm-.5-1.2-.3.6-.3-.3-.2-.3h.8Zm-.9-.6-.4.3v-.5l.4.2Zm-.2 1-.3.7-.5-.6h.8Zm3.3.2.3.5h-.7l.4-.5Zm-.7-.7.5.2-.4.5V47ZM71 46h.3l-.2.3-.1-.4Zm-2.2 0 .4.2-.3.3v-.4Zm5.4 1.8-.7.3v-.8l.7.5Zm3.1 0-.5.1v-.4l.5.3Zm-2.7-1.2H74l.2-.5.2.5Zm-1.4-.4-.1.2-.1-.3h.2Zm.7.2v-.2l.3.2h-.3Zm1 1.7V48l.2.1-.3.2Zm1.1-1-.1.4-.4-.4h.5Zm-2-.3-.4.3v-.6l.4.3Z"/><path fill="#93282D" d="m73.3 46.9-.4.2v-.5l.4.3Zm-1.2.6-.4.2v-.5l.4.3Zm3.2-.2-.1.2-.2-.2h.3Zm-.7-1v.3h-.2l.2-.3Zm0 1.2H74l-.1-.2.5-.6v.8Z"/><path fill="#93282D" d="m74.6 47.6-.1-.2h.2v.2Zm.4-1h.2Zm-.7-.9v-.1l.2-.1-.2.2Zm1.3 2-.2.2-.1-.3.3.1Zm1.8-.8v.3l-.2-.1.2-.2Zm-1.5 0v-.3l.4.3H76Zm-3.4 1 .3-.4.3.5h-.6Zm2.5-.5v-.3l.2.2-.2.1Zm2.7-1-.2.3-.1-.3h.3Zm-6.4-.9v.2l-.2-.2h.2Zm3.7.5h-.2l.2-.2v.2Zm-.4-.1v.2l-.3-.1.3-.1Zm3.8 5.8h.8l-.3.8-.5-.8ZM72 46.2h-.3l.2-.3.1.3Zm-3.2 1.2h-.5l.4-.6.1.6Zm-1.6-2.2v.2l-.2-.1h.2Zm2 .2-.1.3-.2-.2h.2Zm.8 2.8-.1-.6.6.2-.5.4Zm1-.1-.1-.3h.3l-.3.3Zm-.2-.7v-.3l.2.1-.2.2Zm6.7 2-.1-.8.7.2-.6.7Zm-.2-.8v-.8l.6.4-.6.4Zm-7.9-1.7-.2-.4h.4l-.2.4ZM68 45.7v-.3l.3.1-.3.2Z"/><path fill="#93282D" d="M80.4 49.7v-.3l.2.2h-.2Zm-.9-2.4h-.2V47l.2.3Zm-8.3.3-.2-.7.8.1-.6.6Zm-1.3-.6.6-.3v.7l-.6-.4Zm-.9 1 .5-.2v.6L69 48Zm-2.8-.6.5-.4.1.7-.6-.3Zm4.6.4h-.5l.2-.5.3.5Zm8-.2v.2-.2Zm.8 1.9.1-.1.2.1h-.3Zm.8.8v-.1.1Zm.5-.7.1-.2.1.2H81Zm-1.6-1 .2-.1.1.2h-.3Zm0-.5-.1-.2h.1v.2Zm-9-1.8-.2.2-.1-.3.3.1Zm8.5 3.8.3-.2v.3l-.3-.1Zm-.6.2.3-.3.2.6-.5-.3Zm.1 1 .4-.3v.6l-.4-.3ZM68.5 48l-.1-.2h.3l-.2.2Zm-.3.2-.4-.1.5-.2v.3Zm2.8-1.4-.4.1.1-.4.3.3Z"/><path fill="#93282D" d="m70.5 46-.4.2v-.4l.4.3Zm5.4.7h-.5l.1-.5.4.5Zm-7.4.9-.3.4-.3-.5h.6Z"/><path fill="#93282D" d="m68 47.3.3.5h-.5l.2-.5Zm1.6 1 .3-.2v.3l-.3-.2Zm-.5.1h-.6l.2-.5.4.5Zm1.5.2-.7-.1.6-.6v.7Zm8.3 1.7-.2-.1.2-.2v.3Zm-.7-1.1.5-.2v.7l-.5-.5Zm1.6 1.5h.3l-.1.3-.2-.3Zm-1.7.4-.2-.5h.7l-.5.5Zm1-1.6V49l.4.3-.4.2Zm.2 2-.4-.2.3-.4.1.5Zm-1.7-2 .8.2-.5.8-.3-1Zm1.3-.8-.4-.2.4-.2v.4Z"/><path fill="#93282D" d="M78 48.3h.4l-.1.5-.3-.5Zm.8 1.4.3-.3.2.4-.5-.1Zm1.4 1.4.2-.1v.3l-.2-.2Zm-12-4.4v-.1l.2.1h-.2Zm-.8 0v-.1l.2.1h-.2Zm-.2.5.2-.3.2.4-.4-.1Zm13 4.6.2-.1v.2l-.2-.1Zm-2-4.2.2.2H78v-.2Z"/><path fill="#93282D" d="m79.3 52.8-.1-.5.6.1-.5.4Zm.7-.8-.1-.3h.3l-.2.3Zm-.5 0-.1-.3h.4l-.3.4Zm.3-.7h-.4l.3-.5.1.5Zm-9.8-4-.5.1V47l.5.4Zm-1 .4.4-.2v.4l-.3-.2Zm-.2.2-.1-.5h.5l-.4.5Zm-1.8 0 .5-.5v.6H67Zm2.3-.9-.3.2v-.3l.3.1Zm-.7-1.2h-.2v-.2l.2.2Zm11.6 7H80l.1-.3.1.3Zm-10.7-7h.2l.1.1h-.3Zm-2.5 1-.4.1v-.5l.4.3Zm0-.6.3.1-.3.3v-.4Zm-.6.8-.4.1v-.5l.4.4Zm-.3-2.1H66v-.1h.2Zm.3 1.2H66l.2-.3v.3Zm-.7.1V46l.3.2-.3.1Zm1.9.9v-.4l.4.3h-.4Zm.6.4-.3-.2.4-.2-.1.4Zm-.6.2.1-.3.3.3h-.4Zm-.5-.3v-.3l.4.3H67Zm-.1-1.6h-.3v-.2l.3.2Zm1 .3h-.2V46l.2.2Zm11.9 4.4.1-.3.2.2H80Zm.3 1.2-.1-.2.3-.1-.2.3Zm-.6-1.3-.2-.3h.4l-.2.3Zm0 2.7.3-.1v.3l-.3-.2Zm.5.1.3-.2v.4l-.3-.2Zm-2.3-5.5-.5.2.2-.4.3.2Zm-9.7-1.1h-.2v-.2l.2.2Zm12.5 5.8h-.2l.1-.2v.2Z"/><path fill="url(#e)" d="m29.2 233.2 13.1-44.5L60.7 131h10l25.2 16.9L69 204c-1.4 3.2-10.4 28.6-12.6 35-.3.8-1.1 1.3-2 1L30 234.4c-.5 0-.8-.6-.7-1.2Z"/><path fill="url(#f)" d="M70 201.4s-2.4-20-8.5-31.7c-5.3-10.4-10-9.5-10-9.5l8.3-26L80 181.1l-10 20.3Z"/><path fill="#111723" d="M63.7 204h.5l-.2.6-.3-.6Zm8.7-9-.4-.4h.7l-.3.5Zm-5.6 0 .4.4-.6.2.2-.6Zm.3 4.2v.2h.1l.2.5h-.7l.1-.2h-.1l.4-.5Zm1.4-2.8h.6l-.2.4-.4-.4Zm-4.4.9.2-.5.3.3-.5.2Zm6 .8.2-.3.1.5v.3h-.3l-.2.2-.1-.4-.1-.4.3.1Zm-1.6-4 .2.6H68l.5-.6Zm-3.1 5 .5-.2-.1.7-.4-.5Zm-10.5 34.8-.9-.1.5-.8.4.9Zm-.5 2.2-.4-.4h.6l-.2.4Zm-5.4-1.4-.6.3v-.6l.6.3Zm3 1.5-.4-.2.4-.4v.6Zm-1.4-4.3-.3-.5h.6l-.3.5Zm-.7-1.4v-.6l.7.3-.7.3Zm3.7 1.2-.5-.2.4-.4v.6Zm-1.7-4.8.5.1-.3.4-.2-.5ZM57 237l-.3-.4h.5l-.2.4Zm.5-9v-1l.6.2-.4.3.5.4-.3.1 1 .2-.8.8-.3-1-.3.1Zm-2.2 4.8v-.7l.7.5-.7.2Zm4.2-9.7.7.6-.7.2v-.8Zm2.5-6.6-.1.6.4.3-.8.2v-.6l-.3-.4h.8Zm-4.7 6.8v.5l-.6-.1.6-.4Zm-4 4.4-.3-.6h.6l-.3.6Zm18.2-31.3.5 1.4-1.3-.2.8-1.2Zm2.5-3.2-1 1-.5-1.5 1.5.5Zm0-2.2.5 1.7-1.5-.2 1-1.5Zm-10 19.7.2 1.7-1.4-.5 1.2-1.2Zm-5.4 17-.2-1.6 1.4.5v-.6l.8.4-.6.2-1.4 1Zm1.8-6.8.3 1.7-1.5-.5 1.2-1.2Zm-4.2 15.4-1.4-.5 1.2-1.3.2 1.8Zm0 2.9-1-.3.9-1v1.3Zm-3.3-.5-1.1-.4.9-1 .2 1.4ZM66.1 196l-.7-.1.4-.7.3.8Zm1-4.2h.7l-.3.5-.4-.5Zm-4.6 1.5-.5.3v-.7l.5.4Zm10-1.8-.7-.4.8-.6v1Zm-9.3 14 .4-.4.5.6h-.5l-.3.4-.3-.5h.2ZM63 202l.5-.3v.5l-.5-.2Zm6.7-9 1.2.6-1 .7-.2-1.3Zm6-3.1-1 .6-.2-1.2 1.1.6Zm-14.1-47.4.8.5-1 .4.2-.9Zm1.7 9.4-.7-.5.8-.4-.1 1Zm-1.1-7-.6-.4.7-.5-.1.8Zm-5.6 8.1h.5l-.2.5-.3-.5Zm3-.3v-.5l.4.4h-.4Zm-2.7-2.8v.4l-.5-.2.5-.2Zm1.8 8.8h.5l-.3.5-.2-.5Zm3.3-.5-.4.1v-.4l.4.3Zm-3.1-2.6v.4l-.5-.2.5-.2Zm1 1.9-.4-.4h.6l-.3.4Zm3-1-.4.2v-.5l.4.4Zm-3-2.2-.5-.2.4-.2v.4Zm1.7-2.8v-.1l.4.4-.8.2.1-.9.4.4Zm-1.8-.6-.4-.2.4-.2v.4Zm2.8 3.1-.5-.1.3-.4.2.5Zm1.4-.1-.3-.3.4-.2v.5Zm0-3.9v-.5l.1.1v-.2h.4l-.2.3h.1l-.3.3Zm-2.5 3-.3-.6h.7l-.4.6Zm3.9-1.2.4.5h-.6l.2-.5Zm-3.4-3-.5-.4.5-.2v.6Zm-1.8-1 .4.3H60l.2-.4Zm2.3 2.4-.2-.3.3-.2v.5Zm0-3.9v-.4l.4.1-.3.3Zm.2.3.7-.5v.9l-.7-.4Zm-1.6-5.8.7.5-.6.3v-.8Zm1.7 3.8.2.4h-.5l.3-.4Zm-1 1.3-.2.4-.3-.3.4-.1ZM63 148l-.2-.4h.4l-.2.4Zm1.5 3 .8-.5-.2 1-.6-.5Zm1.2 3.9.8-.4-.2 1-.6-.6Zm-.2-2 .8.6-.7.4v-1Zm1 3.1.8.6-.7.4v-1Zm-4-1.7h-.6l.1-.4.4.4Zm2 1.6-.2.4-.2-.3.4-.1Zm0-3.4-.2-.4.4.1-.3.3Zm-3.8-2.9.3.4h-.5l.2-.4Zm-1.4-.4.2-.6.6.5-.8.1Zm1.4 1.6.4.3h-.5l.1-.3Zm.3 3.4v-.4l.3.1-.3.3Zm9.3 20.2.8-.5-.2 1-.6-.5Zm-.7 1.7v-.6l-.4.5-.3-.6h.7l.6.4-.6.3Zm-5 .5-.3-.5h.6l-.3.5Zm2.6-1 .1-.4.3.3-.4.1Zm-2.7-2.2-.4-.2.4-.3v.5Zm2.3 8.8-.3-.4h.6l-.3.4Zm2.8-1.3.3.3-.4.1v-.4Zm-2.9-2.3v.4l-.4-.1.4-.3Zm1 2-.3-.5h.5l-.3.4Zm2.6-1v-.4l.4.3-.4.1Zm-2.8-2.7v.4l-.4-.1.4-.3Zm2.1-2-.8.2v-1l.8.8Zm-2.2-1.4v.4l-.4-.2.4-.2Zm6 1.6-.5.1v-.9l.5.3-.3.2.3.3Zm-3.8-3.4-.6-.3.6-.2v.5Zm.4 5.5h.1-.1v.6l-.8-.5.5-.3.1-.2h.2-.2l.3-.4.2.3.3.4H70Zm0-.2v-.1.1Zm3.3 2-.2.6-.4-.3.6-.3Zm-3.4-6.1.4-.3-.1.5-.3-.2Zm.1-4.1.5.2-.4.2v-.4Zm.9.3v.8l-.6-.3.6-.5Zm1.1 2.3.7.5-.6.3v-.8Zm-.2 1.4-.1-.4h.4l-.3.4Zm-1.5-2.1.5-.2-.2.5-.3-.3Zm1.8 3.2.9-.4-.2 1-.7-.6Zm1.3 4 .9-.5-.2 1-.7-.5Zm-.1-2 .8.5-.7.5-.1-1Zm1 3 .8.6-.7.5-.1-1Zm-2 0-.1.4-.4-.3.5-.2Zm.1-3.7-.3.3-.1-.5.4.2Zm-4-2.3h.1l.4.3h-.5v-.2h-.2l.1-.3.2.2Zm-.8-.7-.8.2.3-.7.5.5Zm.8 1.7.3.4h-.3v.3l-.4-.3.3-.2v-.2Zm.4 3.4-.1-.4.3.2-.2.2Zm-3.5-4.7.2-.6.4.5h-.6Zm2.7-2.3-.1-.6.5.2-.4.4Zm2.4 15.1v-.6l-.4.5-.3-.6h.6v-.2l.1.1.5.3-.5.5Zm-5.3 0h.6l-.3.5-.3-.4Zm3-1 .3.4-.4.1v-.4Zm-2.8-1.7-.4-.2.4-.2v.4Zm4.4.7.7.8-.8.2v-1Zm1.3 2.3.2.5h-.6l.4-.5Zm1-2.9.6-.2-.2 1-.7-.6.3-.1h-.6l.3-.5.4.4Zm2.5 2.5-.4-.3.5-.3v.6Zm0-4.6-.2-.5.5.2-.3.3Zm-.7 3.2.4.5-.5.1.1-.6Zm-3.4-2.9-.5-.3.6-.2v.5Zm0 5.6.1-.4.4.4h-.5Zm2.3 1.7.4-.2v.5l-.4-.3Z"/><path fill="#111723" d="m67.4 164.5-1-.9 1.4-.6-.4 1.5Zm4.4 26.5-1.4-.5 1.1-1.3.3 1.8Zm-5.7-32.1-1-.8 1.3-.6-.3 1.4Zm-2.6-11.5 1.1 1-1.4.3.3-1.3Zm-.5 11-.8-.8 1.1-.5-.3 1.2Zm6.5 9.7 1.4-.5-.4 1.4-1-.9Zm5 14.7 1.3-.5-.4 1.4-1-.9Zm-12-17.1v-.6l.4.3-.4.3Zm-5-7 .4-.7.7.7h-1Zm4.5 3.5-.6-.4.7-.4-.1.8Zm0-6.6-.2-.8.7.3-.5.5Zm-1.4 23.6-.3-.4.6-.1-.3.5Zm2.8-1.2.3.3-.4.1v-.4Zm-2.8-2h-.4l.3-.3.1.4Zm1.8 8.5h.1l-.2-.2.5-.2-.2.4h.4l-.3.5-.3-.5Zm3.4-.5-.4.1v-.4l.4.3Zm-3.1-2.2-.4-.2.4-.2v.4Zm.6 1h.5l-.2.4-.3-.4Zm3-.8.4.3-.4.1v-.4Zm-.4-1.8v.5l-.8-.5.6-.3v-.1h.3v.2l.1.2H66Zm2.3 2-.4-.3.4-.1v.4Zm0-3.8-.2-.5.5.2-.3.3Zm-3.4 1.7-.1-.4.3.1-.2.3Zm-3.3-4.8.1-.5.5.4h-.6Zm3 2-.4-.3.4-.2v.5Zm-.3-4.3v-.5l.4.2-.4.3Zm-2.9-.6h.8l-.4.5-.4-.5Zm3.8-.3.2-.6.4.5-.6.1ZM62 169l-.6-.2.6-.3v.5Zm-3.5-7.3-.3-.7h.8l-.5.7Zm4.3-1.7.5.6-.7.1.2-.7Zm-4-3.2-.8-.2.7-.4v.7Z"/><path fill="url(#g)" d="M100.2 130.9c3.1 14 9 40.3 11.4 47.5 2.2 7 19.3 37.9 23 44.6.3.8.1 1.7-.6 2.2L111.6 241c-.7.5-1.7.3-2.2-.4-4.3-7-23.1-37-27.5-45.6-2.3-4.6-3-8-5.6-15l-17.4-49h41.3Z"/><path fill="#43566D" d="M85 140a18 18 0 0 0 7.8 2l-2.6-11 1 .2c0 .4 9.7 41.9 10.8 47.9 1.7 8.7 22.8 42.7 23 43l-.7.4s-5.4-8.7-10.9-18.2a116.9 116.9 0 0 1-12.2-25.1c-.7-4-5.2-23.6-8.2-36.5h-.3c-1.2 0-4.2-.2-8-2.2a12 12 0 0 1-6.3-9.6h.8c0 .2.4 6.3 5.8 9Zm-25.7-9.1 18.7 54-.1.5h-.2c-.1 0-.2 0-.3-.2l-18.8-54.3h.7Z"/><path fill="url(#h)" d="M105.3 153.9s-9.7-4.3-17-5.7c-19.9-3.9-22.8 1.5-22.8 1.5l-6.3-18.8h41l5.1 23Z"/><path fill="#535F87" d="m99.6 149.4-.7-.5.8-.3-.1.8Zm4 4v.9l-.9-.6 1-.3Zm-.8-7.6v.2l-.7-.6.9-.4-.1.4.3-.1-.2.7-.2-.2Zm4.7 18.6.2-.2.6 2.1h-.9l.6.4.2.1-.8.4h.4l-.4.3-.4.4v-.7l.1.2v-.3h.3v-.2l-.3.1v-.5l-.4.5-.2-.4-.7.4v-1.2h.1-.2v-.5h-.3l-.1.1-.1-.1-.7-.1.8-1.5v-.1l.8-.9-.8-.7 1-.4-.8-.1-.2.2-.2-.3-.2.5-.8-.8 1.2-.5v.2l1.3-1.2v.4l.2.8.2 1-.5-.1v.6l.5-.5.6 2.1h-.1v.5Zm-1 2.1h.6v-.3l-1.2-.2.6.5Zm-1-2.6.4 1 .2-.4.6.7.3-.3h-.1v-.2l-.4-.4.4-.1-.8.3v-.8h-.3l.1.3h-.4Zm2 0-1-.2.5.4.6-.3Zm-9.7.7v-.9l.8.6-.8.3Zm3.4-6.9.4.3v-.5l.9.8-1 .4v-.2l-.3.2v-1Zm8.3 15.6.6.5-.6.3v-.8Zm-8.9-36-.6.3v-.8l.6.6.5-.6.1.8-.6-.2Zm-1.8 3.9.3-.4.1.4h-.4Zm1.9-.2h-.5l.4-.4v.4Zm-1.4-1.3h.4l-.2.4-.2-.4Zm1.4-1.1-.2-.4h.5l-.3.4ZM93 149.8l.3.4h-.4l.1-.4Zm.6-1.6-.3-.2.4-.1v.3Zm-2.5 1-.3.2v-.3l.3.1Zm10.5-10v.4h-.4l.4-.5Zm-3 3.4h.4l-.2.5-.2-.5Zm5.7 21.2.6.4-.6.3v-.7Zm-3.6.6-.3-.5h.5l-.2.5Zm2.6-5.9h-.7l.3-.6.4.6Zm.2-1.2h-.6l.3-.6.3.6Zm-5.4 4.3.2-.5.4.5h-.2.3l-.5.5-.2-.5Zm3.8-.7.1.2.2-.4.4.5h-.5l.1.2-.5.1.2-.6Zm-3.2-2.5-.5-.2.5-.3v.5Zm6 1.5h.4v-.5l.9.8-1 .3v-.3l-.1.2-.3-.5Zm-.1 8.1-1.1.2.3-1.1.4.5v-.2l.5.5h-.2v.1Zm1.2 3.6.1-.1v-.2h1.1l-.6 1.2-.3-.8-.3 1-.7-.6.9-.3-.2-.2Zm-5-12-.4.3-.1-.4h.4Zm-.4-6.5v-.5l.4.1-.4.4Zm-1 1.7H99l.2-.3.2.3Zm2.9-.2-.2-.2.3-.1-.1.3Zm-5-5.7v-.4l.3.1-.3.3Zm-1.5 1.7.2-.1-.1-.4.4.2-.2.2v.1h-.3Zm5-2h-.4l.2-.2.2.2Zm.7-5.5.2-.2.2.6h-.5v-.1h-.2v-.4h.3Zm-1.1 1.6.2.2h-.3v-.2Zm2.3-.1.3-.2v.3l-.3-.1Zm-9.5 9.4-.4-.3.4-.2v.5Zm2 3.2v-.3h.3l-.3.3Zm2-3H97l.2-.3.2.2Zm-1.6 8.8h-.3l.2-.4.1.4Zm1-3.2-.3-.3h.4l-.2.3Zm10 12.7v.6l-.5-.3h.1l.4-.3Zm1.6.2v.6l-.4-.3.4-.3Zm1 1.7v.2-.1.1l-.1-.2-.4-.3-.3.7-.6-.5.9-.4.7-.4-.1.8h.2l-.2.1Zm-2.5-6.2-.3.2v-.4l.3.2Zm-5-4.1.7.6h-.3l.4.6h-.8l.3-.5h-.6l.3-.7Zm1.5 1.7h-.3l.2-.5.2.2.4.4h-.5v-.1Zm4.1 8.8-.6-.6.9-.4-.3 1Zm2 4-.6-.6 1-.4-.4 1Zm-4.8-7 .4.1-.3.2v-.4Zm-5-6.7.3-.6.4.4v.2l-.3.4-.1-.4h-.3Zm3.5 2.6-.5-.3.4-.2.1-.2.4.5h-.4v.2Zm0-5.6.6.2-.5.4-.1-.6Zm-3.5-14.3.4.3-.6.2.2-.5ZM99 152v.5l-.4-.3.4-.2Zm2.8-2.3.2-.5.3.3-.5.2Zm-.5 3.9v.5l-.4-.3.4-.2Zm.6-1-.7.2v-.6l.7.4Zm-1-5.8v-.5l.4.3-.5.2Zm-.5 4v.6l-.5-.3.5-.2Zm1.2-1.2h-.5l.2-.6.3.6Zm-3.9-1.8.5.2-.4.4-.1-.6Zm2.9-1h-.5l.2-.4.3.4Zm-3.3-1.4.4.1-.4.4v-.5Zm3.7-1.4-.2.7-.5-.5.4-.2v-.1l-.2-.2.5-.1v.1l.2.3h-.2Zm-.7 4.8-.5-.3.4-.3v.6Zm1 1 .3.4-.5.1.2-.5Zm-1 5-.4-.4.4-.2v.6Zm7.6 24.6.7.5-.7.3v-.8Zm-.9-3.7.7.5-.7.3v-.8Zm4.4 12.3.7.3-.6.4-.1-.5-.3.5-.3-.6h.6v-.1Zm-2.9-7.6.5.3-.5.3v-.6Zm-.6-2.5.4-.3v.4l-.4-.1Zm-2.3 3-.2-.3h.4l-.2.4Zm-2.1-1-.2-.5h.5l-.3.4Zm2.8-.7.1-.4.3.3-.4.1Zm-2.5-2.5-.4-.3.4-.1v.4Zm-1.1-.8-.3-.4h.6l-.3.4Zm2.8-1 .3.3-.4.1.1-.4Zm-3-2.3.4-.2v.4l-.4-.2Zm4 17.2-.3-.4.6-.2-.2.6Zm2.6-1.2v-.5l.4.3-.4.2Zm-3-2h-.5l.4-.4v.4Zm3.6 8-.2.5-.3-.4.5-.1Zm2.3-.7v-.4l.4.3-.4.1Zm-3-2.3v.4l-.4-.2.4-.2Zm1 1.7-.3-.4h.6l-.3.4Z"/><path fill="#535F87" d="m128.6 212.9-.6.5-.2-.7-.8-.2.2-.3-.7.3.3-.7.4.3.3-.3-.3-.1h-.4l.1-.2h-.1l.4-.4.3-.3v.7l.5-.5 1 1.7h-.6l.2.2Zm-1.2-1.1Zm-7.3-5-.8.2.2-.6.6.4Zm-2.3.7.1-.5.5.3-.6.2Zm3 1.3.2-.2-.6-.3.6-.6.2.8.3.2h-.3v.3l-.4-.2Zm-.9 11.8-.3-.4.5-.2-.2.6Zm-.6-3.1h-.4l.4-.4v.4Zm4.5 0 .5.4v-.2l.4.3.5.6h-.4l.6.3-.6.4v-.5l-.4.5-.3-.6h.6-.1l.1-.6-.8.4v-1Zm.9.6h-.1Zm2.4 1.6-.4-.2.4-.3v.5Zm-.9-4.2.5.1-.3.3-.2-.4Zm1.8 2.6v-.6l-.2-.4.6.2-.3.3.4.3-.5.2Zm1 4.3-.5-.3.4-.4v.7Zm-1.2-.2-.3-.2.3-.3v.5Zm-.3-4.1-.3.3-.1-.4.4.1Zm-2.8 2.6v.4l-.6-.1.5-.5v.2l.5-.3v-.1l.3-.1h-.2l.3-.4.1.3.4.3-.5.1v.2l.7.6-1 .4v-.6l-.5-.4Zm.7-.4v-.2.2Zm-1.2.4-.2-.4.4.1-.2.3Zm-3.5-4.3-.6.2v-.5l.6.3Zm2.3 1.5.3-.3v-.1l.3.3h-.2v.3l-.4-.2Zm-.6-4-.2-.5.5.1-.3.3Zm-14.9-38.6-.3-.6h.7l-.4.6Zm.4 5.2v.6l-.6-.1.6-.5Zm-3.3-12.5.1-.2.2-.3.1.2.3-.1-.1.6-.3-.2h-.3Zm-.8 4.5-.4-.4.4-.2v.6Zm11.6 22.4h.9l-.2-.8 1 .2-.7.6-.1.2h.4l-.8 1.2-.1-.5-.4.2-.2-1.2.2.1Zm-.9 1.9v-.2l.7.5h-.3l.1.2-1.3.5v-1.5l.8.5Zm-2.9-.8-.7-.2.7-.4v.6Zm7 3.2v.5h.6l-.2.4.1 1-.8-.4.5-.4-.4-.5-.4-.2.6-.4Zm-1.1 3-.8-.4.5-.5.3.8Zm2.1-1 .2.9-.7-.4.5-.5Zm2.3-.2h-.5l.5.4-.7.4v.1h-.1l-.4.1.1-.6-.2-.4-.1.4-.4-.6h-.3l.2-.3-.6-.9h.3v-.5l.7.4h.4l.4-1.1.7 1.4h-1v.3h.4v-.2h.5l-.1.4.4.5-.2.2Zm-4.4-3.7-.2-.5.6.2-.4.3Zm-1.6 3h-.3l.4-.6.4.7-.5-.1v1.5l-1.2-.7 1.2-.8Zm-14.6-55.1.3-1.4 1 1.2-1.3.2Zm2.4 28h.1l.3-.1-.3-.1.6-.5.1.7-.4-.1v.3l.1.4h-.3l-.2.6-.8-.8.8-.4Zm-1.4.2-.1-.5.5.3-.4.2Zm-3.2-6.8h-1l.4-.7.6.7Zm3-3.6.6.4-.5.4-.2-.8Zm-2.1-17.6-.7.3-.3.1v-1.1l1 .7Zm1.5 2.3h-.5l.2-.1-.4-.4 1-.4h-.2v-.7h-.1l.1-.1v-.4l.3.3h.1l.2.1v-.3l.5.4h-.3v.2l-.6.2.2.1-.4 1.3-.1-.2Zm1.4-4.6.2 1.3-1.1-.4.9-.9Zm-.4 13.8-.6-.6-.3.2v-1l.6.4.8-.3-.5 1.3Zm-.4-3.1-1.1-.7 1-.6v1.3Zm1 .3.2 1.3-1.2-.8 1-.5Zm-3.3-4.8.9.6-1 .4v-1Zm-6.2 9-.3-.5h.7l-.4.6Zm3.8-.8.1-.6.4.5h-.5Zm-3.5-4v.5l-.6-.3.6-.2Zm6 2.1v.2-.5l.4.2-.4.3.4.4v-.1l.5.5h-.2v.1l-1.1.3.3-1.4Zm-2-1.1-.1.5-.6-.2.6-.3Z"/><path fill="#535F87" d="m103.8 154.3-.1-.6.2.1v-.2h.3-.2l.6-.3v.5h-.1l-.3.2h.2l-.6.3Zm-4.1 3h.9v.1h.1l-.7.8-.3-.9Zm1.4-4.9-.8-.5.9-.3-.1.8Zm3.9 11.2-.1.1h-.1l-.4-.4h-.5l.3-.3-.4-.4.6-.2-.6.3v-1l.8.7.9-.4-.3.9h.1l-.3.7Zm-5.8-12.2H99v.1h-.4v-.1h-.3l.3-.6.5.6Zm2 2.6.7-.3-.2.6-.4-.3Zm-.9-4.8h-.5l.2-.6.3.6Zm4.7 3.5-.8-.1.6.4-1 .4v-.6l-.2.4-.2-.2-.9.4v-1l-.4-.3 1-.3-.1.2.5-.5v-.4l-.3-.4-.3.2v-.1l-.1.6-.2-.2.2.5h-1l-.5-.1.1-.2-.4-.3.6-.1.1-.4-.2-.4h.4v-.1l.1.1h.2v.1l.2.6.4-.3v-.7l-.9-.1 1-.9-.4-.3v.1l-.5.3v-.6l.3.2v-.3l-.3-.2.2-.1v-.1l.8-.3h-.2l.3-.2-.8-.2.2-.1-.6-.2 1.3-1.2.1.6h.1l.1 1 .1.4-.4-.1-.3 1 .5-.5.3-.2v-.1l.7 2.1-1.2-.1.4.4.4-.1.2-.1-.1.6.2-.2.7 2.3Zm-2-.1.4.4-.2-.3h.6v-.1l-.9-.2v.2Zm-3.6 1.3v-.2l.5.5h-.7l.1-.1H99l.2-.5.2.3Zm-1.7-1.9.7.8h-1.1l.4-.8Zm-1.7 1h-.9l.3-.7.6.6Zm3 3.1-.5-.4.5-.2v-.2h.2l.3.4H99v.4Zm0-6.6.6.3-.4.4-.1.3-.2-.2h.2l-.1-.8Zm2.5-8.2h-.2v-.7l.7.5.5.5-1 .3v-.6Zm-.2-1.3h.7l-.5.5-.2-.5Zm1.1 3v-.1.4-.1l-.1.2-.7-.6.3-.1v-.2l-.6-.4.8-.3v.5l.3.2.1-.1v.5Zm-1.6 0-.4-.5.7-.3-.3.7Zm-1.6 2.9.7.5-.6.3v-.8Zm-.1-3.3-.7-.1.5-.4.2.5Zm-3.9 4-.3-.6h.6l-.3.6Zm28 72.2v.8l-.5-.4-.2.2v-.5l.2.2.4-.3Zm10 4.6-1.2.4.4-1 .7.6Zm-3 1-1 .4.3-1 .7.7Zm0-4.2.6-.6.6-1 .5 1 .3-.5 1 1.7-2-.3.3-.4-1.2.1Zm1.2-.7.1.4.3-.4h-.4ZM120 207l.7.6v-.4l.3.1.4.3h-.6v.1l-.8.5v.3h-.4l.1-.2-.1.1.4-1.4Zm5.6 6v.1l-.8.3.4-1.2-1.2-.7 1.4-.4-.2 1 .9.7-.5.3Zm1.8 1.2-1.2-.7 1.3-.4-.1 1Zm-1.3.2.9.7-1.3.5.4-1.2Zm-7.6-10.7-.5-.3v-.1l-.1-.3 1.1-.4v.1l.3-.1-.2 1.4-.3-.2-.3-.1Zm1.9-5.7.3.4h-.2l.3.5h-.5v.2h-.2l-1-.1.4-.6-.2-.2.3-.1.1-.4-.7-.1v1.7l-.9-.6-.5-.4-.2-.3 1.7-.8v.2l.4-.4-.1-.2h.2l.5-.7 1 1.9-.6-.1v.1h-.1Zm-.5 0 .3-.1-.4-.1.1.2Zm-3.6-.7-.3 1.2v.1l-.9.6-.1-1.2.9.5-.7-.8 1.1-.4Zm2.6 12.1 1.2-.3-.4 1.3-.8-1Z"/><path fill="#111723" d="m63.1 132.3-.8-.4.7-.7.1 1.1Zm8.5 2.1-.2-1 1 .4-.8.6Zm-7.9-1.3-.3-.9.9.3-.6.6Zm8 8.2-.5.1v-.6l.5.5Zm.1-3.7v.5l-.4-.2.4-.3Zm-3.9 3v-.5h.4l-.4.5Zm10.7.4-.6.2.1-.7.5.5Zm.1-3.6v.5l-.4-.3.4-.2Zm-3.9 3v-.5h.4l-.4.5Zm2.3-.8h-.5v-.5l.5.5Zm0-3.7v.4l-.4-.2.5-.2Zm-3.8 3-.1-.6.5.1-.4.4Zm-3.7-1.3v-.5l.4.1-.4.4Zm4.4-1.8-.3-.5h.6l-.3.5Zm-2.2-.7v1.2l-1-.5.5-.3v-.1l.5-.3Zm2.4-1v-.6l.4.3-.4.2Zm-4-2H70l.2-.4.2.3.2.4H70v-.3Zm2.7 4-.8.1.3-.8.5.8Zm.6-4.2-.6-.4.7-.2-.1.6Zm-5.6 2 .6.2-.5.5v-.7Zm-.8 2.2-.4-.4.6-.3-.2.7Zm2.6-2.4.4.3-.4.3v-.6Zm-3.8-1.5.2.4h-.6l.4-.4Zm.4.4-.2-.9.8.4-.6.5Zm-5-1.3.2.8-1-.2.8-.6Zm3.5.4-.2.6-.4-.4.6-.2Zm.5 2.2v-.5l.4.3-.4.2Zm2.3-1.5.4.4-.4.2v-.6Zm4-1.2 1 .5-.8.6-.1-1Zm4.7 0 1 .7-.9.5-.1-1.1Zm-1 0 .1.8-1-.3.8-.6Zm3.6 0 .1 1-1-.3.9-.7Zm-4.4 5-.4-.3.6-.2-.2.6Zm2.6-2.2.4.2-.4.3v-.5Zm-3.7-1.1H73l.4-.5.1.5Zm-4 3.3-.3-.3.4-.2-.1.5Zm-1.3 1-.6-.5.8-.4-.2 1Zm2.6-.6-.3-.3.4-.2v.5Zm3.2.1.2.4h-.5l.3-.4Zm20.3 5h-.5l.1-.6.4.5Zm.1-3.3-.4-.2.5-.2v.4Zm-3.8 2.5-.2-.5.5.1-.3.4Zm9-1h-.4v-.6l.5.6Zm.2-3.7v.5l-.5-.3.5-.2Zm-3.9 3v-.5h.4l-.4.5Zm-2-3.4.5-.4v.2l.6-.3-.2.6-.3-.2v1l-1.1-.6.6-.3Zm-1.7 2.2-.1-.5h.4l-.3.5Zm4.1-2.3h.7l-.4.5-.3-.5Zm.5-2 .4.4-.3.3-.1-.6Zm-3.6-1-.5-.1.2-.3-.8.5-.2-1.7 1.4 1-.3.1.1.3.3-.4.2.4H93v.1Zm2.3 3.8h-.7l.2-.7.5.7Zm-5-2-.3.2-.2-.8 1 .2-.3.1.4.2-.5.5v-.4Zm1.8-.4.5.3-.4.2v-.5Zm-3.6-1.2H88v-.1l-.5-.2 1.2-.8v1.2h-.2Zm2 4.7-.6-.5.8-.4-.2.9Zm2.6-.7-.3-.3.4-.2v.5Zm3.2.2.1.3h-.4l.3-.3Zm-12.2 4-.5.1.1-.6.4.5Zm0-3.7v.5l-.4-.3.5-.2Zm-3.8 3-.1-.5h.4l-.3.5Zm9.1-1H89l.1-.6.4.5Zm.2-3.7-.1.6-.4-.4.5-.2Zm-4 2.4.5.1-.3.4-.2-.5Zm-3.7-1.2.5.1-.4.4-.1-.5Z"/><path fill="#111723" d="m86.5 135.6-.3-.5h.6l-.3.5Zm.3-1.8v-.5l.4.3-.4.2Zm-2.2 2.3.3-.8.4.7h-.7Zm-4.1-1.7v-.7l.5.3-.5.4Zm-.9 1.4-.4-.4.6-.2-.2.6Zm2.6-2.2.4.2-.4.3v-.5Zm-4.2-1.2.4-.4.2.4H78Zm4 3-.1.5-.4-.2.5-.3Zm-1.4 1.7-.6-.5.8-.4-.2.9Zm2.6-.7-.4-.3.6-.3-.2.6Zm3.2.2.1.3h-.4l.3-.3Zm10.9-2.5-.2-.5.5.2-.3.3Zm-3.8-2.4 1 .3-.6.6-.4-1Zm1.9 7.2-.5-.4.6-.4-.1.8Zm2.8-2.3-.1-.5.5.2-.4.3Zm-4.6-2 .3.6h-.6l.3-.5Zm-17.5-1-1.4-.4 1.2-.8.2 1.3Zm6.7-1.5h-.3l-.2-.1 1.2-.8.1 1.2-.8-.3Zm2.8 5.3-1.4-.4 1.2-.8.2 1.2Zm-.2-5.3.2-.6-.2-.1.3-.1v-.1h.4v.4l.2.4h-.9Zm-1 2.5-.1.5v1l-1-.5.3-.2-.5-.3 1.2-.5ZM80 140l-.1-.8.6.2-.5.6Zm6.8-2.5-.4-.8h1l-.6.8Zm-3.3-6.4h.8l-.5.7-.3-.7Zm3.2.5.8-.3v.7l-.8-.4Zm2.2 5.6-.1-.9.9.2-.8.7Zm1.1-5.8.8-.2-.2.7-.6-.5Zm-5.3 2.1.1.6-.6-.1.5-.5Zm-3 4.9-.5-.5.8-.3-.3.8Zm5.8.4-.1-1.2 1 .7-.9.5Zm7-5.4 1 .7-.8.5-.1-1.2Zm-2.7 2.9v.1h-.1l-.5.2-.2-1.6 1.5.9-.7.4Zm-2.4-5.2.5 1h-1l.5-1Zm-4.8 2.5-.2-1.7 1.4 1-1.2.7Zm3.2 1.7-.2-1.7 1.4 1-1.2.7Zm-6.8-2.5 1.2-.8v1.3l-1.2-.5-1.3.8-.1-1.7 1.4 1Zm13.8-1.6h1.7l-.7 1.3-1-1.3Zm-14.6 0H82l-.7 1.2-1-1.3Zm17.2 0h1.7l-.7 1.2-1-1.3Zm-27.6 0-1.2 1.2-.5-1.3h1.7ZM78 137l-.2-1.4 1.3.8-1.1.6Zm8.6 1.9.2.6-.7-.2.5-.4Zm-8.2.6-.6-.6.8-.3-.2.9ZM82 136l.7.4-.6.4v-.8Zm-5.2-1.5h-.7l.5-.6.2.6Zm17.6 8.3-.8.1.2-.8.6.7Zm.3-4.6v.5l-.7-.3.7-.2Zm-5 3.5-.2-.7.6.2-.5.5Zm-3.5 3.2h-.8l.2-.7.6.7Zm.3-4.7v.6l-.6-.4.6-.2Zm-5 3.5-.2-.7.6.2-.5.5Zm-.5-1.3-.9.1.3-.9.6.8Zm.3-4.9-.7-.4.8-.3v.7Zm-6 3.6-.1-.8.7.2-.6.6Z"/><path fill="#DA7F57" d="M30.1 89.3 28.4 88l-3.3-2.6c-.9-.7-6.3-9.4-6.3-9.4l4.8-2 5.9 3.8 2.5 4.6-1.9 6.8Z"/><path fill="#1F2B36" d="m20.4 68.7-2.6.6c-.5 0-.7.6-.4 1l9.3 11.5c.2.3.5.3.8.3l3-1c.5-.2.7-.7.3-1l-9.7-11.2a.7.7 0 0 0-.7-.2Z"/><path fill="#E89976" d="M43.4 91.3s-8.6-7.8-9.4-9.2c-.7-1.4-1-2.5-1-3.6-.1-1.1-1.8-2.2-2.8-3-1-.7-4.7-1.9-4.7-1.9s-.7.5.4 2.1c1 1.7 3.2 2.5 3.2 2.5l1.4 3 .6.9s-.7-.1-2 1.6c-1.4 1.7-.4 4.4-.4 4.4L37 99.5l6.4-8.2Z"/><path fill="#EA9D7D" d="M22.6 73.3c-.5-.9-1.9-.2-2.4.2-.5.3-2.3 1.2-1.7 2.2.6 1 1.4 1 2.6.3 1.1-.7 2-2 1.5-2.7Z"/><path fill="#CC7A5E" d="M19.7 76.6a3 3 0 0 0 1.5-.4 4 4 0 0 0 1.7-2v-1a1 1 0 0 0-.8-.5c-.7-.2-1.6.2-2 .5l-.4.3c-.6.3-1.4.9-1.6 1.5 0 .2 0 .5.2.7.3.5.7 1 1.4 1Zm2-3.5h.3c.2 0 .4.1.5.3v.6c-.1.6-.8 1.3-1.5 1.8-1.1.6-1.7.5-2.3-.3V75c0-.5.9-1 1.3-1.3l.4-.2a3 3 0 0 1 1.4-.5Z"/><path fill="#EA9D7D" d="M26.3 78.4c-.2-1-1.7-.9-2.4-.7-.6.2-3 .5-2.7 1.6.2 1.1 1.3 1.3 2.6 1 1.4-.1 2.6-1 2.5-1.9Z"/><path fill="#CC7A5E" d="M23 80.7h.9c1-.2 2-.7 2.4-1.3.2-.3.3-.6.3-1a1 1 0 0 0-.6-.7c-.6-.4-1.5-.3-2-.2h-.5c-.7.3-2 .5-2.4 1.2a1 1 0 0 0-.1.6c.2 1.2 1.2 1.4 2 1.4Zm1.8-2.8c.3 0 .7 0 1 .2.1.1.2.2.2.5.1.2 0 .4-.1.5-.4.5-1.2 1-2 1.1-2 .3-2.3-.3-2.4-1V79c.3-.6 1.5-.8 2.1-.9l.4-.1.8-.1Z"/><path fill="#EA9D7D" d="M27.4 80.8c-.2-.9-1.6-.8-2.1-.7-.6.2-2.4.4-2.2 1.4.2 1 .8 1.3 2 1.1 1.3-.2 2.4-1 2.3-1.8Z"/><path fill="#CC7A5E" d="m24.5 83 .7-.1a4 4 0 0 0 2.2-1.2c.2-.3.2-.7.2-1 0-.2-.2-.5-.5-.6-.5-.4-1.5-.2-1.9-.1h-.3c-.8.2-2.2.5-2 1.6.2 1 .9 1.3 1.6 1.3Zm2.6-2.1c0 .2 0 .4-.2.5a3 3 0 0 1-1.8 1c-1.3.2-1.7-.2-1.8-1 0-.5.8-.7 1.6-1h.4c.4-.1 1.1-.2 1.5 0 .2.2.3.3.3.5Z"/><path fill="#EA9D7D" d="M25 75.8c-.5-1-2.2-.6-2.9-.4-.6.3-3 1-2.6 2.1.5 1.1 1.6 1 3 .7 1.6-.4 2.8-1.6 2.4-2.4Z"/><path fill="#CC7A5E" d="M21 78.7c.6 0 1.1-.1 1.6-.3 1.1-.3 2.1-1 2.5-1.8a1 1 0 0 0 0-.9c-.5-1.1-2.2-.8-3-.5l-.3.1c-.7.3-2.2.8-2.5 1.6v.7a1.8 1.8 0 0 0 1.8 1Zm3.7-2.8v.5c-.3.6-1.2 1.2-2.2 1.5-1.6.4-2.3.3-2.7-.5V77c.2-.5 1.7-1.1 2.2-1.3h.3c.5-.3 2.1-.6 2.4.2Z"/><path fill="#10646C" d="M68.8 83.3s-5 6.8-8.6 10.2c-3.3 3.2-5.6 3.2-7.8 1.9a74 74 0 0 1-8-5.9c-.7-.5-.8-.6-1.2-.2l-10 10.3c-.5.4-.3.5.2 1.1 2 2.8 7.4 10.5 14.1 15 7.7 5.1 11.6 5.7 18.2 3 8.8-3.7 3-35.4 3-35.4Z"/><path fill="url(#i)" d="m49 93-13.4 11.2s8.5 9.8 13.8 12.7c3.7 2 10.5 6.2 14.1 1.6C70.9 109 68.7 83 68.7 83s-8.4 13.5-13.3 13.3c-3.5 0-6.3-3.2-6.3-3.2Z"/><path fill="url(#j)" d="M37.8 87a60.3 60.3 0 0 1-6.5 4.7l4 5.5 6.9-7-3-2.5c-.4-.3-.9-1-1.4-.7Z"/><path fill="#A05A3C" d="m36 95.2.6.3-.6.2v-.5Z"/><path fill="#A05A3C" d="m36 95.3 1.1.2-.8.7-.3-.9Zm-2.5-.8-.2-.3h.3l-.1.3Zm3-4.8.1.4-.4-.1.3-.3Zm-1.7 4.2h.4l-.1.3-.3-.3Zm-1.5-.5-.2-.5h.4l-.2.5Zm-1.7-2.7-.4.7-.4-.5.8-.2Zm1.7 3.5-.4-.5.7-.1-.3.6Zm-1.1-1.8.5.2-.5.4v-.6l-.1.2-.4-.6h.7l-.2.4Zm2.1.5.6.2-.6.3V93Zm0-2.2.4-.2v.6l-.5-.4Zm-.6 3.3.2-.8.4.6-.6.2Zm.5-2 .6-.2-.2.6-.4-.4Z"/><path fill="#A05A3C" d="m39.5 91.6.1.6-.6-.3.5-.3Zm-7.9.3-.3-.4.6-.1-.3.5Zm4.5 2.6v.7l-.2-.2v.5l-.5-.4.5-.2-.2-.2.4-.2Zm-3.3-1-.4-.4.7-.2-.3.7Zm3-2.6.1.6-.5-.3.5-.3Zm-.3 6.3-.1-1.2 1 .2-1 1ZM39 93l-.1-.8.8.5-.1-1.4 1.3.5-1.1 1-.8.2Zm-1.3.5.9.5-.8.4v-.9Z"/><path fill="#A05A3C" d="m35.1 96.8-.2-.3h.3v.3Zm3.5-5.8.2.5-.5-.1.3-.4Zm.6.1.2.2-.3.2v-.4Zm0-1h.2l-.3.3V90Zm-2 4.3-.3-.1.6-.3v.2l.3-.1v.4l.2.1-.9.9-.4-1.3.4.2Zm.3 0Zm-2.4.1h.3l.4-1.2.9.8-1.3.5-.2.3-.1-.4Zm5.6-4.1.3.2-.4.3v-.5Zm-4 2.6.4-.1-.1.3-.3-.2Zm.2-.5.2.3-.4.1.2-.4Zm-4.2-.5-.6-.2.6-.5v.7Zm.7-2 .5.2-.5.2V90Zm3 2-.4-.4.5-.2v.6Zm1.6 1.4-.4-.4.5-.2 1.4.1-.9.8-.5-1v.7Zm-3.7.7.4.6h-.3.5l-.4.5-.2-.5h-.1l-.2.4-.4-.5.6-.2.1-.3Zm-1.8-3.5.6.1-.5.4v-.5Zm5.5.8v.6l-.5-.3.5-.3Zm3-.7.2.7-.6-.3.5-.4ZM33.7 92l-.4-.5.5-.1-.1.6Zm1.2 4 .4-.2v.6l-.4-.2-.1.1-.5-.5.9-.2-.3.4Zm6.7-5v-.7l.5.3-.5.4Zm-3.7 1.6-.5-.3.5-.3v.6Z"/><path fill="#023E44" d="m58.2 100.8-.3-1 .8.2-.5.8Zm1-1.4-1-.5.8-.7.2 1.2Zm4.5-7.7-.3 1-.8-.6 1.1-.4Zm.3-.8-.3.8-.6-.4.9-.4Zm-4.4 6 .7-1 .5 1.1-1.2-.2Zm-6 9.5-.2.4.3.4-.5.1v-.4l-.2-.3.6-.2Zm-4.3 4v-.7l.6.4-.6.2Zm3.5-1.1h.5l-.2.5-.3-.5Zm-1.8 3.9.2.5-.6-.1.4-.4Zm.8-4.7.3.6-.6-.1.3-.5Zm4-8.2.5-.3v.6l-.5-.3Zm-5.4 7.4.4.2-.4.4v-.6Zm8.4-10.5h.5l-.3.5-.2-.5Zm4-2-.5 1.8-.6-.5.4.9L61 97l.3-.3H61V96l-.4-.4-.2-.1.8-.6.1.5h.9l-.8-.5.6-.4-.9-1 1.3-.1.1-.7.8.4-.5.2h.5l-.6 1.9-.3-.4v.5h.3Zm-5.4 8h-.8l.5-.6.3.6Zm-3.2 2.3v-.6l.4.3-.4.3Zm-.3-4.9.5-.2-.2.6-.3-.4Zm-3.8 5.5-.6-.3.5-.4.1.7Zm2.4 1.7.4.3-.5.2v-.5Zm-4.4 1.5-.3-.4h.5l-.2.4Zm9.2-5.6.9.7-1 .5.2.2h-.5l-.4.3v-.2h-.3l.3-.9.6.6.2-1.2Zm-1.5-1.5h.6l-.1.5-.5-.5Zm-4.4 4.3-.5-.4.6-.3-.1.7Zm1.1-4 .4.5h-.6l.2-.5Zm5.4.4.8.5-.9.4v-.9Zm2.1-3.8v-.5l.5.1-.5.4Zm-5 12.7.1-.2.7.4v-.3l.9.9h-1.1v-.2l-.7.4v-.5l-.3-.1.4-.4Zm-5.1-8.5.6.3-.6.3v-.6Zm4-.2-.4-.4.5-.2-.1.6Zm-1.8 4h-.6l.3-.5.3.5Zm1.3-2v-.5l.6.3-.6.2Zm-1.6-.1-.4-.5h.5v.5Zm2.7-2 .8-.6v1l-.8-.4Zm.7 6.8.2-1 .9.9-1.1.1Zm-1-1.3-.3.6-.3-.6h.6Zm-3.8 2.2v-.6l.5.4-.5.2Zm-2-7.8.4.5h-.7l.3-.5Zm3.3.6.5.1-.3.5-.2-.6Zm-2.9 3.2v.4l-.5-.2.5-.2Zm1.9-.2.1.5h-.5l.4-.5Zm4.3.3h.5l-.3.5-.2-.4v.2l-.5-.3.6-.3v.3Zm.6-3.2.1-.5.4.5h-.5Zm-5.9 5.4.8-.1-.4.7-.4-.6Zm2.8-3.4.3.6-.6-.2.3-.4Zm6.6.3-1-.3.5-.3-.5-.4 1-.5-.1.7v.8Zm-1.5 3.4-1.1-.2.6-.8.5 1Zm-1.3-.5-.1-1 .8.2-.7.8Zm.4.5.1.5v.1l.1.5-.9-.1.7-1Z"/><path fill="#023E44" d="m54.1 109.6-.4-.4.7-.1-.3.5Zm3.7 3.8-.5-.5.9-.3-.4.8Zm-.7.6.8-.3-.2.9-.6-.6Zm1.2 3.6v.8l-.8-.4h.2l-.5-.4v.3l-1.8-1.5-.4.1.2.3-1 .1.3-.5.2-1 1.3.9 1.4-.4-.2 1.3.4-.2.4-.3-.4-.3 1-.5-.2 1.1.1.3-.7-.2v.6l.5-.1Zm-2.5-11.3.3.5H55l.3-.6.3.5.2-.4Zm-4.7 4.7-.4-.3.5-.2-.1.5Zm1-3.5.3.4h-.5l.1-.4Zm2 4.2v-.5h.2v-.1H54l-.4.3v-.6l.5.2.2-.4.3.5h-.2l.3.2-.5.4Z"/><path fill="#023E44" d="M57.4 110.8v-.4l-.2.2v-.5h.4l-.1.2.4.2-.5.3Zm1.6.4-.2-.4h.3l-1.3-1.1 1.8-.4-.7-.5-.3.3v-.7l-.6-.4h.3l-.3-.3-.5-.2-.5.4v-1 .1l-.1-.7.5.2-.4.3.5.3.4-.5.3 1 .6-.3v-.2l-.6-.1.8-.6v.2l1.3-.6-.7-.4 1-.6-1.8-1.3.7-.1-.7-.3.8-.6-1-.4.6-.7h-.1l.1-.2-.5-.3-.2.5-.1 1-1-.5.8-.5-.2-.4-1-.3.8-.7.3.8h.6l.7-.6v.6l.3-.2.2.4.4-.3-.8-.7 2-.4-.7-1 .7-.3-.4-1-.4.7-.5-.7 1-.1 1.2-.1-.6 1.2.4-.2-.3 1.6-.1.3-.3 1.2-.2.2-.2 1.6v.1l-.3 1.8h-.1l-.2.8v.2l-.3 1.5-.6-.5-.3.7 1-.2-.3 1.9v.2l-.2 1.2v.3l-.4 2-2-1.4 1.6-.6Zm.6-9.5.1.2h.2l-.3-.2Zm.3-.3.2.5.4-.2-.6-.3Zm.8-.2v.5h.4l-.4-.5Zm.1 2-1-.5-.1-.1v.8l1.1-.2Zm-1.7 3.6v.1Zm-7.3 6.6.6.1-.4.4-.2-.5Zm-.6-4-.4-.3.5-.3v.5Zm4.8 2.3.3-1.2.8.7-1.1.5Zm1.8-6.6.6.9-1.2.2.6-1Zm-8.2 6.6.4.4-.5.1.1-.5Zm2.9 3.7h.5l-.3.5-.2-.5Zm5.4 0 .5.3-.9.6v-.6l-.5-.2.5-.3 1.3-1-.7-.3 1-.7v1.2l-.3 1.6-1-.5h.1Zm-2.3-.8.1 1.2-1-.6 1-.6Zm-.2-.8.7-.3.4-.3-.4-.3 1-.6-.2 1.2v.3l-.6-.3v1l-1-.7Zm-5.2.5.8.5-1 .6.2-1.1Zm3.6.1.3.8h-1l.7-.8Zm-1.8 0-.5.5-.4-1.2 1.2.4-.3.3Zm2.6-1h-.1v-.4l.6.2-.2.1v.4l-.3-.2Zm-.7 0-.6-.2.3-.3-.3.2.2-1.2.9.6-.7.4.2.5Z"/><path fill="#023E44" d="M56.5 114.7v-.5l.4.2-.4.3Zm-4 1.4-1-.2.6-.8.4.9.2-.2.2.4h.2v.2h.1l.4-.2-.4-.6h1l-.3.5h.2l-.2 1v-.1.1l1 .2-.5.7-.4-.7v1.3l-.1-.1-.3.5-.6-.6.6-.1-.5-.4h-.3l-.1-.2h-.1l-.2-.5-.2 1.2-1.6-.9 1.4-.8.5-.6Zm.6 1.2.2-.2.2.2.3-.2-.5-.6v.2h-.1l-.4.5.3.1Zm-.4 0-.2-.4v.3h.2Zm2.8.7h.3l-.5-.9 1 .1-.5.8h1.3l-.2.8 1.4-.4-.2 2-1.4-1v.5l-.6-.7h-.2l.2.3-.5.2v.2l-1.8-.6 1.6-1.5v.2h.1Zm0 .4Zm-1.6-4.3-.4-.4.5-.2-.1.6Zm-2.1 2.1-.3.3v-.1l-.5.3v-.6l.4.2-.2-.3.6.2Zm-.1-6.7.2.6-.6-.2.4-.4Zm-.9 3.3v.5l-.5-.4.5-.1Zm.6 2.7-.3.6-.4-.5h.7Zm-.8-3.2-.2-.5.6.2-.4.3Zm-1-1.4-.5-.4.5-.1v.5Zm-1 4.7.6-.4v.7l-.6-.3Zm-.6-.3.3-.5.1.2.6-.8.1.3.4-.4.4 1.1-.6-.2v.1l-.8-.1.1.2-.6.1Z"/><path fill="#023E44" d="M46 112.2v-.4h.2l-.9-.4.7-.7.3 1v-.3l.6 1h-1.2l.2-.2Zm1.1-.9 1 .3-.6.6-.4-.9Zm-.8 1.9-.2-.4.6.2.4-.1v.2h.3l1-.8.1 1-.8-.2v.6l.4-.3v1l-.1-.1v1.4l.7-.4.1 1 2-.8-.3 1.4h.4l-.4.7-.1-.2v.2l-1.5-1-1-.7-.3-.3h-.2.1l-.8-.6.9-.5-.2-.1-.1.1v-.3l-.4-.3-.3 1-1.4-1 1.1-.7Zm1.4 1h-.1l-.1.1h.2Zm.5-4-.2-.6h.5l-.3.5Zm1.7 2.1-.2.4v.2l-.5-.1.2-.3v-.2h.5Zm-4.2-.7-.4.3v-.2l-.4.3.1-.6.3.3v-.3l.4.2Zm.5-4.6.6-.3-.1.7-.5-.4Zm2.5 2 .3.4-.5.1.2-.4Zm-4.1 1-.2-.5h.5l-.3.5Zm-.3 2.5-.3-.9.8.3-.5.6Zm.6 1.3-1-1 1.7-.4-.7 1.4Z"/><path fill="#023E44" d="M43.1 111.2v-.9l-.5 1.3-1.3-1.3 1-.4-.2-.3.5.2.8-.3-.3.8.5.3.5-.3-.1 1v1.6l-1.4-1.1 1.3-.6-.3-.2-.5.2Zm-4.5-5-.1 1-.8-.7 1-.3Zm.5 2 .7-.6.1.7.7.2-.3.3.6-.1-.2.5 1.1-.3-.6 1.4-1-1-.5-.5h.2v-.3l-.8-.3Zm5.6-.8h.5l-.3.5-.2-.5Zm1 3.2.4-.3.2.5-.5-.2Zm-3.3-1.2-.4.2v-.4l.7-.9.5 1-1-.1.3.2Zm0-5 .6.2-.5.5-.1-.6Zm.6 3.3v.5l-.5-.3.5-.2Z"/><path fill="#023E44" d="m39.3 105.3.3.4h-.4v-.4Zm1.8 2.9.3.2-.5.3.2-.5Z"/><path fill="#EBFDFE" d="M101.2 130.2s2.2 8.2-11.8 8.2-31-8.2-31-8.2h42.8Z"/><path fill="#136870" d="M103.3 131.1v.7l.1.3H56.1l6.5-35.4c2-7.9 7-25.5 20.1-25.8 2.4 0 4.6.2 6.8 1.6l1.5 1c1 .8 4.3 4.6 7 19.4l5.3 38.2Z"/><path fill="url(#k)" d="M80.7 71.4S75 72.7 71.6 77c-3.2 4-3.1 24.6-3.3 36.4-.3 11.7 6 17.5 11.8 18 3.7.3 23.2.8 23.2.8s-1.1-10-1.4-16c-.7-13.3-21.2-44.8-21.2-44.8Z"/><path fill="#053C49" d="m83.5 102.8-.6-.8h1l-.4.8Zm1.2 1.4-1 .1.3-1.1.7 1Zm.8-1.8h-1l.6-1.1.4 1.1Zm2.4 2-.2 1-.8-.7 1-.2Zm1 .3-.1.6-.2-.2-.2 1.6-1.1-.9 1.3-.7-.4-.3.7-.1Zm-3 3.2.4-.4.2.5-.5-.1Zm-2.1.5.1.7-.5-.2.4-.5Zm1.9-2.8-.2.5-.4-.5h.6Z"/><path fill="#053C49" d="m81.1 106.5-.5.2.2-.5.3.3Zm4.8-1.4.6.2-.6.4v-.6Zm2.9-.4-.4-1.5-.3.2.2.4-1.4.1.5-1.5.4.6.1-1h-.1l-.1.2-.2-.2h-.4l.3-1 .6.7v-.4l1.6 1.2-.2.1h.3l-.3.7-.5-.5-.5.3.9.4.7-.7.1 1.2-.4-.2-1 .9Zm-7-1 .1-.6.5.3-.6.2Zm1 3.1h.6l-.3.5-.3-.5Zm4.1-2.2-.2-.5.5.1-.3.4Zm-1-.2-.7.6-.1-.8.9.2Zm8.2 9.2-.2-.9 1 .3-.8.6Zm7 15.1-.3-.8 1 .3-.8.5Zm-19.3-28 .8.7.6.2-.4.5.4.7h-1l.4-.8-.2-.5-.9.2.3-1Zm-2.2-1.5.2-1 1 .7-1.2.3Zm.6 1.6.2.6-.7-.1.5-.5Zm-3.4.2-.2.5-.3-.5h.5Zm3 3.9-.6.1v-.5l.5.4Zm3.7 6 .1-.8.5.5-.6.2Zm.2-3.9.5-.2v.5l-.5-.3Zm-3.6 2.9-.1-.6.4.1-.3.5Zm-.2-9.7 1.1-.7v.4l.4-.2-.3 1-.2-.3-.2.7-.9-.7-1-.8 1.3-.2-.2.8Zm.2 6.3v-.6l.5.3-.5.3Zm1.3-2.9h.7l-.5.6-.2-.6Zm3.7-.3.4.5h-.6l.2-.5Zm-11.4-2.1H73l.1-.5.6.5Zm2.6 2-.4-.2.5-.3v.6Zm-.5-4.5-.2-.5.6.1-.4.4Zm15.5 8.5h-1l.5-1 .5 1Zm2 3-1-.9v.2H92l.3-.6.1.4 1.3-.8-.3 1.6Zm-2.8-1.3-1-.8 1.3-.7-.3 1.5Zm3.6 5 1 1.2h-1.6l.6-1.3Zm5.7 11.3h-1.6l.7-1.2.9 1.2Zm-13-22.7-.2 1.6-1-.8-.3.3v-.7l.4.2 1.2-.6Zm13.4 19-.3 1.6-1-.8 1.3-.7ZM92.5 107l.2 1.2-1-.3.8-.9Z"/><path fill="#053C49" d="M94 108.3h-1l.2-.5-.4.1.3-.7-.4-.5h.3l-.7-.2.6-.7-1 .4.3.2-.4.3-.1-.4-.5.3.2-.6h-.7l.5-1 .3.5.2-1-1.1.6v.1l-.4.5-.3-.4v.4l-.5-.4.5-.1-.2-.4h.4v-.5l.2-1.1 1.6 1.2 1.2 1.1v.7l.2-.6 1.4 1.4-1.1.4.4.9Zm.1 3-.6-.8h1l-.4.8Zm1.5-.4-.2.5-.5-.5h.7Zm-3.3-1.7.1-.6.4.3-.5.3Zm.4 4.6-.6-.3.4-.3.2.6Zm-2.8 0v.7l-.5-.2.5-.5Zm2-2-.2-.5h.6l-.3.5Zm-4.8-.2.2-.6.3.4-.5.2Z"/><path fill="#053C49" d="M92.8 114.7v.7l-.5-.2.5-.5Zm-2.5-2.7.3.3-.6.2.3-.5Zm2.2-1.2.6.4-.7.2.1-.6Zm3.6-.9.9-.6-.1 1.2-.4-.2-1 .6-.2-1.5-.4.2.2.4h-1.4l.1-.2h-.2l.5-.5.4-.8.3.7.4-1H95l-.1.2-.1-.2-.4-.1.5-1 .4.8v-.4l1.4 1.4-.2.1h.3l-.5.8-.4-.6-.6.2.8.5Zm-2.5.6-.2-.5.5.2-.3.3Zm-4.6-1.7-.5.5-.1-.6.6.1ZM78.6 97.7l-.2 1-.7-.6.9-.4Zm7.8 8.6.9.5-1 .4.1-.9Zm1.6.5.8.5-.9.4v-.9Zm7.5 10.8.9.5-1 .4.1-.9Zm-1.3-5.4-1 .4.1-.8.9.4Zm.6 4.5.8.4-.9.4v-.8Zm-13.5-11.4.5-.2-.2.6-.3-.4Zm-1.5 3-.5-.5.7-.4-.2.8Zm-1.4-4.2h-.7l.4-.5.3.5Zm9.9 9.3.2-.7.4.4-.6.3Zm-3.1 1.5.4-.3.1.6-.5-.3Zm4.4 1.5h.6l-.4.4-.2-.4Zm-7 .5-.3-.5h.7l-.5.5Zm3.6-.6.3.5H86l.2-.5Zm-2.7-3-.4-.4.5-.1v.5Zm8.2 5.1.3.8-.7-.2.4-.6Zm1.7-2.8-.5-.5h.7l-.2.5Zm-5.3.5.5.4-.6.3.1-.7Zm2.4-6.2-.3-.5h.5l.2-.3v-.1l.2-.4.2.6h.2v.5h-.9v.2Zm2.7 3 .4.4-.5.2v-.5Zm-6.2-3.7.5.4-.7.1.2-.5Zm3.3 2v.5l-.5-.2.5-.3Zm-.3-4.4-.3.3-.2-.5.5.2Zm6.3 15-.5-.3.7-.2-.2.6Zm-3.4-2.2.4.2-.4.3v-.5Zm1.2 5-.6-.1.4-.4.2.5Zm-2.7 1.1-.6-.1.5-.5.1.6Zm1.5-3-.3-.5h.6l-.3.5Zm-4.6 0 .4.4-.5.2.1-.5Zm5.2-.4-.1-.6.6.3-.5.3Zm3.8.8-.5-.1.3-.5.2.6Zm-2.4-4.6h.5l-.2.4-.3-.4Zm-4.3 5.4-.3-.4h.5l-.2.4Zm1 3.4H91l.2-.6.4.6Zm.1-4v.6l-.5-.3.5-.3Zm-4.1 3.2-.2-.6.5.1-.3.5Zm0-3.4v-.5l.5.2-.5.3Zm9.8 8-.5-.2.5-.5v.7Zm2-2.7-.2-.5.6.1-.3.4Zm-4.2-.3h-.6l.2-.4.4.4Zm.8-2.3-.1-.5.6.1-.5.4Zm3.6-.2.3.6h-.5l.2-.6Zm-2-3.8-.2.5-.4-.4h.5Zm-.3 4.3.6.1-.5.5v-.6Zm4 .9h-.5l.3-.5.2.5Zm-14-2.2-.4-.4.7-.4-.2.8Zm3-3 .6.4-.4.3-.2-.7Zm-4.7-1.6.3.5h-.7l.4-.5Zm9.4 6-.6.2.1-.6.5.4Zm2.8 1.6v.5l-.5-.2.5-.3Zm-.8-4.6.5.1-.4.4-.1-.5Zm-8-16.8.4-.5.1.1v-.1l.2.6-.4-.1H89Zm-1.4 4.4-.4-.5.5-.1v.6Zm-2.8-.5-.4-.4.6-.3-.2.7Zm3-1.8-.1-.5.5.3-.5.3Zm-4-1.9h-.5l.5-.5v.5Zm4.6 1.9.3-.5.3.5h-.6Zm2.5 2.4.5-.3-.2.6-.3-.3Z"/><path fill="#053C49" d="m85.2 107.8.4.3-.4.2v-.5Zm-1 3.2v.7l-.6-.3.6-.4Zm1.7-2.6h.5l-.3.4-.2-.4Zm-4.1.3-.5.2.2-.5.3.3Zm1.5-3h-.1l-.3.1-.1-.6.3.2.3-.4.1.7.1.2h-.5l.2-.2Zm3.8 12.4-.3-.5.6-.1-.3.6Zm3.7-1.4-.5.1v-.5l.5.4Zm-4-3v.6l-.5-.2.5-.3Zm4.4 4.2-.6.3.2-.7.4.4Zm-3.2 1.5v.5l-.4-.2.4-.3Zm4.1 2.2-.2-.4h.6l-.4.4Zm-7.3.1-.1-.6.6.2-.5.4Zm3.7-.6.3.5h-.5l.2-.5Zm-3.1-3.4.6-.1-.1.5-.5-.4Zm4.3 11.9-.5-.5.7-.3-.2.8Zm3-2.3v-.7l.5.4-.4.3ZM88 125l.2.5h-.6l.4-.5Zm1.4-2.1-.3-.5.7-.1-.4.6Zm3.7-1.4-.5.1v-.5l.5.4Zm-4-3v.5l-.5-.1.5-.4Zm-.2-6.2.5.4-.7.2.2-.6Zm2.5 2.6.5-.3v.6l-.5-.3Zm.5-4.8v-.2l1 .3-1 .4v-.2l-.2-.5.2.2Zm-4.4 2 .2.6-.7-.3.5-.4Zm1 3.4h.6l-.3.4-.2-.4Zm2.5-4.3.4.4-.5.1v-.5Zm2.2 5 .7-.4-.1.8-.6-.4Zm3.6-2-.1-.6.6.3-.5.3Zm-4.9-2 .3.4h-.7l.4-.5Zm5 4.2v1.2l-1-.5 1-.7Zm3.3 6.2 1-.8v1.2l-1-.4Zm2.5 7-.9-.5 1-.8v1.2Zm-7-15-.9-.4 1-.7v1.2Zm3 8h.2v.2l.3.3-1.2.1.3-1 .4.5Zm2.9 2.3-1.2.2.3-1 .9.8Zm1 2v1.2l-1-.6 1-.5Zm-6.4-11.2.4-1 .8.8-1.2.2Zm-.5-3.2.3-.2v.6l-.3-.2v.1l-.7-.3-.1.2-.3-.5h.3l.8-.6v1Zm2.9 7.4v1.2l-1-.5 1-.7Zm-1-4.7-.8-.5.9-.7v1.2Zm1 1.3-.8-.6 1-.5-.2 1.1Zm1.1.7-1-.5.5-.3h-.4l.5-.6-.1-.6.2.1-.4-.3.9-.4H98l.3-.4-.7-.4 1-.7v.8l.6-1-1.4.2h-.7l.2-.3-.9-.5 1-.7v1.1l.2-.4v-.1l.6-.9-1.3.3-.5.5-.3-1 .4.2.1-.4v-.1l.6-1 1.1 1.5.8 1.6.9 1.7-.2.5.3-.4.7 1.8h-1.3v.7h.2Zm-1.6 2.6-.1-1 .3.2.1-.5.4.4-.4.1.5.3-.8.5Zm1.4.3-.5.4v-.7l.5.3Zm-1.2-3.2h-.6l.4-.5.2.5Zm-2.8 4-.3-.4.5-.1-.2.6Zm-2 .5-.4-.4.6-.3-.2.7Zm3-2.3.5.3-.5.2v-.5Z"/><path fill="#053C49" d="m92.5 117.2.1.5-.6-.1.5-.4Zm4.5 1.2.1.4.3-.8.7.7-1 .1.2.2-.7-.1.4-.5Zm1.5 3.2h.6l-.3.4-.3-.4Zm2-2h1l-.7 1-.2-.4-1.2-.1.7-1.3-.4-.2-.1.5-1-.9-.1-.1.5-.1.8-.5-.1.7 1-.7h-.5v-.2l-.3-.1 1-.7v.8l.2-.2.3 2-.3-.1.3.2-.8.4v-.7l-.6-.1.5.8Zm-.9 2 .3-1 .3.4.3-.2.1-.2 1-.6.3 2-1.7-.6-.6.1Zm2.7 2.8-2.1-.6 1.8-1.4.3 2Zm0 .6.1 1.3-1.4-.4 1.3-1Zm-7.4-9.2-.6.2v-.6l.6.4Zm2.9 2-.5-.2.5-.4v.6Zm-.9-4.6-.2-.5.6.2-.4.3Zm-1.2 3.3v-.6l.5.3-.5.3Zm.7 4 .1.6-.5-.1.4-.4Zm-.9 4-.3-.6h.8l-.5.6Zm3.8-.7.2-.6.4.5-.6.1Zm-3.9-4 .7-.2v.5l-.7-.3Zm-15.7-23 .4.9h-1l.6-.8Zm-3.9-.6 1 .2-.6.7-.4-1Zm2.8 3.4-.2.5-.3-.4.5-.1Zm-4.8-6 .5 1-1.1-.3.6-.7Zm-.8-1.7.4 1-1.1-.3.7-.7Zm3 3.4.5-.5-.4.3.3-1.6-.3.4-.1.3h.2l-.3.4-.3-.4h.3l-.2-.3.5-.1-.4-.8.8.2v-.4l1.3 1.3 1.3 1 1.3 1 .6.5 1.6 1.1 1.4 1 1.6 1v.1l.2.8v-.7l1.7 1-1 .7.4.7h-1l.1-.4-.3.2v-.8l-.4-.3.5-.2-.9-.1.5-.8-1.6 1v-.2h-.3l.4.5h-1l.1-.5H83l.1-.2h-.9l.1-.2-.2-.2.4-.1v-.2l-1 .2.3-1 .8.5.1-1.6-1.6 1 .2-2.1-1 .2.2-.8-1.3.3.1.1-1 .1.4-.5-.1-.1-.6.1.4 1-1-.2.4-.7v-.2h-.2l.1-.7-.3-.6h.4l.2-.7-1 .6.2 1-1-.2.1-.2h-1l.6-.9.2 1Zm7.9 5h-.3l.2.4v-.4Zm-.8-.2.3-.4.2.5.3-.9v.2l.1-.6-1 .7.1.5Zm-4.3-4.3.2-.5-.5.3.3.2Zm0 .4v.1-.1Zm-4.7 1.4V97l.6.3-.6.3Zm3.5.9-.5-.2.4-.4v.6Zm-7.9-2.8-.6.2.1-.6.5.4Zm2.7 1v.5L72 97l.4-.3Zm-1-3.5-.3-.5.5.1-.3.4Zm.7 5-.6.3V98l.6.3Zm2.9 1.3-.5-.1.3-.4.2.5Zm-2-4.3h.6l-.2.4-.3-.4Zm1.6-1.1-.4-.7.8.2-.4.5Zm.2-1-1 .3.2-1.1-.2.1-.2-.7.7.3.4-.5.3.9-.8-.2.6 1 .5-1.6 1.1 1-1.6.7v-.2Zm-1.5-1.4.2-.5-.6-.4v.2l-.5-.4-.6.4-.1-1 .8.5.4-.3v.5l.6-.5v.8l.4-1-1.2.2h-.1v-.6l.2.1.5-.8.7 1 .9 1.2-1.6.6Z"/><path fill="#053C49" d="m71 92.2-.2-1 1 .5-.8.5Zm1-2.1-.2-1 .9.5-.7.5Zm-.8.4-.9-.5 1-.7v1.2Zm1.4-1.2-.8-.7-.5.3v-1l.4.3v-.9l.8.6-.7.3.3.2-.2.1 1-.4-.3 1.2Zm-3.7 1.3.2.5-.6-.1.4-.4Zm3.1-4.2.2 1-1-.6.8-.4Zm-2 2.2.4.5h-.7l.4-.5Zm0 2.8-.1.5-.3-.3.5-.2Zm.8-4 .4.3-.4.2v-.6Zm.4-3.6.5.7-.7.1.2-.8Zm.2 1.3.6.7-.8.2.2-.9Zm-.7.9.5.2-.4.2V86Z"/><path fill="#EA9D7D" d="M118 108.7c2.2 3.7 2 4 1.9 12-.2 8-1.7 24.5-1.7 24.5s.7 3.6-.6 7.7c-1.4 4.1-1.9 4.4-2.2 5-.3.5-1-.2-1-.2s-.3 1.3-1.1 1.3-.8-.8-.8-.8 0 .9-1.3.4c-.4-.3-.2-1.7-.2-3.1.2-1.2-.6-4.3-.6-4.8 0-.6-.7 1.2-1 2-.4 1-1.5 1.3-1.2-.4.3-1.7.3-3.2.4-3.7l1-2.3.3-.8s.4-.6 0-2.4c-.2-1.8-4-19.8-4.8-22.4-.8-3.4 11-15.1 13-12Z"/><path fill="#CC7A5E" d="M118.1 144.8c.2 0 .2-.1.2-.2 0-.3 1.7-23 1.8-30.5.2-6.6-1.7-10.2-3.2-12-1-1.4-1.8-2-1.9-2.1l-.3.1.1.3s1 1 2.4 3c2.1 3.2 2.5 7.6 2.5 10.7-.2 7.4-1.8 30.2-1.8 30.4 0 .1 0 .2.2.2 0 .1 0 .1 0 0Z"/><path fill="url(#l)" d="M103.3 117c.7.6 1.9 3 2.4 5.7l4.2 20 .4 3s-.3-.3-1 1c-.6 1.3-1 5.1-1.3 6 0 .8.2.8.4 1 .2 0 .6-.2.7-.6l1.4-3s1.7 0 2.3-1.5c.6-1.4.4-3.1.4-3.1s3.5-22.8-1.5-30.4c-4.6-7.1-9.1 1.2-8.4 1.8Z"/><path fill="url(#m)" d="m119.3 132.1-.6 7-9.3.2-1.5-6.5 11.4-.7Z"/><path fill="#CC7A5E" d="M112.7 158.4v-.1l.4-4.9-.2-.2c-.1 0-.3 0-.3.2l-.3 4.8c-.1.1-.3.4-.5.3-.4 0-.7-.6-.7-2.2a38 38 0 0 0-.6-6.4l-.2.2a10 10 0 0 1-1.7 3.4c-.1-.1-.2-.2-.2-.7 0-.8.5-3.7.7-4.6.2-1.5 1-2.5 1-2.5l.2-.1v-2.9l-.3-.2-.2.2v2.8c-.2.2-1 1.2-1.2 2.7l-.6 4.6c0 .8.2 1 .5 1.2h.3c.5-.2 1-1.2 1.6-2.7.2 1.3.3 3.7.3 5 0 1.6 0 2 .4 2.5.2.3.5.3.7.3.7 0 .8-.7.9-.7Z"/><path fill="#A05A3C" d="m111.8 134-.2.6-.3-.3-.2.5-1-1h1.5l-.3.4.5-.2Zm-2 3.3-.1-.4.4.2-.3.2Zm4.5.7h-.4l.2-.4.2.4Zm-3.5-1.5v-.4l.4.2-.4.2Zm-.3 1.4h.5l-.2.4-.3-.4Zm-.8 3.4-.2-.7.7.2-.5.5Zm1.6-3.8-.4-.3.6-.2-.2.5Zm.3-.9-.4-.3.6-.2-.2.5Z"/><path fill="#A05A3C" d="M112 139v-.6l.5.3-.5.2Zm-1.3-2.3.2.7-.7-.3.5-.4Zm.4 1.4v-.5l.5.2-.5.3Zm5-4 .5.5h-.6l.2-.5Zm-6.5 6.4-.2-.6.6.1-.4.5Zm2.6-5.6-.4.3v-.3l-.5.2v-.5l.4.2v-.2l.5.3Zm-2.3 4-.3-.5h.7l-.4.4Zm-.2-.8v-.6l.7.3-.7.3Zm-.7-1-.2-.3.4.1-.2.2Zm1-1.8.3.6h-.8l.5-.6Zm-.3-.3-.3.6-.3-.7h.6Zm0-1 .4.7-1-.1.6-.6Zm-.4 4.6-.3-.4.6-.2-.3.6Zm-.3-.6-.1-.6.7.2-.6.4Zm3.6-.8.4.4-.5.2.1-.6Zm-2.2-2.7.5.5h-.4l.5.2-.7.6-.2-.8h.3v-.5Zm5.4 0-.5-.5.7-.4 1.5-.2-.7 1.3-.9-1-.1.9Zm-1.6-.9-.2 1-.5-.6.7-.4Zm-3.9 1-.1-.4h.4l-.3.4Zm5.8 1h-.4l.2-.3.2.4Z"/><path fill="#A05A3C" d="M116.5 134.9v.3l-.4-.2.4-.1Zm.7 1-.4-.2.4-.1v.3Zm-5.6-.2-.3-.4h.4l1.2-.6v1.2l-1.1-.4-.2.2Zm6.7-1.6-.2.4-.3-.3.5-.1Zm-5 1.2.4.2-.4.2v-.4Zm.5.6h-.4l.3-.3.1.3Zm-4.6 3 .7.2-.7.5v-.7Zm2.8 1.1-.3-.3.4-.1v.4Z"/><path fill="#A05A3C" d="M112.6 137v-.6l.4.4-.4.2Zm.8-3 .1.1h.1l.3.4h-.6l.1-.3-.3.2v-.3l-.4.8-.7-1.2h1.2v.2l.2.2Zm1.3.6-.5.3v-.6l.4.3-.3-1h1.2l-.8 1Zm-4.4 1.7-.3-.5h.7l-.4.4.3-.2.2.7-.3-.1-.5.3v-.6h.2Zm-2-2.6h1.2l-.8.9h.6l-.9.8-.1-.9h.3l-.3-.8Zm.7 2-.3-.4h.6l-.3.4.2-.2.3.6h-.3l-.5.3-.1-.6h.4Zm1.3 4.4-.3-.5h.7l-.4.5Zm4.7-4.7.4.5h-.5l.1-.5Z"/><path fill="#A05A3C" d="m117.6 134 .2-.5.3.5h-.5Zm-6.3 5-.5.2v-.6l.5.3Zm7.8-5.5-.3.6-.5-.5.8-.1Zm-4.7 2.3.2-.5.4.4-.6.1Z"/><path fill="url(#n)" d="M73 78c3.3-8.9 16-11.5 30.3 2 14.3 13.6 18 23.7 19.3 33.7 1.3 10 .5 19.7.5 19.7l-18.3.4s-1.4-13.8-5.2-20.9c-3.8-7-14.5-13.3-19.2-16.7-4.8-3.4-11-9-7.5-18.3Z"/><path fill="url(#o)" d="m104.9 133.8 18.2-.4s1.3-6.1-3.9-13.8c-3-4.5-9.9-9.8-11.3-14-1.5-4-11 3.1-11 3.1s4 3 6.8 17.1c.7 4.2.8 3.7 1.2 8Z"/><path fill="#035256" d="m75 84.8-.4-.9h.8l-.3.9Zm1.2-1.7.5.9h-1.2l.7-1Zm-4.2.3v-.2l.6-.6-.6.2.2-2 .4.3.4-.7-.7.3.4-2 .6.4-.3-.5h-.2l.7-.6-.6.1.7-1.8.7.7-.1-.7.8.3-.5.6.6.6-.8.1 1.1.5-1 1-.2-1.5H74l.1 1h-.2l-.1.4.9.7-1.2.3.1.2.3.1-.1.2v.3h-1l1 .6.3-.3.5.9h-1.2l-.4.2h.8l-.4.8-.6-.8.4.8h-.7l1 .4.4-.6.5 1h-.6l-.6.4.4.4.2-.4.2.2.2-.6.6.6.6.1.3-.7.7.7-1 .3.2.1-.3.3.6.5h-.2l1 .5-.9.6-.2-1-.7.3v-1.6l-.6.2.2.2-.2.1.1.2h.2-.1l.3.5-1.2.3-.8.7-.4-2 .3.1.1-.4-.5.3-.2-1.6Zm1.2 2 .2-.3-.6.2h.4Zm2.2-5.4h1l-.5.8-.5-.8Zm.2-.5-.4-.6h.6l-.2.6Zm-.2 3.1-.6.3v-.5l.6.2Zm3.8-2.5v.6l-.4-.3.4-.3Zm1.9 2v.7l-.6-.3.6-.3Z"/><path fill="#035256" d="M77.2 81.7h.5l-.3.5-.2-.5Zm-.3-1 .6.4-.6.2v-.6Zm0-3-.5-.2.4-.3.1.5Zm-1.7-3.6 1 .4-.8.8-.2-1.2Zm-.6 5.7.6 1.2h-1.5l1-1.2Zm.5-1.6-.1-1 .8.2-.7.8Zm2 6.6-.5.2v-.6l.5.4Zm2.2-.8-.1-.5h.5l-.4.5ZM76 80.8l-.4.4v-.5l.4.1Zm.2-5v1l-1-.4-1.6-.3 1.2-1.6.9 1.6.5-.3Zm0 7-.1-1 .8.5-.7.4Zm3.1 8h-.6l.4-.8.1.1 1 .4v-.2l.4.5h.4l-.2.5-.1-.2h-1l.4-.6-.8.8v-.5Zm-4-.8 1 .5-.4.2.8-.2.2-.1v.2l.7.4-.3.2.1.3H77l-.3.2v-.3h-.1l-.4 1.1-1.3-1.5.4-.1V90Zm1.2 1.7h1l-.3.7 1.2-.5-.5 2.2-1.4-1.3.4-.2-.4-1Zm1-2.6.3-.2h.2v.6h-.1v.5l-.5-.4-1 .9v-1.6l.9.4.2-.2ZM76 87.2l.3.7-.7-.2.4-.5Zm2 3.7-.3-.4.6-.2-.3.6Zm1.7-4.7-.3.1.5.4h-.3l-.2.7-.7-.7h.7v-.3h-.1V86h.2l.1-.2.4.4h-.3v.1Zm2.3.5.1-.7.5.4-.7.3Zm-2.6 2-.5-.3.4-.3.1.5Zm4 1h.5l-.4.5-.1-.5Zm-.9-8.2.3.5h-.6l.3-.5Zm-3.2 1-.1.6-.4-.4.5-.2Zm3.3 2.9.5.1-.5.3v-.4Zm-7.7-3.2.2-.5.4.4-.6.1Zm-.8 4v.6l-.2-.1.1.2-.6-.2.3-.2.4-.3Zm5-9.2h.6l-.3.5-.4-.5Zm-2.2-2.7.4.3-.5.3.1-.6Zm-1 4.9.5-.3v.6l-.4-.3Zm2.5 8.2-.2-.1-.1.2-.2-.3-.3-.4h.5v.1h.4l-.1.5Zm-2.2 2.8-.6-.1.4-.4.2.5Zm-2.1-1 .7-.4v.4l.6-.2-.6-1h1.4l-.4 1v.1l-.2.2-.9 1.6-1-1.6.5-.1h-.1ZM74 87v.2h.5l-.3-.3.8-.4v1l-.3-.3-.6.9.6.5-1 .5.1-.7-.3.5-.9-1.8h.8l.6-.1Zm6.7 2.8.2-.6.4.4-.6.2ZM82 88v.6l-.5-.3.5-.3Zm-4-2.5h.6l-.2.4-.3-.4Zm2.7 1 .8-.2-.2.6-.6-.5Zm-2.8-2h.4l-.5 1-.3-.5-.2.2-.3-.6h.9v-.4l-.4-.2.6-.3v.3l.3.2-.5.3Zm4 9 .5-.8.4.7.3-.7.6.8h-1.8Zm-1.8-.1.5.8-1-.1.5-.7Z"/><path fill="#035256" d="M79.7 94.4h1l-.2.4.7-.3-.3-.9 1 .2-.6 1-.3 1.6.3-.5.5.5H81v.2l-1.5-1.2.5-.3-.4-.7Zm-.3-1.8-.4.7-.5-1.1h1v.4h1l-.7 1v-.2l-.5 2-1.4-1.2 1.8-1-.3-.6ZM79 90h-.7l.2-.3-.5-.3.4-.4.1.6.1-.2.4.6Zm2.2 2.7-.3-.4.5-.2-.2.6Zm.3-5.2.5.2-.4.3v-.5Zm2.9-.4.5.3-.6.4v-.7ZM82 89.6l.3.5h-.6l.3-.5Zm4.3.7h.6l-.3.5-.3-.5Zm-2.5.1.5.3-.6.4.1-.7Zm.5-1 .4-.3.1.5-.5-.2Zm7 10.1.4.9-1-.1.5-.8Zm-.9 2.2.5-.7.5.9h-.1l.3.2-.3.1.3.5.4-.3-.4-1h1l-.5 1 .3-.1-.2.7.4.6H92l-.1.6 1-.6-.2-1 .2.1-.1-.4h.6l-.2.5.5.1v.2h.9l-.5.9-.5-.8-.3.2h.2l-.3 2 .4-.6.4.7.9-.4h-.2l.4-.6.4.7H95v.3l1-.4-.2 1.2.3-.2.1.7.4-.2-.2.8.7.3v-.2l.6.3.4-.4.4 1-1-.4-.3.3h.2l.4-.2-.3.6.1.1h-.1l-.3.7-.8-1 .8-.2v-.5l-.7.5v-.8l-.3.8-1-1 1-.5-.5-.2-.4.5-.3-.9.8.2-.8-.9-.3 1.3-1.2-1 .4-.1-.7-.2v.1l-1.2-1.1-1.4-1.1-1.1-.8 1.3-.7-.5-.2Zm1 1h-.7v.5l.8-.5Zm-.7-.1.3-.5h-.1l.2-.4h-.2l-.2.9Zm-.8-4 1 .1-.6 1-.4-1.1Zm-1 1.1 1 .1-.3.5h.1v.3-.2l.6.8h-.7l-.1 1.3-1.7-1.3 1.4-.7-.3-.8Zm-4.4-5-.5 1-.5-1.2 1 .2Zm.7 1.7h1.2l-.5 1-.7-1Zm-1.4-.4H85l-.4.9-.8-1Zm9.6 5.3.5 1-1-.2.5-.8Zm-9-5.7.2-.6.5.5h-.7Zm3 1.7.5-.3v.6l-.5-.3Zm-.1-4.3-.2-.6.6.2-.4.4Zm-3.6 1.3.8-.9.5 1.1-1.3-.2Zm2-2.2.5 1.1L85 93l.7-.9Zm.3 1.5.5 1.1-1.2-.3.7-.8Zm-6-5 .5 1-1.2-.2.7-.9Zm-1.8 0-1.2-.3.7-.9.5 1.1Zm-1-3.2.5 1-1.2-.2.7-.8ZM91.8 96l.5 1.2L91 97l.7-.9Zm-5-4.8.2.6-.6-.2.5-.4Zm-3.6.2-.2-.6h.5l-.3.6Zm2 3.8.2-.4.4.4h-.6Zm-2.2-3-.4.6-.4-1.1h.5l.3-.2v.3h.2v.4H83Zm-4.7-.7-.3.5-.4-1h1.1l-.3.7v-.2Zm6.4-3.2.1.6h-.6l.5-.6Zm-3.4.3-.2.6-.3-.6h.5Zm2.6 4v-.2l-.4-.3.6-.2v.2l.3.2-.5.3Zm10.5 9.6.4-.7.4.5h.4l-.3.4-1-.2Zm2.8-4.5-.6.2v-.3l-.5-.2.5-.4v.4l.2-.1.4.4ZM94 99.3v.5l-.4-.2.4-.3Zm4 1.6h.6l-.4.5-.1-.5Zm-.9-8.2.4.5-.7.1.3-.6Zm-3.2 1-.1.6-.4-.4.5-.1Zm3.3 2.8.5.2-.5.3v-.5Zm-.4 3.3-.6-.3.4-.2.2.5Zm-.8-1.7-.6-.5.8-.1-.2.6Zm-3.6-2.4.2-.6.1.1.5-.3v.6H93l-.6.2Zm.5 4.6.2.5v-.1l.5.5h-.7l.2-.3-.6-.2.4-.4Zm3 3-.1.5-.4-.3.6-.2Zm.7-4.4-.5.3v-.6l.5.3Zm2.3-.6.5.3-.6.4v-.7Zm2 3.3h.5l-.3.4-.3-.4Zm-2.6 0 .6.4-.6.3v-.7Zm1-.8-.4-.2.3-.3.2.5Zm2.2 1.7.1.6-.6-.2.5-.4Zm-3.9-.4.5.1-.3.5-.2-.6Zm2.5 4 .4.4h-.6l.2-.4Z"/><path fill="#035256" d="m97.6 103.3-.4.7-.4-1.2h.5l.4-.1v.2h.2l-.1.3v.2h-.2Zm1.7-3.8.2.5H99l.4-.5Zm-3.6.8-.3-.4h.5l-.2.4Zm2.8 3.4v-.5l.5.3-.5.2ZM90 96l.3.5h.4l-.2.5-.1-.1h-1l.6-.9Zm1.7-3.6.1-.6.5.4-.6.2Zm-2.5 2-.5-.4.3-.2.2.5Zm4 1.4-.1-.5h.5l-.4.5Zm-1-8.6.4.5-.7.1.3-.6ZM89 88.8l-.4-.4.4-.1v.5Zm1.5 6.8.2-.7.4.4-.6.3Zm1.3-1.8v.5l-.4-.3.4-.2ZM90.6 92l.8-.1-.3.6-.5-.5Zm-2.9-2.5.5.3-.6.3.1-.6Zm4.7 7.8.4-.2v.3h.1v.4h-.2l-.4.6-.4-1.2.5.1ZM88 95.7l.2-.3-.5-.2.4-.4.1.5.2-.1.4.5H88Zm2.6 2.3.5-.2-.2.5-.3-.3Zm.6-4.8.6.3-.5.3v-.6Zm2.8-.4.5.3-.5.4v-.7Zm-2.6 3 .4-.4.2.5-.6-.2Zm4.6.3h.6l-.3.4-.3-.4Zm-2.5.7v-.7l.5.3-.5.4Zm1-1.5L94 95l.3-.4.2.6Zm-1.7 1.3.5.1-.3.5-.2-.6Zm2.6 4.2.2-.4.4.4-.4.2h-.1v.2l-.6-.2.2-.1.2-.4.1.3Zm-1-6.8.3.5H94l.5-.5Zm-3.6.8-.2-.4h.5l-.3.4Zm3 3 .4.3-.6.1.1-.5Zm-9.8-.1-.3.1.1-.5.4.2-.2.2.4.4.7-.4h-.5l.4-.8.4.6.2-.2V99h.8v-.2l-.7-.4 1.1-.7.3 1.5-.4-.2.3.4.7-.6v1h1l-.6 1.1-.4-.9v1.2l-1.7-1 .8-.6h-.5l-.3.5-.3-.6v.4l-1.7-1 .3-.3h-.5l.2-.8Zm9.3 2.2h.6l-.2.4-.4-.4Z"/><path fill="#035256" d="m89 98.9-.6.9-.4-1.2h-1l.4-.9.6.8-.2-.3 1.2.2h.1v.5H89ZM82 96l.4.2-.3-.8-.2.4-.5-1h1v.2l.9.2-.2.2h.4l-.5 1-.2-.5-.2.3-.2.5 1.1-.6-.2 2.2-1.6-1.2.3-.1-.4-.9.4.1Zm5 0 .1.8-.9-.2.7-.6Zm2.6 1.3v.5l-.6-.2.6-.3Zm-3-3.5-.6-.2.5-.3v.5Zm0 1.1.5-.3v.1l.2-.1.1.4h-.3l-.5-.1Zm8.7 9 1 .1-.5.8-.5-1Zm.9 1.6 1 .2-.5.7-.5-.9ZM88.5 96l-.5.7h.4l-.3.6-.3-.6-.4-.9 1.1.2Zm3.6 4.4-.2-.5.4.1-.2.4Zm1.6 3.3.3.4h-.3l.3.3-.5.1v-.4l.2-.4Zm-4-9.7.4.2-.4.4V94Zm1.7 3.8.3.4h-.6l.3-.4Zm2.2-10 .3.5h-.7l.4-.5Zm-3.7 1h.5l-.1.5-.4-.4Zm3.7 2.8.6.1-.6.3v-.4Zm-1.2 1.5-.6-.5h.8l-.2.5ZM89 90.8v-.6h.3l.4-.2v.6h-.2l-.5.2Zm.7 5.2-.7-.2.4-.4.3.6Zm-1.4-8.4.2-.7.4.4-.6.3Zm-2.6 1.3.1.5-.5-.2.4-.3Zm4.2 2-.1-.4h.5l-.4.5Zm-1-8.5.3.5h-.7l.4-.5Zm-3.8 1h.5v.5l-.5-.4Zm3.9 2.8.4.1-.5.3v-.4Zm-1.3 4.2-.7.2.3-.6.4.4Zm.8-1-.5-.2.4-.3v.5Zm-1.3-2.2h.8l-.3.5-.5-.5Zm-3-2.5.5.3-.5.4v-.7Zm.4 6.1.2-.3-.6-.3.4-.4.2.6v-.2l.5.5-.7.1Zm2.9 2.7-.4-.4.6-.2-.2.6Zm.3-5.2.5.2-.5.3v-.5Zm2.8-.4.5.3-.5.4v-.7ZM88 90.8l.3-.4.2.5-.5-.1Zm4.8.9-.1-.3-.3.1v-.4l.3.1h.4l-.3.5Zm-2.2-1.5.3-.3.2.5-.5-.2Zm.4-1.1.2.6h-.6l.4-.6Zm-3.6.9-.3-.5h.5l-.2.5Zm2.9 2.8.4.3-.5.2v-.5Zm-4-3.5h.4l-.3.5-.1-.5Zm1.8 4.2-.1.3-.3-.4.2-.1.1-.3.2.2v.1l.1.2h-.2ZM100 102v.5l-.6-.2.6-.3Zm-3-.7-.3.4-.1-.4h-.4l.4-.5.2.4h.2Zm1.3 3.7.3.4h-.5l.2-.4Zm6.6 5.8v.6l-.5-.2.5-.4Zm-3.3-.2-.1-.5h.4l-.3.5Zm1.6 3.3.3.4h-.5l.2-.4Zm-5.2-14v.5l-.6-.2.6-.4Zm-3.5-.8h.4l-.2.5-.2-.5Zm2 4.2h-.4l.2-.4.3.4Zm9 4.7-.6-.1.5-.5v.4-.1l.5.4-.6.3.1-.4Zm-3.1 2 .4-.3v.6l-.4-.3Zm4.4 1.3h.6l-.4.5-.2-.5Zm-.9-8.2.4.5h-.7l.3-.5Zm-3.2 1-.1.6-.4-.4.5-.2Zm3.3 2.9.5.1-.5.3v-.4Z"/><path fill="#035256" d="m105.5 110.2-.5-.3.4-.3v.6Zm-.7-1.7-.6-.5h.8l-.2.5Zm-3.5-3 .4.3-.5.3v-.6Zm.3 5.2.2.6.1-.2.4.5h-.4l.9.5-.8.5-.2-1h-.2l.1-.4-.5-.2.4-.3Zm3.2 3-.2.6-.4-.4.6-.2Zm.1-4v-.6l.5.2-.5.3Zm2.7-1 .6.3-.6.4v-.7Zm-2.6 3 .3-.5.2.5h-.5Zm4.6.3h.6l-.3.5-.3-.5Zm-1.7-1.3.3.5-.6-.2.3-.3Zm.1-.8.3.6h-.7l.4-.6Zm-3.5.9-.4-.5h.5l-.1.5Zm3.3 3.2-.4.2h-.2l-.2-.4.5-.1.3.3Zm-5-10.8.5.3-.5.4v-.7Zm-2.6 3 .3-.4.2.5-.5-.1Zm5.2.3-.3.5-.3-.5h.6ZM101 101v.6l-.5-.2.5-.4Zm-3.9-.4h.5l-.3.5-.2-.5Zm2.4 3.9.4.4h-.5l.1-.4Zm5.9-3 .3.6h-.6l.3-.5Zm-3.7 1.2.5-.2-.1.6-.4-.4Zm4.3 2.9-.6.3v-.5l.6.2Zm-1.7 1.4-.6-.5.8-.1-.2.6Zm-3-2.8-.6.4v-.6l.5.2Zm-.6 5.3.4-.4.2.6-.6-.2Zm1.6-7.8.5.3-.5.4v-.7Zm-2.3 2.5.2.5-.5-.2.3-.3Zm4.3.7h.6l-.3.5-.3-.5Zm1.5 9.7.6-.4v.6l-.6-.2Zm-3.1-.2-.3-.6h.5l-.2.6Zm2.6 3.7h-.6l.2-.4.4.4Zm5.5-3.3.3.6h-.7l.4-.6Zm-3.3 1.6-.4-.4.5-.2v.6Zm3.4 2.2.5.2-.4.3v-.5Zm-1.2 1.6-.6-.5h.8l-.2.5Zm-3.6-2.4.1-.6.5.3-.6.3Zm.7 5.2-.6-.2.4-.4.2.6Zm.9-7.4v-.6l.6.2-.6.4Zm-2.6 2.2.3-.3.3.5-.6-.2Zm4.6.4h.6l-.3.4-.3-.4Zm-3.2-5.7-.7-.3.6-.4v.7Zm-3.7-.7-.2-.6.5.1-.3.5Zm1.9 3.5.3.5h-.5l.2-.5Zm6-2.4.4.5h-.7l.4-.5Zm.4 4-.6.3v-.5l.6.2Zm-2 1.3-.4-.6h.8l-.3.6Zm-2.7-3-.6.3.1-.7.5.4Zm-.3 5.5-.6-.3.4-.3.2.6Zm1.5-7.3.1-.7.5.4-.6.3Zm-2.4 1.7.1.5-.5-.2.4-.3Zm4.4 1.5-.3-.5h.6l-.3.5Zm-2.2 1.8v.6l-.6-.2.6-.4Zm4.6 1.5h-.7l.4-.5.3.5Zm-4.1.3h.5l-.2.5-.3-.5Zm4 3.3-.5.2v-.5l.5.3Zm-2.3.6h.8l-.3.6-.5-.6Zm-2.7-2.7.4.3-.6.3.2-.6Zm-.1 5.2.2.6-.7-.3.5-.3Zm1.7-6.7v-.6l.6.3-.6.3Zm-2.4 1.7.2.5-.6-.2.4-.3Zm4.8 1-.4.5-.2-.4h.6Zm-.6 3-.3.6-.5-.5.8-.1Zm-3.7-2.5.4.4-.5.3v-.7Zm.3 5.2.2.7-.6-.3.4-.4Zm.1-3h.8l-.2.5-.6-.5Zm.8-.4-.7-.2.6-.4v.6Zm4.5 1h-.7l.4-.6.3.6Zm-3.6.2-.1.6-.4-.5h.5Zm3.6 3.3-.5.2v-.4l.5.2Zm-3.3-4.2.5.4-.6.3v-.7Zm-2.5 2.3.1.6-.5-.2.4-.4Zm4.4 1.6-.2-.5h.5l-.3.5Zm-2-2.2v.6l-.6-.2.6-.4Zm-4-.7.6.1-.3.5-.2-.3-1.1 1-.2-1.4 1.3.3v-.2Zm2.2 4.1.4.4h-.5l.1-.4Zm-5.3-22.7-.2-.5h.5l-.3.5Zm2.2 3.4.4.4h-.6l.2-.4Zm2.7-.7v.5l-.5-.2.5-.3Zm-3.4-.8h.4l-.3.5-.1-.5Zm2 4.2h-.4l.2-.4.3.4Z"/><path fill="#035256" d="m98.7 105.9.4 1-1-.4.6-.6Zm-1.2 2.9.7-.6.3.7h.5l-.1-1.3 1 .4-.9.8.4-.1-.4.6.2.8-.5-.2-.3.8-1.2-1.5 1-.3-.7-.1Zm2.1 1.6v-1.2l1 .5-.2.2.9.2-.7.7-.3-1-.7.6Zm1.1-1.3-.9-.4.7-.5.2 1Zm0-2.4h.6l-.2.5-.3-.5Zm0 6.8.7.4-.7.5v-1Zm2.1-4.4-.4-.4h.6l-.2.4Zm-2.9-1.8v-.6l.4.3-.4.3Zm.5 3.6.2.5h-.3l.2.3h-.5l.3-.4h-.2l.3-.4Zm.8 3.2.7-.2-.2.7h.5l-.5.6.5.5v-.2l.5.5-.7.3h.6l-.4.4v.2l-.6.5-.4-1.3.8.2.2-.5-.8.3.3-.8-.6.7-.6-1.5h1.2l-.5-.4Zm1.3 1.4h1.1l-.5 1.2-.6-1.2Zm.5-3.2h1l-.4 1.1-.6-1.1Zm1.5 9.7h1l.2-.2.3.5h-.6l-.3.8-.6-1.1Zm1.3 7.7h1.1l-.4 1.1-.7-1.1Zm.5-11-.5 1-.6-1h1Zm-3.8-4.5.7.9-1.1.3.4-1.2Z"/><path fill="#035256" d="m105.4 121-.6.2.3.1-.4.3v-.3h-.5l.6-1.1.6.8Zm-1 4 .8.8-1.2.3.5-1.2Zm-5-12.8.6-.4.1.8 1-.1-.2-.2.6-.3v.7l-.3-.2-.2.3h1l-.4 1.1-.6-1-.7 1-.8-1.3h.5l-.6-.4-1-1.5 2-.4-1 1.9Zm7.7 5.2-.5-.3.6-.3v.6Zm-3-2 .3.2-.4.4v-.6Zm1.1 4.5h-.5l.3-.4.2.4Zm2.6 3.2-.5-.4.6-.2v.6Zm-2.2 2.1.2.5-.5-.1.3-.4Zm-1.8-2.8.4.6v-.2l.4.4-.5.3v-.3l-.7.1.4-.9Zm-1.2-3.8.6.6-.8.3.2-.9Zm1 7-.1-.7.7.2-.5.6Zm1.7 2.3-.6.7-.3.3.5.2-.3.3 1.3.2-1.3 1.2-.4-1.5h.1l-.1-.5v-.3l-.1-.1v-.9l1.2.4Z"/><path fill="#035256" d="m104 117 1 .7-1 .4V117Zm-1 2.3h.6l-.2.5h.4v-.3l1 .2-.7 1-.3-.7-.6.6.5.7.1-.4.4.5-.6.2h.6l-.5.4v.2l-.7.5-.2-1.3.8.2.2-.3-1 .1.5-.8-.5.6-.4-1.5 1 .1-.5-.5Zm1.7 4.8 1 .2-.7 1-.3-1.2Zm2.2 1.6-.7 1-.3-1.3 1 .3Zm-1.7-2.6 1 .2-.6 1-.4-1.2Zm-2.3-5.5.7-.3v.4h.4l-.3.4h.3l-.7 1.1-.4-1.1-.9 1-.5-1.5h1.5Zm0 .4.7.1-.3-.3-.3.2Zm.5 6.8-.2-1.3 1.4.4-1.2 1Zm5.8 4.3v.6l-.6-.2.6-.4Zm-3.7-.6.3-.6v.2l.2-.3.3.4h-.2l.4.5-1.2.3.1-.3v-.3h.1Zm2.3 4.4h-.6l.3-.4.3.4Zm-.6-1-.4 1.1-.6-1h1Zm-.8 1.8h-1.3l.5-1 .8 1Zm3.1 0h-1.2l.4-1 .8 1Zm-1.1-2.5-.4 1-.6-1h1Zm-3.3 0-.2.3 1.3.3-1.4 1.2-.3-1.5v-.5l.7.2Z"/><path fill="#309191" d="m111.3 94.5-.2-1 1 .5-.8.5Zm2.4.2-.2-1 .9.5-.7.5Zm-2.5-.3v1.2l-.9-.5 1-.7Zm3.3-.3-.9-.4.7-.6-1.2.2v.8l-1-.4.5-.3.6-1.4.3-.6 1.1 1.6v1Zm4.7 16.2-.8-.7 1.1-.4-.3 1.1Zm0-2.7-1-.6.9-.5v1Zm-6.5-10.3 1 .4-.8.6-.2-1Zm-2-4.6.9.6-.8.3v-1Zm7.1 19v-1l.8.6-.8.3Zm-4-12.8-.1-.7.6.3-.4.4Zm-1.3-3.8.2.4h-.6l.4-.4Zm-2.4 4.3.5-.1-.1.5-.4-.4Zm-2.4-.2-.4-.5.6-.1-.2.6Zm3-2.2.5.4-.4.2V97Zm-3.7-1.5-.6-.2.5-.4v.6Zm-1.4 5.3-.3-.5h.7l-.4.5Zm3.9-.9-.5.1v-.5l.5.4Zm-3.7-3-.5-.1.5-.3v.5Zm7.8 21.3h.7l-.4.6-.3-.6Zm.5-3.8v.5l-.6-.3.6-.2Zm1 2.3-.4-.5h.7l-.4.5Zm3.2-.8.1-.5.4.4-.5.1Zm-3-3-.6-.3.5-.2v.5Zm3 5.3v.7l-.6-.3.6-.4Zm-2.5-2.8.3.4-.6.1.3-.5Zm1.3-5.6v-.2l.1-.5.8 1-1 .3v-.6Zm-2.2-1.3.5-.3v.5l-.5-.2Zm3.1 4 .5-.4.2.6-.7-.2Zm1.7.1-.3-.4.5-.1-.2.5Zm.7-4.6-.1-.5h.7l-.3.3-.3.2Zm-8.9-2-.4-.7.9-.2-.5.8Zm-.3-5.1-.8-.3.7-.4v.7Z"/><path fill="#309191" d="m117.8 112.1.5.7h-.9l.4-.7Zm3.7-2.2.6.4-.6.2v-.6Zm-9.3-11.2.6.5-.7.2.1-.7Zm2.5-2.1-.2-.5h.6l-.4.5Zm1.3 2-1.3.3.3-1.5 1 1.2Zm-1.7-1.2-1.1-.6 1.2-1v1.6Zm6.5 16.3-1-1 1.5-.5-.5 1.5Zm-1-.1-.6 1-.4-1.1 1 .1Zm-3.7-13.5-.2-1 1 .4-.8.6Zm1.9-.8-.7.5-.2-.8-1 .1.6-1-.7-.4-.2.1-.2-.8-.7.1.5-1-.9-.4.9-.6-1.4.2v.4l-1-.5 1-.7v.4l1-1.6 1 1.6-.6.1v1.1l.5-1 1 1.7-1.2.1.7.4.4-.4v.8l.3-.5 1 1.7h-.9l.8.4Zm-9-3.5.6-.2-.3.6-.3-.4Zm1-1h-.5l.3-.5.3.5Zm-1.9 2.4v-.6l.5.4-.5.2Zm4.7-.5.4.5-.4.1v-.6Zm8.6 13.4-.5-.6-.5 1.3-.9-1 1.3-.4h-.1l.7-.3-1.6-.4v.2l-1-.7 1-.4v.8l1.6-1.4.4 2-.1-.1-.3 1Zm-5.8-7.4.9.5-.7.5.6.5-.6.2v-.7l-.2-1Z"/><path fill="#309191" d="m116.6 103.7.6.3-.5.4-.1-.7Zm-.9-3.3.2.4h-.3v.3l-.5-.2.2-.2.4-.3Zm-2.5 4.5-.4-.5h.5l-.1.5Zm-1 3.6-.4-.7 1-.1-.6.8Zm4.5-1.1v-.8l.6.6-.6.2Zm-4.3-4-.7-.4.8-.3v.7Zm2.6.7.5.4-.6.1.1-.5Zm3.1 2.1v.6l-.4-.3.4-.3Zm-.4-4-.1-.6.5.3-.4.3Zm1 2.2h-1.3l.5-1.4.9 1.4Zm-1.1-3-.3 1.6-1-.8 1.3-.8Zm2.8 3.9-.7.4v-.8h-1.1l1 .5-.8.4-.1-1 .9-1-.5-.4-.3.2v-1h-1l.7-.7-.8-.6.9-.5h-1.2v.5l-.9-.6 1-.5.9-1 .7 1.8h-.4l-.1.8.6-.8.8 1.8h-1.2l.7.4.5-.3-.1.6.2-.3.7 1.8h-.8l.4.3Zm-4.2-2.7-.6.1.2-.6.4.5Zm4.5 2.5.6 2-2.1-.3 1.5-1.7Zm1.8 7.5-1 .4.1-.8-1.2-.3 1.7-1.5.4 2-.4-.2.4.4Zm.4 4-1 .4v-1.1l-1-.3-.1.6-.3-.2-.1.1-.3-.5h.8l.5-.5-1.2-.8 1-.6-.2-.3 1.4-.5-.4 1 .5-.1-.3.7.4-.3.3 2-1-.3 1 .7Zm-1.5-2.4h.2l-.2-.4v1.3l.5-.4-.5-.5Zm.6 3.1 1-.4v1l-1-.6Zm-1.4-1 1 .6-.8.6-.2-1.2Zm1 2.8-.1-1 1 .5-.8.5ZM117 113l.4.5h-.7l.3-.5Zm3-1.3v-.4l-.4.7-.4-1h1l-.1.2.4.3-.4.2Zm-3.3-4.2.2.3.1-.2.3.4h-.5v-.1h-.4l.3-.4Zm-5-11.7.5.8h-1l.4-.8Zm4.9 13.1.3.5h-.5l.2-.5Zm3.5 8.3-.3 1.2-.8-.7 1-.5Zm-3-4.5-.4.3-.1-.5.5.2Zm3.7 10-.5 1-.6-.9 1.1-.2Zm-1-2.5 1-.4-.1 1.2-1-.8Zm.5 1.4 1-.3-.2 1.1-.8-.8Zm-1.4 2.2.6.7-.8.3.2-1Zm-5 7.5-.2-.6h.7l-.5.6Zm3.9-.4h-.5l.1-.5.4.5Zm-3-3.9-.2.5-.4-.3.5-.2Zm.5 2.5-.2-.6h.6l-.4.6Zm3.9-.4h-.6l.3-.4.3.4Zm-3.1-3.9v.5l-.5-.3.5-.2Zm3-1.9-1 .2.4-1.2.7 1Zm-2.4-1.7-.4-.3.5-.2v.5Zm2.6 3.8.1.7-.6-.4.5-.3Zm-.5-4 .2.6-.7-.2.5-.4Z"/><path fill="#309191" d="M122 121v-.5h.2v-.1l.5.2-.4.2h.1l-.5.2Zm-3.1 5-.8-.1.4-.6.4.8Zm2.4 3.2.5-.4-1.2-1 1.2-.4-.2-.4 1.5-.2-.5 1 .4-.2-.4.9.7-.4v2l-1-.5.6.8.2-.1v2.9l-2-.9 1.5-.8-.8-.4 1-.6-1 .2.3-1-.8-.5-.3.6-.4-.6h.7Zm.6-1.4h.2l-.2-.3v1.3l.5-.2-.5-.8Zm.6-3.5v-.7l.6.4-.6.3Zm-1.2 3-.8-1.2 1.5-.3-.7 1.5Zm-1.6.6-.3-1 1 .1-.7 1Zm.5-3-.1.3-.3-.4h.4l-.1-.5 1 .2-.7 1-.2-.5Zm1.7-1.7-.6 1.2-.7-1.2 1.3-.2 1-.3-.4 1.1-.6-.6Zm1.3-2.6v2l-2-.8 2-1.2Zm-9.7.3-.2-.7h.9l-.7.7Zm4.9-1.2.4.7h-.7l.3-.7Zm-4.6-4.2.8-.3-.1.7-.7-.4Zm3.2 1.4.3.5.4.4-.5.1v-.4h-.6l.4-.6Zm2.6 3.2-.3-.4.5-.2-.2.6Zm.3-4.6v-.6l.5.3-.5.3Zm3.2 2.9v1.9l-2-.8 2-1.1Z"/><path fill="#309191" d="m123.1 126.5-1 .2v-.9l.2.1v-.2l-1-.4 2-1.2v2l-.8-.3.6.7Zm-3.9 1.3-.7-.1.4-.5.3.6Zm1.6 2.6v-.6l.9.7-1 .4v-.3l-.1-.2h.2Zm-2.8-9.9.2.4.1-.2.2.4h-.5v-.2h-.4l.4-.4Zm-.3 1.5.3.4h-.6l.3-.4Zm2-5-.7-.9h.2l-.2-.2.5-.1-.1.2.7-.1-.4 1Zm-2.4 8.5.4.3-.4.2v-.5Zm-7-24.2-.7.3v-.7l.8.4Zm3.3 1.4v.6l-.5-.3.5-.3Zm-1.5-5h.6l-.3.5-.3-.5Zm-7-11.8-.6.8-.5-.9 1 .1Zm-.7.6.4 1.2-1-.2.6-1Zm2.7-1.6h-1v-.3l-.4.2.3 1h-.6l-.6-.1.4-.6v.2l.3-.5-.2.2.6-2.2 1.4 1.4-.5.1.3.6Zm0 1.8-1-.3.5-.6-.4-.7h.8l.4-1 1.3 1.4-1.7.6.1.6Zm3 5-.4-.1h-.3l.3-.5v.1l.4-.4.5 1h-.5l.1 1.1-1-.5 1-.7Zm-.9-.9-1.2-.3.8-.8.4 1.1Zm-6.4-5.3 1 .1-.5.8-.5-1Zm3 1.3.3.3-.6.2.2-.5Zm-.4 5.1-.5-.2.4-.3v.5Zm-2.9.4-.5-.3.6-.3v.6Zm2.4-2.5-.2-.5.6.2-.4.3Zm-4.2-.8-.6.1.3-.5.3.4Zm2 7.4-.3-.5.6-.2-.2.7Zm3-2.1.5.3-.4.2v-.5Zm-3.7-1.7-.5-.1.4-.3.1.4Zm5.5-.1 1 .7.4.3-.7.3v-.4l-.6.4v-1.3Zm-2 .2-.5-.1.4-.4.1.5Zm5.9 2.4.4-.4v.6l-.4-.2Zm-.6-4.4-.3-.5h.3-.1l.5-.2-.1.3-.3.4Zm-1.5 4.4-.6-.6.9-.3-.3.9Zm-1.4-5.7h.7l-.3.6-.4-.6.2.7-.7-.2.5-.5Zm-2.4 5.6.8.4-.8.3V95Zm4.5 2.3-.5-.2.5-.5v.7Zm-2.2-6h.8l-.4.5-.4-.5Zm-1.8-1 .6.2-.6.4v-.7Zm3.8-2.7-.7.5v-.4l-.7.3.9.9-1.3.3.2-1.2h-.2l.8-2 1.3 1.3-.5.2h.2Zm1.4 1.8-.7.6-.1-.6-.6.2.3.1-.6.6-.3-1 .4.2.4-1-.7-.3.8-.7.1.6.2-.5 1.3 1.6-.7.2h.2Zm-8.4-.8.5-.4v.7l-.5-.3Zm0-1.7.4.4-.5.1.1-.5Zm-.7 3 .6.1-.4.3-.2-.5Z"/><path fill="#309191" d="m112.8 92-.9-.4v.6l.4-.4.2 1.2-1-.3.1-.1-.8-.4.1-.2h-.4l.5-.5.8-2.1 1.2 1.5-.4.1.2 1Zm-.9-.7.4-.2h.1l-.5.2Zm.1.1-.1-.1v.2h.1Zm-.5 0 .3-.3-.3.2v.2Zm-5-.4.3.1.4.2-.5.2v-.2l-.2.1V91Zm-.8.1-.9.3.1-.8.8.5Zm1.2 1.3.4.3-.6.2.2-.5Zm-3-.8-.8.3.1-.7.7.4Zm3.3 1.4v.6l-.5-.2.5-.4Zm-1-5v-.4l.4.2.9-1 .7-1 .2 1.3-1-.3.1.3h.5l-.2.5-.3-.4.3 1.1-.9-.2-.3.3-.3.2-.1-.5-.3.4-.4-.5h.7Zm-2.5-4.8-.5-.8h1l-.5.8Zm.4-1-1-.1.1-.3-.5.3.2.8-1-.2.7-1 .5-1.6-.3.6-.4-.6h.7l1.4 1.3-.6.3.2.5Zm.3 1.9.4-.8.4 1.2-1-.2.1-.2-1-.2.7-1v.2l.6-1.8 1.3 1.4-1.8.7.3.7Zm-3.5-1.2h1l-.5.8-.3-.7-.4.5-.5-.8.8.2Zm4 4.4-.4-.6h.8l-.4.6Zm-2.3-3.4.3.4-.5.2.2-.6Zm-.7 5.1-.6-.3.5-.2v.5Zm-2.9.2-.4-.4.5-.3v.7Zm2.5-2.4-.2-.5.6.2-.4.3Zm-4.1-1.1h-.6l.3-.5.3.5Zm2.5.2-.5-.4.6-.3-.1.7Zm-1.2.7.5.2-.3.4-.2-.6ZM95.4 78h-1l.4-1 .6 1Zm3.8 1.9H98l.5-1 .7 1Zm-1.7-2.2-.4.7-.5-.8 1 .1Zm-5.7-1.8-.7-.7 1-.1-.3.8Zm7.6 5 .7-.2-.2.6-.5-.5Zm-2.6-2.3.5.3-.5.3v-.6Zm0 5 .5-.4.1.6-.5-.3Zm2.6-1.8 1.2.3-.8.8-.4-1.1Zm-3.3.8h-.5l.3-.4.2.4Zm1 1.6.6.3-.6.3v-.6Zm3.7.6.2.6-.5-.1.3-.5Zm-2-3.4-.4-.4h.6l-.2.4Zm2 2.8.4-.5.3 1h-.5l-.3.1v-.2h-.2l.1-.3v-.2l.2.1Z"/><path fill="#309191" d="m98.6 87.3.6.2-.5.4-.1-.6Zm3.8.1.3.5h-.6l.3-.5Zm-2.5-3.5.3.4h-.6l.1-.1-.3-.3.5-.1v.1Zm.3-5.2.3-.2-.2.6-.4-.4h.3l-.4-.5-.6.4h.7l-.5.7-.4-.6-.2.1.2-1.4h-.8v.1l.6.4-1.2.7-.2-1.5-.5.4v-1h-1l.6-1 .4.9.1-1.1 1.7 1-.9.6h.5l.3-.6.4.8v-.5l1.6 1.1-.4.2h.5l-.5.8ZM97.5 77l.4.3-.2-.4h-.2Zm-5.2.2-.5.2V77l.5.3Zm9.9 3.2h-.3l-.1.2-.3-.3.2.8.3-.4.3 1.2-1-.3.1-.1-.9-.3.2.6-1-.2.6-1v.2l.7-.8v.4l.3-.2.3-.6-1.2.6.2.1h-1.2l.5-.9.6.7.6-2.2 1.4 1.4-.4.2.1 1Zm-1.8.6.1.2.2-.1h-.3Zm-3.1-1-.2-.8 1 .2-.8.6Zm-2.4-1.2v-.6l.5.2-.5.4Zm2.4 3.8v-.5l.4.2-.4.3ZM97 81l.5.2-.4.3v-.2l-.3.2V81l.2.2V81Zm-7.6-7-1 .4.2-1 .8.6Zm.7 3-.2-.5h.6l-.4.5Zm3.3-.7 1-.1-.3.8-.7-.7.2.3H93l.2-.4.1.1Zm-6 2.3-.2-.5h.6l-.4.5Zm3.5-.4h-.4l.1-.4.3.4Zm-2.8-3.5v.5l-.5-.3.5-.2Z"/><path fill="#309191" d="m85 74.3-.2-.4h.4l-.3.4Zm2.5-.6.2.3h-.3l.1-.3Zm-1.5-.4-.3-.3h.5l-.2.3Zm-2-2.1.3.2-.3.2v-.4Zm0 3.7-.4-.2.3-.2v.4Zm6.6-2v.4h.1v.4l-.5-.3.3-.1-.3-.2.4-.3ZM86 70.7l1 .3-.1-.2 1.5.3v.2l.4.5-.6.2v.2l.9.2-.3-1.3 1.5.5-.3.3h.6l1.7.6 1.5.7-.8.8h.9v-.8l1.2.7 1.8 1-1.3.9.4.6.7 1.4h-1.4l.1-.3v-.3l.1.1.4-.8H95l.2-.5v-.3l-.2.2-.7-.7h.8V74L94 75l.4-.1-.3.8-.6-.7h.5v-1l-.3.8-.6-.6-.4.4.6 1h-1l.3-1-.3.2V74l-.5-.5h.5v-.7l-.8.8.6.9h-1v-.1l-.9.2.3-1 .7.7.1-.4-.1.2-.4-2-.2.6-.5-.5-.6.7h.3l-.2.6-.6-.4.4-.1v-.4l-.8.8-.3-.9v.1l-.4-.3-.2.3-.3-.8h-.7l.1.2h-.3v.1H86l.2-.7v-.2l-.1.4-.5-.4.6-.1-.2-.4Zm2 1.2.1-.3-.2.4h.2Zm-.8-.2-.1-.4-.2.1.3.3Zm-2.2-.4.4-.2-.1.4-.3-.2-.2.3-.6-1h1.1l-.3.7Zm-1.2-.7-.3.9-.5-1h.8Z"/></g><defs><linearGradient id="b" x1="80.9" x2="77" y1="68.3" y2="63.3" gradientUnits="userSpaceOnUse"><stop stop-color="#BC5A32" stop-opacity="0"/><stop offset="1" stop-color="#BC5A32"/></linearGradient><linearGradient id="c" x1="74" x2="75.7" y1="51.3" y2="47.3" gradientUnits="userSpaceOnUse"><stop stop-color="#BC5A32" stop-opacity="0"/><stop offset="1" stop-color="#BC5A32"/></linearGradient><linearGradient id="d" x1="83.6" x2="83.4" y1="58.6" y2="55.6" gradientUnits="userSpaceOnUse"><stop stop-color="#CC7A5E" stop-opacity="0"/><stop offset=".9" stop-color="#AA5F4B"/></linearGradient><linearGradient id="e" x1="68.5" x2="31.1" y1="185.5" y2="185.5" gradientUnits="userSpaceOnUse"><stop stop-color="#1E2838"/><stop offset="1" stop-color="#304056"/></linearGradient><linearGradient id="f" x1="59.5" x2="72.8" y1="172.1" y2="161.6" gradientUnits="userSpaceOnUse"><stop stop-color="#151E28" stop-opacity="0"/><stop offset="1" stop-color="#151E28"/></linearGradient><linearGradient id="g" x1="50.4" x2="115.7" y1="126.2" y2="197.7" gradientUnits="userSpaceOnUse"><stop stop-color="#1E2838"/><stop offset="1" stop-color="#304056"/></linearGradient><linearGradient id="h" x1="82.1" x2="82.9" y1="146.7" y2="127.9" gradientUnits="userSpaceOnUse"><stop stop-color="#151E28" stop-opacity="0"/><stop offset="1" stop-color="#151E28"/></linearGradient><linearGradient id="i" x1="45.5" x2="64.7" y1="94.8" y2="102.5" gradientUnits="userSpaceOnUse"><stop offset="0" stop-color="#093F5C" stop-opacity="0"/><stop offset="1" stop-color="#093F5C"/></linearGradient><linearGradient id="j" x1="35.7" x2="39.1" y1="90.2" y2="94.2" gradientUnits="userSpaceOnUse"><stop stop-color="#CC7A5E" stop-opacity="0"/><stop offset="1" stop-color="#AA5F4B"/></linearGradient><linearGradient id="k" x1="68.4" x2="98.9" y1="103.7" y2="101.2" gradientUnits="userSpaceOnUse"><stop offset=".1" stop-color="#093F5C" stop-opacity="0"/><stop offset="1" stop-color="#093F5C"/></linearGradient><linearGradient id="l" x1="105.7" x2="99.5" y1="133.7" y2="135.7" gradientUnits="userSpaceOnUse"><stop stop-color="#CC7A5E" stop-opacity="0"/><stop offset=".9" stop-color="#AA5F4B"/></linearGradient><linearGradient id="m" x1="113.5" x2="113.6" y1="138.9" y2="132.7" gradientUnits="userSpaceOnUse"><stop stop-color="#CC7A5E" stop-opacity="0"/><stop offset=".9" stop-color="#AA5F4B"/></linearGradient><linearGradient id="n" x1="136.4" x2="92.6" y1="79.6" y2="107.9" gradientUnits="userSpaceOnUse"><stop stop-color="#089BA5"/><stop offset="1" stop-color="#136B73"/></linearGradient><linearGradient id="o" x1="111.6" x2="105.9" y1="115.5" y2="135" gradientUnits="userSpaceOnUse"><stop offset=".1" stop-color="#093F5C" stop-opacity="0"/><stop offset="1" stop-color="#093F5C"/></linearGradient></defs></svg>
