<svg xmlns="http://www.w3.org/2000/svg" viewBox="0 0 720 640"><path xmlns="http://www.w3.org/2000/svg" fill="#e8ecef" d="M567.9 484a264.4 264.4 0 1 0-415.7 0h415.7z"/><path xmlns="http://www.w3.org/2000/svg" fill="#fff" d="m571.4 307.6.9.5-1-.5zm-50.1 43.8.1.3c0-.1 0-.2-.2-.3zm153-63.4-.6 1.2.1-.3.5-1zm10 113.5c-3.8-6.5-13.2-12.4-28.5-8.7l-13.5 7.6c-3 2.6-5.8 6-8.4 10a84 84 0 0 0-12.6 45.3c-1.6-.6-3.1-1-4.6-1.3.4-8.2 1-17.4 2-23 2-11.8 3.3-29 19-39.8s27.8-18 29.8-35.7-10.2-17.4-13.4-28.6c-3.2-11.1 5-20.8 14.4-31s14.4-34.3-8.8-42.6a34 34 0 0 0-26.5 2.9c-1.2.7-4.2 3-5.8 5l-7.5 13.9a33 33 0 0 1-20.4 20.6 24 24 0 0 0-16.8 19.8 20.9 20.9 0 0 0-5.9-4.7c-8.2-4.7-12.4-5.7-17-20.2s-13.8-24.5-28.4-19c-15.5 5.7-8.8 21.2-5.2 33 3 9.8-2.7 15-6.3 24.2H315.3a3 3 0 0 0-3 3v11.6a3 3 0 0 0 3 3h8.7v7.6h-8.7a3 3 0 0 0-3 3V369a3 3 0 0 0 3 3h8.7v31.6h-14.4v2.8c0 5.4 2.3 9.8 7.3 10.3v3.4a3 3 0 0 0 3 3h3.6l-5.7 25.9a32.8 32.8 0 0 0-11.4-5.5c-8-2-16-.8-23 2.8l-6.3 4.1a42.3 42.3 0 0 0-11.6 14.7 31.3 31.3 0 0 0-26.4-3.2c.9-5.6 0-11.5-2.7-16.9a28.1 28.1 0 0 0-36-12.6c1.4-5.3 1-11-1.7-16.3a22 22 0 0 0-7.3-8.1V257.5h5.4a5.5 5.5 0 0 0 5.4-5.5v-2.2c0-2.3-1.5-4.3-3.5-5.1l11-44.5h4.8l2-8.3h-56.7l2.1 8.3h4.8l11 44.5c-2 .8-3.5 2.8-3.5 5.1v2.2a5.5 5.5 0 0 0 5.4 5.5h5.2V273l-.7 131.7a23 23 0 0 0-7.9-.6 18 18 0 0 0-3.8-5.5c-11-11-8.5-18.3-7.6-25 1.7-12.3-4.2-20.6-15.4-23.6a24.2 24.2 0 0 1-17-13.9c-.7-1.3-2.7-5.3-4.3-7.3l-10.7-6.7c-7.4-2-13-.7-16.5.8-17.6 7.7-15.3 24.3-7.5 31.7s10.8 12.8 7.1 21.7c-2.3 5.6-3 10.5-2.3 16.5-19-8-31.9.8-35.2 11.1-4.7 14.2.8 30 23 31 4.2 0 8.1.5 11.7 1a30.2 30.2 0 0 0-8.6 27.7 29 29 0 0 0 2.6 7.3c-4.5-.6-9.3.1-13.6 2.4a22.8 22.8 0 0 0-10.7 11.9h324.2l15.9-.6H635s6-3.6.7-14.7a70.5 70.5 0 0 1 28.3-29.1c19-9.4 27.8-26.3 20.2-39.3zm-353-54.9h187.6a30 30 0 0 0 5.2 7.7H331.3v-7.7zm0 25.2H529c-.3 5.3 0 11.2 4.7 18.3v4.2c-.2 0-.3-.2-.5-.3v-.3.3a52.9 52.9 0 0 0-43-10.1 34.4 34.4 0 0 0-26.4 19.6H331.3v-31.7zm103.3 83.6S421 451 409 460a24.7 24.7 0 0 0-6.2 7 41.6 41.6 0 0 0-2-1.2c-7.5-4-19.6-10.5-42.1-6.8a33.1 33.1 0 0 0-25 18.4c-1-9-4.7-17.3-10.3-23.6l9-30.8h106.9a20 20 0 0 0-3.4 2.7c-12 11.4-1.1 29.7-1.1 29.7zm249.6-54.8.3.5-.3-.5zm-62 39.7v-.1zm-522-65v-.2.3zm457.1 110.1h.4-.4zm-151.9-.6h-.8l-6.4.2h4.9c2 0 3-.1 2.3-.2zM273.6 486h.3-.3zm-73.8-69.2-.2-.5v.1l.2.3zm23-283.5h53.9s17.9 1 16.7-11.7c-1-11.6-13-9-13-9s-1-23.6-29.4-22.7c-27.6.8-29.4 25.2-29.4 25.2s-8.8.1-9.7 8.3c-.7 6.3 5.4 10 11 10zm1.2.4h.5-.5zm69.4-14.6v.1-.1zM583.6 161a10.4 10.4 0 1 0 0-20.7 10.4 10.4 0 1 0 0 20.7zm6.6-1.9h.2-.2zm-414.3 81.3zm16.5 72.5v1-1zM184 356v-.3a1.9 1.9 0 0 1 0 .3zm8.4-57.6zm6.2-129.5-3.5-1.2h-1.7c.5-.9.8-2.7.8-6a6 6 0 1 0-12 0c0 3.1.2 5 .5 6.2h-4c-.2-.1-2.2 2.5-2.2 2.5l-9 20.9h41.8l-10.7-22.4zm-10.4-1.2h1.1l-2 .1 1-.1zm-18.6 16.5zm35.5-3.5zm118.5 213v.4-.4zm8.1-16.4zm106.1-30h.4-.4zm.4 25.3h-.4.4zm-3.7 51.1h.3-.3zm13.9-225.2h122.8c18.7 0 21.8-16.3 13.5-22.9-9.3-7.4-20.6-2.8-20.6-2.8s1.3-15.2-6.6-28.6a39.5 39.5 0 0 0-5.3-7l-14.5-9.5c-2.8-1-5.8-1.9-9.1-2.5-45-8-49.8 37.8-49.8 37.8s-9-10.1-20.4-3.3-6.5 18.8-6.5 18.8-16.8-2.5-16.3 11.2c.4 10.8 12.8 8.8 12.8 8.8zm19.8-41.8h-.4.4zm-145 190.2v.1z"/><g xmlns="http://www.w3.org/2000/svg" fill="#9ca5b2"><path d="M562.8 380.9a.5.5 0 0 0 .5.4.5.5 0 0 0 .5-.5 318 318 0 0 0-3.7-26.2c-9.7-50.3-19.3-67.4-19.4-67.6a.5.5 0 0 0-.7-.2.5.5 0 0 0-.2.7c.1.2 9.6 17.2 19.2 67.3a299 299 0 0 1 3.8 26zm59-110.6h.3a.5.5 0 0 0 .4-.3l1-2.2c.1-.3 0-.6-.2-.7a.5.5 0 0 0-.7.2l-1 2.3c-.1.3 0 .5.3.7zm-381-179.6.1-.1zM216.4 132l-.5-.2.5.2zm-5-7.5v.5c.1.7.3 1.2.2 1.3a8 8 0 0 0 2.2 3.8c1 .9 2 1.6 3.3 2.1.2.2-.2 0-.6-.1a12.5 12.5 0 0 0 1.3.5l-1.6-.6c2 1.2 4.5 1.6 7.1 1.7h.7l1-.2c.3 0 0 .2 1.2.2h4.2c-.7-.1-.5-.1-.2-.2h1.5v.2c-.2-.1 1.8-.1 2-.2.4.1-1 .1-1.2.1h3.9c1.4 0-.3 0 .4-.1h3.8l-.5-.1h5.2c17-.7 3.6-1 3.6-1-6.7-.2-10.1.1-18 .2l-8-.1c-1.1 0-2.2-.2-3.3-.5-1.2-.3-2.5-.8-3.9-1.8a7.9 7.9 0 0 1-2.8-3.8 8.2 8.2 0 0 1 0-4.7l.4-1.2.4-.7.4-.6a10 10 0 0 1 2.2-2l.7-.3a6.5 6.5 0 0 1 1.8-.7 7.2 7.2 0 0 1 1.3-.3l.6-.1.6-.1h.8l.2-1.3v.4-.8l.1-.6.3-1.2a24 24 0 0 1 .6-2.3c1-3 1.4-4.1 3-6.6a18 18 0 0 1 2.8-3.8c1-1 2-2 3.5-3.2l.2-.1c1.4-1.1 3-2 3-2.2 1.1-.6 1-.4 1.1-.4l2-1-.5.2 2.7-1h-.6l1.8-.3v-.1c1-.3 1.9-.4 2.7-.5l1.3-.1 1.4-.1c4.2-.4 8.6-.4 12.9.5 4.2.8 8.2 2.6 11.1 5.3l.2.3c0 .1 1.7 1.3 1.8 1.6l.7.6c.1.2.4.7.1.4l1 1.1.4.8a26 26 0 0 1 3.7 8.9 24.6 24.6 0 0 1 .1 1.1l.1.8a23.2 23.2 0 0 1 .1 1.2l1.5-.2.9-.1h1.7c1.2 0 2.5.3 3.6.7 1.2.4 2.2 1.1 3 1.9l1 1.3.6 1.3c.2.7.6 1.5.6 2.3l.2 1.2v1.3c0 1.6-.5 3.3-1.5 4.6a9.6 9.6 0 0 1-1.8 1.8c-.7.5-1.4 1-2.2 1.3-1.5.7-3.1 1.2-4.7 1.5l-.8.2c-2 .3-4 .4-6 .3l-12 .1c-4.7.1-6.5.4 4.8 1h-.1l7.8-.1c.3.2 2.8 0 3.6 0 2-.3 4.2-.5 6.1-1.3l-.5.3c1.4-.4 3.2-1.4 3.3-1.4a10 10 0 0 0 4.2-4.3 9 9 0 0 0 .8-4.9v.2a15.5 15.5 0 0 0-.2-1.5l-.3-1.6v-.2a24.2 24.2 0 0 1-.5-1.2l-.6-1.3a7.5 7.5 0 0 0-1.6-2v-.1l-.6-.5-.6-.4a7 7 0 0 0-1.2-.7l.9.5a8 8 0 0 1-1.3-.6 13 13 0 0 0-1.2-.4l-1.5-.3a10.5 10.5 0 0 0-2.4 0c-.8 0-1.7.2-2.3.4v-.7c-.3-1 .2.8 0-.6 0 0 0 .6.1.3-.2-1.4-.3-2.3-.8-3.9-.7-2.1-1.3-4-2.1-5.2-1.3-2-.6-1.5-2.1-3.3l-.5-.8-1.3-1.3s-1-1-.5-.6a26.4 26.4 0 0 0-7.2-4.7l-1.4-.4a9.4 9.4 0 0 0-1.4-.4c0-.2-3.3-.9-1.4-.5h.7c-1.9-.5-3.4-.7-5.3-.9.5.1 1.3.2.8.2l-1.8-.2h.4c-.8-.2-1.7-.2-2.6-.2h.4c-1.3 0-1.7-.1-3.2 0-.6 0 1.2 0-.1.1l-3 .1-3.4.4-1 .3-1.6.3-1.5.3-.4.3-1.5.5c-.3.1-.7.1-1.7.7.9-.4.5 0-.5.4l.2-.2-1.1.6c.3-.2.1-.2-.7.3l.5-.4-1.4 1c-1.2.6-2.8 2-3.3 2.3l-1.2 1c-.6.5-1.1 1.2-1.3 1.5.3-.5-.8.6-.5.3l-2.2 3c-1.8 2.6-2.6 4.9-3.6 7.6.1-.1-.4 1.3-.1 1l-.6 2.4-.2 1-.1.5h-.2a5 5 0 0 0-.6.1l-.8.3-2.3.7.3-.2a10.9 10.9 0 0 0-2.6 1.5 9 9 0 0 0-1.7 1.7l-.6 1c0 .4-.3.8-.6 1.6l-.3.8v-.3.6l-.1.5-.1.8v-.4l.1-.2-.1 1v.5zm361.4 28.7zm-.2-3.6c0 .3.1-.4.1 0v2.5c.2.8-.1.4.1 1.1l.2.1c.3.7 0 .4.4 1l.2.3-.1-.1.1.4v.2l-.1-.1.4.4c0 .5.6 1 .6 1.2l.7 1c-.2-.2.2.2 0 .2a4.8 4.8 0 0 1 1 .9h-.1c.7.8 1.5 1 2.3 1.6 0-.1.4.1.4 0l1.2.5c.3.2.6.3.8.1l.8.3h-.1l1.7.2c.3 0 .3-.2.9-.2h.3c-.2 0-.2.1 0 .1a.7.7 0 0 1 .2 0h.1v-.1c.3 0 1-.2 1 0l2.5-1-.3.2.6-.3-.5.3c.7-.2 1.3-.8 2-1.2l.1-.1h.1l.2-.3c.1 0 .1.1.4-.2l.5-.4.4-.6c-.1.1-.1 0 0 0 0-.2.2-.2.3-.4l.4-.6-.2.4.7-1c.2-.5-.1 0 0-.3s.2-.7.5-1h-.2a13 13 0 0 1 .6-1.6c.2-1.4 0-2.1-.1-2.5-.1-.3-.2-.3-.3-.1l-.3 1.3-.7 2.5c-.3.7-.6 1.5-1.4 2.4a8.3 8.3 0 0 1-1.8 1.6l-2 1.1c-1 .4-2.1.6-3.1.7H582c-.2 0-.4 0-.6-.2l-.7-.2h-.4.1a5 5 0 0 1-1.4-.7v.1c-.8-.6-1.2-.6-1.8-1.3-1-.6-1.2-1.4-2-2.2.1 0 0 0 0 0l-.6-1c-.2-.4-.1-.3 0-.4l-.4-.6v.2l-.2-.9v.2c-.2-.5 0-.2-.1-.6h-.1l.1-1.7c0-1.3.1-2.6.6-3.9a7.6 7.6 0 0 1 2-3.2h.2l.5-.6.2-.2h.1l.3-.3.3-.1c.9-.5 1.6-1 2.7-1.4.6 0 1.5-.3 2.5-.3h1.4l1.2.1c1 .1 2 .6 2.9 1.3.9.6 1.6 1.4 2.4 2l.1.2a10.7 10.7 0 0 1 1 1.6l.2.3a8.7 8.7 0 0 1 .4.9c.3.7.4 1.6.6 2.3.1.7.2 1.2.4 1 0 0 .4-.8.2-2.7a5.2 5.2 0 0 0-1-2.4c.1-.2-.4-.8-.5-1-.5-.5-.8-1.2-1.4-1.6h.2c-.3-.2-.9-.7-.8-.8a7.8 7.8 0 0 0-3.1-1.6l-1-.2-1.7-.3v-.1h-.9.4c-.2.2-.7-.2-1.4 0l-.9.3a2 2 0 0 1-.9.3c-.3.1.2-.2-.2 0 0-.2.2-.2 0-.2-.3.1-.7 0-1.2.3-.6.4-1.3.4-1.6.8-.6.5-.6.1-1.1.7h-.3l-.4.6c0-.1-.4.2-.3 0-.7.6-1 1.4-1.8 2.3l-.3.9s-.5 1-.3.4v-.2l-.4.8-.2.9c.1-.2.2-.5.2-.3l-.2.6v-.1a6.2 6.2 0 0 0-.2.8c0 .4-.2.5 0 1zM330.4 338.1a3 3 0 1 0-6 0 3 3 0 1 0 6 0zm-5 0a2 2 0 1 1 4 0 2 2 0 1 1-4 0z"/><use xmlns:xlink="http://www.w3.org/1999/xlink" xlink:href="#a"/><path d="M327.4 366.6a3 3 0 1 0 0-5.9 3 3 0 0 0-3 3 3 3 0 0 0 3 3zm0-4.9a2 2 0 1 1 0 4 2 2 0 0 1-2-2c0-1.1 1-2 2-2z"/><use xmlns:xlink="http://www.w3.org/1999/xlink" xlink:href="#a" y="25.6"/><path d="M498.3 130.3zm-38.4 67.5h.4zm-22.9-2a9 9 0 0 0 4.5 2.8c-.9-.3.4.2.3.2a15.1 15.1 0 0 0 6.6.3l.6-.1h6.4-1 5.6l-1-.2c2.9 0 .7.2 3.5.2v-.1c4 0 6.4.2 10.3.3h49.6c.3.1 4.2-.2 4.7 0l1.8-.1h39.8c3 .1 6 0 8.8-.7a19 19 0 0 0 7-3.4c2.5-2 4.3-5 4.8-8.4.6-3.4-.5-7-2.7-9.8l-1-1c-.2-.2-.5-.6-.9-.8l-2.2-1.5-1-.6-1.3-.5-2.4-.9c-3.4-.9-6.8-.9-10-.3a15.8 15.8 0 0 0-.9.2l-.6.2-1.2.3h-.3l-.2.2v-3.8c0-1.6-.2-3-.3-4.6l-.3-2.3a52.1 52.1 0 0 0-3.8-12.8l-.8-1.7-.9-1.7a26.5 26.5 0 0 0-1.8-3c-2.5-3.6-4.9-5.7-4.4-5l2.5 3.3a43 43 0 0 1 5.3 10.3l-.1-.2c1 3 1.8 5.4 2.3 7.7a75.4 75.4 0 0 1 1.1 6.4 33 33 0 0 1 .2 6.6v2.3l1.8-.7a24.2 24.2 0 0 1 1.2-.3 21 21 0 0 1 2.5-.4c1.7-.2 3.3-.2 4.9-.2h-1a19.8 19.8 0 0 1 6.3 1.3l2.2 1 1.1.7 1 .7c.9.5 1.4 1.2 2 1.8.6.7 1.2 1.3 1.5 2.1.9 1.5 1.2 3.2 1.3 4.6a14 14 0 0 1-.2 3.6c-.3 1-.5 1.7-1 2.4 0 .3-.3.7-.5 1l-1 1.4a4.8 4.8 0 0 0-.2.2l-1.5 1.6-1.1.7-1.1.7-1.2.6-1.2.4-1.9.7-2.6.4c-.8.2-1.7.1-2.5.2l2-.1-2.7.2h-5c-3.5 0-7 .4-10.7.3-1.7 0 1.5-.2-1 0-.1-.2 1.1-.1.5-.2h-7.3l-.1-.1h-10.5c-4.2 0-2.8-.2-7.2 0l-1.7-.2h-20.6l-5.5.1c-.2 0-6.3 0-2.7-.1h1.1c-3.6-.2-6.5 0-10 0h1.5-3.2.7-4.9.7c-2.4 0-3.2-.2-5.9 0h-14.1c-4.3 0-1.6-.2-5.8-.1h-.8c-3.8.2-2 0-6.3.1 1.7 0 .8.2-1.3.2l.5-.1h-3.6l1.1-.2h-1.2l-.5.1-1.5.2a19 19 0 0 1-4-.5c-.7-.2-1.3-.4-1.7-.7a3.5 3.5 0 0 1-1-.6l-.2-.1-.5-.3-1.2-1.3-.3-.4-.2-.5-.5-.9a27 27 0 0 0-.4-1.3c.2.4 0 0 0-.4v-.6c0-.6-.2-2 0-3.3a8 8 0 0 1 1-3.2v.3a9.4 9.4 0 0 1 5.7-4.5c2.3-.8 4.7-1 7.3-.8h.6l1.8.2-.4-.8c0-.3-.2-.6-.3-.8l-.1-.5v-.2c-.2-.3-.2-.6-.3-1l-.3-1.8.1-3.3.2-1.5.3-1.2.6-1.8.8-1.3.6-.8 1-1.2-.3.5.6-.7.5-.5 1-.9 1.8-1.2 1.8-1 2.1-.7c1.6-.4 2-.9 5-.7h-.1.6l.9.2c-.8-.1-1-.2.5.2l.8.1s.1 0 0 0l1 .3.4.1-.7-.2-.2-.1c1 .3 2.2.9 3.2 1.4l1.9 1.3a20.6 20.6 0 0 1 1.4 1l.4.5.5.5 1 1 .3-2.5.3-1.5a52.9 52.9 0 0 1 2.2-8.2l-.6 2a53.9 53.9 0 0 1 1.2-3.3l-1 2.9c1.4-4 3-8 5.7-12.1l.5-.9.2-.2.3-.6.7-1c.5-.4 0 .2 1.6-1.6a41 41 0 0 1 5.4-5.3l2.3-1.6h.1l1.2-.8 1.9-1-1.9 1 3.2-1.5 1-.5 1-.3 1.4-.5c2.4-.9-.5 0 .7-.4 1-.4 2.2-.6 3.3-.9l3.6-.5h-.8l3-.3h4.6c.7 0 1.4 0 2.1.2 8 .5 12.3 1.9 14.4 2.4 2 .7 2 .5.9 0s-3.2-1.2-5-1.7l-3.4-.8a50.5 50.5 0 0 0-16.4-.8l-2.9.5-1 .2-2 .5-2 .7a36 36 0 0 0-15.4 10.3l-2.2 2.7-1.9 2.7a45 45 0 0 0-6.2 14.2l-1 3.6a55 55 0 0 0-.3 1.9v.3h-.1l-1.3-1.1-2.8-1.7c-2-1-4-1.7-6.1-1.9-1.6-.1-3.8 0-6 .7l-1.6.6-1.5.7c-1 .5-1.8 1.2-2.6 1.7l-1.1.9-.7.7-.7.8-.7.8a20.9 20.9 0 0 0-.6.8c-.5.7-1 1.7-1.3 2.5-.3.9-.6 1.6-.6 2l-.2 1.1-.2 1.2v-.4a17.6 17.6 0 0 0 .5 6 12.8 12.8 0 0 0 .2.8v.2h-.5.2a21 21 0 0 0-7.4.7 11.6 11.6 0 0 0-6 3.9v-.1a10.9 10.9 0 0 0-1.8 4.8c-.3 1.5-.2 3 0 4.5.3 1.4.8 3 1.9 4.2zM543.6 131l1.9 1.2a.5.5 0 0 0 .3 0c.1 0 .3 0 .4-.2a.5.5 0 0 0-.2-.7l-1.9-1.1a.5.5 0 0 0-.7.1.5.5 0 0 0 .2.7zm107.2 263-1.7 1-1 .6c-.3.2-.4.5-.2.7 0 .2.3.3.4.3a.5.5 0 0 0 .3 0l1.1-.8 1.5-1c.3 0 .4-.3.3-.6a.5.5 0 0 0-.7-.2zm-524.7-31a.5.5 0 0 0 .4.2h.2c.3-.2.4-.5.2-.7l-1.2-2.2a.5.5 0 0 0-.7-.2.5.5 0 0 0-.2.7l1.3 2.2zm-19.2-32a.5.5 0 0 0-.7-.1c-.2.1-.3.4-.1.7a306.7 306.7 0 0 0 15.4 22.9.5.5 0 0 0 .2 0c.3-.2.3-.5.2-.7-8-13.4-15-22.7-15-22.8zm15.2-6.3 1.7 1a.5.5 0 0 0 .3.1c.1 0 .3 0 .4-.2.1-.2.1-.5-.1-.7l-1.9-1a.5.5 0 0 0-.6.1c-.2.3 0 .6.2.7zM239 458zm-137.5-24.3-.3.3zm75.1-189.3zm5.1-78zm-8.7 12.3h.2c.2 0 .4-.1.5-.3l.7-1.5c0-.3 0-.6-.3-.7a.5.5 0 0 0-.6.3l-.7 1.5c-.2.2 0 .5.2.6zm-12 14.5v.1zm18.2 11.2c0 1.2.2 1.9.4 3.3.1 1.4 0 1.7.2 3l.2 2c.2.3.1.9.3 1.2v1.3l.2.9c0 .6.2.8.1 1.3.3.7 0 1.2.3 1.9 0-.1 0 0 0 0 0 .3 0 .7.2.7l-.1.2.1.4v.5l.2-.2c0 .3-.2.1 0 .4l-.1 1c0 1.7.5 3.4.5 5h-.1c-.1 0 .2.4.1.5l.1.2s0 .1 0 0v.5l.2 1.8c0 .9.2 2.4.4 3.2.3 1.2 0 2.7.3 4a.2.2 0 0 0 0 .1l.2 1.2s.5 5.6 1.1 1.2c0-.6 0-1-.2-1.4.2-.1 0-.5 0-.7v-1.2.1-.6c-.1-.7-.1-1.6-.3-2l-.1-.5c-.2-.3-.1-.8-.2-1v-.5.2c-.2 0 0-.4 0-.7 0-.4-.5-.7-.5-1 0-.2.2 0 0-.2.2 0 .2.1.2 0v-1.7c-.2-.4.1-.3 0-.7v-.2l-.1-.3s0-.3.1-.2c0-.5-.2-1-.1-1.6-.2 0-.1-.4-.2-.5v-.3l.1.1c.1-.4-.1-.6-.1-1v.2-.8.1-.6c-.2-.1-.2.2-.2 0v-1.2l-.1-.2c0-.4.2-.2 0-.6-.2-.4.1-.3-.1-.7 0 .2-.2.1-.2 0h.1v-.4h.2l-.2-.2v-.7l-.1-.7c0 .1 0-.2.1-.1 0-.1-.2-.5 0-.7 0-.6-.3-1-.2-1.5-.1 0-.1-.3-.2-.2-.2-.6.1-1-.3-1.2v-1.4c0-.1-.2-.1-.2-.4v-.2s0 .1 0 0v-.8c0-.6-.2-1-.3-1.5l.1.2v-.3.3c.2-.5-.1-.9 0-1.4h-.1v-.1l-.1-.2s.1 0 0-.2c.1-.2 0-.6 0-.8 0 .1-.1.1-.1 0v-.6.2-.7c-.2-.3-.1 0-.2 0 0-.3-.2-.5-.1-.8l-.1.1v-1c-1-3.1-1-.6-1-.6zm3.2 16.6zm10.1 16v.7c0 .3 0 0 .1.1v.7h.1l-.1 1c.4 3.1.8.7.8.7.3-1.3.2-2 .2-3.4.2-1.3.4-1.6.5-3l.1-1.9v-1.3l.1-.4v-.7l.1-.9v-1.3c0-.8.3-1.1.2-1.9 0 .1 0 0 0 0v-1.3.1-.5h-.1c0-.2.2 0 .2-.3h-.2l.4-1c.2-1.6 0-3.3.4-4.7h.1v-1.2l.1-.1.1-1.9c.2-.8.2-2.3.2-3.1 0-1.3.6-2.6.5-3.9a.2.2 0 0 0 0-.1l.1-1.2s.6-5.5-.9-1.4c-.2.6-.2 1-.1 1.4-.2 0 0 .5-.1.7 0 .4-.2.7-.1 1.1 0 0-.1 0 0 0 0 .2 0 .5-.2.6 0 .6-.2 1.5 0 1.9v.5l-.1 1-.1.5v-.2c.2.1-.1.4 0 .8-.1.3.3.7.2 1 0 .2-.2-.1-.1.1h-.2v.7h-.1c0 .4-.2.7-.1 1 0 .4-.3.3-.1.7l-.2.2v.4c-.2.5 0 1-.2 1.6v.8-.1h-.1c-.2.3 0 .6 0 1v-.2.3l-.2.4h.1c0 .2-.2.2 0 .5 0 .1 0-.2 0 0l-.2 1.2v.2c0 .5-.2.2-.2.6h.1v.7c0-.2.2 0 .1.1v.2l-.1.1-.1-.1.1.3-.1.7s-.2.5 0 .7c-.1-.1-.2.2-.3 0 .1.2.2.6 0 .8l-.1 1.5.1.2c0 .5-.3 1 0 1.2l-.1.4v1.5h-.1v.2c0 .2 0 .1 0 0v2.1c-.1 0-.2 0-.2-.2v.3-.3c-.2.4 0 .9-.1 1.3v.1l.1.3s-.2 0-.2.2v.8c0-.2 0-.1.1 0v.2h-.2l.1.4v-.2zm1-13.4zm175.9 122.6zm0 25.2zM312 483.5h.1zm58.5-61zm-58.8-7.6-.1-.2-.3-.2.4.4zm179.7 2.2zm184.4-148.4z"/><path d="M687.2 410.3v-1l-.2-1 .2.6-.3-1.5.4 1.8-.3-1.9-.2-.9-.3-.9-.7-1.9-1-1.8-.3-.5v-.2l-.7-.8c-.1-.4.2-.1-.7-1.2-.6-1-2.1-2.4-3.4-3.2.6.5.4.4.1.2l-1.3-1v-.1l-.7-.4-1.2-.6 1.2.5-1.9-1c-.3 0-.6-.3-1.9-.8-1.4-.4.2.2-.5 0l-1-.2-.9-.3-1-.2-1-.2.4.2-1.7-.3H667c-.8-.2-1.6-.2-2.5-.2-1.1 0-2.1.2-3 .3l-2.3.4-2.8.7c-1.2.4-1 .5-.4.4l2.9-.4 1.9-.2c3.5-.3 6.1-.3 9 .2a21 21 0 0 1 9 3.5c3 2.3 4.3 4.2 5.3 6.3l.7 1.6.6 1.8c.3.6.4 1.3.5 2l.2 1.3v1.3a23 23 0 0 1-2.2 10.6c-.6 1.6-2.3 4-3.4 5.7l-.5.6-1.4 1.6-1.9 2-.8.8v-.2a35.8 35.8 0 0 1-4 3.4h.2l-1.9 1.3-1.5 1-1.5 1-1.9 1v-.1l-4.6 2.6c-.3.2-.7.3-1 .6l-1.1.7a52.4 52.4 0 0 0-2.4 1.6c.4-.3-.2.1-.2 0-1.5 1.3-3.1 2.6-3 2.8l-1 .8-1.7 1.6.3-.3-1.1 1-1.1 1.2.5-.4c-1.2 1.2-.4.2-1.5 1.4h.1l-2 2.2a79.9 79.9 0 0 0-8.5 11.6l-1.2 2-2.7-4.5c-1.3-1.9-3-3.7-5-5.3 1.9-7 5.6-17.5 12.3-26.7 15.7-21.6 33-28.1 33.2-28.2.3-.1.4-.4.3-.7a.5.5 0 0 0-.6-.3c-.2.1-17.9 6.8-33.8 28.6a83.6 83.6 0 0 0-12.3 26.6l-.4-.3c-1.5-1.1-3.2-2-4.8-2.6l.1-4.5.4-5 .4-4.2c.8-7 3.5-14.8 6.2-21.4a3 3 0 0 0 .2-.4l.1-.3c1-2 1.9-4 3-5.8l.7-1.1 1.7-2.8a60.6 60.6 0 0 1 5.1-6.5c1.6-1.9 2.9-3 2.5-2.9l-2 1.5c-1 1-2.6 2.4-4.6 4.8v-.2a38.2 38.2 0 0 0-4.5 7.1l-1 1.5-.8 1.9-1.5 3-1.2 3 .2-.6-1.4 3.6-1 2.8-.8 3c-.4 2-1 4-1 5.1v-.2l-.5 3.3v.1l-.8 5.5-.3 3 .1-1c.2.3-.3 2.1-.3 4.2l.1 3-1.5-.4-1.5-.4-.8-.1.9-12.2c-.2.5 0-1 0-2.6l.2-.2c.2-3 .4-3.5.5-4l.6-4v.5-1.5l.7-4.3.8-4.6c-.4 2.3-.4 1 .3-1.8l-.1.7.7-3.1.5-1.8-.3 1.6 1.1-4.3 1-2.7 1.2-2.8 1.3-2.4c.3-.6.6-1.2.9-1.4l.6-1 .7-1 .9-1.2 1-1.2 1-1.1 1.2-1.5c-.5.6 2.1-1.7 1.3-1l1.5-1.3 2.2-1.7a127 127 0 0 1 4.2-2.8l-.3.2c3.5-2.4 6.5-4.4 9.3-6.6s5.3-4.4 8-7.2l1-1.3.7-1a35 35 0 0 0 5.2-9.1l.7-2 .4-1.9.3-1.5.1-1.2.5-3.7v-2.5l.1.9a23 23 0 0 0-1.2-7.5l-.6-1.4-.7-1.3a10 10 0 0 0-.9-1.3l-.5-.7-.6-.7c-1.6-1.9-2.2-2-5.1-5.3 1 1-.3-.2-1.3-1.6.7.8.9 1.1-.4-.6l-.7-1s0-.1 0 0l-.5-1 .2.5-1-2.2-.4-1.3-.3-1.2-.3-2.2v-1c0-4 1.2-7.5 2.7-10.5 1.6-3 3.4-5.6 5.6-8.3.6-.6-.4.7-1.6 2.3a87.2 87.2 0 0 1 3-3.8l-2.7 3.4a187 187 0 0 1 5.9-7l3.2-3.6a34 34 0 0 0 2.8-4.3l.6-1.3.2-.4.4-.8.6-1.6.3-.7a27.3 27.3 0 0 0 1.8-7.8 27.4 27.4 0 0 0-.2-6c.2 2 0 1.4 0 .6-.2-1.7-.4-2.7-.8-4v-.2l-.7-2-.8-1.7-.6-1 .5.9 1 1.8c-1.4-3.2-2.1-3.8-2.6-4.5-.6-.7-1-1.5-3.6-3.8-3-2.2.5.5-1-.6-2.5-2-5.4-3.4-8.9-4.6l1.1.5a30 30 0 0 0-7.5-1.5 33.3 33.3 0 0 0-18.8 4.1c-1.4.8-2.5 1.8-3.4 2.5a28.9 28.9 0 0 0-2 2c-2 2.3-1.7 2.3-.6 1 1-1 3.4-3 5.5-4.5a32.4 32.4 0 0 1 15.7-4.3 29 29 0 0 1 15.2 3.5 23.4 23.4 0 0 1 4.7 3.3c2.9 2.6 5.5 6.5 6.4 11.6.8 4.4.3 8.2-.5 11.4-.9 3.2-2 5.9-3.5 8.4a29.9 29.9 0 0 1-2.6 3.6l-3.2 3.6-3.7 4.2a51.3 51.3 0 0 0-4 5.4 27.2 27.2 0 0 0-5.1 13.3c-.3 5 1.6 10 4.7 13.3 1.5 1.7 3.7 3.6 5.6 6 2 2.2 3.1 5 3.6 7.4l.2 1.9.2 2.7-.2 2.7v-.1c0 1.2-.3 2.6-.5 3.8l-.6 2.8v-.1l-1 2.9.2-.5c-1.4 4.2-4.1 8-6.9 11l.3-.2c-3 3.1-5.3 5-7.5 6.8-2.3 1.7-4.6 3.4-7.9 5.6l.1-.1-5.6 4-2.5 1.8-2.3 2c-3 2.8-5.6 6-7.9 10.8l-.2.4-1.4 3.3a32.6 32.6 0 0 0-1.8 6.2l-1 3.1v.5l-.2 1.3-.7 3.9.2-1.3-1.3 7.7.4-1.5c-.7 4-.3 1-.9 5l.2-.1c-.7 5.6-1.1 9-1.5 14.5l-.3 5h-.3a26.6 26.6 0 0 0-2.2-.1l-1-.1h-2l-.5.1.3-.3v-.2l.1-.1.1-.2.9-1.8-.6 1.3a17 17 0 0 0 1.5-4.3l.4-2.3.2-2.3-.3 1.8.2-1.5v-1.5c.1-.3.2-.5 0-2.9l-.1.1c-.4-3.3-1-5.9-2-8.4a15 15 0 0 0-5.2-6.8c-1.6-1.1-3.4-2-5.2-2.5a403 403 0 0 1 12.5-67.4c11.9-41.6 40.5-89 40.8-89.5.1-.3 0-.6-.2-.7a.5.5 0 0 0-.7.2c-.3.4-29 48-40.9 89.7a403 403 0 0 0-12.5 67.4 30.2 30.2 0 0 0-3.4-.8 37 37 0 0 0-7.8-.4h-1.6l-.2.1v-.3l.1-.9.1-2a42 42 0 0 0 0-3.8c-.3-2.6-.7-5.2-1.4-7.7-.8-2.5-1.8-4.9-3.2-7a26.3 26.3 0 0 0-5-6L575 391a58.4 58.4 0 0 1-4.4-10.8c-1-3.7-1.4-7.3-1.2-10.4.3-4.2 2-8.6 4.8-12.1 3-3.5 6-7.3 7.9-11.8a24.2 24.2 0 0 0 1.7-14.1c-.2-2.4-.7-4.7-.9-6.9a40 40 0 0 1 0-6.7l.2-1.2.1-.8c.9-5.3 3.1-10.4 7-14l.6-.6 1.8-1.5a28.2 28.2 0 0 1 7.1-3.6 31.7 31.7 0 0 0 16.3-12.6c3.4-5.3 4.5-9.5 4-8.5-.2.4-1 2.2-2.7 5.3-1 1.5-2.1 3.4-4 5.4-1.7 2-4 4.3-7.2 6.2l.3-.2c-1.8 1.2-3.6 2-5.3 2.7l-2.6 1c-.8.3-1.6.5-2.4 1a23 23 0 0 0-7.6 5.6l-1.1 1.1-1.6 2.3-.7 1.3-.7 1.3-.8 2.1v-.2a38.5 38.5 0 0 0-1.2 4.5 18 18 0 0 0-2.2-2c-2-1.7-4.4-2.8-6.7-4.1l-1-.5-.2-.2-1.8-1-.4-.3-1.5-1.3a20.2 20.2 0 0 1-5.3-6.7c.7 1.3.5 1 .1.4a53.1 53.1 0 0 1-.7-1.5l-.5-1.3v-.1a38.2 38.2 0 0 1-1.2-3l.6 1.5-2.7-7.5c-1.1-2.7.1.5-.5-.7-1-2.3-2.1-4.6-3.7-7l.5.8-1-1.4-1-1.2c-.5-.8-1.2-1.4-1.7-2l-1.8-1.7-2-1.4a16.7 16.7 0 0 0-10-2.1c-2.6.2-4.3.9-5.4 1.3-2.1.8-2 .9-.7.5a69 69 0 0 0 2.4-.6l1.5-.3 1.5-.2 1.4-.1h1.2l1 .1c3.3.4 6 1.7 8.2 3.3a28 28 0 0 1 5.4 6c1.5 2.3 2.8 4.8 4 7.7 1 3 2 6.4 3.8 10.2a30 30 0 0 0 5.5 7.7c2 1.7 4.2 2.9 6.2 4 2 1.2 4 2.2 6 3.9.9.7 1.7 1.5 2.5 2.4a35 35 0 0 0-.2 10.5l-.3-1.6.9 6c.2 1.8.3 3.1.2 3.3a24.2 24.2 0 0 1-3.3 14.1c-.7 1.1-1.3 2.2-2 3.1l-1 1.4-1 1.3c-1.3 1.7-2.6 3.2-3.4 4.5l.2-.4-1 2-.9 1.5c-.4 1-1 2.2-1.3 4 0 .3-.2.5-.2.5a27.8 27.8 0 0 0 .7 13.6v.2c.6 2.4 1.4 4.6 2.4 6.9a70.5 70.5 0 0 1-1-2.5l2.2 5.2a28.3 28.3 0 0 0-2.5-1.4 26.5 26.5 0 0 0-21.4-1l-1.1.3c-.3 0-1.9.8-3.4 1.7l-3.4 2.3v-2.7.4l.1-2.6-.1-7.6v.1-7.3h1.8-1.2 5.5c.5 0 1.3 0 2-.3-.6.2-1.2.3-1.7.2 1 0 1.7-.3 2-.5l.5-.3.4-.4c.2-.3.6-.8.7-1.9h-.1l.1-6.8.1-3.2v-1.7c0-.7-.1-1.5-.6-2.1a3.6 3.6 0 0 0-3-1.5h-6.4v-.9c.2-1.7 0-3.5 0-5.7h1.7-1.2 5.5c.5 0 1.3 0 2-.3-.6.2-1.2.2-1.7.1 1 0 1.7-.3 2-.4l.5-.4.4-.4c.2-.3.6-.8.7-1.9h-.1l.1-6.8.1-3.2V332c0-.7-.1-1.5-.6-2.1a3.6 3.6 0 0 0-3-1.5h-27.3a69.8 69.8 0 0 1 2.4-5c1.7-3.2 3.4-6.5 4.1-10a4.2 4.2 0 0 0 .2-1v-.7c.2-2.2 0-4.4-.6-6.5l-1.9-6-.7-2.5c-.5-1.5-1-3.7-1.5-6.1-.5-2.5-.8-5.3-.4-8 .2-1.3.5-2.6 1-3.7s1.4-2.2 2.2-3c1.6-1.7 3.4-2.6 4.5-3.2 1.2-.6 1.8-.9 1.4-.8-.4.1-1.9.4-4.3 1.9-1.2.7-2.6 1.8-3.8 3.6a14.1 14.1 0 0 0-2.2 7.4v-.4a32 32 0 0 0 1 9l2.2 7c0 .7 1.8 5.4 1.9 7v-.2c.4 2 .3 4.2-.1 6.3s-1.4 4-2.2 5.8l.4-1-2 4-1.2 2.4-1.7 3.7h-33.2l-1-.1c-.3-.2-5.4.2-6.2 0H445c-10.7-.1-31 0-42.5.1-16.4.2-35.4-.3-52.2 0h-35.2a3.5 3.5 0 0 0-3.3 2.5c-.2.5-.2 1-.1 1.4v11c0 .6.2 1.2.5 1.7a3.3 3.3 0 0 0 1 1.1c.7.5 1.4.6 1.7.6s.4 0 .2-.1c-.2 0-.9 0-1.6-.6-.4-.3-.8-.7-1-1.3a3 3 0 0 1-.3-1v-1.2l.2-6.3.1-4.2c0-1.4 1.1-2.8 2.7-2.7h-.3 19.4c.9.2 6.9 0 8.8 0h-.2c5.2 0 10.6.2 15.5 0l-1.4.1h34.8-.4l7.6-.1h20.2-2.5c.8-.2 5 .1 10 0 4.6 0 9.4-.4 14.2-.3h1.4c0 .2-1.6.1-.7.2h9.6l.2.1c5.4-.1 10.1.1 13.7 0 5.6 0 3.8.2 9.6 0l2.2.2c2.5 0 1.8-.2 4.6-.1-.2 0 3.4 0 1.8.1h20.8l7.3-.1c.2 0 8.3 0 3.6.1h-1.6c4.7.2 8.5 0 13.1 0h-2 4.4-1 6.5-1c3.2 0 4.3.2 7.9 0h6.7a2.4 2.4 0 0 1 .8.2c.5.2 1 .6 1.2 1 .3.6.3 1 .2 1.8v4.2c.1-.5 0 1 .1 2.4v4a6.8 6.8 0 0 1-.1.4l-.1.5c-.1.4-.4 1-1.3 1.5l.3-.2a2.2 2.2 0 0 1-1 .5c-5 .2-2.8-.2-8.4 0 2.2 0 1 .2-1.7.2h.7-3c.9-.1.5-.2-1.8-.2h1.5-22.6c1.4 0-2.5 0-1.4-.1-1.8 0-7.2.1-9.3 0h.4-20.8c.4.1-3.4 0-2.5.2-7.3 0-13.4-.3-16 .1l-5.8-.1h.8-12.8c-2.3 0-2.7.2-6.9.1h-3.8s-.1 0 0 0a12.7 12.7 0 0 0-.6 0h-7.9l-20 .1 2.7-.1h-4.6 4.1c-5.5-.2-11.4 0-17.8 0h-17.8.4-8.6 2.8-9.6c-3.4 0 .6 0-1 .1h-9.5l1.1.2h-12.9l-11.2.1h-1.1c-17 .5-6 .7 0 .7.2 1.5 0 .8.1 2.4 0-.6.2-.3.2.5l-.1-.2v1.4l-.2-.4.2 1.2v1.5h-8.2a3.5 3.5 0 0 0-3.3 2.6c-.2.4-.2 1-.1 1.4v11c0 .5.2 1.2.5 1.7a3.3 3.3 0 0 0 1 1.1c.7.5 1.4.6 1.7.6s.4-.1.2-.1-.9-.1-1.6-.6c-.4-.3-.8-.7-1-1.3a3 3 0 0 1-.3-1v-1.2l.2-6.3.1-4.2c0-1.4 1.1-2.8 2.7-2.7h-.3 28.2-.2c5.2 0 10.6.2 15.5 0l-1.4.1h34.8-.4c3.2-.2 4 0 7.6-.1h20.1-2.5c.8-.2 5 .1 10 0 4.6 0 9.4-.4 14.2-.3h1.4c0 .1-1.6.1-.7.2h9.8c5.4 0 10.1.2 13.7 0 5.6 0 3.8.3 9.6.1l2.2.1h6.4c6.2.2 12.6 0 20.8.1l7.3-.1h3.6-1l-.6.1c4.7.2 8.5 0 13.1 0h-2 4.4-1 6.5-1 7.9c1.6 0-3 0 .3-.1h6.4a2.4 2.4 0 0 1 .8.2c.5.2 1 .6 1.2 1.1.3.5.3 1 .2 1.8v4.1c.1-.5 0 1 .1 2.5v4a6.8 6.8 0 0 1-.1.4l-.1.5c-.1.3-.4 1-1.3 1.5l.3-.2a2.2 2.2 0 0 1-1 .5c-5 .1-2.8-.2-8.4 0 2.2 0 1 .2-1.7.1h.7-4.8l1.5-.2-4.2.1h-18.4c1.4 0-2.5 0-1.4-.2-1.8.1-7.2.2-9.3.1h.4-20.8c.4.1-3.4 0-2.5.1-7.3.1-13.4-.2-16 .2l-5.8-.1h.8-12.8c-2.3 0-2.7.2-6.9.1h-2c1 0 1.4 0-.6-.1h-1.2s-.1 0 0 0a12.7 12.7 0 0 0-.6.1l-7.9-.1-20 .2 2.7-.2h-4.6 4.1-19.6l-.8.1h-1.6c-.9 0 .1-.1-3.1-.1h-10.5c1.8 0 1.2.1.4.1h-8.6 2.8-9.6c-3.4 0 .6 0-1 .1h-9.5l1.1.1h-12.9l-10.9.2h-1.2c-17.5.4-6 .6.1.7l-.1 1.2v-.3 3.8c0 .7.2.8.2 2-.1-.4-.1 0-.1.5v1-.1 2.3l.1 5.8-.1-.8v1.4-1.2c-.2 1.6 0 3.3 0 5.2v.4l.1.8c0 .2-.2 0-.2.9l.1 3v-.1 2.5-.8 3l-14.6-.1v4.3l.4 3 .3 1 .4 1.1c.2.5.5 1.3 1.5 2.4l.3.3.7.5c1.1.8 2 1 2.6 1.3s1 .2 1.3.3v3a3.3 3.3 0 0 0 1.6 2.6 3 3 0 0 0 1.7.5h.1c-.2-.1-.8-.2-1.5-.6a3.1 3.1 0 0 1-1.3-3.2V417h1a88.8 88.8 0 0 0 4.6-.1h-.7 3c-.8 0-.4.1 1.8.1l-1.5.1 4.3-.1h18.4c-1.4 0 2.4.1 1.3.2 1.9-.1 7.2-.2 9.4 0h-.4 20.7c-.3-.2 3.5-.1 2.5-.2 7.4-.1 13.5.2 16.1-.2l5.8.1h-.8 12.8c2.3 0 2.7-.2 6.8-.1h2c-1 0-1.3 0 .7.1h1.2a12.7 12.7 0 0 0 .5 0h8l20-.2c.6.1-.9.1-2.8.2h4.6-4 19.5l.9-.1h1.5l3.2.1h10.5c-1.8 0-1.2-.1-.5-.1h8.7-3 9.7c3.5 0-.6 0 1-.1h9.5l-1.1-.1H525c42.3-.7 9-1 9-1-16.8-.1-25.4.1-45.2.2l-40.1-.1h-26.3l-15.8.1H405a111.8 111.8 0 0 1-5.2 0h.1-6.4.1-3 .6-12.5.3c-8.3 0-11.3.2-18.7 0-9.3.3-14.8-.1-24.5.1H329c-1.8 0-3 0-3 .2-3.3 0-2.7-.1-3.1-.2l-1.7.1h-3.7 1.2a10 10 0 0 1-3.5-.4c-1-.3-2-1-2.8-1.8l.9 1c-.4-.2-.6-.5-.8-.7l-.4-.5c-.2-.3-.3-.3-.3-.5-.1-.2-.3-.3-1-1.9l-.1.1a12 12 0 0 1-.8-4.1V404h69.8l.9.2c.4 0 5.5-.2 6.3-.1h33.8c10.8.1 31 0 42.6-.1l52.1.1h37.8v2.4c0 1 0 1.9-.2 2.8-.3 1.7-1 3.3-2 4.5a6.7 6.7 0 0 1-3 2.1l-2.3.5h-.2c.4 0 1.2.2 2.5-.1a7.2 7.2 0 0 0 4.4-3.5c.7-1 1.2-2.5 1.4-4 .2-.8.2-1.7.3-2.5V403h-3.6.3l-9.6-.1v-1.2h.1v-8.5l.7-.5 2.4-1.7 1.6-.8.4-.2a25 25 0 0 1 24.2-.1 22 22 0 0 1 4 2.3 32.7 32.7 0 0 1 3.2 2.7 28.4 28.4 0 0 1 3.6 4.9l-1-1.4-.7-1-.4-.6c1.6 2.3 2.9 4.5 3.8 7a29.8 29.8 0 0 1 2 7.6c-.2-1.7-.7-3.8-.3-2.4.3 1.7.5 3.5.6 5.2l-.1-1a39 39 0 0 1 0 3.8v2l-.2 1a30 30 0 0 1 .1-.2 25 25 0 0 1-.3 2 52.3 52.3 0 0 1 2-.3h2.7c1.2 0 2.6 0 4.5.2 2 .1-3.6-.5.4-.1 2.6.3 5.7 1 8.6 2.6a15 15 0 0 1 4 3 13.4 13.4 0 0 1 2.6 4.1c-.1-.5.6 1 1 2.8v.2l.5 2 .3 1.3v1.3l.2 1.3v3.3-.6 1.8l-.1 2-.3 1.2-.4 1.5-.6 1.5-.6 1.2-.2.4-.5.8-1.3 1.8.7-.1h-.6l1-1.3.3-.4s-.3.7-1 1.6l1.7-.3h1l.8-.1h-.4l-.5.1h3.7c-1 0-.5 0 2.1.4l-1.8-.2a24.9 24.9 0 0 1 11 3.9l1.4 1 1 1 1 .7.5.7.9 1c.6.6 1.1 1.5 1.8 2.5l1.9 3 1.1 2.2c-.4-.8 0-.1.2.6.3.8.6 1.5.3 1 .5 1 1.2 3 1.3 5.2a8 8 0 0 1-1.3 5.2l.2-.4a6 6 0 0 1-1 1.2l-.3.2h-23c.4.2-4.3.1-3.1.2-9.2.1-16.7-.2-20 .2l-7-.1h1-16c-2.8 0-3.3.2-8.4.1h-2.4c1.2 0 1.6 0-1-.1h-.7c0-.2 0-.4-.2-.6.2.5.1.6 0 .4l-.1-.4-.1-.7v.2l-.1-.8v-.5l.1.4-.4-1.1c0-.9-.4-2.3-.4-2.7l-.6-2.3c.1.4 0-.6 0-.4 0-.4-.5-1.9-.5-2.5v.1c-.4-2.1-.9-3.6-1.2-5.6 0 .1-.2-.9-.3-.6-.5-2-.6-3.7-1-4.3-.3-1-.2-1.1-.3-1.6v.2l-.7-3.4c-.2-.6-.4-.7-.6-1.8.2.3 0-.1 0-.6v-.2l-.1-.3c-.2-.7-.2-.6 0-.3l-.1.2c0-.8-.4-2-.4-2.2l-1.3-5.3c0-.2.2.2.3.7l-.3-1.3.3 1.1c-.2-1.5-.8-3-1-4.8l-.2-.3v-.1l-.2-.7c0-.2.1 0 0-.8l-.8-2.9c.1.5 0 .4 0 .2-.1-.4 0-.7-.2-1l-.3-1.4.3.8-.6-2.6c-.3-.9 0 .2-.2-.2-.2-.8-.5-1.6-.6-2.6v.3l-.8-3.5c-.7-2.7-1.2-4.2-1.5-5a38.2 38.2 0 0 0 1.6 0v-.1h1.7a3.3 3.3 0 0 0 1.8-.5c1-.6 1.6-1.7 1.6-2.9v-3.4l-1.1.1v3.6c0 .4-.2 1-.5 1.3h-.2c-.3.5-.7.6-1 .7l-.9.1h-4.6l.5-.1-1.4.1c-4.7.2-2.6-.1-7.8 0 2 0 1 .2-1.6.2h.6-2.8c.8 0 .4-.1-1.7-.1l1.4-.1h-21.1c1.3 0-2.3 0-1.3-.1-1.7 0-6.7.1-8.7 0h.4c-7.5 0-12.7.2-19.4 0 .3.1-3.2 0-2.4.2-6.9.1-12.5-.2-15 .1h-5.4l.8-.1h-12c-2.2 0-2.5.2-6.4.2h-1.8c1 0 1.2-.1-.7-.2h-1.1s-.1 0 0 0a11.1 11.1 0 0 0-.5.1h-7.4l-18.7.1 2.5-.1h-4.3 3.8c-5.2-.2-10.6 0-16.7 0h-2.4l-1.4.1c-.9 0 0-.2-3-.2l-9.8.1c1.7 0 1.1 0 .4.1h-3.5l-.1-.1h-4.5 2.7-9c-3.2 0 .6 0-1 .2h-8.8 1-12l-8.6.2h-6l1.4.1H323v-.2h-.3v.2c-6.4.2-4 .4-.2.5l-.6 2.2c-1.1 4.5-1.4 6.8-2.5 12.2l-2.3 9.7-2-1.3-.6-.3-1.7-1a33.7 33.7 0 0 0-14.6-3.2c-2.9 0-5.7.5-8.1 1.1a22 22 0 0 0-7 3c.5 0 1.8-.7 4.5-1.6 2.7-.8 7-2 12.9-1.5h-.3a35 35 0 0 1 4.7.7c1.5.3 2.8.8 4 1.1l1.8.7.8.4.8.4 1.7.7 1.5 1 1 .7.4.3-1.5 7c0 1.1-.6 3-.8 4.3l-.2.5c0 .4-.1 1-.3 1.4 0 .6-.3 1.3-.3 1.7l-.2.7v-.1a41.6 41.6 0 0 1-.7 3.4l.1-.1c-.5 2.2-.5 3-1.1 5-.3 2.6-1 4-1.4 6.6v.2c-.3 1.2-.6 2.5-.4 2.5-.2.9-.2.7-.3.8v.5l-.3 1.2c-.6 0-1.1 0-.8.1-6.2.1-11.4-.2-13.7.1h-4.8l.7-.1h-11.4a28.8 28.8 0 0 0-2.6-8.3l-.8-1.3-.7-1.3a30.4 30.4 0 0 0-8.3-8.6 29.1 29.1 0 0 0-1.2-.8l.4-.6a44 44 0 0 1 9.8-13c1.7-1.7 1.6-1.6.5-.9-1 .8-3 2.4-4.4 4-1.5 1.5-2.6 3-2.6 3a42.9 42.9 0 0 0-4.5 7 31 31 0 0 0-7.8-3.2c-3.4-1-7.1-1.4-11.2-1l-1.6.2-1.5.3c-.6 0-1.1.2-1.7.3l-1.4.4h-.1v-.6a27.2 27.2 0 0 0 0-4.7 28 28 0 0 0-8.9-18.7 28 28 0 0 0-7.8-5.2 29 29 0 0 0-12-2.4l-1.7.1c-.5 0-1.1 0-1.7.2l-3.5.6-1.7.5-1.1.4v-.1l.1-1a22.9 22.9 0 0 0-2-13.6 25.8 25.8 0 0 0-7-8.3v-4 .4-18.5c-.2-5.8.1-10.6-.2-12.7v-4.6l.1.7V359c0-1.8-.2-2.1-.2-5.4V352c.1.8.1 1 .2-.6v-1c0-2 0-1.7-.1-.7v.3-6.3l-.1-15.8.1 2.1v-3.7 3.3c.2-4.4 0-9 0-14.2v-2l-.1-1.2c0-.7.2 0 .2-2.5l-.1-8.3v.3-6.9 2.3-7.6c0-2.7 0 .5-.2-.8v-7.5.9-10.3l-.4-14.3h.4-.2a7 7 0 0 1 1.9 0c6-.7 1.2-1 1.2-1-2.4-.2-3.6 0-6.5.1-2.5 0-3.1-.2-5.7-.1H179c-.6.1-1.4-.3-2-.5v-.2c-.3 0-.5-.2-.6-.3l-.6-.6-.2-.3c-.3-.3-.6-.8-.7-1.3-.3-1-.4-1.4-.3-2.5-.2-1.4.1-2 .4-3.2 0 .1 0 0 0 0 .3-.6.7-1 .5-1.2.3-.3.3-.2.4-.2l.4-.6v.2l.7-.6h-.2c.4-.3.2 0 .6-.2v-.1c.6-.3 1-.2 1.7-.2 3 0 6.4-.2 9.3 0h.1c0 .2.8-.1 1 0h7.7a5.2 5.2 0 0 1 2.6 1 4 4 0 0 1 1.6 3 6.2 6.2 0 0 1 0 .8v2.8a.7.7 0 0 0 0 .2c0 .7-.3 1.3-.6 1.9 0 0-.3.5-1 1-.5.6-1.3 1-2 1.3-.8.2-1.3.3-1.2.5l.8.2c.5 0 1.3 0 2.3-.5a4.2 4.2 0 0 0 2-2.2c.3 0 .5-1 .6-1.2.1-.8.4-1.6.3-2.3v.2-1.3c0-.6 0-1.5-.2-2.2a4 4 0 0 0-.9-1.6c-.3-.3-.3-.5-.7-.8v-.1c-.5-.3-1.2-1-1.7-1l.2-1 .3-1.2.6-2.5 1.2-4.8.2-.2s0-1 .2-1.1v-.5s.1-.3.1-.1l.1-.7.2-.4 1-4.5c.7-1.9 1.4-5.6 1.9-7.7.5-3 1.9-6.3 2.4-9.4a1.1 1.1 0 0 0 0-.3l.7-2.8s1.3-5 1.4-6.6h5.1l1-4.1.8-3.7c.3-1.9 0-1.9-1.8 3.9v-.1l-.5 1.8-.2.8-.1.2v.1h-.3l-.7.1c-.2-.2-1.7 0-2.2 0-1.2 0-2.6-.2-3.8 0l.4-.1h-8.7c-.7.2-1 0-1.8.1h-5 .7c-.2.2-1.3-.1-2.5 0-1.2 0-2.4.4-3.6.3h-.3c0-.2.4-.1.2-.2h-2.4v-.1h-3.5c-1.4 0-1-.2-2.4 0l-.5-.1h-1.6c-1.6-.2-3.2 0-5.2-.1l-1.8.1c-.1 0-2.1 0-1-.1h.5c-1.2-.2-2.2 0-3.3 0h.5-1 .1-1.6.3-1c-.1-.2 0 .2-.1 0l-.4-1.8-.4-2-.3-.6c-.4-1.4 0-.6-.3-2l-.2-.2-.1-.2v-.2l.1-.1s-.3-.2.2-.1h-.1 1.1l-.3.2 1-.1h4.6c-.3 0 .6 0 .4.2.4-.1 1.8-.2 2.3-.1h-.1 5.2c-.1-.1.8 0 .6-.1 1.8-.1 3.3.2 4-.2l1.4.1h-.2 3.2c.6 0 .7-.2 1.8-.1h.4c-.2 0-.3 0 .2.1h.6l-.1-.1 2 .1 5-.2-.7.2h1.1-1 4.9l.6-.2c.2.1 0 .2.8.2h2.6c-.4 0-.3-.1-.1-.2h1v.2c-.2-.1 1-.1 1.2-.1h-.7 2.4c.8 0-.2 0 .2-.1h2.4l-.3-.1h1.5c.3.2.3.1.3 0h1.4c10.6-.7 2.3-1 2.3-1a57.4 57.4 0 0 0-3.9 0v-.2c-.6-1.6-1.2-2.3-2-4-.7-1.7-.8-2.2-1.6-3.8l-1.1-2.4c-.3-.3-.5-1-.8-1.4v-.2l-.2-.5-.3-.6-.1-.2a7 7 0 0 1-.5-1.1h-.1c-.3-.8-.6-1-.8-1.7-.6-.8-.4-1.4-1-2.2v-.1c-.2-.4-.4-.8-.6-.8v-.3l-.3-.5v.1l-.3-.6v.2l-.2-.5-.7-1.3c-.9-1-2-1.5-3.3-1.7a7 7 0 0 0-.9 0h-1l.1-.5c0 .1 0 0 0 0v-.3h.1v-.4.2l.1-.8c0-.3 0 0-.1-.1v-1.8c-.3-1.9-.5-2-.7-1.8s-.2 1-.2 1c-.2 1.4 0 2.1-.2 3.7 0 .3-.2.6-.3.8h-.2v-.2c-.1 0-.6.2-.7.1h-.3s-.2 0 0 0h-2.2a3 3 0 0 1-.7 0c-.3-.1-.6-.2-.8 0l-.2-.1a2.2 2.2 0 0 1-.4 0l-3.3.2a8.3 8.3 0 0 1-1.1 0l-.2-.4v.1-.6l-.2.2c0-.4.2-.1.1-.4-.1-.5 0-.7.1-1.2l-.1-2.8c-.1-.9 0-1.7.4-2.4.2 0 .1-.5.2-.5v-.2c.1 0 .2-.1.2 0v-.3l.2-.1c.5-.5.7-1 1.3-1.4l1.5-.6 1.7-.4a4 4 0 0 1 2 .5l1.6 1.1s.1.1.1 0l.8 1a8.4 8.4 0 0 0 .4.8 9.4 9.4 0 0 1 .5 1.4c0 .5.2.8.3.7.1 0 .4-.6.3-1.9a3 3 0 0 0-.7-1.6l-.5-.7c-.3-.2-.5-.8-1-1h.1l-.6-.4c-.7-.4-1.8-.8-2.3-.7h-2.5a1 1 0 0 1 .2 0c0 .3-.5 0-.9.3-.4.1-.6.7-1 .8-.1.2 0-.2-.1 0-.1 0 0-.1 0-.1l-.8.4-1 .9c-.2.4-.3.1-.5.7h-.2l-.1.5s-.2.3-.2 0c-.3.6-.3 1.2-.6 2l.1.7s0 .7-.1.3v-.1c-.2.4 0 .7 0 1 0 0 0-.2 0 0v.8-.1.7c0 .1.1-.3.1 0a11.3 11.3 0 0 0 0 1.4v.2c.2.5-.1.2 0 .7h.1c.2.5 0 .4.1.7h-.3l-1.4-.1a2.8 2.8 0 0 0-1.4.4l-.2.1a5 5 0 0 0-1.4 1s-.4.5-.7 1a9 9 0 0 0-1 1.9c-.1.5-.2 1 0 1l1.4-1.7c.5-.7.8-1 1-1.5.3 0 .6-.4.7-.5.3-.4.9-.3 1.2-.5h.7l2.6-.1h2.8-.2c0-.2.5 0 1 0s1-.4 1.4-.3h.2c0 .2-.2.1-.1.2h1c.5 0 1 .2 1.4 0 .6 0 .4.3 1 .1l.2.1h.7c.7.2 1.3 0 2.1.1l.7-.1s.8 0 .4.1h-.1c.3.2.7 0 1 .2h-.1.4-.1l.5.4v-.1c.2.1.2.3.5.4.1 0-.2-.3 0-.1.4.2.7.7 1 1l.2.2c.3.4-.1.3.2.7h.1c.3.4 0 .3.4.7 0-.2.1-.1.2.1v.5-.1l.2.3c0 .3.4.8.3 1 0 0 .3.6.5.7-.2 0 0 .3-.1.2.1.2.4.6.4.9.2.7.7 1.1.9 1.8l.2.2c.4.6.4 1.3.8 1.4l.2.6a18.7 18.7 0 0 1 .5 1.1c.1.2.3.2.4.6v.2c0-.1 0-.1 0 0l.1.2c.1.2.1.2 0 0h.1c0 .3.3.7.2.8l1 1.7-.2-.2.2.5-.2-.4c0 .6.6 1 .8 1.7l.2.3v.3c0 .3.4.7.5 1v-.1c.2.1.1.3.2.4l.2.4-.2-.2.4.8c.2.3.1 0 .2 0l.5 1v-.2l.5 1.2.4.6-6.5.2-10-.2h-6.6c-1 .2-2.7 0-4 .2l-.4-.1a7 7 0 0 1-1.3 0H178h.2-3.1v.1H168v-.5l.2-.3v-.1c-.1 0 .2 0 .1-.2.1-.1-.2-.4-.1-.4 0-.1.1 0 0 0h.2l.1-.2c0-.1.3-.1.2-.2 0-.2.2 0 .1-.2h.1v-.2h.1c.2 0 0-.3.3-.4-.1-.1 0-.1 0-.2 0 0 0-.2 0 0h.1c.2 0 0-.2 0-.3h.1l.1-.2s.1 0 0-.1l.3-.3-.1-.1c0-.2.2 0 .2-.2-.2-.2 0 0 0-.2 0 0-.2 0-.1-.1h.1v-.1c.1 0 0-.2.2-.2v-.2h.2v-.2c.2-.1 0-.4.2-.5-.1-.3.3-.3 0-.5h.1l.1-.4s-.1-.1 0-.2h.1c0-.1 0 0 0 0v-.2l.1-.5h.1c.1 0 0 0 0 0 .2 0 0-.2.2-.3v-.2s0 .1.1 0c.1 0 0-.1 0-.2v-.1h.1v-.1l.1-.2h-.1v-.6c-.1-1.2-.7-.5-.7-.5-.3.3-.2.5-.3 1-.2.4-.4.4-.5.8l-.2.6-.1.4-.1.2v.1h-.1l-.1.3-.1.5c0 .3-.4.2-.2.5-.1.1-.2.2 0 .3h-.1v.4h.1c0 .1-.2 0-.2 0l.1.1-.4.2c-.2.5-.2 1.1-.6 1.5-.2-.1 0 .1 0 .1s0 .1-.1 0v.2h-.1c-.1.1 0 .4-.2.5-.3.2-.3.7-.4 1 0 .4-.4.6-.6 1h-2.3c.3 0-.1 0 0 0l-2.4.1h-2.6v.2-.2h.3-.3l.6 2.1v-.4l.2 1.2c.4 1.3.4 2 .6 3.3l.8 3.2h5l.1.4c-.1 0 0 .1 0 .2v.3s.1.1 0 .2c.1.1.1.4.3.5v.1c.2 0 .1.2.2.3v.1c.1 0-.1.1 0 .2 0 0 .4 0 .4.2h-.2v.6c.1 0-.2 0 0 .2h-.1s.1 0 0 0v.2c0 .1.2.2 0 .4h.2v.2h-.1l.1.2v.4h.2l-.1.4h.1c0 .1-.2.1-.1.2h.1c.2 0-.1 0 .1.2 0 0 .1-.1.1 0h-.2l.2.1v.4h-.1s.2.2 0 .3c0 .1.3.2.2.4h.2c.1.1-.2.3.2.3l-.1.1v.3h.2v.1c0 .1 0 0 0 0v.3l.3.3h-.2v.1s.2.1.1.3h.2l-.2.1.1.2h.1l-.1.1h.2c-.1.1-.1 0-.2 0l.1.3h.2v.1h.1v.3c1 .7 1 0 1 0 .1-.5-.2-.6-.3-1l-.1-.8a2 2 0 0 0-.2-.6c-.1 0 0-.2-.2-.3v-.5h-.2c0-.2-.1-.2 0-.4-.3-.2 0-.4-.2-.5 0-.1 0-.2-.2-.2h.1l-.1-.2h-.2c0-.1.2 0 .1-.1l.1-.4c0-.4-.4-.8-.3-1.3.2 0-.2 0 0-.1h-.1v-.2l-.1-.5-.3-.9c-.3-.3 0-.8-.2-1l-.1-.4v-.2h7.7l.2.2c.1.1 1.4-.2 1.6 0l.5-.2.3.1h7.6c2.7.2 7.8 0 10.7 0 4-.3 8.8.3 13 0h.3l-1.2 3.2v-.1c-.4 1.5-.7 2.4-.8 3.5-.2.1-.3 1.2-.5 1.6 0 .9-.6 1.8-.7 2.7v-.2a4 4 0 0 1-.4 1.6c-.3 1.5-1 3.7-1 4.7 0 .5-.2.7-.3 1.3 0 .7-.5 1.9-.5 2.4h-.1l-.3 1.3.1-.5c.2.2-.3.9-.4 1.8-.3.8 0 1.8-.4 2.6 0 .5 0-.4-.1.3-.1 0 0-.3-.1-.2l-.5 1.8c-.1 1-.6 1.8-.6 2.5-.2 1-.4.6-.5 1.7l-.2.3-.2.9s-.2.6-.2.3c-.3 1-.4 2.3-.9 3.8l-.2 1.3s-.4 1.5-.3.6l.1-.2v-.1c-.4.8-.4 1.6-.6 2.4.1-.2.2-.6.2-.3l-.2.7v-.1l-.4 1.1.1-.1-.2.6v.1c-.3 0-.7-.2-1-.1-.5 0-.9 0-1.3.2h-1c0-.1.2-.1 0-.2h-1.3c-.8 0-1.5-.2-2 0-.8 0-.6-.3-1.4-.1l-.3-.1h-1c-1-.2-1.8 0-3 0h-1.6.2v-.1c-.6-.2-1.2 0-1.9 0h.3-.6.1-.9.1-1c-.3 0 .4 0-.1.1H178c.1.1 0 .1 0 .2l-.1-.5v.1a50.4 50.4 0 0 1-.5-2.3c-.2-.4-.3-.4-.5-1.2v-.5l-.1-.2c-.1-.5-.1-.4 0-.2l-.1.1c0-.5-.4-1.3-.3-1.4l-1-3.6.2.5-.2-.9.2.8c-.1-1-.6-2-.8-3.3l-.1-.2-.2-.5c0-.1.2 0 0-.6a7 7 0 0 0-.5-1.8c0 .3 0 .2 0 0-.2-.2-.1-.4-.2-.6v-.1l-.3-.8c0-.2.2.4.3.5l-.5-1.8c-.2-.6 0 .2-.2-.1l-.4-1.7v.2c-.4-1-.5-1.6-.6-2.3-2.5-7.5-1.3-1.4-1.3-1.4.6 3 1.2 4.5 2.1 8.1.8 3.2.8 4 1.7 7.3.3 1.6.8 3.2 1.2 4.7.3.7.5 2 .8 2.9v.3l.2.8-.4.2v.1l-.6.4c-.1 0-.3 0-.5.5.2-.2.2 0-.1.3v-.2l-.3.4-.2.2v-.3l-.3.7-.7 1.3s-.3 1.1-.2 1.4c0-.2-.2.4-.2.2v2.9l.3 1.6s.3.5.3.3c.5 1 1 2 1.5 2l.6.7v-.1l1.7.9h1.1c-.2.1 0 .1.3.2h1.5l2.9-.1h-.4.7l-.6.1h.6v6.6c0 .3.2.5.5.5s.5-.2.5-.5V258h1.1l.4-.1.5.1h1.5c-.3 0-.2-.1 0-.1h.4v.1l.8-.1h-.5 1.4c.5 0 0 0 .2-.1h.6l-.2 7.2c-.2 13.2 0 20 .1 35.8v77.9-.4 10l.1-.3v34.6c0 3.5 0 7.3.2 7.3 0 2.6 0 2.1-.2 2.5l.1 1.3v3-1 5.8l.2-1.2c0 3-.2.8-.1 3.7l-.2 10.8v4.3h-.2.1c-.4-.1-.6-.4-1.2-.4-.7 0-1.4-.3-1.8-.2-.8 0-.5-.2-1.3 0h-.9s-.5.2-.3 0a3 3 0 0 0-.8.2v-33.6l.1-.7c.2-.3-.2-4.3 0-5v-26.8c.1-8.5 0-24.5-.1-33.8-.2-13 .3-28 0-41.3v-13.7s.1-58.9-1-14.1v-.3 22.4-.1 12.2-1.1 27.6-.3 6.3c.2 2.7 0 8 .1 10.1v5.6-2c.2.7-.1 4 0 8 0 3.6.4 7.4.3 11.2 0 1.8-.2-1.6 0 1-.2.2-.2-1.2-.2-.5v7.7h-.1v6.6c-1.3-.3-2.7-.5-4-.6h.2-3.7l-.5-1-.9-1.4-.5-.7-.5-.7-1.2-1.4-1.3-1.3-2.4-2.8a26 26 0 0 1-3.7-6.4c-.8-2.2-1.1-4.4-1.1-6.2 0-2.6.5-5.3.9-8.1a26 26 0 0 0-.2-8.8c-.6-2.9-1.8-5.7-3.7-8a19.7 19.7 0 0 0-8-5.8l-2.4-.8-2.4-.8c-1.6-.4-3-1-4.5-1.7l-1.8-1a18 18 0 0 1-3.8-2.8 25 25 0 0 1-4-4.9l-3-5.3a41.2 41.2 0 0 0-3.3-4.8l1.8 3.2 1.8 3.7c.7 1.5 1.6 3.3 2.9 5.2l-.2-.2a21.7 21.7 0 0 0 12.3 9.2l3 .9a22.2 22.2 0 0 1 7.9 3.9l1.3 1.2 1.3 1.2 1.1 1.6a19 19 0 0 1 3 8.4c.3 3 0 5.8-.3 7.6v-.3c-.1 2-.4 2.6-.5 4.9a2.2 2.2 0 0 1-.1.3c0 1-.1 2.7.1 4.3 0 .8.3 1.6.4 2.3l.5 1.7v.1a22.7 22.7 0 0 0 1.2 2.6c.4.5 1.5 3 3.7 5.5 1 1.2 2.2 2.2 3.2 3.3l1.6 1.6 1.2 2c.7 1.2-.5-1 .2.6-.2-.2-.3-.5-.2-.1l.1.1-2.2.4h.1l-1.5.4-1.5.5.5-.2a24 24 0 0 0-6 3 25.4 25.4 0 0 0-2.7 2.2l-.6.5-.4.5h-.1l-.5-.3.2.3a25.2 25.2 0 0 0-14.9-3.1 256 256 0 0 0-2.7-9c-3-9.6-7.8-20.4-14-32a.5.5 0 0 0-.7-.2c-.2.1-.3.4-.2.7a193 193 0 0 1 16.6 40.6l-3.4.7h.1a26.5 26.5 0 0 0-13.7 9.7 70 70 0 0 0-1.7-2.7l-1-1.6-1.2-1.6c-.9-1.1-1.8-2.4-3.2-3.8l-2-2.2-2-2-2.2-2-2.2-1.6-1.2-1-.7-.5-.8-.5a63 63 0 0 0-3-2l-.6-.4-2-1.1-2.4-1.3-1.1-.6h.2l-2.2-.9-.2-1V388v.5a27.3 27.3 0 0 1 1.2-8.1c.4-1.4.4-1.7 1.4-4.2l.5-1.2.2-.5c0-.2 0-.4.2-.7.4-1.7.3-1.4 0-.7v.3l.3-1.5.2-1.7v-2c0-.7-.2-1.3-.3-2l-.6-1.6a13.4 13.4 0 0 0-1.6-3 35.8 35.8 0 0 0-3-3.8l-1.9-1.9 2 2c-.6-.8-1.3-1.4-2-2.1l-2-2c-1.3-1.3-2.4-3-3.3-4.8l-.4-.8v-.2l-.7-1.4v-.5l-.3-1.5-.2-1.4-.2-1.7c0-1.2 0-2.5.2-3.5-.2 1.1-.2.8-.1.3l.2-1.3.4-1v-.1l.4-1.2.7-1.7-.7 1.7 1-1.9.4-.8.6-.8.4-.7.9-1c1.4-1.6-.4.3.3-.5a20 20 0 0 1 4.7-3.8l-.6.3a25 25 0 0 1 20-3.6c1.8.3 1.7.2.8-.1a25.4 25.4 0 0 0-4.5-1c-1.6-.3-3-.3-3-.3a22.5 22.5 0 0 0-10.6 2.4c-1 .6-2 1-3 1.7-.9.6-1.8 1.2-2.7 2l-1.4 1.2-1.2 1.4a18.2 18.2 0 0 0-4 15.3 20.3 20.3 0 0 0 5.3 10.5c1.5 1.6 3.2 3.1 5 5.4 1.7 2.1 3.2 4.5 3.7 7.2a13 13 0 0 1 0 4 20 20 0 0 1-1 4c-.4 1.2-1.2 2.9-1.7 4.7-.5 1.8-.9 3.8-1 5.3l-.2 1.2v3.5-.1l.1 1.9-.3-.2-1.2-.4v.1c-3.3-1.2-4.7-1.3-7.9-2h.1c-1 0-2 0-2.8-.2h-3.8l-1.3.2c-.9.2-1.9.3-2.9.7.5-.2-.2 0-.2 0l-1.4.4-1.2.5-1.1.7-1 .5h-.3c.1.1-1 .8-1.9 1.4a2.6 2.6 0 0 1 .4-.3 35 35 0 0 0-2.5 2l.6-.3c-1.3 1.1-.5.2-1.6 1.3l.1.1-2 2.3-.4.5-.4.6-.9 1.4c-1 2.1-1.7 4.5-2 6.8-.3 1.2-.4 2.4-.5 3.6v1.9l.1 1.8.2 1.8.4 1.7c.2 1.2.7 2.3 1.1 3.4l.8 1.6.4.8.5.7 1 1.4 1 1.2.3.4s.4.6 1 .9l1.1.9.9.5c.2.2.7.5.3.3l1.4.8.9.6a101.4 101.4 0 0 0 2.5 1c.8.4 1.7.6 2.5.8.8.3 1.7.4 2.6.6.9.1 1.8.4 2.8.4 2.3.3 5.6.5 9 .7 1.7.1 3.3.4 5 .6l-1.2 1.3-2.1 2.7a29.9 29.9 0 0 0-5.4 18.6v1.6l.5 3.1.4 1.5a29.6 29.6 0 0 0 1 3l.6 1.5.2.3v.3h-.4a25.3 25.3 0 0 0-1.3-.1 21.9 21.9 0 0 0-8.2 1.4 23.6 23.6 0 0 0-9.2 6 23.4 23.4 0 0 0-3.2 4.3l-.7 1.1-.3.6-.2.5-.2.4-.4 1c-.2.2.2.1.3.1h2.3l10.1.1 1 .1c.3.1 5.7-.2 6.5 0l2.4-.1H122c11.2.2 32.2 0 44.3 0h3.4a24 24 0 0 1 1.2 0h.4a4.6 4.6 0 0 1 .2 0c1.4.2 2.5 0 3.8 0h55l-.1.2h49.2c.2.5.2.4.2 0l7.5-.1h6-.1 7.8-.4H311h-.3 16-.2c8-.3 12.7.1 21-.1h.3l7.9-.1h7.1-1 6.3l-1.3-.2c3.3 0 .9.2 4 .2v-.1c4.5 0 7.2.2 11.6.3 7.7.1 15.6-.3 23.5-.6l13.4.2 55.9-.1 49.7.1h32.6l19.5-.1h20.1-.6 15.4-.4 12l5.1-.1h6.3-.2c.3.1.6-.2.8-.3l.4-.4a6.7 6.7 0 0 0 .7-.9l.6-1 .4-1c.5-1.3.6-2.7.6-4-.2-2.5-.9-4.8-1.8-7l-.2-.5.6-1.1 1.4-2.5c-.3.5-.7 1.2-.5.7l1-1.5-.2.3 1.5-2.3-.3.3c.8-1 1.2-1.4 2-2.7.3-.6-.8 1 0-.2l2-2.5c.7-1 1.5-1.8 2.3-2.7-.2.1.2-.4.6-.8 1.6-2 .8-.6 2.4-2.4l-.1.2.3-.6 1.2-1.2 1.4-1.3c-.7.7-.5.2.4-.6l-.2.3 1-1c-.3.4-.1.3.6-.3l-.4.5 1.3-1.3 2-1.4 1.4-1 1.3-.9 1-.7.7-.4c-.5.3 1-.5.6-.2a31 31 0 0 1 3.5-2l-.2.2c1.6-.8 2.9-1.5 4-2.3l1.9-1.2 1.8-1.3c-.2 0 1.2-1 .8-.8l3.3-2.7a10 10 0 0 0 1.8-2l1.7-1.9-.2.3 1.1-1.3.8-1.1 1.4-2.1.5-1.1.8-1.6.4-.8c-.2.4-.2.6.2-.2 0-.2 0-.3.2-.5.4-1 .3-1 .1-.4l-.1.1c.3-.5.5-1.3.7-2l.5-1.2.4-2.4.1-2.2c.2-.6.1-1.2.1-2zm-363-62.9zm6.5 6.3h-6c-.1-1.2-.1-2.4-.3-2.4l.1-1v-1.5.3-1.7h6.3v4.6l-.2.3.1 1.4zm155.5 0h-.8c-.4-.2-5.6.1-6.3 0h-9.3c-8.5-.1-15.7 0-24.6 0h-42.6c-16.3.3-35.3-.2-52 0h-18.8v-.3s0-1 .1-.6v-5.4l40-.2 40 .2h26.3c4-.2 11 0 15.8-.2l1.8.1a111.8 111.8 0 0 1 5.2 0h9.2-.5 12.5l-.4-.1h18.7c7.1-.2 12 0 18.3 0a16 16 0 0 0 2.5 4.1l.1.3 1.8 2.1h-36.9zm47-3.4v-.2.9c0-.3-.1-.2-.1.5l-.1-.5v2.7h-8.7l-.6-.7a29.5 29.5 0 0 1-3-4l-1-1.8H533l.1.1c.2 1.5-.1.8 0 2.5 0-.7.2-.3.2.5zm.8-2.9v-.3.3zm6.4 4.6-.1.3v1.4h-6c0-1.2 0-2.4-.2-2.4l.1-1-.1-1.5v.3-2h6.4l-.1 4.9zm-8.7 20.4h1.5v1.4-.3 7.2-.1 2.2l.1 5.8v-.1a7.3 7.3 0 0 1 0-.6v.5h-.1v-.3.2l-1.1-2a27.8 27.8 0 0 1-2.5-13.8h2.1zm-208 30.6zm1 0c.6 0 1.4 0 0 0zm6-11.4v11.3h-6v-30.3h6l.1 3.8c.2 4.7-.3 10.3-.1 15.2zm1 11.3h.7-.8zm122 .3-.2-.1h-6.8 2.5c-.9.2-5.1-.1-10 0-4.7 0-9.4.4-14.2.3h-1.4c-.1-.2 1.6-.1.7-.2h-9.6l-.2-.1h-13.8c-5.6 0-3.7-.2-9.5 0l-2.3-.2c-2.4 0-1.7.2-4.5.1h-1.9c-6.2-.2-12.6 0-20.8-.1l-7.2.1c-.2 0-8.3 0-3.7-.1h1.6c-4.6-.2-8.5 0-13 0h1.9-4.3.9-6.3l.1-1.1v-5.6c.2-.3 0-2 0-2.6 0-1.4.2-3 0-4.4l.1.4v-10.2.1c-.2-.9 0-1.1-.1-2.2 0 0 0-.1 0 0v-4.7l40-.1h84.1a111.8 111.8 0 0 1 5.2 0h-.1 6.4-.1 3-.6 12.5l-.3-.1h18.7c9.3-.2 14.8.2 24.5 0h3.6c0 1.6 0 3.3.2 5l.3 1.5c0 .5.1 1 .3 1.4l.3 1.5.5 1.4c.6 1.8-.7-1.5.3 1.2-.1 0-.5-1.3-.4-.5l.8 1.8.3.8.4.8 1 1.8.6.9v3.2c-4-3.2-8.3-5.5-12.8-7.2a57 57 0 0 0-40.9.5 33.5 33.5 0 0 0-16 16.6h-9.8zm79.5-.4a3.7 3.7 0 0 0 0 .3h-10.5.1c-5 0-10.5-.2-15.4 0l1.4-.1H474h.4c-3.2.2-4.1 0-7.6.1h-2.4l.2-.3c1.3-2.6 3-5 4-6.3l.2-.1c1.8-2.1 3.8-4.1 6-5.7l-1.2 1c-.4.2-.8.6-1.2 1l1.1-1.1 1-.8 1.3-.8a41 41 0 0 1 15.4-6l4.3-.6 4.5-.2h.3-.2 1.6l-.8.1h-.1a79.1 79.1 0 0 1 2.9.2c.9 0 1.8 0 2.7.2 1.8.3 3.7.4 6.2 1l.2.1c1.6.3 3.1.8 4.6 1.2l4.2 1.6a84 84 0 0 1 6.8 3.5c2.7 1.6 3.6 2.5 4.4 3.2l.5.4v3.7c0-.5 0-.3 0 0v2.5-.9 2.8zm.2.3c0-.1 0-.2 0 0zm7-11.5V403h-6l-.1-4.3c0-5 .2-6.4.1-11.7v-7.6l-.1-4.6v-2.5h6.2v4c.3 4.8-.2 10.4 0 15.3zm-349 67.6c-.2 0 0 0 0 0zm-5.7.6h.1c.1.1.6-.3.8-.2h.4l.4-.1h.3c1 0 2 0 3 .3.6.2 1.5.5 2.3 1 .9.4 1.7 1 2.2 1.4.8.6 1.5 1.6 2 2.6l1 3a.5.5 0 0 0 0 .2v2s0 2.2.2 3.7H194h.5c-.2.1-1-.2-1.9 0-.8 0-1.7.3-2.6.3-.4 0 .4-.2-.2-.1 0-.1.3 0 .1-.1h-1.8v-.1h-2.5c-1 0-.7-.2-1.8-.1l-.4-.1c-.4 0-.3.1-.8 0h-4.5v-1.2c-.2-1.2.1-1.9 0-3.1 0 .1 0 0 0 0V468l.1-.4v-.6.1l.3-.9-.2.2c.2-.5.2 0 .3-.5h-.1c.1-.4.3-.6.5-.8l.5-.7a18 18 0 0 1 2.6-3 8 8 0 0 1 3.5-1.6zM94 435l1.1.2c-.4.2-2.2-.5-4.3-.5-2-.1-4.1.2-6.2-.1-1 0 1 0-.6-.1 0-.1.7 0 .4-.1a26 26 0 0 1-2-.2c-.6 0-1.3-.3-2.1-.4l-1.7-.3-1.5-.5-2.5-.8c-2.2-1-1.4-.8-3.6-2l-.7-.5c-.8-.7-.7-.4-1.6-1.1l-.4-.5-.1-.1a17.9 17.9 0 0 1-4.7-7.2l-.6-1.5-.4-1.4s-.5-3.4-.1-1.5v.4l.1.2c0-1-.2-1.8-.3-2.7v-2.7.8-1.8.4l.2-1.4.3-1.3-.2.3.8-3.2c.1-.6-.4 1.2 0-.1 0-.4.2-1 .4-1.4l.7-1.6.8-1.5 1-1.4c-.3 0 .1-.4.4-1h.1l.8-.8.3-.3L69 396l-.1.2c0-.2.2-.3.3-.5.8-.7 1-.9 1.3-1l.5-.4 1-.7c-.8.5-.5.1.5-.5l-.2.2c.6-.3.7-.5 1.1-.6l.8-.3-.6.4 1.6-.9c.6-.3 1.5-.5 2.2-.7l1.7-.4 1.6-.2 1.2-.2.8-.1c-.6 0 1 0 .6.1h2l2 .1H87c1.7.1 3.1.5 4.5.8l1 .2 1 .3 2 .7c0-.1 1.5.4 1.1.2l3.9 1.7 2.4 1.2c1.3.6 1.4.9 2.1 1.2l-.3-.1 4.6 3c.9.4 1 .5 2.4 1.6-.5-.3.1.1.6.6l.2.2a4.7 4.7 0 0 1 .4.3c1 .7.8.6.4.2v-.1a69.8 69.8 0 0 1 8.5 8.4c0 .3-.4-.2-1-.8l1.3 1.5-1.1-1.3 2.2 2.9 1.2 1.5a45.9 45.9 0 0 1 1.1 1.7l.4.5v.1l.7.8.6 1.2v.2l-.2.5a24.7 24.7 0 0 0-2.2 4.7l-.2 1v.1c-.1 0-.1.2-.2.1.1 0 0-.1 0 0 0 0-.1 0 0 0a33 33 0 0 0-9.4.6 115.5 115.5 0 0 0-45.2-21.7.5.5 0 0 0-.6.4.5.5 0 0 0 .4.5c.1 0 16.8 3.3 34.3 14 3.7 2.3 7 4.7 10 7.2l-2.5.5-.4.2-1.3.4-1.7.7-1.8.9 1.1-.6c-1.1.6-2.3 1-3.4 1.8l-1.6 1-1.5 1.2 1.3-.8c-3.3 2.4-1 .4-4 3h.2l-.6.6a7 7 0 0 0-.7-.1v-.1l-3-.4zm76 44.7v-.1.5l-.1.3-.1-.2.1.8v3.6l-.1.2H149h2.6c-.9.2-5.3-.1-10.5 0-4.8 0-9.7.4-14.7.3H125c-.2-.2 1.6-.1.7-.2h-10l-.2-.1h-14.4c-5.8 0-3.8-.2-9.9 0l-2.3-.2c-2.6 0-1.9.2-4.7.1h-16v-.2l.1-.3.3-.6.7-1.3a21 21 0 0 1 1.8-2.4c.5-.8 1.5-2 2.6-2.9 1-1 2.2-1.7 2.7-2.1.1 0 2-1.2 3.3-1.7l1.3-.5-1.3.5-1 .5-.4.3a26.8 26.8 0 0 1 9.4-2.6 18.4 18.4 0 0 1 1.7 0h1l1.6.3-2-.2-.9-.1c-.4 0-.6 0 0 0h1.4l2 .3-.7-1.6-.3-.7-.2-.5.5 1.1-.3-.6-.1-.4-.3-.8-.6-1.5a28.5 28.5 0 0 1-.8-3.1v.9l-.3-2-.2-1.8V459c-.1-.6-.2-1.4-.1-2.3 0-1.6-.3 3-.1-.3v-1.7l.4-1.9c.1-1.2.6-2.5 1-3.9a33.5 33.5 0 0 1 4-8l1.1-1.6.2-.1 1.1-1.4.8-.8c.4-.4.5-.6.8-.7l.8-.7c.5-.3 1-1 2.2-1.8l.7-.7.7-.5.7-.4.9-.6 1.2-.7 1.3-.6 2.8-1.2c-2.2.8-1.1.2 1.6-.7l-.7.3 1.7-.6 1.3-.3c-.9.3-.5.2 1.8-.3a15.5 15.5 0 0 0-1.5.4 28.8 28.8 0 0 1 10-.9l1 .1c.3.1.3-.2.4-.3l.1-.6.2-.6.2-.6a12.4 12.4 0 0 1 .7-1.5s.2-.4.5-1a29 29 0 0 1 4.2-6.3c-.4.5 0 0 .5-.4l.6-.5a21.2 21.2 0 0 1 3.6-2.8 20.7 20.7 0 0 1 4.4-2.1l-.4.2a24.7 24.7 0 0 1 20.5 1.5l.3.1a8 8 0 0 1 .4.3c.2 0 .3.2.4 0l.7-.8a21.3 21.3 0 0 1 5-4l2.1-1c.7-.4 1.4-.6 2.1-.8l2-.5 1.6-.4a26.8 26.8 0 0 0 2.7-.4c3.4 0 4 .3 5.7.7l-.8-.2c.5 0 .9.2 1.3.3v3.2c0 4.4-.2 3 0 7.5l-.2 1.8v30.3-1l-.1-.4v10.5c0-1.2 0-2.6.1-1.6v3.4-.7 1l-.8.2c-.1.2-.6.4-.8.6 0 0-.9.6-.5.2l.2-.1v-.1c-.6.2-.9.7-1.4 1.1.2 0 .3-.2.3 0l-.5.3v-.1l-.6.6h.2c-.3.2-.6.2-.8.7 0 .2.4-.3.1.1-.4.4-1 1.1-1.3 1.8v.3c-.3.7-.3.2-.6 1l.1.1c0 .7-.3.3-.3 1.1.1-.3.2 0 .1.3v-.1.4c0-.1-.2 0-.2.2v-.2.6c-.1.4 0 1.1-.2 1.3v1.1c0-.2 0 .3-.1.2v2.6h-.3.2l.1-.1c-.9-.2-1.6 0-2.4 0h.4-.8.1-1.2.2-1.4c-.3 0 .5 0 0 .1h-1.9v2.5c0 1.1-.2.4 0 1.5v.1c.2 1-.2.5 0 1.6.2-.4.4-.2.4.3zm33.9 4.6c-3.1-.2-4.7.1-8.3.2l-7.4-.2h-4.8c-.7.2-2 0-3 .2l-.3-.1h-2.6.1-2.3v.1H171v-.2l.1-.2v-2c0 .2 0 0 0 0 0-.9 0-1.8-.2-1.8 0-.6 0-.5.2-.5l-.1-1v.2-1.3l-.2.2c0-.7.2-.2.2-.8h-.2c0-.5 0-1 .2-1.3v-.9l.1-.1v-.1h2.3l2.9-.1h5.6l.1.1c0 .1 1-.2 1.2 0l.4-.1h5.8c2 .2 5.7 0 7.8 0h6.6l1 .1h.7v.2a.8.8 0 0 0 0 .3v2.8s0 4.8.2 6.5l-1.7-.1zm75.2.4v.5h-2.6l-19.2-.5h.4-29.5.2-16 1.4-7.6l-.2-.1c.1-.6.3-1.6.4-3.3.1-1.5.2-2.5 0-3.5.2-.2 0-1.3 0-1.6a5.5 5.5 0 0 1 0-1v-.8l.1-.9h-1.2.5-6.8.1-.1l.2-1.3v-2.5c.2 0 0-.9 0-1.2-.2-.6 0-1.4-.4-2l.1.2c0-.5-.4-1.1-.3-1.2a8 8 0 0 0-1.9-3l-.6-.7c-.5-.3-1-1-1.4-1.1l-.7-.6.3.2c-.2.1-.5-.5-1.2-.6l-.7-.2.2-10c-.1.4-.1-.7-.1-1.9v-.1c0-4.5.2-1.7.1-6.1l-.1-.8c-.1-4 .2-2.2 0-6.7 0 1.8-.2.8-.2-1.3v.5-2.4c.1.7.2.4.2-1.4v1.2-17.9c0 1.1 0-2 .1-1.1v-2l1.5 1.3 1 1.1 1 1 1 1.3a37.9 37.9 0 0 1 1.2 2.2c-.7-1.2.2.3.8 1.8-.4-1-.5-1.2.2.7l.4 1.1v.1l.5 1.9a10.6 10.6 0 0 0-.3-1.4 24 24 0 0 1 .6 8 22.3 22.3 0 0 1-.2 1.4l-.2.7-.2 1.1-.3 1.1v.1l.4-.1 2.3-.9a27 27 0 0 1 11.9-1.4c.8.1 1.6.1 2.3.3.8.2 1.6.3 2.3.6l-1.5-.3-2.6-.5c2.8.4 5.6 1.2 8.4 2.4a25 25 0 0 1 7.8 5.4l1 .9.2.3.6.6c.4.3.7.9 1 1.3l.4.6a7.8 7.8 0 0 0 .4.6l.8 1.5a21 21 0 0 1 2.1 4.7 27.9 27.9 0 0 1 1.4 5.5c-.3-1.8-.2-1.3 0-.5.2 1.7.2 2.6.2 3.9h-.1v2.6l-.1.3v.3l-.1.7v.4c0 .1 0 0 0 0l1.5-.4c.3 0 .3 0 0 0l-1.4.5h-.2v-.6l.1-1v-.8 1.5l-.2.7v.2s0 .1 0 0h.4l1.8-.5c.7-.2 1-.4 1.5-.4.8-.1 1.6-.4 4.9-.7 3.5-.2-.7-.1 1-.2a28 28 0 0 1 9.7 1.2l-1.1-.4 1 .3 1 .3 1.8.6 3 1.5 1.4.7 1.3.9 1.2.8 1 1 .9.6.7.7 1.4 1.3c.8.9 1.6 1.7 2.2 2.6.7.9 1.3 1.7 1.7 2.5.5.8 1 1.5 1.3 2.3 1.5 3 2.1 5.1 2.5 6.6l.2.6h-.3zm259.6-61.3h-.6 1.7c0 1 .4 2.8.4 2.8.8 4.5 1.6 6.8 2.8 12.1 1 4.7 1 6 2.2 10.9l1.6 7 1 4.3v.5c.2.4.3 1 .3 1.4l.4 1.7.2.8v-.1l.7 3.3c.5 2.2.8 3 1.1 5 .8 2.4.7 4 1.5 6.5-.1-.3 0 .2 0 .2.2 1.2.5 2.5.7 2.5.2.8 0 .7 0 .8l.1.1.1.2.1.4h-1.3l.4.2c-1 0-.3-.2-1.3-.2v.1h-1.2v-.3l-.1-.5-.3-1.2c-1.6-5.7-3.7-11.7-5-17v-.3c.1-.2-.6-1.4-.5-1.7l-.3-.6v-.2l-.3-1-.1-.6c-.6-2.3-1.3-4.1-2-6.5-.6-3-2.3-8.2-3.3-11.3-1.5-4.2-2.4-9.4-4-13.8l-.1-.5-1.2-4-.3-1h6.5zm-5.8 0h-.7.7zm-200.2.4 40-.2 37.6.2h24.5l2.5-.1a43 43 0 0 0-1.7 1.3 18 18 0 0 0-5.9 11.3c-.6 4.2.1 8.4 1.4 12.2l.4 1.4a12.3 12.3 0 0 0 .4.9l1 2.5.5 1 .2.3-.6-.1-.3-.1h-.4l-.9-.2a33.4 33.4 0 0 0-10.3 0l-1 .2c-.7.2-1.7.3-2.8.7a27.1 27.1 0 0 0-14.7 11l-3.4-1.8a69.5 69.5 0 0 0-14.8-5.5 60.9 60.9 0 0 0-35.8 2.9 35.1 35.1 0 0 0-12.6 10.6l-1.6 2.4-.4.7-.2.4-.2-1.4v-.5l-.2-.7-.3-1.4a44.2 44.2 0 0 0-8-16.6 32.6 32.6 0 0 0-1.2-1.4c1-2.9 2.3-7.9 3-10.8 1.1-4.4 3.1-9.3 4.2-13.8v-.5l1.3-4 .2-1zm70.7 42.9v-.1zM310.9 483v.2c0-.4 0-.5.2-.8 0 .3 0 .2.2-.4v.4-1.2c.4-.8.6-2.3.7-2.6l.5-2.3c0 .4.2-.7.2-.4l.5-2.5v.1c.6-2.1.7-3.7 1.2-5.6 0 0 .2-1 0-.7.4-2 1-3.6.9-4.4.1-.9.3-1 .4-1.5v.2l.7-3.4.2-2c0 .5.1 0 .2-.4 0 .3 0 .3.1-.2v-.3c.2-.7.2-.6 0-.3v.1l.6-2.1 1-5.4v.7l.2-1.2-.2 1c.5-1.4.6-3 1-4.7v-.4h.1v-.7c.2-.3.2 0 .4-.8l.5-2.9v.1l.2-1h.1l.1-1.3c.2-.3 0 .6 0 .8l.5-2.6c.2-1 0 .1 0-.3.1-.9.2-1.7.5-2.6l-.2.3.8-3.5.7-4.8h8.4l-.2 1c-.2.2-.5 1.8-.7 2.3-.3 1.3-1 2.7-1.2 4v-.4l-.7 2.3c-.7 2.3-1.6 5.5-1.9 7v-.1l-.5 2v.1l-1 3.4-.6 1.8.2-.6c.1.2-.5 1.3-.7 2.6-.4 1.2-.4 2.6-.8 3.9-.1.6 0-.6-.2.3-.1 0 0-.4 0-.2l-.9 2.5c-.3 1.5-1 2.7-1 3.7-.4 1.5-.6 1-.9 2.5l-.2.6c-.2.6 0 .5-.3 1.2 0 0-.3.9-.3.5-.5 1.6-.8 3.3-1.6 5.4 0 .6-.4 1.6-.4 2 0 0-.7 2.2-.4 1v-.5c-.4 1.2-.5 2.3-1 3.5l.3-.5-.3 1.1v-.2l-.6 1.7.2-.2c-.3.8-.5 1-.7 2 0 .5.4-.7.1.2l-.6 1.9-.7 2v.2h-.7l-.3-.1h-1.3a6.5 6.5 0 0 1-.7 0l-.1-.1s0 .1-.1 0v-.3zm85.7 1.2.7.1-6.6.1c-1.3 0 2.5.1-.3.2l-13.4-.2c.4.1-.8 0-2 .1h-.2c-4.8 0-1.8-.2-6.6-.1h-.8c-4.3.2-2.3 0-7.1.1 1.9 0 .9.2-1.5.1h.6-2.6c.8 0 .4-.1-1.5-.1l1.3-.1-3.6.1h-15.6c1.2 0-2.1 0-1.2-.2-1.5.1-6 .2-8 0h.4l-13.8.1.2-.6.2-.5a18.5 18.5 0 0 0 .4-1.1c1.7-5.7 3.2-12 5-17.2l.1-.2c.2 0 .3-1.5.4-1.6l.2-.7.1-.2.2-1 .3-.6 1.6-5.8c2.1 2.5 3.8 5.3 5.3 8l-.6-1a39.3 39.3 0 0 1 2.8 6.7l.8 2.7.6 3 .7 4.8v.1l.3-.4.9-1.7 1.1-2c2-3.4 4.5-6.2 6.2-7.7l-.2.2c1.9-1.8 2.6-2.2 5-3.8l.3-.2 2.2-1.2c1-.4 1.8-.9 2.8-1.2 1.9-.7 3.8-1.2 5-1.5l5.7-.9-2 .3c.6-.3 4.2-.5 8.4-.8 3.9 0 8-.3 12 .4 1.9.2-1.8-.1 1 .3.2 0-1.2-.2-.5 0 2.8.4 4.5 1 7.9 2 4.5 1.4 8 3.5 10.7 4.8 2.1 1 2.7 1.6 3.4 2a96.5 96.5 0 0 0 4.8 3.6l3.1 2.2 1.2 1 6.4 5.2 3.4 3 .5.4.3.2h-.8c-1.5.2-5 .2-6.1.4-.2 0-7 .2-3.1 0h.9l.4-.2c-4 0-7.2.4-11.1.5h1.7-3.7.8l-5.4.1zm121.7 0h3.3-5.7l1.9-.1h3.2-24.3l-1 .1h-2c-1 0 .1-.1-3.8-.1h-13c2.1 0 1.4.1.5.1h-10.8 3.6-12c-4.2 0 .8 0-1.2.1h-11.7l1.3.1h-22.4 1.6l-.2-.1-.5-.5-2.6-2.2-2.5-2.1-5-4.2-.5-.5c-.2-.4-3.8-2.8-4.3-3.3l-1.6-1.1c-.4-.4-1.4-1-.6-.5l-2.6-1.8-1.6-1.2-.4-.2c.6-1 1.3-1.8 2-2.7l1.1-1.2.6-.6.6-.5 2.5-2 1.2-.8 1.2-.7a28.4 28.4 0 0 1 11.9-3.4h3c1.2 0 2.4.2 3.4.3l3 .6h-.4a54.7 54.7 0 0 1 2.2.6l-1-1.7a37.1 37.1 0 0 1-3-7.7 31 31 0 0 1-1-8.5v1.2c0-2 .2-4.4.8-6.2a19.8 19.8 0 0 1 7.7-9.8h22.9-.2 2.8-.5H476l-.3-.1H493h-.1c8.8-.2 13.9.2 23 0h.4c4.1 0 8.6 0 8.7-.2 3 0 2.4 0 2.8.2l1.6-.1h1.6l.1.4.4 1c-.1.3.5 1.9.6 2.4.5 1.3.7 2.8 1.2 4l-.2-.3c.3 1 .7 2.2.6 2.3.7 2.3 1.6 5.5 2.2 7v-.2l.6 2s0 .1 0 0l1 3.4v.1l.5 1.8-.2-.7c.3.2.3 1.4.8 2.7.3 1.2 1.1 2.4 1.4 3.7.2.5-.3-.5 0 .4 0 0-.2-.4-.2-.2.3.9.3 1.5.7 2.6.5 1.4.7 2.8 1 3.7.6 1.4.1 1 .7 2.5v.6c.3.7.4.5.5 1.2 0 0 .2 1 0 .5.4 1.7 1.2 3.3 1.6 5.6.3.4.5 1.5.7 1.8 0 .1.7 2.2.2 1 0 0-.1-.3 0-.2l-.2-.2c.3 1.3.8 2.3 1 3.5v-.5l.3 1.1-.1-.2.4 1.7v-.3c.2.9.2 1.2.6 2 .2.5-.1-.7.1.1l.5 2a46 46 0 0 0 .3 1.2l.4 1.2H543l-24.7.2z"/></g><defs xmlns="http://www.w3.org/2000/svg"><path id="a" d="M537.8 341a3 3 0 1 0 0-5.9 3 3 0 1 0 0 6zm0-4.9a2 2 0 1 1 0 4 2 2 0 0 1-2-2c0-1 1-2 2-2z"/></defs><g transform="translate(120 80)"><path xmlns="http://www.w3.org/2000/svg" d="M393.1 244.9v.1-.1zm-276-109.4v.1-.1z"/><path xmlns="http://www.w3.org/2000/svg" fill="#fff" d="M258.6 47.8s-1.8 1.2-3.2 1.3c-1.4 0-1.5 0-1.5-1s-.1-1.6-.3-2.3-1.2-1.8-1.2-1.8-.8 1.5-2.6 2-3.6-.4-6.6-1.6a12.3 12.3 0 0 0-8.1-.8c-2.4.7-3.3 1.4-4.3 2.1s-2.3 3-2.3 3-2.8-.3-5.9 1c-3.3 1.6-4.8 6-5.1 9.1s.6 6.7 1.1 8.5 1.7 4.1 1.7 4.1l.5-.5.1.6c-1 1-1.6 2.5-1.6 4.1 0 3.2 2.4 5.7 5.3 5.7l1-.1-6.8 22.4-2.2 5.7s3.2 4.1 10.8 5.7a38 38 0 0 0 11 1c2-.2 4.2-.6 3-4-1.7-5.3-1-8.6-1-8.6l2.3-13c1.6.2 3.2.3 4.3 0 3.2-1 6-4.5 7-10.2a108.5 108.5 0 0 0 .4-18.8l-.2-1.5a11.2 11.2 0 0 0 3.3-2.3c4.9-5 1.2-9.8 1.2-9.8zM228 80z"/><path xmlns="http://www.w3.org/2000/svg" d="M251.8 60h.4-.4zm-29.6 9.3zM261 51.1v.2-.2z"/><circle xmlns="http://www.w3.org/2000/svg" cx="242.1" cy="71.9" r="1.4"/><path xmlns="http://www.w3.org/2000/svg" d="M225 72.6c-1.7 0-3 1.4-3 3s1.3 3 3 3 2.8-1.4 2.8-3-1.3-3-2.9-3zm0 5c-1.1 0-2-.9-2-2s.9-2 2-2 1.8.9 1.8 2-.8 2-1.9 2zm18.4-13.5c-3.6-.3-5.2 2.1-5.3 2.2-.2.3-.2.8.1 1 .6.4 1 .2 1.2 0 .1-.2 1.2-1.9 3.9-1.7.4 0 .8-.3.8-.7s-.3-.8-.7-.8zm7.1.6c.2 0 1.3-.4 2.1.1l.4.2c.2 0 .5-.1.6-.3a.8.8 0 0 0-.2-1c-1.4-1-3-.4-3.2-.4a.7.7 0 0 0-.6.9c.1.4.5.5 1 .5z"/><circle xmlns="http://www.w3.org/2000/svg" cx="252.1" cy="71.1" r="1.4"/><path xmlns="http://www.w3.org/2000/svg" d="M244.3 82.8a4.6 4.6 0 0 1-4.7-2.8c-.2-.4-.6-.5-1-.4s-.5.6-.3 1a6 6 0 0 0 6.2 3.7c.4 0 .6-.3.6-.8a.8.8 0 0 0-.8-.7zm16.8-31.6-.6-2-.2-.6-.2-.4-.3-.4c-.3-.5-.6-1-1-1.3l-.4.4-.8.3-.5.3-.2.2a2 2 0 0 1-.6.2c-.5.3-1 .2-1.2.3h-.1V48l-.1-.1v-.4c0-.7-.2-1.3-.3-1.8h-.1l-.2-.5-.1-.3-.2-.3a8.3 8.3 0 0 0-.8-1.2h-.9l-.8.3a2.6 2.6 0 0 1-1.3 1c-.8.6-1.7.5-2.5.3l-3-1c.3.1 0 0 0-.1-1-.4-2.4-.9-2.5-.6-.8-.3-.6-.3-.7-.5l-1.5-.1h.3a11.3 11.3 0 0 0-2-.2 4.8 4.8 0 0 1 .4.2c-1 0-.3-.3-1.3-.2v.2c-1.4 0-2.4 0-3.8.3a9.8 9.8 0 0 0-4.7 3.5l-.6.8-.1.2v.1l-.1.2h-.9l-1.3.1a14.3 14.3 0 0 0-2.5.7c-.8.3-1.6.6-2.4 1.2-.7.5-1.3 1-1.8 1.7l-.2.2c-.3 0-.6 1.5-.8 1.6l-.2.6c-.1.2-.3.5-.2.2-.3.5-.2.6-.3 1l-.3.6c-.8 2.2-.7 4.3-.5 6.8a18.3 18.3 0 0 0 1.7 6.5l.5 1.2.8 1.7h.2a6.4 6.4 0 0 0-1 3.6c0 3.4 2.5 6.2 5.7 6.2h.4l-6.7 21.6-2.3 6 .2.2c.2.2 3.4 4.2 11.1 5.9 3.5.7 6.5 1 9.1 1a22.6 22.6 0 0 0 2 0c1.3-.2 2.8-.4 3.5-1.5.5-.8.5-1.9 0-3.3-1.6-5-1.1-8.2-1-8.2l2.2-12.6 2 .1c.8 0 1.5 0 2-.2 3.7-1.2 6.3-5 7.3-10.5l.3-2.2c1.8-.7 3.1-3.1 3.1-6 0-2.8-1-5-2.6-6a67 67 0 0 0-.3-4.8v-.5a11.5 11.5 0 0 0 5.6-5.7 7.9 7.9 0 0 0 .5-3.9zm-18.3 15.7c-2.3 0-4.4 2.3-4.9 5.3l-3.2-.5.2-.4c.8-1.3 1.2-2.7 1.4-4.1l.1-.9a8 8 0 0 0 0-2.1c-.2-1.9-1.2-3.7-2.2-5l-.4-.7v-.3a1.1 1.1 0 0 0 .2 0v.1h.2a20.7 20.7 0 0 1 .8.4l1 .5c3.9 2 6.4 3 11.9 3 2.4 0 4-.4 5.5-.8l.5-.2v.2a73 73 0 0 1 .3 4.3 3 3 0 0 0-.7 0c-2.2 0-4 2.3-4.2 5.4a2.4 2.4 0 0 0-.8-.1 2 2 0 0 0-1 .3c-.7-2.6-2.6-4.4-4.7-4.4zm4 6.6c0 3-1.8 5.6-4 5.6s-4-2.5-4-5.6 1.8-5.6 4-5.6 4 2.5 4 5.6zm-7 29.8c0 .1-.6 3.5 1.2 8.8.3 1 .4 1.9 0 2.4-.4.7-1.6.9-2.6 1a38 38 0 0 1-10.9-1 19.5 19.5 0 0 1-10.3-5.3l2.1-5.4 6.8-22.2c.6-.2 1.1-.4 1.6-.8l.2 1c.6 2.1 2.5 4 6 5.9 2.5 1.3 5.5 2.5 8.2 3l-2.3 12.6zm13.6-23.2c-.9 5.2-3.3 8.7-6.5 9.7-3 1-8.7-1-12.6-3-3.2-1.7-5-3.4-5.4-5.3a24.4 24.4 0 0 0-.3-1.4l-.3-1.2a4.8 4.8 0 0 1-3.7 1.9c-2.6 0-4.8-2.3-4.8-5.2s2.2-5.2 4.8-5.2c1.2 0 2.3.5 3.1 1.3a3.4 3.4 0 0 1 .3.3l.3.4.4.5c.4.3.8.4 1.2.5l.9.2a4 4 0 0 0 2.2-.5 5.4 5.4 0 0 0 .9-.6l4 .7v.3c0 3.6 2.1 6.6 5 6.6 2.6 0 5-3 5-6.6a8.8 8.8 0 0 0-.2-1l.2-.2v.3c.6 1.3 1.5 3.8 1.4 4.7s-.9 1-1.2 1.1c-.5.2-.8.5-.7 1 .2.5.7.6 1 .5.8 0 2.2-.9 2.3-2.4a4.8 4.8 0 0 0 0-.8c.7 1 1.7 1.6 2.8 1.6h.2l-.3 1.8zm.4-2.8h-.3c-1.7 0-3.3-2.4-3.3-5.3s1.5-5.3 3.3-5.3a2 2 0 0 1 .7 0c0 3-.1 7.3-.4 10.6zm1.4-9.9c1 1 1.6 2.7 1.6 4.6 0 2.2-.8 4-2 5 .3-3.1.4-6.8.4-9.6z"/><g xmlns="http://www.w3.org/2000/svg" fill="#fff"><path d="m240.3 427-1.4-28.1h28.4l2.6 35.3zm-72 0 3.2-21.7 25.8 3-3 22.4z"/><path d="M173.6 393.2c1.4.3 1.8.6 3.3.8l2.1.4h1.3l.1.2h.5l.5.1h.2v.1a4.1 4.1 0 0 1 1 .2v-.1c.6.2 1 0 1.5.3.8-.1 1.2.4 2 .3-.1 0 0 0 0 0 .4.1.8.2.8 0 .3 0 .2.1.2.2h.5-.1.6l-.1-.1c.3 0 0 .2.4.2v-.1c.4 0 .6.3 1 .5 1.8.4 3.7.4 5.3 1 0 .2.6 0 .6 0h.2s.2.1 0 .1h.4l.2.1 2 .4c.8.3 2.5.5 3.5.5 1.3 0 2.8.9 4.2 1h.2l1.2.2s6 1.2 1.6-.8c-.6-.2-1-.3-1.5-.2 0-.2-.6-.1-.7-.2-.5 0-.9-.3-1.3-.3h.2c-.3 0-.7 0-.7-.2-.7 0-1.7-.3-2.2-.2l-.6-.1-1-.2-.6-.1h.2c-.1.2-.4-.2-.8-.1-.4-.1-.9.2-1.2 0h-.1v-.2l-.7-.2c-.5 0-.8-.3-1.2-.2-.4 0-.2-.3-.7-.2l-.2-.2c-.2 0-.2.1-.4 0 0 0-.3 0-.1-.1-.5-.2-1 0-1.7-.4h-.6s-.7 0-.3-.1h.1c-.3-.2-.7 0-1-.2 0 0 .2 0 .1.1h-.3v-.1l-.5-.2v.1c-.2 0-.2-.2-.5-.1-.2 0 .2.1-.1 0l-1.3-.3h-.2c-.5 0-.1-.2-.6-.2-.5.1-.3-.1-.8 0 .2 0 0 .2-.1 0h-.2l-.1-.1h-.3l-.8-.2s-.5-.2-.7-.1c.2 0-.1-.1 0-.2l-.8-.1-1.7-.3c0 .1-.3 0-.2.1-.6 0-1-.4-1.3-.1-.3 0-.3-.2-.5-.2l-1-.2c-.2 0-.2.2-.6 0h-.1v-.1h-.2c-.2 0-.2 0 0 0l-.7-.1-1.6-.2h.2l-.4-.1h.4c-.5-.2-1 0-1.5-.3h-.1l-.2.1c-.1 0 0-.2-.3-.2l-.8-.1c.1 0 0 0 0 0h-.3v-.1h-.4.2l-.8-.2c-.3 0 0 .1 0 .2l-.8-.1c-.4 0-.7 0-1-.2-3.6 0-1 .8-1 .8 1.4.4 2.1.3 3.8.6zm64.2 8.1 3.6-.1 2.3-.2c.4-.2 1-.1 1.4-.3l.2.1h.5l.5-.1h.3l1-.1v-.1c.7 0 1-.2 1.7-.1.8-.3 1.3 0 2.1-.3v.1c.5 0 .9-.1.9-.3l.3.1.4-.1h.6l-.2-.2c.4 0 .1.2.5.1v-.1l1.2.2c1.9-.1 4-.6 5.7-.5h.1c0 .2.5-.2.6 0l.2-.1s.2 0 0 0h.7l2.2-.2c1 0 2.7-.2 3.8-.4 1.4-.3 3.1 0 4.6-.3h.2l1.3-.1s6.6-.5 1.5-1.2c-.7 0-1.1 0-1.6.2-.2-.2-.7 0-.9 0-.4.2-.9 0-1.3.1h.1-.8c-.7 0-1.8 0-2.3.3h-.6c-.3.2-1 .1-1.2.2h-.6.2c0 .2-.4-.1-.9 0-.4 0-.8.5-1.2.5-.2 0 .2-.2-.1-.1 0-.1.1 0 0-.1-.3 0-.5-.1-.8 0h-1.3c-.5.2-.3-.1-.8 0h-.2c-.2 0-.2.1-.4 0h-.2c-.6 0-1 .2-1.8 0-.2.2-.6.2-.7.3 0 0-.7 0-.3-.1h.1c-.4-.2-.7 0-1.1 0 .1 0 .3 0 .2.1H256c-.2.1.2.1 0 .2h-1.7c-.5.1-.2-.2-.7 0v-.1.2c-.5.1-.3-.2-.8 0 .2 0 .1.2-.1.2h-.3l-.1-.1.1-.1-.4.1c-.3 0-.7.1-.8 0 0 0-.7 0-.8.2.1-.1-.2-.1-.1-.2-.2 0-.7.2-.9.1l-1.8.2s-.3 0-.2.1c-.6.2-1.2-.1-1.4.3l-.5-.1h-1c-.3.1-.3.3-.7.3h-.1l-.1-.1h-.1c-.2 0-.2 0 0 0v.1h-.8c-.6 0-1.1.2-1.7.3l.2-.2h-.4.4c-.5-.1-1 .2-1.6.1h-.1l-.3.2s0-.2-.3-.2l-.9.2c.2 0 .1 0 0 0h-.3l-.4.1.3-.1h-1c-.2.2.2.2 0 .3h-.8v.1a3 3 0 0 1-1 0c-3.8 1-.8 1-.8 1 1.5.2 2.2-.1 4-.3z"/></g><path xmlns="http://www.w3.org/2000/svg" d="M305.8 440.7c.1.4 0-.2.1-.1-.2-1.5-.7-3.1-1-3-.3-1.1-.2-1-.1-1.1l-.4-.5-.6-1.2.3.4c-.6-1-1.3-1.4-2-2l.3.6c-1-.9-.1-.5-1.2-1.1l-.1.1-3.7-2.7c-6.3-3.4-13.5-6-19.5-8.8l-.2-.2c0-.3-1.8-.4-2-.7l-.7-.2c-.2-.1-.6-.3-.2-.2l-1.2-.4-.6-.4-1-.4-.5-.2-.6-.2h-1.4c-.1-1.3-.4-2.6-.3-4.3-.2-.4-.2-1.4-.3-1.8 0 0-.1-2 0-.8v.2l.1.1v-1l6.4-.6a4 4 0 0 0 3.7-3.2 4.6 4.6 0 0 0 0-.9v-.6l-.1-4.8c-.7-16.4-.3-35.5-1.1-52.4a13.4 13.4 0 0 0 0-1.2v-.5l-.1-.2-.5-15.4s-1.7-51.4-2.2-36.5l-.1-2.6-.4-11 .8 10c.3 2.8.4 2.5.5 1v-11.5a427 427 0 0 0-1-21.5l-2-23.8-1.5-19.9-.4-4.3-.6-5.5v-.5l-.1-.1H267v.3c-.3-.2-1 0-1.3-.1h-13.5l-.6.1h-16.3s-53.4 0-38 1h-2.7l-1.8 11.3 1.2-10.2c.4-3 .2-2.8-.3-1.3a74 74 0 0 0-1.4 7.1l-.8 4.8c-1.4 8.6-2.3 15.1-3.2 22L187 251l-1.5 13.7-4.7 41.7-2.3 13.5-2.5 13.4c-.6 4.2-2.2 11.4-3 16.3l-.5 1.8-1 5.4v-.1l-1.2 6.5-.6 3v-.5c-.7 4.3-1.6 8.8-2.4 12.8l.2-.3c-1.8 8.4-2.2 11.6-3.9 19.2v-.1l-.6 3.4-.2 1.8c0 .7 0 1.4.4 2 .6 1.2 1.7 2 2.9 2.3l2.9.6 1.5.3-.4 2.7v1.1c-.1.2-.2 0-.3.7l-.3 2.6v-.1.9h-.2v1.2-.7l-.4 2.3c0 .8.1-.1.2.3l-.4 2.3.1-.3a23 23 0 0 1-.5 3.2v1.2a2.2 2.2 0 0 0-1.2.2l-.8.8-.4 1a18.7 18.7 0 0 0-.6 3.3c-.3 1.7-.4 3.4-.5 5.1v3.6l.3 3.3.2 1.6.2.8.1.8c.4 1.2 1.3 2 2 2h.7c.1 0 .2-.1.1-.2l-.8-.4a2 2 0 0 0 .8.2h3.7c-9.1 1 0 1.3 0 1.3 5.6.3 8.4-.2 15-.3 5.7 0 7.2.3 13.2.2h8.6c1.3-.3 3.7-.1 5.2-.3l.6.1a8 8 0 0 1 1.7 0h3-.1a44 44 0 0 1 4 0v-.2c2.7.1 3.7-.2 6.1 0a14.5 14.5 0 0 1 1.1 0 3 3 0 0 0 2.9-2.8c0-1.4 0-2.6-.4-4.3.1.4 0-.2.1-.1-.2-1.5-.7-3.1-1-3-.3-1.1-.2-1-.1-1.1l-.3-.5-.7-1.2.3.4c-.6-1-1.3-1.4-2-2l.3.6c-1-.9-.1-.5-1.2-1.1v.1c-1.6-1-2.3-1.7-3.8-2.7-6.3-3.4-13.5-6-19.5-8.8l-.2-.2c0-.3-1.8-.4-2-.7l-.7-.2c-.2-.1-.6-.3-.2-.2l-1.2-.4-.6-.4-1-.4-.4-.2-.7-.2c-.5-.1-1 0-1.6 0v-.2c.1 0 .2-.9.2-.5.3-1.5.3-3 .7-5v-.7l3.1.6-1.2-.2 3.3.6h.6c1.5.1 3-.5 4-1.7l-1.5 1c1-.6 1.4-1.2 1.6-1.5l.4-.5.3-.6.6-1.8h-.2c1.7-5.3 3-8.3 4.7-13.4l13.6-43.6 2.9 28.6v1c-.3.3.8 5.4.7 6.2l.3 2.3c0 .7.2 2 0 1l.5 3.7v2.3l1.4 12.1.1 1.5.2 1c0 .3.2.6.4.8.6 1.2 1.8 2 3.1 2.2h1l2.1-.2v.6l.1 1.2-.1-.7.1 2.3c.1.8 0-.1.2.3l.1 2.2.1-.2c.1 1.3.2 2.2.1 3l.4 3h-.4c-.4.3-.7.5-.9.9l-.4 1a18.7 18.7 0 0 0-.5 3.3l-.6 5.1v3.6l.3 3.3.3 1.6.1.8c0 .3 0 .5.2.8a2.7 2.7 0 0 0 2 2h.7c.1 0 .1-.1 0-.2l-.8-.4a2 2 0 0 0 .8.2h3.7c-9 1 .1 1.2.1 1.2 5.5.3 8.3 0 14.9-.2 5.7 0 7.3.3 13.2.2l8.7-.1c1.3-.2 3.6 0 5.2-.2l.6.1a8 8 0 0 1 1.7 0l2-.1h1-.2a44 44 0 0 1 4.1 0v-.1c2.6.1 3.6-.2 6 0a14.5 14.5 0 0 1 1.2 0 3 3 0 0 0 2.8-2.8c.1-1.5.1-2.7-.3-4.3zM195.5 417v.2c-.2 0 0 1.3-.2 1.5v.4a3.4 3.4 0 0 0-.4.3 2.7 2.7 0 0 0-.4.5l-.6.7-1.5 1.5c-1.3 1-3.3 2.5-5.5 3.5s-4.7 1.6-6.5 1.7a18.5 18.5 0 0 1-11.3-2.1 62.3 62.3 0 0 0 .6-4l.4.1c.7.2 1 0 2-.1.7 0 1 .2 1.7.1h1.2l.7-.1h.7a1.3 1.3 0 0 1 .5 0c.3 0 .5-.2.8 0 .4-.3.7.1 1 0 .3 0 .5 0 .5-.2l.1.1.3-.1h-.1.3v-.1l.2.1v-.1l.6.3c.9 0 1.9-.3 2.8 0 0 .2.2-.2.3 0h1.5a6 6 0 0 0 1.9-.1c.7-.2 1.5.3 2.3 0 0 .1 0 0 0 0h.7s3.2.1.8-1h-3.7c-.1.2-.4 0-.5.1h-.4.1c0 .2-.2-.1-.4 0-.2 0-.4.4-.6.3-.1 0 0-.2 0 0v-.2h-.5v-.1h-.6c-.2 0-.1-.2-.4 0v-.2h-.3s-.1 0 0 0h-1l-.3.1s-.3 0-.1-.1c-.2-.2-.3 0-.5 0h-.4s-.1-.2-.3 0c0 0 .1 0 0 0h-.9c-.3 0-.1-.2-.3-.1-.3.2-.2 0-.5.1.1 0 0 .2 0 .1h-.2v-.2l-.1.1h-.8s-.1 0 0-.2c-.2.1-.4.2-.5.1h-.9c0 .1-.1 0 0 .1-.4.1-.7-.2-.8.2l-.2-.1h-.5c-.1 0-.2.2-.3.1h-.1v-.1h-.1c-.1 0-.1 0 0 0v.1l-.4-.1-.8.2v-.2h-.1.2c-.3-.1-.5.1-.8 0h-.1l-.1.2-.1-.2h-.5v.2s0-.1-.1 0v-.2l-.2.1h-.3c-.2 0 0 0 0 .1h-.5v.1h-.5l-.7.3.7-5.6 1.3-7.3c3 .6 6.1 1.2 10 1.7-1.3-.2.5.2.4.2 4.6.8 9.5 1.7 9.6 1.4 3.4.6 2.7.6 3.1.8h1.4l-.7 5.1zm45.5 7.3a51.5 51.5 0 0 0-.1-3c.5.1.9 0 1.6-.1.8 0 1 .2 1.8.1h1l.8-.1h.7a1.3 1.3 0 0 1 .5 0c.4 0 .5-.2.8 0 .4-.3.7.1 1.1 0 .2 0 .4 0 .4-.2l.2.1.2-.1h.3l-.1-.1.2.1v-.1l.6.3c1 0 2-.3 2.8 0 0 .2.3-.2.3 0h.1s.1 0 0 0h1.3c.5.1 1.4 0 2-.1.6-.2 1.5.3 2.2 0 0 .1.1 0 0 0h.7s3.3.1.8-1h-3.6c-.2.2-.5 0-.6.1v-.1h-.3c0 .2-.1 0-.4 0-.2 0-.4.4-.6.3 0 .1.1-.1 0 0v-.2h-.4c-.3 0-.5-.2-.6 0-.3 0-.2-.3-.5-.1v-.1h-.3s-.1 0 0 0c-.3-.2-.6 0-1 0h-.4v-.1c-.1-.2-.3 0-.5 0 0 0 .1 0 0 0h-.7s.2 0 0 .1l-.7-.1c-.3.1-.2-.2-.4 0-.3.2-.2-.1-.4 0v.2h-.2v-.2h-.2c-.1 0-.4.1-.4 0h-.4v-.1h-.5c-.3 0-.5.2-.8 0 0 .2-.2 0-.1.2-.4.1-.6-.2-.7.1h-.3v-.1h-.5c-.1 0-.1.2-.3.2l-.1-.2c-.2 0-.2.1-.1.1h-.3l-.9.1.1-.1h-.2.2c-.2-.2-.5 0-.8 0l-.2.1-.1-.1h-.5c.1 0 0 0 0 .1h-.1v-.1l-.2.1.1-.1h-.4c-.2 0 0 .1 0 .2h-.4c-.2.2-.4.1-.6 0l-.6-6.9 2.6-.3c5.4-.3 13.1-1 21-1.8l3.9-.3.5 7.5-.1.3v.2l-.5.4a2.7 2.7 0 0 0-.4.5 20 20 0 0 1-.6.7l-1.4 1.5c-1.4 1-3.3 2.4-5.6 3.5s-4.6 1.6-6.5 1.7c-3.6.4-7.8-.1-11-2a2.4 2.4 0 0 0-1.2-.3v-.7zm-61.3-4.6zm70.5 0z"/><g xmlns="http://www.w3.org/2000/svg" fill="#fff"><path d="M189.3 322.4v-.2l-1.5 7.2c.1-.1-.2 1.2 0 .9l-.6 2.8 1.2.5.8-4h-.1l1.4-6.4.5-2.7-1.2-.3-.5 2.2zm3.1-16.3v-.1zm-6.2 31.7v-.3l-.8 4.4c-.2.8 0 1-.4 2.4 0-.5 0 .1-.2.7.1-.4.1-.5 0 .2l-.1.4c-.2 1-.2.8 0 .4v-.2l-.7 2.7v.1l1.2.5.9-4.4c.1-1.4.8-3.8 1-5.4l.2-.7.3-1.5-1-.5-.3 1.2zm-6.1 29.1c.1-.6.1-.4.1-.1-.1.5-.3.8-.3 1.3h-.1l-.3 1.7.2-1-.7 3.2c-.2 1.2 0-.2 0 .4l-.4 2.5 1 .1 1.4-7.5.3-1.1-1-.3-.2.8zm14.8-75c.1-.5.2-1.1.2-.7l-.3 1.5v-.3l-.4 2.2.2-.3c-.2 1.1-.4 1.5-.5 2.7 0 .6.3-1 0 .2l-.7 3.8 1.2.3.2-.8 1.7-11.5-1.2-.5-.4 3.4zm-12.2 63.5v-1l-.2 1.7.2-1.4c-.5 1.8-.7 3.9-1.3 6.1v.5l-.1.1-.1.8-.3.9 1 .3 2.3-9.7.3-1.2-1.1-.5-.7 3.4zm11-50.2v-.5l-.8-.2c-.2.6-.3.2-.5 1.7v.3c0 1.8-.2 1-.4 3 .1-.8.2-.4 0 .5v-.2l-.2 1-.2.6v-.5l-.1 1.5-.8 3.3-.1.7 1.2.4.4-2c-.1.4 0-.2 0-.2l.5-3.2c.2-1.2.2-1 .3-1l.2-2v.5l.4-2.6-.2.5c.3-1.3.2-.3.4-1.6zm4.1-31.3-.2.7-.2 1.6s-.2 1.2-.2.7l-1.1 7.2-.1 1 1 .3 1.2-7.4.2-.3c.1 0 0-2 .2-2.2l.1-.8c0-.2.1-.7.1-.3l.2-1.3.2-.7-1.1-.2-.3 1.7zm2.6-16.7c-.3 1.6-.1 3.3-.5 5 0 .8 0-.7-.1.5-.1 0 0-.6-.1-.3-.1 1.2-.4 1.9-.5 3.3h-.1l-.5 3.2 1 .2.8-5.3 1.3-8.2-1-.3-.3 1.9zm-22.9 122.6c-2.6 14.7.2 3.2.2 3.2l1.3-5.3-1-.2-.5 2.3zm28.8-161.4v-.1l-.5 2.5h1.1c1-6.3 2.4-16.8-.6-2.4zm-4.1 26.7v-.1c0 1-.2 1.4-.3 2.6v.1l-.7 4.4 1 .2.4-3.3 1.2-7.9-1-.2-.6 4.2zm10.9-20zm13.5-16.3c0-.7-.2-1-1 .5l-.3 1c-.1 0 0 .4-.2.5l-.2.8-.2.4c-.2.5-.5 1-.5 1.4v.4h-.1l-.3.7-.2.3v-.1c.2.1-.1.2-.2.5-.1.2.1.6-.1.8 0 .2 0-.1-.1 0h-.1c0 .2-.3.2-.3.4h-.1c0 .3-.4.4-.4.6-.1.3-.3.1-.4.4l-.1.1-.1.3c0-.1-.2 0-.2 0-.3.2-.3.6-.7.9l-.2.4s-.3.3-.2 0c-.3 0-.2.3-.4.5 0 0 .1-.1 0 0v.1l-.3.2c-.1 0-.2 0-.3.2 0 .1.2 0 0 .1l-.7.5c.1 0 0 0 0 .2v-.1c-.3.3-.3 0-.5.2v.1c0 .3-.1 0-.3.3.1 0 .2.1 0 .2h-.2v-.1l-.2.2-.5.2s-.3.1-.3.3l-.2-.1s-.3.3-.4.2c-.4.2-.6.5-1 .5 0 0-.2.1-.1.2-.3.3-.8 0-.8.4h-.3l-.7.3c-.1 0 0 .2-.3.2h-.2c-.2 0-.1 0 0 0-.2 0-.5.2-.5 0l-1 .5c-.1 0 0-.1 0-.2h-.2.2l-1 .2-.2.1s0-.1-.2 0h-.6c.1 0 0 .1 0 .1h-.4.1-.5c-.2.1 0 .1 0 .2h-.6v.1a1 1 0 0 1-.7 0l-.7.3v-.7h-1v.5c-.2.3-.4 2.4-.5 3-.2 1.8-.7 3.6-.8 5.4v-.5l-.5 3-.2 1 1.2.2 1-6.4a3.8 3.8 0 0 0 0-.6l.7-4.3a2.7 2.7 0 0 0 .3 0c1 .2 1.5 0 2.7-.2 1-.1 1.3 0 2.4-.2a12.2 12.2 0 0 0 1.5-.4l.8-.4h.2a.5.5 0 0 1 .3 0c0-.2.3-.2.3-.2h.2l.6-.4c.5-.1.6-.4 1-.4.4-.5.9-.3 1.3-.8.3 0 .5-.3.4-.4.2-.1.2 0 .2 0s0-.2.2-.3l.3-.2h-.1c.2-.2.1 0 .3-.1l-.1-.1c.2-.2.5-.1.8-.3 1-.8 1.7-2 2.6-2.9.2 0 .1-.4.2-.3v-.2h.2v-.2h.2l.7-1.3a5 5 0 0 0 1.1-2.3c.2-.9 1.1-1.7 1.2-2.8l.3-1s.3-1 .3-1.7zm5 123 .1-.3-.1.3zm21.4-80.2v-.1zm-16.7 68.3zm-4.8 16.1c1.3-4.3 1.8-5.4 3-9.7l1.8-6.4c.1-1 .7-2.7 1-3.9l.1-.4.4-1.3c0-.5.3-1.2.4-1.5l.2-.7v.1a37.1 37.1 0 0 1 .8-3h-.1c.7-2 .7-2.7 1.3-4.5.4-2.3 1.1-3.5 1.6-6 0 .3 0 0 0 0 .3-1.2.6-2.3.5-2.4.2-.8.2-.6.3-.7 0 0 0-.7.2-1.3v.3l.4-1.8-.2.3c.3-1 .2-.2.4-1.1h-.1l1.1-3.3c1.4-5.2 2.6-10.9 4-15.7l.1-.2c.2-.1.2-1.4.4-1.6v-.6c.1-.1.2-.5.2-.2l.2-.9.2-.5 1.5-6c.8-2.7 1.9-7.6 2.5-10.5.8-4 2.5-8.5 3.3-12.7v-.5l1-3.7s4.7-18.1.2-4.6c-.6 2-1 3.2-1.2 4.7-.2.1-.4 1.6-.6 2.1-.2 1.2-.8 2.5-1 3.7v-.3l-.5 2.1c-.5 2.1-1.3 5-1.5 6.4v-.1c0 .8-.2 1-.4 1.9-.1 1-.6 2.5-.7 3.2h-.1l-.4 1.7.1-.7c.2.3-.4 1.3-.6 2.5-.3 1.1-.2 2.4-.6 3.5 0 .6 0-.5-.1.4-.1 0 0-.4-.1-.2l-.7 2.3c-.2 1.4-.8 2.5-.9 3.4-.2 1.4-.4.8-.6 2.3l-.3.5-.2 1.1s-.2.9-.2.5c-.5 1.5-.6 3-1.3 5l-.3 1.8-.3 1v-.5c-.4 1.1-.4 2.1-.8 3.2.1-.3.2-.8.2-.4l-.2 1v-.2l-.5 1.5.2-.2c-.3.8-.5 1-.6 2 0 .3.3-.8.1 0a124.2 124.2 0 0 0-1.1 3.8v.6h-.2c-.2 1.4-.3.5-.5 1.9v-.1.4c-.2 1.2-.3.6-.5 2 .1-.5.2-.2 0 .5v-.2c0 .3 0 .5-.2.7l-.2.4v-.4l-.1 1c-.3.8-.5 2.1-.7 2.4l-.5 2.1c0-.3-.3.6-.3.3 0 .5-.3 1.8-.5 2.3v-.1c-.6 1.9-.8 3.3-1.4 5 .1 0-.2.9 0 .7-.4 1.8-1.1 3.2-1 3.9l-.5 1.4v-.2l-.8 3c-.1.6 0 .8-.3 1.8 0-.4 0 0-.2.4 0-.2 0-.3-.1.2a1.7 1.7 0 0 1 0 .3c-.2.6-.2.5 0 .2-.3.5-.5 1.7-.7 1.8l-1.2 4.9v-.7l-.2 1.1.2-1c-.5 1.3-.7 2.8-1.2 4.3v.4h-.1v.7c-.2.2-.2 0-.5.7l-.6 2.5c.1-.4.1-.2 0 0l-.2.8h-.1l-.2 1.2c-.2.2 0-.6 0-.7l-.6 2.3c-.2.9.1 0 .1.3l-.7 2.3.2-.2a22 22 0 0 1-1 3.1c-2.4 10.4.3 2.4.3 2.4 1.4-3.9 1.7-6 3.1-10.8zm18.9 110.7-.3-.1h2.6c.5-.2-.6-.2.3-.4h2.7c-.1.1-1 .1-.8.2.1 0 1.5 0 1.3-.2v.2h1c.3 0 .4 0 0-.1.9 0 2.2-.3 2.9-.1.8 0 .6 0 .8.2l.7-.1.5-.1c1.8.2 3.4-.3 4.9 0h-1.1 1.2c-.5 0-1 .1-.7.2l5.5-.3c.1.2 1.5 0 2.2.2l-.1-.1c-.3 0-.5 0 .3-.1h.5c.4 0 .9 0 .5.1 1.2.1 1.3-.1 2-.2h3.5-.2c.4 0 .6.2 1.5.1.8-.5 2.5 0 4.5-.2-.3-.1.8 0 .7-.2 2 .2 3.5-.2 5.8 0h-.1c.6.1 2 0 2.6-.1-.3.1.7.1.3.3.5-.2 2.4-.1 2.4-.1h2.7l1.2-.1-.4.1c.6 0 .7.1.5.2h.8-.2.6c0-.2 0-.2-.2-.2l.5-.2c.1 0 .2 0 .3-.5a.8.8 0 0 0-.3-.2h.1v-.8l.2-.2v-.4c0-.2 0-.3-.1-.1h-.2l-1-.2-2-.1c-1 0 .3 0-.1.2-1 .2-1.3 0-2.2-.1l.3.1H297l.3-.2H296c-.4.1.1.1.5.1-1.3 0-2.3.3-3.6.1l.1-.1h.3c1.3-.2-1-.1-1-.2-.4.1-1.5 0-2 .2-2.3-.3-4 .1-5.8 0 .5-.2-.5-.1-.5-.3-.7 0-.5.2-1.2.2l-.6-.2c-1.6.2-1.1-.2-2.7-.1-1 .2-2.3-.2-3.8 0v-.1c-1.2 0-1.8-.2-2.7-.1-.3-.1.2 0 .2-.2-1 0 .2-.3-.4-.2-1.4-.1-2.7.5-4 .5-1.3.2-2.5-.3-2.7 0h.7-2c-.7 0-2.6-.2-3.5 0h-2.2.1c-1.5.3-4.9.2-7.2.2h-2.5c.3 0 .4-.1.4-.2-1.3.2-2.8-.2-4.3 0h.1c-.5 0-2.2.2-2.5-.1l-2.4.1h-1.3v.2c-.2.2-.1 1.3-.1 2-.1.6.1 1 .4 1.4l.6.6.7.1h3l2.6-.3c1 .2 2 .2 3.6 0zm24.2-24.6-.4.6-.2.4v.3l-.1.1v.1a.2.2 0 0 1-.1.3l-.1.3c0 .2-.3.1-.2.4 0 0-.1.1 0 .2v.2h-.1.1c0 .2-.2.1-.4.2-.2.3 0 .8-.4 1h-.1c-.1-.1.1.1 0 0v.1h-.1c-.1.2 0 .4-.2.5-.2 0-.2.5-.2.7 0 .3-.6.4-.5.7l-.1.3s-.7 1.1.7.7c.2 0 .2-.1.1-.3h.2c-.1-.2.2-.2 0-.3h.1l.1-.1c0-.1.2-.3.1-.5l.1-.3h.1c-.2-.1.1 0 0-.2l-.1-.3c0-.1 0 0 0 0h.2s.1 0 0-.1h.2c-.1-.1.1 0 0-.2h.2c.1-.1 0-.2 0-.2h.2s0-.2.2-.3l-.1-.2h.1v.1c.2 0 0-.2.1-.2l.1-.1s.1 0 0-.1v-.1l.2-.2c0-.2.2 0 .1-.1-.2-.2 0 0 0-.2 0 0-.2 0-.1-.1h.1l.1-.2s.1 0 0-.1h.2v-.2c.2 0 0-.2.2-.3h-.1c0-.2.3-.2 0-.4h.1l.1-.2s-.1-.1 0-.2c0 .1 0 0 0 0s0-.1.1 0v-.5l.1.1c.1 0 0 0 0 0 .2 0 0-.2.2-.3h-.1.1v-.3h.2l-.1-.1h.1l-.1-.2v-.3c-.2-1-.7-.6-.7-.6-.3.2-.1.4-.2.7zm5 2.1-.4.6-.1.4v.3h-.1v.2l-.1.2-.1.3c0 .2-.3.1-.2.4v.5h-.3c-.2.4-.1.9-.5 1-.2 0 0 .2 0 .2-.1 0 0 0 0 0h-.2v.5c-.3 0-.3.5-.3.7 0 .3-.6.4-.5.7l-.1.3s-.6 1 .7.7c.2-.1.2-.2.2-.3l.1-.1c0-.2.2-.1.1-.3h.1c0-.2.2-.3.1-.5l.1-.3h.1c-.2-.1.1 0 0-.2l-.1-.3c0-.1 0 0 0 0h.2s.1 0 0 0h.1c0-.2.2-.1.1-.3h.2v-.2h.1c.2 0 0-.2.2-.2v-.2s0-.1 0 0h.1c.2 0 0-.1 0-.2h.2-.1c0-.1.2 0 0-.2l.3-.2h-.1c0-.2.2 0 .2-.1l-.1-.1c-.1-.2.2 0 0-.2 0 0-.1 0 0 0h.1v-.2s.2 0 .1-.2l.2.1s-.1-.2 0-.2l.1-.3c-.1-.2.2-.2 0-.4a.4.4 0 0 1 .1-.2s-.1-.1 0-.2c0 0 0-.2.1-.1v-.4l.1.1c.2 0 0-.2.2-.2l-.1-.2s.1.1.1 0c.1 0 0 0 0-.2h.1v-.3s-.1 0 0-.1h-.1l.1-.2c-.3-1-.7-.6-.7-.6-.3.2-.2.4-.3.8zm-38.9 7.3 1.2.6.8.2c.2 0 .4.2.5.1v.1h.2l.2.1h.1a.7.7 0 0 1 .3.2c.3.1.4 0 .6.3.3 0 .3.3.7.3v.1h.3v.2c0-.1.1 0 .2 0h.2v.1h.1c.1 0 0 .3.2.4.4.5 1.2.8 1.4 1.5-.2.2.2 0 .1.2h.2v.2l.5.6c0 .4.5.8.7 1.1.4.4.2 1.2.5 1.6l.2.5.3 1c.1.2.5.4.8-.6 0-.3 0-.5-.2-.7.2 0 0-.2 0-.3l-.1-.5v-.2c-.1-.3-.2-.7-.5-.8l-.1-.2-.2-.4v-.2c-.2 0 0-.2-.2-.3 0-.1-.5 0-.5-.2-.1 0 .1 0 0-.1h.1l-.1-.4c-.2-.1 0-.4-.2-.4-.2-.1 0-.2-.2-.3v-.1h-.1v-.2c0-.2-.4-.2-.4-.6h-.3c0-.1-.2-.3 0-.3h.1c0-.2-.2-.1-.3-.3v.1h-.1l-.1-.3v.1s0-.2-.2-.2c0 0 0 .1-.1 0a3 3 0 0 0-.3-.4h-.1c-.2 0 0-.2-.2-.3v.1c-.3 0 0-.2-.3-.1 0 0-.1.1-.1 0v-.1h-.2c0-.2-.2-.2-.2-.3 0 0-.2-.2-.3-.1v-.2h-.3c-.1-.3-.4-.2-.6-.4h-.1c-.3 0-.3-.3-.6 0l-.1-.2-.4-.2h-.3c.1 0 0 0 0 0v-.1c-.1 0-.1 0 0 0-.1 0-.1 0 0 0l-.3-.1-.7-.1.1-.1h-.1c0-.1 0 0 .1 0 0-.3-.4 0-.5-.2h-.2v-.1c-.1-.1-.3 0-.4 0h-.1v-.1h-.2.1-.7v.1l-.4-.1c-.7.2-.8.4-.8.6l.3.2c.5.3.8.1 1.4.2zm-63.2 15.2-.3-.1h2.7c.4-.2-.7-.2.2-.4h2.7c0 .1-1 0-.8.2.2 0 1.5 0 1.3-.2v.1h1.1-.1c1-.1 2.2-.3 2.9-.2.9 0 .6.2.9.3l.6-.2h.5c1.8.2 3.4-.3 5 0H193h1.3c-.5 0-1 .1-.8.2l5.6-.3c0 .2 1.4 0 2.2.1h-.2c-.3 0-.4 0 .3-.1h.5c.5 0 1 0 .6.1 1.1 0 1.2-.2 1.9-.2h3.5-.2l1.6.1c.7-.6 2.4 0 4.5-.2-.3-.2.8 0 .7-.2 2 .1 3.5-.2 5.7 0 .5 0 2 0 2.5-.2-.3.2.8.2.4.3.4-.2 2.4 0 2.4 0h2.7l1.2-.2-.5.2c.7 0 .8.1.5.1h.9l-.2.1.5-.1-.1-.1.4-.3c.1 0 .3 0 .3-.4a.8.8 0 0 0-.2-.2v-.5l.1-.3.1-.3v-.3l.1-.1c0-.1 0-.2-.2 0h-.1l-.1-.1h-.9l-2-.2c-1 0 .3 0-.2.2-1 .1-1.2 0-2.1-.1l.2.1h-1.7l.2-.2h-1.2l.6.1c-1.3 0-2.4.3-3.7.1l.2-.1h.3c1.3-.2-1-.1-1-.2-.4.1-1.5 0-2 .2-2.3-.3-4 .1-5.8 0 .5-.2-.6-.2-.5-.3-.8 0-.6.2-1.3.1l-.6-.1c-1.6.2-1.1-.3-2.6-.2-1 .2-2.4-.2-3.9 0-1.2 0-1.7-.2-2.7-.1-.2-.2.3 0 .2-.3-1 .1.3-.2-.4 0-1.3-.2-2.6.4-3.9.4-1.4.2-2.5-.3-2.8 0h.7-1.9c-.8 0-2.6-.2-3.6 0h-2.2.1c-1.5.3-4.8.2-7.2.2 0-.2-1.4 0-2.4 0 .3 0 .3-.2.4-.2-1.4.2-2.9-.2-4.3 0-.5-.1-2.2.1-2.4-.1l-2.4.1h-1.3v.2h-.1v2c-.2.6 0 1 .3 1.4l.7.6.6.1h3.1l2.5-.3c1.1.1 2 .2 3.6 0z"/><path d="m201.8 422.1-.4.6-.2.4v.3h-.1v.2a.2.2 0 0 1-.2.3h.1l-.1.3c0 .2-.3.1-.2.4 0 0-.1.1 0 .2h-.1v.1l.2.1h-.2c0 .2-.1.1-.3.2-.2.3 0 .8-.4 1h-.1c-.2-.1.1.1 0 0v.1h-.1c-.2.2 0 .4-.2.5-.2 0-.2.5-.2.7 0 .3-.6.4-.5.7l-.2.3s-.6 1.1.8.7c.2 0 .2-.1.1-.3h.2c-.1-.2.2-.2 0-.3h.1l.1-.1c0-.1.2-.3.1-.5v-.3h.2c-.2-.1.1 0 0-.2l-.1-.3c0-.1 0 0 0 0h.2s.1 0 0-.1h.2c-.1-.1.1 0 0-.2h.2c.1-.1 0-.2 0-.2h.1c.2 0 0-.2.2-.3v-.2h.1v.1c.2 0 0-.2.1-.2v-.1s.2 0 .1-.1v-.1l.2-.2c-.1 0 0 0 0 0 0-.2.1 0 .1-.1-.2-.2 0 0 0-.2l-.2-.1h.2l.1-.2s.1 0 0-.1h.2v-.2c.2 0 0-.2.2-.3h-.1c0-.2.3-.2 0-.4h.1l.1-.2s-.1-.1 0-.2c0 .1 0 0 0 0s0-.1.1 0v-.5l.1.1c.1 0 0 0 0 0 .2 0 0-.2.2-.3h-.1.1v-.3h.2l-.1-.1h.1l-.1-.2v-.3c-.2-1-.7-.6-.7-.6-.3.2-.1.4-.2.7zm5 2.1-.4.6-.1.4v.3h-.1c0 .1-.1.2 0 .2h-.1v.2c-.1.1 0 .2-.2.3.2.2-.2.1-.1.4 0 0-.1.1 0 .2v.2h-.4c-.2.4 0 .9-.4 1-.2 0 0 .2 0 .2h-.1c-.2.2-.1.4-.2.5-.2 0-.2.5-.3.7 0 .3-.5.4-.4.7l-.1.3s-.6 1 .7.7c.2-.1.2-.2.2-.3.1 0 0-.1 0-.1 0-.2.3-.1.2-.3h.1c0-.2.2-.3.1-.5v-.3h.2c-.2-.1.1 0 0-.2l-.1-.3c0-.1 0 0 0 0h.2s.1 0 0 0h.1c0-.2.2-.1.1-.3h.2v-.2h.1c.2 0 0-.2.2-.2-.1-.1 0-.1 0-.2 0 0 0-.1 0 0h.1c.2 0 0-.1 0-.2h.1c0-.1.2 0 0-.2l.2-.2c0-.2.2 0 .2-.1l-.1-.1c-.1-.2.1 0 0-.2h-.1.2v-.2s.2 0 0-.2l.3.1c-.1 0-.1-.2 0-.2l.1-.3h-.1c0-.2.3-.2 0-.4h.1a.4.4 0 0 1 .1-.2s-.1-.1 0-.2c0 0 0-.2.1-.1v-.4l.1.1c.2 0 0-.2.1-.2v-.2s0 .1.1 0v-.2h.1v-.2s-.1 0 0-.1h-.1l.1-.2c-.3-1-.8-.6-.8-.6-.3.2-.1.4-.2.8zm-38.9 7.3 1.2.6.8.2c.2 0 .3.2.5.1v.1h.2l.2.1a.7.7 0 0 1 .4.2c.2.1.4 0 .5.3.4 0 .4.3.7.3v.1c.1 0 .3.1.4 0v.2c0-.1.1 0 .2 0h.1l.1.1c.2 0 .2.3.2.4.5.5 1.2.8 1.5 1.5-.2.2.2 0 .1.2h.1v.2l.6.6c0 .4.4.8.7 1.1.4.4.1 1.2.5 1.6l.2.5.3 1c.1.2.4.4.8-.6 0-.3 0-.5-.2-.7.2 0 0-.2 0-.3l-.1-.5s-.1-.2 0-.2c-.1-.3-.3-.7-.5-.8l-.1-.2c-.2-.1-.2-.3-.3-.4h.1l-.1-.2c-.2 0 0-.2-.2-.3 0-.1-.5 0-.5-.2 0 0 .2 0 0-.1h.2l-.1-.4c-.2-.1 0-.4-.3-.4-.1-.1.1-.2-.1-.3v-.1h-.1v-.2c0-.2-.4-.2-.4-.6h-.3c0-.1-.2-.3 0-.3 0-.2-.2-.1-.3-.3v.1l-.1-.3v.1c-.1 0 0-.2-.2-.2-.1 0 0 .1-.1 0a3 3 0 0 0-.3-.4h-.2c-.2 0 .1-.2-.1-.3l-.1.1c-.2 0 0-.2-.3-.1.1 0 0 .1 0 0h-.1v-.1h-.1c0-.2-.3-.2-.3-.3 0 0-.1-.2-.2-.1v-.2h-.3c-.2-.3-.4-.2-.6-.4h-.2c-.2 0-.3-.3-.5 0l-.1-.2-.4-.2h-.3v-.1h-.1s-.3 0-.2-.1l-.7-.1.1-.1h-.1c0-.1 0 0 .1 0-.1-.3-.4 0-.6-.2h-.1v-.1c-.1-.1-.3 0-.4 0h-.1v-.1h-.8v.1l-.4-.1c-.8.2-.8.4-.8.6l.3.2c.5.3.8.1 1.4.2zm91.4-204.7v-20.6h7v.6c0 .5-.2 11.3-.4 13.8-.3 2.8-5 5.4-5.5 5.7l-1 .5zm1.4-19.4v17c1.7-1 3.7-2.7 3.8-4 .2-2 .3-10.4.3-12.8l-4-.2z"/></g><path xmlns="http://www.w3.org/2000/svg" fill="#fff" d="M348.5 166v-.8c.8-.5 1.3-1.1 1-2.2-.4-.7-.8-1-1.4-1.1v-.7c.5-.5.8-1.1.5-2a1.1 1.1 0 0 0-.4-.5c-.4-.9-3-.7-5 .1s-2 .8-3 1c-1 .1 1.8-1.4 3.2-2.4s1.6-3-1.3-2l-6.2 2.1-3.8 2.4-1.2 1s-.9.7-4 .8h-24.7l3.2 21.5 28-8s5.3-.2 11.7-3a8 8 0 0 0 1.5-.4c1.7-.5 2.2-1 2-2l-.4-.4c0-.3-.3-.5-.4-.7 1.1-.6 1.5-1.2 1.1-2.2 0-.2-.2-.3-.4-.4zM194 208.8s.7 11.6 21.2 11.6c25 0 49.1-12.1 49.1-12.1l-70.3.5zM218.1 86s1.5-.8 2.4 1.5 1.1 3.9 1.7 4.8c.7.9 1.3 1.9 2.1.1.8-1.7 4.4-10.9 5.2-13.2s1.6-1.6 2.1-1.1-.3 5.9-.4 7.2-.3 2.7.1 2 1.4-1.9 2.4-.9c1.3 1.4.6 2.6.6 2.6s1.3-.3 1.6 1.3v2.1s1.1.1.8 2.9-1.7 4.8-3 6.4a23.7 23.7 0 0 1-1.9 2.3l-10 30.7-4.5 12.7-22-12 16.1-24.6c5.6-8 7.3-9.9 7.5-11.3s-1-3.2-1-5.3c.2-2 .7-5.2.2-8.2z"/><path xmlns="http://www.w3.org/2000/svg" d="M193.6 192.8v.2l.4-2.3-1.8.3-1.2 9.5c-.8 7.5-.8 10.5 2.6-7.7z"/><path xmlns="http://www.w3.org/2000/svg" d="M349.8 164.5c.2-.5.2-1.1 0-1.7-.3-.9-.8-1.3-1.4-1.4l.5-.7c.2-.5.2-1 0-1.6-.3-1-1.2-1.2-2-1.2H345c-.5.1-1 .1-1.7.4l.3-.2-.7.3.3-.1 1-.7.7-1.2c.2-.6 0-1.4-.5-1.7l-.9-.2h-.7l-1.1.4-2.1.8-2.1.7c-.7.3-1.4.4-2.2.8l-3.6 2.3h-.3l-.9.8a.5.5 0 0 1-.3.2 6 6 0 0 1-.5.3h-.3l-.9.2h-3.8l-3.4.1c-3-.2-8.4 0-11.6 0a65.7 65.7 0 0 1-3.5 0h-3.5l-.5-4.4c.1 0 .1-.1 0-.2v-.2h-.6c-.2-.7-.3-.5-.4.1H292h.2c-4 0-6.6.1-9.3.3-.2-.2-1-.2-1.9-.3-.8 0-1.7-.3-2-.5-1-.3-2.1-.9-2.9-1.8l-1.1-1.3-1-1.4.4.5c-1-1.3-2.1-3.4-2-3.6-1.9-3.6-4-9-5.4-11.3l.1.2c-.8-1.3-.8-1.8-1.6-3.3v-.2l-3-5.5v-.1l-1.7-2.9.6 1.1c-.4-.2-1.1-2.2-2.7-4-.7-1-1.4-1.8-2.3-2.6-.8-.8-1.7-1.6-2.4-2.5-.8-.8.8.6-.3-.6 0-.2.5.5.4 0-1.2-1-1.7-2-3.3-3.3v-.2l-.1-.2.1.5-1-1.4a38 38 0 0 0-12.2-10.4 32 32 0 0 0-2.5-1c.6-.9 1-1.6 1-2l.5-1.3 1.8-1a2 2 0 0 0 .4-.2c.1 0 .3 0 .4-.2.3-.2.5-.5.7-.9s.3-1 .2-1.6c-.2-.8-.5-1.1-.7-1.6a8.8 8.8 0 0 0-.8-1.2c.1-.2-.5-1-.6-1.3-.4-.6-.6-1.5-1-2.2v.2c-.2-.5-.6-1.2-.5-1.3-.7-1.2-1.5-3-2-3.6-.4-.4-.3-.5-.6-1-.4-.5-.8-1.5-1-1.9l-.5-1 .1.4c-.2 0-.2-.8-.7-1.4-.3-.7-1-1.2-1.3-2-.3-.2.3.3 0-.2 0 0 .1.2.1 0L230 74h.1c-.5-.8-.6-1.5-1-2l-.6-.7c-.2-.2-.3-.3-.9-.5l-.4-.2h-.8s-.7.1-.4 0l-.9.3-.7.4-1.6.8c-.2.3-.8.5-1 .7 0 0-1.1.6-.5.1h.1v-.1c-.6.2-1 .7-1.8 1l.3-.1-.6.3.2-.1-1 .4h.2c-.5.2-.7.2-1.1.5-.2.2.4-.1 0 .2l-1.2.5a2.8 2.8 0 0 0-1.2 1.2c.2 0 0 .2 0 .5h-.1l-.2.7c0 .1-.1.3 0 .8l.2.2c.5.9 0 .6.6 1.3-.1-.3.1-.2.3.2h-.2c.2.1.3.2.3.4v.3l-.1-.2.4.5c.2.5.6 1.2.6 1.5l.7 1.2c-.1-.2.1.4 0 .2l.7 1.3v.1c.3 0 .6 0 1 .2a1 1 0 0 1 .1.1h.1l.2.3h.1a11.3 11.3 0 0 1 .3.5 4 4 0 0 1 .3.6 13 13 0 0 1 .3.8l-.5-1c-.3-.6-.6-1-1-1.1-.3-.2-.6-.2-.8-.1h-.1c0-.2-.2-.3-.2-.2v.4a1 1 0 0 0-.3.2h.3c0 1 0 3.2-.8 7.2v-.1.3l-.1.1v.2a5.7 5.7 0 0 0 .2 1.7l.6 1.8.3 1.5c0 .4-.1.8-.4 1.3l-1.6 2.4h-.8a23.1 23.1 0 0 0-5 .4l1.3-.3 3.2-.6c1.3-.2 1.2-.3.5-.5a16 16 0 0 0-5 .1l-.7.2c-4 .7-7 2.3-9.6 4.2a48 48 0 0 0-8.4 7.8l-3.5 4c-1 1-1.8 2.1-2.6 3.2a204 204 0 0 0-12 18.5L172 143c-.7 1.2-1.4 2.4-1.8 3.5l-.5.7a27 27 0 0 1-1 2.3c-.4 1-1 2.2-1.1 2.8v-.1l-.5 1.3v-.2l-1 3-.8 2.8.2-.2-.6 2.6-.1 1-.1 1v1l-.1 1v2.5l.8 5.7a18 18 0 0 0 1.8 5.8c-.3-.5 0 .3 0 .3.9 2 2.6 3.8 2.8 3.6 1 1.2.9 1 1 1.3l2 1.5-.4-.3 3 1.9-.5-.6c1.5 1 .2.5 1.8 1.3v-.2c2.3 1.2 3.6 2.1 6 3a20.6 20.6 0 0 0 10 .4l-2 14.5-.2 1.1v.1l-.1.5v.1h4l-.5.1-3.5.3h-.4v-.4a.4.4 0 0 1 0-.2v-.6c.2-.3.1-.6.1-.8v-.5c-.1-.3-.1-.4-.2-.3l-.1.5v.1l-.1.3-.1.3-.1.3v.3l-.2.2v.4l-.1 1 1.1.1 2.4.1.3 1.8.4 1 .1.4c1.2 2.5 2.8 4 4.5 5a23 23 0 0 0 6.8 2.8l3.3.7 2.6.4c.8.2 1.6.2 2.6.2h3.4c2.5 0 5.2-.3 7.7-.6 1.2-.3 3.2-.4 4.6-.8h.5l1.5-.2 1.9-.4.8-.1h-.2l3.6-.8-.1-.1c2.4-.4 3.2-1 5.3-1.3a18 18 0 0 1 3.4-1c1-.3 2.2-.5 3.5-1.2-.4.2.1 0 .1.1 1.2-.5 2.5-1 2.5-1.2.9-.3.7-.2.9-.1 0-.1.7-.5 1.4-.7l-.3.1 2-.8h-.5c1-.4.3.1 1.3-.3v-.2c1.2-.5 2.8-.8 5.3-1.8l1.8-.8h5.3a36.8 36.8 0 0 1 2.3-.2h4.6s.1 0 0 0v-.1l-.2-1.3-.4-2-.5-2.5-.1-1.2a29 29 0 0 1-.7-3.4l-.8-4v-.2l1.4-.1c1.2-.2 1.3-.4 3.3-.6-.6.2.2.1 1 0-.5.1-.7.2.3.1l.6-.1c1.3-.1 1-.2.5-.1h-.2c1.3 0 3.6-.5 3.8-.4 3.8-.5 6.4-1.2 9.5-2 .4.1-.3.3-1.2.6l2.2-.5-2 .5c2.7-.3 5.4-1.4 8.5-2.1l.6-.3h.1l1.1-.6c.5 0 0 .3 1.5-.2a6.6 6.6 0 0 0 .5-.2 15 15 0 0 0 .8-.3l.5-.2.2-.1h.2v-.1l-.1-1.1-.2-.9v-.7l-.3-1.2v.2a7.7 7.7 0 0 1-.1-.4l2.5-.6c4.4-1 6.6-2 11.8-3.5 4.5-1.2 5.8-1.4 10.5-2.8l2.6-.8h.7l3.6-.7c1-.3 3-.7 4.2-1.3h.5l1.3-.6 1.6-.7.7-.3h.2l.7-.2c1.4-.5 2.6-1 2-2.7 0-.2-.1-.4-.5-.6h-.1c.9-.6 1.5-1.3 1-2.6a1.5 1.5 0 0 0-.6-.7c.5-.2 1-.6 1.2-1zM216 105.3l1.7-2.3 1.6-2.5s.3-.4.3-1.4c0-.9-.4-1.9-.8-2.9-.1-.5-.3-1-.3-1.6v-.8l.1-1a27.6 27.6 0 0 0 0-6.4l.5.1.6.7.2.5.2.5.1.5.6 2c.2.7.4 1.5 1 2.2.1.2.2.5.8 1 .5.3 1.1.4 1.6 0l.6-.6.3-.6.4-.9c.9-2.3 1.5-4.9 2.8-8.3.6-1.6 1.2-2.8 1.5-3.9.6-1.7 1.1-1.4 1.5-1.1.3.8 0 2 0 2.6-.5 3.1-1 6.7-.9 6.8l1 .3a1 1 0 0 0 .3-.1l.4-.5.7-.8h.2c.1 0 .6 0 .7.2.2.2.4 1 .4 1.1a3.1 3.1 0 0 1 0 .6c.2.4 0 .3 0 .4l.7.6h.2a.5.5 0 0 1 .1.3l.2.7v1.6l.5.6v.1l.2.2.1.6v1.9l-.5 1.8-1 2a12.3 12.3 0 0 1-.6.8v-.2l-1.2 1.8a19.1 19.1 0 0 1-.7.9l-.4.4a7.3 7.3 0 0 1-.4.4l-.1.4.1-.1c-1.1 3-1.3 4-2.2 6.7-1 3.3-2 5.2-2.8 8.7 0-.5-.1.1-.1.1l-1 3.4c-.3 1.1-.3.9-.4 1l-.5 2v-.5l-.8 2.6.3-.4-.6 1.6c-.6 2-1.1 3-1.8 4.8l-4 11.6-.3 1c0 .2-.1 0-.2 0l-3-1.6-5.2-2.9-.2-.2c0-.2-1.9-.8-2.1-1l-.8-.4-.3-.2-1.2-.6-.7-.5-4-2.2-2-1-1-.5-.2-.1c-.1 0 0-.1 0-.2v-.1l.2-.2.5-.8 1-1.6 2.3-3.6 4.3-6.8a153 153 0 0 1 5.4-8c2-2.7 4-5.4 5.7-8l.4-.7zm41.7 104.8-.1-.1c-1.5.7-.7 0-2.1.7v-.2l-.2.4c-1.3.8-.9 0-2.3 1 .6-.3.4.1-.4.3l.2-.1-.8.3c.2-.1 0-.2-.5 0l.3-.2-1 .6c-1 .2-2.4.8-2.8.7 0 0-2 .6-2.3.9.3-.3-.7 0-.5-.2-.4.3-1.9.8-2.5.8-2.2.5-3.7 1.2-5.7 1.5.1.1-1 .3-.7.4-1 .3-2 .4-2.7.5-.8.1-1.4.2-1.8.6-1 .2-1.1 0-1.6.1h.2l-3.7.5c-.6.2-.7.5-1.9.6.4-.2 0-.1-.6 0 .3-.1.4-.2-.2-.2l-.3.1c-.8.1-.6.1-.3.1h.1c-.8 0-2.1.3-2.2 0l-3 .4-2.8.2.8-.2H215h1.1-2.4c-.9 0-1.7 0-2.7-.2h-1.3c-.2 0 .1-.2-.8-.3-.7-.2-2-.3-3-.4.5 0 .4.1.1.1-.4 0-.6-.3-1-.3v-.2c.2.2-1.1-.2-1.3-.2-.2-.2.7.1.8 0a12 12 0 0 1-1.3-.4l-1.2-.5c-1-.2 0 .2-.4.2l-1.2-.6c-.4-.2-.8-.4-1.2-.8l.2.3c-.7-.4-1.2-.7-1.6-1.2l-1.1-1.2a11.8 11.8 0 0 1-2.2-3 12.7 12.7 0 0 1-.8-1.5h2.6l3.9.1h12.5-.4 2.5c2.5 0 6 0 7.6-.2h-.1 2.3l.3-.1h3.7c9.3.1 12.8.3 23.6.2h5.6c0 .1 0 0 .2 0h.7c-.2 0-.2 0 0 0a1.8 1.8 0 0 0 .4 0h.2l-1.6.5c.2 0 0 0 0 .2zm86.3-50.5c.2 0 .3 0 .5-.2 1.1-.4 2-.6 2.6-.6s1 .2 1.3.6v1c-.2.5-.8.8-1.4 1l-1.5.5-.2.1-.5.2c-1 .2-2.1.2-2.8-.2-.3 0-.4-.3-.5-.6-.2-.9 1.2-1.4 2.5-1.8zm-1.4 13h.2l-3.3 1c-.6.2-.6.4-1.7.6h-.8l-.2.1-.3.1h.1l-2 .3h-1l-.3.1-.3.1-3.8 1.2.7-.3-1.2.4 1-.4c-1.4.3-2.9 1-4.6 1.3l-.3.2h-.1l-.7.3c-.2 0 0-.2-.8 0l-2.7 1c.4-.2.3-.1.1 0-.4 0-.7 0-1 .2l-1.3.4.7-.3-2.4.7c-1 .3.1 0-.3.3l-2.4.7h.3l-3.4 1c-2.4.8-3.9 1.3-4.6 1.7l-.1-1v-.1l-.4-2.3.3 1.4-.5-4.6c-.3-1.7-.1.3-.4-.5l-.6-4.5v.5c-.5-2.7-.6-4.3-.7-6.2l-.7-3.8h.6l3.3-.1h-.1 7.5-.7c.2-.2 1.4.1 2.7 0l3.9-.3c.6 0-.6.2.4.1 0 .1-.5 0-.2.2h2.6c1.5 0 2.8.2 3.8 0h1.3l1.3-.2h.7l.6-.3.5-.4h.1s.8-.6.5-.2l2.1-1.5 1.2-.8 1.3-.7 1.8-.7s2.2-.7 1-.2l-.3.1-.1.1c1.3-.2 2.2-.8 3.4-1.2-.4.1-.9.3-.6.1a17.3 17.3 0 0 1 1.1-.3h-.2 1.1v-.1c.1 0 .1.1 0 .2l-.2.5c-.1.3.5-.4 0 .1-.2.4-.8.7-1.5 1l-2 1.2c.1 0 0 0 0 .2l-.2.1-.2.2-.1.1a1 1 0 0 0 0 .2h-.1c-.2 0-.4.2-.4.4 0 0 0 2-1.3 3.8-1.3 1.6-4.4 2-4.4 2-.3 0-.4.3-.4.5s.2.4.4.4c.1 0 1.5-.2 3-.9 3 2.8 2.2 6.8 2.2 7-.1.2 0 .4.3.5.2 0 .4-.2.5-.4a8 8 0 0 0-2.3-7.5c.5-.3 1-.7 1.3-1.1a7.4 7.4 0 0 0 1.5-4c.3 0 1.3-.5 1.4-.5h.3c-.7.4-1.2 1-1 1.9 0 .5.4.9.9 1.2.3.2.7.3 1 .3-.9.6-1.6 1.4-1.4 2.4 0 .4.3.8.7 1l1.3.4c-.7.4-1.2.9-1 1.7 0 .5.4.9.8 1 .2.2.5.3.9.3-.6.4-1 .8-1 1.5a1.3 1.3 0 0 0 .8.9l-1 .3zm4-1.2c-1.3.4-2.3.5-2.8.2-.2 0-.3-.2-.3-.4 0-.4 1-.8 1.7-1l.6-.3c.8-.3 1.8-.4 2.2-.2l.1.1c.2.6.2 1-1.6 1.6zm0-2.8c-1.6.5-2.9.6-3.5.3-.2 0-.3-.3-.4-.5 0-.6 1.2-1 2.1-1.5a3.7 3.7 0 0 1 .4-.2c.6 0 1.2-.2 1.6-.4l.4-.1 1.1.1.2.2c.3.8.3 1.3-2 2.1zm2.5-4.4c-.3.6-1.3 1-2.3 1.3l-1.3.3c-1.3.3-2.7.4-3.4 0-.2 0-.3-.2-.3-.4-.2-1.2 2.8-2.2 3.7-2.5h.2c2-.7 3-.9 3.4.3v1z"/><g xmlns="http://www.w3.org/2000/svg" fill="#fff"><path d="M218 147c-4.6-3-7.2-4-12.9-7.1-4.9-3-6-3.9-11.2-6.7l-2.3-1.3-.9-.5-.7.7-.8.8-.3.4c-1 1-2 2.2-2.8 3.3-.7 1-2.3 2.8-3.1 4.2l-.5.4a8 8 0 0 1-1 1.4v-.1c-.3.7-.9 1.4-1 1.8l-.6.7v-.1l-2.1 3.5h.1l-1.6 2.7-2.7 6.3s-.7 1.8-.3 1.9c.4 0 2.3-2 2.4-2.1l.4-1.3c.7-1 1.5-2.7 2-3.7l1.6-2.8c-.1 0 .6-1 .2-.8 1.2-2 2.7-3.4 2.7-4.4.6-1 .9-1 1.2-1.4l-.1.2 2.5-3.3c.4-.6.3-.9 1.2-1.9-.2.4.1 0 .4-.4-.2.3-.2.4.3-.1 0-.1 0-.2.2-.3.5-.7.4-.6.1-.3h-.1c.6-.5 1.6-1.8 1.8-1.7l.6-.7.3-.3v-.1h.3l.1.2.4.1 2.7 1.4c.2.2-.3 0-.8-.2l1.3.7-1.2-.6c1.4 1.1 3.3 1.7 5 2.9l.5.1.8.3c.2.3-.1.3.8.8.6.5 2 1 3 1.6-.5-.3-.3-.3 0-.2l1 .7v.1c-.2-.2 1.2.5 1.4.6.2.2-.7-.3-.9-.3l2.7 1.5c1 .5 0-.2.5 0l2.7 1.4-.3-.3c1.7.8 2.6 1.4 3.6 2.1 12.6 5.9 3.3.1 3.3.1zm2.8 3c-.3.2-1 2.1-2.4 6.4v-.1l-1.6 6c-.4.3-.7 2.2-1 2.7-.4 1.6-1.4 3.1-1.8 4.6l.1-.4c-.4 1-1 2.5-1.2 2.5-1 2.6-3 5.9-3.7 7.5v-.1c-.3.9-.6 1-1.2 2v.1l-1.4 1.7c-.4.6-1 1-1.3 1.4h-.1l-.8.7-.8.6.6-.4c0 .2-.4.4-.8.7l-.8.5a6.9 6.9 0 0 0-1 .6l-.9.7-.9.7-1 .6c-.2.2-.6.3-1 .4-.6.4.5-.4-.4 0-.1 0 .4-.2.1-.2l-1.4.4c-.4 0-1 .2-1.5.4l-.1-.1H193l-.3 1.9 4-.8a18 18 0 0 0 6.5-3l1.5-1.2.8-.6.6-.7 1.3-1.3 1-1.3a77 77 0 0 0 4.6-7.2 38.4 38.4 0 0 0 3.7-8.5l1.7-4.7 1-3.4c.4-2 1-4.4 1.2-6.2.3-1.9.4-3.2 0-3zm34.5-25.1 2.1 5.9 1.4 3.8.8 2.3v.3c.1.2.3.5.3.8l.3.9.1.4.5 1.8c.3 1.2.6 1.6.8 2.8.6 1.3.4 2.3 1 3.7-.1-.2 0 0 0 0 0 .7.3 1.5.4 1.4v.5l.3.8v-.1l.2 1v-.2c.2.6 0 .2 0 .7h.2v2.2c.7 3.3 1.5 6.8 1.9 9.9v.1c-.2.1.3.9.2 1v.3c0 .1.1.4 0 .2l.2.6v.3l.8 3.8c.1 1.7.9 4.8 1.3 6.5.7 2.5.8 5.5 1.5 8l.1.3.5 2.4 1.2 4.6c.6 1.7 1 2.3.5-2.1a19 19 0 0 0-.7-3l-.2-1.3c-.3-.7-.3-1.6-.5-2.3v.2c0-.5-.3-1.3-.2-1.4-.3-1.3-.6-3.1-1-4l.1.1-.3-1.1-.4-2-.2-1.1v.4c-.1-.1 0-.8-.2-1.5-.1-.7-.7-1.4-.7-2.2-.2-.3.2.3 0-.2.1 0 .1.2.1 0 0-.4 0-.8-.2-1.4-.2-.8-.1-1.6-.4-2.1-.2-.9.1-.6-.2-1.5v-.4l-.1-.7v-.3c0-1-.4-1.9-.5-3.2-.2-.2-.2-.9-.3-1 0-.1-.2-1.3 0-.6v.1h.1c0-.7-.3-1.2-.4-2v.4-.7.2l-.1-1-.1.1c0-.5 0-.7-.2-1.2 0-.2 0 .5 0 0l-.4-2.5-.2-.3h.1c-.3-1 .1-.4-.2-1.3l.1.1-.2-.2c-.3-.7 0-.4-.3-1.3.1.4-.1.2-.2-.2h.1l-.1-.4v-.3l.2.2-.3-.6-.3-1.5-.3-1.3v-.3l-.3-1.4v.1c-.2-1.2-.7-2-.8-3.1-.1 0-.2-.5-.3-.4-.4-1-.4-2-.8-2.4-.2-.5 0-.6-.2-.9l.1.1-.6-1.9c-.2-.3-.3-.3-.5-1 .1.2 0 0 0-.2v-.3c-.2-.4-.2-.3-.2-.2v.1c0-.4-.4-1.1-.3-1.2l-1.2-2.9.3.4-.3-.7.3.6c-.2-1-.8-1.7-1-2.7l-.2-.1v-.1l-.2-.3c0-.2.2 0 0-.5l-.7-1.5c0 .2 0 .2 0 0l-.3-.5h.1l-.4-.7.3.4-.6-1.4c-.3-.4 0 .2-.3 0l-.6-1.4v.2l-.9-1.8c-1.8-2.8-2.2-3-2-2.5 0 .5.6 1.7.6 1.7 1 2.3 1.8 3.4 3 6.3z"/><circle cx="218.9" cy="78.3" r="1.1" transform="rotate(-27.5 219 78.3)"/><circle cx="220.3" cy="81.1" r="1.1" transform="rotate(-27.5 220.3 81)"/></g></g></svg>