<svg xmlns="http://www.w3.org/2000/svg" viewBox="0 0 720 640"><circle xmlns="http://www.w3.org/2000/svg" cx="360" cy="320" r="264.4" fill="#e8ecef"/><path xmlns="http://www.w3.org/2000/svg" fill="#fff" d="M254.8 217.9zm246.9-76.4h.4-.4zM523 173l17 10.2-.7-22.7 16.8-13.7-77.8-7 31 44.5 13.8-11.3zm-9.6 8.5.3-.2-.3.2zM202.7 478.9h-.9 1zm220 0h-.1.2zM235.6 480h.2-.2zm-199.7-1h-.3.3zm11.3 1.1zm582.6-221 .2.2-.2-.2zm-3.2-.6H492.8a4.6 4.6 0 0 0-4.6 4.6v85.7a4.6 4.6 0 0 0 4.6 4.6h133.8a4.6 4.6 0 0 0 4.6-4.6V263a4.6 4.6 0 0 0-4.6-4.6zm-419.4 36.7h.2-.2zm-23-.4H247a6.5 6.5 0 0 0 6.5-6.5v-92.6c0-3.6-3-6.4-6.5-6.4h-9.7v-11a9.3 9.3 0 0 0-9.2-9.2h-97.3a9.3 9.3 0 0 0-9.3 9.2v11h-25a6.4 6.4 0 0 0-6.5 6.4v92.6a6.5 6.5 0 0 0 6.4 6.5h62.8l-.8 21.5H54.7a11.6 11.6 0 0 0 11.6 11.5h14L64.7 479.6h5l20.8-151.9h247.8l20.9 151.9h5l-15.5-151.9h9.5a11.6 11.6 0 0 0 11.5-11.5H185.1l-.9-21.5zM89.6 229v-.8.8zm164.3-21.5v.2-.2zM71.6 404.8v-.2.2zM354 373v.8-.8zm-8.3 10.6v-.2.2zM265.3 328h1.2-1.6.4zm-10.7-12.4h.3-.3zM148.8 168.2h-.3.3zm-18-6.6h97.3a9.3 9.3 0 0 0 9.2-9.2v-30.2a9.3 9.3 0 0 0-9.3-9.2h-97.2a9.3 9.3 0 0 0-9.3 9.2v30.2a9.3 9.3 0 0 0 9.3 9.2zm-.7.7h-.2.2z"/><g xmlns="http://www.w3.org/2000/svg" fill="#8f99a8"><path d="M576.7 353.7zm55.2-89.3c0-1-.1 1.8-.1-.2V262a5 5 0 0 0-1.2-2.4 5.3 5.3 0 0 0-2.4-1.6l-1.5-.3h-1.2c.3.1-.6.1-1.5.1-3.5 0-1.4-.2-4.8-.1h-.6c-3 .2-1.7 0-5 .1 1.3 0 .5.2-1.1.2l.4-.1H610l.9-.2-2.6.1h-11.2c.9 0-1.5 0-.8-.2-1.1.1-4.4.2-5.7.1h.3-2.7c0-.2-.3-.4-.1-.6.2 0-.1 0 0 0v-.4c.1-.1 0-.3-.1-.4-.2-.1.3-.4 0-.5v-.2s0-.7-1 0c-.1 0-.1 0 0 .1-.2 0 0 0 0 .1 0 0-.2.1 0 .2h-.1l.1.3c.1 0 0 0 0 0 .2 0 0 .2.1.2.2 0-.1.1 0 .1 0 0 .4.1.3.2 0 0-.1 0 0 0h-.2s-.1 0 0 0h-.1c.1.1-.1.2 0 .2 0 0-.2 0 0 .1h-.2.1v.1c-.2 0 0 .1 0 .2v.1h-.1c-.2 0 0 0 0 .1h.1v.1h-8.7c.2.2-2.1.1-1.5.2-4.5.1-8.2-.2-9.8.1h-3.4.4-4.3l-1.4-.1h-5.8c-5.8-.2-11.7 0-19.2 0h-10.1 1l.5-.1c-4.3-.2-7.8 0-12.1 0h1.8-4 .9-6 .9-7.2c-1.4 0 2.8 0-.3.1h-6a5.3 5.3 0 0 0-5.2 4.8v1.9c.2-.5.2.8.2 2.2v.2c0 5.2-.2 1.9-.2 7v-.4l.2 1.4c.1 4.7-.2 2.5 0 7.7 0-2 .2-1 .1 1.6v-.7 2.8c0-.8-.1-.4-.1 1.6l-.1-1.3.1 3.9v17c0-1.4-.1 2.2-.2 1.2.1 1.7.2 6.6 0 8.6v-.4 19.1c.2-.3.1 3.2.2 2.4v11c.1.6.3 1.1.6 1.6.5 1 1.3 1.6 1.9 1.9 1.4.9 2.6.8 3.2.8h2.1-.7 21.6s.1 0 0 0a10.8 10.8 0 0 0 .6 0h7.3l18.4-.1h-2.5 4.3c0 .2-2.5.1-3.8.1 5.1.2 10.5-.1 16.5 0h2.3l1.5-.1c.8 0-.1.1 2.9.1h9.7c-1.7 0-1.2 0-.4-.1h3.4l.1.1 4.5-.1-2.7.1h8.9c3.1 0-.6-.1 1-.2h8.6-1c5.3-.2 8.4-.1 12 0l19.5-.6-.7.1c-.3 0-.3 0-.1.1.2 0 .7.1 1.5-.1.8-.3 2-.9 2.7-2.3.4-.7.6-1.6.6-2.6V345l.3-8.4v.3-26.1.2c-.1-4.7.1-9.7 0-14.3v1.4-25.8h.2v-3.6l-.1.5c0-2 .2-2.6 0-4.8zm-142.9.3v-1.8a3.6 3.6 0 0 1 .4-1.4 3.8 3.8 0 0 1 3-2.3h4.5l14.5-.2 24.4.2h16c2.4-.2 6.7 0 9.5-.2h9.9-.3 7.6-.2 11.4-.1 17l20-.1h.7a4 4 0 0 1 1.7.9 4 4 0 0 1 1.5 2.2l.1 1.5v7.6H605l-.5-.1c-.2-.2-3.4.2-3.8 0H580c-6.5-.1-18.8 0-26 .1-9.8.2-21.4-.3-31.6 0a9.1 9.1 0 0 0-.7 0h-9.8s-19.2 0-23 .2v-6.6zm141.7 85a4.4 4.4 0 0 1-2.5 3 5 5 0 0 1-.5.1c0-.2-11.6-.3-11.6-.3-15.3-.2-23.3 0-41.6.1l-37-.1h-24.2c-3.7.2-10.2 0-14.6.1h-6.4c-.9-.1-1.8-.6-2.4-1.3-.6-.7-.9-1.5-1-2v.2-2.6.4-11.5l-.1.3V319c-.2-8.6.2-13.6 0-22.6v-.4c0-4.1 0-8.5-.2-8.6 0-3 0-2.4.1-2.8v-5 1.1-6.7l-.2 1.3.1-3 .1-.6 12.3.5h-.3H518h-.1 9.4-1l5.4.1 15.9-.1h-.3 4.9l7.7-.1h4.3-1.6c.6-.1 3.1.2 6.1 0 2.8 0 5.7-.3 8.6-.3 1.4 0-1.2.2.9.1 0 .1-1 0-.4.1h5.8l.1.1h8.4c3.4 0 2.3.2 5.8 0l1.4.2h23.1-.6l-.4.1h8c-.8 0-2 0-1.2-.1h2.5-.4.4v7.8l-.1 24.1a21 21 0 0 0 0 1.1 20.1 20.1 0 0 0 0 .7v14l.1 27.8v1.8z"/><path d="M613.4 282.4a9 9 0 0 0-2.4 0h-3 .2l-1.1-.1-3.3.1h-3.4.3c-.1.2-.7 0-1.3 0-.5 0-1.1.4-1.7.4-.3 0 .2-.2-.2-.1 0-.1.2 0 0-.2h-1.1c-.7 0-1.3-.2-1.8 0-.7 0-.4-.2-1.2-.1l-.3-.1h-4.7.1v-.1c-.5-.2-1 0-1.6 0 .2 0 .4 0 .3.1h-.6.1l-.8-.1h.1-1c-.1 0 .4.1 0 .2l-2-.2c.1.1 0 0-.2.1-.8 0-.3-.2-1-.1h-.2c-.6.2-.3-.1-1 .1.3 0 .1.2-.2.1h.1-.4l-.2-.1.2-.1-.5.1h-2.3c.1 0-.3-.1-.2-.2-.2.1-1 .2-1.2 0-1 0-1.6.2-2.5 0 0 .2-.5.1-.4.2-.9.1-1.7-.2-2 .2l-.7-.1h.1-1.6c-.3 0-.3.2-.9.1h-.2c.1 0 .2 0 0-.1h-1.4l-2.4.2c-.1-.1 0-.1.3-.2h-.6.5-2.4l-.3.2c-.1-.1 0-.2-.4-.2h-1.3c.2 0 .1.1 0 .1h-.4v-.1l-.7.1h.4-1.2c-.4 0 0 0-.1.1h-1.2l.1.1H555c-5.3.7-1.1 1-1.1 1 2 .1 3.1-.1 5.6-.2l5 .1h3.4l2-.1h3.5c1 0 1.4-.2 2.3 0 1.2-.3 1.9.1 3-.1h.1l1.2-.1h1.1-.2 1l-.3-.2c.5 0 .2.2.6.2v-.1c.7 0 1.1.2 1.7.3h8.2c0 .2.7-.2.8 0l.3-.1h.6l.3.1h3.1c1.4.1 3.9 0 5.3-.1 2.1-.2 4.5.3 6.6 0 0 .1.2 0 .2 0h2s9.2.1 2.2-1zm0 10.9a9 9 0 0 0-2.4 0c0-.2-.9 0-1 0-.7 0-1.4-.2-2 0l.2-.1h-4.4c-.4.2-.5 0-.9.1h-2.5.3c-.1.2-.7-.1-1.3 0-.5 0-1.1.4-1.7.3-.3.1.2-.1-.2 0 0-.2.2-.1 0-.2h-1.1v-.1h-1.8c-.7 0-.4-.2-1.2 0l-.3-.2c-.3 0-.2.2-.5.1h-.3c-.7-.2-1.5 0-2.6-.1l-.9.1s-1 0-.4-.1h.1c-.5-.2-1 0-1.6 0h.3-.6.1-.8.1-1c-.1 0 .4 0 0 0h-2.2c-.8 0-.3-.2-1-.1h-.2c-.6.2-.3 0-1 .1.3 0 .1.2-.2.2l.1-.1h-.6l.2-.2-.5.2-1.3-.1h-1c.1 0-.3 0-.2-.1h-3.7c0 .1-.5 0-.4.2-.9 0-1.7-.3-2 0h-.7.1-1.6c-.3 0-.3.2-.9.1h-.2c.1 0 .2 0 0 0h-1.4l-2.4.1.3-.1h-.6.5c-.7-.2-1.4 0-2.2 0h-.2l-.3.1c-.1 0 0-.2-.4-.2l-1.3.1c.2 0 .1 0 0 0h-1.1.4-1.2c-.4 0 0 0-.1.2h-1.2.1c-.7.1-1.1.1-1.6 0-5.3.7-1.1 1-1.1 1 2 .2 3.1 0 5.6-.2l5 .2h3.4c.5-.2 1.4 0 2-.2l.2.1h3.3v-.1h2.3c1.2-.2 1.9.2 3 0h.1c.6 0 1.2 0 1.2-.2l.4.1h.7-.2 1l-.3-.2c.5 0 .2.2.6.1l1.7.2h8.2c0 .2.7-.1.8 0h9.6c2-.3 4.5.2 6.6 0h2.2s9.2 0 2.2-1zm-59 11.5c-4 .7-1 1-1 1 1.7.2 2.5-.1 4.4-.2l3.8.2h2.5c.3-.2 1 0 1.5-.2l.1.1h2.5v-.2h1.8c.9-.2 1.4.2 2.3 0-.1 0 0 0 0 0l1-.1.2.1.5-.1h.6l-.1-.1.4.1v-.1c.5 0 .8.2 1.3.3 2 0 4.2-.3 6.1 0h.1c0 .2.5-.2.6 0h3.2c1 .1 3 0 4-.1 1.6-.2 3.4.3 5 0 0 .1.2 0 .2 0h1.5s7 .1 1.7-1h-4.1.1-3.3l-.7.1h-1.9.2c0 .2-.5-.1-1 0-.4 0-.8.4-1.3.3-.2 0 .2-.2 0 0v-.2h-1v-.1h-1.2c-.6 0-.4-.2-1 0l-.1-.2h-2.6l-.7.1s-.8 0-.4-.1h.1c-.4-.2-.7 0-1.2 0h.2-.4.1-.6.1c-.3 0-.4-.2-.7 0-.2 0 .2 0 0 0h-1.8c-.5 0-.2-.2-.7-.1h-.1c-.5.2-.3 0-.8.1.2 0 0 .2-.2.2v-.1h-.4l.2-.2-.4.1h-1.8c.1 0-.2 0-.1-.2-.2.1-.7.2-1 .1h.1-2c0 .1-.3 0-.2.2-.7 0-1.3-.3-1.5 0h-.6.1-1.2c-.2 0-.2.2-.6.1h-.2s.1 0 0 0h-.2c-.2 0-.2 0 0 0-.1 0 0 0 0 0h-.8l-1.9.1.3-.1h-.5.4c-.5-.2-1 0-1.7 0H558c.2 0 .1 0 0 0h-.8.3-.9c-.3 0 0 0 0 .1h-1l.1.1h-1.2zm59 10.4a9 9 0 0 0-2.4 0h-3 .2l-1.1-.1-3.3.1h-.9l-1.7.1h-.8.3c-.1.1-.7-.2-1.3 0-.5 0-1.1.3-1.7.3-.3 0 .2-.2-.2-.1 0-.1.2 0 0-.1h-1.1v-.1h-1.8c-.7 0-.4-.2-1.2-.1l-.3-.1h-4.7.1v-.1c-.5-.1-1 0-1.6 0 .2 0 .4 0 .3.1h-.6.1-.8.1c-.4 0-.5-.2-1 0-.1 0 .4 0 0 0h-2.2c-.8 0-.3-.2-1-.1h-.2c-.6.2-.3 0-1 .1.3 0 .1.2-.2.1h.1-.4l-.2-.1.2-.1-.5.1h-2.3c.1 0-.3 0-.2-.2-.2.1-1 .2-1.2 0-1 0-1.6.2-2.5 0 0 .2-.5.1-.4.2-.9.1-1.7-.2-2 .2l-.7-.1h.1-1.6c-.3 0-.3.2-.9.1h-.2c.1 0 .2 0 0-.1h-1.4l-2.4.2.3-.2h-.6.5-2.4l-.3.2c-.1-.1 0-.2-.4-.2h-1.3c.2 0 .1.1 0 .2-.2 0-.3-.1-.4 0v-.2l-.7.1h.4-1.2c-.4 0 0 0-.1.1h-1.2l.1.1c-.7.1-1.1 0-1.6 0-5.3.7-1.1 1-1.1 1 2 .1 3.1-.1 5.6-.2l5 .1h8.9v-.2h2.3c1.2-.2 1.9.2 3 0h.1l1.2-.1.4.1.7-.1h-.2 1l-.3-.1.6.1v-.1c.7 0 1.1.2 1.7.3h8.2c0 .2.7-.2.8 0h4.3c1.4.1 3.9 0 5.3-.1 2.1-.2 4.5.3 6.6 0 0 .1.2 0 .2 0h2s9.2.1 2.2-1zM576 326l-1 .1c0-.2-.3 0-.4 0-.2 0-.4-.2-.7 0v-.1h-1.6c-.2.2-.2 0-.4.1h-.9c0 .2-.2-.1-.4 0-.2 0-.5.4-.7.3-.1.1 0-.1-.1 0v-.2c-.1 0-.2-.1-.4 0v-.1h-.7c-.3 0-.2-.2-.5 0v-.2c-.2 0-.2.2-.3.1h-.1c-.3-.2-.6 0-1-.1l-.4.1s-.4 0-.1-.1c-.2-.2-.4 0-.6 0h.1-.8s.1 0 0 0h-.9c-.3 0-.1-.2-.4-.1-.3.2-.2 0-.4.1l-.1.2v-.1h-.2v-.2l-.2.2-.4-.1h-.4s-.2 0-.1-.1h-1.5c0 .1-.1 0 0 .2-.4 0-.7-.3-.8 0h-.9c-.1 0-.1.2-.3.1h-.2c-.2 0-.1 0 0 0h-.4l-1 .1.1-.1h-.2.2c-.3-.2-.6 0-.9 0l-.2.1-.1-.2-.5.1h-.4.1-.5c-.1 0 0 0 0 .2h-1c-2 .7-.5 1-.5 1 .8.2 1.3 0 2.2-.2l2 .2h1.2c.2-.2.6 0 .8-.2l.1.1h.7a1.6 1.6 0 0 1 .6 0v-.1h.9c.4-.2.7.2 1.2 0 .2 0 .4 0 .4-.2l.2.1h.5v-.2c.2 0 0 .2.2.1l.7.2c1 0 2.1-.2 3 0h.1c0 .2.3-.1.3 0h.1s.1 0 0 0h3.6c.8-.3 1.7.2 2.5 0h.9s3.7 0 1-1zm-79.8-63.8a2.9 2.9 0 0 0 0 5.8 2.9 2.9 0 0 0 0-5.8zm0 4.8a1.9 1.9 0 0 1 0-3.8 1.9 1.9 0 1 1 0 3.8zm7.2-4.8a2.9 2.9 0 1 0 2.9 3 3 3 0 0 0-2.9-3zm0 4.8a1.9 1.9 0 0 1 0-3.8 1.9 1.9 0 1 1 0 3.8zm9.9-1.9a2.9 2.9 0 0 0-5.8 0 2.9 2.9 0 1 0 5.8 0zm-2.9 1.9a1.9 1.9 0 0 1 0-3.8 1.9 1.9 0 0 1 0 3.8zm31.8 22.9zm-.2-2.7c0 .7-.1.3 0-.4v.1-1.3l.2.4-.2-1.2v-2.5l.1-.4v-1h-2.4c.4 0-.7-.1-.4-.2-.5.1-2 .2-2.6 0-2.2 0-3.7.2-5.7 0 0 .2-1 .1-.7.2-2.1.1-3.8-.2-4.6.2-.9 0-1-.1-1.6-.2h.3-3.6c-.7 0-.8.3-2 .2h-.5c.3 0 .4 0-.2-.1h-.6.1-2.2l-5.6.2c-.2-.1.2-.1.8-.2h-1.3 1.1-5.4l-.7.2-.2-.1h-.2l-.8-.1h-.6l.1 3c0-.4 0-.3.1 0v1h-.1l.1 1.4-.1-.8v2.7c0 1 .1-.2.2.2v2.7-.3 3.6c.7 11.9 1 2.5 1 2.5.2-4.7 0-7-.1-12.6v-2.2h24-.1 3.5l-.1-.2h9.9v1.2l.1 2.6v2.3-.3 2l.2-.4c0 1.1-.2.3-.2 1.3h.1c0 1.5-.2 2.4-.3 3.9 0 6 .3 12.5 0 18v.3c-.1.1.2 1.6 0 1.8l.1.6v3.9H537c-3 0-8.6 0-11.9.2-4.6.2-9.9-.4-14.6-.1a2 2 0 0 0-.6 0h-6.5v-3.6l-.2-3.4c-.2-1.4-.4-.7-.8 5.3v2.8h2l1.6-.1h2.5c1.4 0 2.9.2 4.3 0l-.4.1h9.7c.8-.2 1 0 2-.1h5.7-.7c.2-.2 1.4.1 2.8 0 1.3 0 2.6-.4 4-.3.6 0-.6.1.4 0 0 .2-.5.1-.2.2h2.7v.1h3v-1.8c-.1-1.5.2-1 0-2.6l.1-.7v-10.6.3l.1.1c.2-1.3 0-2.4 0-3.7v.6-1.2.2-1.8.3-2.2c0-.4-.1.8-.1 0l.1-4.5v-3.2c-.2-1.4.1-.7 0-2.3zm-278.4-74.1zm-1.3-.3c0 .8.3.8.3.8.3.1.2-.1.4-.3h.4l.2-.2v-.2h.2l.1-.2s0-.2.1-.1c0-.2.2 0 .2-.2 0 0 .1 0 0-.1h.1v-.2l.1.1c0-.1.1 0 .2 0 .2 0 .2-.3.5-.3.1.2 0-.1.1 0h.1c.1 0 0-.2.2-.2s.3-.1.3-.3c0-.2.5.1.5-.2h.1s.7-.4-.4-1c0 0-.1 0 0 .1-.2-.1-.2 0-.2 0 0 .1-.2 0-.1 0 0 0 0 .1-.2 0l-.1.3-.1.2v-.1h-.1c.1.2 0 0 0 .1v.3c0 .1 0-.1 0 0l-.2-.2c0 .1 0 0 0 0l-.2.1s-.1-.2-.1 0c-.1 0 0 0 0 0h-.2c0-.1 0 0-.2 0 .1 0 0 0 0 .2v-.2c-.2-.1 0 0-.1 0v.1h-.1v.1h-.2c0 .2-.1-.1-.1 0v.2s0 .1 0 0c-.1 0-.1.1-.2 0v.1l-.1-.1s0 .1 0 0c-.2 0-.1.3-.2.2v.1c0 .2-.2 0 0 .2h-.2v.2h-.2v.2h-.1v-.1c-.2-.1 0 .1-.2 0v.1a.2.2 0 0 1 0 .1v-.1l-.1.1v.1h-.2l.1.1s0 .1 0 0v.2h-.1zm9.7-5.2zm-1.3-.1c0 .8.5.8.5.8.2 0 .1-.2.2-.3l.5-.1.1-.2.1-.2h.1l.2-.2v-.1c0-.2.3 0 .2-.2.1 0 .1 0 0-.2l.1.1v-.2s0 .1.1 0l.2.1c.2 0 .2-.4.5-.4.1.2 0-.1 0 0h.1c.2 0 .1-.2.2-.2.2 0 .3-.2.3-.3 0-.3.5 0 .5-.2l.1-.1s.7-.4-.4-1c-.1 0-.2 0-.2.2 0-.1 0 0 0 0 0 .1-.2 0-.2 0s0 .1-.1 0c0 0-.2.1-.1.3l-.2.2c0 .1-.1-.1-.1 0v.3c0 .1 0 0 0 0v-.1h-.4c0 .1-.2-.1-.1 0h-.1c-.2 0 0 .2-.3 0 .1.2 0 .2 0 .2v-.1c-.2-.1 0 .1-.1.1h-.1v.2a.6.6 0 0 0-.2 0c0 .1-.1-.1-.1 0v.2s.1 0 0 0l-.1-.1v.1s-.2 0-.1.1l-.1-.1s0 .1 0 0c-.2 0-.1.2-.2.2v.1c0 .2-.2 0 0 .2h-.2v.2s0 .1-.1 0l-.1.3v-.1c-.1 0 0 0 0 0-.2-.2-.1.1-.2 0a.2.2 0 0 1 0 .2v-.1h-.1v.2-.1h-.1v.4zm1.4-1.7zm8-4zm-1.3-.2c0 .8.5.8.5.8.2.1.2-.2.3-.3l.4-.1.2-.2v-.2h.1l.2-.1v-.2c0-.2.3.1.2-.1.1 0 .1 0 0-.2h.1v-.2.1h.3c.2 0 .2-.4.5-.3.1.2 0-.1 0 0v-.1h.1c.2 0 .1-.1.2-.2.2.1.3-.1.3-.3 0-.2.5 0 .5-.2h.1s.6-.5-.4-1c-.1 0-.2 0-.1.1-.1-.1-.1 0-.1 0l-.2.1c-.1 0-.3 0-.2.2l-.1.2h-.1c.1.2 0 0 0 0-.1 0 0 .4 0 .4s0-.2 0 0l-.1-.2h-.1c0 .1-.2 0-.2 0 0 .2-.1 0-.1 0-.1 0 0 0 0 0h-.2s0 .2-.1.1v.2l-.1-.1c-.2-.2 0 0-.1 0v.1s-.2-.1-.1 0a.6.6 0 0 0-.2 0v.1c0 .1 0-.1 0 0 0 .2-.1 0 0 .2 0 0 0 .1 0 0h-.1c-.1 0 0 .1-.2 0v.1-.1s0 .2-.1.1c-.1 0 0 .2-.2.1v.2s-.2-.1 0 .2v-.1h-.2c0 .1.1.3 0 .2 0 0 0 .1-.1 0v.3l-.1-.1c-.1 0 0 0 0 0-.2-.1 0 .1-.2 0v.1l-.1.1v.1h-.1v.2c0 .1 0 .1 0 0zm9.6-5.4zm.2-1.8zM287 196c0 .8.5.8.5.8.2 0 .2-.2.3-.3l.4-.1.2-.2c0-.1.1 0 0-.2h.4v-.2h.1c0-.3.2 0 .2-.2 0 0 .1 0 0-.2l.1.1v-.2s0 .1 0 0l.3.1c.2 0 .2-.4.5-.3.1.1 0-.2 0 0v-.1h.1c.2 0 .1-.1.2-.2.2.1.3-.1.3-.2 0-.3.5 0 .5-.2l.2-.1s.6-.4-.4-1c0 0-.2 0-.1.1-.1-.1 0 0-.1 0l-.2.1c-.1 0-.3 0-.2.2 0 .2-.2.1-.2.2s-.1-.1-.1 0c0 0 .1.4 0 .4v-.2h-.2s-.2-.1-.1 0c0 .1-.2-.1-.2 0-.2 0-.1.2-.3 0v.2-.1c-.2-.1-.1 0-.2 0v.1h-.1v.1h-.2c.1 0 0 0 0 0 0 .2 0-.1 0 0v.1c0 .1-.1-.1 0 0v.2s0-.1-.1 0v-.2.2h-.1s-.1 0 0 0l-.2-.1v.1c-.1 0 0 .2-.2.1v.2s-.2-.2 0 .1h-.2v.2s0 .1-.1 0l-.1.3v-.2c-.1 0 0 0 0 0-.2 0-.1.2-.2.1a.2.2 0 0 1 0 .2v-.2c-.2 0-.1.1-.1.2h-.1v.3h-.1zm10-4.9zm-1.4-.3c0 .8.4.9.4.9.2 0 .2-.2.3-.4.2 0 .3.1.4 0l.2-.2.1-.2h.4v-.1s0-.2.1-.1c0-.2.2 0 .2-.1 0 0 .1 0 0-.2h.1v-.2.1l.3.1c.2 0 .2-.4.5-.3.1.1 0-.2 0 0v-.1h.1l.3-.1.3-.3c0-.2.5.1.5-.1l.1-.1s.7-.3-.3-1h-.1c-.1 0-.1.1-.1 0 0 .2-.2 0-.2.1-.1 0-.3 0-.2.2v.1h-.1v.1h-.1c0 .2-.1 0-.1 0v.4-.1l-.1-.1h-.1s-.2-.1-.2 0-.1-.1 0 0h-.2c-.1-.1 0 .1-.2 0v.2l-.1-.1v-.1c-.1-.1 0 .1-.1.1h-.1v.1h-.2c0 .1-.1-.1-.1 0v.4-.2.1h-.5c-.2 0-.1.2-.3.1l.1.2s-.2-.2 0 .1h-.2v.2h-.2l-.1.2a.3.3 0 0 1 0-.1h-.1c0-.1 0 .1-.1 0v.2l-.1-.1v.1h-.1v.1h-.1v.2zm10.2-4.2zm-.9.4c.2.2.2 0 .3-.2h.4l.2-.2.1-.2h.4v-.1s0-.2.2 0c0-.3.2 0 .2-.2v-.2.1-.1h.1v-.2.1l.2.1c.2 0 .3-.4.6-.3v.1c.1.1 0-.2 0 0v-.1h.1l.3-.1c.1 0 .3-.1.3-.3 0-.2.5.2.5-.1h.2s.6-.4-.3-1c0-.1-.1-.1-.1 0-.1-.1-.1 0-.1 0 0 .1-.2 0-.2 0s0 .1 0 0c-.2 0-.3 0-.3.3l-.1.1h-.1c.1.2 0 0 0 0-.1 0 0 .4 0 .4l-.1-.1v-.1s-.2-.1-.2 0c0 0-.1-.1-.1 0 0 0-.1-.2-.1 0v-.1c-.1 0 0 .1 0 .1l-.1-.1c-.2 0-.1.2-.3 0v.2-.1c-.1-.1 0 0-.1 0v.1h-.1s0-.1 0 0v.1h-.2s-.1-.2-.1 0-.1-.1 0 .1v.1h-.1v-.2.2h-.1s-.1 0 0 0l-.2-.1s0 .1 0 0l-.2.2v.1c0 .2-.2-.1 0 .2h-.2c-.1 0 0 .2 0 .1h-.2l-.1.2v-.1h-.1c0-.1 0 .1-.2 0v.1a.4.4 0 0 1 0 .1v-.1.1h-.2v.2s0 .1 0 0v.1c0 .1 0 .1 0 0-.2.8.2 1 .2 1zm10-4.3zm-.9.3c.2.2.1 0 .3-.2.2 0 .3.1.4 0l.3-.1v-.2h.4v-.1s0-.2.2 0c0-.3.2 0 .2-.2v-.2.1l.1-.1v-.1s0 .1 0 0l.3.2c.2 0 .3-.4.5-.3v.1c.1.1 0-.2.1-.1h.1l.2-.1c.2.1.3-.1.4-.2 0-.3.4.1.5-.1l.1-.1s.7-.2-.1-1c-.1-.1-.2-.1-.2 0 0-.1 0 0-.1 0 0 .2-.2 0-.2 0s0 .1 0 0c-.1 0-.3 0-.3.2l-.1.2v-.1h-.1c0 .2 0 0 0 0-.1 0 0 .5-.1.4 0 .1 0-.1 0 0v-.2h-.2s-.1-.1-.1 0-.1-.2-.1 0v-.1c-.1 0 0 .1-.1 0-.2 0-.1.2-.3 0v.2-.1c-.2-.2-.1 0-.2 0v.1s-.1-.1-.1 0h-.2c0 .1 0-.1-.1 0v.4-.1l-.1-.1v.1h-.1s-.1 0 0 0l-.2-.1v.1c-.1 0-.1.2-.2 0v.2c0 .2-.2-.1-.1.2h-.2v.2c0-.1 0 0 0 0v-.1c-.1 0 0 0 0 0-.1 0-.1.1-.2 0v.2h-.1v-.1c-.1-.1 0 .1-.2 0v.2-.1h-.1v.1h-.1v.2h-.1c0 .2 0 .2-.1.1-.1.8.3 1 .3 1zm10.4-3.5zm-1.1.3c.2.1.2-.1.4-.3.2 0 .3.2.4 0h.3l.1-.2h.4v-.1s0-.1.2 0c0-.3.1 0 .2-.2v.1-.2h.1v-.2.1l.2.2c.3 0 .4-.4.6-.2.1.2 0-.2.1 0v-.1h.3c.2 0 .3-.1.4-.3.1-.2.4.2.5 0h.2s.7-.2-.1-1.1h-.2c0-.1 0 0 0 0 0 .1-.2 0-.2 0h-.1c-.1 0-.2 0-.2.2l-.2.1c0 .2-.1-.1-.1 0v.3c0 .1-.1-.1-.1 0v-.2h-.1c0 .1-.2-.1-.2 0s0-.2 0 0l-.1-.1s0 .1 0 0h-.1c-.1-.1 0 .1-.2 0v.2l-.1-.1v-.1c0-.1 0 0-.1 0v.2-.1s-.2-.1-.2 0c0 0 .1.1 0 .1h-.1l-.1-.1v.2s0 .1 0 0h-.1v-.1.1h-.2v-.1s-.1.1-.2 0c0 0 0 .2-.2.1v.2c0 .1-.1-.2 0 .1h-.5v.2c0-.1 0 0 0 0v-.1s0 .1-.1 0l-.2.2v-.1c0-.1 0 .1-.2 0a.2.2 0 0 1 0 .2v-.2l-.1.1v.1-.1.1c-.1 0 0 0 0-.1h-.2v.2s0 .1 0 0v.1c0 .1 0 .1-.1 0-.3.8.1 1 .1 1zM334 177zm.8-1.7zm-1.8 1.9c.1.2.2 0 .3-.2.2 0 .3.2.5 0h.2l.1-.1h.1c.1 0 .2-.1.2 0v-.2c0 .1 0 0 .2 0 0-.2.2.2.2 0 0 0 .1 0 0-.2h.2v-.2.2-.1l.2.2c.2 0 .4-.3.6-.2v.1c0 .2 0-.2.1 0v-.1h.1c.1.1.1 0 .2 0 .2.1.3 0 .4-.2.1-.2.4.3.5 0h.2s.7-.1 0-1v-.1h-.2c-.1.2-.2 0-.2 0h-.1c-.1 0-.2 0-.3.2l-.1.1h-.1c0 .2 0-.1 0 0-.1 0 0 .4-.2.3 0 0 0-.1 0 0v-.2s0-.1-.1 0v-.1c0 .1-.1 0-.2 0 0 .1 0-.1 0 0v-.1c-.1 0 0 .1-.1 0h-.3v.1-.1c-.1-.2-.1 0-.2 0v.1s-.1-.2-.1 0a1 1 0 0 0-.2 0s0-.2-.1 0c0 .2 0-.1 0 0v.2h-.1v-.2.1h-.2v-.1s-.1.1-.2 0c0 0 0 .2-.2 0v.2c0 .2-.1-.2 0 .2h-.2s0 .2-.1.1v-.1.1h-.2l-.1.1v-.1c-.1-.2-.1 0-.2 0v.1-.1h-.2v.2s0-.1 0 0v-.2.2-.2h-.1v.2s0 .1 0 0v.2h-.2c-.3.8.1 1 .1 1zm10.8-1.8zm-1.1.1c.2.2.3 0 .5-.1.1 0 .2.1.4 0h.2l.1-.1h.4v-.1c.1 0 .1-.1.2 0 0-.3.2.1.2-.1.1 0 .2 0 .1-.2v.2l.1-.2v-.1s0 .2.1.1v-.1l.2.3c.2 0 .4-.3.6-.1 0 .2 0-.1 0 0h.4c.1 0 .3 0 .4-.2.1-.2.4.3.5 0h.2s.7 0 0-1c0-.1 0-.1-.1 0 0-.1 0 0-.1 0 0 .1-.1-.1-.2 0v-.1c-.1 0-.3 0-.3.2h-.2c0 .2 0 0-.1 0 0 0 0 .4-.1.3 0 .1 0-.1 0 0v-.2h-.2s0-.2-.1 0c0 0 0-.2-.1 0v-.2.1l-.1-.1c0-.1-.1.2-.2 0v.2l-.1-.2c0-.2 0 0-.1 0v.1h-.1s0-.2 0 0a.7.7 0 0 0-.2 0l-.1-.1v.1c0 .2 0-.1-.1 0v.2-.3l-.1.2-.1-.1-.1-.1s0 .1-.1 0c-.1 0-.1.2-.2.1v.1c0 .2-.2-.1-.2.2v-.1h-.2v.2c0-.1 0 0 0 0v-.2.1h-.2l-.1.1v-.1c-.1-.1-.1.1-.2 0v.2-.2h-.2v.2s0-.1 0 0v-.2.2-.2h-.1v.2s0 .1-.1 0v.2h-.1c-.4.7 0 .9 0 .9zm11-.8zm-1.1 0c.2.2.3 0 .5-.1.1 0 .2.2.4.1h.2c0-.2.1 0 .2-.2v.1h.2v-.1c.1 0 .1-.1.2 0 .1-.2.2.2.3 0v-.2l.1.2v-.1h.1v-.2.2-.2l.2.3c.2 0 .4-.2.6 0 0 .2.1-.1.1 0h.1c0 .1.1 0 .2 0 .1.2.3 0 .5 0 .1-.3.3.2.5 0h.1s.8 0 .2-1c0-.1-.1-.1-.2 0 0-.2 0 0 0 0-.1 0-.2-.2-.2 0v-.1h-.4v.1h-.2c0 .2 0-.1-.1 0 0 0-.1.4-.2.3 0 0 0-.1 0 0v-.2s0-.1 0 0v-.1c-.1.1-.2-.1-.2 0 0 0 0-.2 0 0v-.2l-.1.1c-.1-.2-.2 0-.3-.1v.1s-.1 0 0 0v-.1c0-.2-.1 0-.2 0 0 0 0-.1-.1 0v.1l-.2-.1c0 .1 0-.2 0 0-.1.2-.1-.1-.2 0v.2-.2s-.1.1-.1 0h-.1v-.1s-.1.1-.1 0c-.1 0-.2.2-.2 0v.2c-.1.1-.2-.2-.2.1h-.2s0 .1 0 0h-.1l-.3.1v-.1c0-.2 0 .1-.2 0a.2.2 0 0 1 0 .1v-.1c0-.1-.1 0-.1 0v.1-.1l-.1.1c-.1 0 0 0 0 .1-.1 0-.1.1-.2 0v.1c-.5.7-.2 1-.2 1zm11 .2zm-.6-.1c.2 0 .2.2.4.1h.2c0-.1.1 0 .2 0h.4v-.1s0-.1.1 0c.1-.2.2.2.3 0v-.1h.2v-.1.1-.1l.2.3c.2 0 .4-.2.6 0 0 .2 0 0 0 0s.1 0 0 0h.4c0 .2.3 0 .4 0 .2-.2.3.3.5.1h.2s.7.1.3-1c-.1 0-.2-.1-.2 0 0-.1 0 0-.1 0 0 0-.1-.2-.1 0v-.1h-.4c0 .1 0 0 0 0l-.2.1c0 .1 0-.2-.1 0 0 0-.1.3-.2.2 0 .1 0-.1 0 0v-.2c-.1 0-.2-.2-.2 0 0 0 0-.3-.1-.1v-.1s-.1 0 0 0c-.1-.2-.2 0-.3-.1v.1s-.1 0 0-.1c0-.2-.2 0-.2 0-.1 0-.1-.2-.1 0l-.2-.1c0 .1 0-.1 0 0v-.1l-.1.1c0 .2 0-.1-.1 0v.2-.2h-.4v-.1h-.1c0-.1-.1.1-.2 0v.2c-.1 0-.2-.3-.2 0h-.2s0 .1 0 0h-.1l-.3.1v-.1c0-.2 0 0-.1 0a.2.2 0 0 1 0 .1l-.1-.1c0-.1 0 0-.1 0h-.1v.2h-.2c0 .1 0 .1 0 0-.5.7-.2 1-.2 1 .1.2.2 0 .4-.1zm10.5 1.4zm-.6-.2c.1 0 .1.2.3.1h.8s.1-.1.2 0c.1-.1 0 .2.2 0v.1l.2-.2v.1-.2l.1.2v-.2l.1.3c.2.1.5-.1.6.1v.1c0 .1.1-.2.1 0v-.1.1h.3c.1.2.3 0 .4 0 .2-.1.3.4.5.2h.2s.7.2.4-1h-.2c0-.1 0 0 0 0-.2 0-.2-.2-.2 0v-.1c-.2 0-.3-.1-.4 0-.1.1-.1 0-.2 0 0 .2 0-.1-.1 0l-.2.2c0 .1 0 0 0 0v-.2c-.2 0-.2-.2-.2 0 0 0 0-.3-.1-.2v-.1h-.3s-.1 0 0 0v-.1c0-.2-.1 0-.2 0s0-.2-.1 0l-.2-.1c-.1.1 0-.2 0-.1l-.1.1c-.1.1 0-.2-.1 0v.2-.3l-.1.1h-.1s0-.1-.1 0v-.2s0 .1 0 0h-.3v.1c-.1.1-.1-.2-.2.1h-.7v-.1c0-.2 0 0-.1 0v.1-.2h-.2v.2s0-.1 0 0v-.2l-.1.1c-.1 0 0 0 0 .1h-.2v.1h-.1c-.5.5-.3.8-.3.8.2.3.3 0 .5 0zm10.2 2.4zm-.6-.3c.2.1.2.3.4.3h.7c0 .1.1 0 .2 0 .1-.1 0 .3.2 0v.2l.1-.2v.1l.1-.1.1-.1v.3c.3.1.6 0 .7.2 0 .2.1-.1 0 0h.1c.1.2.2 0 .3.1 0 .2.3.1.4 0 .2 0 .3.5.5.3h.2s.6.3.5-.9c0-.1-.1-.1-.2 0v-.1c-.2 0-.2-.2-.2 0v-.1s-.1 0 0 0c-.2 0-.3-.2-.4 0h-.2c-.1.1 0-.2-.1 0 0-.1-.2.3-.3.2 0 0 .1-.2 0-.1l.1-.1v-.1c-.2 0-.1-.2-.2 0v-.2c0-.1-.1 0-.1 0v-.1l-.2-.1-.1.1v-.1c0-.2 0 0-.1 0v-.1c-.1 0 0-.1-.1 0l-.2-.1c0 .1 0-.1 0 0h-.1c-.1.2 0-.1-.1 0v.2-.3.1h-.2s0-.1 0 0v-.2s-.1.1-.1 0h-.2v.1c-.2 0-.1-.3-.3 0h-.1s-.1.1-.1 0h-.4.1c0-.1 0 0 0 0 0-.2-.1 0-.2-.1v.1-.1c0-.1-.1 0-.2 0h-.1c-.1 0-.2.1-.2 0v.2-.1c-.7.5-.4.9-.4.9 0 .2.2 0 .4 0zm10 3.6zm-.5-.4c0 .1 0 .3.2.3h.3s0 .1.2 0h.1v.1h.1c.1 0 .2-.1.2 0 .2-.1 0 .2.3 0v.1l.1-.1v.1h.2v-.2.2-.1.3c.2.1.5 0 .6.2 0 .2.1 0 0 0h.1c.1.2.2 0 .3.1 0 .2.3.1.4.1.2 0 .2.4.4.3h.2s.6.4.6-.8c0-.1-.1-.2-.2 0v-.1c-.2 0-.1-.2-.2-.1v-.1h-.3c0 .1 0 0-.1 0 0 .1-.1 0-.1 0-.1.1 0-.1-.2 0l-.2.1c0 .1 0 0 0 0v-.2s0-.2-.1-.1v-.2s-.1.1-.1 0c0-.2-.2 0-.2-.2v.1s-.2 0 0 0v-.1c0-.2-.1 0-.2 0v-.1s0-.1-.1 0l-.1-.1h-.1v-.1.1c-.2.1 0-.1-.2 0v.1-.1h-.1s0-.2-.1 0v-.2l-.3-.1v.1c-.1.1 0-.2-.2 0h-.2s0 .1-.1 0c0 0-.1 0 0-.1l-.3.1v-.1c0-.2-.1 0-.1-.1l-.1.1v-.1c0-.1 0 0-.1 0h-.1v-.1l-.1.2h-.2c-.7.4-.5.8-.5.8.1.2.3 0 .5 0zm9.5 4.6zm-.5-.4s0 .3.2.3h.6v.1h.1l.2.1c.2-.1 0 .2.3 0v.1l.1-.1v.1h.1v-.2c.1 0 0 .2 0 .2l.1-.1v.3c.2.1.5 0 .6.3-.1.2 0 0 0 0h.1v.1c0 .1.2 0 .2 0 0 .3.3.2.4.2.3-.1.2.4.4.3l.2.1s.6.4.7-.8c0-.1-.1-.1-.2 0v-.1c-.2 0-.1-.2-.2-.1v-.2h-.3c0 .1 0 0-.1 0 0 .1 0 0-.1 0-.2.1 0-.2-.2 0l-.2.1c-.1 0 0 0 0 0v-.3s0-.1-.1 0c-.1 0 0-.2 0-.1v-.1h-.1v-.1c0-.1-.2 0-.1-.1h-.2v-.1c.1-.1 0 0 0 0h-.1v-.1h-.1v-.1h-.2s.1-.1 0-.1c-.1.2 0 0-.1 0l-.1.2v-.2s-.1 0 0 0c0 0-.1-.1-.2 0l.1-.2s-.1.1-.1 0h-.2c-.2 0-.1-.2-.3 0h-.2v-.1.1c0-.1-.1 0 0-.1h-.3v-.1c0-.1-.1 0-.1 0h-.1v-.1c0-.1 0 0 0 0h-.1l-.1-.1-.1.1h-.1v.1l-.1-.1c-.7.4-.5.8-.5.8 0 .2.2 0 .4 0zm9 5.4zm-.5-.4c.1.1 0 .3.3.3l.2.1c.1 0 .1.1.2 0v.1h.1l.1.1h.2v.1c.2-.1 0 .2.2.1h.2l.1-.1v.1c.1 0 0 .1 0 .2.2.2.5 0 .6.4-.1.1 0 0 0 0h.1v.1l.2.1c0 .2.2.2.4.2s.1.5.4.4h.1s.6.5.7-.7c0 0 0-.1-.1 0v-.1c-.2 0 0-.2-.2-.1v-.2h-.5v-.1c-.1.2 0-.1-.1 0l-.3.1s.1 0 0 0l.1-.2c-.1 0 0-.2-.1-.1-.1 0 0-.2 0-.2v-.1c0-.1-.2 0-.2-.2l-.1.1s-.1 0 0-.1c0-.2 0 0 0 0h-.1v-.2.1s0-.1-.1 0l-.1-.2c-.1 0 0-.1 0 0v-.1h-.1c-.2.2 0 0-.1 0l-.1.2v-.2s-.1 0 0 0c0 0 0-.1-.2 0l.1-.2s-.1 0 0 0l-.2-.1h-.1c-.1.1 0-.2-.2 0h-.3v-.1h-.2v-.1c.1-.2 0 0 0-.1h-.1c0-.1-.1 0-.2 0v-.1h-.2s0 .1 0 0l-.1.1h-.1c-.7.3-.6.7-.6.7 0 .1.2 0 .4 0zm8.5 6.3zm-.4-.5.1.4a.7.7 0 0 0 .3.1s0 .1.2 0v.1l.2.1.2.1c.2 0 0 .2.2.1 0 0 0 .1.1 0h.2v.3c0 .2.4 0 .4.4-.1.1.1 0 0 0h.1v.1l.3.1c0 .2.2.2.3.2.3 0 0 .5.4.4s.6.6.9-.6c0 0 0-.1-.2 0v-.2c-.2 0 0-.1-.1 0v-.1s-.1 0 0-.1c-.1 0-.2-.2-.3 0v-.1h-.3v-.1c-.1.1 0-.1 0 0 0-.1-.4.2-.4 0 0 .1.1 0 0 0h.2v-.2c-.2 0 0-.2-.1-.1-.1 0 0-.2 0-.1v-.1h-.1c0-.2-.1 0 0-.2h-.2v-.1c.1-.2 0 0 0 0h-.1v-.2.1s0-.2 0 0h-.1v-.2h-.1c-.1 0 .1-.2 0-.1-.2.1 0 0-.2 0a.2.2 0 0 1 0 .1v-.2.1s-.1 0 0-.1h-.2l.1-.2c0 .1-.1.1 0 0h-.4c-.2 0 0-.2-.2 0l-.1-.2s-.1.2-.2.1h.1s-.1 0 0-.1h-.3v-.1c.1-.2 0 0 0-.1h-.1c0-.1 0-.1-.1 0 0 0 0-.1 0 0v-.1h-.1v-.1l-.1.1h-.2c-.8.2-.7.6-.7.6 0 .2.2.1.4.2zm7.7 7.2zm-.3-.5.1.3.2.2h.2v.1l.2.1c0 .1.2 0 .1.1.2 0 0 .2.2.2h.2-.1.3-.1v.3c0 .2.4.1.4.4v.1c-.1.1.1-.1 0 0h.1v.1l.2.1c0 .2.2.3.3.3.3 0 0 .5.3.4l.2.1s.4.6.9-.5c0 0 0-.1-.2 0 .1-.2 0-.2 0-.2-.1 0 0-.2-.1-.1v-.1s0-.2-.2-.1h-.1l-.1-.1v-.1c-.2.1 0 0-.1 0h-.3s.1 0 0 0l.1-.1v-.3c-.1 0 0-.1 0 0v-.2s-.1.1-.1 0-.2 0 0-.2h-.2.1l-.1-.2v.1-.1h-.1s.1-.1 0 0h-.1v-.2h-.1s.1-.2 0-.1h.1-.1c-.2.1 0 0-.1 0l-.1.1v-.1h.1s-.2 0-.1-.1c0 0 0-.1-.1 0l.1-.2s-.1 0 0 0c0-.1-.3 0-.2-.2l-.2.1s.1-.2-.2 0v-.1h-.2v-.1l-.3-.1h.1v-.1c.1-.1-.1 0 0-.1h-.1c0-.2 0-.1-.1-.1h-.1v-.1h-.3c-.8.2-.7.6-.7.6 0 .2.2.1.3.2zm6.7 8zm-.3-.5.1.4.2.1c.1 0 0 .2.2.1v.1l.1.1h.1c0 .1.1 0 0 .2.3 0 0 .2.3.1 0 0 0 .1.1 0v.1h.2s-.1 0 0 0l-.1.3c0 .2.4.2.4.5h-.1c-.1.1.2 0 .1 0v.1l.2.2c0 .2.2.2.3.3.3 0 0 .4.2.5h.2s.4.7.9-.4c0 0 0-.1-.1 0 .1-.2 0-.2 0-.2-.2 0 0-.1-.1-.1v-.1s0-.2-.2-.2h-.2v-.1c-.2 0 0-.2 0-.1 0 0-.4.1-.4 0 0 0 .1 0 0 0h.2v-.2c-.1 0 0-.2-.1-.1 0 0 .2-.2 0-.2v-.1c.1-.1-.1 0 0-.2h-.2.1c.1-.2 0 0 0-.1h-.1v-.1s0-.1 0 0h-.2a.6.6 0 0 0 0-.2s.2-.1 0-.1h.1-.4.1l.1-.1h-.1v-.1s0-.1-.1 0l.1-.2s-.2 0 0 0c0-.1-.3 0-.2-.2l-.2.1s.1-.2-.2 0l.1-.1v-.1h-.2v-.1s-.1 0 0 0l-.3-.1h.1c0-.1 0 0 0 0 .1-.2-.1 0 0-.2h-.2.1l-.1-.1h-.1v-.2l-.1.2-.1-.1h-.1c-.8 0-.8.4-.8.4 0 .3.2.2.4.3zm5.8 8.8zm-.2-.2.2.2c.2 0 .1.1.2 0v.2l.2.1c0 .1.2 0 0 .1.3 0 0 .3.3.2h-.1s0 .1.2 0v.1h.2-.1l-.1.3c0 .2.4.2.4.5h-.1c-.1.1.2 0 0 0h.2l-.1.1c0 .2.2.2.2.3-.1.1.1.2.3.3.2 0-.1.4.1.5l.1.1s.4.7 1-.3l-.1-.2c.1 0 0 0 0 0-.1 0 0-.2 0-.2s-.1 0 0-.1c-.1-.1-.1-.2-.3-.2l-.2-.1h.1v-.1c-.2.1 0 0-.1 0h-.3c-.1 0 .1 0 0 0l.2-.1c-.1 0 0-.1 0-.1l-.1-.2s.2-.1 0-.1h.1c0-.1-.1 0-.1 0l.1-.1c0-.1-.2 0 0-.2h-.2v-.1h.1c.1-.1 0 0 0-.1h-.1v-.1h-.1v-.2c-.1 0 .1-.1 0-.1h-.2s-.1.1 0 0h.1-.1c0-.1-.1-.1 0-.2h-.1l.1-.1s-.1 0 0 0c0-.2-.2-.1-.2-.2h-.1c-.2 0 0-.2-.2 0v-.2h-.2v-.2h-.2v-.1c.1-.1.1 0 .1 0 .1-.2-.2 0 0-.2h-.1a.2.2 0 0 1-.1 0h.1l-.1-.1h-.1v-.2l-.1.1s-.1 0 0 0h-.2v-.1c-.8 0-.8.4-.8.4-.1.2.1.2.3.3v.4zm5.2 8.8zm1.8.3zm-2-.5.2.2.2.1h-.1v.1l.2.2s.2 0 .1.1c.2 0 0 .2.2.2h-.1.2v.1h.2-.1l-.1.2c0 .2.4.3.3.6-.1 0 .2 0 0 0h.1c0 .1 0 0 0 0v.2l.1.2.3.3c.2 0-.1.4.1.5l.1.1s.3.7 1-.3v-.1c0-.1-.1 0 0-.1-.2 0 0-.2-.1-.2 0-.1 0-.3-.2-.2-.2 0-.1-.2-.2-.2h.1c-.2 0 0-.1-.1-.1h-.3c-.1 0 .1 0 0 0l.2-.1c-.1 0 0-.1 0-.1-.1 0 0-.2 0-.2-.2 0 .1-.1 0 0v-.2s-.1 0 0 0c0-.1-.2 0 0-.2h-.2v-.1c.1 0 .1 0 0 0h.1c.2-.1 0 0 0-.1h-.1v-.1s.1 0 0 0v-.2h-.1s.2-.1 0-.1.1 0 0 0h-.2s.1 0 0 0l.2-.1h-.2c.1 0 0 0 0-.1l.1-.1s-.1 0 0-.1c0-.1-.2 0-.2-.2h-.1c-.1 0 .1-.1-.2 0v-.1h.1v-.1h-.3c.1 0 0 0 0 0l.1-.1s-.1 0 0 0l-.3-.2a.3.3 0 0 1 .2 0c0-.1-.2 0-.1-.2h-.2.2l-.1-.1h-.1.1-.1c0-.1 0 0 0 0v-.2l-.2.1h-.1s-.1 0 0-.1c-.8 0-.9.3-.9.3 0 .3.2.2.3.4v.4zm4.7 9.1zm1.8.3zm-1.9-.5.1.2.2.1v.4h.1s.2 0 0 .1c.3 0 0 .2.2.2 0 0 0 .1.2 0l-.1.1h.3s-.2 0-.1.1l-.1.2c0 .2.4.3.3.5l-.1.1h.1v.1l.2.2c-.1.2 0 .3.2.4.3 0-.1.4.1.5l.1.1s.3.7 1-.3v-.2c-.2 0 0-.2-.1-.2 0-.1 0-.3-.2-.2v-.1l-.1-.1c-.2 0 0-.1 0-.1 0-.1-.4 0-.4 0s.1 0 0 0l.2-.1v-.1s.1-.2 0-.2.1-.1 0 0v-.2c.1-.1-.1 0 0-.2h-.2l.1-.1h.1c.1-.1-.1 0-.1-.1v-.1h-.2a.6.6 0 0 0 .1-.2c-.1 0 .1-.1 0-.1h-.2s-.1 0 0 0v-.1h.1-.1v-.1s0-.1 0 0v-.2s-.1 0 0 0c0-.1-.2-.1-.1-.2h-.2c-.1 0 .2-.2-.2 0l.1-.2h-.2v-.2l-.2-.1h.1v-.1c.1 0-.1 0 0-.1h-.2l.1-.1h-.2s.1 0 0 0l.1-.1v-.1h-.2s-.1 0 0 0h-.1c-.1 0-.1 0 0 0-.9-.2-1 .2-1 .2 0 .3.2.2.3.4l.1.4zm4.4 9.2zm-.2-.6c0 .2-.1.3 0 .4l.2.2.2.1h-.1v.1c.1.1.2.1.1.2h.1s.1 0 0 .1c.3 0 0 .2.2.2 0 .1 0 .1.2 0l-.1.1.1.1h.1s-.1 0 0 0l-.2.2c0 .2.4.3.3.6-.1 0 .2 0 0 0h.1v.1l.1.2c0 .2.1.3.3.4.2 0-.2.4 0 .5h.1v.1s.3.7 1-.2h.1l-.1-.2c.1 0 0 0 0 0-.1 0 0-.2 0-.2s-.1 0 0-.1c0-.1 0-.2-.2-.2h-.1v-.2c-.2 0 0-.1-.1-.1h-.3c-.1 0 .1 0 0 0h.2c-.1-.1 0-.2 0-.2-.1 0 0-.2 0-.1-.2 0 .1-.2 0-.1v-.1s-.1 0 0 0c0-.2-.2-.1 0-.3h-.2.1c.2-.2 0-.1 0-.2v-.1h-.2v-.2s.2 0 0 0 .1-.1 0-.1h-.2s.1 0 0 0h.2-.2c.1-.1 0-.1 0-.2 0 0 .1 0 0 0l.1-.1s-.1 0 0 0c0-.2-.2-.1-.2-.3h-.1c-.1 0 .1-.1-.2 0v-.1h.1v-.1h-.2v-.1l-.2-.2h.1c.1-.1-.1 0 0-.2h-.1a.4.4 0 0 1-.1 0h.1v-.1h-.1c0-.1 0 0 0 0v-.2l-.2.1h-.1s-.1 0 0-.2c-.8 0-1 .3-1 .3 0 .2.2.2.4.3zm4.4 9.7zm-.2-.6c0 .1-.1.2 0 .4l.2.2.2.1h-.1v.1c.1 0 .2.1.1.2h.1s.1 0 0 .1c.3 0 0 .2.2.2 0 0 0 .1.2 0l-.1.1h.2s-.1.1 0 .1l-.2.2c0 .2.4.3.3.6-.1 0 .2 0 0 0h.1c0 .1 0 0 0 0v.1l.1.2c0 .2.1.3.3.4.2 0-.2.4 0 .5h.1v.1s.3.7 1-.2c.1-.1.1-.2 0-.2.1 0 0 0 0-.1-.1 0 0-.1 0-.1s-.1 0 0-.1c0-.1 0-.2-.2-.2h-.1l-.1-.2c-.1 0 .1-.1 0-.1h-.3c-.1 0 0 0 0 0l.1-.1s.1-.1 0-.1h.1c-.1 0 0-.2-.1-.1 0 0 .2-.2 0-.2h.1s-.1 0 0 0c0-.2-.2-.1 0-.3h-.2c.1 0 .1 0 0 0l.2-.1-.1-.1h-.1s.1-.1 0-.1h-.1v-.2s.2 0 0 0 .1-.2-.1-.1h-.1s.1 0 0 0h.2-.2c.1 0 0-.1 0-.2l.1-.1s-.1 0 0 0c0-.2-.2-.1-.2-.2h-.1c-.2 0 .1-.2-.2-.1v-.1h.1v-.1h-.2v-.2h-.2.1v-.1c.1-.1-.1 0 0-.2h-.1a.4.4 0 0 1-.1 0h.1v-.1h-.1v-.1h-.3s-.1 0 0-.1c-.8-.1-1 .3-1 .3l.4.3zm4.4 9.7zm-.1-.2.1.2h.2v.4h.1c0 .1.2 0 .1.2.2 0-.1.2.1.2h.2v.1h.2-.1l-.1.3c0 .2.4.3.3.5h-.1c-.1.1.2 0 0 0h.2l-.1.1v.1l.2.2c-.1.2 0 .3.2.3.2.1-.1.5.1.6h.1s.3.8 1-.2v-.2s-.1 0 0 0c-.2 0 0-.2-.1-.2v-.1s0-.2-.2-.2l-.1-.1v-.1c-.2 0 0 0 0 0 0-.1-.5 0-.4 0-.1 0 .1-.1 0-.1h.2v-.2c-.1 0 .1-.1 0-.1s.1-.1 0-.1c0-.1 0 0 0 0v-.2c.1 0-.1 0 0-.2h-.2.2c.1-.2-.1-.1-.1-.2v-.1h-.2a.6.6 0 0 0 .1-.2h-.1.1c-.3 0 0-.1-.2 0h-.1l.1-.1h.1-.1v-.2h-.1l.1-.1s-.1 0 0 0c0-.2-.2-.2-.1-.3h-.2c-.1 0 .2-.1-.2 0l.1-.1v-.1h-.2c0-.1 0 0 0 0v-.2h-.2s0-.1.1 0v-.1c.1-.1-.1 0 0-.2h-.1a.4.4 0 0 1-.1 0h.1-.1v-.1h-.1v-.1h-.1s-.1 0 0 0h-.2v-.1c-.8 0-.9.3-.9.3 0 .2.2.2.3.4l.1.3zm4.5 9.2zm-.1-.2.2.2h.1v.1s0 .1 0 0v.1l.2.1s.2 0 0 .1c.3 0 0 .3.2.3h.2v.1h.2-.1l-.1.2c0 .2.4.3.3.6-.2 0 .1 0 0 0h.1v.1l.1.2c0 .2.2.3.3.4.2 0-.1.4.1.5l.1.1s.3.7 1-.3c0-.1 0-.2-.1-.1.1-.1 0-.1 0-.1-.1 0 0-.2 0-.2 0-.2 0-.3-.2-.3h-.1v-.1c-.2 0 0-.1-.1-.1h-.3c-.1 0 .1 0 0 0l.2-.1c-.1 0 0-.1 0-.1-.1 0 0-.2 0-.2-.2 0 0-.1 0-.1 0-.1-.1 0 0 0v-.1c0-.1-.2 0 0-.2h-.2v-.1h.1c.1-.2 0 0 0-.2l-.1.1v-.1s.1 0 0 0h-.1v-.2s.2-.1 0-.1.1-.1-.1 0h-.1s.1 0 0-.1h.2-.2v-.2l.1-.1s-.2 0 0 0c0-.2-.3-.1-.2-.2h-.1c-.2 0 .1-.2-.2 0v-.2h-.2v-.1h.1s-.1 0 0-.1l-.3-.1h.1c0-.1 0 0 0 0 .2-.2 0-.1 0-.2h-.2s.2 0 .1-.1c.1 0 0 0 0 0h-.1v-.2h-.3c-.1 0-.1 0 0 0-.9-.1-1 .3-1 .3 0 .2.2.2.4.3 0 .1-.1.3 0 .4zm5 9zm-.3-.2.2.2c.1 0 0 .1.2 0v.2l.1.1c0 .1.2 0 .1.2.3 0 0 .2.2.1 0 .1 0 .1.2 0l-.1.2h.3-.1l-.1.2c0 .2.4.3.3.6-.1 0 .2 0 0 0h.1v.1l.2.2c-.1.2 0 .3.2.3.3 0 0 .5.2.5l.1.2s.3.6 1-.4c0-.1 0-.2-.2-.1.2-.1 0-.1 0-.1s.1-.2 0-.2v-.1s0-.2-.2-.1v-.1h-.2v-.1c-.1 0 .1-.1 0-.1h-.3c-.1 0 0 0 0 0l.1-.1s.1-.1 0-.1c0 0 .1-.2 0-.2s.2 0 0 0v-.2c.1-.1-.1 0 0-.2h-.2l.1-.1h.1c.1-.1-.1 0-.1 0v-.2h-.2l.1-.2h-.1s.2 0 0 0 .1-.1 0 0h-.2s.1-.1 0-.1h.2-.2c.1-.1 0 0 0-.2h.1s-.1 0 0-.1l-.2-.2h-.1c-.1 0 .1-.2-.2 0v-.2h-.2c.1 0 0 0 0 0l.1-.1s-.1 0 0 0l-.3-.2h.1c.2-.1 0 0 0-.2h-.2.1c.1-.1 0 0 0-.1h-.1v-.1h-.3c-.1 0-.1 0 0-.1-.9 0-1 .4-1 .4 0 .2.3.2.4.3v.4zm5.5 8.8zm1.9 0zm-2.2-.6.1.4.2.2h.2v.4h.2c.3 0 0 .3.2.3h.2v.1l.2-.1-.1.1-.1.2c0 .2.5.2.4.5-.2.2.1 0 0 0v.1h.1v.1l.2.2c-.1.1.1.2.3.3.2 0-.1.4.2.4v.2s.4.6 1-.5l-.2-.1c.2-.1 0 0 0-.1v-.4h-.3v-.1h-.1v-.1c-.2 0 0-.2-.1-.1h-.3c-.1 0 .1 0 0 0l.1-.1v-.2c-.1 0 .1-.2 0-.2v-.1c0-.1-.2 0 0-.2h-.2.1c.1-.2-.1-.1-.1-.2h-.1s.1-.1 0-.1v-.1h-.2.1c-.1 0 .1-.1 0-.1h-.2s-.1 0 0 0v-.1s-.1 0 0-.1h-.1l.1-.2h-.1s-.2 0-.1-.2l-.2.1s.1-.2-.2 0v-.2h.1-.3c.1 0 0 0 0 0l.1-.1s-.1 0 0 0l-.3-.2h.1c.1-.2-.1 0 0-.2h-.1a.2.2 0 0 1-.1 0s.1 0 0 0c.1 0 0 0 0 0-.1 0 0 0 0 0v-.1h-.1v-.1l-.2.1c-.2 0-.2 0-.1-.1-.8 0-.9.4-.9.4 0 .2.3.2.5.3zm6.3 8.6zm1.6 1.7c0 .2.2.2.4.3.2 0 0 .5.2.4l.1.1s.5.7 1-.5c0-.1 0-.2-.2-.1v-.1c-.2 0 0-.2-.1-.2 0-.1 0-.3-.3-.2h-.2l.1-.1c-.2 0 0-.1-.1-.1 0 0-.4.2-.3 0 0 .1.1 0 0 0h.1v-.2s0-.1 0 0c-.1 0 .1-.3 0-.2 0-.1 0 0 0 0v-.2s-.2 0-.1-.1h-.2.1c.1-.2 0-.1 0-.2v.1-.1h-.1s.1-.1 0 0h-.1v-.2c-.1 0 0-.1 0-.1h-.1c-.2.1.1 0-.1 0l-.1.1s.1-.1 0-.1h.2-.2v-.1s0-.1 0 0v-.2c0-.1-.2 0-.2-.2l-.1.1c-.1 0 .1-.2-.2 0v-.2h-.2v-.1h-.3a.2.2 0 0 1 .1-.1c.1-.1-.1 0 0-.2h-.1v.1-.1h-.1v-.1h-.4c-.8 0-.8.4-.8.4 0 .3.2.2.4.3l.1.4.2.2h.2v.1h.1v.2l.1-.1c0 .1.2 0 .1.2.3-.1 0 .2.2.1 0 0 0 .1.2 0v.1h.2s-.1 0 0 0l-.1.3c0 .2.5.1.4.4-.1.2.1 0 0 0h.1v.1c0 .2.1.1.2.2zM587 249zm-2-3c.1 0 0 .2 0 .2v.1s0 .2.2.2l.1.2c.2 0-.1.1 0 .1h.4l-.1.1h-.1s-.1.1 0 .1h-.1c.1 0-.1.2 0 .2s-.2 0 0 0l-.1.1s.1 0 0 0v.1c-.1 0 .1 0 0 .2h.2l-.1.1h-.1c-.1 0 0 0 0 .1h.2-.1c0 .1-.1.1 0 .2h.1v.1l-.1.1h.1c.2 0-.1.1 0 .1h.2-.2.1v.2l-.1.1s.1 0 0 0c0 .2.2.2 0 .3h.2c.2 0-.2.1.2 0v.2h-.1l.2.1h-.1.1v.2l.1.1h-.1c-.1.1.1.1 0 .2h.2-.2l.1.1h.1-.1l.1.1h-.1v.1h.2s.1 0 0 0h.1c.1 0 .1 0 0 .1.8.3 1 0 1 0 .1-.3-.1-.3-.3-.5 0-.1.2-.2 0-.4v-.2l-.2-.1h.1v-.1l-.1-.2s-.2 0-.1-.2c-.2 0 .1-.2-.1-.2h-.2l.1-.1h-.2s.1 0 0-.1l.2-.2c0-.2-.3-.4-.2-.6h.1c.1 0-.2 0 0 0h-.1v-.4l-.3-.4c-.2 0 .3-.4 0-.5v-.2s-.2-.7-1 .2h-.1l.1.1c-.2 0 0 0 0 .1zm-1.1-6.6zm-2.4-2.6s-.1.1 0 .1v.1c0 .1 0 .2.2.2l.1.2c.2 0 0 .1 0 .1h.4s-.2 0 0 0l-.2.1v.1s-.1.2 0 .2c0 0-.2 0 0 0l-.1.1s.1 0 0 0v.1c0 .1.2 0 0 .2h.2v.1h-.1c-.1.1 0 0 0 .1h.1v.1s-.1 0 0 0h.1v.2s-.2.1 0 .1h-.1.1c.2 0-.1.1 0 0h.2s-.1.1 0 .1h-.2.2c-.1 0 0 0 0 .1 0 0-.1.1 0 0l-.1.2s.1 0 0 0c0 .1.2.1.1.2h.2c.1 0-.2.2.2 0l-.1.2h.2v.1h-.1.1v.1l.2.1h-.1c0 .1 0 0 0 0-.2.2 0 .1 0 .2h.2l-.2.1h.2v.1h-.1.1-.1v.1h.2s.1 0 0 0h.1c.1 0 .1 0 0 .2.9 0 1-.3 1-.3 0-.2-.2-.2-.3-.4v-.4l-.2-.2-.2-.1v-.3h-.1s-.1 0 0-.1c-.3 0 0-.2-.2-.2 0 0 0-.1-.2 0l.1-.1-.1-.1h-.1s.1 0 0 0l.2-.2c0-.2-.4-.3-.3-.6.2 0-.1 0 0 0h-.1v-.4l-.3-.3c-.3 0 .1-.5-.1-.5l-.1-.2s-.2-.7-1 .3c0 0 0 .2.1.1-.2 0 0 0 0 .1zm-2-6.5zm-2.7-2.4c-.1.1 0 0 0 .1.1 0 0 .1 0 .1v.2l.3.1.1.1v.1c.2-.1 0 .1 0 0 0 .1.4 0 .4 0s-.1.1 0 .1h-.2v.2c.1 0 0 .1 0 .1.1 0-.1.1 0 .1 0 .1 0 0 0 0v.2c-.1 0 .1 0 0 .2h.2-.1c-.2.2 0 0 0 .1v.1h.2v.2s-.2.1 0 .1h.2s-.1 0 0 0l-.2.1h.2v.1l-.1.1h.1c0 .2.2.1 0 .3h.2c.2 0-.1.1.2 0v.2h.2-.1s.1 0 0 .1l.3.1a.3.3 0 0 1-.1 0c0 .1 0 0 0 0-.2.2.1.1 0 .2h.2l-.1.1h.1v.2h.2s.1 0 0 0h.2c.8.1.9-.3.9-.3 0-.2-.2-.2-.4-.3v-.4l-.2-.2-.2-.1v-.1l-.1-.2h-.1v-.1c-.3 0 0-.2-.2-.2h-.2l.1-.1h-.2s.1 0 0 0l.2-.3c-.1-.2-.5-.2-.4-.5.2-.1-.1 0 0 0v-.1h-.1l-.1-.2c0-.2-.2-.3-.3-.4-.2 0 .1-.4-.2-.5v-.1s-.4-.7-1 .4c-.1 0 0 .1 0 0zm-2.6-6.2zm-2.9-2.1c-.1.1 0 0 0 .1.2 0 0 .1.1.1v.1c0 .1 0 .2.2.2h.1l.1.1c.2 0 0 .2.1.1h.3c.1 0-.1 0 0 0l-.1.1s-.1.1 0 .1c0 0-.1.2 0 .1.1 0-.1.2 0 .2v.1c0 .1.2 0 0 .2h.2l-.1.1c-.1.1 0 0 .1 0v.2h.1v.1h.1s-.2.1 0 .1h.2l-.1.1h.1v.1s0 .1 0 0v.1s.1 0 0 0c0 .2.2.1.2.2h.1c.1 0 0 .2.2 0v.2h.2v.1l.3.1h-.2v.1c0 .1.2 0 .1.1a.2.2 0 0 1 .2 0l-.1.1h.1v.1h.2s.1 0 0 0h.1c.1 0 .1 0 0 0 .9 0 1-.4 1-.4 0-.2-.3-.1-.4-.3l-.1-.4s-.2 0-.2-.2h-.2v-.1l-.1-.2h-.1s-.1 0 0 0c-.3 0 0-.3-.3-.3h-.2l.1-.1h-.1l.2-.2c-.1-.2-.5-.2-.4-.5.1-.1-.2 0 0 0h-.1v-.1c0-.2-.2-.1-.2-.2 0-.2-.2-.3-.3-.3-.2 0 0-.5-.2-.5l-.1-.2s-.4-.6-1 .5l.1.2zm-3-6zm-3-1.9c-.2.1 0 0 0 .1v.2s.1.2.3.1l.2.1v.1c.1-.1-.1 0 0 0h.3c.1 0-.1 0 0 0l-.1.1v.3c.1 0-.1.1 0 0v.2s0-.1 0 0 .2 0 .1.2h.2-.1v.1c-.1.1 0 0 0 0v.1h.1s-.1.1 0 .1c0 0 0-.1.1 0v.1c.1 0-.1.2 0 .1h.1c.2 0-.1.1.1 0h.1s-.1 0 0 0l-.2.1h.2v.2s.1 0 0 0c0 .2.2 0 .2.2h.1c.1 0-.1.2.2 0v.2s.2-.1.2 0l.3.1a.2.2 0 0 1-.2 0v.1c0 .1.2 0 .1.1h.2l-.1.1h.1v.1h.2c.2 0 .2 0 .1.1.8-.1.8-.5.8-.5 0-.2-.2-.2-.3-.3-.1-.1 0-.3-.2-.4l-.2-.2c-.1.1 0 0-.2 0v-.1l-.1-.1h-.1l-.1-.1c-.2 0 0-.2-.2-.2h-.2.1-.2l.1-.1v-.2c0-.2-.4-.2-.4-.5h.1c.1-.1-.2 0-.1 0v-.1c0-.1-.2 0-.2-.2s-.2-.2-.4-.3c-.2 0 0-.4-.2-.4l-.1-.2s-.4-.6-1 .5c0 .2 0 .2.2.2zm-3.5-5.8zm-3.1-1.7c-.1 0 0 0 0 0l.1.2v.1s0 .2.3.1l.1.1v.1c.2-.2 0 0 .1 0 0 0 .4-.2.3 0 0-.1-.1 0 0 0l-.1.1v.2c.1 0 0 .2 0 .2h.1v.1c-.1.1.1 0 0 .2h.2-.1c-.1.2 0 0 .1.1v.1h.2v.2c.1 0 0 .1 0 0h.1c.1 0-.1.1.1 0h.1s-.1 0 0 0l-.2.1h.2v.3s.1 0 0 0l.2.1h.1c.2 0 0 .2.2 0v.2c.1 0 .2-.1.2 0l.3.1h-.1c0 .1 0 0 0 0-.1.2.1 0 0 .2h.2s-.1 0 0 0c-.1.1 0 .1 0 .1.1 0 0 0 0 0h.2-.1v.1h.3c.1 0 .1 0 0 0 .9-.1.8-.5.8-.5 0-.3-.2-.2-.4-.3l-.1-.4-.2-.1c-.2 0-.1-.1-.2 0v-.1h-.1v-.1h-.2v-.2c-.3 0 0-.2-.2-.1 0-.1 0-.1-.2 0v-.1h-.2s.1 0 0 0l.1-.3c-.1-.2-.5-.2-.5-.4l.1-.1c.1-.1-.2 0-.1 0v-.1c0-.1-.2 0-.2-.2s-.2-.2-.4-.2 0-.5-.3-.5-.6-.7-1 .5c0 .1 0 .2.2.1zm-3.8-5.6zm.9.7c0-.2-.3 0-.4-.2-.1-.1 0-.3-.2-.4l-.2-.1h-.2v-.1h-.1l-.1-.1-.2-.1c-.2 0 0-.2-.2-.2h-.2v-.3c0-.2-.5-.1-.4-.4.1-.2-.1 0 0 0h-.1c0-.1 0 0 0 0v-.1c0-.1-.2 0-.2-.2s-.2-.2-.4-.2 0-.5-.3-.5h-.1s-.5-.6-.8.5l.1.2.1.2v.1s.1.2.3 0v.1h.2v.1c.1-.1 0 .1 0 0h.3c.1 0 0 0 0 0v.2s-.1 0 0 0l-.1.1c.1 0 0 .1.1 0 .1 0-.1.2 0 .2 0 .1 0 0 0 0v.2s.2 0 .1.1h.2c-.1 0-.1 0 0 0l-.2.1c0 .1.1 0 .2 0v.1s0 .1 0 0h.1v.2h.1s-.1.1 0 .1c.2-.1 0 0 .2 0v-.1.1s.1 0 0 .1c0 0 0 .1.2 0l-.2.2h.1l.2.1h.1c.1-.1 0 .2.2 0v.1h.2c0 .1.1 0 0 .1h.3l-.1.1c0 .1 0 0 0 0l.1.2h.1c0 .1 0 0 0 0h.1v.1h.4c.8-.1.7-.5.7-.5zm-8-7.5zm.7.6c0-.3-.2-.1-.3-.2 0-.1 0-.2-.2-.3h-.2s0-.2-.1-.1c0 0 0-.1-.1 0v-.1h-.2v-.1c-.2 0 0-.2-.2-.1 0-.1 0-.1-.2 0h-.2l.1-.1v-.2c0-.2-.4 0-.4-.3v-.1c.1-.1-.1.1 0 0h-.1c0-.2-.1 0-.2-.2l-.3-.1c-.2 0 0-.5-.2-.4h-.1s-.5-.5-.8.6c0 .1 0 .2.1 0v.2c.2-.1 0 .1.1 0 0 0 0 .1 0 0v.2h.5v.1c.1-.1 0 .1 0 0l.3-.1c.1 0 0 .1 0 0l-.1.2v.1c.1 0 0 .1 0 0 .1 0 0 .3 0 .2h.1v.1c0 .1.1 0 0 .2l.2-.1-.1.1c0 .1 0 0 .1 0v.1s0 .1 0 0h.2a.7.7 0 0 0 0 .2v-.1s-.1.2 0 .2v-.1c.2-.1 0 .1.1 0l.1-.1v.1h-.1.1s0 .2.1 0v.2c0 .1.2 0 .1.1h.1c.2-.1 0 .2.2 0h.2v.1h.2v.1h-.1c0 .2.2 0 .1.1a.1.1 0 0 1 .1 0c-.1.2 0 .1 0 0v.2l.1-.1h.3c.7-.2.7-.6.7-.6zm-71-52.4c.4.8 1.1 1.7 1.7 2.6l.8 1 .6.7-.3-.4.7 1-.2-.2 1 1.4-.1-.2c.4.7.5 1 1.1 1.7.3.3-.4-.7.2 0l2.3 3.6c0-.2.2.2.4.5 1 1.3.2.6 1.1 1.8l.3.2c.9 1 .3.7 1.3 1.8-.4-.5 0-.3.4.3l-.2-.1.5.6c-.2-.1-.2 0 .2.5l-.3-.3.8.9c.4.7 1.3 1.8 1.4 2.2 0 0 1 1.5 1.4 1.8-.3-.2.3.6 0 .4.4.4 1.3 1.5 1.5 2l3.2 4.6c0-.2.5.7.5.4 1.2 1.6 1.9 3.1 2.5 3.5l.8 1.3v-.1l2 2.8 1.1 1.4c-.3-.3 0 .1.3.5-.2-.3-.3-.3 0 .2a1.2 1.2 0 0 1 .2.2c.4.6.4.5.2.2v-.1l1.1 1.8 1.6 2.2.7 1 1 1.2.2-.2-.3.3-.4-.5.4.6 1-.8-1 .8-.3-.4.3.5.7-.6.6-.5.8-.7 1.8-1.5.2-.2.1-.1.5-.5c.2 0 0 .2.7-.4l2.2-1.9c-.4.3-.3.2-.2 0 .3-.2.6-.3.8-.6h.1l1-.8-.6.5 2-1.6c.7-.7-.2 0 0-.3l2-1.7-.2.1 1-1 .7.4c.3 0 .8.5 1 .6l.6.4-.2-.2c.2 0 .4.4.8.5.3.2.7.2 1 .3l.3.2v.1c0 .1 0 0 0 0l.7.6 1.1.7c.5.2.2.4.8.5v.2c.3.2.3 0 .5.2 0 0 .2.2 0 .2.5.4 1.2.5 1.8 1l.6.3s.7.3.2.2h-.1c.3.4.7.4 1 .6 0 0-.2-.2 0-.1l.3.2h-.1l.5.3c.2.1.2.3.6.4.1 0-.2-.3 0-.1l.6.4.4.2a2.2 2.2 0 0 1 .1.2l.3.2c0-.2.2 0 .4 0v.2c.8.3.3.4 1.2.8v-.1a1.3 1.3 0 0 1 .6.3c.2.1.3.3.6.3-.3-.1-.4-.4 0-.1l.4.2.4.4v.1h.3l1.6 1.1 1 .6-.3-.3.5.4a7.6 7.6 0 0 1-1.2-1.5v.1l-1-1.4v-3.3c0-5.3-.3-8-.6-14.4v-4.4l1-.8 1.4-1.1 1.7-1.6c.1 0 2.1-1.7 1-.7l-.3.2v.2l3.2-2.7c-.4.2-.8.6-.5.3l1-.9-.2.2 1.7-1.3-.3.2c.8-.6 1.2-.8 2-1.6.3-.4-.8.5 0-.2l2-1.4 1-.8 1.7-1.4c-.3.1.3-.4 1-.9h.2v-.2h-.8l-.6-.1-.5-.1-.6-.1a18.1 18.1 0 0 0-1.4-.1h.2-.5c-1.7 0-.9-.2-2.7-.2.7 0 .3.2-.6.1h.2l-1-.1c.4 0 .2-.1-.5-.1h.5-1.4c-1-.3-2.7-.3-3.1-.5l-2.8-.2c.5 0-.8-.1-.4-.2-.6 0-2.4 0-3-.2h.1l-6.7-.6c.1.1-1 0-.8 0-2.4 0-4.3-.5-5.2-.3-1 0-1.3-.2-1.8-.3h.2l-4-.3h-2.3l-.6-.1c.3 0 .4 0-.2-.1h-.7l-2.4-.3-6.5-.4h.9l-1.5-.2 1.3.1c-1.8-.3-3.7-.2-5.8-.5h-1.3l-1-.2c-.8-.2-2.3-.2-3.4-.3.6.1.4.1.1.1l-1.2-.1v-.1h-1.5.9l-3.1-.3c-1.1 0 .2.1-.3.1-1 0-2 0-3.1-.2l.4.1c-1.9 0-3-.2-4.2-.4h-4.1l-2-.8-.9-.5c-.3 0-1-.4-1.5-.7l.5.6-1.2-.4 1.8 1.5zm45.2 33.5zm14.8 7.6c-.2-.2-.3-.2-.1 0l-.2-.2.3.4c-.2 0-.2-.2-.4-.3.2.1.1.1 0 .1l-.2-.2v.2l-.1-.2-.3-.1c0-.2-.2-.3-.4-.5l-1.1-.7-.4-.2h.1a56.4 56.4 0 0 0-5.3-3.3c-.1-.3-1.8-1.2-2.3-1.6l-3.1-2 .3-.3c2-1.8 3-2.9 3.6-3.5l.3.1-2 1.6 1.9-1.1a10 10 0 0 0 .4.6c.8 1.4 1.5 1.9 2.7 3.3 1 1.3 1.1 1.8 2.2 3l1.6 2c.3.2.6.8 1 1v.3c.2 0 .3.2.4.3l.2.3.1.1v.1l.2.2h.1l.2.2c0 .1.2.2 0 .2l.3.2zm2.7 1.4a10.1 10.1 0 0 1-.8-1s-.4-.5-.5-.4l-1-1.3-.2-.4h-.3l-.3-.6a12.7 12.7 0 0 1-.7-.8c-.1-.2-.3-.1-.5-.4.1 0 0-.1 0-.2v-.1h-.2c-.1-.3-.1-.2 0-.1-.1-.2-.5-.5-.4-.6l-1.3-1.4.2.1-.3-.3.3.3c-.2-.5-.7-.8-1-1.4h-.1l-.3-.2s.2 0 0-.3l-.7-.7c.1.1 0 0 0 0l-.2-.3-.3-.3.2.1-.5-.7c-.3-.2 0 .1-.2 0s-.5-.3-.6-.6v.1c-.4-.4-.6-.6-.7-1l-1.3-1c.1-.2 0-.3-.2-.3a1.5 1.5 0 0 0-.2-.2c.5-.5.3-.5-.2-.2l-4.2-2.9h.1l-4.5-2.5c-.2-.3-1.6-1-2-1.2-1.3-.6-2.4-1.5-3.6-2h.3c-.8-.4-2-1-2-1.2-2-1-4.8-2.7-6.2-3.3h.1c-.8-.3-1-.5-1.8-1l-3-1.7-1.7-1 .6.4c-.3 0-1.1-.8-2.3-1.3-1-.7-2.4-1-3.5-1.7-.6-.2.6.2-.3-.2h.3l-2.3-1.4c-1.3-.7-2.3-1.5-3.2-1.9-1.4-.7-.8-.7-2.2-1.3l-.5-.4c-.6-.4-.5-.1-1.1-.5 0 0-.8-.5-.4-.4h-.2l2.1.7c0-.2.3 0 .8.1v.1c1.8.5.6.4 2.4.9h-.2.5c1.6.4.8.4 2.6.8-.5-.1-.5-.2-.2-.1a10.5 10.5 0 0 1 .6.2h-.1l1 .2c-.4 0-.3.1.4.3h-.5l1.4.2 2.9 1.1 2.4.8h.1c0 .1.8.4.5.4.6 0 2.2.6 2.8.9l6.2 2s1 .4.8.2c2.2.6 4 1.5 4.9 1.5l.8.3-.8-.3c1 .3 1.2.5 1.7.7h-.2l3.9 1.2c.7.2.9.1 2.1.6-.4 0 .1 0 .6.2-.3 0-.4 0 .2.2h.4l.3.1h-.1l1.7.6.4.1.2.2 2 .6 1.7.5c1.7.5 1 .6 2.8 1l.1.1.6.3c.8.3.6 0 1.4.4 0 0 1 .4.5.3a21.4 21.4 0 0 0 1.5.5l1.3.5v.3l.2 3.4c0-.6 0-.4.1-.1v1.2h-.1l.2 1.6-.2-1 .1 3.1c.1 1.1.1-.2.2.4 0 1 .2 1.9.1 3l.1-.4c.1 1.9.2 3 .1 4.2l.6 5.6zM496.5 142l12.9 1.3 8.5.7c1.3 0 3.5.3 5 .4l.6.1 1.7.1 2 .2h1-.2l4 .4v-.1l6 .6c3 0 4.7.6 7.9.7-.4 0 .1 0 0 0 1.5.2 3 .3 3.1.1l1 .2h1.7-.4l2.4.3-.5-.2c.7 0 .7.1.8.2h1.1v.1l-.2.1-.3.2a7.4 7.4 0 0 1-.4.2l-1 .7-7.1 6-3.6 3-1.8 1.4-1.3 1-3.3-1.1-4.4-1.5-8-2.6c-1.3-.3-3.4-1.2-4.9-1.6l-.5-.2-1.6-.5-1.9-.6-.9-.3h.2a62.8 62.8 0 0 1-3.8-1.3v.2c-2.4-1-3.4-1.1-5.6-2l-1.6-.5-3.8-1.3-2.1-.8-2.5-.7-4.4-1.5-4.7-1.6-.9-.3-1-.4 12.7 1zm-15.5 0 2.2 1.3.2.2c0 .2 1.4.6 1.5.8l.6.3.1.1 1 .5.4.4 5.8 3.2c2.5 1.6 7.3 4.2 10 5.6 4 2 8.2 5 12.2 7.1l.5.2 3.5 2s6.2 3.7 8.5 4.7l-2 1.5c-3.5 2.7-5.1 4.4-9.2 7.8l-3.9 3.1-1.6 1.3-1 .8a3.8 3.8 0 0 1-.3.2l-.2-.3-4.1-5.7c-.7-.8-1.7-2.5-2.6-3.5l-.2-.4a9 9 0 0 1-.8-1.2l-1-1.3-.4-.7v.1l-1.9-2.7v.1c-1.2-1.9-1.8-2.4-2.8-4.2-1.7-1.9-2.2-3.3-3.9-5.3.2.2 0-.2 0-.2-.7-1-1.4-2-1.6-2-.5-.6-.3-.5-.3-.7l-1-1 .2.2-1.1-1.6v.4c-.5-1 0-.4-.5-1.1h-.1c-.8-1.2-1.1-2-1.9-3.1l-3.3-4.7-.8-1.2-.4-.5-.2-.2-.7-1 1.1.7zm-3-1.8c.4.7.9 1.5 0 .3l-.3-.4v-.1l.2.2zm59.7 42.6zm-415 31-.4-.7.5.7zm-2-63v1.9a10 10 0 0 0 .4 2 10.3 10.3 0 0 0 1.8 3.9 10 10 0 0 0 7.2 3.8h4.5l4.9-.1h9.5-.3 7.4l-.2-.1h11c5.5-.2 8.8.2 14.5 0h.3c2.6 0 5.4 0 5.5-.2 1.9 0 1.5 0 1.8.2l3.1-.1h-.7 4.3l-.8-.2c2.3 0 .6.2 2.8.2v-.2c3 0 5 .2 8 .3h21.8c.8 0 1.7-.1 2.5-.3a9.9 9.9 0 0 0 4.5-2.2 9.7 9.7 0 0 0 2.7-4l.6-2.4V151l.1-.5c.2-.2-.2-3.2 0-3.7l-.1-1.4v-2.7l.1-1.4v-20.2a9.8 9.8 0 0 0-10-8.7h-6c-9.6.3-20.8-.2-30.7 0H181s-44 0-10.6 1h-.2 11.5c.5.2 4 0 5.2 0 3 0 6.2.2 9 0l-.8.1h20.6-.2l4.5-.1h7.8a9.6 9.6 0 0 1 2.4.3c.5-.1 2.9.8 4.7 3 .8 1 1.5 2.1 2 3.4.3 1.3.3 2.8.3 4.2 0 1.3-.1-1.2 0 .8-.2 0-.1-1-.2-.4v5.7h-.1v8.2c0 3.3-.2 2.2 0 5.7l-.2 1.3c0 1.5.2 1 .1 2.7 0-.1 0 2-.1 1v2.9c0 .9 0 1.8-.3 2.7a8.1 8.1 0 0 1-3.7 4.7l-1.8 1-1.1.3-.8.1h-2.1.9c-2.7-.2-5 0-7.7 0h1.1-2.5.5-3.7.5c-1.9 0-2.5-.2-4.6 0h-11.1c-3.3 0-1.2-.2-4.6-.1h-.6c-3 .2-1.6 0-5 .1 1.4 0 .7.2-1 .1h.5-2.8l.8-.2-2.5.1h-10.8c.8 0-1.5 0-.8-.2-1.1.1-4.3.2-5.6.1h.3c-4.7-.1-8 .1-12.3 0 .2.1-2 0-1.4.2-4.4 0-8-.3-9.6 0h-3.4.5-7.5c-1.4 0-1.6.2-4.1.1.4 0 .3 0 0 0a8.5 8.5 0 0 1-1-.2l-.5-.1a9.5 9.5 0 0 1-.6-.1l-1-.4.5.2.2.1c-.8-.2-1.7-.7-2.4-1.3a4.8 4.8 0 0 1-1.3-1.2 9 9 0 0 1-2.3-5.2l-.2-5.6c.1-.5.1.4.2 1.6v-2.8 2.4-11.5l-.1-1.4.1-1.9v-6.2c0 1-.1.7-.1.3v-5.2 1.7-2.8l.2-.8.1-.8.4-1c.7-1.8-.3.2 0-.6a8.6 8.6 0 0 1 1.5-2.2 7.4 7.4 0 0 1 2.1-1.8l-.6.3a9 9 0 0 1 3.9-1.6h3.4c25-.7 5.3-1 5.3-1h-6.7c-2.1-.1-4.3.4-6.1 1.6a10 10 0 0 0-4.5 9.2v4l-.2 23.8z"/><path d="M195.7 160.9h.3zm-56.6 20.2a3.6 3.6 0 0 0-3.6 3.6v16.2a3.6 3.6 0 0 0 3.6 3.6h16.2a3.6 3.6 0 0 0 3.6-3.6v-16.2a3.6 3.6 0 0 0-3.6-3.6h-16.2zm18.8 3.6v16.2a2.6 2.6 0 0 1-2.6 2.6h-16.2a2.6 2.6 0 0 1-2.6-2.6v-16.2a2.6 2.6 0 0 1 2.6-2.6h16.2a2.6 2.6 0 0 1 2.6 2.6zm-22.4-55.6v16.2a3.6 3.6 0 0 0 3.6 3.6h16.2a3.6 3.6 0 0 0 3.6-3.6v-16.2a3.6 3.6 0 0 0-3.6-3.6h-16.2a3.6 3.6 0 0 0-3.6 3.6zm22.4 0v16.2a2.6 2.6 0 0 1-2.6 2.6h-16.2a2.6 2.6 0 0 1-2.6-2.6v-16.2a2.6 2.6 0 0 1 2.6-2.6h16.2a2.6 2.6 0 0 1 2.6 2.6zm26.8-2h-3.1c-1.3-.2-3.6 0-5 0-1.9.3-4-.3-6 0h-2s-8.7 0-2.1 1h2.2c.1.2.8 0 1 0 .6 0 1.2.2 1.8 0l-.2.1h4l1-.1h2.3-.3c0-.2.6.1 1.2 0 .5 0 1-.4 1.6-.3.3 0-.2.2.2 0l-.1.2h1v.1h1.7c.6 0 .4.2 1 0l.4.2h3l.9-.1s1 0 .4.1h-.2c.5.2 1 0 1.5 0h-.2.5-.1.7c.3 0 .4.2.8 0 .2 0-.3 0 0 0h2.2c.7 0 .3.2 1 .1.6-.2.4 0 1-.1-.3 0-.1-.2.2-.2v.1h.5l-.2.2.5-.1h2.1c-.1 0 .3 0 .2.2.2-.1.8-.2 1-.1h2.4c0-.1.4 0 .3-.2.9 0 1.6.3 1.9 0h.7-.1 1.5c.2 0 .3-.2.8-.1h.2c-.1 0-.2 0 0 .1h.5v-.1h3.1-.3.5l-.4.1h2.2l.3-.2c.1.1 0 .2.4.2h1.2c-.2 0-.1-.1 0-.1h1-.4 1.1c.4 0 0 0 .2-.1h1v-.1h1.4c5-.7 1-1 1-1-1.9-.1-2.9.1-5.2.2l-4.6-.1h-8.2v.2h-2.1c-1 .2-1.7-.2-2.9 0 .2 0 0 0 0 0l-1 .1h-1.1.2-.9l.2.2c-.5 0-.1-.2-.5-.2v.1c-.7 0-1-.2-1.6-.3-2.5 0-5.2.3-7.5 0h-.1c0-.2-.7.2-.8 0l-.2.1h-.6zm37.5 56.1c-2-.2-3 0-5.2.1l-4.7-.1h-3c-.5.2-1.4 0-1.9.1h-1.9.1-1.4c-1 0-1.3.2-2.2 0-1 .3-1.7-.1-2.8.1.1 0 0 0 0 0l-1.2.1h-.9.1-.9l.2.1h-.5c-.6 0-1-.2-1.6-.3-2.5 0-5.2.3-7.5 0h-.1c0-.2-.7.2-.7 0l-.3.1h-.6l-.2-.1h-3c-1.2-.1-3.6 0-5 .1-1.8.2-4-.3-6 0 0-.1-.2 0-.2 0H169s-8.6-.1-2 1h-.1 5.1-.2 4.9c.4-.2 1.2 0 1.5-.1h.8-.3c.1-.2.6.1 1.2 0 .5 0 1.1-.4 1.6-.3.3 0-.2.2.2.1 0 .1-.2 0 0 .1h1v.1h1.7c.6 0 .4.2 1 0l.3.2h4.4l-.1.1h1.5c-.2 0-.4 0-.2-.1h.5-.1.7-.1c.4 0 .5.2.9 0 .2 0-.3 0 0 0h2.3c.6 0 .2.2.9.1h.1c.6-.2.3 0 1-.1-.3 0-.2-.2.2-.2l-.1.1h.5l-.1.2.5-.1h2.1c-.2 0 .3 0 .2.2.2-.1.8-.2 1-.1h2.4c0-.1.4 0 .3-.2.9 0 1.6.3 1.9 0h2c.3 0 .3-.2.8-.1h.2l.1.1h.2c.3 0 .2 0 0 0 .1 0 0 0 0-.1l1 .1 2.3-.2-.3.1h.5-.5c.7.2 1.4 0 2.1 0h2.1c-.2 0-.2 0 0 0h.9-.3 1.1c.4 0 0 0 .1-.1h1.1l-.1-.2h1.5c4.9-.6 1-.9 1-.9zm-1 10.4c4.9-.7 1-1 1-1-2-.1-3 .1-5.2.2l-4.7-.1h-3l-1.9.1h-3.3c-.9 0-1.2.2-2 0-1.2.3-1.8-.1-3 .1.2 0 0 0 0 0l-1 .1H197h.2-.9l.2.1h-.5c-.6 0-1-.2-1.6-.3-2.5 0-5.2.3-7.5 0h-.1c0-.2-.7.2-.8 0l-.2.1h-.6l-.2-.1h-3c-1.2-.1-3.6 0-5 .1-1.8.2-4-.3-6 0 0-.1-.2 0-.2 0H169s-8.6-.1-2 1h-.1 5-.1 4.9c.4-.2 1.2 0 1.5-.1h.8-.3c.1-.2.6.1 1.2 0 .5 0 1-.4 1.6-.3.3 0-.2.2.2 0 0 .2-.2.1 0 .2h1v.1c.7-.1 1.2.1 1.6 0 .7 0 .5.2 1.1 0l.3.2h3.2l.8-.1s1 0 .4.1h-.1c.5.2 1 0 1.5 0h-.3 1.2-.1c.3 0 .5.2.9 0 .2 0-.4 0 0 0h2.1c.7 0 .3.2 1 .1.7-.2.4 0 1-.1-.2 0 0-.2.3-.2l-.1.1h.5l-.1.2.5-.1h2.1c-.2 0 .3 0 .2.2.2-.1.8-.2 1-.1h2.4c0-.1.4 0 .3-.2.8 0 1.5.3 1.9 0h2c.3 0 .3-.2.8-.1h.2l.1.1h.2c.3 0 .2 0 0 0v-.1l1 .1 2.3-.2-.3.1h.5-.5c.7.2 1.3 0 2.1 0h.8c.3.2.9 0 1.3 0-.2 0-.2 0 0 0h.9-.3 1.1c.4 0 0 0 .1-.1h1.1l-.1-.1h1.5zm-27.5-56.8c2.6-.7.6-1 .6-1-1-.2-1.6.1-2.8.2l-2.4-.2h-1.6c-.3.2-.7 0-1 .2v-.1h-1.7v.1h-1.2c-.5.2-.8-.2-1.4 0-.3 0-.6 0-.6.2l-.2-.1h-.7v.2c-.2 0 0-.2-.2-.1l-.9-.2c-1.3 0-2.7.2-4 0 0-.2-.3.1-.3 0h-.2s-.1 0 0 0h-1.9c-.7-.2-2 0-2.6 0-1 .3-2.2-.2-3.2 0h-1.1s-4.5 0-1 1h1.1c.1.2.5 0 .6 0 .3 0 .6.2 1 0l-.2.1h2.2c.2-.2.2 0 .4-.1s.6 0 .8 0h.4-.1c0-.2.3.1.6 0 .2 0 .5-.4.8-.3.2-.1 0 .1.1 0v.2h.6v.1c.3-.1.6.1.8 0 .4 0 .3.2.6 0l.2.2c.1 0 0-.2.2-.1h.1c.4.2.8 0 1.3.1l.4-.1s.5 0 .3.1h-.1c.3.2.5 0 .8 0h-.1.6c.1 0 .2.1.4 0 0 0-.2 0 0-.1l1 .1h.1c.4 0 .2.2.5.1v-.1c.4-.2.2.1.6 0-.2 0-.1-.2 0-.2h.2l.1.2h1.3c-.1 0 .1 0 0 .1h1.9c0-.1.2 0 .1-.2.5 0 .9.2 1-.1l.4.1h.7l.4-.2.1.1h.2c.1 0 0 0 0 0h.5l1.2-.1-.2.1h.3-.2c.3.2.7 0 1 0h.1l.2-.1s0 .2.2.2l.6-.1h.6-.2.6c.2 0 0 0 0-.2h.6a1.1 1.1 0 0 1 .7 0z"/><path d="M479 478.8h.2-19 .1H450h1-6c-5.7 0-13.7-.1-17.4 0h.3-5.3c-2.3.2-6.7 0-8.6.1h-4.6 1.7c-.6.2-3.5-.1-6.8 0-3 0-6.2.4-9.4.3-1.6 0 1.3-.2-1 0 0-.2 1-.1.5-.2h-6.5v-.1c-3.7.1-6.9-.1-9.3 0-3.7 0-2.5-.2-6.4 0l-1.5-.2h-5.9v-.8a4.8 4.8 0 0 1 0-.6l-.3-2.4.1.3v-.3l-.2-.6c-.5-3.2 0-1.8-.6-5.3.1 1.4-.1.6-.3-1.1l.1.4c0-1-.1-1.3-.2-1.9v-1.1l.2 1-.4-2.7c-.1-2.1-.6-5.3-.6-6.2l-.6-5.4c.2.8 0-1.6.1-1-.2-1-.6-4.4-.6-5.8v.2c-.4-5-1-8.5-1.3-13-.1.2-.3-2.2-.3-1.6-.6-4.7-.7-8.5-1.2-10.2l-.3-3.6.1.5-.8-8c-.2-1.5-.4-1.7-.6-4.4l-.1-1.2v-1.2a8.2 8.2 0 0 0-.2-.7v.3c0-1.7-.5-4.8-.4-5l-1.4-12.6.3 1.7-.4-3 .4 2.7c-.3-3.5-1-7.2-1.2-11.3l-.2-.8v-.3l-.2-1.5c0-.6.2 0 0-2l-.8-6.6v.3l-.3-2.4h.1l-.4-3c0-.7.2 1.5.3 1.7l-.6-6c-.3-2.2 0 .3-.3-.7l-.6-6v.8c-.4-3.6-.7-5.8-.8-8.2l-1.7-12.4h-.3c0 2.2.5 6.9.5 6.9.9 10.5 1.6 15.9 3 28.4l2.4 25.4 1.7 16.5 1.2 10v1.2l.4 3.2.4 4 .2 1.8v-.3a249.3 249.3 0 0 1 .8 7.9v-.2l1.2 11.8c.8 5.8.8 9.3 1.6 15.4v.3c.3 2.8.6 5.8.8 5.8.2 2 0 1.7 0 2l.5 3.4-.1-.8.5 4.6v-1l.2 3h.1l.1 1.4v.2h-4a4.5 4.5 0 0 1 0-.2l-5.7-40.6v-.6c.1-.2-.6-3.4-.6-4l-.2-1.4c0-.4-.2-1.2 0-.5l-.4-2.4-.1-1.4-2.2-15.5c-.8-6.8-2.7-19.4-3.8-26.7-1.6-10.3-2.7-22.3-4.4-32.8v-.8c0-.3-.2-.4-.2-.4l-1.3-9.7-2-13.6 6-.2 1.9-.1h-2.6c35-.6-.4-.8-.4-.8-21.1-.2-32 0-57.2.2l-50.9-.2h-33.3c-5 .2-14 0-20 .2l-2.4-.1a180.3 180.3 0 0 1-6.6 0h.1-11.7.7-15.9l.4.2h-23.7l.1-.1c-11.9.2-18.8-.2-31.1 0h-8.6c-2.2 0-3.7.1-3.8.2-4 0-3.3 0-3.9-.1h-6.7 1.4-4.6a11 11 0 0 1-4.3-.8l1.6.7a8 8 0 0 1-2.7-1.2c-.2-.2-.5-.2-2.2-1.7a10.7 10.7 0 0 1-3.3-7.5h89.5l1 .1c.5.2 7-.2 8 0l3-.1h1v.2H171c0 .2 1-.1 1.1 0h13.5v-.1h11l54-.1h118.7v.6a11.2 11.2 0 0 1-8.8 9.9l-1.2.2h-.9c-.4.1-.5.2-.2.2l2.2-.1a11.4 11.4 0 0 0 9.2-8.3 8.3 8.3 0 0 0 .3-1.2l.2-1.3v-.5l-.4-.3h-2.2l-6.3-.2h.5-35.9.3-19.7 1.9l-11.2-.1-33 .1h.5-10.1c-4.4.2-12.7 0-16.2.1h-8.8 3.2c-1.1.2-6.5-.1-12.8 0-5.8 0-11.9.4-18 .3-2.8 0 2.6-.2-1.7-.1-.2-.1 2 0 .9-.1h-12.2l-.2-.1h-3.2v-.8c-.4-3 0-6.7-.4-9.8a1.3 1.3 0 0 0 0-.4l-.1-2.8s-.2-5-.5-6.7h.1l17.6-.1h-.3 18.7-1.7c.6-.2 3.4 0 6.8 0 3 0 6.3-.4 9.5-.3h1c0 .1-1.1 0-.5.2h11.7c1.7 0 3.1-.8 4-1.6a7.8 7.8 0 0 0 2-2.7 5.5 5.5 0 0 0 .4-1.2l.1-2.2.1-1.5v-9.6h-.8c.2-.4.4-4.2.7-13.7v.2-28.5.9l.1-5.8v-11.3h.5l.2-.2v-.2h.4v-.1s0-.2.1-.1c0-.3.2 0 .2-.2 0 0 .1 0 0-.1h.1v-.2s0 .1 0 0l.3.2c.2 0 .3-.4.5-.3.1.1 0-.2.1 0v-.1h.1l.2-.2c.2.1.3 0 .3-.2 0-.3.5.1.5-.2h.2s.7-.4-.3-1h-.4c0 .2-.1 0-.1.1h-.2s-.2 0-.1.2l-.2.1c0 .2-.1 0-.1 0s.1.5 0 .4c0 0 0-.1 0 0l-.1-.2h-.1c0 .1-.2 0-.1 0 0 .1-.2-.1-.2 0h-.1c-.1-.1 0 .1-.2 0v.2l-.1-.1c-.1-.2 0 0-.1 0h-.2l.1.2-.2-.1c0 .1-.1-.1-.1 0v.2l-.1-.1v.1h-.2s0 .1 0 0c-.1 0 0 .2-.2.1v.2c0 .1-.1-.2 0 .2l-.1-.1h-.1v.2c-.1 0 0 0 0 0h-.2v.2l-.2-4.7v.2-18.1 1.7c0-.3 0-1.2-.3-2.4a6.4 6.4 0 0 0-2.5-3.7c-1.3-1-3-1.4-4.6-1.2l-4.6.2c-1.5 0 1.3-.2-1-.1 0-.1 1 0 .5-.2h-3.5v-9.9c0-1.1 0-2.3-.4-3.4-.7-2.2-2.2-4.1-3.8-5.2a9.2 9.2 0 0 0-4.3-1.5H228c.3.2 1.5.1 3.5 1a8.8 8.8 0 0 1 5.3 7.6l-.1-.3v6.9l.1 5.7v5.7-.1c0 3.3-.2 6.8 0 10l-.1-1v5c0 .4-.1.6-.2.6a8.6 8.6 0 0 1-9.1 7.2l-3.3.1h.2-17.9 1.6c-.5.2-3.3 0-6.5 0-3 0-6 .4-9.1.3h-.9c0-.1 1 0 .5-.2h-6.3c-3.6 0-6.7-.2-9 0-3.6 0-2.4-.3-6.1-.1l-1.5-.1H151l-1 .7-1 .8-1.7 1.2c-.1 0-4.3 3.1-2 1.3l.6-.4.2-.2c-2.5 1.6-4.4 3.2-6.8 5l1-.8-2.2 1.6.4-.4-1.7 1.2-.8.6-.2.1h.1l-.2.2v-.6a28.1 28.1 0 0 0 0-2.1V217l-3.5-.1h-1.6c-1.7 0-2-.3-2.3-.4l-2-1 .2.1-.8-.3c-1.3-1-1.5-1.3-1.7-1.7l-.5-.7-.8-1.6c.2.6.3.8.1.6l-.2-.5a4.4 4.4 0 0 1-.4-1l.2.4c-.2-1-.3-1.2-.3-1.9v-1l.1.9-.1-2.7v-11.9c0 .9 0-1.6.2-1a75 75 0 0 1-.1-6v.3-10c.1-1 .4-2 .8-3l.4-.8.3-.6c1.2-1.9 3.2-3 4.8-3.3.8-.3 1.5-.3 2.2-.3l1.6-.2 3.7.1h-.5 8.3c1.5 0 1.7-.2 4.4-.1h3.1-.2 5l13-.1-1.7.1h3-2.7c3.6.2 7.4 0 11.6 0h1.1l1.5-.1c.6 0 0 .2 2 .2l6.9-.1c-1.2 0-.8 0-.3-.1h2.4v.1h3.2-1.9 6.2c2.3 0-.4-.1.7-.2h6-.6 8.3c27.4-.7 5.8-1 5.8-1-10.8-.2-16.3 0-29.2.1l-26-.1h-17c-2.5.2-7 0-10.1.1h-8.7a11.3 11.3 0 0 0-2 .5 4.5 4.5 0 0 1 .4-.1 10 10 0 0 0-6.3 5.5l.2-.2a9.2 9.2 0 0 0-1 3.6v2.8a167.7 167.7 0 0 1 0 5.9v-.1 2.3h-6.3c.2 0-2.2 0-1.6.1-4.8.1-8.8-.2-10.6.1h-3.7.5-2.6a7.4 7.4 0 0 0-3.8 1A6.7 6.7 0 0 0 91 191a5.5 5.5 0 0 0-1 1.6c-.2.6-.5 1.4-.5 2.8v1.3c0-.7-.1-.9-.2.5v.8c0 1.7.1 1.4.1.6v-.3 5.2l.1 13.1-.1-1.8v3-2.6c-.2 3.6 0 7.4 0 11.7v1.1l.1 1.6-.1 2v7c0-1.3 0-.9.1-.4v2.5h-.1l.1 3.2-.1-1.9v6.3c0 2.2.1-.4.2.7v6.2-.7c.2 3.7.2 5.9 0 8.4l.6 13.5h-.8v8.1c0-1.2 0-.8.1-.3v3.9c0 .9.2 1.8.3 2l-.2-.6-.2-1.4c0 1.1.3 1.9.4 2.3l.4 1 .6 1a6.4 6.4 0 0 0 1.8 1.5c2.1 1.1-.4-.2.7.2 1 .5 2 .7 3 .7h3.3-.7c3.8-.1 6.1 0 8.7 0 28.5-.7 6-1 6-1H95.9a5 5 0 0 1-3-1.1 5.7 5.7 0 0 1-2-3c-.3-.7-.3-1.3-.3-2v-10.1l7.7.1h28.1c2.7-.2 7.4 0 10.6-.1h4.8-.1 6.3-.4a299.2 299.2 0 0 1 8.4 0l-.2-.1h12.6-.1c6.3-.2 10 .2 16.6 0h.2c3 0 6.3 0 6.3-.2 2.2 0 1.8 0 2 .2l3.7-.1h-.8 4.9l-1-.2c2.6 0 .7.2 3.2.2v-.2c3.5 0 5.6.2 9.1.3H253v2l-.2.7c-.1.2.2 3.7.1 4.2v4.6l-.5 1.4a5.8 5.8 0 0 1-2.4 2.8 6 6 0 0 1-3.5.9H238c-7.2-.1-20.8 0-28.6.1-8 .1-17-.1-25.6-.1l-1.8-.2c-3.1-.2-4.8 0-8.5.1-3.2 0-4.1-.2-7.5-.1h-5a5.8 5.8 0 0 1-.8.1h-1.7v.1c-11.1 0-39.1.2-8 1h-.2 8.2v.6l-.1.3v2.1l-.1.6v-.1 2.3c-.1 1.5 0 2-.2 3.5.2 1.7-.3 2.7-.1 4.6 0-.3 0 0 0 0v3.4-.3 1.4-.3 1l-.1 1v.4H148c-7.9-.2-16 0-26.4-.1l-9.2.1H108h1.4l.7-.2-16.7.1h2.5-5.4 1.1-8.1 1.1-9.8c-2 0 3.7 0-.5.1h-9.4l-8-.1h-2.2c.6-.7-.8.8-.7.6v.5c.1-.7 0 1.3.7 3.2v.2a12 12 0 0 0 1.7 3.3l1 1.2 1 1c.5.4 1.3 1.2 2.9 1.9l1.5.4c1.6.5 2.7.4 3.5.5H68a82.3 82.3 0 0 0 7.7-.1h-.9 3.9c-1 0-.7 0 .9.1l-.6.2h.6l-.8 6c-1.2 10.5-1.5 16-2.8 28.5l-2.7 25.3-1.6 16.6c-.1 2.5-.7 7-1 10l-.1 1.1a51.6 51.6 0 0 1-.3 3.3v-.1l-.4 4-.2 1.8v-.3l-.8 7.9.1-.2c-.6 5.2-.6 7.1-1.2 11.8-.4 5.9-1 9.3-1.5 15.4 0-.7 0 .4-.1.3a33 33 0 0 0-.4 6c-.2 2-.2 1.6-.3 1.8l-.3 3.4v-.7l-.3 4.6.2-.9-.5 3h.2l-.2 1.6h-.2c.3 0-.6 0-.3-.1H62c-1.8 0-3 .2-4.7 0 0 .2-.8.1-.6.2-1.7.1-3-.2-3.7.1h-1.3.2-7.4l-4.6.1h.6-1c0-.2.6-.1.9-.1-1.3-.2-2.6.1-4.1 0h-.4l-.6.1-.7-.1h-2.4c.4 0 .3 0 .1.1h-.8v-.1l-1.2.1h.7-2.4c-.7.1-1.4.2-2.2.1l.2.1h-3c-9.6.6-2 .9-2 .9 3.8.2 5.8 0 10.4-.1 4 0 5 .2 9.2.1h6c1-.2 2.5 0 3.6-.1h6.5-.1c1.9 0 2.6-.2 4.3 0 1-.2 2-.1 2.9 0H66l2.4.1h1.8v-.3h1-.2 1.7l-.3-.2c.9 0 .2.2 1 .2v-.2c1.3 0 2 .2 3.2.3 4.9 0 10.2-.2 14.8 0l.2.1c0 .1 1.2-.2 1.4 0l.5-.1h7.3c2.4.2 7 0 9.7 0 3.8-.3 8.2.3 12 0h4s17 0 4-1h.2-10 .3l-2-.1-6 .1h.1-6.3.6c-.2.2-1.2 0-2.3 0-1.1 0-2.2.4-3.3.3h-.3c0-.1.4 0 .1-.2h-2.2c-1.2 0-2.3-.2-3.2 0-1.2 0-.8-.3-2.2-.1l-.5-.1h-8.7.2l.2-.1c-1.1-.2-2 0-3 0 .3 0 .7 0 .4.1h-1 .2l-1.5-.1h.2-1.7c-.4 0 .6.1-.1.1l-3.7-.1c.1.1-.2 0-.5.1-1.3 0-.5-.2-1.8-.2l-.3.2c-1.1.1-.6-.2-1.9 0 .4 0 .3.1 0 .1v-.2L76 438l.2-.6.4-4 .2-1.4.1-.5.3-2.4.3-1.5 2-15.5c1.2-6.7 2.7-19.4 3.7-26.7 1.2-10.3 3.3-22.2 4.6-32.8a15.3 15.3 0 0 0 0-.7v-.5l1.4-9.6 1.8-13.5h16.7c-1.8 0 3 0 1.7.2 2.3-.1 9-.2 11.8-.1h-.5H147c-.4-.1 4.4 0 3.2-.2 9.4 0 17 .3 20.4 0h7.3-1H193c3 0 3.4-.2 8.7-.1h2.5c-1.3 0-1.7 0 .9.1h1.5a20.4 20.4 0 0 0 .7-.1l10 .1 25.3-.2-3.4.1h6-5.3c7 .2 14.5 0 22.7 0h9.2c3.2.2 9.1 0 13.3 0h-.5 10.9-3.6 12.2c4.4 0-.8 0 1.3-.1h12l-1.4-.1h22l.3 2.7v-.3c.6 5.3 1 8.6 1.7 12.3l.7 5.5c.6 3.1.8 6.6 1.3 9.6l-.2-.9c.3 2.3.8 5.4.7 5.6l2.4 16.3v-.2c.4 2 .4 2.5.7 4.7v.3l1.2 8v.1l.5 4.3-.2-1.6c.3.5.4 3.2.9 6.3.4 3 1.2 5.8 1.5 8.9.3 1.4-.3-1.3 0 .9 0 0-.2-1-.2-.5.4 2.1.4 3.5.8 6v.2c.6 3.4.8 6.4 1.2 8.7.5 3.5.1 2.3.8 6v1.4c.3 1.5.3 1 .5 2.8 0 0 .3 2.2 0 1.2.5 4 1.3 8 1.8 13.1.3 1.1.6 3.7.8 4.5 0 .2.7 5.2.2 2.3v-.6l-.2-.4c.3 3 .8 5.4 1.2 8.3-.1-.9-.3-2-.1-1.3l.4 2.7-.2-.5.5 4v-.5c.3 2 .2 2.6.6 4.9.2 1-.1-2 .2.2l.7 5.9h-13.3.7l.4-.1c-3.1-.2-5.7 0-8.8 0h1.3-2.8.6-4.3.6-5.2c-1.1 0 2 0-.3.1l-10.5-.1h-1.7c-3.9.1-1.5-.2-5.2 0l.3-.1-1 .1c-3.4.2-1.8-.1-5.6 0 1.5 0 .7.2-1.1.2h.4-2c.6 0 .3-.1-1.2-.1l1-.1-2.8.1h-12.3c1 0-1.7-.1-1-.2h-6.2.3c-5.3 0-9.1.2-13.9 0 .2.2-2.3.1-1.7.2-5 .1-9-.2-10.8.1h-3.8.5-16.4.3-5.2l-13.4.1h1.8-3.1c0-.2 1.8-.1 2.7-.1-3.7-.2-7.6.1-12 0h-1.1l-1.6.1-2-.1H192c1.2 0 .8 0 .3.1h-5.8 1.9-7.1c-2 .1-4 .2-6.4.1h.8c-3.8.2-6.1.1-8.7 0-28.3.7-6 1-6 1 11.2.2 17 0 30.3-.1l26.8.1h17.6c2.7-.2 7.4 0 10.6-.1h4.7-.1 6.2-.3 8.3l-.2-.1h12.5c6.3-.2 10 .2 16.4 0h.3l6.2-.1h5.7-.8 4.9l-1-.2c2.6 0 .7.2 3.1.2v-.1c3.6 0 5.7.2 9.1.3l37.3-.1v.4h6.4a3 3 0 0 0 0-.3h.2c.2.1 3.7-.2 4.2 0l1.5-.1h21.2c7.1.2 20.7 0 28.4 0 11-.3 23.7.3 35 0H467s49.8 0 12-1zM249 276.3h-5l-4.9.1c-.1 0-5.6 0-2.4-.1h1c-3.1-.2-5.7 0-8.8 0h1.3-2.9.6-4.3.6c-2 0-2.8-.2-5.2 0h-12.6c-3.9 0-1.4-.2-5.2-.1h-.7c-3.4.2-1.9 0-5.7.1 1.5 0 .7.2-1.1.2l.5-.1h-3.3l1-.2-2.8.2-6.6-.1h-5.8c1 0-1.6 0-.9-.1h-6.3.3-14c.2.1-2.3 0-1.7.2-5 0-9-.3-10.8 0h-3.9.5-8.6c-1.6 0-1.8.2-4.6.1h-3.3.3-5.3l-13.5.1 1.8-.1h-3 2.7c-3.7-.2-7.7 0-12 0h-3.9c.2-1.8.2-7.8.2-7.8.2-10.9 0-16.5 0-29.5v-43.5c0-.6 0-1.3.3-2a5.7 5.7 0 0 1 1.2-2c.5-.7 1.3-1.2 2-1.5a6.4 6.4 0 0 1 2.2-.5h10.7-.4 8.2-.2a192 192 0 0 0 6.3 0c0 4-.1 7.3 0 12.3v.2c0 3 0 6 .2 6v2.1l.5 1.1c.2.7.6 1.5 1 2.2a9.3 9.3 0 0 0 3 2.9 5 5 0 0 1-.7-.7l1 .7.3.3c.1 0 .2 0 .3.2s.5.2 1.1.4v-.1c1.5.5 2.8.6 4 .6h1.7l.8.1h.4v12.1l16.9-12.1h11.7l.6.1c.2.2 3.6-.2 4 0h22c7 .1 20 0 27.5-.1h8.2c1.4 0 2.8 0 4.3-.2s3-.8 4.2-1.7c2.5-1.8 4-4.8 4-7.9v-18.6h9.1a6.2 6.2 0 0 1 1.7.3c1 .4 2 1 2.8 2a5.8 5.8 0 0 1 1.3 3.1v3.7l.1 6.6c.2 10.7-.3 23.1 0 34.1a10.4 10.4 0 0 0 0 .8v10.5s0 24.3.3 25.5l-4.3.1zm-89.8 37.2v-.2c-.2-1 .1-.5 0-1.5 0 .4-.2.2-.2-.4v.2-.6c.1.2.2.1.2-.3v.3-.8l.1-1.9s.1-1.3 0-1.6c0 .3.1-.4.2-.2a6 6 0 0 1 0-1.8v.1c.2-1.5 0-2.6.2-3.9-.1 0 0-.6-.1-.5 0-1.4.3-2.5 0-3l.1-1v.1-1.3h2l1.7-.1h6.2-.2 2.3a8.4 8.4 0 0 0 .7 0h7.4l-1 .1h5.5l-.3 3.4c0 1.5 0 2.5.2 3.6-.2.1 0 1.3 0 1.6v2.9-.3 1.7c.1 1.6.2 3.8.4 4.8v1.4l.1 1v.4h-13.2c-.1 0-.2 0 0 0h-6l.1-.1H164a80.9 80.9 0 0 0-3.5 0h-1.4v-.2c-.1.1-.1-.2-.1-.4 0-1 .2-.4.2-1.5zM80 328.3h1-1zM69.2 478.7zm20.6-148.3v-.2c-.8 5.3-1.3 8.6-1.6 12.2-.3.6-.6 4.4-.9 5.6v-.1c-.3 3.2-1 6.6-1.3 9.7v-1l-.7 5.6-2.1 16.4v-.3l-.6 4.8v.3c-.3 2.1-1 6.2-1.1 8l-.7 4.3.3-1.6c0 .6-.6 3.2-.9 6.3-.4 3-.4 6-1 9 0 1.4.1-1.3-.1.9-.1 0 0-1-.1-.5l-.9 6v.1c-.4 3.4-1 6.4-1.2 8.7-.4 3.5-.6 2.3-1 6l-.2 1.4c-.2 1.5 0 1.1-.3 2.8 0 0-.4 2.2-.3 1.2-.6 3.9-1 8-1.8 13 0 1.2-.5 3.8-.5 4.7 0 0-.7 5.2-.5 2.2l.1-.6v-.4c-.5 3-.6 5.4-1 8.3 0-1 .2-2 .2-1.3l-.4 2.7v-.6l-.6 4 .2-.5c-.3 2-.6 2.7-.8 4.9 0 1 .4-1.9.1.2l-.9 6-.6.1h-3.1v-.7l.2-.6.3-2.4v-.7c.1-3.2.3-1.7.4-5.3 0 1.4-.2.7 0-1v.4l.2-2c0 .7 0 .4.2-1v1l.1-2.7.7-6.2.5-5.5c0 1 .3-1.5.3-.8l.5-5.9v.3c.6-5 .8-8.6 1.3-13.1 0 .2.2-2.2 0-1.6.4-4.7 1.2-8.5 1-10.2l.4-3.6v.5l.8-8.1c.1-1.5 0-1.7.3-4.4 0 .9 0-.2.2-1.2v-.4l.1-.8c.2-1.6.1-1.3 0-.6v.3l.6-5 1-12.6c.2-.5.1.5 0 1.7l.3-3-.2 2.7c.5-3.5.6-7.2 1.2-11.3v-2.6c.2-.6.2 0 .4-2 .3-1.6.5-4.5.6-6.6-.1 1.1-.1.7 0 .2l.2-2.3v-.1l.3-3v1.8l.5-6.1c.2-2.2-.1.4 0-.7.1-1.9.2-3.7.5-6l-.1.8.8-8.2.8-11.7 4.4-.1h5.8l-.3 2.1zm111.4-54.2h.3zm-42 37.4zm8.9-27h-.1z"/><path d="M168.3 286.9c0-.1.2-.1.2 0h-.1v.2l.1.1.2.4.2.3v.1l.3.3c.2.3.5.3.7.5h.2c.3 0 .5.4.7 0l.2.2h1.3l.8-.5-.1.2.2-.1-.2.1c.3 0 .4-.3.7-.4v-.2c.1 0 .1.2.2 0 .2 0 .2-.2.3-.3v-.2l.1.1v-.2c.1 0 0 0 0 .1l.3-.3c0-.2-.1 0-.2-.1 0-.1 0-.3.2-.4h-.1c0-.2 0-.3.2-.4-.1-.5-.3-.7-.4-.8h-.3l-.2.3c-.3.4-.1.7-.4 1.2l-1 .5a4 4 0 0 1-.7.2c0 .1-.3 0-.4 0h-.4l-.4-.2v.1c-.2-.2-.4-.1-.5-.3-.3 0-.1-.4-.4-.5 0-.2-.1-.3-.3-.2v-.2l-.1-.3-.2.1c0-.1.2 0 .1-.2l.2-.4v-1c.1-.3.3-.6.6-.7.2 0 0-.2.2-.2v-.1h.2c.2 0 .3-.3.6-.4h1.3c.2-.1.5 0 .7.3l.5.5a1.4 1.4 0 0 1 .3.4l.4.8c0 .2.2.3.3.3.1 0 .4-.2.5-.9 0-.3-.1-.6-.3-.7.1-.1-.2-.3-.2-.4-.2 0-.1-.4-.4-.5h.1c-.1 0-.3-.2-.2-.3-.3-.2-.8-.5-1-.4h-.9v-.2h-.3c0 .2-.1 0-.3 0-.2 0-.4.5-.5.4 0 .1 0-.1-.1 0v-.2l-.4.1c-.2.2-.5 0-.5.3-.2.1-.3-.1-.4.1h-.2v.2s-.2.1-.2 0c-.3.1-.3.5-.6.7v.4s-.2.3-.2 0c-.2.1-.1.4-.2.5h.1v.2l-.2.2v.3s0-.1.1 0l-.1.7.1.1c0 .3-.2.1 0 .4.2.2-.1.2.2.3zM66 475v.3zm223.6-146.8zm-228.1-.7-.3-.1-.4-.1.7.2zM131 295c.2 0 .5-.2.5-.5s-.3-.5-.5-.5h-2.2c-.3 0-.5.3-.5.5s.2.5.5.5h2.2z"/></g><path xmlns="http://www.w3.org/2000/svg" d="M513.1 324.9v.1-.1zm-276-109.4v.1-.1z"/><path xmlns="http://www.w3.org/2000/svg" fill="#fff" d="M379.7 140.2c-.9-1-5-8.2-11.8-12a15.4 15.4 0 0 0-13-.8l-2-4.2-.4.2a9 9 0 0 0 0-6.6c-1.6-5-9-7-14.6-4.9-4.6 1.7-8.3 7.6-7.1 12.6.9 4 3.8 5.7 5.5 6.3l1.9 3.8.1.8s-5.7 5.3-4.5 15.7a18 18 0 0 0 10.5 14.8l1.9-5-6.9 22.5-2.2 5.7s3.2 4 10.8 5.7a38 38 0 0 0 11 1c2-.2 4.2-.6 3-4.1-1.7-5.2-1-8.5-1-8.5l2.3-13c1.5.2 2.9.2 4-.1 3.1-1 6.1-4 7.2-10a82.2 82.2 0 0 0 .9-19.1c2.9 0 4.8-.5 4.4-.9zm-46.1 3.3-.2.4.2-.4zM354 118l-.1-.2z"/><path xmlns="http://www.w3.org/2000/svg" d="M345.4 152.4c-1.6 0-2.9 1.4-2.9 3s1.3 3 3 3 2.8-1.4 2.8-3-1.3-3-2.9-3zm0 5a2 2 0 0 1 .1-4c1.1 0 1.8.9 1.8 2s-.8 2-1.9 2zm18.7-13.6c-3.6-.3-5.2 2-5.3 2.2a.8.8 0 0 0 .2 1c.3.2 1 .1 1.1-.1.4-.4 1.2-1.8 4-1.6.3 0 .7-.3.7-.7s-.2-.8-.7-.8zm7.8.9c.5 0 1 0 1.7.4.3.2.8 0 1-.2.1-.3.1-.8-.2-1-1.3-1-2.4-.8-2.8-.7-.4 0-.7.5-.6.9.1.4.5.6 1 .6zm-3.5 9.7c-.3.2-.3.6-.1.9s.7 1.2.5 1.8-.7.6-.9.6c-.3 0-.7.2-.7.6 0 .3.2.7.6.7h.2c.6 0 1.7-.3 2.1-1.5.4-1.4-.7-2.8-.8-3-.2-.3-.6-.3-.9-.1zm-4.2-3.9c-.3 0-1.4 0-2.3.5a1 1 0 0 0-.5.3 1.4 1.4 0 0 0-.3.9c0 .8.7 1.4 1.4 1.4s1.4-.6 1.4-1.4c0-.2 0-.5-.2-.7h.5a.5.5 0 1 0 0-1zm.3 12.3c-3.6.1-4.6-2.8-4.7-2.9a.7.7 0 0 0-1-.4c-.3.1-.5.5-.3 1a6 6 0 0 0 6.1 3.8c.4 0 .7-.3.7-.8 0-.3-.4-.7-.8-.7zm15.8-22.6-.2-.4-.3-.4-1.2-1.9a9 9 0 0 0-1-1.3c-1.4-1.5-.6-1.3-2.2-2.7l-.4-.7c-.6-.7-.6-.4-1.2-1.1 0 0-.9-1-.4-.6a45 45 0 0 0-6.4-4.5l-1.4-.4-1.3-.3-1.3-.3c-.6 0-.9-.1 0-.1l.4.1h.2c-1.7-.6-3.3-.3-5-.1.5 0 1.2-.1.8 0l-1.6.2.3-.1c-.8 0-1.6.2-2.4.5h.3l-.7.1-.1-.2-.2-.3s-.2-.2-.3-.1v-.3l-.3-.4-.2-.5-.2.2c0-.4.2-.2 0-.5-.2-.2-.3-.5-.3-.9v-.1a9.1 9.1 0 0 0 .3-1c-.2.1 0-.4 0-1h.1v-1.6c.1-.2.2-.4 0-1.5l-.3-.4-.5-1.5c0-.3-.2-.6-1-1.5l.2.4-.3-.3a5.3 5.3 0 0 1-.4-.5l.3.1c-.4-.5-.6-.6-.9-.8.3.2.3 0-.4-.6.2 0 .3.2.5.3-.4-.4-1-.6-1.4-.9-1-.8-3-1.4-3.4-1.6l-1.4-.3c-.7-.2-1.6-.2-1.9-.1.6-.1-1-.2-.5-.3l-3.6.5h.2c-1.5.2-2.8.8-3.9 1.6-1 .7-2 1.6-2.9 2.6.2 0-.7 1.1-.4 1-1.5 2.3-2.5 4.5-2 5.6l-.2 2.2v-.3c0 1.3.3 2 .5 2.7l1 2a3.6 3.6 0 0 0 .8.8l1.2 1c-.5-.2 0 .2.5.5-.3-.2-.5-.2.2.3a3.7 3.7 0 0 1 .4.2c.9.5.7.3.3.1v-.1c.1.2.4.3.7.5l.7 1.3s.8 1.7 1.5 2.5v.3l-.3.3-.4.7-.9 1.3.3-.7-.8 1.2.8-1.3c-1.4 1.6-2 3.8-2.7 6v.5l-.1.2v.9c-.2.3-.3-.1-.4 1-.2.5-.2 1.2-.2 1.9l.1 2c0-.6 0-.4.1-.1v1.4l.1.7.3 1c0 .4-.3-.9-.4-1l.8 3.5c.5 1.2 0-.3.3.3l.7 1.5.7 1.7v-.5a40.2 40.2 0 0 0 2.6 4 16.6 16.6 0 0 0 5.7 3.5c0 .5 0 .7.3.3l-5.4 17.6-2.3 6 .2.2c.1.1 3.4 4.2 11 5.9 3.5.7 6.5 1 9.1 1a22.6 22.6 0 0 0 2.1 0c1.3-.2 2.7-.4 3.4-1.5.5-.8.5-1.9 0-3.3-1.6-5-1-8.2-1-8.2l2.3-12.6a11.6 11.6 0 0 0 1.5.1c.8 0 1.5 0 2.1-.3 2.3-.7 6.3-3 7.7-10.4l.3-2c1.6-.9 2.7-3.2 2.7-5.9 0-2.2-.8-4.2-2-5.3l-.2-5.6a4.6 4.6 0 0 0 .4 0c0 .1-.5 0-.2.2l1.6-.1h.5l.6-.2c.4 0 .9-.2 1.2-.4h.2a1 1 0 0 0 .2-.3v-.3zm-17.4 7c-2.3 0-4.4 2.3-4.8 5.3l-5.5-1a7 7 0 0 0 3.7-3.2c1.9-3.5 2-8.5 2-10.4a49.9 49.9 0 0 0 16.5 3.5l.2 4.8a3.1 3.1 0 0 0-1.3-.3c-2.2 0-4 2.3-4.3 5.4h-.8a2 2 0 0 0-1 .2c-.7-2.5-2.5-4.4-4.7-4.4zm4 6.5c0 3.1-1.7 5.6-4 5.6s-4-2.5-4-5.6 1.9-5.6 4-5.6 4 2.5 4 5.6zM338.4 135v.2-.2zm22 48.1c0 .1-.7 3.5 1 8.8.4 1 .5 1.9.1 2.4-.4.7-1.6.9-2.6 1a38 38 0 0 1-10.8-1 19.5 19.5 0 0 1-10.4-5.3l2.1-5.5 6.8-22.1a6 6 0 0 0 1.6-.7l.3 1c.5 2.1 2.4 4 6 5.9 1.6.8 5 2.4 8.2 3l-2.3 12.5zm13.5-23.1c-.9 5.1-3.3 8.5-7 9.6-3.6 1.1-10.1-2-12-3-3.2-1.6-5-3.3-5.5-5.2 0-.6-.2-1.2-.4-1.8l-.2-.7-.6.5c-.9.8-2 1.2-3 1.2-2.7 0-4.9-2.4-4.9-5.2s2.2-5.2 4.8-5.2c1.4 0 2.8.7 3.7 1.8l.2.2h1.2l7.8 1.3v.2c0 3.6 2.1 6.6 5 6.6 2.6 0 5-3 5-6.6a8.8 8.8 0 0 0-.1-1c.2-.2.4-.4.7-.4l.8.1c0 3.5 1.9 6.2 4.3 6.2h.5l-.3 1.4zm1-10.2a.5.5 0 0 0-.3-.1 6 6 0 0 0-2.2.4h-.1a1.3 1.3 0 0 0-.3.3 1.4 1.4 0 0 0-.4 1c0 .7.7 1.4 1.4 1.4s1.4-.7 1.4-1.4a1.4 1.4 0 0 0-.2-.7h.4a.5.5 0 0 0 .3-.1 85.8 85.8 0 0 1-.6 6.9 2 2 0 0 1-.6 0c-1.8 0-3.3-2.4-3.3-5.3s1.5-5.3 3.3-5.3c.4 0 1 .2 1.3.5v2.4zm1.1-1.3a7.3 7.3 0 0 1-.6 8.2 89 89 0 0 0 .6-8.2z"/><path xmlns="http://www.w3.org/2000/svg" fill="#fff" d="M339.7 133.7a2 2 0 0 0 1-.6h-.1l.7-.6c0-.2-.3 0 0-.3l.6-.5s-.2.3 0 .3c0 0 .3-.3.2-.4v.1l.4-.1c0-.1 0-.2-.1-.1.2-.2.5-.6.7-.6.3-.2.3 0 .4 0l.1-.2v-.2c.7-.2 1-.8 1.5-.9l-.3.3.4-.3-.2.3 1.7-1 .7-.2c-.1 0-.2 0 0-.1h.2c.2 0 .3-.1.2 0 .4 0 .4-.3.6-.4l1-.4c.2 0 .3.2.6 0 0-.5.8-.2 1.4-.5-.2-.1.2-.2.1-.3l1-.2.4-.2h.2c.2 0 .2 0 0-.1.2 0 .3 0 .4.2v-.1l-.1-.1v-.3l-.3-.2h.1l.1-.2-.2-.2h.2c-.1-.3-.4-.2-.3 0-.5-.4 0-.4-.4-.7h-.2c-.3-.5.2-.3-.2-.8h.1-.1c0-.1 0-.2-.3-.3-.3 0 0 .1 0 .2-.3.2-.4 0-.7 0h-.5.1-.4.2c-.4 0-.7.5-1 .3v-.1c.4-.2-.3 0-.3-.1-.1.2-.5.1-.6.4-.7 0-1.2.4-1.7.5l-.2-.1c-.3 0-.1.2-.3.3l-.3-.1c-.4.4-.4 0-.8.3-.2.3-.7.2-1 .6l-.1-.1-.8.4c-.1 0 0-.1 0-.2-.3.2-.1-.3-.2 0-.5 0-.5.8-1 1-.2.4-.8.2-.7.5l.2-.1-.5.3h-.1c-.2.2-.8.4-1 .7-.2.2-.4.1-.5.4-.3.5-1.2 1-1.8 1.5h-.3l-.2.2-.1.1h-.3c-.2.1 0 .2 0 .3l.1.2s.2.2 0 .3c.5.4.7.8 1 1.6h-.1l.2 1.8v.2l1-.6.5-.8zM302 518.4c-5.2-.8-4.7-9.3-2.1-14.9l3.8-21.8 24-.4s-5 17.5-3.6 18.5c2.3 2.1 8.6 5.5 23 10 6.8 1.9 10.9 2.6 10.6 5.5s-1.4 2.8-1.4 2.8l-54.2.3z"/><path xmlns="http://www.w3.org/2000/svg" d="M338.9 518.6h-.1.1zm-25.8-4.8c-.1 0 0 0 0 0zm3.2-7zm-8.8 4zm8.1 17.6h.3-.3zm7-4h-.1zm6.1 6z"/><path xmlns="http://www.w3.org/2000/svg" fill="#fff" d="M357 518.1h-56.2a2.5 2.5 0 0 0-2.6 2.6v2.9h61.6v-2.9a3 3 0 0 0-2.8-2.6z"/><path xmlns="http://www.w3.org/2000/svg" d="M338.3 518.8h-.4.4zm1.1 4h.1zm-14.3-6h.1zm24.6-5v-.1zm-9.7 5.7zm8.7-9.8zm-15.4 2 .1-.2-.1.1zm-12.6 7.6zm15.4-13.8zm-37.5 2.4v-.6.6z"/><path xmlns="http://www.w3.org/2000/svg" fill="#fff" d="M368 518.4c-5.9 0-1.8-10.3-1.6-14.9-.7-5.5-1.5-21-1.5-21l23.8-1.9s.7 18.2 2 19.2c2.3 2.1 8.6 5.5 23 10 6.7 1.9 10.8 2.6 10.5 5.5s-1.4 2.8-1.4 2.8l-54.9.3z"/><path xmlns="http://www.w3.org/2000/svg" d="M370 482.8h-.1.1zm-69.2 12.5.1-.4v.4zm6.7-13h-.1zm88.8 8.3.1-.2v.2zm-22.5-27.2zm-56.7 30h-.5.5zm88.7 25.3h-.1zm-25.8-4.9h-.1.1zm3.2-7zm-8.9 4zm8.2 17.6h.3-.3zm7-4h-.1zm6.1 6z"/><path xmlns="http://www.w3.org/2000/svg" fill="#fff" d="M424 518.1h-56.4a2.5 2.5 0 0 0-2.5 2.6v2.9h61.5v-2.9c0-1.5-1.2-2.5-2.7-2.6z"/><path xmlns="http://www.w3.org/2000/svg" d="M405.2 518.8h-.4.4zm1.1 4h.1zm-14.3-6h.1zm24.6-5v-.1zm-9.7 5.7zm-6.7-7.9v-.1.1zm-12.6 7.7zm15.4-13.8zM299.5 521v.1zm-2.3-15.1zm130.4 17.5v-1.7l-.1-1a4 4 0 0 0-.3-1.2 3 3 0 0 0-1.4-1.5c-.5-.3-1-.4-1.3-.4h-.1l.4-1 .2-1.4c0-1-.4-1.9-1-2.3l-1-.6-.4-.4a5 5 0 0 0-1.6-.6l-.8-.4c-.7-.3-.6 0-1.3-.3 0-.5 0-1.2-.5-1.7l-1-.6-.6-.3-1.1-.3c-.4 0-1-.4-1.4-.4v-.2l-.5-.1-.6-.2-.2-.1a3 3 0 0 1-1-.4v.1c-.7-.4-1-.2-1.6-.7-.9 0-1.1-.8-2-.7v-.2c-.5 0-.9-.2-1 0-.3-.1-.3-.1-.3-.3 0 .2-.4 0-1 .3l.2-.1c-.2 0-.5.3-.7.6l-.1.6.3-.2c0 .2-.1.2-.2.3v-.1l-.1.2h.2l-2-.6.7.3-1.3-.5h.2-.2l.1-.6c.2-.5 0-.9-.1-1.3l-.5-.6-.7-.4-.3-.2h-.2c-.2-.2-.3-.2-.5-.2l-.1-.2a1 1 0 0 1-.6-.3l-.6-.3-.3-.1-1.3-.6v.1c-.8-.6-1.3-.4-2-1-1-.2-1.4-1-2.6-1.2.2 0 0-.1 0-.2l-.3-.1-.5-.2h-.6c-.5-.1-.4-.2-.5-.3l-.2.1-.5.2.1-.1-.3-.7c.2.7 0 .4-.2-.6l.1.2-.1-1v-.6l.1.5-.3-1.5v-.8h4.5a4.3 4.3 0 0 0 3.6-3.7v-.8l.1-.7.2-6.2.3-12.6a505.5 505.5 0 0 0-.1-26.2v-.7l-.2-14.6-.6-28.7c-.2-7.2-.5-11.5-.9-6v-2.4l-.3-10.5.7 9.5c.3 2.7.4 2.5.5 1 .3-3 0-10.9 0-10.9-.2-15.9-1-24-2.2-43-.8-16.6-.8-21-2.1-38.2l-.5-6.2-.3-3.2-.1-1.5-.1-.8v-.1H376l-1.6.1-.5.3c-11.3-.2-30 0-41 .2H319l-.9 10.7-.8 10.1-1.5 19.8-.1 1.2v.8l-1.3 15.6-2.4 30.6c-.3 5.8-.5 9.9-.2 9l.5-2.6-.2 2.6-1.6 11.2c1.3-12.8 1.3-14 .7-11.4-.7 3-2 11.5-2 11.5-2.5 16.8-3.3 25.6-5.8 45.7l-3 20-3 20.4-.5 3.3-.1.8-.1 1v2c.2.7.5 1.6 1.4 2.2l1.2.6a5.6 5.6 0 0 0 .5.1h.5l3.4.2 13.4.6c1.8 0 4.3 0 7 .2 0 .5-.1.8 0 .8-.3 1.1-.3.9-.4 1l-.1 2v-.5l-.1 1.3-.2.5h.2v.1c-.2.2-.2-.1-.3.4l.1.1c0 .2 0 .4-.2.6l-.2.3-.4.7c-.6 2.2-.8 4.7-1.4 6.8-.4 0-.7-.1-.7-.2-1-.2-2.4-.7-3.1-.6-.4.1-.5-.1-.9-.1l-1.6-.3v-.1l-.8-.2.3.1c-.2.3-.5-.3-1.2-.3-.5-.1-1.2.4-1.8.1-.3 0 .3-.2-.1-.1 0-.2.2-.1.1-.2-.4 0-.6-.4-1.1-.4v-.1c-.7 0-1.2-.5-1.6-.3-.7-.1-.4-.5-1.1-.4l-.3-.3c-.3 0-.2.2-.5 0 0 0-.4-.2-.2-.2-.7-.4-1.6-.1-2.5-.7-.2.2-.7 0-.9 0 0 0-1-.2-.4-.2h.2c-.4-.4-1-.2-1.5-.4.1 0 .3.1.2.2l-.5-.2-.4-.1.3-1.8c1.4-7.4.3-7.6 0-6.7v1.5c-.2.3-.2-.1-.4 1l-.5 3.7v-.2l-.2 1.3-.1.9v-.2l-.1.1-1-.2c-.2 0 .8.4.1.3l-.4-.2c0 .4-.2.8-.4 1.3l-.3 1.3v.3c0 .7-.2 1-.2 1 .1.7.2 1 0 1.3v.3c-.1-.1-.3.7-.4.8 0 .2.3 2.6.1 2.6l.7.2v1.9c.3 1.8 1 3.2 1.9 3.9l.3.2-.2.2-.8.3h-.2s-.7.6-1 1.4l.1-.3c-.3.5-.5 1.2-.4 1.8v.4l.2-.4c0 1-.3.3-.2 1.3h.2v.8h-.3v1.7l.1.4v.7l.3 1c.1 0 .2 0 .4-.5a1.7 1.7 0 0 1 0-.2v.7c0 1 .7 1.9 1.5 2.3-.6-.2-1-.6-1.3-1-.5-.5-.6-1-.7-1.3-.2-.5-.3-.4-.4.1-.1.6.1 1.7.7 2.4a3.7 3.7 0 0 0 3 1.3h-.2c3.7.2 6-.2 10.7-.3 4.5.1 5.7.4 10.4.3l6.8-.1c1-.2 2.8 0 4-.2l.6.1h3.7-.1 3.2v-.2c2 .2 2.8-.1 4.8 0v.1c2.4-.4 3.8.3 6.3 0h.1c1.2 0 2.4 0 2.4-.3.9 0 .7 0 .8.2 0-.2.8-.2 1.4-.2h-.3 2.1l-.5-.3h.8c0 .1.1.2.7-.1l-.1-.2c.6-.3 1-.7 1.4-1.1.3-.5.5-1 .6-1.7v-5.7a4 4 0 0 0-.2-1.2c-.3-.7-1-1.3-1.4-1.6-.6-.3-1-.3-1.4-.3h-.1l.4-1.1.2-1.4c.1-1-.4-1.8-1-2.2l-.9-.7-.5-.3a5 5 0 0 0-1.6-.7 24.2 24.2 0 0 0-.7-.3c-.8-.3-.7-.1-1.4-.3.1-.6 0-1.2-.5-1.7a2 2 0 0 0-.9-.6l-.7-.3-1-.4c-.5 0-1-.4-1.5-.4v-.1c-.2 0-.4 0-.5-.2l-.5-.1-.3-.2a3 3 0 0 1-1-.4v.2c-.6-.4-1-.3-1.5-.7-1 0-1.2-.8-2.1-.8v-.1c-.4-.1-.8-.3-1 0l-.3-.3c0 .1-.4 0-1 .3l.3-.2c-.3.1-.6.4-.7.6-.2.3-.2.5-.2.7l.3-.2-.1.2c-.1 0-.2 0-.2.2h.2l-1.9-.6.6.3-1.2-.5h.2-.2v-.6c.2-.5 0-1 0-1.3l-.5-.6-.8-.5-.3-.1-.2-.1-.4-.2-.2-.2a1 1 0 0 1-.5-.2c-.3 0-.6-.3-.7-.3l-.3-.2c-.4-.1-.9-.3-1.3-.6v.2c-.8-.6-1.2-.5-2-1l.1-.1c-1.2-.1-1.4-1-2.6-1.2.1 0 0-.1 0-.1l-.4-.2-.5-.2h-.5c-.4 0-.5-.1-.5-.2l.1-1.3c0 .7-.2.3 0-.6v.2c0-.5 0-.7.2-1l.2-.6v.5-1.1l4.1.1a7 7 0 0 0 2.5-.4c.8-.3 1.4-.9 1.9-1.5s.9-1.2 1.2-1.9l1.5-5.1 1.8-6.2.8-2.8v.5c1-4.2 2.2-8.5 3.4-12.3l-.3.3c2.5-8 3-11.1 5.3-18.4v.1c2.3-9.3 4.5-14.5 6.9-24-.3 1.1.2-.6.2-.5l.3-1 .5 5c0 2.5.2 8 1 19.5v.8c-.2.4.8 5.2.6 6l.3 2.2c0 .6.1 2 0 .8l.4 3.6.1 2.2L360 484l.4 5.5v-.1a3 3 0 0 0 .9 2.6c.6.7 1.6 1.2 2.6 1.2H389l.4 2c.2 1.2.1 1 0 1.2l.5 1.8-.2-.4.3 1 .1.5v.4l-.2.3-.4.7c-.6 2.2-.8 4.7-1.5 6.8l-.6-.2c-1-.2-2.5-.6-3.2-.5l-.8-.2-1.6-.3-.8-.3.3.1c-.2.3-.6-.3-1.2-.2-.5-.2-1.3.3-1.8 0-.3.1.3-.1-.1-.1 0-.2.2 0 .1-.2-.4 0-.6-.3-1.1-.4-.7 0-1.2-.5-1.7-.4-.6 0-.3-.5-1-.4l-.3-.3c-.3 0-.3.2-.6 0 0 0-.4-.1-.1-.2-.8-.3-1.6-.1-2.5-.6h-1c0-.1-.9-.3-.3-.3h.2c-.5-.4-1-.2-1.5-.4l.2.2-.5-.1-1-.4.3.2-.3-.1-.2-2.1c-.8-7.4-1.4-5.4-1.4-5 0 .2-.2-.1 0 1l.3 3.7v-.2c.1.6 0 1 .2 1.3h-.1l.2.8h-.4c-.3 0 .7.4 0 .3l-.3-.2-.4 1.3-.4 1.3c.2 0 .1.1.1.3h-.1c0 .7-.2 1-.2 1 .2.7.2 1 0 1.3v.3l-.3.8c0 .2.2 2.6 0 2.6l1 .2-.2 1.7c-.1 1.8.2 3.4.9 4.2l.5.5h-.4c0 .1-.7.7-1 1.5v-.3c-.2.5-.4 1.2-.3 1.8v.4l.2-.4c0 1-.3.3-.2 1.2h.2v.9h-.3v2.1l.1.2v.5l.3 1s.2 0 .3-.5a1.7 1.7 0 0 1 0-.2v.6c0 1 .7 2 1.6 2.3-.6-.1-1-.5-1.3-.8-.5-.6-.6-1-.7-1.4-.2-.5-.3-.4-.4.1-.2.6 0 1.7.7 2.3a3.7 3.7 0 0 0 2.9 1.4h-.1c3.7.2 6-.2 10.6-.3 4.6 0 5.8.4 10.5.2h6.8c1-.2 2.8 0 4-.2l.5.1h1.4c.6-.1 1.3 0 1.6 0h.8-.2 3.3l-.1-.2c2.1.1 2.9-.2 4.8 0 2.5-.3 3.9.3 6.4 0-.3 0 .1 0 0 0 1.3 0 2.5 0 2.5-.3.9 0 .7.1.8.2l1.4-.2h-.3 2l-.4-.2h.7c.1 0 .2.2.8-.1l-.1-.2a3 3 0 0 0 1.3-1.2c.4-.4.6-1 .6-1.6l.1-.7v-1.3l-.1-1zm-127.8-7.3-.2-.3a8.9 8.9 0 0 1-.8-3.5v-.8h.5c1 .4 1.7.2 2.5.6 0-.2.4 0 .3-.2 1 0 1.6.6 2 .1.4 0 .5.3.7.3h-.1l1.5.3c.3 0 .4-.3.9-.1l.2.1c-.1 0-.2 0 0 .2h.2c.3 0 .3 0 .1-.1.3.1.9.1.9.3 1 .1 1.6 0 2.4.2l-.3.1h.5c0 .2-.3 0-.5 0 .6.4 1.4.1 2.2.5h.1l.4-.2c0 .2 0 .3.3.4l1.3.1c-.2 0-.1-.1 0-.1l.4.1v.2c0-.2.5 0 .6-.1l-.4.1 1.2.2c.4 0 0-.2.2-.3.3 0 .7 0 1 .2v-.2c.6 0 1 .1 1.3.3l-.1.8-.3 1.7h-2 .1-3.2v.2c-2-.2-2.9.1-4.8 0v-.1c-2.4.3-3.8-.3-6.4 0 .3 0 0 0 0 0h-1.8l-.4-.2-.2-.2-.1-.2-.2-.4zm51.5-2.7c0-.6.2-1 .3-1.4l.1-.4.6.2.7.2.3.1 1.2.4.7.4c1.1.5 1.9 1.2 1.8 2.1 0 .5 0 1.1-.2 1.6l-.5 1-2.1-.3-3.2-.2c.3-1.2.1-2 .3-3.7zm-16.6-1.6c.5-2 .8-2.5 1.1-4.6l.2-.7 2 .8c-.4 1.9-.2 4-.9 5.7h-.1c-.2 0 .2.6 0 .7v.2s0 .2 0 0c-.1.2 0 .2 0 .4l-.2.2-.2 1v1.4a65.3 65.3 0 0 0-2.7 0c.6-1.7.5-2.8.8-5zm-9 7.2h2.1s3.3 0 4.3-.4h1.3l-.7.2h1.2-1c1.4.3 2.9-.2 4.6 0h.4l.8-.1.7.1h2.7l-.3-.1h1.2v.1l.4-.1h.7-.6 3.8l4.3-.4.9.1c3 0 4.5-.1 5-.3.4.2 1 .5 1.3 1.1l.4 1.1-.2 1.7-.1.4v.3h-1l-1.5.2c-.3-.3-1.9 0-2.4-.1h.1c-1.3.2-2.7-.2-4 0l.3-.1-2.2-.1c-2.3 0-5.4 0-6.8.2h.1-2c-1 .2-2.7 0-3.4.1h-1.8.7c-.2.3-1.4-.2-2.6 0-1.2 0-2.5.6-3.7.5-.6.1.5-.2-.4-.1 0-.2.4-.1.2-.2-.8 0-1.4-.2-2.5-.1v-.1c-1.4.2-2.6-.2-3.6 0-1.4.1-1-.3-2.5-.1l-.6-.2c-.6 0-.4.2-1.1.1 0 0-1 0-.5-.2-1.6-.1-3.3.3-5.4 0-.5.2-1.6 0-1.9.2 0 0-2.1 0-1-.2h.5c-1.2-.3-2.2 0-3.4 0 .3 0 .8 0 .5.1h-1.2.3l-1.7-.1h.2c-.8 0-1-.2-2 0-.4 0 .8.2 0 .2l-2-.2h-1.3v-.3l.1-.1c.1-.1.2-.3.1-1l-.2-.3a2 2 0 0 0 0-.1v-.1l.1-.5.3-.6c-.2.3-.4 0 0-.3v.1l.5-.3c-.2.2 0 .2.3.1l-.2.2.3-.2.4-.1 2.5.1h2.3c-.4 0 .6 0 .3.2.5-.1 1.9-.2 2.4 0 2 0 3.5-.2 5.3 0 0-.2 1-.1.7-.3 1.9-.2 3.5.4 4.2-.2l1.4.1h-.2 3c1 .2 2 .3 3 .1zm92.5-5.6c0-.6.2-1 .3-1.4l.1-.4c.3 0 .5.1.5.2l.8.2.3.1 1.2.4.7.4c1 .5 1.9 1.2 1.8 2 0 .6 0 1.2-.2 1.7l-.5.9-2.1-.3-3.3-.2c.4-1.2.2-2 .3-3.6zm-16.6-1.6c.4-2 .8-2.5 1.1-4.6l.2-.7 2 .7c-.4 2-.2 4.1-.9 5.8h-.1c-.3 0 .2.6 0 .6v.3s0 .1 0 0c-.1.2 0 .2 0 .4l-.2.2-.2 1v1.3a65.3 65.3 0 0 0-2.7 0c.6-1.8.4-2.8.8-5zm-35.7 4.5-.1-.4c-.2-1.2-.1-2.4 0-3.6l.1-.8h.3c1 .4 1.7.2 2.5.5 0-.1.4 0 .3-.2 1 0 1.6.7 2 .2.4 0 .5.2.7.3h-.1l1.5.3c.3 0 .4-.3.9-.1l.2.1c-.2 0-.2 0 0 .1h.3v-.1l.9.3c1 .2 1.6.2 2.4.2 0 .1-.1.2-.3.2h.5c0 .2-.3 0-.5 0 .6.4 1.4.1 2.2.5l.1-.1h.4s0 .2.3.2c.3.2.9.1 1.3.2-.2 0-.1-.1 0-.2l.4.2v.1h.6-.4l1.2.3c.4 0 0-.2.1-.3.4 0 .8 0 1.2.2l-.1-.2c.6 0 1 .1 1.3.3l-.1.8-.3 1.6h-2 .1c-1 .1-2.2.1-3.2 0v.2c-2-.1-2.9.2-4.8 0-2.4.3-3.8-.3-6.4 0 .3 0 0 0 0 0h-1.7c-.5 0-.9.2-1 .4l-.4-.4-.4-.8zm60 5.7-.1.4v.3h-.9c-.6 0-1.1 0-1.6.2-.3-.3-1.9 0-2.4-.2h.1c-1.3.2-2.7-.2-4 0h.4c-1 0-2.2 0-2.3-.2-2.3 0-5.4 0-6.8.3h.1-2c-1 .2-2.7 0-3.4.1h-1.8.7c-.2.3-1.4-.2-2.6 0-1.2 0-2.5.6-3.7.5-.6.1.5-.3-.4-.1 0-.2.4-.1.2-.3H393v-.2c-1.4.3-2.6-.1-3.6 0-1.4.2-1-.3-2.5 0l-.6-.2c-.6 0-.4.2-1.1.1 0 0-1 0-.5-.2-1.6-.2-3.3.2-5.4 0-.5.2-1.5 0-1.9.2 0 0-2.1 0-1-.2h.5c-1.2-.3-2.2 0-3.4 0 .3 0 .8 0 .5.1h-1.1l.2-.1h-1.7.2c-.7 0-1-.2-2 0-.4 0 .8.1 0 .2l-2-.2h-1l-.2-.1-.1.1v-.2l.1-.2c.1-.2.2-.3.1-1l-.2-.3a2 2 0 0 0 0-.2l.1-.5.3-.6c-.2.3-.4 0 0-.4v.2c.2-.2.3-.3.5-.3-.2.1 0 .2.3 0l-.2.3.3-.2.4-.1 2.5.1 2.3-.1c-.4.1.6.2.3.3.5-.1 1.9-.2 2.4-.1 2 .2 3.5-.2 5.3 0 0-.1 1 0 .7-.3 1.9-.1 3.5.4 4.2-.2.8 0 1 .2 1.4.2h-.1 3a9.6 9.6 0 0 0 3 0h1.8s3.4.1 4.3-.3h1.3l-.7.1h1.2l-1 .1c1.4.2 3-.2 4.6 0l.3-.1h.9l.7.1c.7.1 1.9 0 2.7-.1h-.3 2.4-.7 3.8l4.4-.4h.8c3 0 4.5 0 5.1-.2.3.2.8.4 1.2 1 .2.3.4.7.4 1.2l-.2 1.7zm-59.5-.9.1.1zm49.2-13.4zm-51.5-1.7zm6.6-111.5v.2-.2zm-.2 10.6z"/><path xmlns="http://www.w3.org/2000/svg" fill="#fff" d="m369.3 391.3.7 8.3.5 5.5c.2.8.2 2.3.4 3.3v1.4c.2.5.2 1.1.2 1.4v.6-.1l.3 2.6.2 3.8c.3 2 0 3 .2 5.1v.1c0 1 0 2 .2 2v1.7-.2 1.5l.2-.3c0 .8-.2.2 0 1l-.2 2.8c.1 4.5.5 9.4.4 13.5v.2c-.2.1.2 1.2 0 1.3l.1.5v1.5l.1 5.1.3 9c.3 3.3-.2 7.3.1 10.8l.1.4v3.2s.3 15.6 1.1 3.7v.1-6 .1c-.2-1 0-2.2-.1-3.2v.3-1.9c0-1.8 0-4.3-.2-5.4v-1.5s0-.1 0 0c-.2-.8-.1-2.2-.2-2.7h.1v-1.5.5c-.3-.2 0-1-.1-2 0-1-.4-2-.4-3 0-.5.2.4.1-.3.1 0 0 .3.1.1v-2h.1c-.2-1.2 0-2.2 0-3-.2-1 .1-.7 0-2V446c.1-1.3-.2-2.7 0-4.4-.2-.4-.1-1.2-.2-1.5v-.7.2h.1v-2.7c0 .3 0 .7-.1.5v-1 .3-1.4.2c0-.6.1-.9 0-1.6 0-.3-.1.6-.2 0l.1-3.4v-.5c-.1-1.2.1-.5 0-1.6v-.2c-.3-1 0-.6-.2-1.8 0 .5-.1.2-.1-.3v.1-.6c0 .2.1 0 0-.4l.2.3-.2-.9v-3.8c0 .3 0-.5.1-.3a7 7 0 0 1-.1-2v.1l-.2-4.3s0-.8-.2-.6c-.2-1.5 0-2.8-.4-3.3V409v.2l-.3-2.7c0-.5-.2-.6-.3-1.4.1.3 0-.1 0-.4 0 .2.1.2.1-.2v-.2c-.1-.6-.1-.5-.1-.2 0-.5-.2-1.5 0-1.6l-.7-4.1c0-.2.2.1.2.5v-1 1c0-1.3-.3-2.5-.3-3.8v-.3l-.2-.6v-.6l-.2-2.2c0 .4 0 .2 0 0l-.1-.7-.1-1 .1.6-.2-2c-.1-.7 0 .1-.2-.2l-.2-2v.2l-.3-2.7c-1.5-8.7-1-1.7-1-1.7.1 3.4.5 5.2 1 9.3z"/><path xmlns="http://www.w3.org/2000/svg" d="m303 458.4-.3 1.3.2-1.3zm14.8-11.3v.1-.1z"/><path xmlns="http://www.w3.org/2000/svg" fill="#fff" d="M334.2 318.6c-.6 6.4-1 8.2-1.5 15l-1 9.7-.4 6-.1.6-.2 2-.2 2.3-.1 1v-.1l-.4 4.6c-.3 3-.3 4.2-.7 7v-.1c-.1 3.5-.7 5.5-.8 9.2 0-.5-.1.2-.1.1-.2 1.7-.3 3.5-.2 3.5l-.2 1.2-.1 2v-.5l-.3 2.7.2-.5c-.2 1.5-.2.4-.3 1.8h.1c-.2 2-.6 3-1 5l-4.3 23.8-.1.3c-.2.1-.2 2-.4 2.4l-.1.8-.1.3-.2 1.4-.3.9-1.5 9c-1 4-2.1 11.5-2.8 15.8-.9 6-2.6 13-3.5 19.2l-.1.7-1 5.7s-5 27.4-.3 6.8v.1l1.3-7.2c.2-.3.4-2.5.6-3.2.2-1.9.8-3.8 1-5.7v.5l.6-3.2c.6-3.2 1.4-7.6 1.6-9.6l.5-2.7v-.1c.1-1.3.7-3.7.8-4.7v-.1l.5-2.5-.2 1c-.1-.4.5-2 .7-3.8.3-1.7.2-3.5.6-5.3.1-.8 0 .8.2-.5.1 0 0 .6.1.3l.7-3.5c.3-2.1.8-3.8 1-5.2.2-2 .4-1.3.6-3.5l.3-.8.2-1.7s.3-1.3.3-.6c.5-2.3.7-4.7 1.4-7.7l.3-2.7c0-.1.6-3.1.4-1.4l-.1.4v.3c.5-1.7.5-3.2.8-5 0 .6-.2 1.3-.2.8l.3-1.6v.4l.5-2.4-.1.3.6-2.9c0-.6-.3 1.1-.1-.1l1.2-5.8c-.2.1 0-.4 0-1 .2-2.1.3-.8.5-2.9v.2-.6c0-1.8.2-1 .2-3 0 .7-.2.3 0-.7v.2-1.1c0 .3.2.2.3-.7v.6-1.6c.2-1.2.3-3.1.5-3.6 0 0 .3-2.6.2-3.3 0 .6.2-.9.3-.5 0-.7 0-2.7.3-3.5v.2c.3-3 .3-5.1.7-7.8v-1c0-2.7.6-5 .4-6l.3-2v.2l.4-4.8.1-2.6c0 .5.1 0 .2-.7v-.7c.2-1 .1-.8 0-.3v.1l.4-3 .6-7.4v1l.1-1.7v1.5c.3-2 .2-4.3.6-6.7V324c0-.3.1.1.3-1l.3-4c-.1.7-.1.4-.1.1l.1-1.4h.1v-1.8c.2-.3 0 1 0 1.1l.4-3.6c0-1.3-.1.2-.1-.4 0-1.1 0-2.2.3-3.5l-.2.4.5-4.8c.9-16-.6-3.5-.6-3.5-.8 6.3-.8 9.5-1.5 17zm23 85 .1-.4-.1.4zm21.6-80.1v-.1zm-17 68.1v.1zm-4.7 16.1c1.3-4.2 1.8-5.3 3-9.7l1.7-6.3c.2-1 .8-2.7 1-3.9l.2-.4.4-1.3c0-.5.3-1.2.4-1.5l.2-.7v.2l.8-3h-.1c.7-2 .7-2.8 1.3-4.6.4-2.3 1.2-3.5 1.6-5.9 0 .3 0-.1.1 0 .3-1.2.6-2.3.4-2.4.2-.8.2-.6.3-.7l.3-1.4v.3l.4-1.7-.2.3c.3-1 .2-.2.4-1.1h-.1c.3-1.4.7-2 1.2-3.3 1.4-5.2 2.6-10.9 4-15.7l.2-.2.3-1.6.1-.6c0-.1.2-.4.2-.2l.1-.9.3-.5c.6-2 .8-3.9 1.4-6 .8-2.6 2-7.6 2.5-10.5.8-4 2.4-8.6 3.1-12.7l.1-.5.9-3.8s4-18.2 0-4.6a21 21 0 0 0-1 4.7c-.3.2-.5 1.7-.6 2.2l-.9 3.7v-.3l-.5 2.1c-.5 2.1-1.2 5-1.4 6.4v-.1c0 .8-.2 1-.4 1.9-.1 1-.6 2.5-.7 3.2h-.1l-.4 1.7.2-.6-.6 2.4c-.3 1.1-.2 2.4-.6 3.5 0 .6 0-.5-.2.4v-.2l-.7 2.3c-.3 1.4-.8 2.5-.9 3.4-.3 1.4-.4.8-.7 2.3l-.2.5-.2 1.1-.2.5c-.5 1.5-.7 3-1.4 5l-.3 1.8s-.5 2-.3.9v-.4c-.4 1-.5 2-.8 3.2.1-.4.2-.8.2-.5l-.3 1v-.2l-.5 1.6.2-.2c-.3.7-.5 1-.6 1.8 0 .4.3-.7.1.2l-1.2 3.8c.2-.1 0 .2 0 .6h-.1c-.3 1.4-.3.4-.6 1.8v-.1.4c-.2 1.3-.3.6-.5 2 .2-.5.3-.2 0 .5v-.2l-.1.7-.2.4v-.4l-.2 1.1-.7 2.4-.5 2c0-.3-.3.6-.3.3 0 .5-.3 1.8-.6 2.3-.6 1.8-.7 3.2-1.3 5 0-.1-.2.8 0 .6-.5 1.8-1.2 3.2-1 4l-.6 1.3v-.2l-.8 3.1c-.1.6 0 .7-.3 1.7 0-.3 0 0-.2.4 0-.2 0-.3-.1.2v.3c-.2.7-.2.5 0 .3v-.1c-.3.6-.5 1.8-.7 1.8l-1.2 5 .1-.8-.3 1.2.2-1c-.5 1.3-.6 2.7-1.2 4.3v.4l-.2.6-.3.7c-.3.6-.5 1.8-.7 2.6.1-.5.1-.3 0-.1l-.2.9h-.1l-.2 1.2c-.1.2.1-.6 0-.8l-.6 2.4c-.2.8.1-.1.1.3l-.6 2.3.1-.3c-.3 1.4-.6 2.2-1 3.1-2.4 10.4.3 2.5.3 2.5 1.4-4 1.8-6.1 3.2-11z"/><g xmlns="http://www.w3.org/2000/svg" fill="#fff"><path d="m451.6 172.5-3.9 3 .5-.8c.9-1.4.2-3 .2-3s-6.2 2.3-7.7 3.7c-1.5 1.3-3.5 3.2-4 5.6-.4 2-1.9 7.4-2.5 8.6a275 275 0 0 1-16.1 18.6l10.7 10.4 14.6-21 1.4-1.2 5.4-4.7c1.3-1.1 8.8-16.6 8.8-16.6l-7.4-2.6z"/><path d="M456.7 171.7c-.8-.6-3-1.4-3.7 0-.5 1 .6 2.6 2.2 3.6l-1.2-.4c-1-.3-3.7-.5-4.2 1-.3.8.6 2 2 2.8a.7.7 0 0 0-.1 0c-.9-.2-3.2-.2-3.4 1.3 0 .7.6 1.5 1.6 2-1.1.1-3 .7-3.1 1.8-.1 1 1.6 2.1 3.4 2 1.7.3 2.8-.2 3-1.7 0-.6-.3-1-.8-1.3 1.9 0 3.2-.4 3.6-2 0-.6-.4-1-1-1.4 1.5 0 2.6-.4 3.1-1.6.3-.7-.3-1.3-1.1-1.8 1.1.3 2-.1 2.5-1.2.8-1.5-2-2.5-2.8-3.1z"/></g><path xmlns="http://www.w3.org/2000/svg" d="m449.3 181.6-.4.6a5.5 5.5 0 0 1 1-.2 4.2 4.2 0 0 1-.6-.4z"/><g xmlns="http://www.w3.org/2000/svg" fill="#fff"><path d="M385 220.2c-.9-4.2-2.5-8.5-4.3-13-7.4-17.6-18-28.2-33-27.6-3.6 0-15.2 1.3-21.6 27.7-.9 3.3-15.5 81.3-15.5 81.3H390l-5-68.4z"/><path d="M306 296.7c6 18.9 13.4 33.4 13.4 33.4s.8 9.5 7.7 19.1a22 22 0 0 0 3.9 3.8c1.6 1 2.1.2 2.1.2s1.5 1.7 2.8 1.3c1.2-.4.7-2 .7-2s1.1 1 2 .3c.5-.6-.3-3-1.4-5.4-.9-2-1.9-7.2-2.2-8.2-.4-1 1.7.8 3 1.9 1.3 1 3.3 1.5 1.6-1.2-1.6-2.6-2.7-5.1-3.2-5.8-.5-.6-2-3.4-4-4.8-1.2-1-3-1.6-4-5-1.6-5.4-3.4-25.4-4.4-35.2-.5-5-1.8-17.5-1.3-21.5-.5-12.2-27.9-.7-16.8 29z"/></g><path xmlns="http://www.w3.org/2000/svg" d="m324.6 346.7-.1-.1v.1zm11.2-12.2zm92.8-106.3-.1.2v-.2z"/><path xmlns="http://www.w3.org/2000/svg" d="M461.8 164.2c-.3-.6-.8-1-1.4-1l-3.9-.6c-1-.2-1.7.5-2.2 1.3l-.4.5-5 6.5v-.1l-3.4 1.3-3 1.5-1.5.8-.6.5-.5.4-1.8 1.6c-.5.6-1 1.2-1.4 2a7.5 7.5 0 0 0-.6 1.5l-.4 1.6-1.9 6.6c-.1.5-.4 1-.8 1.6l-1.3 1.7-.4.4a8 8 0 0 1-.8 1c-.4.5-.9 1-1 1.3l-.6.6v-.1l-2 2.5-3.2 3.6c-.7.8 0 1.7 4.2-2.8-.1 0 .6-.7.3-.6 1.2-1.6 2.5-2.6 2.7-3.3l1-1.1v.2l2-2.7.4-.7.5-1.1.2-.5c-.1.3-.1.4.1-.1l.1-.3c.2-.7.2-.6 0-.3v.1l.7-2 1.2-5.1v.7c0-.5 0-.8.2-1.2l-.2 1 .7-2c.3-.7.8-1.3 1.4-1.9l.2-.3.4-.6c.2 0 .1.2.7-.4l.5-.4.2-.1.1.2.6-.2c.9-.4 1.2-.8 2.3-1.4l2.2-.8 1.5-.7.2-.2v.8h.2c-.2.3 0 .5-.3.8 0 .5-.6.6-.8 1.2 0-.1 0 0 0 0-.2.2-.4.4-.2.5-.2.1-.2 0-.2 0s0 .2-.2.3l-.2.3h.1-.3v.2c-.2.2-.4.2-.7.3l-1.1.8-.6.4-.3.1-.5.3-.2.4-.1.2-.3.5c-.2 0 0 .4-.1.4v.1s-.1.1-.1 0v.3h-.2c-.3.5-.3 1-.5 1.5-.4.5-.8 1.7-1 2.3l-.4.7-.7 1 .1.4v.1h.2c0 .2.2.4.5.6l.3.1h.1a4.9 4.9 0 0 1 .7.5l1.4 1.1c.5.4 1 .5 0-1.1h.1c-.3-.4-.6-.7-1-.8.1-.2-.3-.3-.4-.4l-.3-.2-.2-.1h-.1l-.1-.1v-.2l.1-.1.2-.4a.4.4 0 0 1 0-.3v.2l4.6 1.2c.7.1 1.3-.1 2-.8a5 5 0 0 0 1.5.6h1c1.1.2 2 0 2.6-.4a2.2 2.2 0 0 0 .3-.4l-2.7 5.2-.2.4-.3.2-.7.8-2.6 2.3-1.4 1.1.5-.4c0 .3-1 .8-2 1.7l-.6.4c-.5 1-.9 2-1.5 2.8-.3.5.2-.5-.3.2-.1 0 .2-.3 0-.2l-1.5 2c-.8 1.3-1.7 2.2-2.1 3.1-.8 1.3-.8.7-1.5 2l-.4.5-.7 1s-.5.7-.3.3c-.8 1-1.5 2.1-2.3 3.4l-1.2-1.3h.2l-6.1-6.1c0 .2-1.1-1-1-.6l-.8-.8-.4-.4-.4-.5a3 3 0 0 0-1.5-.5 2 2 0 0 0-1.5.5 6 6 0 0 0-1.8 1.8c-1 1-1.4 1-2 1.4l.3-.2-4.2 3.3c-.8.6-.7.9-2.2 1.9.4-.4-.2 0-.7.4.3-.3.4-.4-.3 0l-.4.4c-.9.6-.7.5-.3.3h.2c-1 .4-2.7 1.6-2.9 1.4a10.2 10.2 0 0 1-3.9 1.2c-1.2 0-2.5 0-3.8-.3-.2-.2.4-.1 1.1 0l-1.8-.4c.1-.1 1 .2 1.6.3-2-.6-4.4-1.3-6.5-3l-.5-.2-1-.5c-.2-.4.2-.2-.8-1-.7-.8-2.2-2-3.2-3 .5.6.3.5 0 .3-.4-.5-.6-.9-1-1.2v-.2c.1.3-1.3-1.1-1.5-1.3-.1-.3.8.7 1 .8l-2.2-2.4A44.2 44.2 0 0 0 367 184c-1.7-1-3.6-1.9-5.4-2.5l-7.6-2.7.6.4a23.3 23.3 0 0 0-9.4-1.1c-2.5-.2-4.7.4-6.6.7a25 25 0 0 0-5.2 1.7c-.3 0-1.3.2-2.3.7l-2.7 1.3h.1l-2 1.3-1.9 1.4-1.7 1.5-1.6 1.7c0-.1 0-.2.5-.7l-2.3 2.5-1.3 1.3a110.8 110.8 0 0 0-9 12.6v-.2c-.8 1.7-1.3 2-2.2 4l-.2.1-2 3.4-1.6 3.2h-.2l-1.8 3.7a21.3 21.3 0 0 1 .7-1.3c0 .6-1.5 2.6-2.5 5.4-.6 1.2-1 2.6-1.4 4a30 30 0 0 1-1.3 4c-.2 1.3.2-1.2-.3.7-.2 0 .2-1-.1-.5-.6 2-1.2 3-1.7 5.5h-.2l-.5 2.4-.4 2.1-.2 1v1c-.1.6-.2 1.2-.1 1.8l-.2 2.8c-.1.5-.2 1.1 0 2.9l-.1 1.3c0 1.5.2 1 .2 2.7v1.1c.1 3.7.9 7.5 1.4 12.3.3 1 .6 3.5.9 4.2 0 .2.8 4.9.2 2.2l-.1-.6-.2-.3c.3 2.7 1 5 1.5 7.6 0-.8-.3-1.9 0-1.2l.4 2.5-.2-.5.8 3.8v-.6c.3 1.8.2 2.5.9 4.5.3 1-.3-1.7.2.2l1 4.3.5 2.5.1.6c.1.4.3.7.6 1 .5.6 1 .7 1.6.9-.2-.1 0-.1.4 0l.8-.1.6-.1h.1l1-.1.5 1.4.6 1.9c2.2 6.9 3.7 10.3 7.2 18.3l3.5 7.9.8 1.6.4.8a21 21 0 0 1 0 1c.3 1.3.6 3 1.2 4.9a44 44 0 0 0 4.7 10.5l1.9 2.8c.8 1.1 1.7 2 2.5 2.7l.5.6 1 .7a5.2 5.2 0 0 0 1.3.6h-.1 1.3l.4.3a4.3 4.3 0 0 0 .5.3c.3.2.8.5 1.4.5h-.3a2 2 0 0 0 1.6-.3 1.6 1.6 0 0 0 .6-.7l.1-.3v-.2h.2l.2.1h.6a2 2 0 0 0 1-1l-.2.3.2-.6v-.4a8 8 0 0 0 0-.7l-.3-1-.7-1.9-.7-1.6-.6-2c-.6-1.7-.9-3.2-1.1-4.6l1.1.9 1.3 1c-.5-.4.2 0 .2 0l.4.3.6.1c.4 0 .8 0 1-.2.3-.3.4-.6.3-1v-.4a1.6 1.6 0 0 0-.2-.4c-.5-1-.8-1.2-.9-1.2-.7-1.2-.5-1-.5-1.2l-1.2-2 .2.5c-.5-1-.8-1.8-1.4-2.7l-.1-.2v.1l.2.5a4.4 4.4 0 0 0-.3-.4l-.7-1.3h-.1l-1.8-2.4a10 10 0 0 0-1-1.1l-1.3-1a7.7 7.7 0 0 1-3.2-5.5c-.5-2.3-.8-4.7-1.2-7a235.3 235.3 0 0 1-1.5-13.8v-.4c.2-.2-.4-2.2-.3-2.6 0 0-1.2-4.6-1 1.1 0 0 .2 1.5 0 .8l1 9c.2.8.3 2.6.5 3.1 0 .1.4 3.6 0 1.6v-.4l-.1-.3c.1 2 .5 3.7.8 5.7 0-.6-.2-1.4 0-.9l.2 1.9v-.4c0 1 .2 1.9.4 2.8v-.4l.2 1.6.7 1.8c.3.6-.5-1.3.2 0 .4 1 1 2 2 2.9l1.6 1 1.2 1.2.7.7 1 1.4c0 .2.1.4.9 1.4v.1l.3.2c1.1 1.8.4 1 1.7 3.2-.5-.9 0-.5.5.6l-.2-.3.7 1.2c-.3-.3-.2-.2.3.7l-.4-.5.9 1.3v.3h-.5a4.6 4.6 0 0 1-.8-.6l-.5-.5-1.2-1-.6-.4-.3-.2c-.1-.1-.2-.2-.6-.2l-.5.1-.2.3v.6l.1.2.2.3c-.3-.5.1 1 0 .6a48.6 48.6 0 0 1 1 4l-.1-.2a22.6 22.6 0 0 0 1 3.5l.5 1a18.2 18.2 0 0 1 1 2.9v.8h-.5l-.3-.1-.4.1-3.8-9.4a.5.5 0 0 0-.7-.3.5.5 0 0 0-.2.7l3.9 9.7.2.2v.3l-.2.1a.5.5 0 0 1-.2.2h-.7l-.8-.4-.1-.1v-.4l-4.4-9.3a.5.5 0 0 0-.6-.2.5.5 0 0 0-.3.7l4.1 8.8h-.4c-.4.1-.8 0-1.1-.2l-.7-.5.3.2c-1-.7-1.7-1.4-2.2-2l-1.6-1.8c-.6-.8-.8-.8-1.7-2.4l-.4-.7c.2.3.3.5-.1-.3l-.3-.5-.2-.3v.2c-.5-1-1.5-3-1.4-3.1a45.4 45.4 0 0 1-2.5-7 45.6 45.6 0 0 1-.5-2l.4 1.8-.7-3.6v-.8l-.2-.3-.5-1-.9-1.8-.3-.5v-.1l-.5-1-.5-1.2-1.9-4.2c.3.8.2.5 0 .2l-.6-1.5-.9-2c0-.3.5 1 .6 1.2l-1.6-3.9c-.6-1.3 0 .3-.3-.3l-1.5-3.8v.5L309 305l-2.6-6.7c1.1-.1.4.2 3-.3l.5-.3c3-.7 1.7 0 5-.8-1.4.2-.7-.2.9-.4l-.4.2 1.7-.4c-.5.2-.2.3 1.1 0l-.9.3 2.5-.6c1.5-.1 3.7-.5 5-.7v.3h26.6a19.1 19.1 0 0 0 12.8-5.8 1 1 0 0 1 0-.1c6 0 14.2 0 20.6-.2a5.9 5.9 0 0 0 1.5 3.7c1 1 2.4 2 4.5 2.4h6.8v-.6l-.2-2.2-.1-1.4a38 38 0 0 0-.5-3.3c.1.6 0-.2.1-.2-.3-2.2-.6-4.5-.8-4.5-.2-1.6-.1-1.3 0-1.6l-.5-2.6.1.6-.4-3.6-.1.7c-.2-1.9.2-.5 0-2.3h-.2c-.3-2.6-.2-4.1-.4-6.7-.6-5.5-1.5-11.3-2.3-17 .4.3.9.4 1.3.5l2 .6c.4.1 1 .2 2.2 0l1 .1c.6 0 .8-.1 1-.2l1-.3c0 .1 1.5-.5.9-.1 2.7-.9 4.8-2.6 7.8-4.4.5-.7 2-1.6 2.3-2 .2 0 2.8-2.3 1.4-.9l-.4.3v.2a9 9 0 0 0 2.1-1.8l2-2c-.5.5-1 1-.7.6l1.3-1.2-.2.3 2-1.9-.3.2c1-1 1.5-1 2.3-2.3.4-.6-1 .8 0-.3 1.6-1.5 3.2-3.1 4.6-4.8-.2 0 .2-.4.6-.9h.1c1.4-2 .8-.5 2.2-2.4l.1-.5c1.1-1.8 1-.7 2.1-2.8-.6.7-.5.2.2-.7v.3l.7-1.1c-.2.4 0 .3.5-.5l-.2.6.9-1.6c.9-1 2-3 2.4-3.3l.1-.2.2-.2a2.3 2.3 0 0 0 .3-.5c.3-.7.2-1.9-.6-2.5l-1-.9c.5.4-.6-.8-.2-.6l-.8-.7 2-2.8.2-.1c.1 0 .7-1.3.9-1.4l.3-.5c0-.2.3-.5.2-.2l.5-.8.4-.5 3.6-5.4 1.2-1.6 1.2-1.8 1.4-1.1 1.4-1.2 2.5-2.3 1.4-1.3 1-1.3.7-1.2 1.5-2.6a58.6 58.6 0 0 0 3-5.8l1-2c.3-.2.6-.6.9-1.1v-.8l.2-.4.4-.8.7-1c1-1.6-1-2.7-2.3-3.3l4-5.6c.4-.5.5-1.3.2-1.9zM382.3 288l-.2-.2h-4.4l1.7.1c-.6.3-3.3-.2-6.5 0-2.6 0-5.2.4-7.8.5.4-.7.8-1.5 1-2.4l1.1-4a104.9 104.9 0 0 0 2.8-16.8l1-9.2.4-6.5.6-11.7c0-3.5 0-5.9-.3-5.3l-.3 1.5v-1.5l.2-6.7.3 6c.1 1.8.3 1.7.4.7.2-.9.3-2.6.4-4.1l.1-2.8a92.5 92.5 0 0 0-.3-13c-.5-4-1-8.4-2.7-14.3a35.7 35.7 0 0 0-6.1-12.8 49.1 49.1 0 0 1 9 8.8c1.7 2.3 3.3 5.5 4.4 8.1 1 2.6 1.6 4.5 1.7 4V205l.3 1.2 1.3 5.5a26.3 26.3 0 0 0-.5-1.7l-1.1-3.2c-.6-1.3-.7-1.1-.6-.4a35.9 35.9 0 0 0 .9 5.5l1.7 10.3c.5 3.3 1 6.7 1.5 11.6.6 8.5.4 10.8 1 19.7l.4 13c.3 1.9.1 5.4.4 7.7l-.1 1v2.5l.2 3v1.5-.3a127 127 0 0 1 .2 6h-2.2zM452 185c-.4.3-1 .4-2 .3-1 0-2-.5-2.5-1a1 1 0 0 1-.3-.6c0-1 2.2-.8 2.4-.8l.6.1c.6.1 2 .3 2.3.7v.3c0 .5-.2.8-.5 1zm1.4-.4.1-.5c0-.3 0-.7-.2-1 .3 0 .7 0 1-.2-.3.8-.8 1.7-.9 1.7zm1-1.7zm-2.3-.7c-2-.3-3.4-1.4-3.4-2.3 0-.2.1-.4.3-.5.7-.5 2-.5 2.5-.3h.5c1 .2 3.5.6 3.3 1.6-.2 1.1-1 1.5-3.3 1.5zm4-2.5v-.1zm1.4-2.2c-.4 1.2-1.4 1.4-3.9.9-1.6-.3-2.9-1.1-3.3-1.8-.1-.3-.2-.5-.1-.7.3-.9 2-.9 3.1-.7l.4.1.3.1c.3 0 .5.2.8.3l.6.3 1.3.4c.4.3.7.5.8.8a.3.3 0 0 1 0 .3zm1.5-3c-.4.7-1 1.2-2 1a10 10 0 0 0-1.7-.7c-1.4-1-2.3-2.3-2-3a.8.8 0 0 1 .6-.4c.7-.2 1.8.2 2.4.6l.7.5c1.2.6 2.3 1.3 2 2z"/><g xmlns="http://www.w3.org/2000/svg" fill="#fff"><path d="M352.2 249.4c-.1-.4-.3-.4-.4-.1a39 39 0 0 0-3.6-.8 17 17 0 0 0-4.2 0c-.2-.3-1.5-.1-2-.2h.1c-1.1.2-2.3-.3-3.4-.1l.3-.1-1.9-.1h-3.6l-.4 1.7c2.5.2 5 .6 7.4.4h11l-.3 1.6c-.7 3.6-.5 5.5-.9 9.8l-1.4 8.6-.6 2.6c-.2.8-.5 1.5-1 2.1-.3.7-1.5 1.5-2.2 2l-.4.2-.9.5c-.4.2-1 .3-1.2.5l-.5.1c-.7.3-1.6.5-2.4.6-1.7.2-2.3.5-3.9.3-2 .4-3-.3-5.1-.3.2 0-.1 0 0-.1l-1.5-.2-.2 1.9c.7.3 1.9.3 2.1.5l.9.1h1c-.3.1.6.2.4.3h2c1.8.1 3-.3 4.7-.4-.1 0 .7-.2.5-.3 1.6-.5 3-.4 3.5-1.2l1.2-.4-.1.1.8-.5.6-.3 1-.9c.5-.4.3-.6 1-1.3 0 .3.2 0 .4-.3-.2.2-.2.3.2 0v-.3h.1c.3-.6.2-.5 0-.3.1-.2.4-.5.5-.9l.4-.6.3-1.3.1-1.1.2-2c.1-.2.2.1.1.5l.1-1c.2 0 0 .6 0 1 .4-1.2.2-2.6.6-4l-.1-.2v-.7c0-.1.2 0 .3-.6.2-.5.2-1.6.2-2.3-.1.4-.1.2-.2 0l.2-.7h.2c-.2 0-.1-1-.1-1v.6l.3-2.1c0-.8-.2 0-.3-.3 0-.7 0-1.3.2-2l-.2.2c0-1.3.2-2 .4-2.8l-.2-4c.5 0 .6-.2-.1-.5zm-22.8 30.9v-.3.3zm15.3-50.9zm-13.3 42.7v.1z"/><path d="m330.2 283 .8-6.6.4-4.3.2-2.5v-.3a3 3 0 0 1 .1-.9l.1-1 .1-.5v.1l.2-2c.2-1.3 0-1.8.3-3 0-1.6.5-2.4.5-4 0 .2 0 0 .1 0 0-.8.2-1.6 0-1.6l.2-.5v-.9.2l.2-1.1-.2.2c.2-.7.2-.2.3-.8h-.1c.1-.8.4-1.3.6-2.1l.6-2.6.3-1.3.4-1.3c.2-.8.7-1.6 1-2.4l1.3-2.1.1-.1c.1 0 .3-.9.5-1l.1-.3c.1 0 .2-.2.2 0l.2-.6.3-.3 2.1-3.4c1.2-1.3 3-4 4-5.6 1.5-2.3 3.8-4.4 5.3-6.7l.2-.3 1.6-1.9 3-3.8c1.2-1.5 1.5-2.3-2 .9h.1c-1 1-1.5 1.6-2 2.4-.2 0-.7.9-1 1.1l-1.5 2v-.3c-.3.5-.8 1.2-.9 1.1l-2.5 3.5-.7 1-1.2 1.7h-.1l-.6.9.2-.3c0 .2-.6.6-1 1.3-.4.6-.5 1.5-1 2-.2.4 0-.3-.3.2 0 0 .1-.2 0-.1-.3.4-.6.6-1 1.3-.4.8-1 1.3-1.2 1.8-.5.8-.5.4-1 1.3l-.2.3c-.2.3 0 .3-.3.7 0-.1-.4.4-.3.2-.6.8-1 1.8-1.7 3 0 .3-.3.9-.4 1.1l-.3.6c0 .2-.1.3 0 0v-.4c-.4.7-.4 1.4-.7 2 0-.1.2-.4.2-.2a3.5 3.5 0 0 0-.3.7v-.2l-.3 1h.1c-.1.4-.3.6-.3 1.2 0 .3.2-.5 0 0l-.6 2.6c.1 0 .1.2 0 .4 0 1-.2.3-.3 1.2v.2c0 .9-.2.4-.1 1.4 0-.4.2-.2 0 .3v-.1.5c0-.2-.1-.1-.1.2v-.2.7c-.2.5-.2 1.3-.4 1.6 0 0-.2 1 0 1.4-.1-.3-.2.3-.3.1a5 5 0 0 1-.1 1.6c-.3 1.2-.2 2.1-.4 3.3v.4c0 1.2-.4 2.2-.1 2.7 0 .5-.2.6-.2.9v-.2l-.2 2.1v1.2l-.1.3c0-.2 0-.2-.1 0v.5-.1c0 .4 0 1.2-.2 1.3l-.1 3.3-.1-.5v.8-.7c-.3.9-.1 1.9-.3 2.9v.7l-.2.5v1.7c0-.3 0-.2 0 0v.5h-.2v.9-.5l-.1 1.5c0 .6 0 0 .1.2v1.6-.2c0 1 0 1.5-.2 2.1 0 7 .8 1.5.8 1.5.4-2.8.3-4.2.5-7.4l.2.1zm60.4-39zm-5-28.3zm5.5 23.8zm.8 5.8c-.2-1.6-.1-2-.4-3.6l-.4-2.2c-.2-.3-.1-1-.3-1.4v-.1a1.1 1.1 0 0 1 0-.5l-.2-.5v-.3l-.2-1c0-.7-.3-1-.3-1.6-.3-.7 0-1.3-.4-2l.1-.1c0-.4-.2-.8-.3-.8v-.3l-.2-.4v-.5l-.2.1c0-.3.2 0 .1-.4v-1.2c-.3-1.9-1-3.8-1-5.6.1-.1-.3-.5-.2-.6l-.1-.2v-.6l-.5-2.1c0-1-.5-2.7-.8-3.6-.5-1.4-.4-3.1-.9-4.5v-.2l-.3-1.3-.7-2.5c-.4-1-.7-1.3-.7 1.2 0 .7.2 1.2.4 1.6-.1.2.1.6.1.8.2.4.1 1 .3 1.3v.7c.2.7.4 1.7.7 2.2l.1.6c.2.3.2.9.3 1.1v.6-.2c.3 0 0 .4.2.8 0 .4.6.8.6 1.2 0 .2-.2-.1 0 .1h-.2l.1.8c.2.5 0 1 .2 1.2.2.5-.1.4.1.9v.5s.1.3 0 .2c0 .6.4 1 .3 1.8.2.1.2.5.3.6v.3c-.1 0-.1 0 0 0h-.2l.3 1v-.2l.1.4v.5-.1l.1.7c.1.1 0-.3.2 0v1.4c.1-.1.2 0 .2.2.1.5-.2.2 0 .7h-.1.2c.2.4-.1.3.1.7 0-.2.2 0 .2.2v.2c0-.1-.1 0 0 .1h-.2l.2.3c0 .3.2.7 0 .8 0 0 .1.6.3.8-.1-.1-.1.2-.2.1l.2.8c0 .7.3 1.1.3 1.8 0 0 0 .3.2.2.2.6 0 1.2.3 1.3v.5l.1 1c0 .3.3.3.3.6-.1 0 0 0 0 .2h-.1v.2c0 .2 0 .2 0 0h.1v.7c.1.7.3 1.2.5 1.7l-.2-.2v.4-.3l.2 1.5v.1l.2.2-.1.3.2 1v-.1.3l.2.5-.2-.3.2.9c0 .3 0-.1.1 0l.2.8c.2.4.2.7.2 1 1.2 3.6 1 .7 1 .7 0-1.5-.3-2.2-.6-4h-.1zM330.5 295h.1zm26.5-1zm-22.3 2.3zm-5.5-.1c1.4 0 1.8.2 3.3.1h2.1l1.3-.1h2.3c.6 0 .8-.2 1.4 0 .8-.3 1.2.1 2 0 .4 0 .8 0 .8-.2l.3.1.4-.1h-.1.6l-.1-.1.3.1v-.1c.5 0 .7.2 1.1.3 1.8 0 3.6-.3 5.3 0 0 .2.5-.2.5 0h.8l2-.2 1.8-.3a11 11 0 0 0 1.7-.7c1.2-.7 2.8-1 3.9-1.9 0 0 .1-.1 0-.1l1.1-.7.7-.6 1.2-1.1c.3-.4.4-.7.3-.8a5 5 0 0 0-1.7.8c-.5.3-.8.5-1.1 1-.2-.2-.5.2-.6.3-.3.3-.8.3-1 .6-.2 0-.5.3-.6.2l-1.8 1c-.1.2-.2.2-.5.3-.2.2-.7.3-1 .4l-.5.1h.2c0 .2-.4 0-.7.2-.4 0-.7.6-1 .5-.2.1 0-.1-.2 0 0-.1.1-.1 0-.2l-.7.1h-1.1c-.4.1-.3-.2-.8 0l-.1-.1c-.2 0-.2.1-.4 0h-2.8.1v-.1c-.3-.2-.6 0-1 0 .1 0 .3 0 .2.1h-.4.1l-.5-.1h-.6c-.1 0 .3.1 0 .1l-1.3-.1-.2.1c-.4 0-.2-.2-.6-.2v.2c-.5.1-.3-.2-.8 0 .2 0 .1.2-.1.1h-.2l-.1-.1v-.1l-.3.1h-1.5c.1 0-.2 0 0-.2-.2.1-.6.2-.8 0-.6 0-1 .2-1.7 0 0 .2-.2.1-.2.2-.6.1-1-.2-1.3.2l-.4-.1h-1c-.2 0-.2.2-.6.1h-.1v-.1h-.2c-.2 0-.2 0 0 0h-.7l-1.6.2.2-.2h-.4.4-1.6l-.2.2c0-.1 0-.2-.2-.2h-.9c.1 0 .1.1 0 .1h-.7.3-.8c-.3 0 0 0-.1.1-.2 0-.5.1-.8 0l.1.1h-1c-3.4.7-.7 1-.7 1 1.4.1 2 0 3.7-.2zm56.1-5.1zm6.1 3.8zm-6.5-2.2zm-.7-1.7c0 .5 0 .7.3 1.1l.3.6c.2 0 .2.3.4.3v.2h.2v.2a.5.5 0 0 1 .2.2c.2.2.4 0 .4.3.4 0 .2.4.6.4 0 .1.2.2.3 0v.2h.3c.1 0 0 0 0 0h.1l.2.4c.5.3 1.2.2 1.6.6 0 .2.2-.1.2 0 0 0 .1 0 0 0h.2v.1c.2.2.4 0 .7.1.2.2.7.2 1 .1.5-.1.9.4 1.3.2h.5s1.8.1.5-1h-.5c0-.1-.2 0-.2 0-.1 0-.3-.2-.4 0v-.1H391c0 .1 0-.2-.2 0-.1-.1-.3.3-.4.2v-.2s0-.2-.2-.1v-.1h-.3c-.2 0 0-.3-.2-.2-.1-.1-.1 0-.2 0v-.1c0-.2-.3 0-.4-.2-.1.1-.2 0-.2 0s-.2 0 0 0v-.1c0-.2-.2 0-.3 0h-.1v-.2.1c-.1 0-.1-.2-.2-.1 0 0 0 .1 0 0l-.3-.2h-.1c-.2 0 0-.2-.1-.2v.1c-.2 0 0-.2-.3 0 0 0 0 .1 0 0v-.1h-.1l-.2-.2s0-.1-.1 0v-.2l-.1-.1c-.1-.2-.3-.1-.3-.3h-.2c-.2 0 0-.3-.3-.2v-.1a.8.8 0 0 1-.2-.2h-.2v-.2s-.1-.1 0-.2l-.4-.3h.1v-.1c.1-.1-.2-.1-.1-.3h-.2l.2-.1-.2-.2v-.1l-.1-.1h.1v-.2h-.2s-.2 0-.1-.2c-.2 0-.2-.1-.1-.2-.5-.4-.7-.5-.8-.4-.2.1-.2.3-.2.3-.1.5.2.7.4 1.2zM317 191.6l.2-.1-.2.1zm33.5-13.3zm-28.5 10zm-5.3 5.3 1.5-1.6 1.6-1.7 2.1-2 1.3-1.2.2-.1.4-.4.5-.4.3-.2a6 6 0 0 1 1-.8c.8-.5 1-.8 1.8-1.2.7-.8 1.5-.7 2.3-1.4-.1.1 0 0 0 0 .5-.2 1-.5.9-.7h.3l.5-.3.6-.3h-.2c.4-.2.2 0 .6-.1v-.1l1.4-.4 3.5-1.1 1.8-.4c.5-.1 1.1-.3 1.6-.2h.2c0 .2.6-.2.6 0l.3-.2s.2 0 0 .1l.5-.1h3l2.3.1 2.4.2c1.8.1 3.7 1.2 5.5 1.7h.2l1.5.8 1 .5 2 1.1c.5.4.8.6.8.4s-.3-.8-1.5-2c-.8-.5-1.3-.8-2-1 0-.2-.7-.3-.9-.5-.5 0-1-.6-1.6-.6h.2l-1-.4c-.9-.3-2.2-.7-2.9-.7l-.8-.1c-.4 0-1.2-.3-1.5-.2v-.1l-.8-.1h.3c0 .2-.5-.2-1.1 0-.5-.1-1.1.2-1.6.1-.3 0 .2-.1-.2 0 0-.2.2-.1 0-.2h-1v-.1c-.6 0-1.2-.1-1.6 0-.6.2-.4-.1-1 0h-.4l-.5.1h-.2a4 4 0 0 0-1.1 0l-1.3.3-.8.3s-.9.2-.4 0c0-.1.1-.1.1 0v-.2c-.5 0-.9.3-1.4.4h.2l-.4.2v-.1l-.6.2-.8.2c-.2.1.4 0 0 .2-.5 0-1.2.2-1.8.4.1.1 0 .2-.2.2l-.9.3v-.1.2c-.5.4-.4 0-1 .4.3 0 .3.1 0 .2h-.3l-.2.1v-.2l-.3.4c-.3 0-.8.5-1 .5 0 0-.7.3-.8.5h-.3c-.1 0-.6.5-.9.5-.7.4-1.2 1-1.9 1.3l-.2.3c-.6.6-1.3.8-1.4 1.3l-.5.3v-.1l-1 1-.6.6c.1-.2 0 0-.2 0 .1 0 .1 0 0 0l-.1.2-.1.1c-.3.1-.6.6-.7.5l-1.5 1.8.1-.3-.3.4.3-.4c-.6.3-.8 1-1.4 1.5v.1h-.1l-.1.3c-.2 0-.2-.1-.4.2-.2.1-.5.6-.7 1 .1-.2.1-.1 0 0l-.2.2-.3.5c-.2 0 0-.3 0-.3l-.6.8c-.2.4.1 0 0 .2l-.6.9h.2l-1 1.1c-1 2.2-.9 2.5-.6 2.3l.9-1c1.2-1.3 1.6-2.2 3-4z"/></g></svg>