<svg xmlns="http://www.w3.org/2000/svg" viewBox="0 0 720 640"><path xmlns="http://www.w3.org/2000/svg" fill="#e8ecef" d="M567.9 484a264.4 264.4 0 1 0-415.7 0h415.7z"/><g xmlns="http://www.w3.org/2000/svg" fill="#fff"><path d="M449.2 312.8zM228 314zm-11-51.8v.3-.3zm-51.7-69v.2-.2zm48.8-33 .1.1h-.1zm-45-8.8.2-.2-.3.2zm22-18.1zM652 371c-2.8-.3-7.4-1.3-13 1.5a60.9 60.9 0 0 0-15.8 15.4L597 420.2c-2.7 0-4.5.2-4.5.2s2.4-13.6-5.5-24l8-24.3c13.8-42.4 20.4-90 20.4-90s-14.5 22-26.2 46.2l-9.4 23.7a281.2 281.2 0 0 0-4.6 13.7l-6 20.3c-2.2-.4-4.3-.4-6.3-.2a519.7 519.7 0 0 0-1.6-15.7c-4.8-39.6-15-78.7-15-78.7s-8.5 40-2.6 83.2l2.8 18.6c-2 1.8-3.2 3.2-3.2 3.2s-16-18.3-46.4-13.2a34.6 34.6 0 0 0-27.2 21.3c-55.6-26.5-149.5-64-247.8-71l-9.1-123.7 4.3-10.3.2-7.8h-4.5l-.2-31.8h5.4l.2-5.4h-1.1l-25.7-16.2H190l-24.9 16.2h-.3l.2 5.4h5.4l-.2 31.8h-4.5l.2 7.8 4.3 10.3-8.8 121.1a988 988 0 0 0-36.2 0c-4.3-15.6-9.1-26-9.1-26s-3.5 12.3-4.6 26.4l-15.3.4a518 518 0 0 0 6.2 48.8l11.8 48a34.1 34.1 0 0 0-6 3.4c-2.8-6.4-8.2-18-17.8-37.3-2.6-5.2-7-11.8-10.7-14.9a13 13 0 0 0-7.6-2.6l-47.6-.7 37.1 10.2a8 8 0 0 1 4.5 3c2.2 2.9 6 8 8 12l9.2 18 6.6 12.3 7.4 14a29.3 29.3 0 0 0-1.5 17 29 29 0 0 0 2.6 7.4A22.7 22.7 0 0 0 74 484.5h324.2l15.9-.5h227.6s7.4-4.6-1.8-18.9-24-11.4-24-11.4 6.3-7.5 1.7-21.8c-1-3.2-2.8-5.5-5-7.2l23-26.9c3.7-4.3 9.6-9.7 13-12.7 1.7-1.5 3.8-2.4 6-2.8l44.4-6-47-5.3z"/><path d="M571.6 368v.2-.1zm44.3-86.9.1-.8-.3.6.3-.5-.1.8zM104.6 422v.1-.1zm4.3-8v.1-.1zm4 7.3v.2-.2zM564 484.7h.5-.5zM245.6 135h45.8c8.6-.2 7.4-4.8 5.8-7.2-2.2-3.7-8-2.1-8-2.1s1.7-8.6-6.4-12.4c-7.1-3.3-12.3.5-12.3.5s-8.3-12-23-7.8c-14.8 4.3-13.4 18-13.4 18s.7 11 11.5 11zm22.1.4h.5-.5zm17.6-21.1zM454.6 165h101c15.6 0 13.6-21-1.9-19.8-6.4.5-10.7 1.2-10.7 1.2s5-21.1-15.3-29.6c-24.1-10-34 13-34 13s-13-6.4-24.7-1c-13.6 6.3-10.6 20.7-10.6 20.7s-9.8-2.6-13.5 3.4c-2.6 4.2-4.6 11.8 9.7 12.1zm112.5-8.7v.2-.2zm9.9 163a11.1 11.1 0 0 0 13.1-8.6l13.3-64.3a11.1 11.1 0 0 0-8.6-13 11.1 11.1 0 0 0-13.2 8.6l-2.4 11.7-2.5 13.4-8.3 39c-1.3 6 2.6 12 8.6 13.2zm-.4 3.9v-.2.2zm15.5-90.5h.5-.5zM568 305l.1-.1zm44.8 71.5c5 3 11.5 1.5 14.6-3.4l32.8-53.2a10.6 10.6 0 0 0-18-11.2L609.5 362a10.6 10.6 0 0 0 3.4 14.6zm1.8-23.9.3-.4-.3.4zm25.2 1.2v-.1zM81 363.3a10.6 10.6 0 0 0 13.7 6 10.6 10.6 0 0 0 6-13.7l-22.5-58.3a10.6 10.6 0 0 0-13.7-6 10.6 10.6 0 0 0-6.1 13.7L81 363.2zm13.3 10-.1-.1zm-3.6-45.6v-.2a.3.3 0 0 0 0 .2zm9.7 3.6c-.5-2.1-.4-1.9-.2-.2l.2.2z"/></g><g xmlns="http://www.w3.org/2000/svg" fill="#9ca5b2"><path d="M694 377.5c-.6 0-1 .1 1-.2l9.2-1.2-10.6-1.2h-.7l-1.5-.1-.1-.1c-4-.4-1.4-.4-5.4-.7h-.7c-3.6-.2-2-.3-6-.6 1.6.2.7.3-1.2 0h.5l-2.1-.2-1.3-.2h1.1l-3-.2-6.9-.8-6-.6c1 0-1.8-.3-1-.3a53 53 0 0 1-6.6-.7h.3l-4-.5-3.7.1c-2.5.3-4.7 1-7 2.2l-1.6 1.1a48 48 0 0 0-8.4 8l-2.7 3 .4-.4-5.8 7c-1 1.3-1 1.6-3 4 .6-.9-.2 0-.9 1 .5-.6.6-.8-.4.3a6 6 0 0 1-.5.6s0 .1 0 0a8.7 8.7 0 0 0-.4.6l.2-.2-3.6 4.3-8.9 11 1.1-1.5-2 2.6 1.7-2.3c-2.2 2.5-4.3 5.3-6.7 8.3H595a29.2 29.2 0 0 0-1.3 0l-.3.1h-.2v-.3l.1-.9.1-2v-.7l1.4-3 .4-.5a6 6 0 0 1 .9-1.8l1-2.2.6-1v.2a43 43 0 0 1 2.1-4.3h-.1l3.5-6.3c1.6-3.2 3-5 4.6-8.3-.2.4.1-.2.1-.1.9-1.5 1.8-3.1 1.6-3.3l.7-1 1-1.8-.2.4 1.3-2.5-.4.4c.8-1.2.4-.2 1-1.5.4-.8.9-1.5 1.3-2l.6.3 1 .4 1.3.3c1 .2 2.2.2 3.5 0v.1a10 10 0 0 0 6.3-3.9c.2 0 .6-.6 1-1.2l1-1.5c.9-1.7 2.1-3.3 3-5l-.2.5c.7-1.1 1.6-2.7 1.8-2.8l5-8.4v.1l1.4-2.4.1-.1 2.5-4.2 1.4-2.2-.5.8c0-.4 1.1-1.6 2-3.2 1-1.5 1.5-3.2 2.6-4.7.3-.8-.3.7.3-.4 0 0-.3.5 0 .3l1.9-3 .1-.1c1-1.8 2.1-3.2 2.7-4.5 1-1.8 1-1 2-3l.5-.6c.5-.8.2-.7.8-1.5 0 0 .7-1.1.5-.6l4.1-6.7c.3-.6 1-2.1 1-2.7l.4-1.4c0-.6.1-.9.1 0 0 .2 0 .5-.1.4v.3c.5-1.9.3-3.5-.1-5.2 0 .5.2 1.2 0 .7 0-.5-.2-1-.4-1.6l.2.3c0-.4-.3-.8-.4-1.2l-.6-1.1.1.3c-.6-1-.7-1.6-1.8-2.5-.5-.4.8 1-.2 0-.4-.5-1-1-1.8-1.6l1.6-2.6 6-10c2.3-3.8 3-5.5-3.3 3.6v-.2a80.4 80.4 0 0 0-3.8 6.5c-.3.2-1 1.3-1.4 2.2-.8-.5-1.8-.8-2.7-1h-1v-.2h-1.5c-.2-.1-.5-.2-1.6 0l-.4.2-1.5.4c-.1 0-.3 0-.5.2-.3 0-.6.2-1 .5.7-.4.3 0-.6.5l.2-.2-1 .6c.3-.2 0-.2-.6.4l.4-.4-.6.5-.6.7c-.5.4-1 1-1.4 1.7l-.9 1.3-1.7 2.8c.3-.5-.5.7-.4.3-.3.7-1.3 2.4-1.8 3-1.6 2.4-2.5 4.4-4 6.6.1 0-.7 1.1-.4.9-1.3 2.4-2.8 4.2-3 5.2l-1.3 1.8.1-.2-2.5 4c-.4.9-.3 1-1.2 2.4.2-.5-.1 0-.4.6.2-.3.2-.5-.2.2l-.2.4-.2.3h.1l-1.6 2.4-3.8 6.5c-.2.2 0-.3.4-.9l-.9 1.5.8-1.4c-1.2 1.7-2.2 3.8-3.6 5.8l-.2.4v.2l-.5.8-.7 1c-.6.7-1.4 2.2-2 3.3.3-.6.2-.3.1 0l-.8 1.1-1 1.6.6-1-2 3.1c-.5 1.2.3-.1 0 .5-.4 1-.7 2.1-1 3.5a3.3 3.3 0 0 1 .2-.5c-.3 2.2 0 3.5.3 5a10.2 10.2 0 0 0 4.5 5.4c0 .3.1.3.2.5v-.2l.7.6-.4-.3-.3.6h-.1c-1 2-.6.6-1.6 2.6v.4c-1 1.8-.7.8-1.6 2.8.4-.7.3-.2-.2.7v-.3l-.5 1-.4.6.2-.5-.7 1.5c-.7 1-1.6 2.8-2 3.2l-1.5 3c.2-.5-.6.8-.4.4l-1.7 3.2v-.2c-1.5 2.7-2.4 4.7-3.8 7l-.4 1c-1.2 2.6-2.6 4.6-2.8 5.6l-1 2v-.3l-1 2.3-.1-.5c-.2-2.6-.6-5.2-1.4-7.7a28.9 28.9 0 0 0-4.1-8.5l.2-.8v.4l.1-1c1-3.6.8-2 2-5.9-.6 1.6-.5.7.2-1.2l-.1.5.7-2c-.2.6 0 .3.5-1.3l-.3 1.1.8-3c.9-2.2 2-5.8 2.3-6.7 0 0 1.6-4.5 1.9-5.8-.1.5.6-1.8.5-1l1.9-6.6v.3a257.6 257.6 0 0 0 2-7.5l2-7c-.2.2.6-2.5.3-1.8l1.8-7 .9-4.5 1-4-.1.6 2-9.1c.3-1.7.2-2 .9-5-.1 1 0-.2.3-1.3-.1.7-.1 1 .2-.5a13.8 13.8 0 0 1 .1-.9 11.2 11.2 0 0 0 0-.4l1.2-5.6c1.1-5.6 1.7-9.6 2.5-14.3l-.2 2 .5-3.4-.4 3 1-6.2.5-3.3.7-4.5.1-1.2.1-.5v-.5l-1 1.6c-.4.6.2-.6-1.8 2.5l-.5.8-.4.8-1 1.7-2.1 3.4c.7-1 .5-.7.2-.2l-1.4 2.3h-.1l-1.7 3.1 1-1.8-3.6 6c-1.2 2.2.3-.3-.2.7l-3.4 6 .5-.6-4.6 8.2a206.7 206.7 0 0 0-6.1 13.4l2.4-4.4 1.5-2.9 7.4-13.6 8.6-15 3.5-5.6.8-1.2v-.1l.1-.1.2-.2-.1.4-.6 3.7-1.6 9.5-3.6 18.7c-.5 3-1.6 8-2.3 11.3l-.4 1.3-.8 3.6-1 4.5v-.1l-.5 2.1v-.4l-2.1 8.8v-.2l-1.7 6.8c-.5 1.9-1 3.7-1.9 6.3-1.7 6.5-3.3 10.2-5.3 17 .3-.9-.1.3-.1.2-1 3.1-2.1 6.4-2 6.5-.7 2.3-.6 1.8-.8 2.1l-1.1 3.7.2-.8-1.6 5a26.5 26.5 0 0 0-9.5-7.4c-2.3-1.1-4.6-2-7-2.4h-.3l.1-.9 2.3-7.8 1.5-5.3 2-6.8 2.2-6.6c2.6-8 3.4-11.2-3.6 8.1v-.3a220 220 0 0 0-4 13.6l.1-.9 1-10.6c0-1.6.4-4.5.5-6.4l.2-.7c0-.7 0-1.5.2-2.1 0-1 .3-2.1.3-2.6l.2-1.1v.2c.1-1.8.4-3.5.6-5h-.1c.6-3.3.6-4.5 1.2-7.5.4-3.8 1-5.9 1.5-9.8 0 .5.1-.2.1-.2.3-1.8.6-3.7.4-3.8.2-1.3.3-1 .3-1.2l.3-2.2v.5l.4-3-.2.6c.3-1.5.2-.3.4-1.8a46 46 0 0 1 .4-2.2c1.7.1 3.3 0 4.4-.4l1.7-.6.6-.3a3 3 0 0 0 1-.7l.7-.5 1.2-1.2s.9-1 .6-.5c.8-1 1.4-2 1.8-3.3l1-4.1c0-.7.4-2.2.4-2.7 0 0 .6-3 .4-1.3l-.1.4v.2c.5-1.6.6-3 1-4.7-.2.5-.3 1.1-.3.7l.4-1.6v.4l.4-2.3-.1.3c.3-1.1.5-1.5.6-2.8.1-.6-.3 1 0-.2l1.3-5.7v-.9h.2c.3-2 .3-.7.6-2.8v-.4c.2-1.8.3-1 .6-3-.2.8-.3.3 0-.6v.2c0-.5 0-.7.2-1l.2-.7v.6l.2-1.6.8-3.5.5-3.1c0 .5.3-1 .3-.5 0-.7.4-2.6.7-3.4v.2c.6-2.9.8-5 1.5-7.5-.1 0 .2-1.3 0-1 .5-2.7 1.2-4.8 1.1-5.8.2-1.3.4-1.5.5-2v.2l1-4.6.2-2.6.1-.7c0 .4 0 .5.1-.3a4 4 0 0 1 0-.5c-.1-1-.1-.8-.1-.3v.1c0-1-.5-2.8-.5-3-1-2.8-2.7-4.4-4.7-5.8l.6.3a16.7 16.7 0 0 0 .1 0 8.7 8.7 0 0 0-2.8-1.6l-1.8-.5.7-3.3 2.4-12c.8-4.6 1-6.5-2 4.7v-.2l-1.5 7.8c-.2.3-.4 1.8-.6 2.9l-.7-.1h-.6l-1 .1c-.3 0 0-.2-1.1 0-1 .1-2.7.8-3.8 1.5.6-.4.4-.2.2 0-.5.3-.9.4-1.2.7h-.1c.2-.1-1.2 1-1.3 1.3l.2-.3.5-.6-.9 1-.4.3c0 .2-.2.3-.3.5l-.7 1c-.6 1.2.2-.1 0 .5-.6 1-1 2-1.3 3.3l.2-.4-1 4.7c-2.6 15.4.2 3.4.2 3.4l1.7-7.7a10.3 10.3 0 0 1 4.4-6.6 9.8 9.8 0 0 1 6.6-1.5 10.5 10.5 0 0 1 9.4 11c0 .7-.2 1.7-.4 2.7l-.6 3-.2.6-.4 2v-.1l-.4 2.3-.2 1v-.1l-.9 4.5.1-.1-1.4 6.7c-.5 3.4-1.3 5.3-1.8 8.9 0-.5-.1.2-.1.1-.3 1.6-.7 3.4-.5 3.4-.3 1.2-.3 1-.4 1.1.1 0 0 1-.3 2v-.4l-.4 2.6.2-.5c-.3 1.4-.2.3-.5 1.7h.1c-.4 1.9-.8 3-1.3 4.8l-2.3 12-1.2 5.8-.7 2.8c-.3.8-.7 1.7-1.2 2.4l-.2.2-.6.8c-.3.4-.6.9-.8.9l-.5.6c-.2.1-.6.4-.3.1l-1.1.8-.8.3a12 12 0 0 1-4 1.1 9.9 9.9 0 0 1-4.3-.6c-1.8-.7-4-2.3-5.4-4.7a10.6 10.6 0 0 1-1.3-3.8 11 11 0 0 1 0-3.5c1-6 3-12.7 4.1-18.8l.1-.7 1.2-5.6s5.7-26.8.4-6.6v-.2c-.7 3-1.2 5-1.5 7-.2.4-.5 2.6-.7 3.3v-.1c-.3 1.9-1 3.8-1.2 5.6v-.5l-.6 3.1c-.7 3.1-1.6 7.4-1.9 9.5v-.2l-.5 2.8s0 .1 0 0l-.3 1.2-.2 1.3v2.4l.3 1.3.1.5v-.1c.2.2.4 2 1.6 3.4 1 1.5 2.6 2.5 4 3.4.9.3-.7-.2.5.3 0 .1-.5-.2-.3 0 1.1.5 1.9 1 3.4 1.1v.4h-.2c-.3 2.3-.3.8-.6 3.1v.4c-.1 2-.3 1.1-.5 3.4.2-.9.3-.4 0 .7v-.3l-.1 1.2c0-.3-.1-.2-.2.7v-.6l-.2 1.7-.7 4-.5 3.4c0-.5-.3 1-.3.6l-.5 3.7v-.1l-1.3 8.3v1c-.3 3-1 5.5-.7 6.6l-.4 2.3v-.3l-.5 5.2-.2 2.8v.7c0-.4 0-.5-.2.3a3.9 3.9 0 0 1 0 .5c-.1 1 0 .9 0 .4v-.1l-.3 3.2-.6 8v-1l-.2 1.9.1-1.7-.4 5.3c-1.9-.2-3.8-.2-5.6 0l-.4-3.7v-.1l-.4-4.6.2 1.7c-.3-.6-.3-3.5-.8-6.8-.3-3-1.2-6.2-1.5-9.4-.3-1.5.4 1.3 0-1 0 0 .2 1.1.2.5l-1-6.4.1-.2c-.7-3.5-1-6.8-1.5-9.2-.7-3.7-.2-2.5-1-6.3l-.2-1.5c-.2-1.7-.3-1.2-.6-3 .1 0-.4-2.4-.1-1.3-.7-4.2-1.7-8.4-2.7-13.8-.4-1.2-.9-4-1.1-4.8 0-.1-1.2-5.4-.4-2.4v.7l.2.3c-.5-3-1.3-5.6-2-8.6l.3 1.3-.6-2.8.2.6-1-4.3v.6c-.4-2-.4-2.8-1-5-.4-1.1.3 1.9-.3-.3l-.7-3-1-4-1 5-.4 2.2-.3 1.5c.2-.3 0 .7-.1 1.7h-.1c-.5 3.9-.4 1.4-.8 5.2v.7c-.3 3.4-.4 1.8-.7 5.6.2-1.4.3-.6 0 1.2v-.5c0 1 0 1.4-.2 2l-.2 1.2v-1l-.1 2.9c-.3 2.2-.4 5.7-.6 6.6l-.3 5.8c0-1-.2 1.7-.2 1 0 1.2 0 4.8-.2 6.2v-.2 14c.1-.2.2 2.3.3 1.7l.3 6.6c0 2 .2 3.4.4 4.3l.2 3.8v-.5l1 8.6.8 4.6c-.2-1 0 .2.1 1.3v.5l.2.8c.2 1.7.2 1.4 0 .6v-.3c.3 1.9.9 5 .8 5.3l1 6-.3.1-.8.7-1.4 1.3-.2.2-.1.2-.8-.7a33.3 33.3 0 0 0-2.2-2 47.2 47.2 0 0 0-13.2-7.5 57 57 0 0 0-40.8.6 33.5 33.5 0 0 0-11.4 9c-2.4 3-4.2 6-5.4 9l-18-8.4-1.5-.8c-.6-.4-9.6-4-10.9-4.7l-4-1.6-1.5-.7-6.5-2.7-4-1.7a802.6 802.6 0 0 0-120-38 649 649 0 0 0-48-8.8 482.7 482.7 0 0 0-33.2-3.6l-.5-12.6v.2l-.4-6.5h32.2-.4 10l-.3-.2h14.8c7.4-.2 11.8.2 19.5 0h.3l7.4-.1c2.5 0 2 0 2.4.1h4.2-.9 5.8l-1.1-.2 3.7.1v-.1c4.2 0 6.6.2 10.7.3h51.9c.3.2 4.4-.2 5 0h26.9c8.5.1 24.5 0 33.7-.1 13-.2 28 .3 41.4.1H502s58.9 0 14.1-1h.3c-6.6-.1-10.8-.2-15.4 0-.7-.2-5.5 0-7 0h.1c-4 0-8.3-.2-12.2 0l1.1-.1h-27.6.3l-6 .1h-16 2c-.7.2-4-.1-8 0-3.6 0-7.4.4-11.2.3-1.8 0 1.6-.2-1.1 0-.1-.2 1.3-.1.6-.2h-7.7l-.1-.1h-11c-4.3 0-2.9-.2-7.5 0l-1.8-.2-3.6.1c.2 0-2.7 0-1.4-.1h-16.6l-5.7.1c-.2 0-6.6 0-2.9-.1h1.3c-3.7-.2-6.7 0-10.4 0h1.6-3.4.7-5.1.7c-2.5 0-3.4-.2-6.2 0h-14.8c-4.5 0-1.7-.2-6.1-.1h-.8c-4 .2-2.2 0-6.7.1 1.8 0 .8.2-1.3.2l.5-.1H304l1.2-.2-3.3.1h-14.6c1 0-2 0-1.1-.2-1.4.1-5.7.2-7.4.1h.3-16.4c.2.1-2.8 0-2 .2-5.9 0-10.7-.3-12.8 0h-4.6.7-10.2c-1.8 0-2.1.2-5.4.1h-1.5c.8 0 1 0-.6-.1h-1a8 8 0 0 0-.8 0l.4.1H221l-.6-5.8c.2-.6-.3-4.7-.3-6-.4-3.4-.4-7.2-.8-10.6l.1 1c-.2-2.5-.5-5.8-.4-6l-1.4-18v.3c-.3-2.2-.2-2.8-.4-5.2v-.3c-.3-2.3-.6-6.9-.7-8.8v-.1l-.3-4.7v1.8c-.2-.6 0-3.6-.4-7-.2-3.1-.9-6.4-1-9.7-.2-1.5.2 1.4 0-1 0 0 .1 1.2.1.5-.2-2.3-.1-3.8-.4-6.6v-.1c-.3-3.7-.4-7-.7-9.5-.3-3.8 0-2.6-.4-6.6v-.6l.2-.3.2-.5.4-1a15 15 0 0 0 .8-2l.8-1.8s2.1-5 1.6-4.7a5.9 5.9 0 0 1 0-.7v-.3c.1 0 0 .3.2.1v-2h.1c0-1.1.2-2.1 0-3 0-.5 0-.7.2-.9v-.2a1.3 1.3 0 0 0 0-.2 10 10 0 0 0 0-1v-.2h-.6a3.1 3.1 0 0 0-.8 0h-.5s-.7 0-.4-.1h-2.3v-7c.1-2.6.2-5.2 0-7.6v-5.1s0-8.7-.3-10.9h1.2l.4-.2c0 .1 0 .2.4.2h1.3c-.2 0-.2-.1 0-.1h.4v.1l.6-.1h-.4 1.6c-.1-.8-.1 0-.2-.4v-1.4.2c-.1-.7 0-1.2 0-1.6a30 30 0 0 0-.2-2h.7l-.8-.6c-.1-.2-.2-.2-.2-.1a23.7 23.7 0 0 1-.8-.5l-1.5-1-.6-.4-.3-.2-.8-.5-.3-.3c-.5-.3-.4-.1-.9-.5 0 0-.5-.4-.2-.3-1-.7-2.3-1.2-3.6-2.3-.4 0-1-.6-1.4-.6 0-.1-1.4-1-.5-.5h.3l-2.3-1.3c.2.2.5.3.3.3l-.7-.5h.2l-1.1-.7v.2l-1.2-1c-.3 0 .4.5-.2.1l-2.6-1.8-.5-.2c-1-.6-.3-.5-1.3-1h.1-.3c-1-.4-.4-.4-1.5-.9.4.2 0 .3-.4 0h.2l-.5-.3-.3-.3h.3l-.8-.3c-.5-.4-1.5-.9-1.6-1.1l-.4-.3-.4-.2-.6-.3h-.4c.2-.7 0-1 0-1.8v-4.2h-.2v-.7c-.1-.4.3-.6 0-1h.1c0-.2 0-.3-.2-.3l.1-.2v-.4h-.2c0-.1.2 0 .1-.1h-.1l.3-.6c0-.8-.2-1.7 0-2.4.2 0-.1-.3 0-.3v-1.3c.1-.4 0-1.2-.1-1.6-.2-.7.3-1.4.1-2v-.7s0-2.8-1-.7v.7c-.2 0 0 .3 0 .4 0 .2-.2.4 0 .6h-.1v1.3l.1.3v.7c.2 0-.1.1 0 .3 0 .2.4.4.3.6 0 0-.1 0 0 0h-.2c0 .1-.1.2 0 .4h-.1v.5c0 .2-.2.2 0 .4h-.2c0 .2.2.1.1.2 0 0 0 .2-.1.1-.1.3.1.5 0 .8l.1.3s0 .3-.1.1c-.2.2 0 .3 0 .5v-.1.4s-.2.1 0 .2c0 .1 0 0 0 0v.7c0 .3-.2.1-.1.4.2.2 0 .1.1.3h.2-.1v.2h-.2l.2.1-.1.4v.3s0 .1-.1 0v.4c0 .3.1.5 0 .8.1 0 0 .2.2.1 0 .3-.3.5 0 .6v.7c0 .1.2.1.1.3v.1c0 .1 0 .1 0 0v.4l.1.7h-.1v.1-.2c-.2.2 0 .5 0 .7v.3c-.1.1 0 .3 0 .4v.1-.1.4c0 .1 0 0 .2 0v.4c.1.1.1.3 0 .4l.2.3h-.5l-.8.6a6 6 0 0 1-.5.2c-1.3.8-2.2 1.6-3.5 2.3.1 0-.5.4-.3.4-1.2 1-2.4 1.3-2.7 2l-1 .5v-.1l-2 1.4c-.5.3-.4.5-1.2 1 .2-.3 0 0-.3.1.1-.1.2-.2-.2 0a1 1 0 0 1-.2.2c-.5.3-.4.2-.1.1-.4.2-1.2.9-1.3.8l-3.4 2.4.4-.4-.8.5.7-.5c-1 .5-1.9 1.4-3 2l-.2.2h-.1l-.4.4-.6.2-.8.6c-.2 0-.3.2-.5.3l-.7.5c.5-.3.4-.2.2 0l-1 .5h-.1c.3 0-1 .8-1 .8l.5-.4-1.4.9h1.3l-.3 2v1.4l.1 1.3v.7h1.1a6.6 6.6 0 0 0 .3 0h1.7-.2 2.2v2.5-.1a56 56 0 0 1 0 3.6h.1v5.4c.1 2.7-.3 4.3 0 7.2 0-.4-.1.1-.1 0 0 1.4 0 2.8.2 2.8 0 1 0 .8-.1.9v1.6-.4 2.1l.2-.4c0 1.2-.2.3-.2 1.4h.2a26.5 26.5 0 0 1-.2 2v1l-.1.4v1H168l.6-.1h-1 .9-3.1v1.8l.2.5c-.1.2-.2 0-.2.7 0 .5 0 1.5.2 2.2v-.1.8h-.1c.1-.1.1.9.2 1-.1.2-.1-.5-.2-.6v2c-.2-.1.4 1.5.4 1.5.6 2 1.3 3 2.3 5.3l.8 2 .3.7.1.5.2.4a43.3 43.3 0 0 0-.1 2.3c0 1.1.2-2 0 .3l-.9 10.9c.1-.4 0 .6 0 1.6v.1c-.2 4-.3 1.4-.5 5.3v.7c0 3.5-.3 1.9-.3 5.8 0-1.5.2-.7 0 1.2v-.5l-.2 2.1-.1 1.2v-1l-.1 2.9c-.3 2.2-.4 5.8-.6 6.7l-.4 6c0-1-.2 1.7-.2.9 0 1.2-.2 5-.4 6.4v-.3l-1 14.3c0-.2-.2 2.4 0 1.7-.3 5.1-1 9.3-.7 11.1l-.4 4v-.6l-.6 8.8-.2 4.8-.1 1.3c0-.7 0-1-.1.5v.8a7 7 0 0 0 0 .7v-.3l-.3 3.2H156l1 .1h-10.3c-33.6.7-7.1 1-7.1 1l22.8-.1-.1 1.2-.8 13.8V327l-.2 3.2.1-2.8-.2 1.8v1h-7.4c-8.6-.1-18.9 0-28 .1L122 318a106.1 106.1 0 0 0-1.1-3.4l-1.2-3.4-1.3-3.3-.9-2-1.2-2.5-.1-.3-.2 1-.1.5-.5 1.6-.3 1.3-.5 2-.9 4-1 5.8-1.3 10.4v1.2c-5.6.2-9.6.5-10.4.6h10.3v3c.3-.5.5-3.7 1.8-11.2v.2l1.7-10.3c.3-.5.8-3.7 1.1-4.7v.1l.6-2.3.3.9.9 2-.4-.7c.8 1.8 1.8 4.3 1.7 4.4 1.7 4.3 3.6 10.5 4.6 13.3v-.2l1.2 3.9v.2l1.7 6.6v.1l.9 3.6-.3-1.4c.3.5.5 2.8 1 5.3.6 2.5 1.3 5 1.7 7.5.3 1.2-.3-1 0 .8 0 0-.2-.9-.2-.4.3 1.8.3 3 .7 5.2h-.1c.5 3 .4 5.5.7 7.4.3 3 0 2 .2 5.2v4.6c0 3.4.2 6.8 0 11.3v5.9-.7l-.1-.3c-.2 2.6 0 4.6-.1 7.1v-1 2.3-.5l-.2 3.5v-.5c0 1.7-.2 2.3-.1 4.2 0 .8.1-1.6 0 .2l-.5 8.5v1.3c-.2 3.1-.3 1.2-.4 4.2v.6c0 2.6-.2 1.5-.2 4.2a33.1 33.1 0 0 0-8 .9l-3.2.7-.4.2-1.2.5-1.7.6-.2-2.6c-.1-1.2-.3-1.4-.5-3.7.2.7 0-.2 0-1 0 .5.1.7 0-.4v-.6l-.1-.6v.3c-.1-1.5-.4-4.1-.3-4.3l-1-10.7c0-.4.2.4.3 1.4l-.2-2.5.2 2.2c0-3-.5-6.1-.6-9.6l-.1-.7v-.2l-.2-1.3v-1.7l-.4-5.7v.3l-.1-2v-.1l-.2-2.6.2 1.5-.3-5.2c-.1-1.8 0 .4-.2-.5l-.2-5.1v.6a70 70 0 0 1-.2-7l-.3-10.4c-.1-1.5-.2-1.4-.3-.6l-.3 3.7v2.5c-.3 9 .2 13.7.9 24.4l1.2 21.7 1 14c.3 1.8.5 4.7.7 7l-.8.4-1.2-5-2.7-9.8-1.7-5.9-.1-.7a24 24 0 0 1-.6-1.9l-.8-2.3-.3-1.1.1.2-1.4-4.7-.1.2c-.9-3.1-1.4-4.1-2.2-7v.1c-1.4-3.4-1.7-5.5-3.1-9 .2.4 0-.2 0-.2-.6-1.6-1.2-3.4-1.4-3.3-.4-1.2-.2-1-.2-1.2l-.8-2 .2.5-1-2.7v.6l-.4-1.8h-.1a33 33 0 0 1-.6-2l.5-.2v.3H95h.2l.3-.2.6-.2 1.4-.8a7.2 7.2 0 0 0 1-.8l.4-.3a11 11 0 0 0 2.6-3.8 10.9 10.9 0 0 0 .9-4 11.2 11.2 0 0 0-.8-4.2l-1.9-4.6c-2.3-6.1-2.8-7.8-5.3-14.2l-3.6-9.2c-.7-1.3-1.5-3.9-2.3-5.5l-.2-.7a16.9 16.9 0 0 1-.7-1.8l-.9-2.2-.3-1v.2l-1.7-4.4v.1c-1-3-1.6-4-2.5-6.6-1.5-3.2-1.9-5.2-3.4-8.6.2.4 0-.2 0-.2-.7-1.6-2-3-2.1-3l-.8-.9-1.7-1.2.4.2a11.8 11.8 0 0 0-2.6-1.2l.5.3-.9-.4-.8-.3v.2c-1-.2-1.9-.4-2.7-.4-.8 0-1.7 0-2.7.2l-1.2-2.9-4.3-10.8c-1.8-4.1-2.6-5.7.9 4.7h-.1a78 78 0 0 0 2.8 7l.8 2.4a10.2 10.2 0 0 0-4.3 3c-.7.9-1.3 1.8-1.7 2.8a12.3 12.3 0 0 0-1 3.2 12 12 0 0 0 1 6.2l2.1 5.5v.3c0 .2 1 1.9 1 2.2l.3.8c.1.2.3.7 0 .3l.6 1.3.3.9c1 3 2.2 5.5 3.4 8.6a258 258 0 0 0 5.9 15c2.4 5.7 4.5 12.5 7 18.4a4.3 4.3 0 0 0 .3.6l1 2.7a14.4 14.4 0 0 0 1.4 3l.6.8c.5.5 1.2 1.4 2.2 2a11 11 0 0 0 3.5 1.7c1.2.4 2.6.5 3.7.4a11 11 0 0 0 1.8-.3l.1.3v.1c.8 2 0 .8.9 2.8l.2.4c.8 1.8.2 1 1.1 3-.3-.8 0-.4.4.6l-.2-.2.4 1c-.1-.2-.2 0 .1.8l-.2-.6.6 1.5 1.2 3.6 1.1 3.2c-.2-.5.2 1 0 .5.3.7 1 2.6 1.2 3.5v-.2c.8 3 1.7 5 2.5 7.6 0-.1.4 1.3.4 1 1 2.6 1.3 5 2 5.9.4 1.2.3 1.5.5 2.1l-.1-.3 1.4 4.8.8 2.5.2.7c-.1-.3-.2-.4 0 .3l.1.5c.3 1 .3.8.2.3v-.1l.7 3 2 7.4-.3-1 .4 1.8-.4-1.6c.2 1.3.6 2.6 1 4l-1 .6-1.7 1-.2.1-4.2-9.1c-1-1.7-2.3-4.8-3.3-6.8l-.3-.8-1.1-2.3-1.4-2.7-.6-1.2.2.2c-1-1.8-2-3.7-2.7-5.3v.1l-4-8h.1l-2.8-5a36 36 0 0 0-3.3-5 16.8 16.8 0 0 0-3-3.6c-1.2-1.2-1-1-1-1.2-.1 0-1-.9-2.2-1.6l.5.3c-1-.7-2-1.3-3.2-1.6l.6.4c-1.7-.7-.4-.4-2.1-.8l-3.3-.5-3.3-.2-30.8-.4h-.4c-.2-.2-2.7 0-3 0h-3.4l-2-.1-9-.2 5.6 1.5 5.4 1.5c4.9 1.5 14.2 4 19.6 5.3l11.9 3.4c.9.4 1.8.9 2.5 1.5a7.7 7.7 0 0 1 1 1.1l1 1.3 3.6 5a8.3 8.3 0 0 0 .3.4l.2.3c1.4 2 2.6 4 3.7 6.2 0 0 16 31.7 4.7 7.2l.1.1a135.5 135.5 0 0 0-5-10l-1.3-2c-1.3-2-2.6-4.2-4-6l.4.5-2.5-3.4a9 9 0 0 0-2.6-2.4c-1-.7-2.3-1-3.4-1.3a120 120 0 0 0-5.5-1.4h.2c-1.5-.3-1.9-.5-3.5-1H52c-1.6-.3-4.6-1.3-5.8-1.6H46l-3.1-1 1.1.4c-.4.1-2.3-.7-4.6-1.3-2.1-.6-4.4-.8-6.6-1.5-1-.2 1 .1-.6-.2h.3l-1-.4-.5-.1-.4-.1-1.3-.4h.2l-1.7-.5h1.4a5 5 0 0 1 1.2.1c.3 0 0 .1 1.6 0l1 .2h3.2c3 .2 6 0 9.9.2h5.2-.5l-.3.1c2.2.2 4 0 6.3 0h-1 2-.3l3 .2-.4-.1c1.5 0 2 .2 3.7 0h.2l7.5.2h1.1c1.4.2 1.6.3 1.8.4l1.7.5H76h.7l1.6.8 1.6 1.2c-.8-.7-.3-.5.6.4l-.3-.2 1 1 .6.7a11.9 11.9 0 0 0-.6-.5l1.4 1.4c1 1.2 2.5 3.2 2.7 3.7l1 1.5 1.3 2c-.4-.6.5 1 .2.6.5.7 1.8 2.9 2.1 3.8v-.2c1.5 3.5 3 5.8 4.3 9 0-.3.8 1.4.7 1 1.7 3 2.6 5.8 3.5 6.8.7 1.4.7 1.7 1 2.5l-.1-.4 2.7 5.5c.5 1 .7 1.1 1.5 3l.3.8.1.3a4.9 4.9 0 0 1 .3.5l.2.5v-.2c.4 1.2 1.5 3.2 1.5 3.4l2 4.2-.4.3.4-.2c-2 1.5-.5.1-3 2.5l-1.4 1.4-1.2 1.3-2.1 2.7c-1.1 1.6-2.2 3.2-3.1 5.3l-2.4-4.7c-10-17.6-2.8-3.3-2.8-3.3l4 7.9.8 1.2c-1.5 3.8-2.2 8-2 12.2l.2 1.6.5 3.1.3 1.5a29.6 29.6 0 0 0 1 3l.7 1.5v.3l.2.3h-.4a25.3 25.3 0 0 0-1.4-.1 21.9 21.9 0 0 0-8.2 1.4 23.6 23.6 0 0 0-9.2 6 23.4 23.4 0 0 0-3.2 4.3l-.6 1.1-.3.6-.2.4-.2.5-.4 1c-.2.2.1.1.3.1H76l10.2.1.9.1c.4.1 5.7-.2 6.5 0l2.4-.1h33c11.1.2 32.2 0 44.3 0h68.3-.3 45.1c.2.7.2.6.2 0h18c14.2-.3 30.7.3 45.2 0h14.9s64.3 0 15.5-1h.3-16.8c-.8-.2-6 0-7.7 0h.2c-4.5 0-9.2-.2-13.4 0l1.2-.1h-30.2.4l-6.6.1h-17.4 2.2-6a28.1 28.1 0 0 0-2.7-8.4l-.7-1.3-.8-1.3a30.3 30.3 0 0 0-8.3-8.7l-.7-.4.4-.8 1.4-2.4-.5.6 1.8-2.6 2-2.8c.9-1-1.6 2 .2-.3.5-.7 1.2-1.4 2-2.2.4-.3.7-.8 1.2-1.1l1.3-1.2 1.3-1.1 1.5-1c.5-.4 1-.8 1.5-1l1.4-1 1.8-1h.2c2.1-1.1 2.5-1.3 3-1.4.4 0 .8-.2 3-1l-.3.2 1.2-.5a9 9 0 0 1 2.2-.5l1-.1c.3 0 .7 0 1.3-.2l2.5-.2c-2 0-1-.1 1.4-.2l-.6.1h1.5a16.8 16.8 0 0 1 2.6.4h-1.3l1.8.1 1.8.3c2.7.5 6.8 2 7.7 2.8l.9.4 1.9 1.1 2 1.4 1.4 1c-1-.7 1.5 1.5.8 1a28.3 28.3 0 0 1 5.3 5.7l-.2-.2c1 1.3 1.8 2.7 2.6 4l2 3.8c.6 1.3 1 2.6 1.5 4 .3 1.3.8 2.6 1 4.1l.4 1.3.1.5.1.5c0 .3 0 .4 0 0l.6 3.7v.1l.3-.4 1.3-2.3.7-1.2.5-.8c.4-.6.8-1 1-1.5l3.5-4.1 2.3-2 1.5-1-.5.3c2.1-1.6 3.7-2.4 5-3.1a36 36 0 0 1 4.6-1.9c2-.6 2.1-1 5.7-1.6l1.6-.3c-.8.2-1 .3.7 0l1-.2 1.6-.3-.8.1h-.4l4.2-.5a8 8 0 0 1 2.6-.1 48.2 48.2 0 0 1 14.7.7l3.9 1s-.6 0-1.3-.3l-2.1-.6a45.3 45.3 0 0 1 6.9 2.4c2.3 1 4.6 2.4 7 3.9a33.8 33.8 0 0 0 1 .5l.3.2.7.3 1.2.6c.6.5-.2.1 2.2 1.6l7.3 5.3c-1.2-1-.8-.7-.3-.3l2.6 2v.2c.2 0 3 2.2 3.3 2.5l-2-1.5 6.4 5.3c2.3 1.9-.3-.4.8.4l1.3 1.1.6.5h-.8l-1.7.1h-2.2l1 .1c-5 .3-8 .4-11.2.4l-8 .4-3 .1c-18.7 1.2 3.3.7 3.3.7l10.2-.3h174.4-.2 8-.2 3.7-.6 15.4l-.4-.1H642h-.2c.3.1.6-.2.8-.4l.4-.4a6.7 6.7 0 0 0 .7-.8l.6-1 .4-1c.5-1.3.6-2.7.6-4-.1-2.5-.9-4.8-1.8-7-1-2.2-2-4.3-3.6-6.4a24 24 0 0 0-5.8-6l-.4-.3c-2.4-1.7-5-2.8-7.2-3.4l-1.5-.4-1.2-.2h-1a26.6 26.6 0 0 0-2.3-.3h-1l-.6-.1h-.8l-.6.1h-.5c.1 0 .2-.1.2-.3l.1-.2h.1l.1-.3.9-1.8-.6 1.4c.7-1.4 1.2-2.9 1.5-4.4l.4-2.2.2-2.3c0 .6-.2 1.2-.3 1.7l.2-1.4v-4.4h-.2c-.3-3.3-1-5.8-1.8-8.4a16 16 0 0 0-4.3-6l4.8-5.5h.1l3.2-3.7-1.2 1.4c.2-.6 2.4-2.7 4.6-5.5 2.2-2.4 4-5.3 6.3-7.8 1-1.3-.8 1.2.7-.7.2 0-.7.9-.2.5 1.5-1.9 2.6-3 4.5-5.2h.1c2.4-3 5-5.2 6.8-7 2.8-2.8 2-1.8 5-4.6l1.2-1 1.2-.9 1.4-.8 1-.3c.4 0 .7-.2.2 0l1.5-.3 1.7-.3 3.5-.5 7.8-1 5.1-.8c.2 0 5.9-.8 2.6-.3l-.7.1-.4.2c3.3-.3 6-1 9.2-1.4l-1.4.2 3-.4-.6.1 4.6-.6h-.7l2.7-.2a45.8 45.8 0 0 0 1.2-.2l2.6-.4c.9 0-.1.1-.8.2zm-80.8-1.4-.1-.1-.1-.1-.2-.2-.5-.4-1-.9a7 7 0 0 1-.6-.9l-.3-.3a10.6 10.6 0 0 1-1.6-7.1 10 10 0 0 1 1.1-3.6l2.5-4.2c3.5-5.6 4.6-7 8.1-12.8l5.2-8.5c.6-1.3 2.2-3.5 3-5.1l.4-.6a17 17 0 0 1 1-1.6l1.3-2 .5-1v.2l2.4-4h-.1c1.7-2.6 2.1-3.7 3.7-6 1.7-3.1 3-4.7 4.8-7.9-.2.4.2-.1.2 0 .8-1.5 2.1-2.5 2-2.7 1-.7.9-.5 1-.5 0 0 .8-.7 1.7-1l-.4.2a11 11 0 0 1 2.5-.7h-.5c.7-.2.8-.2.9-.1h.8v-.2c2 0 3.1.5 4.7 1.3a10.4 10.4 0 0 1 5.4 6.6 11.6 11.6 0 0 1 .3 3 10.9 10.9 0 0 1-1.9 5.4l-3.1 5-.3.2c-.2 0-.9 1.8-1.2 2l-.3.8-.3.3-.7 1.2-.5.7c-1.8 2.7-3 5-4.8 8-2.3 3.3-6.2 9.9-8.4 13.6-3.1 5.4-7.3 11.2-10.4 16.7a4 4 0 0 0-.4.7l-1.5 2.4c-.5.9-1 1.6-1.6 2.3l-.2.2a22 22 0 0 0-.6.6c-.5.4-1.3 1-2.3 1.5a10.6 10.6 0 0 1-3.3 1 10.7 10.7 0 0 1-3.5-.2c-1.6-.4-2.7-1-3-1l.2-.3zm-519-6.6-.5.1a13 13 0 0 1-1 .2h-2.3c-1-.2-2-.5-3.2-1h.1a11 11 0 0 1-3.2-2 11.8 11.8 0 0 1-2-2.4l-.6-1.4-.7-1.7c-.7-1.7-1.2-3.7-2-5.4l.2.5-1.1-3c-1.2-3-2.8-7.3-3.7-9.2v.1c-.5-1-.5-1.4-1-2.6v-.2c-.6-1.1-1.4-3.5-1.9-4.4v-.1l-.9-2.4.4.9c-.3-.3-.6-1.9-1.4-3.6-.6-1.6-1.6-3.1-2.2-4.8-.4-.8.4.6-.1-.6 0 0 .2.6.2.2l-1.3-3.4-1.9-5c-.8-1.8-.3-1.3-1.2-3.3l-.2-.8-.7-1.6c.1 0-.4-1.2-.1-.7-.8-2.2-1.9-4.4-2.8-7.3a9 9 0 0 1-.8-2.5v-1.3c0-.5.1-.8.1 0v.4l.1.2c.1-1.6.2-3 .9-4.5-.3.4-.5 1-.4.6l.7-1.4-.1.3.6-1 .7-.8a4.3 4.3 0 0 0-.3.2l2-1.9c.5-.3-.8.6.1-.1a10 10 0 0 1 5.3-1.6l.9-.1c1 0 1.2.2 1.4.3l1.3.4h-.2.6c1.7.6.8.5 2.6 1.4-.7-.4-.2-.3.5.3H75l.8.6c-.3-.2-.2 0 .3.6l-.4-.4.6.6.5.5a14 14 0 0 1 1.4 3.3l1.2 3c-.2-.5.3.9 0 .5.4.6 1.2 2.5 1.4 3.3v-.2c1 2.9 1.9 4.8 2.8 7.3l.4.9c1.1 2.5 1.7 4.8 2.3 5.6l.7 2v-.2l1.7 4.5c.3.8.5.8 1 2.3l.3.7c-.2-.3-.2-.4 0 .3l.2.4.2.4v-.2c.2 1 1 2.7 1 2.8l2.8 7-.5-1 .7 1.7-.6-1.4c.6 2 1.6 4 2.4 6.2l.2.5v.1l.5.8c0 .4-.2 0 .3 1.2.2 1 1 2.5 1.5 3.7-.3-.7-.2-.5 0-.2l.5 1.3-.1.1.8 1.7c0 .3-.4-.9-.5-1l1.3 3.4c.4 1.1 0-.3.2.3.3 1 .6 2.1.4 3.4l.1-.4c0 2.1-.5 3.4-1.2 4.6-.8 1.8-1.9 3-2.8 3.7-.9.8-1.6 1.2-2.1 1.5l-.5-.1v.1l-.5.1zm493.1 25-.3 1-.1-.1.4-.9zM545.1 379c-.3-1.3-.6-3.1-.8-5l-.7-5.5v-1.2l-.4-3.5-.3-4.2-.2-2 .1.4a127 127 0 0 1-.4-8.4v.2l-.2-6.5.1-6.1c0-3.1.1-5.6.3-8.2l.5-8.3v-.3c.3-3 .6-6.2.4-6.2.2-2.2.3-1.8.4-2-.1 0 0-2 .3-3.7l-.1.8.6-4.9-.3 1c.4-2.6.3-.7.6-3.1h-.1c.2-1.8.5-3.2.8-4.6l.4-2 .3-1v-.4l2 7.7 2.4 10.4c1.5 7 3 13.8 4 20.2v.6c0 .3 1 3.6 1 4.1l.3 1.6c0 .4.2 1.3 0 .5l.5 2.5.2 1.6 1.3 8c.5 2.7 1 5.4 1.3 8.4l.8 6.4 1 7.6.8 7.8.4 3.8c-2.2.3-4.4.8-6.4 1.6l-1 .3c-.3 0-2 .8-3.4 1.7l-3.5 2.3-.9.8-2.1-13.1zM169.8 159.2v.1a18.7 18.7 0 0 0-3.3 0h-.9V158l-.2-2.4v-.5c.3 0-.4-.1.2-.2h2.4-.2c1.1-.2 1.8-.2 2.6 0 8.7-.7 1.8-1 1.8-1h-4.4a1.9 1.9 0 0 1-.5 0l.2-.1 3-1.8a76.4 76.4 0 0 0 3.5-2.2l4.5-3c.6-.6 1.9-1.3 2.6-1.9l.4-.1c.2-.2.5-.5.9-.6l1-.7.5-.3a29 29 0 0 1 2-1.4l3.2-2 .7-.6.5-.3h1l.2.2.4.3 1 .5c-.2 0 0 .1 0 .1.8.5 1.6 1 1.7.9.6.3.5.3.5.4l1 .5h-.2l1.3.7-.2-.3c.6.5 0 .3.7.6 1 .5 1.4 1 2.3 1.7 3.7 2.4 7.8 4.6 11.2 7v.1c0 .2 1.1.5 1.2.7l.4.2c.1 0 .4.2.1.1l.7.4.4.3.6.4.2.1.5.3a3 3 0 0 1-.4 0h-7.8c-3.4.2-7.2-.3-10.7 0a1 1 0 0 0-.4 0h-3s-15.2 0-3.7 1h5.7c1 0 2.2.1 3.2 0h-.3l1.8.1 5.3-.1h5.6-.5c.2-.2 1 0 2 0l1.5-.2a5 5 0 0 1 1.5-.1c.5-.1-.4.1.4 0 .1.1-.4.1 0 .2h2.1v1c-.2.7-.2 1.3-.2 2v1l-1 .1c-2.1 0-2.7-.2-5-.1h-2c-4.8-.2-7.3 0-13.1.1-5.1 0-6.5-.2-11.8-.1h-7.6l-4.7.1h-2.3zm42.5 12.4c-.2.3 0 2 0 2.6 0 1.5-.2 3 0 4.5l-.1-.4v2.5l.1 7.6v2.6l.1.3h-4.3.7c-.3.1-1.5-.2-3 0-1.3 0-2.7.3-4 .2-.7.2.5 0-.5 0 0-.1.5 0 .2-.2h-2.8c-1.6 0-3-.2-4 0-1.7 0-1.2-.2-2.8-.1l-.7-.1h-11.1.3l.1-.1c-1.3-.2-2.4 0-3.8 0 .4 0 1 0 .6.1H176h.3l-1.9-.1h.3-2.3c-.5 0 .9.1 0 .1h-1.5v-.7l.1-1.3v-.7c-.1-1.7.2-.7 0-2.3l.1.1-.1-.4c-.2-1.5.1-.8 0-2.5 0 .7-.2.3-.2-.5v.2-.9c.1.3.2.2.2-.5v.5-6.6c0 .4 0-.8.2-.4-.1-.6-.2-2.1 0-2.8v.1c0-2.3-.2-4 0-6-.2 0 0-1-.2-.7-.1-2.2.2-4-.1-4.7v-.5a8.5 8.5 0 0 0 .6 0h3.1a3.2 3.2 0 0 0 .6-.2 7.8 7.8 0 0 1 .3 0h1.7c-.3 0-.4 0 .2.1h.6v-.1h3.7c.1.1.2.2.7.1l.2.1h4.8-.1v.1c.5.2 1 0 1.6 0-.2 0-.4 0-.3-.1h.6-.1l.8.1h-.1 1c.1 0-.4-.1 0-.1l2 .1.3-.1c.7 0 .3.2 1 .2v-.1c.7-.2.4.1 1.1-.1-.2 0-.1-.2.2-.1h.3l.2.1-.2.1.6-.1h2.2c-.1 0 .4.1.2.2.3-.1 1-.2 1.2 0 1 0 1.7-.2 2.6 0 0-.2.4-.1.3-.2 1-.1 1.7.2 2-.1h2.2c.3 0 .4-.2.9-.1h.2l.1.1a.5.5 0 0 1 .2 0h.1v-.1l1 .1 2.5-.2-.4.2h.6-.5 1c-.2.8-.3 2.6-.5 5.7v-.1 5.7zm-43.1 34.5c0 .2 0 .2 0 0l-.2-.4-.3-.5c0-.2.2.2.3.3l-.5-1.2c-.3-.3 0 .1-.2 0l-.5-1.1v.2c-.4-.7-.6-1.1-.7-1.6L166 200c.8 0-.2 0 .3-.2h2.1-.2 2.7c8.8-.7 1.8-1 1.8-1a45.4 45.4 0 0 0-3.4 0h-2.5v-.5l-.1-1.4v-4.3a14.5 14.5 0 0 1 .7 0h7.3c.9-.2 2.4 0 3.3-.2h6-.1 9.1c-.3 0 0 0 0 0h13.7l6.2-.1h2.2l.2.1c.1.2 1.2-.2 1.3 0a1.9 1.9 0 0 1 .2-.1s.1 0 0 0l.1.2v.4c-.2 1.8 0 3.3-.1 5.1a14.8 14.8 0 0 0 0 .8l-.1.2h-3.2l-3.5.1c-3.5.2-7.4-.3-11 0a1 1 0 0 0-.4 0h-3.2s-15.5-.1-3.7 1h5.9c1-.1 2.1.1 3.2 0h-.3 7.3-.1c.6-.1.8 0 1.6 0 .8-.2 2.1 0 2.7-.1h1.5-.6c.2-.1 1.1.2 2.1 0h1.2a12.3 12.3 0 0 1 1.1-.2c-.2.2-.7.8-1.5 2.1-.4 1-.7 1.5-.9 2.3-.2 0-.4.8-.5 1v-.1c-.1.7-.6 1.2-.8 1.8v-.2l-.4 1-.4 1-.2.4v.1h-.4c-1.7 0-1.2.2-3.1.1 0 0-2.4 0-1.3-.1H198a4.8 4.8 0 0 1-.8 0 .6.6 0 0 1-.2 0h-1.3a.6.6 0 0 1 .1 0h.2c-.6-.2-1 0-1.7 0a.7.7 0 0 0 .2 0h-1.3c-.3 0-.4-.1-.8 0h-2.3c-.8 0-.3-.2-1-.1h-.2c-.6.2-.3 0-1 .1l.1.1h-.9l.2-.2-.5.2-1.2-.1h1.4l-2.6-.1h-6.5c1 .1 2.2.1 1.4.2h-3l.7-.1h-4.5.6-2.4l-.1-.2a4.1 4.1 0 0 1-.3-.7l-.1-.1v-.1l-.2-.2v-.5l-.7-1.2zm-1 41.2v-.3c.2-3 .5-6.3.3-6.4.1-2.2.2-1.8.2-2.1 0 0 0-2 .2-3.7v.8l.3-5-.2 1c.3-2.7.2-.7.4-3.2h-.1l1-9.4.5-8.5h4.1c.5-.2 1.4 0 2-.1h2.1-.1a10.7 10.7 0 0 1 1.6 0v-.1h2.3c1.2-.2 2 .2 3.2 0-.2 0 0 0 0 0h4.6a6.6 6.6 0 0 0 .6 0h6.4a21.9 21.9 0 0 1 1.9 0c.1.2.8-.1.9 0h.3s.2 0 0 0h3.9a12.2 12.2 0 0 0 1.5 0l.2.1c.2.1 3.8-.2 4.3 0l1.5-.1h.2c0 .1 0 .2 0 0v1l.2 1v1.7l1.2 15.7c-.3 0-.8.3-1.6.7-.7.4-1.2.6-1.6 1l-.8.4c-.4.4-1 .4-1.3.8v-.2l-.7.4-2.3 1.3-.6.4h-.1l-1.1.5-.7.2h.2c0 .1-.5 0-.9.3-.4.2-.7.7-1.2.8-.2.2.1-.2-.2 0 0-.1.2-.1 0-.1-.3.1-.5 0-.9.3v-.1c-.5.3-1 .2-1.3.5-.5.2-.4-.1-1 .2h-.2c-.2 0-.1.2-.4.2h-.2c-.6 0-1.2.5-2 .6-.1.2-.5.2-.6.4 0 0-.8.2-.4 0 0 0 0-.1 0 0v-.2c-.4 0-.7.3-1.2.5.2 0 .3-.1.2 0h-.4l-.5.1c-.2.1-.4 0-.7.3-.2 0 .3 0 0 0l-1.6.4-.2.2v-.1c-.5.3-.3-.1-.8.1v.2c-.5.3-.4-.1-.9.3.2-.1.2 0-.1.1h-.4v-.1l-.3.2c-.3 0-.8.3-1 .2l-.8.3h-.2l-.9.3c-.7 0-1.2.5-2 .6.1 0-.2.1-.1.2-.7.4-1.4.2-1.5.6-.3.2-.4 0-.6.1l-1.1.5c-.2 0-.2.2-.6.4 0-.1 0 0-.2 0 0 0 0-.1-.1 0h-.1c-.3.1-.2.1-.1 0v.1l-.7.2c-.8.3-1.2.6-1.8 1-.1-.1 0-.2.2-.3l-.5.2.4-.2c-.6.1-1 .6-1.7.7v.1h-.1l-.2.2c-.1 0 0-.1-.4 0l-1 .5h.2l-.4.2-.4.3.2-.2-.9.5c-.3.2.1 0 0 .2l-.8.5h.1l-1 .7-.8.7v-1.6zm-5.5 77.9 1.2-18.1c.1-2.8.6-7.6.7-10.9l.2-1.3.2-3.5.3-4.4v.1-.1c.3 0 1-.3 2.2-1 .8-.5 1.3-.8 1.7-1.3l.9-.5c.4-.5 1-.6 1.4-1l-.1.2c.3-.3.8-.6.9-.5l2.5-1.5.7-.4c.3-.3 1-.5 1.3-.6l.7-.3h-.2c0-.1.6 0 1-.4.5-.2.8-.7 1.4-.8.2-.2-.2.2.2 0 0 0-.2.1 0 .1l1-.3c.5-.3 1-.3 1.4-.6.6-.2.5 0 1-.3h.3c.3 0 .2-.2.5-.2 0 0 .4-.1.2 0 .7-.1 1.3-.6 2.2-.8l.8-.4s.8-.3.4 0h-.1v.2c.5-.1.8-.4 1.3-.6-.1 0-.3.1-.2 0l.5-.1h-.1l.7-.1h-.1c.3-.2.5 0 .8-.3.2-.1-.3 0 0-.1l1.7-.5.3-.2c.6-.3.3.1.9-.2v.1-.2c.5-.3.4 0 .9-.4-.2.1-.2 0 .1-.2v.1l.3-.1s0 .1.2 0l-.1.1.4-.3c.4 0 .9-.3 1-.3 0 0 .8-.2 1-.4-.2.1.3 0 .2.1.1-.1.6-.4 1-.4h-.1c.8-.3 1.4-.7 2.2-.9l.2-.2c.7-.5 1.5-.4 1.6-.9l.6-.2 1.2-.6.7-.5c-.1.2 0 0 .2 0h.1a.5.5 0 0 1 .1 0c.3-.2.2-.2 0-.2.3 0 .8-.4.9-.3l1.9-1.3s0 .2-.2.3l.4-.3-.4.3c.6-.2 1.1-.8 1.8-1v-.2h.1l.2-.2.4-.1 1-.7h-.1l.3-.3.1.1.4-.4-.2.3.9-.7c.2-.3-.1 0 0-.2l.8-.6h-.1a7 7 0 0 1 1.1-1c1.7-1.7 1.7-2 1.3-2l-1 .7c-1.6 1-2.2 1.8-4 3.2l-2 1.1-1.9 1.1-2.6 1.4c-.3.4-1 .6-1.5 1h-.2l-.6.2-.6.3-.3.2v-.1a8 8 0 0 1-1.2.6c-.8.3-1 .6-1.9.8-.9.6-1.6.5-2.6 1 .2 0 0 0 0 0-.5.2-1 .4-1 .6h-.3l-.5.3-.7.3h.2-.5v.2c-.6.2-1 .1-1.6.2-2.3.8-4.6 2-6.8 2.5h-.2c0-.1-.5.4-.6.3l-.2.1h-.1c-.3 0-.3 0-.4.2h-.3l-2.6 1c-1.2.4-3.3 1.4-4.4 2-1.6 1-3.8 1.5-5.3 2.8l-.2.2-1.4 1-1 .7a26.5 26.5 0 0 0-2.2 2l.1-1.6v.3l.6-8.6-.1.2 1-12.9v.1c.2-5.7.7-9.2 1-14.5l.6-.3c1.5-.8 2-1.5 3.7-2.5 1.6-.7 2-.7 3.7-1.5l2.4-1 1.5-.6h.2l.5-.2.6-.2.3-.1a6.5 6.5 0 0 1 1.1-.4c.8-.2 1-.5 1.7-.6.9-.5 1.5-.3 2.4-.8-.1 0 0 0 0 0 .5-.1 1-.3.9-.4h.3l.5-.3v.1l.6-.2-.2-.1h.5v-.1c.5-.2.9 0 1.4-.1 2.1-.6 4.3-1.6 6.2-2h.1c.1.2.5-.3.6-.2l.2-.1h.1l.4-.2h.2c.8-.2 1.5-.6 2.3-.9a40.3 40.3 0 0 0 4-1.7l2.4-1a11 11 0 0 0 2.6-1.4l1.3-.8 1-.6a21.6 21.6 0 0 0 1.7-1.3v.7c.4 7.4 1.6 21.3 2.2 29.3 1 11.2 1.5 24.4 2.6 35.9v.8a8.5 8.5 0 0 0 .1.5v1c-.2 0-1 .5-2.1 1.3-.8.7-1.4 1-1.8 1.6-.2 0-.7.6-1 .7-.3.5-1 .7-1.5 1.1l.1-.1c-.4.3-.8.7-1 .6-.8.7-2.1 1.4-2.6 2v-.1c-.2.3-.4.3-.7.5h-.1l-1.4.9c-.3 0-.5.3-.8.4l.3-.1c0 .2-.6.2-1 .6-.6.2-1 .8-1.6 1-.2.2.2-.2-.2 0 0 0 .2-.1 0-.1l-1 .5-.1-.1-1.6.8c-.6.3-.5 0-1.2.4h-.3c-.3 0-.1.2-.5.3 0 0-.4.1-.2 0-.8.2-1.5.7-2.5 1-.2.1-.7.2-.8.4 0 0-1 .3-.5 0h.2v-.1c-.6 0-1 .4-1.5.6.1 0 .4-.1.2 0l-.5.2.1-.1-.8.2h.1c-.4.1-.5 0-.9.3-.2.1.4 0 0 .1l-2 .6-.2.2c-.7.2-.4-.2-1 .2l-.1.1c-.6.4-.4 0-1 .4.3-.1.2.1-.2.2l.1-.1-.4.2c.1-.1 0-.2-.2 0l.1-.2-.4.3c-.4 0-1 .4-1.2.3 0 0-.9.3-1 .5.1-.2-.4 0-.3-.1l-1 .4-2.5 1s-.4.2-.2.2c-.9.5-1.7.5-1.9 1l-.7.1h.1l-1.5.6c-.3.2-.2.3-.7.5h-.4l-.1.1-.1.1c-.3.1-.8.5-1 .4l-2.1 1.4c-.1 0 0-.2.2-.3l-.5.3.4-.3c-.7.2-1.2.8-2 1.2v.1l-.3.3c-.1 0 0-.2-.4 0l-1 .9c.1-.1 0 0 0 0l-.4.3-.5.4.3-.3-1 .8c-.3.3.1 0 0 .2l-1 .8h.2l-1.2 1c-3.6 4.1-.2 1.5-.2 1.5 1.7-1.3 2.3-2.2 4.3-3.8 1.8-1.2 2.4-1.4 4.3-2.5l3-1.5c.3-.4 1.2-.6 1.7-1h.3l.6-.2.7-.4.4-.1 1.4-.6h-.1c1-.3 1.3-.6 2.2-.9 1-.6 1.9-.5 3-1-.2 0 0 0 0 0 .5-.3 1.1-.5 1-.6.5-.2.4-.1.5 0l.6-.4h-.2l1-.2-.3-.1h.6v-.2l1.7-.3c2.6-.8 5.3-2.1 7.7-2.9h.2c0 .1.5-.4.7-.3l.2-.2h.2l.4-.2h.3l2.8-1.4c1.4-.5 3.6-1.8 4.8-2.6 1.8-1.2 4-2.2 5.7-3.7l.2-.2 1.5-1.2 1-1c.6-.4 1.3-1.1 1.8-1.7l.5-.6.7 9.2 2 24.9a463 463 0 0 0-15.3-1h-3.6l-28.7-1.2-5.8-.2-5.7-.1.3-5.1zm-33.3 99.7h-.1c0-.5 0-.4 0 0zm-15.8 3.4a11.2 11.2 0 0 1-.7.4l.7-.4zm160.6 37.5 1.1 1 .8.5.7.7 1.4 1.3c.8 1 1.6 1.7 2.2 2.6.7 1 1.3 1.7 1.7 2.5l1.4 2.3c1.4 3 2 5.2 2.4 6.6l.2.7h-.3v.5h-2.5L264 484h.4-20.2c-1-.1-7.2 0-9.3 0h.2-16 1.4l-9.1-.1-27.1.1h.4-28.8 2.6c-1 .2-5.4 0-10.5 0-4.8 0-9.7.4-14.7.3h-1.5c-.1-.1 1.7 0 .8-.2h-10.2c-5.7 0-10.6-.2-14.4 0-5.8 0-3.9-.3-10-.1l-2.3-.1H75v-.2l.1-.2.3-.7.7-1.2A21 21 0 0 1 78 479a13 13 0 0 1 2.6-2.8c1-1 2.2-1.8 2.7-2.2l3.3-1.7 1.3-.5-1.3.6-1 .4-.4.3a26.8 26.8 0 0 1 9.5-2.5 18.4 18.4 0 0 1 1.6 0h1l1.6.2-2-.2H96c-.4 0-.6-.1 0-.1h1.4l2 .3-.7-1.5-.3-.8-.2-.4.5 1-.3-.6-.1-.4-.3-.7-.6-1.6a28.5 28.5 0 0 1-.8-3v.8l-.3-2-.2-1.7v-1.8c-.1-.7-.2-1.4-.1-2.3 0-1.7-.3 3-.1-.4v-1.7l.4-1.8c.1-1.3.6-2.6 1-4a33.5 33.5 0 0 1 4-8l1.1-1.6h.2c.4-.7.8-1 1.1-1.4l.8-.8.8-.8.8-.7c.5-.3 1-1 2.2-1.8l.7-.6.7-.6.7-.4.9-.6 1.2-.6 1.3-.6c.6-.3 1.4-.8 2.8-1.3-2.2.8-1.1.2 1.6-.7l-.7.3 1.7-.5 1.3-.4c-.9.3-.5.2 1.8-.3a15.5 15.5 0 0 0-1.5.4 28.8 28.8 0 0 1 10-.8h1c.3.2.3-.1.4-.3l.1-.5.2-.7a18.2 18.2 0 0 0 .2-.6 12.4 12.4 0 0 1 .7-1.5s.1-.4.5-1a29 29 0 0 1 4.2-6.3c-.4.6 0 .1.5-.3.5-.5 1-1 .6-.5a21.2 21.2 0 0 1 3.6-2.9 20.7 20.7 0 0 1 4.4-2l-.4.1a24.7 24.7 0 0 1 20.5 1.5l.3.2a8 8 0 0 1 .4.2c.1 0 .3.2.4 0l.7-.7.7-.8a18.5 18.5 0 0 1 6.4-4.2l2.1-.9 2-.5 1.6-.3a26.8 26.8 0 0 0 2.7-.4c3.4 0 4 .3 5.7.6l-.8-.2c3.2.6 5 1.6 6.7 2.4l2.3 1.5 2.4 2 1 1.1 1 1 1 1.3a37.9 37.9 0 0 1 1.3 2.2c-.8-1.2.2.3.7 1.8-.4-1-.5-1.2.2.7l.4 1.1v.1l.5 1.9a10.6 10.6 0 0 0-.2-1.4 24 24 0 0 1 .5 8 22.3 22.3 0 0 1-.2 1.4l-.1.7-.3 1.1-.3 1.1v.1l.5-.1 2.2-.9A27 27 0 0 1 221 430c.8.1 1.6.1 2.3.3l2.4.6-1.6-.3-2.6-.5a32 32 0 0 1 8.4 2.4 25 25 0 0 1 7.8 5.4c.4.2.7.6 1 .9l.2.3.6.6c.4.3.7.9 1 1.3l.4.6a7.8 7.8 0 0 0 .4.6l.9 1.5c.6 1.1 1.4 2.8 2 4.6a27.9 27.9 0 0 1 1.4 5.6 27.5 27.5 0 0 1 .2 3.4l-.1 2.1v.8l-.1.3-.1.7v.4c0 .1 0 0 0 0l1.5-.4c.3 0 .3 0 0 0l-1.4.5h-.2v-.7l.1-1v-.5l.1-.3v.6l-.2.9v.9s-.1.1 0 0h.3l1.8-.5c.7-.2 1-.4 1.5-.4.8-.1 1.6-.4 4.9-.7 3.5-.2-.7-.1 1-.2a28 28 0 0 1 9.7 1.2l-1.1-.4 1 .3 1 .3 1.8.6 3 1.5 1.4.7 1.3.9 1.3.8zm134.1-1-3.1-1.8a36.3 36.3 0 0 0-16.5-6.6 68.7 68.7 0 0 0-29.3 2.8c-2.4.8-4.7 2-6.5 3l-1.4.8-1.9 1.4-1.8 1.4a38.4 38.4 0 0 0-3.8 4v-.1l-1.6 2 .2-.3-1.5 2.4-.4.6-.2.3v-.4l-.1-.4v-.3l-.2-.7-.3-1.2v.3c-.7-3.6-1.6-5.9-2.5-8l-.8-1.7-.8-1.6-2.2-3.8h.1a43 43 0 0 0-7.2-7.8c-2.5-2.2-5.3-4-9.3-5.6 1 .4-.4-.2-.3-.2-1.9-.7-3.8-1.2-5.4-1.4l-1.8-.3h-.8c-2.8-.2-2.3-.2-2.7-.3h-.4a44.6 44.6 0 0 1-1 0l-3.2.3 1-.2-3.2.5-3.1.7 1.2-.1-2 .4c-.2 0-.4 0-2 .6l.2.1c-1.2.4-2 .9-3 1.3l-1.3.5-1.2.7c-1.6.9-3.1 1.9-5 3.2a44 44 0 0 0-9.3 10.8l-1.8 3.2a31.7 31.7 0 0 0-8-3.4 31 31 0 0 0-11.2-1l-1.5.2c-.6 0-1 .2-1.6.3l-1.6.3-1.4.4h-.2v-.6a27.2 27.2 0 0 0 .1-4.7 28 28 0 0 0-9-18.6 28 28 0 0 0-7.8-5.2 29 29 0 0 0-11.9-2.4h-1.7l-1.8.2c-1.1.2-2.3.3-3.4.7l-1.7.5-1.2.4v-.2l.2-.9a22.9 22.9 0 0 0-2-13.7c-1-1.8-2.7-4.4-4.9-6.5a22.3 22.3 0 0 0-7.3-4.7l-1.9-.7c-1.7-.4-3.7-.8-5.4-1l-3.8.1-3 .5h.2l-1.6.3-1.5.6.5-.2a26 26 0 0 0-6 3 25.4 25.4 0 0 0-2.6 2.2l-.6.5-.5.5-.6-.3.3.2a25 25 0 0 0-9.8-3 27 27 0 0 0-9.5.8v-.1a26.5 26.5 0 0 0-14.7 11.4 24.7 24.7 0 0 0-2.2 4.7l-.2 1v.1c-.1 0-.1.2-.2.1.1 0 0-.1 0 0 0 0-.1 0 0 0l-.8-.1.1-1.5v.7l.2-4-.2.8c.2-2.1.2-.5.3-2.5.1-2.9.4-4.6.6-7.4.7-11.6.7-24 .8-34.9v-.4c.2-.3-.2-3 0-3.5l-.1-1.2v-.5l-.1-2v-1.3c0-2.3-.3-4.4-.5-6.5l-.8-6.7-.8-5.2-.5-3-.6-3-1.4-6.1-1.4-5.3v-.2h14.4-.7l36.5.4c1.7.2 12.9.5 16.6.7h-.4c9.6.3 19.7 1.1 29 1.7l-2.7-.2 16.4 1.4 12.9 1.4 13.5 1.9 22 3.6h-.8l14 2.6.6.2a517 517 0 0 1 23.3 5.4l.3.1 12.3 3.2-4.6-1.2c1.7.2 9.3 2.6 18.2 5l12.6 3.7 12.8 4c4 1.3-3.6-1 2.5 1 .1.1-2.9-1-1.3-.3 6 2 9.7 3.3 17 6l.3.1c9.5 3.3 17.8 6.8 24.1 9.1 5 1.9 6.5 2.6 8.1 3.3l8.4 3.5 3.9 1.8c4.3 1.8 3.1 1.1 7.8 3.3-.3-.1 6 2.6 3.2 1.5l23 10.5-.4.9a49.4 49.4 0 0 0-2.8 10.8 39.4 39.4 0 0 0-.2 1.9l-.1.8v.5l-.4-.2-.5-.2-1.5-.4-1.6-.4-1.5-.2a20.7 20.7 0 0 0-8 .5l-1.5.4-3 1.3a28 28 0 0 0-5.3 3.7 18 18 0 0 0-5.9 11.2 28 28 0 0 0 1.4 12.3l.4 1.4a12.3 12.3 0 0 0 .4.9l1 2.5.5 1 .2.3-.5-.1-.4-.1h-.4l-.9-.2a33.4 33.4 0 0 0-10.3 0l-1 .2-2.8.7a27.1 27.1 0 0 0-14.7 11l-1-.6zm1.8 1.1zm206.4-35.1c-.1-.6.6 1 1 2.7v.2l.5 2 .3 1.3.1 1.3.1 1.3v3.4-.6l.1 1.8-.2 1.8-.2 1.3-.5 1.5-.6 1.5-.6 1.2-.2.4-.5.8-1.3 1.8.7-.1h-.6l1-1.3.3-.4s-.3.7-1 1.6l1.7-.3h1.8-.9 3.7c-1 0-.5 0 2.1.4l-1.8-.2a24.9 24.9 0 0 1 11 3.9l1.4 1 1 1 1 .7.5.7.9 1c.6.6 1.1 1.5 1.8 2.5l2 3 1 2.2.3.6c.2.8.5 1.6.2 1 .5 1 1.2 3 1.3 5.2a8 8 0 0 1-1.3 5.2l.2-.4a6 6 0 0 1-1 1.2l-.2.3h-23c.4.1-4.3 0-3.1.1-9.2.2-16.7-.2-20 .2l-7-.1h1-16c-2.8 0-3.3.2-8.5.1h-2.3c1.2 0 1.6 0-1-.1h-1.4s-.1 0 0 0a19.5 19.5 0 0 0-.7.1l-9.8-.1-24.7.2 3.3-.1h-5.7 1.8l3.2-.1h-24.2l-1 .1h-2c-1.1 0 .1-.1-3.9-.1h-13c2.2 0 1.5.1.5.1h-10.8 3.6H465c-4.3 0 .8 0-1.3.1H452l1.4.1h-20.3l-.4-.3-.9-.7-1.6-1.4-1.9-1.6-8.8-7a151.1 151.1 0 0 0-9.3-6.9c.6-1 1.3-1.7 2-2.5l1.1-1.3.6-.6.6-.5c.8-.7 1.6-1.4 2.4-1.9l1.2-.8 1.3-.7a28.4 28.4 0 0 1 11.9-3.4h3c1.2 0 2.4.1 3.4.3 1 .2 1.7.2 3 .6l-.5-.1a54.7 54.7 0 0 1 2.2.6l-.9-1.6a37.1 37.1 0 0 1-3-7.7 31 31 0 0 1-1-8.5v1.2c0-2 .2-4.4.8-6.2a21.5 21.5 0 0 1 21.4-13.4l1.8.2 1.6.3a23.3 23.3 0 0 1 1.4.5 23 23 0 0 1 2 .8v-1.5l.1-1v.5c.1-1.9.3-3.1.5-4.4a62 62 0 0 1 1.1-4.7l.2-.5a40.6 40.6 0 0 1 7-13.8l.2-.1a29.4 29.4 0 0 1 4.6-4.8l1-.8 1.3-.9a41 41 0 0 1 15.5-5.9l4.3-.6c1.5-.2 3-.2 4.4-.2 1.4-.1.8 0 .4 0h-.3 1.7c0 .1-.5 0-.8 0-.4.1-.7.1-.1.1a79.1 79.1 0 0 1 2.8.2c1 0 1.8 0 2.7.2 1.8.2 3.7.4 6.2 1h.2c1.7.3 3.2.9 4.7 1.3s2.9 1 4.2 1.6c2.6 1.2 4.9 2.3 6.8 3.5 2.6 1.6 3.5 2.5 4.4 3.2l1.3 1.1.9.9.6.5 1 1 .8-.9.6-.7 2-1.8 2.1-1.6 2.4-1.7 1.6-.8.4-.2c3.4-1.7 7.1-2.9 11.3-3.1a25 25 0 0 1 13 3c1 .4 2.5 1.3 4 2.3a32.7 32.7 0 0 1 3.1 2.7 28.4 28.4 0 0 1 3.7 4.9l-1-1.4-.7-1-.5-.6a27 27 0 0 1 3.9 7 29.8 29.8 0 0 1 2 7.6l-.4-2.4c.4 1.7.6 3.5.6 5.2l-.1-1a39 39 0 0 1 0 3.8v2l-.1 1a30 30 0 0 1 0-.1 25 25 0 0 1-.2 1.8 52.3 52.3 0 0 1 1.9-.2h2.8c1.2 0 2.5 0 4.5.2 2 .1-3.6-.5.4-.1 2.5.3 5.7 1 8.6 2.6a14 14 0 0 1 6.6 7.1zm60-52-21.7 3h-.6c-.2-.1-1.2.1-2.2.5-1 .4-2 1-2.2 1.2a12.9 12.9 0 0 0-1.3 1c-.4.4-1.2 1-.6.4l-2 1.8-1.2 1.1a115.5 115.5 0 0 0-6.2 6c-2 2.1-3.8 4.4-5.9 6.8l-19.6 23-.3.3-.3-.2c-2.9-2-6.2-3-9.6-3.6-1.5-.3-3-.4-4.5-.5l7.8-9.4 11.8-14.5c1.7-2.2 5-6 7-8.7l.9-1c.7-.9 1.5-2 2.3-2.8 1-1.3 2.4-2.7 3-3.3l1.4-1.4-.2.2a28 28 0 0 1 6.7-5.4h-.2a18.7 18.7 0 0 1 12.5-1.8c6.7.6 10.5 1.4 17.4 2-.9-.2.3 0 .3 0 3.1.3 6.5.7 6.6.5 2.3.3 1.8.3 2.1.4h1.2l2.6.3h-.8l5.1.5-1-.3c2.8.4.7.3 3.3.5l2.6.2 1.2.2h.5l.3.1 1.2.3h.3l-17.6 2.6z"/><path d="M543.5 304.2v-.3zm-64.3 179.3zM599.5 235l.2.2-.3-.2zm-3.3 50.3v.2zm-28 26.3.2.8-.2-.8zm9.3-49.4a.5.5 0 0 0 .5-.4l.6-2.7a.5.5 0 0 0-.4-.6.5.5 0 0 0-.6.4l-.6 2.7a.5.5 0 0 0 .4.6zm72 40.9h.3zm-63.3 31.7-1.4 3.3a.5.5 0 0 0 .2.7h.2c.2 0 .4-.1.5-.3l1.4-3.3c.1-.2 0-.5-.3-.6a.5.5 0 0 0-.6.2zM189 209zm127 103.5h.4zm-127.3-72.9zm-.3 74.6zm-.8-55.9zm15.5-6c.1-.2-.3-.7-.4-.9-.4-.3-.6-.9-1-1.2l.1.1c-.3-.3-.7-.6-.6-.7a5.5 5.5 0 0 0-2.4-1.2l-.7-.2-1.3-.2h-.8.3c-.1.1-.5-.2-1 0-.3 0-.5 0-.7.2s-.5.2-.7.3c-.2.1.2-.2-.1 0v-.2c-.3.1-.6 0-1 .2-.4.3-1 .3-1.2.6-.5.4-.5 0-.9.5l-.2.1-.3.4s-.3.2-.3 0c-.5.4-.8 1-1.3 1.7l-.3.8s-.3.7-.3.3l.1-.1v-.1c-.4.4-.3.8-.5 1.3.1-.1.1-.3.2-.2l-.2.4-.2.6h.1c0 .2-.2.3-.1.7 0 .2 0-.3 0 0v1.7l.1.3c.1.6-.2.3 0 .8l.1.1c.3.5 0 .3.3.8 0-.2.2-.1.2.1v.5-.1l.2.3c0 .4.5.8.5 1l.6.7c-.2-.1 0 .2 0 .2a2.7 2.7 0 0 1 .6.6c.6.7 1.2.8 1.8 1.3h.3c.7.2 1.2.7 1.6.5l.6.2h-.1l1.3.1c.2 0 .3-.2.7-.1h.2c-.1 0-.2 0 0 0h.2c.3 0 .2 0 0 0 .3 0 .8-.2.9 0l1.8-.9c.1 0 0 .2-.2.3l.5-.3-.4.3c.6-.2 1-.7 1.6-1l.2-.3c.1 0 .1.1.4-.1l.7-.8c-.2.1-.1 0-.1 0 0-.2.2-.2.3-.3l.2-.4v.3l.5-.9c0-.3-.1 0-.1-.1l.4-.9h-.1a6.2 6.2 0 0 1 .4-1.1c0-1 0-1.7-.2-2s-.2-.2-.3 0l-.3 1-.5 1.8c-.2.5-.4 1.1-1 1.8a5.4 5.4 0 0 1-1.3 1.1l-1.6.9-2.2.5h-1.6c-.1 0-.3 0-.5-.2h-.5l-.3-.2c-.3 0-.6-.2-1-.4v.1c-.6-.4-.9-.4-1.3-1-.8-.3-.8-1-1.5-1.6.1 0 0 0 0 0-.2-.4-.3-.8-.5-.7v-.3l-.3-.4-.1-.6-.1.2v-1.7c0-1 .2-2 .5-3a5.4 5.4 0 0 1 1.5-2.3h.2l.3-.5.1-.2h.1c.2 0 .2 0 .3-.2h.2c.6-.4 1.2-.9 2-1 1-.2 2.7-.5 3.8-.3.7 0 1.5.5 2.1 1l1.8 1.5.1.1.8 1.2a3.3 3.3 0 0 0 0 .3c.2.1.3.3.4.6l.5 1.7c0 .5.2.9.3.8.1-.1.4-.7.3-2.2-.1-.8-.4-1.3-.7-1.8zm-15.8 39c0 .1.1-.4.1 0v1.9c.2.6-.2.3 0 .9h.2c.3.5 0 .4.3.9 0-.3.1-.2.2 0h-.1l.1.3v.2h-.1l.3.3c0 .3.4.7.4.9l.6.7c-.1 0 .1.2 0 .2a2.7 2.7 0 0 1 .7.7c.5.6 1.2.8 1.8 1.2h.3c.7.3 1.2.7 1.6.5.3 0 .4.2.5.2l1.2.1.7-.1h.2l.1.1h.3l-.1-.1c.3 0 .8-.1.8 0 .8-.2 1.3-.5 1.9-.8l-.2.2.4-.2-.3.2c.6-.1 1-.6 1.6-1l.2-.3c.1 0 .1.1.3-.1.3-.1.6-.5.7-.8 0 .1 0 0 0 0 0-.2.2-.2.2-.3h.1l.2-.4-.1.3.5-.9c.2-.3 0 0 0-.1l.3-.9a6.2 6.2 0 0 1 .4-1.1l-.2-2c-.1-.2-.2-.2-.3 0l-.3 1-.5 1.8-1 1.8a5.4 5.4 0 0 1-1.4 1.1l-1.5.9-2.3.5h-1.5l-.5-.1-.5-.2h-.3l-1-.5v.1c-.6-.4-.9-.4-1.3-1-.8-.4-.8-1-1.5-1.6.1 0 0 0 0 0-.2-.4-.3-.8-.5-.7-.2-.3 0-.3 0-.3l-.3-.5v.1l-.1-.6-.1.2v-.5h-.1l.1-1.2c0-1 .1-2 .4-3a5.4 5.4 0 0 1 1.6-2.3h.1l.4-.5.1-.2h.1c.2 0 .2-.1.3-.2h.2c.6-.4 1.1-.9 2-1.1.9-.2 2.7-.4 3.8-.2.7 0 1.5.5 2.1 1 .7.4 1.2 1 1.8 1.5l.1.1.7 1.2a3.3 3.3 0 0 0 .2.2l.2.7c.3.5.4 1.1.5 1.7.1.5.2.9.4.8 0-.1.4-.7.3-2.2-.1-.8-.4-1.3-.7-1.8l-.5-.8c-.3-.3-.5-1-1-1.2h.2l-.7-.6a5.5 5.5 0 0 0-2.4-1.2c-.3 0-.3-.2-.7-.2l-1.3-.2v-.1h-.7.2c0 .2-.5-.1-1 0-.2 0-.5.1-.7.3s-.4.2-.7.2c-.2.2.2-.2-.1 0 0-.1.1-.1 0-.2-.3.2-.5 0-1 .3-.4.3-1 .3-1.2.6-.5.3-.5 0-.8.5h-.3c-.2.2 0 .3-.3.4 0 0-.3.2-.2 0-.6.5-.8 1.1-1.4 1.8 0 .2-.3.5-.2.7-.1 0-.4.8-.3.3v-.2c-.3.4-.3.9-.4 1.4 0-.2 0-.4.1-.2l-.1.4v-.1l-.2.7v-.1c0 .3-.2.4-.1.8zm.2 2.7zm-7.9-115.8zm5.4-11.9.3-.1c1-.6 1.8-1.2 3-1.5.7-.1 1.8-.4 2.8-.4h1.6l1.4.1c1 .2 2.2.7 3.2 1.4s1.9 1.6 2.7 2.4l.2.2a11.2 11.2 0 0 1 1 1.7l.3.4.4 1c.3.7.5 1.7.7 2.5 0 .8.2 1.3.3 1.2.1-.1.5-1 .2-3-.2-1.3-.5-2-1-2.7 0-.2-.5-1-.7-1.2l-.6-.9-.8-.8h.1l-.9-.8c-1-.9-2.6-1.7-3.4-1.9-.4 0-.5-.2-1-.3h-.1l-1.9-.3-1-.1h.4c-.1.2-.8-.1-1.5 0l-1 .3-1 .4c-.3.1.2-.2-.2 0 0-.2.2-.2 0-.2-.4.1-.8.1-1.3.4-.7.3-1.5.5-1.9.9-.6.4-.6 0-1.2.7l-.3.1c-.3.3-.1.3-.4.5 0 0-.5.3-.3.1-.8.6-1.2 1.5-2 2.5l-.4 1s-.5 1.1-.3.4v-.2l-.4.9-.2 1 .1-.3-.2.6v-.1a6.2 6.2 0 0 0-.2 1v-.2c0 .5-.2.6-.1 1.2 0 .2.1-.5.1 0a10 10 0 0 0-.1 2.4l.1.3c.2 1-.2.4.1 1.2l.2.2c.3.7 0 .4.4 1.2-.1-.3.1-.2.2.2l-.1-.1.2.4v.3l-.2-.2.4.5.7 1.3.3.5.5.6c-.2-.1.2.3 0 .2.3.2.9.7 1 1 .8.9 1.7 1.2 2.6 1.8 0-.1.5.2.4 0l1.3.6c.4.2.7.3 1 .2.5 0 .5.2.8.3h-.2l2 .2c.3 0 .3-.2 1-.2h.3c-.2 0-.2.1 0 .1h.4v-.1c.3 0 1-.2 1.1 0 1.1-.3 1.9-.7 2.7-1.2.2 0 0 .2-.3.3l.6-.3-.5.3c.8-.2 1.5-.8 2.3-1.3l.1-.2.3-.3c.1 0 .1.1.4-.2l.6-.5.5-.7c-.2.2-.2.1-.1 0l.4-.4h.1l.3-.6c.2 0-.2.4-.1.4.5-.7.3-.3.7-1.2.2-.4 0 0 0-.2l.6-1.2h-.2l.7-1.7c.2-1.5 0-2.4-.1-2.7-.1-.4-.2-.4-.3-.2l-.3 1.5c-.2 1.1-.5 1.9-.8 2.8a10 10 0 0 1-1.6 2.7l-1 1-1 .8a15.3 15.3 0 0 1-2.4 1.2 11.3 11.3 0 0 1-3.4.8H190l-.2-.1-.7-.1-.9-.2-.3-.2c-.5 0-1-.4-1.5-.6-1-.6-1.4-.6-2-1.4-1.2-.7-1.3-1.5-2.2-2.5 0 .1 0 0 0 0-.4-.6-.6-1.2-.8-1.1-.2-.4 0-.4 0-.5l-.4-.6v.1l-.2-1-.1.3v-.6h-.1v-2c0-1.4.2-2.9.7-4.3a8.8 8.8 0 0 1 2.3-3.6h.2s.4-.7.6-.7l.2-.2s.2-.2.1 0l.3-.4zm4.6-37.2zM179 200h2c.2 0 .4-.2.4-.5s-.2-.5-.5-.5H179c-.2 0-.5.2-.5.5a.5.5 0 0 0 .5.5zm-.3-45.2h1.7c.3 0 .5-.2.5-.5s-.2-.5-.5-.5h-1.7c-.2 0-.5.3-.5.5s.3.5.5.5zM108.2 433l-.3.3zm137.5 24.3zm-9.1-344.8v-.1zm-3.2 12 .8 3c.4 1.2.9 2.2 1.5 3.2l1 1.3 1.3 1.2c0-.1 1 .7.8.4 2 1.4 4.1 1.9 5 1.7 1.1 0 1.3.2 2 .2h-.3 4c.8 0 1-.2 2.3-.1h1.5-.1 2.5l6.4-.1-.8.1h1.5-1.3c1.8.2 3.6 0 5.7 0h.6l.7-.1c.3 0 0 .2 1 .2l3.4-.1h-.1 2.7-.9 3.1c1.1 0-.2 0 .3-.2h3-.3 4.2c13.6-.7 2.8-1 2.8-1-5.3-.2-8 0-14.5.1-5.6 0-7-.2-12.8 0h-14.1a7.2 7.2 0 0 1-1.6 0c-.4 0-.8 0-1.1-.2l-.8-.1-.9-.2h.2c-1.2-.4-2.4-1-3.3-1.7v.1l-1.1-1.1-.8-1c-.5-.8-1-1.4-1.3-2.5a9.7 9.7 0 0 1-.9-3.6c0-1.2 0-2.4.2-3.9 0 .4 0-.1.1 0 0-.8.3-1.5.4-2l.1-1c.3-1 .4-.7.5-.8 0 0 .2-.9.6-1.5l-.2.3c.4-.7.7-1.4 1.2-2l-.4.3c.7-1 .3-.1 1-1l-.1-.1 1.5-1.5 1.7-1.2c2.8-2 6.1-3.2 9.5-3.8 3.4-.5 6.9 0 9.7 1.1l.3.2c0 .1 1.6.5 1.8.7l.6.3c.2.2.6.4.2.2.6.4.7.3 1 .6l.6.5a35 35 0 0 1 2.7 2.1l1.2 1.2.6.7.2.2.2.3.5.6 1-.7a14 14 0 0 1 6.2-1.3 14.2 14.2 0 0 1 6.3 1.9c1.8 1 3.3 2.7 4 4.7.4 1 .6 2.1.7 3.2a11 11 0 0 1 0 1.6v1l-.3 1.6 1.5-.4h.6l.4-.1 1.6-.1h.6c1.5.2 3 .8 3.7 2a6.6 6.6 0 0 0 .5.9c.2.5.5 1.2.6 2 0 1-.4 1.8-1.1 2.4s-1.8.8-2.6 1l-1.2.3-1 .1c-.4 0-.7.2-.5.2.2 0 .7.2 1.8.2h1l1-.3c.9-.2 1.9-.4 2.8-1.4v.1c.5-.5.7-1.3.8-1.9v-1.7a7 7 0 0 0-1.5-2.7c0-.2-.4-.7-1-1l-1.4-.8a13 13 0 0 0-2.6-.5 9.4 9.4 0 0 0-1.3 0l-.6.1a1.6 1.6 0 0 0-.3 0v.1l.1-.1h-.2l-.2.1v-.4l.1-.5c0-1.5-.1-3.2-.7-4.7a9 9 0 0 0-2-3.4l-.8-.8c-.3-.2-.5-.6-1-.9a17 17 0 0 0-3.8-2l-1.1-.4-1.1-.2.8.2c-.3.1-1.7-.5-3.3-.4-1.6 0-3 .7-4.5 1.2-.6.3.6-.4-.4 0-.1 0 .4-.2.1-.1l-.9.4-.3.1-.2.2-.6-.7v-.1c-1.2-1.3-2.2-2.5-3.2-3.1l-1.2-1-1.4-.8-.6-.5-1.3-.6s-1-.5-.5-.4a23 23 0 0 0-6.7-1.6h-2.4s-2.7.3-1.2 0h.5c-.7 0-1.4 0-2.1.2l-2.1.5c.4 0 1-.2.6 0l-1.3.2a2.3 2.3 0 0 1 .2 0l-2 .6h.3c-.5 0-.8.1-1.2.3a7.5 7.5 0 0 0-1.2.6c-.4.3 1-.4 0 .1l-1 .5-1.2.7-2.2 1.7c.2 0-.2.2-.5.6-1.3 1.5-.7.4-1.8 2v.3c-.5.7-.6 1-.8 1.1-.1.2-.3.4-.6 1.3.3-.7.3-.2-.1.6v-.2l-.3 1c0-.4-.1-.3-.3.4v-.5l-.2 1.4c-.4 1-.6 2.7-.7 3.2l-.1 1.2v2.1zM446 163.9a13 13 0 0 0 4.7 1.3l2.3.3 2.2.1h4.4s42.6 0 10.2-1h.2-11c-.5-.2-4 0-5-.1-2.8 0-6-.7-8.2-2l.7.3a5.3 5.3 0 0 1-2.1-2l-.3-.5-.2-.5v-.5c-.5-2.1.7-5 2.3-7a7 7 0 0 1 2.9-2l2.7-.8-.2.1c1.7-.3 2.3-.2 4.2 0h1.3l.4.1.5.1 1 .3-.2-1-.1-1v-3.5c.1-1.3.3-2.5.6-3.8 0 .5-.2 1-.3 1.4 0-.5.7-2.8 1.9-5.3a16 16 0 0 1 5-6c1-.9-.8.7.8-.4 0 0-.7.5-.3.3l.6-.4.5-.3 1.1-.5c.7-.5 1.6-.7 2.7-1.2 3-1 5.7-1.1 7.7-1.3 1.5 0 2 .1 2.6.2l2.7.3 1.3.3c1.3.3 1 0 2.5.5l1 .3 2.2.8 1.1.4.7.3 1 .5.6-1.3.4-.7a24.5 24.5 0 0 1 3-4.4c.5-.9 2.1-2.6 2.6-3.1l1.6-1.3c.6-.5 1-.8 0 0l-.4.4-.2.3c2-1.6 3.7-3 6.1-4-.7.3-1.6.8-1 .4l2.2-.9-.5.2 1.7-.5a13.1 13.1 0 0 1 1.8-.4h-.5c.8-.2 1.4-.2 2-.2l2.3-.2c.9-.1-1.7 0 .2-.2a29.5 29.5 0 0 1 10 2l2 .8 2 1h-.3l.8.2c1.3.6 1.6.9 2 1.1a31 31 0 0 0 2.8 2l-.4-.3 1.3 1.1c-.4-.3-.2 0 .6.8a8.9 8.9 0 0 0 1 1.1 17 17 0 0 1 1.8 2.6c.6.9 1 1.7 1 2a25.1 25.1 0 0 0 .9 2l.8 2.5c-.1-.4.3 1.4 0 .9a17.4 17.4 0 0 1 .8 5.1v-.2a40.7 40.7 0 0 1-.1 3.6l-.2 1.6v.7l-.1.4a40 40 0 0 1-.3 1.5l2-.4 1.3-.2a45.2 45.2 0 0 1 2.5-.2c-.2-.1 2-.3 1.4-.3 2-.3 4-.4 5.5-.4 1.6 0 2.7.2 3.5.3.9.2 1.4.4 1.8.7a8.4 8.4 0 0 1 1 .6l-.4-.2a9.8 9.8 0 0 1 3 2.4 9.8 9.8 0 0 1 1.5 2.8l.5 1.4c0 .5.2 1.1.2 2.3 0-.8 0 .2-.2 1l-.1.4-.1.6c-.4 1.4-.4 1.2-.1.6l.1-.2c-.3.7-.7 1.6-1.2 2.3a10.2 10.2 0 0 1-6.2 3.7c-1.8.3-3.5.3-5.4.3l1.5-.1h-2.6 2.3c-3.1-.2-6.5 0-10.2 0h-1l-1.4.1c-.5 0 0-.2-1.8-.2l-6 .1h.3-5 1.6-5.5c-2 0 .4 0-.6.2h-5.4.7-7.4c-24.3.7-5.1 1-5.1 1 9.5.2 14.4 0 25.8-.2l23 .2a15 15 0 0 0 4-.6 10.2 10.2 0 0 0 3.5-2 9.7 9.7 0 0 0 3.6-7c0-1.2-.2-2.9-.8-4.5a10 10 0 0 0-2.8-4 8.3 8.3 0 0 0-.8-.8c-.8-.6-1.8-1.2-2.7-1.6l-1-.3-1-.3-1.7-.2h-1.7.3l-3.7.2-3.5.4h.2l-2.8.4-1 .1h-.3v-.5a46.5 46.5 0 0 0 .2-1.3l.2-3.2c0-2.7-.4-4.8-.8-7-.5-2.1-1.2-4.3-2.7-6.7.4.6-.1-.3 0-.3a26 26 0 0 0-2.3-3 5.1 5.1 0 0 0-1.3-1.2c-1.4-1.3-1-1-1.2-1.3l-2.5-1.8.5.4-.8-.6-1-.6c-.5-.4-1.2-.7-1.8-1l.7.5c-2-1.1-.4-.5-2.4-1.3l-2-.8-1.7-.7a25 25 0 0 0-12.4-1.4c-2.9.6-5.7 1.6-8.2 3.2a27.8 27.8 0 0 0-6.5 5.6 35.1 35.1 0 0 0-2.5 3.4l-1 1.7-.6 1-.2.4-.3-.2-.8-.3-1.5-.6-.5-.2c-.2-.2-3.1-.8-3.5-1l-1.4-.2-.5-.1-2.2-.3-1.3-.2a24.8 24.8 0 0 0-7 .4c-1.2.2-2.3.6-3.5 1-1.1.4-2.3.8-3.4 1.5l-1.1.5-1.1.8-1.2.8-1 1c-.3.1-.4.3-.6.5l-.5.6-1 1.3-1 1.4-.7 1.5c-1 2-1.5 4.2-1.7 6.4a14 14 0 0 0 0 1.5 18.8 18.8 0 0 0 0 1.5v1.8l.1.3h-.2l-.6-.2h-1a18.6 18.6 0 0 0-5.5.1 12 12 0 0 0-3.7 1.5l-1.5 1.3c-.4.6-.9 1-1.2 1.7a11 11 0 0 0-1.4 3.7c-.3 1.3-.2 2.8.4 4a6.1 6.1 0 0 0 3 2.9zM111 345.6c.3 0 .5-.2.5-.5l.2-2.7a.5.5 0 0 0-.4-.5.5.5 0 0 0-.6.4l-.2 2.8c0 .3.2.5.5.5zm377.4-181c-.3 0-.5.2-.5.4s.2.5.5.5h2.9c.3 0 .5-.2.5-.5s-.2-.5-.5-.5h-2.9zM87 426.6l.2-.1c.3-.1.4-.4.2-.7l-1.4-2.6a.5.5 0 0 0-.6-.3c-.3.2-.4.5-.2.7l1.4 2.7a.5.5 0 0 0 .4.3zm42.3-6.5v-.2zM168 230.7v-.3z"/></g><g transform="translate(120 80)"><path xmlns="http://www.w3.org/2000/svg" d="M393.1 244.9v.1-.1z"/><g xmlns="http://www.w3.org/2000/svg" fill="#fff"><path d="M254.7 61.4c-.4-2.9-1-5.3-3.3-8.1-3.9-4.9-16.2-7.8-24.6-2.2-8 5.4-6.4 16.7-5.6 20.4-1 1-1.6 2.5-1.6 4.1 0 3.1 2.4 5.7 5.3 5.7a5.3 5.3 0 0 0 1.1-.1l-6.9 22.4-2.2 5.7s3.2 4.1 10.8 5.7a38 38 0 0 0 11 1c2-.2 4.2-.6 3-4-1.7-5.3-1-8.6-1-8.6l2.3-13c1.7.2 3.2.3 4.3 0 3.2-1 6-4.5 7-10.2a108.5 108.5 0 0 0 .4-18.8zm-26.4 18.7a7.4 7.4 0 0 1-.6.4l.6-.5.4 1.6-.4-1.5zm-1.3.7.4-.1a3 3 0 0 1-.4.1zm9.5 7.4-.2-.1.2.1zm-1-.4-.2-.2.3.2zm1.9.8h.1-.1zm2.2.8h.2-.2zm1.1.4h.1z"/><ellipse cx="225.2" cy="75.6" rx="2.4" ry="2.5"/></g><path xmlns="http://www.w3.org/2000/svg" d="M255.2 61.3c-.4-2.9-1.1-5.4-3.4-8.3-2-2.6-6.2-4.6-11-5.2-5.2-.8-10.3.3-14.2 2.9-8.1 5.4-6.7 16.6-5.9 20.7a6.4 6.4 0 0 0-1.6 4.2c0 3.4 2.6 6.2 5.8 6.2h.4l-6.6 21.6-2.3 6 .1.2c.2.2 3.4 4.3 11.1 5.9 3.5.7 6.5 1 9.1 1a22.6 22.6 0 0 0 2 0c1.4-.1 2.8-.4 3.5-1.5.5-.8.5-1.8 0-3.3-1.6-5-1-8.2-1-8.2l2.2-12.6 2 .2c.8 0 1.5-.1 2-.3 3.7-1.1 6.4-5 7.3-10.5a110.6 110.6 0 0 0 .5-19zm-15 42c-.1.1-.7 3.5 1 8.8.4 1 .5 1.9.1 2.4-.4.7-1.6.9-2.6 1a38 38 0 0 1-10.9-1 19.5 19.5 0 0 1-10.3-5.3l2.1-5.5 6.8-22.1c.6-.2 1.1-.4 1.6-.8l.2 1c.6 2.1 2.5 4 6 5.9 2.5 1.3 5.5 2.5 8.2 3l-2.3 12.6zm13.5-23.2c-.9 5.2-3.3 8.7-6.5 9.7-3 1-8.7-1-12.6-3-3.2-1.7-5-3.4-5.4-5.3a24.4 24.4 0 0 0-.3-1.4l-.3-1.2a4.8 4.8 0 0 1-3.7 1.9c-2.6 0-4.8-2.3-4.8-5.2s2.2-5.2 4.8-5.2a5 5 0 0 1 4 2.3l.8-.7a5.5 5.5 0 0 0-8.1-1.5c-.8-4.2-1.8-14.2 5.5-19 8.3-5.5 20.2-2.5 24 2.1 2 2.7 2.7 5 3.1 7.8l.3 5.4c0 3.9-.3 9.9-.8 13.3zm-28.5-7.5c-1.6 0-2.9 1.4-2.9 3s1.3 3 3 3 2.8-1.4 2.8-3-1.3-3-2.9-3zm0 5a2 2 0 0 1 .1-4c1.1 0 1.8.9 1.8 2s-.8 2-1.9 2zm14.3-9.3c0-.1 1.2-1.8 3.9-1.6.4 0 .8-.3.8-.7s-.3-.8-.7-.8c-3.6-.3-5.2 2.1-5.3 2.2-.2.3-.2.8.1 1 .5.4 1 .2 1.2 0zm11-3.6a.7.7 0 0 0-.6 1c.1.3.5.5 1 .4.1 0 1.2-.3 2 .2l.4.1c.2 0 .5 0 .6-.3a.8.8 0 0 0-.2-1c-1.3-1-3-.4-3.2-.4z"/><circle xmlns="http://www.w3.org/2000/svg" cx="242.4" cy="71.9" r="1.4"/><circle xmlns="http://www.w3.org/2000/svg" cx="252.4" cy="71.1" r="1.4"/><path xmlns="http://www.w3.org/2000/svg" d="M248.4 72.3c-.4.1-.6.5-.4 1 .5 1.2 1.4 3.7 1.3 4.6s-.9 1-1.2 1.1c-.5.1-.8.5-.7 1 .1.5.7.6 1 .5.8 0 2.2-.9 2.3-2.4 0-1.6-1.2-5-1.4-5.4-.1-.4-.5-.6-1-.4zm-4 10.4a4.6 4.6 0 0 1-4.4-3.3c-.2-.4-.5-.6-1-.5s-.5.5-.4 1c.4 1.4 2 4.1 5.8 4.3.4 0 .7-.3.7-.8 0-.3-.3-.7-.7-.7zM117 135.5v.1-.1zM2711.8 107l.5-.1-.5.1zm19.8-3.3h-.2.2z"/><path xmlns="http://www.w3.org/2000/svg" fill="#fff" d="m288.6 416.5-6.3-19.1 28-6.5 9.4 24.2z"/><path xmlns="http://www.w3.org/2000/svg" d="M283.5 402.3v-.3.3zm4.4-5.5z"/><path xmlns="http://www.w3.org/2000/svg" fill="#fff" d="m131 389.6 9.6-14.7 24.3 17.3-7.6 11.8s-10.2 1.3-15.5-2.4c-9.3-6.5-10.7-12-10.7-12zm146.4-2.3h.1zm27-6.5zm-22.6 6.6zm-5.4 1.2c1.4-.3 1.9-.2 3.3-.6l2.1-.6c.3-.2 1-.2 1.3-.4h.2l.4-.1.5-.2h.2a4.4 4.4 0 0 1 1-.3c.7-.1.9-.4 1.5-.4.7-.4 1.2-.1 2-.5-.1 0 0 0 0 0 .4 0 .8-.2.7-.4l.3.1.4-.2.5-.1-.1-.1c.3 0 0 .1.4 0 .4-.2.7 0 1.1 0 1.8-.4 3.6-1.2 5.3-1.4v.1c.1.1.5-.3.6-.2h.3l.3-.2h.2c.7 0 1.2-.3 2-.5.9 0 2.5-.6 3.4-.9 1.3-.5 3-.4 4.3-.9h.1l1.3-.4s6-1.4 1.2-1.3c-.7 0-1.1.2-1.6.4l-.7.1c-.4.2-.9.1-1.2.3-.2 0-.6.2-.7 0l-2 .7c-.3.1-.4 0-.7.2l-1 .3h-.6.2c0 .2-.4 0-.8.2-.4 0-.7.6-1.1.6-.2.1.1-.2-.1 0v-.2c-.3 0-.5 0-.8.2v-.1c-.4.2-.9 0-1.2.3-.4.2-.3-.2-.8 0h-.2c-.2 0 0 .2-.3.2h-.2c-.5 0-1 .3-1.7.3-.1.2-.5.2-.6.3h-.3s.1-.1.1 0v-.2c-.4 0-.6.3-1 .3h.2l-.4.1h-.5l.1.1-.6.1c-.1.1.3 0 0 .2l-1.3.1-.2.2v-.1c-.5.2-.2-.1-.7 0v.2c-.4.2-.3-.1-.7.2.2 0 .1.1-.1.1h-.4l.1-.1-.3.2c-.2 0-.6.2-.8 0l-.7.3c.1 0-.2 0-.1-.1l-.8.2c-.6 0-1 .4-1.7.4.1 0-.2.1-.1.2-.6.3-1.2 0-1.3.4h-.5l-1 .3c-.2 0-.2.2-.5.3 0-.1 0 0-.2 0 0 0 .1 0 0 0h-.2c-.2 0-.1 0 0 0l-.6.1-1.6.6.2-.2-.4.1.3-.1c-.5 0-.9.3-1.4.3l-.1.1-.2.2c-.1 0 0-.2-.3-.1l-.9.2c.2 0 .1 0 0 .1h-.3l-.3.2.2-.2-.8.2c-.3.1 0 0 0 .2l-.8.2-1 .3c-3.3 1.5-.5 1-.5 1 1.4 0 2-.4 3.6-1z"/><path xmlns="http://www.w3.org/2000/svg" d="M332 429.9zm24.3-7.4-.1-.5-.2-1a12 12 0 0 0-.7-2.2c.2.4 0-.2 0-.2-.4-1.5-1.1-3-1.4-3-.5-1-.3-.8-.3-1l-.4-.5c-.2-.3-.5-.7-1-1 .2 0 .4.2.5.3a8 8 0 0 0-2.3-1.6l.4.4c-1.2-.7-.2-.4-1.4-.9v.2l-4.2-2.2c-7-2.5-14.6-4-21.1-6l-.3-.2c0-.3-1.9-.2-2-.4l-.9-.1c-.2-.1-.6-.3-.2-.2l-1.3-.2-.7-.3-1-.3-.6-.1h-.7a2 2 0 0 0-1.3.2c0-.1-.7-1.7-.2-.8v.2h.2l-1-2.5c0 .3.1.6 0 .4l-.3-.8.1.1-.4-1.2v.2c-.2-.7-.2-1-.6-1.6-.1-.3.2.6 0 0l-1.1-3.1-.3-.5a8 8 0 0 1-.1-.4l9.2-2.3a2 2 0 0 0 1.6-1.9c0-.6-.2-1-.3-1v.7l-.3 1a1.6 1.6 0 0 1-.7.4c.6-.3 1-1 .7-1.8l-2.4-8.4c7.2 21.2 1-1.4 1-1.4-3.8-13.7-6.3-20.7-11.2-37l-9.5-33-6.9-21.4c-1.2-3.2-2.8-9-4.2-12.8l-.4-1.6-1.4-4.2-1.7-5.1h.1l-.8-2.4.2.4-3.3-10.1v.3c-2-6.8-3.1-9.2-4.9-15.3h.1c-2.8-7.5-3.6-12.2-6.5-20l.1.2v-.4l-.1-.3-1-3.2v-.2l1.3-3.7.5-1.4.1-.4.1-.2h-3.7a521.6 521.6 0 0 0-14.4.1h-16.4s-52.2 0-37.2 1h-2.6l-2.5 11.3c5.4-28.2-1.3-.2-1.3-.2-4 16.5-5.6 25.2-10.1 45l-5.1 19.5-2.6 8.6c-1.1 3-2.7 6.4-4.6 10.6-3.9 7.9-8.1 16.3-12.1 23.9-1.7 3.7-5.3 10-7.4 14.3l-1 1.6c-.7 1.5-1.6 3.3-2.5 4.7-1 2.2-2.5 4.6-3 5.7l-1.4 2.6.2-.5a370.4 370.4 0 0 1-6 11.2l.2-.2-1.4 2.6-.6 1.1-.4.7-.2.8a4 4 0 0 0 .7 2.9 3.9 3.9 0 0 0 1 1l.9.6 2.2 1.5-.4.6c-.2.5-.5 1-.9 1.4v.3h-.1s0 .3-.2.4l-.4.4-1 1.7c.2-.3.1-.1 0 0 0 .2-.2.3-.3.5h-.1l-.4.8.2-.5-1 1.5c-.2.6.2 0 .1.3-.3.4-.5 1-1 1.4h.3l-1.4 2a48.6 48.6 0 0 0-1.1 2.3 2 2 0 0 0-.7-.3 2.3 2.3 0 0 0-1-.1c-.4 0-.8.3-1 .4l-2.2 1.6a2.2 2.2 0 0 0-.5.4 36.3 36.3 0 0 0-4 3.7l-2.5 2.8-2 2.8-1 1.4-.4.7-.2.3a1.7 1.7 0 0 0-.3.5c-.2.6-.2 1.2 0 1.7a2.7 2.7 0 0 0 .5 1.2c.4.5.7.6.7.4l-.3-.8c0 .2.2.4.4.6l2.8 2.6c-7.5-5.8-.8 1-.8 1 4 4.2 6.4 6 11.5 10.6 4.3 4.1 5.3 5.4 10 9.6l3.2 3.1 1.7 1.6 1.1 1 .2.1h12.5-.2 4.3l-.1-.2c2.9.2 3.9 0 6.5.1 3.2-.3 5 .3 8.4 0h2.3c1 0 1.6-.2 1.5-.3h.4v-.5l.2-.4c0-.2 0-.1.2-.2l-.1-1a18.8 18.8 0 0 1 0-1.2v.4-2.6l-.2.5c0-1.3.3-.3.2-1.6h-.2l-.4-2.6-.6-1.2-.8-1a29.3 29.3 0 0 0-7.8-5 45.6 45.6 0 0 0-6.3-2.2l-1.1-.3h-.6l-.8-1.8-1-2v-.4c.2-.2-1-1.6-1-2l-.4-.6c-.1-.2-.3-.7 0-.3l-.7-1.1-.2-.8-1-2-.2-.4a3.3 3.3 0 0 0-1.5-1.5l.3-.2c.2-.4 0-.4.4-.8 0 0 .4-.5.3-.2.7-.9 1-2 2-3.2.1-.4.6-1 .7-1.2 0 0 .8-1.3.4-.5 0 0 0 .2-.1.1v.2c.6-.7.8-1.4 1.3-2.1l-.3.3.5-.7v.2l.6-1-.2.1.7-.9.5.3c-1-.6.4.4.3.4 3.7 2.6 7.7 5.4 8 5.2 2.7 1.9 2 1.6 2.5 2 0-.1.8.5 2.2.4a3.4 3.4 0 0 0 2-.9c.3-.2.5-.6.7-1l.5-.7-.6 1 4-6.3-1 1c2.1-3.2.8-.6 2.7-3.9h-.2l7.8-11.6 17.4-28.7 16.5-28 .5-.8c.2-.1.8-1.4 1.4-2.8.6-1.3 1.1-2.8 1.4-3l.8-2.3c.3-.6.9-2 .5-.8.8-2 .8-2.1 1.2-3.7l1-2.2.6-2 .3.7c3.2 6.6 6.2 12 9.6 18.9l3.4 7.3 2 4.3 1.8 4.7 6.5 17.3a517 517 0 0 1 7.4 20.9l3.6 10.8 1.9 5.2.5 1.3.2.7.4.8a3.8 3.8 0 0 0 3 1.9l1.2-.1.5-.2h.2l4.1-1a17.7 17.7 0 0 0 .2.4l.3.9.6 1.8.2.3.2.5v.7l.8 2c0-.3 0-.2 0 0 .2.2.2.4.3.7h-.1l.4 1-.3-.6.7 1.9c.3.7 0-.1.2.2l.7 1.8v-.2a14.7 14.7 0 0 1 .8 2.6c-.2 0-.4 0-.6.2a2 2 0 0 0-1.2 1.3l-.2.8v.6a14.1 14.1 0 0 0-.1 2.9 39 39 0 0 0 1.6 12.2l.5 1.7.2.7.3.8c.6 1.2 1.7 1.6 2.4 1.6s1-.2.7-.3c0 0-.4 0-.9-.3h.9l3.7-.5c-9 2.3.3 1.2.3 1.2 5.6-.5 8.5-1.3 15-2.4 6-.8 7.5-.8 13.5-1.8l8.8-1.4c1.3-.4 3.7-.5 5.3-1h.6l1.7-.2 2.1-.4 1-.1h-.2l4.2-.6-.1-.1c2.8-.3 3.7-.7 6.2-1v.1l.6-.1h.2l.4-.2c.5-.1 1-.4 1.3-.7.7-.7 1-1.6 1-2.5l-.1-.6zm-194.9-25.9-2.6 4-.5-.7c-.2-.2-.4-.4-.7-.4 0-.2-.3-.2-.3-.3-.3 0-.4-.4-.6-.5l-.3-.2c-.3-.2-.8-.6-1-.6-.3 0-.2-.1-.4-.2-.2 0-.4-.2-.5-.3l-.3-.2h.1c-.1.2-.1-.2-.4-.2l-.7-.1c-.2 0 .1-.1 0-.1v-.1c0-.1 0-.3-.3-.3v-.1c-.3 0-.3-.4-.5-.4-.3 0 0-.2-.4-.3v-.1c-.1-.1-.2 0-.2 0 0-.1-.1-.2 0-.2-.2-.3-.6-.2-.8-.6-.2 0-.3-.1-.4 0 0-.1-.3-.3 0-.3 0-.2-.4-.1-.5-.3v.1l-.2-.1h.1l-.2-.2c-.1 0-.1-.2-.3-.2-.1 0 0 .2-.1.1l-.5-.5h-.2v-.1c-.2 0 0-.2-.2-.3h-.1l-.4-.1c.1 0 0 .2-.1 0l-.1-.2h-.2l-.3-.3s-.2-.3-.4-.2c.1 0 0-.2 0-.2s-.3 0-.3-.2l-.8-.5s-.2-.1-.2 0c-.4 0-.4-.5-.7-.3-.2 0-.1-.2-.2-.2l-.5-.4h-.3v-.2h-.2l-.3-.2-.9-.4c0-.1.1-.1.2 0l-.2-.2h.2c-.1-.2-.5-.1-.7-.4h-.3s.1-.1 0-.2l-.5-.2h-.1v-.1h-.2c0-.1 0 0 .1 0-.2-.2 0-.2-.4-.3h-.1l-.4-.1c-.3 0-.4-.1-.5-.3-2-.6-.9.5-.9.5.6.6 1 .7 1.9 1.1.7.5.7.8 1.5 1.2l1 .7c.3 0 .5.3.8.3v.1l.2.1c.2 0 .2.2.3.2h.1a1.5 1.5 0 0 1 .5.4v-.1l.8.5c.4 0 .4.6 1 .6-.1 0 0 0 0 .1.1.1.3.2.4 0v.3h.3l.3.2v-.2l.1.3v-.1c.3.1.3.4.4.6.9.6 2 1 2.6 1.7 0 .2.4 0 .3.2h.2l.1.1.1.2c.3.2.7.3 1 .6.3.4 1.2.8 1.7 1 .8.3 1.3 1.2 2 1.5h.2l.6.5s.9.6 1.4.7l-.2.1c-.1 0-.4 1-.6 1l-.1.4c-.1.1-.3.3-.2.1l-.2.4c-.5-.1-1.1-.1-1.6 0l-2 .2c-1.8 0-4.4-.2-6.9-.9a21.6 21.6 0 0 1-11-7 16.3 16.3 0 0 1-3-5.4l-.5-.8.7-1c1.8-2.4 2.4-3.9 4.4-7l2-2.9.9-1.3.4-.6a162.2 162.2 0 0 1 4.2 3.1c7.5 4.9 11.7 8.5 19 13.4l-2.3 3.8zm121 2zm-.2 0 .2.3-.2-.2zm4.2 8.8c.5 0 .9-.3 1.6-.5.7-.2 1 0 1.7-.3l1.2-.3c.1-.2.4-.1.6-.3h.7a1.2 1.2 0 0 1 .6-.2c.3 0 .4-.3.7-.2.4-.3.7 0 1-.3h.1c.2 0 .4 0 .4-.3l.1.1.2-.1h.3l-.1-.2c.2 0 0 .2.2.1v-.1l.7.1c.9-.1 1.8-.6 2.7-.6.1.2.3-.2.4 0v-.2s.2 0 .1.1l.2-.1 1.1-.2c.5 0 1.4-.3 1.8-.5.7-.4 1.6 0 2.3-.5h.1l.7-.2s3.2-.7.5-1.1c-.4 0-.6 0-.8.2 0-.2-.3 0-.4 0-.2.2-.5 0-.7.2v-.1h-.3c-.4.1-1 .2-1.1.4l-.3.1c-.2.2-.5.1-.6.2h-.3.1c0 .2-.2 0-.4.1-.2 0-.3.5-.6.5v-.2h-.5l-.6.1c-.2.1-.2-.2-.4 0h-.4c-.3 0-.5.2-1 .1 0 .2-.2.1-.2.2 0 0-.4.1-.2 0v-.1c-.2-.1-.3.1-.5.1 0 0 .1 0 0 0l-.1.1h-.6c0 .1.2.1 0 .2h-.7v.1c-.3.1-.2-.2-.4 0v-.1.2c-.2.2-.2-.2-.4.1.1 0 .1.1 0 .1h-.2v-.1l-.1.1h-.5s-.3 0-.3.2c0 0-.2 0-.1-.2l-.4.2-1 .2c.1 0 0 0 0 .2-.3.1-.6-.1-.7.2h-.2l-.6.1s0 .2-.2.2h-.2c-.1 0-.1 0 0 0-.2 0-.3.1-.4 0l-.8.4.1-.1h-.2.2c-.3-.1-.5.2-.8.1v.1l-.1.1-.2-.1-.5.2c.1 0 .1 0 0 0h-.1l-.2.1.1-.1h-.4v.3c-.1 0-.2.1-.4 0v.1c-.2.2-.3.2-.5.1l-.2.2-.5-1.5-1.2-4-.6-1.7-.3-1 7.3-1.8 19.6-4.6.7 2.4 3.1 7.8-.3.2-.4.6-.3.5-.5.8-1.3 1.7c-1.2 1.3-3 3-5 4.4s-4.6 2.3-6.5 2.7a21.7 21.7 0 0 1-10.5 0 14 14 0 0 1-1-.3h-.1c-.6-2-1.2-3.4-2-5.4z"/><path xmlns="http://www.w3.org/2000/svg" d="m138 378.1.1-.2-.2.2zm5.2 13zm5.3 44.6h-.2.2zm144.1-150.1.1.3-.1-.3zM158.2 325l.1-.4-.1.4zm132.7 81.2z"/><g xmlns="http://www.w3.org/2000/svg" fill="#fff"><path d="M144.9 425.2v.1zm36.8 6.6v-1.1l-.2-1.3c0-.1-.2 0-.2.6a1.1 1.1 0 0 0 0 .2v-.8l-3-.1c7.8-.4-.5-.8-.5-.8-5.2-.3-7.9 0-14-.2l-6.1-.2-2.8-.1h-2.6a12.7 12.7 0 0 0-1 0c-1.3 0-2.7.3-3.6-.2l-.6-.5-.8-.7-1.4-1.4c-1-.7-2.5-2.4-3.6-3.3l-.3-.4a11 11 0 0 1-1.2-1.1l-1.4-1.4-.6-.6v.1l-2.7-2.7v.2c-1.8-1.9-2.6-2.4-4.1-4-2.3-2-3.2-3.4-5.5-5.3.3.2 0-.1 0-.1-1-1-2.1-2-2.2-1.9-.8-.7-.6-.6-.6-.8-.1.1-.7-.5-1.3-1l.3.2-1.7-1.5.3.4-.5-.6-.7-.8v.2l-.2-.2-.6.5-.4.4-.8.6-.6.5-.3.2v.2l.2.1.9 1.2c4.4 5 9.7 9.8 13.9 14.3l.1.3c0 .1 1.4 1 1.5 1.3l.5.4c.1.2.4.5.1.3l1 .7.4.6c1.8 1.9 3.5 3.3 5.5 5.2l4.8 4.4 1.3 1.2c.2.1.6.7 1.2.6h3.9c5-.3 11 .3 16.1 0h14.2l-.1-1.8zm-28-19.8zm-2.1.6c.4 0 .5-.2.8-.4.4 0 .5.2.8 0a2.3 2.3 0 0 0 .5-.2c0-.1.2 0 .3-.2v.1h.2v-.1h.4v-.2c.2.1.2 0 .4 0 .1-.3.3 0 .4-.2.1 0 .2 0 .2-.2v.1l.2-.1v-.2s0 .2.1.1l.3.1c.5 0 .8-.4 1.3-.3 0 .2 0-.2.1 0v-.1h.2l.5-.1.8-.3c.2-.3.7.1 1-.2h.3s1.5-.4.1-1.1l-.3.1c-.1-.2-.2 0-.2 0h-.5c-.2 0-.4 0-.5.2l-.1.1-.2.1h-.2c0 .2 0-.1-.1 0-.1 0-.1.5-.2.4 0 .1 0-.1 0 0l-.1-.2h-.5c0 .1-.1-.2-.2 0h-.1s-.1 0 0 0c-.2-.2-.3.1-.5 0v.2l-.2-.1v-.1c-.1-.1-.1 0-.2.1h-.4v.2h-.3l-.2-.1v.2c-.1.1-.1-.2-.2 0v.2l-.1-.1v-.1.1c-.1 0-.2.1-.2 0l-.2.1v-.2l-.2.1c-.2 0-.3.2-.4.1v.2c-.2.1-.3-.2-.3.2h-.1v-.1a.5.5 0 0 1-.3 0v.3c0-.1-.1 0-.1 0v-.1c-.1 0-.1 0 0 0-.1 0-.2.1-.2 0-.2 0-.3.2-.4.3v-.1c-.1-.2-.2.1-.3 0v.2l-.1-.2-.2.2h-.1c-.1 0 0 0 0 0h-.2v.2h-.2v.1c0 .1-.1.1-.2 0-.6 1 0 1 0 1zm5.8 5.3z"/><path d="M161 415c0 .2-.2 0-.2.1v.4c0 .1-.1-.1-.1 0v-.2h-.2l-.3.1c0 .1-.1-.2-.1 0h-.2c-.2-.1-.2.1-.4 0v.2l-.1-.1c-.1-.2 0 0-.2 0v.1h-.2c0 .1.1.1 0 .2h-.2c-.1 0-.2-.2-.2 0v-.1.4-.1h-.2v-.1.1s0 .1-.1 0c0 0-.2 0-.1.1l-.1-.1s0 .2-.2 0c-.1 0-.1.3-.3.2v.2c0 .1-.2-.1-.1.2h-.4v.2c-.1 0-.1 0 0 0h-.2l-.3.3v-.1h-.3v.1a.2.2 0 0 1 0 .1s0-.1 0 0c-.1-.1-.2 0-.2 0v.1h-.2v.2s0 .1-.1 0v.2h-.2c-.3 1 .3 1 .3 1 .3 0 .3-.3.6-.5l.7-.1.4-.2.2-.2h.2l.2-.2c.1 0 .1-.2.3-.1 0-.3.3 0 .3-.2.1 0 .2 0 .1-.2h.1l.1-.1v-.1s0 .1 0 0l.4.1c.3 0 .5-.5 1-.4 0 .2 0-.1 0 0v-.1h.1l.4-.2c.3 0 .5-.2.7-.3.1-.3.6 0 .8-.3l.2-.1s1.2-.5 0-1v-.1c-.3 0-.3 0-.4.2 0-.2 0 0-.1 0h-.4c-.1 0-.3.1-.3.3 0 .1-.1 0-.2 0l-.1.2h-.2zm-31.5-19.7zm-1-2.2c.3.6.2.8.6 1.4l.4.8c.2.1.2.4.3.5v.3l.2.2a.8.8 0 0 1 .1.5h.1c0 .3.2.4.1.7.3.3 0 .5.2.9 0 .1 0 .3.2.3v.6l.2-.1c0 .1-.2 0-.1.2h.1c0 .2-.2.3-.3.5 0 .8.2 1.7 0 2.4h-.2c-.1 0 .2.2 0 .2l.1.1s0 .1 0 0v.2h-.1l-.1 1c-.2.4-.2 1.2-.3 1.6 0 .7-.6 1.2-.6 1.9l-.2.6-.3 1.1c0 .4.1.8 1 0 .3-.3.3-.5.3-.8.2 0 0-.3.2-.3l.2-.6.1-.2c.1-.4.3-.8.2-1v-.8h.1v-.3.1c-.1 0 .2-.2.1-.4 0-.2-.3-.4-.2-.6 0-.1.2.1.1 0h.1c0-.1.2-.2.1-.4h.1c0-.2.2-.3 0-.5 0-.2.3-.1.2-.3v-.1c.1-.1 0-.1 0-.2.1 0 .1-.2.2 0v-1.3h.1c.2-.2 0-.3 0-.5 0 0 0 .1 0 0v-.5s0 .1-.1 0l.1-.6v-.1c0-.3.2-.1 0-.4-.2-.2.1-.1-.1-.3h-.1v-.2h.2l-.2-.2c.1-.1 0-.3 0-.4v-.3l.1-.1c-.1 0-.2-.3-.1-.4 0-.3-.3-.5-.2-.8-.1 0-.1-.1-.2 0-.2-.3 0-.7-.3-.6v-.3l-.2-.4c0-.1-.2 0-.2-.2v-.2c0-.1 0-.1 0 0 0-.1-.2-.3 0-.3l-.6-.7h.2l-.1-.1.1.1c0-.2-.3-.3-.3-.6h-.2v-.3l-.2-.3-.1-.1-.2-.2h.2l-.2-.2h-.2s-.2-.1-.2-.3v.1c-.2-.1-.3-.2-.3-.4-.8-.4-1-.3-1-.1-.1.1 0 .4 0 .4.2.7.6.8 1 1.4zm3.5 6zm223 23.1-.2-1.2v-.1l-4.2.7-2 .3a.6.6 0 0 1-.3 0c-2.2.6-4.9.5-7 1l-5.8.9-3.3.5h-.9l-.3.1c-.1 0-.8.3-.9.2-2.8.1-5.9.9-8.8 1.2h-1.9v.1h-.6.2l-1 .2h.2c-.4 0-.8.1-.7.2h-.5l-1.2.3s-.2 0 0 0c-1.3.4-2.1 0-3.4.5-1 0-1.3.2-2.5.3l-1.6.4h-.3l-.9.1-.7.1h-.2c-.6.2-1.6.2-2.1.4l-3.6.5-5.4.7c-2.6.4-3.8.8-6 1h-.9l.3 1.9.2 1a2.2 2.2 0 0 0 .4.8 2.5 2.5 0 0 0 .8.6h1l3.7-.5 3.1-.7a26 26 0 0 0 4.4-.6h-.4c1.2-.1 2.2-.4 3.2-.6.5-.2-.8 0 .3-.3l3.3-.5c-.2.1-1.3.3-1 .4.2-.1 1.8-.4 1.6-.5l.1.2c.4-.1.7 0 1.3-.2.3 0 .4-.1-.2 0l3.6-.7c1-.1.8 0 1 .1.4 0 .9-.2.9-.3h-.5.6l.4-.1c2.3-.1 4.2-.8 6.1-.9l-1.4.3 1.6-.3c-.6.2-1.1.3-.9.4l6.8-1.3c.1.2 1.7-.2 2.7-.2h-.2c-.4 0-.6 0 .3-.2h1.3c1.5-.1 1.5-.4 2.3-.6l4.4-.6h-.3 2c.8-.7 3-.5 5.4-1-.3-.2 1-.3.8-.4 2.5-.2 4.3-.8 7-1h-.1.5a.7.7 0 0 0 .4-.2c.2-.2.2-.5.2-.7 0 .1 0 0 .1 0 0-.1 0-.4.2-.2l-.4-1.5zm-35-16.3zm-2.2 7.8c.1-.2.2-.3.1-.4.2 0 .1-.2.2-.2-.1-.1.2-.1.1-.3 0 0 0-.1.2 0 0-.3.2-.5 0-.7 0 0 .1 0 0-.1h.1v-.3h.1v-.1c-.1 0 .2 0 .1-.2.1 0-.2-.3-.1-.4 0 0 .1.1 0 0h.4c0-.2.3-.2.2-.4 0-.1.2 0 .1-.1h.1v-.1h.1c.2-.1 0-.3.2-.4v-.2s0-.2.1 0c.2 0 0-.2.1-.3l.1-.1s.2 0 0-.2a2.1 2.1 0 0 0 .3-.3h-.1c0-.2.2 0 .2-.2h-.1c-.1-.2.2 0 0-.2 0 0-.1 0 0-.1h.2l-.1-.1.1-.2s.1-.1 0-.2h.2v-.1c.2-.2 0-.4.2-.5-.1-.3.3-.2 0-.4h.1a.6.6 0 0 1 .1-.3c0-.1-.1-.2 0-.2v-.1s0-.2.1-.1v-.5h.1c.1 0 0 0 0 0 .3 0 0-.2.2-.3v-.1h.1v-.3h.1v-.1l.1-.1-.1-.1v-.5c-.2-1.1-.7-.5-.7-.5-.3.2-.2.5-.3 1-.2.2-.4.3-.5.7l-.2.5c0 .1-.1.2 0 .4h-.1c0 .1-.1.2 0 .2h-.1l-.1.3-.1.4c0 .3-.3.2-.2.5v.3h-.1v.2h.1l-.2.1h.1c0 .2-.2.2-.3.2-.3.4-.2 1-.6 1.3-.2 0 0 .2 0 .2h-.1v.1h-.1c-.1.2 0 .4-.2.6-.2.1-.3.6-.3.8 0 .4-.6.6-.5 1l-.1.4s-.7 1.4.8.7zm2.5-5zm6.4-1zm-1.6 7.4c.2 0 .2-.2.1-.3.2 0 .1-.2.2-.2-.1-.1.2-.1 0-.3h.1s0-.1.1 0c0-.3.2-.5.1-.6v-.5h.1c-.1-.1.2-.1.1-.2 0-.1-.3-.4-.1-.4-.1 0 0 0 0 0h.2v-.1h.1c0-.2.2-.2 0-.3 0-.1.3 0 .2-.2h.1s0-.1.1 0c.2-.2 0-.4.2-.5-.1 0 0-.1 0-.2 0 0 0-.1 0 0 .3 0 0-.1.1-.2l.1-.1c0-.1.2 0 0-.2l.2-.3c0-.2.2 0 .1-.2-.2-.2 0 0 0-.2h-.2v-.1h.2c0-.1 0-.3.1-.2 0 0 .1-.2 0-.2h.2v-.2c.2-.1 0-.3.2-.4l-.2-.1c0-.2.3-.2 0-.4h.2a.8.8 0 0 1 0-.3s-.1-.1 0-.2c0-.1 0-.1 0 0l.1-.2v-.5l.1.1c.1 0 0 0 0 0 .2 0 0-.2.2-.3l-.1-.1h.1v-.3h.1v-.2.1-.4h-.1l.1-.3c-.3-1-.8-.5-.8-.5-.3.3-.1.5-.2 1-.2.2-.4.3-.5.7l-.1.5v.3h-.1v.3a.3.3 0 0 1-.1.3l-.1.3c.1.3-.3.3-.2.5l.1.3h-.1v.3h.1-.1c0 .2-.2.2-.3.2-.2.4-.1 1-.4 1.3h-.1c-.2 0 .1.2 0 .1v.1l-.1.1c-.2.2 0 .4-.2.5-.2.2-.2.6-.2.9 0 .4-.6.6-.5 1l-.1.3s-.6 1.5.9.8zm2.2-4.8zm-36.8 9.3zm0 0h.5v.1h.5l.5.2v-.1c.2.1.4 0 .6.2.4 0 .5.3.9.3-.1 0 0 0 0 0h.3c.1 0 0 0 0 .1h.5v.1h.1c.2 0 .2.3.3.4.6.4 1.5.7 1.9 1.3v.1c-.1.1.2 0 .2.1 0 0 .1.1 0 .1h.2v.2l.7.5c.1.4.7.8 1 1.1.6.4.5 1.2 1 1.6l.3.5.6 1c.2.2.6.4.6-.8 0-.4-.1-.5-.3-.7l-.1-.3c-.2-.1-.1-.4-.3-.5 0 0-.2-.2 0-.3-.3-.3-.5-.7-.8-.7l-.2-.2-.3-.4-.1-.2c-.1.2 0-.2-.2-.2-.1-.2-.5 0-.6-.2-.1 0 .1 0 0-.1l.1-.1s0-.2-.2-.3c-.2-.1-.1-.4-.3-.4-.2-.1 0-.3-.2-.3v-.2c-.1 0-.2.1-.2 0 0 0-.1-.1 0-.1-.1-.3-.5-.2-.6-.6h-.3s-.2-.2 0-.2c0-.2-.3-.2-.4-.3 0 0 .1.1 0 .1h-.1v-.1l-.1-.2v.1c-.1 0-.1-.2-.3-.2 0 0 0 .1 0 0-.2 0-.4-.2-.5-.3h-.2c-.2 0 0-.3-.2-.3v.1c-.3 0 0-.2-.4 0 .1 0 0 0 0 0h-.1v-.2h-.2c0-.1-.3 0-.3-.2h-.3v-.2l-.4-.1c-.2-.2-.5 0-.7-.2l-.1.1c-.3 0-.5-.4-.6 0-.2 0-.2-.2-.2-.2h-.8c.1 0 0 0 0 0v-.1h-1.1v-.1h-.1c0-.1.1 0 .2 0-.2-.3-.5 0-.7-.2l-.2.1v-.1h-.5c.1 0 0 0 0 0h-.3.1l-.3-.1c-.1 0 0 0 0 .2h-.9c-.8.3-.8.5-.7.7l.4.2c.6.2.9 0 1.6 0l1.4.4.9.1zm4.3-.2zm-143-53.2.1.1zm3.3 3.8zm29.3 18.8c-.6-.5-1-.8-1.6-1 0-.2-.5-.4-.6-.6-.5-.1-.7-.6-1.2-.8h.1c-.3-.2-.7-.4-.6-.5-.7-.4-1.6-1.1-2.2-1.3-.2 0-.2-.2-.5-.3l-1-.7-.6-.4.2.1c-.2.1-.3-.3-.8-.5-.4-.3-1-.2-1.3-.6-.2 0 .3 0 0 0 0-.2.1 0 0-.2l-.7-.5c-.4-.3-.7-.7-1-.8-.5-.3-.2-.4-.7-.6l-.2-.2-.4-.2s-.2-.2 0-.2l-1.7-1.1-.6-.3s-.6-.5-.2-.3h.2c-.3-.4-.7-.4-1-.7 0 .1.2.2 0 .2l-.3-.2h.1l-.5-.4c-.2-.1-.2-.3-.5-.4-.2 0 .1.3-.1.1l-1.2-1c0 .1-.1 0-.2 0v-.1c-.5-.2 0-.3-.6-.5h.1-.2c-.5-.1-.1-.3-.7-.4.2.1 0 .2-.2 0h.1l-.2-.1-.1-.2h.1l-.4-.1-.7-.6-.7-.4c.2 0-.1-.2 0-.3-.2 0-.7-.2-.8-.4-.5-.5-1-.7-1.6-1.1 0 0-.3-.2-.3 0-.6-.4-.9-1-1.3-.8l-.4-.4-1-.7-.6-.2c.2 0 0 0 0-.2h-.1l-.1-.1c-.2-.2-.2-.1-.1 0l-.6-.5-1.6-1 .2.1-.3-.2s.2 0 .3.2c-.3-.4-1-.5-1.4-1h-.1l-.3-.1c0-.1.1-.1-.1-.3l-.9-.5c.1.1 0 .1 0 .1l-.3-.2v-.1l-.4-.2h.3l-.7-.4c-.3-.2 0 0-.2 0-.3 0-.5-.2-.8-.4v.1l-1-.7c-3.6-1.8-1.2.3-1.2.3 1.2 1 2 1.3 3.6 2.3 1.4 1 1.7 1.4 3.1 2.3l2.1 1.4c.4.1.9.6 1.3.8l.1.1a1.2 1.2 0 0 1 .4.3l.5.3.2.2c.4.1.7.4 1 .6v-.1l1.5 1c.8.4 1 1 2 1.4-.2 0 0 0 0 0 .3.3.7.5.8.4l.1.2.5.2.5.4v-.2c.3.2 0 .2.3.4v-.1l1 1 5 3.4v.2l.6.2.2.1s.1.2 0 .1l.4.2.1.2 2 1.3c.7.7 2.4 1.7 3.4 2.2 1.4.8 2.6 2.2 4 3h.2l1.2.9s5.8 4 2 .1zm24.4-158.4.2-.4-.2.4zM173.6 333v-.1zm30.3-87zm30-34.5h-.1zm-2.5 2.8zm3-8-.4.7c-.4 1-.4 1.7-.7 3l-1.2 2.6-.7 1.7c0 .3-.4.7-.4 1l-.2.1-.1.3-.2.4-.1.2-.5.7h.1c-.4.5-.4.7-.8 1-.2.7-.7.8-1 1.4-.3.2-.5.5-.4.6-.1.1-.1.1-.2 0 0 .1 0 .3-.2.4l-.3.3h.2c-.3.2-.2 0-.4.1l.1.1c-.3.3-.6.3-.9.4l-.9.7-1 .6-2 1v-.1c-.1-.1-.3.3-.4.2l-.2.1s-.1 0 0 0l-.3.1h-.2l-1.6.7c-.7 0-2 .6-2.8 1-1 .4-2.5.2-3.6.6l-.1.1-1.1.1-2 .3h-.2l.3-1.4c-.1.5-.1.3 0 0l.3-1.1.3-1.6c.2-.3-.1.8 0 1l.6-3.2c.2-1-.1.2 0-.3l.6-3-.1.3 1-4.2c2.6-13.8-.2-3.1-.2-3.1-1.5 5.3-2 8.2-3.4 14.6l-2.9 11.2 1.1.2c.1-.2.1-.1 0 0h.1l.2-.7-.1.8 1.2-5.2v-.5l.2-.9.4-1 .3-1.3 1.2.3c.5 0 1 0 1.3-.2.1.2.5 0 .7 0 .3-.2.7 0 1-.2h.6l1.8-.5c.2-.2.2-.1.5-.2.2-.2.7-.2.9-.3h.5-.2c0-.2.4 0 .7-.3.3 0 .5-.5.8-.6.2-.1 0 .2.2 0 0 .2-.1.2 0 .2.2-.1.4 0 .6-.2.4-.2.8 0 1-.3.3-.2.3.1.6-.2h.2c.2 0 .1-.1.3-.2 0 .1.3 0 .2 0 .4 0 .8-.4 1.4-.5 0-.2.4-.2.4-.4 0 0 .5-.3.3 0v.2c.3-.1.4-.4.7-.6 0 0-.2.1-.1 0l.3-.1.4-.1h-.1c.2-.1.3 0 .5-.3 0-.1-.3 0 0-.1a10.3 10.3 0 0 0 1-.6c-.1 0 0-.1 0-.2.3-.3.3 0 .6-.3v-.1c.1-.4.2 0 .4-.5-.1.1-.2 0 0-.2v.1l.1-.1h.2v-.3c.3 0 .5-.4.6-.4 0 0 .4-.4.4-.6 0 .2.2 0 .2 0l.3-.5.9-1.2v-.3c.2-.5.7-.7.5-1 0-.2.2-.2.3-.3l.4-.8.1-.5c0 .1 0 0 .1 0l.1-.1v-.1c0-.2 0-.2 0 0 .1-.2.2-.6.3-.5l.4-1.4v.2l.2-.3-.1.3c.3-.4.2-.8.5-1.2v-.3l.2-.2.2-.7h-.1l.1-.3h.1v-.3.2l.2-.6c0-.3 0 0-.1-.2 0-.2 0-.4.2-.6h-.1c0-.4 0-.6.2-.9.1-1.5-.1-1.7-.3-1.6zm-6.5 15.2v.1zm26.4 75.8-.1-.3v.3zm2.6 9.5zm6.1-78 .1-.2-.1.2zm-4.1 8.1zm7.1-17.3c2-7.6-.3-1.9-.3-1.9-1.2 2.8-1.5 4.4-2.6 7.8l-2.7 6.9-1.5 4.5c-.1.8-.7 2-.9 2.8l-.2.3-.3.9c0 .4-.3.9-.3 1l-.2.6v-.1a21.8 21.8 0 0 1-.7 2.1c-.5 1.4-.5 2-1.1 3.2-.4 1.7-1 2.5-1.5 4.2 0-.2 0 .1 0 0l-.5 1.7c-.2.6-.2.5-.3.5.1 0 0 .6-.2 1v-.2l-.4 1.3.3-.2c-.3.6-.3 0-.5.7h.1c-.3 1-.7 1.5-1 2.3-1.4 3.7-2.6 7.8-4 11.1l-.1.2-.3 1-.1.5s-.2.3-.2.1l-.1.7-.3.3c-.5 1.5-.8 2.8-1.4 4.3-.8 1.8-2 5.3-2.5 7.4-.9 2.8-2.5 6-3.3 8.9l-.1.4-1 2.6s-4.6 12.8-.1 3.4a19 19 0 0 0 1.1-3.3c.2-.1.4-1.2.6-1.5.2-.9.8-1.7 1-2.6v.2l.5-1.5c.5-1.5 1.3-3.5 1.5-4.5 0-.5.2-.6.4-1.3l.7-2.2h.1l.4-1.2-.2.4c0-.2.5-.8.6-1.7.3-.8.2-1.8.6-2.6 0-.4 0 .4.2-.2v.2l.7-1.7c.3-1 .8-1.7.9-2.3.3-1 .4-.6.6-1.7l.3-.3.2-.8s.2-.6.2-.3c.4-1 .6-2.2 1.3-3.6l.3-1.3s.5-1.4.3-.5v.3c.4-.8.4-1.5.7-2.3 0 .2-.2.5-.2.3l.3-.7v.1l.4-1h-.1c.2-.5.4-.6.5-1.3 0-.3-.3.5 0 0l1-2.7v-.5h.2c.2-1 .2-.3.5-1.3v-.2c.1-1 .3-.4.4-1.4 0 .4-.2 0 0-.4v.2l.2-.6c0 .2 0 .1.2-.2v.3l.1-.8c.3-.6.5-1.5.7-1.7l.5-1.5c0 .3.2-.4.2-.1 0-.4.3-1.3.6-1.7l1.2-3.5c-.1 0 .2-.6 0-.5.4-1.3 1-2.2.9-2.8l.4-1v.2l.8-2.2.2-1.2c0 .2.1 0 .2-.3 0 .1 0 .2.1-.1v-.2c.2-.5.2-.4 0-.2.3-.4.5-1.3.6-1.3.5-1.3.7-2.3 1-3.5.2 0 .1.2 0 .5l.3-.8-.2.8 1-3.1v-.3h.1v-.5c.2-.1.2 0 .4-.5l.6-1.8c-.1.3-.1.2-.1 0l.3-.6.2-.9v.6l.5-1.7c.2-.6 0 0 0-.2l.5-1.7-.2.2c.4-1 .6-1.6 1-2.2zm-12.5 37zm-57 25.5v.2zm5-26v.2-.1l-1 4v-.1l-1.4 6-.7 3 1.2.6c0-.7.4-2.2.6-2.8v.2l1.6-6.7s.3-1.1 0-.8l.8-3-1-.6zm-8.1 36.9v-.1l-1-.8v.3l-2 5-2.1 5-.7 1.2 1 .6 1-2.2.9-2.2s1.1-2.5.6-1l-.1.2v.2c.7-1.3 1-2.6 1.6-4l-.3.6.5-1.3v.3l.7-2-.1.2zm-8.5 16-.3.7c-.1.2-.3.6-.2.2l-.5 1.2-.4.6-2.5 5 .8.6 2-3.7c.7-1.7.7-1 1.4-2.8l.5-.7c.3-.7.1-.5.6-1.3l-1-.8-.4 1zm11.6-31.8-.3 1-.3 1.7v-.4l-.6 2.3.3-.4c-.3 1.2-.3.3-.5 1.5h.1l-1.2 3.8 1 .6.6-2 .1-.7h.1c.4-1.9.3-.7.7-2.5v-.4c.3-1.6.4-.8.6-2.6-.1.7-.2.2 0-.6v.2l.3-1c0 .3 0 .2.2-.5v.5l.2-1.4.1-.5-1-.5c-.3 1-.5 1.8-.4 1.9zM204 246l-1.1 5 1 .4.7-2.7c.2-.8 0-1 .4-2.3 0 .5.1 0 .2-.6 0 .3 0 .5.2-.2v-.4c.2-.8.2-.7 0-.3v.1l.7-2.5.2-1-1.2-.2-1.1 4.7zm-43.6 111.4 3-5.6.5-.6-.9-.7-.7 1.2-4.7 8.8c-1.8 3.3-2.2 4.8 2.8-3.2zm7-12.5-.2.4 1.4-2.5 3.1-6-.8-.5-5.4 9.6 1 .7.8-1.7zm8.3-15.8 1.1-2-.4.7c0-.3 1-1.4 1.6-2.9l1-2.1-.7-.7-4.8 9.4.7.5 1.5-2.9zm103.6 36.2-1.8-5v.1l-.5-1.4-.4-1.3-.9.3.2.7c1 2.3 1.6 5.1 2.4 7.7l1.1-.5-.1-.6zm-10-30.1-.3-.8v.1l-.3-1.2v.2c-.2-.6-.1-.9-.5-1.5-.1-.3.1.6-.1 0l-1-3-1 .4.3 1.2 2.6 7.1.9-.5c-.1-.4-.2-.8 0-.2 0 0 .1.2 0 .2h.2c-.2-1-.6-1.6-1-2.4.1.2.3.6.1.4zM258 306.5l-.2-.4c.1.2.2.2 0-.2a1.2 1.2 0 0 1 0-.1c-.3-.5-.3-.4-.2-.2-.1-.5-.6-1.3-.5-1.4l-1.7-3.7.4.5-.4-.9.4.8-1.2-3-1.1.6 1.4 3.5 2 4.8.7 1.6 1-.6c-.2-.5-.4-.5-.7-1.3zm16 44.4c.1 0 .2.3.2.1l-.6-1.8v-.1c-.4-1-.5-2-.8-2.6-.4-1 0-.8-.6-1.8v-.5c-.1-.5-.2-.3-.4-.8.1 0-.1-.7 0-.4l-.1-.4-1.2.5.5 1 .2.5v.2c0 .4 0 .4.2.7l.1.5 1.6 4.6 1 3.1.9-.4c-.3-.7-.8-1.4-1-2.1-.2-.4.3.3 0-.3zm8.1 24v.1c-.4-1.6-.7-2.6-1.2-3.7.1-.1 0-.6-.2-1l-1 .3.4 1.3s4.5 14.2 2 3zm-30.4-83.5-.7-1.7v.2l-1-2.4c-3.9-7.6-1.5-1.3-1.5-1.3 1 2.9 1.8 4.4 3.1 7.4l1-.4-.2-.4.2.3-.7-1.6c-.3-.6 0 .2-.2-.1zm12.6 30.4-.7-1.6c.2.3 0-.5.1-.3a5 5 0 0 1-.7-1.7l-1.5-3.8s-.3-.6-.3-.4l-1-2.4-1 .6.2.5h-.1a22.5 22.5 0 0 1 1 2.3v-.1l1.3 3.5c1 1.6 1 2.8 1.8 4.5v.1l.5 1.1 1-.4c-.1-.7-.6-1.6-.6-1.9z"/></g><path xmlns="http://www.w3.org/2000/svg" d="m2711.8 107 .5-.1-.5.1zm19.8-3.3h-.2.2z"/><g xmlns="http://www.w3.org/2000/svg" fill="#fff"><path d="m323.8 121-5.5-1.8-.2.1 2.6-5.2s3.8-1.5 5.7-4.4.7-3.7.7-3.7-6.6 2-8.3 3.4c-1.7 1.3-4.7 3.2-5 5.2s-.4 4-1.8 6.4-16.5 16.2-16.5 16.2l11.3 14.4 14.3-19.5.8-.6 5.9-4.5c1.4-1 9.7-14.5 10.8-16.4L323.8 121z"/><path d="M336.4 105.7c-.9-.7-3.4-1.8-4.3-.3-.6 1.1.4 3 2 4.2l-1.1-.4c-1.2-.4-4.2-1-4.9.7-.6 1 .7 2.6 2.6 3.5l-.9-.2c-1.1-.3-3.8-.5-4.1 1.3-.3 1.5 1.9 3.1 4.3 3.4 2.4.4 4.3.1 4.7-1.9.2-.7-.4-1.3-1.1-1.7 1.9.4 3.3.2 4-1.4.4-.7-.1-1.4-.9-2 1.1.3 2-.1 2.7-1.3 1.1-1.7-2.1-3.2-3-3.9z"/><path d="M327.5 117.5c-1-.2-3.4-.4-3.7 1.2-.2 1.3 1.7 2.8 3.9 3.2 2.2.3 3.2-.2 3.6-2s-2.8-2-3.8-2.4zm-134 91.8s-.9 11 21 11c24.7 0 46.8-11 46.8-11h-67.8zM164 167.9c-3.9 6.5-3.6 7-3.3 21.1.4 14.2 3 43.3 3 43.3s-1.3 6.2 1.1 13.5 3.3 7.8 3.9 8.8c.5 1 1.7-.3 1.7-.3s.6 2.3 2 2.3c1.3 0 1.4-1.5 1.4-1.5s.9 1.6 2 .6c1-1 .6-2.9.8-5.6l.9-8.2c0-1 1 2.1 1.7 3.7s2.7 2.2 2.2-.8c-.6-3-.6-5.7-.8-6.5s-1-2.8-1.7-4.2l-.6-1.4s-.6-1-.1-4.2 7.2-34.8 8.5-39.5c1.5-5.9-19.3-26.6-22.7-21z"/></g><path xmlns="http://www.w3.org/2000/svg" d="M304.3 167.2v.2zm10.9-14.6-.3-.9a4 4 0 0 0-.5-.6l-1.5-1.6.2.1-6.6-6.6c0 .2-1-1-1-.7-2.3-2.2-3.9-4.6-5-5-1.1-1-1.2-1.3-1.8-1.9l.3.2-2.2-2.2c-.3-.2-.4-.5-1-.9-.3-.1-.7-.2-1-.1l-1 .6-.5.5-.3.4-1.4 1.2c.4-.4-.2 0-.7.5.3-.3.4-.4-.4 0a3 3 0 0 1-.3.4c-1 .7-.8.6-.3.3h.1c-1 .6-2.6 2-2.8 2l-7 5.2c-.3.1.2-.3.9-.8l-1.7 1.1 1.5-1c-1.1.5-2 1.3-3.2 1.7-1 .5-2.3.8-3.6.5h-.7l-1-.1c-.2-.3.2-.2-1-.8a23 23 0 0 1-3.7-2.4c.5.5.3.4 0 .2-.5-.4-.7-.8-1.1-1v-.2c.1.3-1.4-1.2-1.6-1.3-.2-.4.8.7 1 .7l-1.5-1.5-1.4-1.5c-1.1-1 0 .3-.5-.1l-2.8-3.1.2.5-1.6-1.8v-.4a70.2 70.2 0 0 0-10.1-19.2 37.6 37.6 0 0 0-7.7-7.6 26.7 26.7 0 0 0-4.2-2.6l-1.7-.9c-2-1-4.2-1.7-6.4-2a32 32 0 0 0-15.4 1.6 49.7 49.7 0 0 0-11.7 5.5 63 63 0 0 0-10.4 7.9l-6 5.9-3 3-2.7 3c-1.6 2-4.7 5.4-6.4 8l-.8.8-2 2.7c-.7 1.3-1.8 2.7-2.2 3.4v-.1l-1 1.6.1-.3-2 3.6-1.9 3.4.2-.1-1.5 3-1.1 2.6-1 2.5-1 3v-.1l-1.1 4-.5 1.8-.5 1.7a50 50 0 0 0-1.3 7.9c0-.8-.1.3-.2.2-.3 2.9-.5 5.9-.3 6l-.3 2v3.3-.7l-.2 4.6.2-.9c-.1 2.5-.3.6-.3 3h.2c0 3.4-.4 5.4-.5 8.7l.2 5.1.2 2.7.1 2.1c.7.2 1.5.1 2.2.1h5l.5 6.4.6 6.6v.7l.2 2.2.3 2.6v1.2-.2 1.2l-.2 1.4a39.7 39.7 0 0 0 0 2.6v-.1c0 1.7.2 3 .3 4l.8 3.9 1.7 4.8c.5 1.5 1 3 2.4 4.8-.3-.4 0 .2 0 .2l.3.3c.1.3.4.5.7.6s.6 0 .9-.1l.3-.2c.2.4.4.6.5.6l.8.9.2.2h.9c.2 0 .5 0 .8-.2a1.4 1.4 0 0 0 .4-.3l.1-.2v-.1.2-.1a1.3 1.3 0 0 0 .1-.3 1 1 0 0 0 .2.2.7.7 0 0 0 .2.1l.4.2.9-.1h-.9c.6 0 .9-.2 1-.2l.3-.2s.3 0 .7-1h-.2c.4-1.1.4-2 .5-3 0-.8 0-1.6.3-2.7l.3-3 .2-2v-.4h.2v.2l.2.4.3.9c.2.4.4 1 .8 1.3l.7.6c.3.1.7.2 1 .1.3 0 .6-.3.8-.7l.1-.4v-1.9c-.4-1.7-.6-3.4-.7-5.1v-.7l-.2-.7-.4-1.2-1-2.4v-.3l-.8-1.5-.2-.5a1.1 1.1 0 0 1 0-.3 6.5 6.5 0 0 1-.1-.9v-.3l.2-1.5.2-1 2-10 1.1-5.1h.1l5.5.2h.6l.1-.3.2-1.2v-1.5c.1-.9.1-1.8.3-2v-1.5c.2-.4.3-1.2.3-.5l.2-2.4.4-1.4.6-3.3-.3 2.7c-.5 5-.7 7.9.2 4.1l-.2 1.7-.2 1v.2l-.1.5h2.9v.2l-2.9.2h-.3v-.4a.4.4 0 0 1 0-.2 1.3 1.3 0 0 1 0-.1v-.4l.1-.9v-.5c-.1-.3-.2-.4-.3-.3v.6h-.1c-.1 0 0 0 0 0v.4l-.1.2-.1.4-.1.2-.1.3v.3l-.1 1 1.1.2h2.8l.1 1.1.5 1.4c.2.7.5 1.2.8 1.7l1.1 1.4 1.2 1 1.3 1c1.8 1 3.8 1.7 6.6 2.4l3.1.7 2.5.3c.8.2 1.6.2 2.5.2 1 0 2 .2 3.3 0a120.9 120.9 0 0 0 3.8 0l3.7-.4c1-.3 3.1-.4 4.4-.7h.5l1.5-.2 1.7-.4h.8c1-.3 2.3-.6 3.4-.7l-.1-.2c2.3-.3 3-.8 5.1-1.1 2.5-1 4.1-.8 6.7-2-.3.2.1 0 .1 0 1.2-.3 2.5-.8 2.4-1 .9-.4.7-.2 1-.2l1.3-.7-.3.2 1.9-.7-.5-.1c1-.3.4.2 1.3-.3v-.1c1.4-.5 2.3-.6 3.7-1l3.1-1.4h7.1a36.1 36.1 0 0 1 2.3-.2h4.2v-.4l-.2-.6-.2-1.3-.3-1.6a56 56 0 0 0-.5-2.5l-.1-1.2c-.3-1-.6-2.3-.7-3.3l-.8-4-.3-2 .1.4a148 148 0 0 1-1-4.7h.4c1.2-.1.8-.3 2-.5h.7c.3-.1.6-.2.2 0 2.9-.6 5.4-2 8.7-3.6l1.4-1 1.3-.8c.1 0 3-2 1.5-.7l-.4.2-.2.3c1.9-1 3.1-2.2 4.8-3.4l-.8.5a24.5 24.5 0 0 0 1.6-1.2l-.3.4 2.3-1.8-.4.2c1.1-.9 1.7-1 2.7-2.2.5-.6-1 .7 0-.3 1.4-1.1 3.5-3 5.2-4.7-.3 0 .2-.4.6-.9h.1c1.6-2 .8-.5 2.4-2.4l.2-.5c1.2-1.9 1-.7 2.3-2.9-.6.8-.5.2.3-.7l-.1.3.8-1c-.2.3 0 .2.6-.6l-.3.6 1-1.6c1-1 2.2-3 2.7-3.3 0 0 1.9-2.5 2.1-3.1-.1.2 0 0 .3-.1l.1-.2.2-.2c.1 0 .2-.1 0 .1.2-.4.5-.9.5-1.5zM180.6 216c-.1 1 0-.9-.2.6-.1 0 0-.7 0-.4l-1 4c-.4 2.3-1 4.2-1.2 5.7l-.4 2c-.1.4-.3.7-.3 2l-.1 1v1l.2.3.2.8c-.1-.1.5 1.3.2.7l.8 1.8.8 1.9a12.8 12.8 0 0 1 .4 1l.1 1 .2 2.4c.2.8.3 2.5.6 3v1.4c0 .2-.2.2-.2.2v-.2l.1-.3v-.2l-.1.4v.1h-.2s-.2 0-.3-.2a1.6 1.6 0 0 1-.3-.3l-.2-.5-.6-1.7.3 1.1c.1.2.1.3 0 0l-.4-1.1-.6-1.4.3.5-.5-1-.4-.3c0-.1-.2-.2-.4-.1l-.3.2h.2a2.3 2.3 0 0 1-.3.2l-.2.6-.2 1.6-.1 1v.6c0 .6.2-1.3 0 .1l-.4 3.1-.2 1.8-.1 1.7v1.1c0 1.2-.1 1.3-.2 1.5l-.2.2a1.2 1.2 0 0 1-.4.5v.1h-.2l-.2-.2-.2-.2h-.2l-1.3-10a.5.5 0 0 0-.5-.5c-.3 0-.5.3-.5.5l1.4 10.1-.2.1c0 .3-.3.6-.3.6s-.1.2-.3.2h.3l-.2.1h-.5a.6.6 0 0 0 .2 0c-.4 0-.5-.2-.7-.4l-.3-.6.4.4-.8-1.3-.1-.3-1.6-8.2c0-.3-.3-.5-.6-.4a.5.5 0 0 0-.4.5l1.6 8.3-.4.3-.3-.1c-.5-.8-1-1.4-1-1.7l-.6-1.4-.9-1.8c.3.5-.2-1 0-.6a32 32 0 0 1-1.3-3.7v.2a37 37 0 0 1-1.3-8.3s0-1.4-.1-1a16.4 16.4 0 0 1 .1-2.2 12.1 12.1 0 0 1 .2-1v-1c0-1.2-.2-2.1-.4-2.7v-2.4.4l-.5-5.4c-.1-1-.3-1-.4-2.8.1.5 0-.2 0-.8v-.4a4 4 0 0 1 0-.5c-.1-1-.1-.9 0-.4l-.1.2c0-1.1-.3-3.2-.2-3.3v-1.2h4.2l10.3.2 4 .1a21 21 0 0 1-.5 3.2zm8.8-8.6zm3.6 1.8h1.3l-1.3.2v-.2zm61.8 1.8h-.2c-1.3.7-.6-.1-2 .6l.1-.1-.3.4c-1.2.7-.8 0-2.2.8.6-.2.4.2-.3.4l.1-.2c-.4.2-.5.3-.8.3.2-.1 0-.2-.5 0l.3-.2-1 .6c-.9.1-2.2.7-2.6.7 0 0-2 .5-2.3.8.4-.2-.7 0-.4-.2a8 8 0 0 1-2.5.8v-.1l-2.8.7c-.9.3-1.7.5-2.7.6.1.2-1 .3-.6.4-2 .7-3.8.4-4.4 1-1 .2-1.1 0-1.6.1h.2l-3.5.5c-.7 0-.7.4-1.9.4h-.5c.2 0 .3-.1-.3-.1h-.3c-.7.2-.6.2-.2.2-.7 0-2 .2-2.1 0l-5.6.5c-.2-.1.2-.2.8-.2h-1.3c0-.2.7 0 1.1-.1h-2.3c-.9 0-1.7 0-2.6-.2h-.4s-.5.1-.8 0c-.2 0 .1-.2-.8-.3l-2.8-.4c.4.1.3.2 0 .2-.4 0-.6-.3-1-.3v-.2c.2.2-1-.2-1.2-.1-.2-.2.7 0 .8 0-1.7-.5-.9-.2-2.5-.9-1-.2 0 .2-.4.2l-1.1-.5-1.2-.7.2.3a7 7 0 0 1-2.6-2.3 9 9 0 0 1-2.5-3.9h2c10.9.4 16.5 0 29.5-.1 11.3 0 14.4.3 26.2.2h4.6-.3c.2.2-.2.3-.6.5z"/><path xmlns="http://www.w3.org/2000/svg" fill="#fff" d="m193 185.8.1-.2-.1.2zm28.9-33.8zm-25.3 27.7zm-3.2 8.5 1.9-5.1.6-1.7.7-1.6c0-.6.6-1.4.8-2l.1-.2a1.9 1.9 0 0 1 .3-.7l.4-.7.2-.4a10 10 0 0 1 .8-1.4h-.1c.6-1 .7-1.4 1.3-2.2.6-1.1 1.3-1.5 2-2.7-.2.1 0 0 0 0 .4-.5.8-1 .6-1.1.3-.3.3-.2.4-.2l.4-.7a.6.6 0 0 0-.1.2l.6-.8h-.2c.4-.3.2 0 .5-.3.5-.6.8-.8 1.4-1.2 2.1-2 4.4-4.3 6.7-5.8h.1c.1 0 .5-.6.7-.6l.2-.2s.2-.2.1 0l.4-.4.3-.1c1-.6 1.7-1.3 2.7-2 1.3-.7 3.5-2.4 4.8-3.3 1.8-1.4 4.2-2.4 6-3.9l.2-.2 1.8-1.2s2-1.5 3.1-2.8c.5-.6.9-1 .6-1 0 0-.3 0-.7.3l-.7.5-1 .7a7 7 0 0 0-2 1.6c-.3 0-.8.5-1 .7l-1.8 1.1.1-.1c-.4.3-.9.7-1 .6l-2.9 2c-.3.4-.4.4-.8.7l-1.5 1-.8.5.3-.2c0 .2-.7.3-1.2.8-.5.3-.8 1-1.4 1.3-.2.2.1-.3-.2 0 0 0 .1-.1 0-.1-.4.3-.7.3-1.1.7-.6.5-1.3.7-1.6 1-.6.6-.6.2-1.1.8h-.3c-.3.3-.1.3-.5.5 0 0-.4.3-.2 0-.8.5-1.3 1.2-2.3 1.8-.1.3-.6.6-.7.8 0 0-.9.7-.5.2h.1v-.2c-.5.3-.8.8-1.3 1.2.2 0 .4-.2.3 0l-.5.3v-.1l-.6.5h.1c-.3.3-.5.3-.8.7-.1.2.4-.2 0 .1l-1.6 1.5-.2.3c-.5.6-.4 0-.9.7v-.1.2c-.3.7-.4.2-.7 1 .2-.3.2 0 0 .2v-.1l-.3.3-.2.2v-.2l-.2.5c-.4.3-.8 1-1 1 0 0-.6.8-.6 1 0-.2-.3.2-.2 0l-.7 1.2c-.7.8-1 1.6-1.5 2.4 0 0-.2.4 0 .4-.5 1-1.2 1.5-1 2l-.5.7v-.1l-.7 1.6-.2.9c0-.2-.1 0-.2.2 0-.1 0-.2 0 0a.6.6 0 0 1-.1.2c-.2.4-.1.3 0 .2l-.5.9-.9 2.6v-.4l-.1.6v-.5c-.3.6-.3 1.5-.7 2.3v.7c-.2.1-.2 0-.3.4-.2.3-.3 1-.4 1.4 0-.3.1-.2.1 0l-.2.4-.1.7c-.1 0 0-.4 0-.4l-.4 1.3c0 .4.1 0 .2.1l-.3 1.3v-.1c0 .8-.2 1.2-.4 1.7-.3 3 0 3.3.2 2.9l.5-1.5c.7-2.2.7-3.4 1.4-6zm74.8-9zm-7.7-33.2zm7.7 27.9zm1.4 6.7c-.3-1.7-.3-2.2-.8-4l-.6-2.7-.5-1.5v-.2l-.1-.6-.2-.6v-.3a7 7 0 0 1-.3-1.2h-.1c-.1-.8-.4-1-.4-1.8-.5-1-.2-1.6-.7-2.5 0 .1 0 0 0 0 0-.5-.2-1-.3-1v-.3l-.2-.5v.1l-.1-.7-.1.2v-.5h-.1v-1.4l-1.6-6.5v-.1c.2-.1-.2-.5-.2-.7v-.2s0-.2 0 0l-.1-.5v-.2l-.7-2.5c0-1-.7-3-1-4.2-.6-1.6-.5-3.7-1.1-5.3a.3.3 0 0 0-.1-.2l-.4-1.6s-1.6-7.5-1.4-1.5c.1.8.2 1.3.5 1.9-.1.1.1.7.1.9.3.5.2 1.1.4 1.6l-.1-.2c0 .4.2.9.1 1 .3.8.5 2 .8 2.5.1.3 0 .4.2.7v.1l.3 1.3.1.7v-.3c.2 0 0 .6.2 1 .1.5.6.9.6 1.4.2.2-.1-.2 0 .1-.1 0-.1-.1-.1 0l.1 1c.2.5.1 1 .3 1.4.2.5-.1.4.2 1v.2l.1.5v.2c0 .6.4 1.2.4 2 .2.2.2.6.3.8 0 0 .2.8 0 .4v-.1h-.1l.3 1.2v-.2l.2.5-.1-.1v.6h.1c0 .3 0 .4.2.7 0 .2 0-.3 0 0l.3 1.7.2.2h-.1c.2.6-.1.3 0 .8h.2c.3.6 0 .4.3 1-.1-.3.1-.2.1 0v.5l-.1-.1.2.4c0 .3.2.8.1 1 0 0 .1.7.3.8-.1-.1 0 .3-.1.2 0 .2.3.7.2 1v-.1l.5 2.1s.1.3.2.2c.3.7.1 1.4.5 1.6v.6l.3 1.2c.1.3.3.3.3.7v.2c0-.1 0-.1 0 0v.2c.1.2.1.2 0 0h.1l.1.8.6 2-.2-.2.2.4-.2-.4c0 .6.4 1.1.4 1.8l.1.1.2.3c0 .1-.2 0-.1.4l.3 1c0-.2 0-.1 0 0l.1.3h-.1l.2.5-.1-.2.2 1c.2.3 0-.2.2 0l.3 1v-.2l.3 1.3c1.6 4.1 1.1.7 1.1.7-.2-1.7-.6-2.5-1.1-4.5z"/><path xmlns="http://www.w3.org/2000/svg" d="m340 102.6-.1.1h.1z"/><path xmlns="http://www.w3.org/2000/svg" d="M341.9 98.8c-.4-.5 0 0-.3-.1-.3-.4-.8-.5-1.2-.7v.1c-.7 0-1.1-.2-1.6-.4h-1.3l-1.5-.4a1 1 0 0 0-.4 0c-.2 0-.6-.1-1 .3l-1.2 1c-.8.7-1.3 1.3-1.7 2-.2 0-.6.7-.8.8l-1.4 1.6v-.2c-.3.4-.7 1-.8.9l-.8 1-.5.6-.2-.1-1.9.5-1.5.5-3.6 1.5-2 1-1.6 1.3c-1 .9-2.2 1.8-3 3.1l-.4 1.3-.1 1.3-.6 2.4-.2.5c-.1.4-.3 1-.6 1.4-.3.7-.7 1.2-1 1.5l-.5.7v-.2c-.8 1-1.7 2-2.6 2.8h.1l-4.2 4c-2 2.2-3.4 3-5.5 5.3.2-.3-.2 0-.2 0l-2 2.1c-1 1-1 .8-1 1l.5.6.8 1-.2-.3 1.4 1.8-.2-.5c.7 1 0 .4.8 1.3l.1-.1 2.4 3.5 3 3.7 3.3 4.2 3.6-5 3.2-4.1.2-.2c.2 0 .9-1.5 1-1.6l.5-.6.2-.2.6-1 .5-.5 4.5-6.2.4-.5.2-.1.3-.2.6-.5 1.3-.9 2.6-2 1.7-1.4.4-.3.5-.7 1.6-2.5 4.5-6.7 2.3-3.5.5-.6.1-.4.5-.7.5-.8.1-.2a.7.7 0 0 0 .1-.4l-.1-.1.7-.8c.3-.4.4-1 .3-1.3-.3-1-1.7-2-2.7-2.7l.8-1.2-.1.3.4-.5-.3.5c.6-.5.9-1.3 1.5-1.9l.1-.2.2-.3c.1 0 .1.1.4-.2l.9-1.2c-.2.2-.2 0-.1 0 0-.2.2-.2.3-.4h.1l.1-.2.2-.5-.1.5c.3-.5.2-.7.3-.8l-.2-.8zm-17.3 21c-.2-.3-.4-.6-.3-1 0-.3 0-.5.4-.8.7-.4 2-.3 2.7 0l.7.1c1.4.3 3 .7 2.8 1.7-.2 1.3-.8 2-3.1 1.6a5.2 5.2 0 0 1-3.2-1.7zm8.5-1.5-1.4 2.4-1.2 2h-.1c-.5 1-1.7 2.6-2.2 3.3h-.1l-.3.4-.3.3-.9.7.7-.5c-.1.3-1.4.9-2.5 1.9-1.2.8-2.1 2-3.4 2.9-.5.5.5-.5-.4.2 0 0 .4-.3.1-.3l-.3.3-1.6 2.1h-.1c-.9 1.5-2 2.5-2.5 3.5-1 1.4-.9.8-1.8 2.4l-.5.5c-.5.6-.2.5-.8 1.1 0 0-.7.9-.4.4l-3.9 5.3-1.2 1.9s-1.5 2-.8.8l.2-.3v-.1l-.6.8v.2h-.2l-.2-.4-.3-.4c.2.4.6.8.3.6l-.8-1.1.2.2-1.2-1.6.1.2-1.4-1.9c-.4-.3.5.8-.2 0l-3-4-.5-.5v-.1c-1.1-1.3-.2-.6-1.4-2l-.2-.1-.8-1-.2-.4-.3-.2-.2-.2-.1-.2v.1l.1.1c-.2 0-.3-.2-.4-.3h.2-.1c0-.1 0-.2.2-.2l.3-.3c0 .2-.2.3-.2.3l.2-.1.2-.3.4-.5 2.3-2 2-1.9c-.3.4.6-.4.4-.1.3-.5 1.5-1.7 2-2l4.6-4.5c-.1 0 .7-.8.4-.6 1.6-1.8 3.1-3 3.3-4l1-1.6-.1.3c.7-2 .8-2.5 1-4v-.9c0-.3 0-.6.3-1-.1.3 0-.2.3-.5l.2-.2a1.2 1.2 0 0 1 .2-.2c.5-.6.4-.5.1-.3a10 10 0 0 1 1.8-1.4l1.3-1 .7-.6.5-.4 2.6-1.3c.3 0-.2.2-.7.5l1.3-.6-1.1.5 2.5-1 1.3-.4.7-.2.3-.1h.2v-.1c.1 0 .2-.1.2 0v.2l.1.2-.1.8c-.1.5-.6 1.2-.8 1.6l-.6.7.3-.3c0 .2-.5.5-.9 1l-.5.9-.7.7c-.2.2.2-.3-.2 0 0 0 .2-.2 0-.2l-1.1.7c-.6.4-1.3.5-1.7.8l-.4.2c-.3.6-.4.4-.5 1l-.3.3-.2.6s-.2.4-.2.2l-.5 1.2-.3.6-.2.4-.4.7-.4.7 1 .2.7.3c.2 0 .3 0 0 0h-.4l.4.1.2.1a3.3 3.3 0 0 0 .4.1l.9.2-.3-.1.6.2h-.2l.9.3-.1-.1 1 .4c.2 0-.4-.3 0-.1l.5.1.2.1.4.2c.4 0 1 0 1.5-.3a6 6 0 0 0 2.6 1l1.2.1c1.3 0 2.5-.5 2.9-2.4a2 2 0 0 0-.6-1.5h.4a4 4 0 0 0 1.7-.2zm-3.1-.7c-1.5-.2-3-1-3.6-1.9-.2-.2-.4-.6-.3-1 0-.4.2-.6.5-.8.4-.3 1-.4 1.7-.4.5 0 1 0 1.4.2l.7.2.6.1 1 .4 1.1.3c.4.2.8.4 1 .7v.6c-.1 1-.8 2.1-4.1 1.6zm5.4-2.6-.4.6-.2-.7a3.5 3.5 0 0 0 .7 0zm1.7-2.4c-.7 1.4-1.7 1.7-4.1 1a13 13 0 0 0-1.7-.4c-1.3-.5-2.4-1.4-2.8-2.3a1 1 0 0 1-.1-.9c.6-1.4 3.4-.8 4.3-.5l.5.2.7.3.8.5a7 7 0 0 0 1.6.7c.4.2.7.5.8.8a.6.6 0 0 1 0 .6zm.8-1.2v.2l-.3-.3.6-.2-.3.3zm1.2-2.8-.1.7c-.7 1-1.3 1.4-2.2 1.2a10 10 0 0 0-2.6-1.2c-1-.8-1.7-1.7-2-2.6 0-.3 0-.8.2-1l.8-.6h.4c.9 0 2 .5 2.4 1l.7.3c.8.5 2.2 1.4 2.4 2.2zm-40.8 31h.1z"/></g></svg>