<svg xmlns="http://www.w3.org/2000/svg" xmlns:xlink="http://www.w3.org/1999/xlink" viewBox="0 0 720 640"><defs><path xmlns="http://www.w3.org/2000/svg" id="e" d="m2711.8 107 .5-.1-.5.1zm19.8-3.3h-.2.2z"/></defs><path xmlns="http://www.w3.org/2000/svg" fill="#e8ecef" d="M567.9 484a264.4 264.4 0 1 0-415.7 0h415.7z"/><path xmlns="http://www.w3.org/2000/svg" fill="#9ca5b2" d="m646.8 370.8-.2.8.2-.8zm-5.2 29.7v-.3.3z"/><g xmlns="http://www.w3.org/2000/svg" fill="#fff"><circle cx="183.6" cy="152" r="47.4"/><path d="m213.4 189.3-.6.5.6-.5zm-17.2-83.5h.2-.2zm100.1 347.4v-.1zm-17.1-10.3.5.4-.6-.6v.2z"/><path d="m633 335.5-11.2-.4H611a19.4 19.4 0 0 0-9.5 2.4l1.6-19.7c0-7.3-2.7-14-7.2-19.1-2-14-13.8-18.5-18.4-19.7a39.2 39.2 0 0 0 .2-1.7c1.2-11.2-8.1-31.4-33.4-31.4a54.8 54.8 0 0 0-34.4 12 35.4 35.4 0 0 0-4-6.3c-4.4-5.8-4-2.6-6.4 2.3a33.7 33.7 0 0 0-1.6 3.7 18.5 18.5 0 0 0-13.3 9.5 34 34 0 0 0-4.1.2c-5.4.7-8.3-.7-4.4 5.4 2.1 3.2 4.5 5.6 5.9 6.9-3.9 1.5-10.6 4-13.6 4.1-4.5.3-6 5-6 5l25.6.2v-.1h8.4a1.7 1.7 0 0 0 0 .2H338.9a29 29 0 0 0-29 28.9l1.8 21a19.4 19.4 0 0 0-11.4-3.8h-18a19.5 19.5 0 0 0-19.4 19.5l9.7 73.2a19.5 19.5 0 0 0 19.5 19.4h6l-6 36.7h9.1l14.1-36.7h8.3c1.7 0 2.8-.2 3.3-.6 1.2.4 2.4.6 3.7.6H581c1.3 0 2.5-.2 3.6-.6.6.4 1.6.6 3.3.6h6.3l14 36.7h9.2l-6-36.7h8a19.5 19.5 0 0 0 19.4-19.4l9.7-73.2c0-9.4-6.6-17.3-15.5-19.1zm-56.2-47 2.4.8c-1.6-.2-3.2-.4-4.9-.4l.2-.4h1a23 23 0 0 0-1 0l.4-.9 2 .9zm-264 15.7.9-1.6-1 1.6zm217.5 178.6h-.3.3zm12.4 1.2h.1zm-51.9 0zM287 482.8h-.5.5zm125.5 0h-.2.2zM305.7 484h.1-.1zm121.5-333.7h104.6v12.6H427.2zm70.5 13h.6-.6zm-1.9-13.5h.1-.1zm-52.4-52.5h.3-.3zm5.8 52.5h12V97.7h-24.3v52h12zm12.6-47.3 11.2-5 21.3 47.5-11.2 5zm18.4 41.8v.3-.3zm-11 138.9h-.2.2zm28.1-26.2zM125.5 437.3a4 4 0 0 0-3.9 3.9v5.3h54.1v-5.3a4 4 0 0 0-4-4h-46.2zm24.7-.4h-.3.3zm28.1 23.2a9.3 9.3 0 0 0-.8-3.6 28.8 28.8 0 0 0-4.3-9.8H125a29 29 0 0 0-4.9 13.4.5.5 0 0 0-.4.4 23 23 0 0 0-.2 1.8c0 .2.2.5.5.5v2.2a.5.5 0 0 0-.4.6l.2 1.7c0 .2.3.4.5.4 1 6.1 4 11.6 8.1 15.8h41.4c3.3-3.4 5.8-7.5 7.2-12s0-.3.1-.6a29.4 29.4 0 0 0 .8-3.3c.1 0 .3-.2.3-.4l.2-1.6a.5.5 0 0 0-.2-.5v-2.4h.1c.3 0 .5-.2.5-.4a19.2 19.2 0 0 0 0-1.3v-.4c0-.3-.2-.6-.4-.5zm8.2-157.7a23 23 0 0 0 5.6 3c2.6 1 4.5 1.3 4.5 1.3s3.8-8-.5-17-14.8-10.7-14.8-10.7-3.5 11.3.6 18.5c1.1 2 2.8 3.7 4.6 5zm-78.7-21.2 6.8-7.4a23 23 0 0 0 2-4.3c3.5-10.4-3.3-19.8-3.3-19.8s-11.5 6.2-13.9 15c-2.4 8.8 4.5 18.7 4.5 18.7s1.7-.6 4-2.2zm9.7-24zm51.3 54.2s3 11.4 10.1 15.5c2 1.1 4.1 1.6 6.2 1.8l8.2-.7 3-.8s-1-9-9.3-14.3-18.2-1.5-18.2-1.5zm35.7 7c-6 5.7-5.4 16.6-5.4 16.6s8.8 1.7 16.4-4.7c7.7-6.3 7-16.9 7-16.9s-11.9-.6-18 5zm.5-1.3zm-102.4 12.3s.4-9-7-15.8c-7.7-6.8-18.1-4.4-18.1-4.4s1 12 7.7 17.2 17.5 3 17.5 3zm2.2-10.7s9.8 1.2 17.7-6.4 6.3-19 6.3-19h-2.4l-.2.1h-.9l-.3.1-.6.1h-.3l-.4.1-.3.1h-.4l-.3.1h-.4l-.3.2h-.3c-4.1.9-9 2.6-12.2 6-6.2 6.7-4.7 18.6-4.7 18.6zm95.6 38.1c-8.6 4.1-11.8 16.3-11.8 16.3s1.3.7 3.4 1.3a25.7 25.7 0 0 0 4 .9 23.7 23.7 0 0 0 12.2-1.6c10.7-4.3 13.5-16 13.5-16s-12.7-5-21.3-.9zm-23.5 43c-9.3 2.1-15 13.3-15 13.3s7.8 6.8 19.1 4.8 16.6-12.8 16.6-12.8-11.4-7.5-20.7-5.3zm1.3-1zM143 416s-4.4-12.1-18-17-26.2 4.2-26.2 4.2 8 15.2 19.6 18.5S143 416 143 416zm-26.6 5.8zm49.5-84.8s-.5 12.6 5.7 19 17.8 5.6 17.8 5.6 1.7-9.4-5.3-17.5-18.2-7.1-18.2-7.1zm-41.1 31.8s-4.3-9.6-15.6-12.8-21 4.8-21 4.8 7.3 11.9 16.9 13.9 19.7-5.9 19.7-5.9zm15.8-2.4s-9.7 10-9.3 19.9 10.5 17.6 10.5 17.6 8.3-6.5 8.5-18.3c.3-11.7-9.8-19.1-9.8-19.1zm-10 18.4zm-8.3-45.3c-3.9 9 2 20.5 2 20.5s10.2-2.3 15.5-12.8-.6-21.5-.6-21.5-13.1 4.9-17 13.9zM87.5 482.8h-.4.4zm96.5 0h-.1zm-82.1 1.2zM156 381.3c4.1 7.8 15.5 10.3 15.5 10.3s4.3-8.6-.1-18.3-15.6-11.9-15.6-11.9-4 12 .2 19.9z"/></g><g xmlns="http://www.w3.org/2000/svg" fill="#9ca5b2"><path d="m230.7 145-.3-2.5-.6-2.8v.2c-.4-2.5-1.3-4.3-1.9-6-.7-1.8-1.5-3.2-2.3-4.7a47 47 0 0 0-2.7-4.5h.1l-2.8-3.6-3.1-3.4.2.1-3.4-3-3.3-2.5-3.6-2.3-3.6-1.7a12 12 0 0 0-2.9-1.1h.2l-2-.7-1-.3-1.3-.3h-.2l-1.7-.5-2.1-.4-3.6-.6-4.1-.2h1.5-2l-4 .1c-1.3 0-2.7.3-4 .6l-2.1.5-2 .5c-1.3.4 1-.4-.9.1 0 0 1-.3.4-.2l-2.6.7-2.8 1h-.2l-1 .4-1 .5-2 .9c-1.3.5-2.4 1.2-3.2 1.8-2.8 1.7-2 1-4.7 3.1l-1.2.8c-1 1-.7.8-2 1.8l-.8.7c-.7.5-1.3 1.3-2 2l-1.9 2.2-3.8 5.4-1 2-1 1.9-.9 2-.3.7.2-.8.3-.6v-.3c-.6 1.2-1 2.4-1.4 3.6l-.6 1.8-.5 2c.2-.8.5-1.9.4-1.2l-.7 2.5v-.5l-.4 1.8c-.2.6-.2 1.3-.3 1.9l.1-.5-.4 2.2c-.1.6-.3 1.3-.3 2.4 0 1 .2-1.8.2.2l-.2 2v4.9c0 .8 0 1.7.2 2.5l.3 1.4c.6 3.4-.2 1.3.7 4.6l.3.5c.9 3 .2 1.7 1.6 4.8-.5-1.3-.1-.7.4.9l-.2-.4.7 1.7c-.2-.5-.2-.2.4 1l-.5-.8 1.2 2.2.7 1.4 1 1.5 1.2 2.1.3.6 1 1.2 1.8 2.3c-.6-.6.9 1.2.4.7l1.9 2 .5.6.6.5 1 .9-.3-.2 2.5 2.2 2.4 1.8 2.5 1.6 2.6 1.6c-.1-.1 1.9.9 1.4.5l2.8 1.4 2.6 1 2 .7 1.6.2 3.3.9h-.5l4 .5 3.5.3 4-.2h2.4l.5-.1h-.2c1.6-.2 4.4-.7 4.6-.6a46.8 46.8 0 0 0 9.8-3.1l2.4-1.2-2.1 1c3-1.2 6-3 9-5.3l.7-.5.2-.1 1-1c.5-.2.1.2 1.5-1l2.2-2 2.2-2.5c-.7.7-.5.5-.3.1.7-.7 1.1-1 1.5-1.7h.1l1.6-2.3-1 1.4c2.3-3 1.2-1.5 3.2-4.8 1-1.7-.2.3.2-.6.5-.7.8-1.5 1.2-2.4l1.3-2.6-.4.6c1.2-3.1 1.9-5 2.5-7.2l.5-2.1.2-2 .4-3.2v-4c-.1-1.6-.2-1.4-.3-.5a78 78 0 0 0-.6 5.8l-.1.7c-.7 4.8-2 8.3-3.3 11.9L225 173l-.7 1.4-.8 1.4c-1 2-2.5 4-4.3 6.2l-2.4 2.5-2.1 2-2 1.7-2 1.5a49.4 49.4 0 0 1-10.2 5.6l-3.6 1.2-3.7 1c-2.5.4-5 1-7.5 1a57.5 57.5 0 0 1-2 .1l-2.4-.1-2.5-.1-2.2-.3-1-.2-1.5-.2-1.5-.4c-1.3-.4-2.9-.7-3.5-1l-1.6-.5h.3l-1.7-.6-.9-.3-.8-.4-3.2-1.5.2.1c-4.1-2.5-5.7-3.3-8.9-6.2-4.1-3.4-5.9-6.1-9-10.7.2.2-.2-.4-.1-.4l-1-1.6-.8-1.5c-.5-1-.8-1.6-1-1.5l-.5-1.4v-.4l-1.2-2.8.2.6c-.5-1.3-.8-2.7-1.2-4v.8c-.4-2.2.1-.6-.5-2.7l-.6-4v-3.8a46 46 0 0 1 12.9-34.1l.4-.3 2.6-2.6 1-1c.3-.1 1-.6.4-.1l1.7-1.4 1.1-.7 3-2 3.1-1.6c2-1 4.3-1.8 6.7-2.7 3-.7 7.4-1.8 12-1.9l1.7-.1h1.7l3.3.2 4.4.7 1.3.3c4.7.9 9.5 3 13.9 5.7a55 55 0 0 1 11.4 10l.7.8 1.4 1.8c.4.6.9 1.1 1.2 1.8l1.2 1.9c.4.6.8 1.2 1 2l1.7 3.3.9 2.3a53.6 53.6 0 0 1 3.2 16l.1-3.3V147l-.2-2z"/><path d="m217.3 117.9.4.4a3 3 0 0 0-.4-.4zm-80.4 45.7-.2-.2zm11.9-35.4.1-.2zm-2 43.8-.2-.3s0 .2.2.3z"/><path d="m225.2 147-.5-3.5-1-3.6-1.1-3.1c-.3-1-.8-1.8-1.1-2.4v.2l-.7-1.6-1-1.8v-.1l-1.9-2.8-1.8-2.5c-.7-1-1.5-1.8-2.3-2.6l.9 1-1.2-1.4c-.6-.7-1.5-1.4-2.4-2.2-.8-.8-1.9-1.4-2.9-2l-1.4-1-1.6-1c-1-.5 1 .4-.5-.4 0-.1.7.4.3 0l-1.9-1-2.3-1.2v-.1l-1-.4-.8-.3-1.7-.7c-1.1-.5-2.1-.7-3-.9l-2.3-.6c-.5-.2-1-.3-2.4-.4l-1-.3h-1.2a8 8 0 0 1-1.2 0c.1-.2-1.7-.2-.9-.3-3.1-.3-6.4.2-10.4.8-.9.3-2.9.8-3.5 1.1-.2 0-4 1.3-1.8.4l.5-.1.2-.2c-2.3.6-4 1.6-6 2.6l.9-.4-2 1 .4-.2a39 39 0 0 0-2.8 1.6l.4-.2c-1.3.8-1.9 1-3.2 2.2-.6.5 1.2-.8 0 .2a39.5 39.5 0 0 0-6 5.3c.2-.1-.2.4-.7 1h-.1c-1.7 2.3-.8.7-2.4 3l-.2.5-1 1.7a7 7 0 0 0-1.1 2c.5-1 .3-.4-.3.8l.1-.3-.7 1.3-.4.8.2-.7-.7 2c-.7 1.5-1.4 4-1.7 4.6l-.4 1.8-.4 2.5c0-.7-.3 1.2-.3.6l-.4 4.7v-.2c-.1 2 0 3.7.2 5.4l.3 2.4.4 2.6c0-.2.5 1.7.5 1.2a51.6 51.6 0 0 1 .6 2.6l.8 2.1.6 1.8.7 1.1 1.1 2.5c1.5 2.5 2 3.4 3.4 5.2l2.3 2.5c-.5-.4 0 .2.6.8-.4-.4-.5-.5.2.3l.4.4.7.7-.3-.4-.1-.1c.9 1 2.8 2.5 2.8 2.7a41.4 41.4 0 0 0 7.2 4.8l2.1 1-1.9-.8 2 1c.6.3 1.2.6 2 .8l2 .8c.4 0 .8.2 1.2.4l1.1.3h.7l.2.1 1.2.2.3.2 1.2.3a27.1 27.1 0 0 0 5 .4l1.9.2h2.4l-1.4.1 2.4-.1 2.4-.2c1.7-.3-.3 0 .5-.3l4.6-.9h-.5c2.7-.7 4.3-1.2 6-1.9 4.9-2.2 7-4.1 8.2-5 1-.9.9-1 .2-.5l-2.8 1.7-2 1.1a47.3 47.3 0 0 1-9.7 3.7 44.3 44.3 0 0 1-5 1c-2 .2-4 .4-6.4.2-1 0-2 0-3-.2l-2.4-.4-1-.2c-.4 0-.8-.2-1.1-.3l-2-.5c-.7-.1-1.3-.4-2-.7l-2-.7-2.4-1.1-2.7-1.4c-.8-.6-1.8-1-2.7-1.7l-2.6-2c-1.6-1.4-3.2-2.8-4.6-4.3l-1.1-1.3-1.2-1.6-1.3-1.6-1-1.6-.4-.8a10 10 0 0 1-1.2-2.3l-1.3-2.8-.5-1.3.1.3c-.8-2-1.2-4-1.7-5.9v.2l-.4-2.6-.3-2-.2-4.5c0-2.3.2-4 .5-5.9l1.4-5.7.2-.4c.6-2 1.6-4.2 1.4-4.3.7-1.4.6-1.1.8-1.3-.1 0 .5-1.3 1.1-2.3l-.2.5a41.3 41.3 0 0 1 1.8-3l-.5.4c1.1-1.5.4-.3 1.5-1.8h-.1c1.6-2.1 2.7-3.1 4.6-4.9a43 43 0 0 1 13.4-8.7c5-2 10.3-2.9 15.2-2.7h.4c.2.2 2.7 0 3.1.2h1.1c.3.1 1 .2.4.2l1.9.2 1 .3c4 1 7.5 2 11.4 4 2.2 1.4 5.4 3.4 8.2 6.1l1 1 1 1 2 2c1 1.5 2.1 2.8 2.8 4 2.3 3.3 4 7.4 5 11.7l.3 1.6.3 1.6.4 3.2.1 3.2v3.1a4.6 4.6 0 0 0 0 .6v.3a40.2 40.2 0 0 1-1.4 7.4s-.5 2.2-1.7 5c-1 2.7-3 6-4.6 8.2-1.6 2.3-3 3.8-2.5 3.6.2-.2.9-.7 2-2a37 37 0 0 0 4.5-6.2v.2a34.4 34.4 0 0 0 2.2-5 21.9 21.9 0 0 0 1.2-4.1c.4-.4.8-3.4 1-4.4v.1c.2-2.5.7-5.2.4-7.7l.1.7-.3-4.4zm-41.6-29.3c.2 0 .4-.2.4-.5v-3.5c0-.2-.2-.5-.5-.5s-.5.3-.5.5v3.5c0 .3.3.5.5.5zm0 69.1c-.3 0-.6.2-.6.5v3.5c0 .3.3.5.5.5s.5-.2.5-.5v-3.5c0-.3-.2-.5-.5-.5zm38.5-34c.3 0 .5-.2.5-.5s-.2-.5-.5-.5h-3.5c-.3 0-.5.2-.5.5s.2.5.5.5h3.5z"/><path d="M145 151.8c-.3 0-.5.2-.5.5s.2.5.5.5h3.5c.3 0 .5-.2.5-.5s-.2-.5-.5-.5H145zm53.9 10.3v.1l1.2.7a6 6 0 0 0 2 1.2c1 .3 1.6 1.3 2.5 1.6l.8.5s3.5 2.2 1.4-.4l-1-.5c.1-.2-.3-.2-.3-.3-.3 0-.4-.4-.7-.5l-.4-.3c-.4-.2-1-.6-1.3-.6l-.3-.2c-.3 0-.5-.3-.7-.3l-.3-.3.1.1c-.1.2-.1-.2-.4-.3l-.9-.1c-.1 0 .2-.1 0-.1l.1-.1c-.2-.1-.2-.3-.4-.3v-.1c-.3 0-.4-.4-.7-.4-.3-.1 0-.3-.4-.3v-.2h-.3c0-.1-.1-.2 0-.2-.2-.3-.7-.3-1-.6-.1 0-.3-.2-.4-.1 0 0-.4-.3 0-.2-.1-.3-.4-.2-.6-.4 0 0 .1.1 0 .1l-.2-.1-.2-.2c-.1 0 0-.2-.3-.2-.1 0 0 .1-.1 0a5.7 5.7 0 0 0-.7-.5h-.2c-.2-.2 0-.3-.2-.4h-.1l-.5-.1c.1 0 0 .2-.1 0h-.1v-.2h-.2c0-.2-.4-.3-.4-.4l-.4-.2s-.1-.1 0-.2c-.1 0-.4 0-.5-.2-.3-.3-.7-.3-1-.6h-.2c-.4 0-.5-.6-.8-.3l-.2-.3-.6-.3-.4-.1c.1 0 0 0 0-.1v-.1h-.1c-.1 0-.1 0 0 0-.2 0-.4-.2-.4-.3l-1-.4h.2l-.3-.1h.3c-.2-.2-.6-.2-.9-.5h-.2l-.1-.2-.2-.1v-.1h-.1c0-.3 0-.4.2-.5 0-.5-.2-.8-.3-.9h-.3c-.2.1-.3.4-.3.4-.2.4 0 .8-.4 1.3l-1.2.7-.8.2h-.9l-.1-.1c-.1 0-.3 0-.4-.2v.1c-.2-.2-.4-.1-.5-.4-.4 0-.2-.4-.6-.6 0-.1-.1-.3-.3-.2l.1-.2-.2-.1v-.2h-.1s.1 0 0-.1l.2-.5v-1.2c.2-.3.4-.7.7-.9.2.2 0-.2.2-.1v-.1s.1 0 0 0h.2l.8-.5 1.4-.1c.3 0 .6.2.8.4l.7.6a3 3 0 0 1 .3.5l.2.3.2.6c0 .2.2.4.3.3.2 0 .4-.2.5-1 0-.3 0-.6-.3-.8l-.2-.4c-.2 0-.2-.4-.4-.5l-.2-.3c-.4-.3-.9-.6-1.2-.5l.4-1.4.2-1.2c0-.2.1-.5 0-.8h.2v-.7a1.4 1.4 0 0 1 .2-.6h-.1c.2-.3 0-.5.2-.8-.1-.5.3-.7.2-1.1v-.5c0-.2 0-.1.1-.1v-.6h-.1c0-.1.2 0 .2-.2h-.1c0-.2.3-.3.4-.5.3-1 .2-2.1.6-3h.1v-.4s0-.1 0 0v-.2l.1-.1c.2-.4 0-.8.2-1.2.3-.5.3-1.4.4-2 0-.8.6-1.5.6-2.3v-.1l.1-.7s.8-3.4-.8-1v-.1c-.1.4-.2.6-.1.9-.2 0-.1.3-.2.4 0 .3-.2.5-.1.7 0 0-.1 0 0 0l-.2.3c0 .4-.2 1-.1 1.2v.4c0 .2-.2.5-.1.6h-.1v.3c.1 0-.2.1-.1.4-.1.2.3.5.1.7 0 0-.1-.2 0 0h-.2c0 .1-.2.2-.1.4h-.1c0 .3-.2.4-.1.6 0 .3-.3.1-.2.4l-.1.1v.2s0 .2-.1.1c-.2.3 0 .6-.2 1v.3s0 .4-.1.2v-.1c-.3.2-.1.4-.2.6 0 0 0-.2.1 0v.1l-.2.3h.1s-.2.1-.1.3c0 0 .1-.1 0 0l-.2.7v.1c0 .3-.2.1-.2.4h.1c.1.3-.2.1 0 .4 0 0 .2 0 0 .1v.2h-.1v.1l-.1.5s-.1.3 0 .4h-.3c.1 0 .1.3 0 .4-.2.4 0 .7-.2 1l.1.1c0 .4-.3.6 0 .8 0 .2-.1.2-.2.2v1h-.2v.1c0 .1 0 .1 0 0h.1l-.1.4v1l-.2-.2v.2-.2c-.2.2 0 .6-.2.8v.1l.1.1-.2.1v.1c0 .2-.2 0-.4 0-.3 0-.4.5-.6.5-.1 0 0-.2-.1 0v-.2h-.4c-.2.2-.5.1-.6.3-.2.2-.3 0-.4.2h-.2v.2h-.2c-.3.1-.3.5-.7.8v.3s-.2.4-.2.1c-.3.1-.1.4-.2.6 0 0 0-.2 0 0v.1l-.1.3v.3s0-.1 0 0v.9c.2.3-.1.1 0 .4.3.2 0 .2.3.4h.1v.2h-.1l.2.2c0 .1.2.3.1.4l.3.3v.2s.3.1.3.3c.2.3.6.3.8.6l.2-.1c.4 0 .6.4.8.1l.2.2h1.1c.1 0 .3-.1.4 0l.8-.5v.2l.1-.1-.1.1c.3 0 .4-.3.7-.4v-.3c.1 0 .2.2.3 0l.2-.2 1.4 1 1.2.7c.3 0 .6.3.8.3l.1.1c.1 0 .2 0 .3.2l.3.1v.1c.3.1.5.2.6.4v-.1c.4.3.7.2 1 .6.5 0 .5.5 1.1.6v.1c.2.1.5.3.6.1.1.1 0 .1 0 .2h.3l.4.3v-.2l.1.3v-.1c.3.1.4.4.6.6 1 .7 2.2 1.1 3 1.9 0 .2.4 0 .4.2h.1s.1.1 0 .1l.3.1zm-19.3-9.1zm247 6.8v3.9h1.4c-1 0-1.1-.1-.8-.2h1.6-.4 1.4c-.4 0-.2.1.8.1l-.7.1h10.5c-.6 0 1.1 0 .6.1h4.4-.2 9.6c-.2-.2 1.6 0 1.1-.2 3.4-.1 6.2.2 7.5-.1h2.6l-.4.1h6c1 0 1.2-.2 3.1-.2h1c-.5 0-.7.1.3.2h.5c1.2 0 1-.1.5-.1h-.2 3.6l9.3-.1-1.3.1h2.2-2c2.6.2 5.3 0 8.3 0h.8l1.1-.1 1.5.1h4.8c-.8 0-.5 0-.2-.1h1.8v.1l2.2-.1-1.3.1h4.5c1.5 0-.3-.1.4-.2h4.4-.5 6l9.1-.5c0 .4.1.5.2 0 .9-.1.7-.2 0-.3.2-1.1.3-4 .5-9.1v.1l.1-3.6h-17.5.6-16 .1l-3.5.1h-9.3 1.2-3.3c.8-.5-.1 0 .2-.3l2.2-1h-.3c1.3-.6 2-1 3-1.3l4.2-2.4c.2.4.3.4.2-.1.4-.3.3-.3 0-.3l-1.5-4.5-2-4.4c0-.3-.8-1.6-.9-2-.6-1.2-1-2.5-1.6-3.6l.2.3c-.4-.8-1-2-.8-2-1-2-2.2-4.8-2.9-6l-.8-1.7c-.4-.8-1-2.4-1.4-3l-.6-1.6.2.6c-.3-.2-.4-1.3-1-2.4-.5-1-1.4-2-1.8-3.1-.3-.5.4.4 0-.4 0 0 .2.4.1.1-.4-.7-.4-1.3-1-2.2h.1c-.7-1.3-1-2.5-1.4-3.3-.7-1.2-.2-1-1-2.2v-.6c-.3-.5-.4-.3-.6-1 0 0-.3-.8-.1-.5a20 20 0 0 0-.8-1.8l-.5-.9-.7-1.6-.9.4-.4.2h-.3c-.4.4-1.4.7-1.6 1-.1 0-2 .8-1 .2h.3l.1-.2c-1.1.4-2 1-3 1.4.3-.1.8-.3.5-.1l-1 .4.2-.1-1.5.6h.2l-1.8.7c-.3.2.7-.2 0 .2l-.7.2-.6.3c0-.1 0-.2 0 0v-5h-1.7l-1.9.1s-2 0-.9-.1h.4c-1.2-.2-2.1 0-3.3 0h.5-1.1.2-1.6.2c-.8 0-1-.2-2 0-.4 0 .8 0 0 0h-2.3v.3h-.7l.6-.1h-1 .9c-1.3-.2-2.6 0-4 0h-.4l-.6.1c-.2 0 0-.2-.7-.2l-2.4.1h.1-1.9.6-2.3v.4c0 1.2 0-.1.1.4v1.1a13.6 13.6 0 0 1 0 1.1l.2-.2v3c.6 9.5.9 2 .9 2v-6.6h-.1.6l1.6-.1 6.5.1h1.9v4.5c.2 1.3-.1.7 0 2 0-.5.3-.2.2.5v-.2.8c0-.2-.1-.1-.1.5l-.1-.4.1 1v4.7c0-.3-.1.6-.2.4 0 .4.2 1.8 0 2.3 0 2 .2 3.4 0 5.2.2 0 .1.9.2.6.1 2-.2 3.4.1 4.1v1.5-.2 8.2l.2 5c-.1.2-.1-.2-.2-.7v1.2-1 4.9l.1.6-.1.8v4.1l.1.4v-.2a1.2 1.2 0 0 0 0-.2v.4h-6a39.8 39.8 0 0 0-2.6 0h-2.5v-.5l-.1-1v-1.9c-.3-3.7.3-8 0-11.8v-3.9s0-16.8-1-4v-.1 9.8l-.1-.3v2l.1 5.9v-.1 6.4h-.5.4-3 .4c-1.4 0-2-.2-3.6 0h-3.7v6.1c0 2.7-.2 1-.1 3.7v-.3l.1.7zm22-12.6zm41.2-11s2.8 6.5 4 8.4c-1 .2-2.5.9-2.5.9l-4.2 1.8-3.1 1.5-.4.2h-.2v-.2l-.6-1c-1.6-3.6-2-5-3.5-8.2l9.8-4.7.6 1.3zm-1.8-4 .2.4.6 1.3-9.9 4.8v-.2l-2.5-5.4 9.8-4.7c.6 1.3 1.1 2.6 1.8 3.8zm-23.1-30.5 5.6-2.6 2.3-1 .5 1.1.6 1.6v.2c0 .2.8 1.2.7 1.5l.3.5c0 .1.2.5 0 .2l.5.8.2.6c.8 2 1.7 3.6 2.6 5.7 1 2.5 3.2 7.1 4.4 9.8 1.2 2.2 2.2 4.8 3.2 7.3l-9.8 4.8-1.6-3.4-.2-.5a8.6 8.6 0 0 1-.5-1.1l-.7-1.5-.3-.6a44.7 44.7 0 0 1-1.2-2.8c-.9-1.9-1.3-2.5-2-4.3-1.2-2-1.4-3.5-2.6-5.6.2.3 0-.2 0-.1-.4-1-1-2.2-1.1-2.1l-.2-.8-.7-1.2.2.3-.8-1.7v.4l-.3-1.1h-.1c-.3-.6-.5-1-.6-1.6l-.6-1.6v-.1l2.2-1zm-3.8 47.7c.5 0 .4-.2 0-.2.2-.7.4-2.2.6-4.8v.1-11 .3-8.8.1-2c-.2-.9 0-2.5-.1-3.2V118v.6c-.2-.2.1-1.3 0-2.5 0-1.2-.4-2.4-.3-3.6 0-.6.2.5 0-.4.2 0 .1.4.2.2V110h.1v-3.6c0-1.4.2-1 0-2.4l.1-.2.5 1.1.3.6c.6 1.3 0 .6.7 1.8l.2.2c.6 1.2.1.7.9 2-.3-.5 0-.3.3.3l-.2-.1.4.7c-.1-.2-.2-.1 0 .4l-.2-.3.6 1c.3.7 1 1.9 1 2.2 0 0 .6 1.7.9 2-.2-.3.2.6 0 .4.2.4.9 1.6 1 2.1.7 1.8 1.5 3 2.1 4.7 0 0 .4.8.4.6.9 1.6 1.2 3.2 1.8 3.6.4.8.3 1 .5 1.4l-.1-.2 1.3 3c.3.5.5.5.9 1.5-.2-.3 0 .1.1.5 0-.3-.1-.3 0 .2a1.8 1.8 0 0 1 .2.2l.1.2c.2.6.8 1.7.7 1.8l2.3 4.6c0 .2-.2-.2-.4-.6l.5 1-.5-.9c.5 1.4 1.3 2.6 1.9 4.2l.2.2v.1l.3.6.2.8 1.2 2.4c-.2-.5-.1-.3 0-.2l.3 1 .3.4a8 8 0 0 1 .2.5v.1a7.5 7.5 0 0 1-.3-.6l.3.6c-2 0-4 .4-6 .3-1 0 1-.2-.6-.1 0-.1.7 0 .3-.1H472l-.1-.1c-2.5.1-4.7-.1-6.4 0-2.6 0-1.7-.2-4.4 0l.1-.4zm-.1.3h-1.5l1.4-.2a1.1 1.1 0 0 0 0 .2zm-11.4-46.3v-.4c0 .2 0 .3.1-.2v-.4h-.1v-4.1h2.4l6.2-.1h2.5v2.9l-.2.2c0 .1.2 1.4.1 1.6v8.6c-.1 2.7 0 7.9.1 10.8.2 4.2-.3 9-.1 13.2v4.5s0 7 .2 9.2l-2.5-.2a68 68 0 0 0-4.7 0h-2.2l-1.5.1h-.1v-.3a.7.7 0 0 0 0-.2l-.1-.5v-.4c.2-1.4 0-2.9.1-4.8l-.1-1.5v-.3c0-.5 0-1.5.1-.6v.4c.2-1.1 0-2 0-3v.4-1 .3-1.5.2-1.7c0-.4 0 .6-.1-.1l.1-3.6v-.6c0-1.3.2-.5.1-1.7l-.1-.3c-.2-1.1.1-.6 0-1.9 0 .5-.2.3-.2-.3v.1-.7c.1.2.2.1.2-.4v.4-5.2c0 .3 0-.5.1-.3v-2 .1-4.7c-.1 0 0-.8-.2-.6 0-1.6.2-3-.1-3.6l.1-1.3v.1-2.9c0-.5-.2-.6-.1-1.5zm-13 45.7v.6-.6zm-9 8.7h-.1c0-2.4.2-3.9.3-6.2v-.7l14-.1H456c.2.2 2.6-.1 3 0h15.6c5 .2 14.3 0 19.7 0 7.6-.3 16.4.3 24.1 0a5.3 5.3 0 0 0 .6 0h12.2v6.2a132.3 132.3 0 0 0 .2 5.2v.2c-1.6-.2-5-.2-5-.2-7.7-.2-11.7 0-20.8.1l-18.6-.1h-12l-7.3.1h-7.5.2-5.7.1c-3.8 0-5.2.2-8.6 0-4.3.3-6.9-.1-11.3 0h-.2c-2.1 0-4.3 0-4.3.2l-1.5-.1h-.5l-.7.1v-.3.2-3l-.2.6c0-1.8.2-.4.1-2.2zm22.4-29.3v.1zm-1.8-25.8v-.1zm15 4.7-.1-.1zM208.6 482.8h.1-12.8l.4-.1h-2.5l-7.7.1h.1-8.1.7c-.2.2-1.5-.1-3 0-1.3 0-2.7.4-4 .3h-.5c0-.2.5-.1.2-.2h-.2l.6-.6.7-.9.3-.3a28.3 28.3 0 0 0 5.7-14.2c.4-3 .4-4.8.3-6.8a25.7 25.7 0 0 0-1.5-6.8 29 29 0 0 0-1.5-3.6l-1-1.8-.5-.8a2.1 2.1 0 0 1 .4-.1h-.1 1c-.3 0-.2.1.6.1l-.4.1h.5l-.1-1.2v-4.3c0 .3 0-.5.2-.3l-.2-1.2-.4-1.2v.1c-1-2-2.8-2.5-4.5-2.5 0 .1-.8 0-.6.2-1.6 0-3-.3-3.6 0h-1.3.1-2.9c-.5 0-.6.2-1.5.1h-1.1.1-1.8l-4.6.1.6-.1h-.8.7-.4l.3-.2s-.9-3.7 1.6-11.7a134 134 0 0 1 22.3-39.4c27.1-36.1 19-78.3 18.9-78.7l.6-2a25.2 25.2 0 0 0 .4-2.3l.4-4.4v-.1c.2 0-.2-.8 0-1l-.2-.3s0-.3.1-.1l-.1-.6v-.3c-.1-1.3-.5-2.3-.9-3.6-.1-.8-.6-1.8-1-2.9l-1-1.5-.9-1.2-1.2-1.4-1.3-1.4a12.7 12.7 0 0 0-3.4-2.5l-2-1s-.6-.4-1.5-.7a16.7 16.7 0 0 0-2.7-.8c-.8-.1-1.4-.2-1.3 0 0 .2 1 .5 2.7 1.4 1 .5 1.7.8 2.5 1 0 .2.9.5 1.1.7.7.2 1.2.8 1.9 1 0 0-.1.1-.2 0l1 .8c1 .7 2.1 1.9 2.7 2.4l.7.8 1 1.4v.1l.5.8-.2-.3c.2 0 .3.7.7 1.3.2.6 1 1 1 1.7.2.3-.2-.2 0 .2 0 0-.1-.2-.1 0 .2.4.1.8.3 1.3.3.7.2 1.5.4 2 .2.7 0 .5.1 1.3v1.2c0 .9.2 1.8-.1 3v1s-.2 1.1-.2.5v-.2c-.2.5-.1 1.1-.3 1.7l.1-.2-.1.5v-.1a10.6 10.6 0 0 1-.3.9v-.1c0 .4-.3.5-.3 1 0 .2.2-.4 0 0v.2l-.3-.1-.7-.2h-.4v-.1c-.8-.1-.2-.2-1-.4h-.2c-.7 0-.3-.2-1.1-.3.3 0 0 .2-.3 0h.1l-.4-.1c.1 0 .1-.1-.2-.2h.2l-.6-.2-1.2-.6-.5-.2-.6-.3c.2 0-.3-.2 0-.2-.3-.1-1-.4-1.2-.7-.9-.6-1.7-.9-2.4-1.6 0 .1-.4-.3-.3-.1-.9-.6-1.2-1.5-1.7-1.6-.3-.3-.3-.4-.4-.7v.1l-.9-1.5c-.2-.2-.3-.2-.5-.8l-.1-.2v-.3c-.2-.3-.2-.3-.2-.1l-.3-1c-.3-1-.6-1.8-.7-2.7l.1.3v-.6.5l-.2-2.5v-.2l-.1-.4.1-.4v-1.5c0 .2 0 .2-.1 0v-.5h.2l-.1-.7v.4l.2-1.4c0-.5-.1.1-.2-.1 0-.4 0-.9.2-1.4l-.1.2a6.3 6.3 0 0 1 .3-1.9c.3-3 .3-3.4 0-3-.3.4-.6 1.6-.6 1.6-.7 2.4-.7 3.7-.9 6.6 0 2.6-.2 3.3.2 6l.5 1.9.7 1.8.6 1 .7 1.1v.3l.6.6.6.7.3.3 1.3 1.2 2.3 1.6c1.3.5 1.8 1.3 3.2 1.7-.2 0 0 0 0 0 .6.3 1.3.6 1.3.4.5.2.4.2.4.3l.8.2h-.2l1 .3-.1-.2c.5.2 0 .2.6.3.4 0 .7.2 1 .3l.4.2.2.1.3.2h.4c.7 3.6 7 43.5-18.7 77.7-26.4 35.2-24.4 50-24 51.8h-3l-.3.1h-.1l-.6.1c-.2 0 0-.2-.7-.2l-2.2.1c0-.3.6-13.7-4.5-32.7l.3-.2.6-.5.9-1 1.6-2.1c1-1.5 2-3 2.7-4.4l.2-.1.3-1 .1-.4c.1-.1.2-.3.2-.1l.2-.7.2-.3c.5-1.4.7-2.7 1-4.2l.2-1.7.1-2v-2l-.4-1.7-.5-2.2-.6-2.2a15 15 0 0 0-2-4 .9.9 0 0 0-.2-.4l-1.6-2.2-1.2-1.4c-.7-.8-1.6-1.7-2.4-2.3-.8-.6-1.4-1-1.4-.8 0 .3.8 1 2.3 2.9l2 2.4c0 .2.8 1 .9 1.3.6.6.8 1.5 1.3 2.1l-.2-.1.7 1.3c.6 1.2 1.3 3.1 1.6 4l.3 1.1v.1c.2.5.3 1.7.4 2.1v1.2-.4c.1 0-.1.8 0 1.6-.1.8.3 1.6 0 2.4v.3c-.1 0 0-.3-.1-.2 0 .6-.2 1-.3 1.6h-.1c0 1-.5 1.7-.6 2.3-.2.9-.3.5-.6 1.4l-.2.3-.2.8s-.3.5-.2.2c-.5 1-.8 2-1.7 3 0 .4-.5.9-.5 1.1 0 0-.8 1.2-.5.5l.1-.2-1.3 1.7c.2-.2.4-.4.3-.2l-.5.5v-.2l-.7.8h.2c-.4.3-.6.3-1 .8-.1.2.5-.2 0 .2s-.2.1-.2.1l-.1-.1-.2-.2-.6-.6-.4-.2c-.7-.7-.1-.4-.8-1l-.2-.1c-.7-.5-.2-.4-1-1 .2.3 0 .2-.3-.1 0-.2-.2-.2-.3-.3l-.1-.3h.2l-.5-.4c-.3-.4-1-1-1-1.3l-.4-.5-.5-.6c.2.1-.2-.4 0-.3a4 4 0 0 1-.9-1.3c-.5-1.1-1.1-1.9-1.5-3 0 0-.2-.5-.3-.3-.5-1.1-.5-2.2-.9-2.5v-1 .1l-.3-2c0-.4-.2-.5-.1-1.2v-.3c0 .2 0 .2.1-.1v-.4l.2-1.2.7-3.3c.1-.1 0 .1 0 .4l.2-.7-.1.7c.3-.9.5-1.9 1-2.8v-.3h.1l.1-.4c.2-.1.2 0 .4-.4l.8-1.6c-.2.3-.2.1-.1 0l.3-.5h.1l.3-.7c.2-.1-.2.4-.1.4l.8-1.3c.3-.6-.1 0 0-.3.2-.4.5-.9.9-1.3h-.2l1.3-1.7c2-3 2.2-3.3 1.7-3a11 11 0 0 0-1.5 1.3c-2 2-2.6 3.4-4.4 6.4a74 74 0 0 0-1.6 3l-.4.7c-3.8-7.7-8.7-15.8-14.9-23.8-17.6-22.9-15.6-53-12.4-70.2h.1a13 13 0 0 0 1-.7l1.7-1.1c.3-.3.4-.5 0-.4-.3 0-1 .4-2.6 1v-.1l-1 .5-.4-.5-.5-1c-.5-.6-.6-1.4-1-2l.1.2-.4-1c-.5-1.1-1-2.7-1.4-3.4-.2-.3-.2-.5-.3-1l-.5-1.6v-1 .4c-.2-.1 0-.7-.2-1.4 0-.6-.5-1.3-.4-2-.1-.3.1.3 0-.1.2 0 .1.2.2 0l.1-1.2h.1c0-.8.3-1.4.3-1.9 0-.8.3-.4.4-1.2l.2-.2.2-.6s.2-.4.2-.2l.5-1.2.8-1.3c0-.3.4-.7.4-.9.1 0 .7-.9.4-.3 0 0 0 .1 0 0v.2l1-1.4c-.1 0-.3.3-.2.1l.4-.4v.1a9 9 0 0 1 .6-.6h-.2c.3-.3.5-.3.8-.7 0-.2-.4.2 0-.1l1.6-1.4.2-.3c.6-.5.4 0 1-.6l-.1.1v-.2c.5-.6.4-.2 1-.8-.3.2-.3 0 0-.2l.3-.2h.3l-.1.1.4-.4c.4-.2.9-.7 1.1-.7l1-.7c-.2.1.3-.1.2 0l.5-.4.3-.2h.1c0-.2.6.7.8 1.3l.3.3c.6.8.6 1.7 1.1 2 .2.3.1.4.2.7v-.1l.5 1.6c.2.3.3.3.5.9-.1-.2 0 0 0 .2 0 0-.1-.1 0 .2v.2l.2 1 .4 1.4.2 1.3-.2-.3.1.6-.1-.6c0 .8.2 1.6.1 2.5v.2l.1.3c0 .2-.2 0-.2.5v1.4c0-.3 0-.2 0 0l-.1.4h-.1v.7c-.1.1 0-.3 0-.4l-.4 1.3c0 .5.1 0 .2.2l-.4 1.2.2-.1c-.2.8-.4 1.2-.7 1.7l-.8 2.6c-.1.4 0 .4.1.2.4-.3 1-1.3 1-1.3 1.2-2.1 1.4-3.4 2-6.2.3-2.5.5-3.2.2-5.8a20 20 0 0 0-.8-3.7c-.3-.5-.4-1.5-.8-2v-.3l-.3-.7-.4-.8-.1-.4-.8-1.5-.7-1-.9-1.4-.4.2-.7.4-.4.3-.7.4c-.5.2-1 .5-1.4 1 .1-.2-.1 0-.1 0-.5.3-1 .7-1 .9-.3.3-.3.2-.4.1 0 .1-.2.4-.5.6v-.1l-.7.6h.3c-.5.3-.3 0-.6.3v.1c-.5.5-1 .6-1.6 1a24 24 0 0 0-5.5 7.4h-.1c-.2 0-.2.9-.3 1v.3c-.1 0-.2.3-.2 0v.6l-.3.3-.3 1.8c-.1.5 0 1.1-.2 1.8a11.9 11.9 0 0 0 0 3 17.5 17.5 0 0 0 .8 3c.7 2.2 1.2 4.9 2.5 6.9a.6.6 0 0 0 .2.2l1 1.9a4.3 4.3 0 0 0 .2.3l.6.8c-3 17.4-4.8 47.5 12.8 70.3a141 141 0 0 1 15.2 24.5 17.4 17.4 0 0 0-.4 1.4c-.3.7-.4 1.5-.6 2.3l-.2 2.3v1.3l.2 1.5v.3l.1.9.3 1 .2.6v-.1l.7 2c.5 1.3 1 1.7 1.5 2.9.5.6.8 1.2 1.1 1.8.3.5.7 1.1 1.3 1.7-.1-.2 0 0 0 0 .5.7 1 1.3 1.2 1.2.4.4.3.4.3.5l.7.6-.2-.2 1 1-.2-.3c.5.5 0 .2.5.6l1.6 1.7.5.4a115.2 115.2 0 0 1 4.5 32.6l-1 .1.6-.1h-2.2c-.7 0 .2.1-.2.2h-2.1.2c-1.3.2-2 .2-3 0-9.6.7-2 1-2 1 3.8.2 5.8 0 10.3-.1 4 0 5 .2 9.1.1h6c.9-.2 2.5 0 3.6-.1h.4a5.8 5.8 0 0 1 1.2 0h2.1-.1 2.8v-.1a8.7 8.7 0 0 1 1 0l.8.3c.5.2 1 .6 1.3 1.2a2.4 2.4 0 0 1 .6 1.1v5.3l.1.3h-1.4.2-.2l-.1-.1h-5.3c-4.8-.1-10 .2-14.6 0l-.2-.1c-.1-.1-1.3.2-1.5 0l-.5.1h-7.2c-2.4-.2-7 0-9.7 0-3.7.2-8-.3-11.8 0h-.7v-4.6a3.7 3.7 0 0 1 .4-1.9 3.7 3.7 0 0 1 1.3-1.3c1-.7 1.9-.6 1.7-.8-.1 0-.5-.2-1.3 0a4 4 0 0 0-2.9 2.3v-.1l-.3 1.4v1.1l.1 2v2.9a25.6 25.6 0 0 1 1.2 0h1.6l-.2.3-.6 1-1 2a29.4 29.4 0 0 0-1.5 4.2c-.9 2.8-1.3 5.7-1.3 8.4l-.1.3c-.2.2.2 1.9.1 2.2l.2.7v.3c0 .8 0 .8.2 1.3v.8l1 4a30.6 30.6 0 0 0 5.4 9.6l.5.5H124c.4 0-.7 0-.4-.1h-8.7c.1.1-1 0-.7.2-2.2 0-4-.2-4.8.1l-1.6-.1h.2-3.8c-.6 0-.8.2-2 .2.4-.1 0-.1-.5-.1h-1 .1-2.3l-5.8.1.8-.1H92h1.2c-1.6-.2-3.3 0-5.2 0h-.5l-.7.1c-.3 0 0-.2-1-.2l-3 .1h.1-2.6.9-2.9c-1 0 .2 0-.3.2h-2.8.3a29 29 0 0 1-3.8 0c-12.4.7-2.6 1-2.6 1 5 .2 7.4-.1 13.3-.2l11.7.2h7.7c1.2-.2 3.3 0 4.7-.2l.5.1h4.2-.1 3.6v-.1h5.4c2.8-.2 4.4.2 7.2 0h.5l.3.3 5.4-.1c5.4-.2 11.8.3 17.4 0a2.7 2.7 0 0 0 .6 0h5.2s11 0 12.8-.2h.4c-.3.4-.2.3.2 0h.4c3.1.1 9 0 12.5-.1 4.8-.2 10.4.3 15.3 0h5c0 .1 21.9.2 5.3-1zm-61.9-45.9c.2 0 .1 0 0 0zm22 46c-1.6 0-3-.2-4 0-1.7 0-1.2-.3-2.9-.1l-.7-.1h-1.8c-1.9-.2-3.7 0-6.1-.1l-2.2.1h-1 .3l.1-.2-3.8.1h.6-1.3.3-2 .4-2.3c-.5 0 .8 0-.1.1l-4.7-.1h-.7c-1.7 0-.6-.2-2.3 0l.2-.1-.5.1c-1.5.2-.8-.1-2.4 0 .6 0 .3.2-.5.2h.2-1c.3 0 .2-.1-.5-.1l.5-.1h-2.3c-.2 0-.2-.1-.3-.3a19 19 0 0 0-1.1-1.2c-1-1.2-2.2-2.3-2.9-3.7-.5-.7.4.5-.2-.5.1 0 .3.5.3.2-.6-1-.8-1.7-1.4-3l-.8-2.1h.6c.3 0 .5-.2.5-.5s-.2-.5-.5-.5h-.6a17.6 17.6 0 0 1-.2-.6l-.3-.3v-.3c-.3-.9-.3-1.2-.3-1.5l-.3-1.6v-.7c0-.8-.1-.6-.2-1.5.1 0 0-1.2.1-.6 0-1.9 0-3.8.5-6 .1-.1.3-.2.3-.4l.3-.6h.7c.3 0 .5-.2.5-.5s-.2-.5-.5-.5h-1l.3-1.2s.9-2.5.5-1c0 0 0 .3-.1.2v.2c.6-1.4.9-2.6 1.6-4-.2.5-.5 1-.4.6a29.6 29.6 0 0 1 .7-1.2l-.1.3a40.6 40.6 0 0 1 1-1.8l-.1.2.6-.8h.8c.5-.1-1-.2.1-.2l5.3.2c-.2-.1.3-.1.8-.1 2 0 .8.2 2.6.1h-.1.5c1.7-.2.9 0 2.8-.1-.8 0-.4-.2.6-.2l-.3.1h1.6l-.5.2 1.4-.2 3.3.1h3c-.6 0 .7 0 .4.1h9.9c-.1-.1 1.1 0 .8-.2h6.3-.2 1.1-.1 4.5l.5-.1c1.4 0 .5.2 1.8.1h-.1.8a6.9 6.9 0 0 0 .2 0v.2a10.8 10.8 0 0 1 .3.3l.4.7.5 1a29.5 29.5 0 0 1 2.2 5.2l.4 1.3-.4-1.1.3 1h-.4c-.3 0-.5.3-.5.6s.2.5.5.5h.6c.3 1.1.5 2.3.6 3.6v.6l.2.8-.1 1c-.1.8 0 2.4-.2 3.5.1-.6.1-.4.1-.2l-.2 1.3-.2 1.6c-.2.3 0-.8 0-1l-.3 1.6v.3c-.2 0-.3.2-.3.3v.6h-.7c-.2 0-.5.2-.5.5s.3.5.5.5h.6c-.3.8-.5 1.7-1 2.6l.2-.3a16 16 0 0 1-2 3.8c-1.4 2.5-2.5 4-3.2 4.8h-1.9z"/><path d="M128.7 436.8c-.3 0-.5.2-.5.5s.2.5.5.5h2.2c.3 0 .5-.3.5-.5s-.2-.5-.5-.5h-2.2z"/><use xmlns:xlink="http://www.w3.org/1999/xlink" xlink:href="#a"/><use xmlns:xlink="http://www.w3.org/1999/xlink" xlink:href="#b"/><path d="M166 456h-2c-.3 0-.5.2-.5.4s.2.5.5.5h2c.4 0 .6-.2.6-.5s-.2-.5-.5-.5z"/><use xmlns:xlink="http://www.w3.org/1999/xlink" xlink:href="#a" x="6.2"/><use xmlns:xlink="http://www.w3.org/1999/xlink" xlink:href="#a" x="-6.2"/><use xmlns:xlink="http://www.w3.org/1999/xlink" xlink:href="#b" x="-43.7"/><use xmlns:xlink="http://www.w3.org/1999/xlink" xlink:href="#b" x="-37.5"/><use xmlns:xlink="http://www.w3.org/1999/xlink" xlink:href="#a" x="12.5"/><use xmlns:xlink="http://www.w3.org/1999/xlink" xlink:href="#c"/><use xmlns:xlink="http://www.w3.org/1999/xlink" xlink:href="#c" x="6.2"/><use xmlns:xlink="http://www.w3.org/1999/xlink" xlink:href="#c" x="-18.6"/><use xmlns:xlink="http://www.w3.org/1999/xlink" xlink:href="#d"/><use xmlns:xlink="http://www.w3.org/1999/xlink" xlink:href="#c" x="-6.2"/><use xmlns:xlink="http://www.w3.org/1999/xlink" xlink:href="#d" x="6.2"/><use xmlns:xlink="http://www.w3.org/1999/xlink" xlink:href="#d" x="12.4"/><use xmlns:xlink="http://www.w3.org/1999/xlink" xlink:href="#c" x="-12.4"/><path d="m172.3 309.9-1.9.4-.9.3-.6.2-.7.2.3 1.3v.1c-.1.1.4.6.3.8l.1.2v.2a1.9 1.9 0 0 0 .2.4v.3l1.3 3c.4 1.3 1.9 3.5 2.8 4.7l2.1 2.7c.4.5.8 1 1.3 1.3l.7.6.7.4a.5.5 0 0 0 .2 0 9.8 9.8 0 0 0 3.2 1.5c.8.3 1.8.5 2.5.5s1.3 0 1.2-.1c-.1-.2-.9-.4-2.6-1v-.1l-2.2-.7c0-.2-.8-.4-1-.5-.5-.2-1-.8-1.5-1 0 0 0-.1.1 0l-.8-.7-1.2-1.2-1.1-1.1-.6-.7-1-1.4h.1l-.5-.7.2.2c-.2 0-.2-.6-.7-1-.2-.6-.9-1-1-1.5-.3-.3.2.1 0-.2 0 0 0 .1 0 0-.1-.4-.1-.7-.4-1.2-.3-.6-.3-1.2-.6-1.6-.3-.6 0-.5-.4-1.2v-.3c0-.3-.2-.1-.2-.5 0 0-.1-.4 0-.2 0-.5 0-.4-.2-.6a.4.4 0 0 1 .2 0 3.7 3.7 0 0 1 .7-.2c.2-.2.7-.2.8-.4 0 0 1-.2.5 0h-.1v.2c.5 0 1-.3 1.5-.4h-.2l.5-.1h-.1.8-.1l1-.1c.1 0-.4 0 0-.1h2.3c.7 0 .2.2 1 .2h-.1l.2-.1h1c-.3 0-.1-.1.2 0h.3l.2.1-.2.1h.6l1.1.3s.8.3 1 .2c-.1 0 .3.2.2.3.2 0 .9.1 1 .3l1.2.5a5.7 5.7 0 0 1 1 .6c.1 0 .5.2.4 0 .9.5 1.3 1.2 1.8 1.1l.5.6h-.1c.6.4.8.5 1.2 1 .2.2.3 0 .7.5-.2-.1 0 0 .1.2 0-.1-.1-.1 0 .1h.2v.1c.2.2.1.2 0 0 .2.3.7.7.6.8l1.6 2-.3-.3.4.5-.4-.4c.3.7.9 1.2 1.2 2h.1v.1l.2.2c0 .2-.2.1 0 .5l.6 1.2v-.1l.2.4v.1l.2.5-.2-.3.4 1.2c.2.4 0-.1.2 0 .1.4.3.7.3 1.2v-.1c.2.4.2.6.2.9l-.5.1-2.2 1c-.4.3-.3.3-.1.4l1.5-.2 1-.2h.2l.4-.2.8-.3-.1-.9-.1-.4v-.3l-.4-1-.8-2c-.8-2.2-1-2.9-2.3-4.9a17.6 17.6 0 0 0-1-1.4l-1.2-1.3c-.5-.2-1-1-1.6-1.3l-.1-.2a1.7 1.7 0 0 1-.6-.5l-.6-.4-.3-.3-1.4-.8-1-.6a6.8 6.8 0 0 1-1.2-.5 13.5 13.5 0 0 1-1.5-.5l-.7-.3-.9-.1c.2 0 0-.1 0-.1-.6-.1-1.2-.2-1.2 0-.5-.1-.4-.1-.4-.2h-.7.1-1 .3l-.6-.1v.1c-.7 0-1.1-.2-1.8-.3a22 22 0 0 0-3.8.5zm50.2 3.5-.7 3-.3 2.7c-.2 0-.3 1-.4 1.2 0 .7-.5 1.4-.6 2v-.1l-.5 1c-.5 1.2-1.3 2.6-1.7 3.3-.1.4-.3.5-.5.9-.3.5-1 1-1.2 1.4l-.8.6.3-.2c0 .2-.6.4-1 1-.6.3-.9 1.1-1.5 1.4-.3.2.1-.3-.2 0-.1 0 .1-.1 0-.1l-1.2.7c-.7.4-1.4.5-1.8.8-.7.4-.6 0-1.3.4h-.3c-.3.2-.2.3-.6.3h-.3c-.8.1-1.7.6-2.8.6-.3.2-.8.2-1 .3 0 0-1.2 0-.5-.1h.1c-.6-.2-1.1 0-1.8 0 .2 0 .5 0 .3.1h-.6.2l-1-.1h.2-.6l.2-.2c.5-.4.5-.8 1-1.5.5-.6.7-.6 1.1-1.2l.7-.9c0-.2.3-.3.3-.6h.1l.1-.2.2-.2.4-.4c.2-.3.2-.5.5-.6.1-.4.5-.3.6-.8 0 .1.1 0 .1 0 .1 0 .2-.2.1-.4h.2v-.2l.3-.2h-.2c.2-.2.2 0 .3 0l-.1-.2c.1-.1.4 0 .6-.2.6-.6 1.1-1.5 1.9-1.9.2.1.1-.2.2-.2h.1v-.2h.2l.7-.7c.5-.2 1-.8 1.3-1.2.4-.6 1.4-.7 1.8-1.3l.5-.5s2.5-1.8 0-1.2c-.3.1-.5.2-.6.5-.2-.1-.3.1-.4.2 0 .2-.4.1-.5.3 0 0-.2.2-.3.1-.2.3-.7.6-.7.8 0 .2-.1.1-.2.3l-.4.4-.3.1h.1c.1.1-.2 0-.3.2-.1.1 0 .6-.2.6 0 .2 0-.1-.1 0l-.1-.1c0 .1-.2 0-.3.2-.2.2-.5.2-.5.4-.1.2-.3 0-.3.2h-.2v.2h-.2c-.3 0-.3.4-.7.5v.3c-.1 0-.4.3-.3 0-.2 0-.2.3-.3.4 0 0 0-.1 0 0l-.3.2s-.2 0-.2.2c0 .1.2 0 0 .1l-.5.4v.1c-.2.2-.2 0-.4.1v.1l-.1.3s.1.1 0 .2v-.1h-.2v.2c-.2 0-.3.3-.4.2l-.2.3h-.1s-.1.3-.3.3c-.3.2-.3.5-.6.6.1 0 0 .2 0 .2 0 .3-.5.3-.3.6l-.2.1-.3.4-.1.3h-.2v.1c-.1 0-.2.3-.3.2l-.4.8v-.2.2c-.2 0 0-.1 0-.2-.3.1-.2.5-.5.6v.2h-.2l-.2.4v.2h-.2c.1 0 0 .1 0 .1v-.1l-.2.3v.1c0 .1 0 .3-.2.4h.1c0 .2-.1.3-.3.4l-.1 1c-.3 0 .3.1-.1 0h-.2v-.3l.1-.8v-.3c0-.8.2-.3.1-1v-.2c-.2-.8.1-.4 0-1.2 0 .3-.2 0 0-.3v.1-.4l.1-.3v.3-.6c.2-.5.2-1.2.4-1.4l.1-.5.1-.7c0 .2.2-.3.2-.1l.3-1.3c.5-1 .6-1.8 1.1-2.6 0 0 .2-.5 0-.4.4-1 1.2-1.5 1.1-2l.6-.6v.1l1.1-1.3.7-.7c-.1.2 0 0 .2-.1 0 0 0 .1.1 0l.1-.1.1-.1 1-.6 2.4-1.4c.1 0 0 .2-.3.3l.6-.3-.5.3c.8-.2 1.5-.7 2.4-.8l.2-.1.3-.2c.2 0 0 .2.5 0 .4 0 1-.2 1.4-.4-.2 0-.1 0 0 0h.5l.7-.2-.4.1 1.4-.2c.4-.1-.1 0 0-.2l1.4-.2h-.1c.8-.2 1.3-.2 1.8-.1 3-.5 3.4-.6 3-.8l-1.7-.2a27 27 0 0 0-6.6.8c-2.5.5-3.3.5-5.8 1.6-.6.2-1.1.6-1.7.9l-1.7 1.1-.8.8-.8 1-.3.1-.5.7-.5.7-.2.4-1 1.6h.2c-.7 1-.6 1.5-1.1 2.5-.3 1.4-.9 2-1 3.5.1-.2 0 .1 0 0 0 .7-.2 1.4 0 1.5 0 .4-.1.4-.2.4v.8-.2 1.1l.1-.2c0 .6-.2.1-.2.7h.1l-.1 1-.1.4v.3l-.1.3v1c1.5.4 2 .3 2.8.3a21.5 21.5 0 0 0 2.3 0l4.3-.8h.1c.1.2.8-.3 1-.3l.2-.1h.2l.5-.2h.3c1.2-.5 2.1-1.1 3.3-1.8.7-.3 1.6-1 2.5-1.8l1.2-1.2 1-1.2 1-1.5 1.2-1.6a11.7 11.7 0 0 0 1.5-3.9l.6-2.2.2-1.6c.2-.9.2-2 .2-2.8 0-.8-.2-1.4-.4-1.2zm-143.8 4.1c.9 2.4 1 3.2 2.5 5.5.3.6.8 1.1 1.2 1.7l1.4 1.4.9.8a8 8 0 0 0 1 .7l.2.2.7.4 1 .4h-.1c.1 0 .3 0 .4.2l1.7.6c1.2.4 1.7.3 2.8.6.7 0 1.2.2 1.8.3.5 0 1.1.2 1.8 0-.1.1.1.1 0 .2.8 0 1.5 0 1.5-.2h1.3-.2l1-.1-.2-.2c.6 0 .2.2.7.1h2.2l1-.3-.1-2.8-.5-2.3a37 37 0 0 0-1.4-4.2v-.2c.2 0-.4-.6-.4-.8l-.2-.3s-.1-.3 0-.1l-.3-.5v-.3a17 17 0 0 0-2.3-3A11 11 0 0 0 96 313l-1.4-1-1.3-.9-1.7-.8-1.8-.9c-1.3-.5-2.6-1-3.9-1a.8.8 0 0 0-.3 0 22.1 22.1 0 0 0-2.3-.2s-.7-.1-1.6 0a16.4 16.4 0 0 0-2.9.2c-.8.2-1.4.4-1.2.5.2.2 1 .1 3.1.3h2.8l1.2.1c.7 0 1.5.3 2.2.4h-.2l1.2.3c1.2.3 2.8 1 3.5 1.2l1 .4c.5.3 1.2.9 1.6 1l.7.7-.2-.2c.2-.1.5.5 1 .9.5.5 1.3.6 1.7 1.2.3.2-.3-.1 0 .2 0 .1-.1-.1 0 0l.8 1.1v.1l1.1 1.6c.5.7.1.6.6 1.2l.1.4.4.5v.3c.3.9.8 1.6 1 2.8.2.2.3.8.4 1 0 0 .3 1.1 0 .5v-.2c0 .7.3 1.2.3 1.8v-.3l.2.6-.1-.1a9.3 9.3 0 0 1 0 1l.1-.2v1c0 .3.1-.3.2.1l-.1.2H101c.1.2 0 .2-.3.2-.8.1-.3-.2-1.1 0h-.1c-.8.3-.4 0-1.2.2.3 0 .1.1-.3.1h.1-.4l-.3-.1.2-.1-.6.1-1.4-.1h-1.2c.2-.1-.3-.2-.2-.3a3 3 0 0 1-1.3 0c-1-.4-1.9-.4-2.8-.8 0 .1-.5 0-.4 0-1-.2-1.7-.9-2.1-.8l-.7-.4-1.4-1c-.3-.2-.4-.1-.8-.5.2 0 0-.1-.2-.3 0 .1.2.1 0 0l-.2-.2c-.2-.3-.2-.2-.1 0-.2-.4-.7-.8-.7-1l-1.7-2.2.3.3-.4-.6.4.5c-.3-.7-1-1.4-1.2-2.3l-.2-.1-.2-.4c0-.1.2 0 0-.4l-.6-1.4c0 .2 0 .1 0 0-.2-.2-.1-.3-.2-.5l-.3-.6c0-.2.2.3.2.3l-.4-1.3c-.2-.5 0 0-.2-.1l-.4-1.3v.1c-.3-.8-.3-1.3-.4-1.8-.9-3-1-3.4-1.2-2.9v1.8c.2 2.5.7 3.7 1.7 6.5zm39.8-2.7-.8.4-1 .4s0 .2-.2.3h-.1c-.6.3-.3-.1-1 .2h.1v.2c-.6.4-.5 0-1 .4.2 0 .1.1-.2.2l-.3.1h-.3l.2-.2-.5.3-1.2.3-.5.1a2 2 0 0 0-.6.2c.2-.1-.3 0-.2-.1-.2.1-.9.3-1.2.2-1 0-1.6.4-2.5.3 0 0-.5 0-.4.1h-1.4a.5.5 0 0 0-.1 0v-.5.1-1.6c0-.3-.2-.4-.2-1v-.2c0 .2 0 .2.1 0v-1.4l.2-2.5v.3-.6c.2 0 0 .4 0 .6.3-.7.2-1.5.4-2.3v-.6c.1 0 .2 0 .3-.3l.3-1.4c-.1.3-.1.2-.1 0l.2-.4.1-.6c.1-.1 0 .3 0 .4l.5-1.2c0-.4-.1 0-.1-.2 0-.4.2-.7.5-1.1h-.2a4 4 0 0 1 .9-1.4l.4-.8.3-.7.4-.8c.2-.4.1-.4 0-.3a9.8 9.8 0 0 0-2.7 3.6c-.3.4-.5.9-.6 1.4l-.6 1.7c-.7 2.2-1 2.8-1.2 5.3a28.1 28.1 0 0 0-.2 3.5c.2.6 0 1.5.2 2.2v1.1l.1.8h.7l.6.1h1.7c1 0 1.4-.3 2.5-.3 1.2-.4 2-.2 3.2-.7-.2 0 0 0 0 0 .6-.1 1.3-.4 1.2-.5.4-.2.3-.1.4 0l.7-.4a.6.6 0 0 1-.2 0l1-.3h-.3c.5-.3.2 0 .6-.2v-.1l1.8-.6a24 24 0 0 0 6.6-5.6h.2l.4-.7.1-.3c.1 0 .2-.2.2 0l.2-.5.2-.3c.7-1 1-1.9 1.5-3 .8-1.2 1.4-4 1.5-5.5l.4-3.5.1-1.8v-1.4l-.2-.7v-.4h-1.6l-1 .1-1.4.2a20.4 20.4 0 0 0-2.5.5c-.8.2-1.3.4-1.1.5h2.8v.1c1 0 1.7-.1 2.5-.3h1a.6.6 0 0 1 .3 0 2.7 2.7 0 0 1 0 .2v.6-.2 4.5l-.1 1-.3 1.7-.2.8v-.3c.2.2-.2.6-.3 1.3-.2.5 0 1.3-.3 1.8 0 .3 0-.3-.2.2v-.2l-.6 1.2-.9 1.6c-.3.6-.4.3-.7 1l-.2.1c-.2.3 0 .3-.3.5l-.2.2c-.6.6-1 1.3-1.8 2 0 .2-.5.5-.6.7 0 0-.8.7-.4.2v-.2c-.5.3-.7.8-1.2 1h.3l-.5.3v-.1l-.6.4h.1l-.9.5c-.1.2.4 0 0 .2zM222 357c-.4-.3-1.8-.8-1.8-.8-2.6-1-4.1-1-7.4-1.5l-3.4-.3-3.5.1c-.7 0-1.5.2-2.2.4l-2.2.7-1.2.5-1.2.7-.3.1-.8.5-.8.7c-.2 0-.3.2-.4.3l-1.5 1.4c-1 1-1.1 1.5-2 2.4L192 364a7 7 0 0 0-1 1.9c0-.2-.1 0-.1 0-.4.7-.7 1.4-.5 1.5-.3.5-.3.4-.4.4 0 0 0 .5-.2.9v-.2l-.5 1.1.3-.2c-.3.6-.3.1-.5.7h.1c-.3.9-.7 1.3-1 2.1l-.3 1.2 1 .5.3.2h.3l1.2.5 2.6.7c1.7.4 3.4.6 5 .7v.2c.1 0 1-.2 1.2-.1h1.5c1.5 0 2.7-.4 4.2-.8a14 14 0 0 0 3.4-1l1.7-1 1.5-.9 1.7-1.2 1.8-1.5a15 15 0 0 0 3-3.6l1.4-2.2.8-1.7c.5-.9 1-2 1.2-3 .3-1 .3-1.7.1-1.5-.2 0-.5 1-1.7 3l-1.3 2.9c-.2 0-.6 1-.8 1.2l-1.5 2 .1-.2c-.3.4-.8 1-1 1-.8 1.1-2.3 2.4-3 3h.1c-.3.4-.5.4-1 .8-.4.4-1.4.9-1.7 1.1h-.1l-1 .5.4-.2c0 .2-.8.3-1.5.7-.7.2-1.3.9-2.1 1-.4.2.2-.2-.3 0 0-.1.3-.1.1-.2l-1.5.4v-.1c-1 .3-1.7.2-2.3.4-.9.1-.6-.2-1.6 0l-.3-.1c-.4 0-.3.1-.8 0h-.3c-1-.2-2 0-3.3-.4h-1.2s-1.3-.3-.6-.3h.4c-.7-.3-1.3-.2-2-.5.1.1.4.2.2.2l-.6-.2h.1l-1-.4h.2l-1.2-.5c-.2 0 .4.4 0 .2l-.2-.1-.1-.1v-.2l.2-.2.3-.8c-.1 0 0-.2 0-.4h.1c.2-1 .3-.3.5-1.1v-.2c.2-.9.3-.4.5-1.3-.1.3-.2 0 0-.3v.1c0-.2 0-.3.2-.4l.2-.3v.3l.1-.7.9-1.4.3-.5.3-.7c0 .2.3-.3.3-.1a4 4 0 0 1 .8-1.3c.8-1 1.2-1.7 2.1-2.5 0 0 .4-.4.2-.4.8-.9 1.7-1.3 1.9-1.7.4-.4.6-.3.8-.5l-.1.1 1.8-1c.3-.2.3-.3 1-.5l.3-.1c-.2 0-.2 0 0 0h.3c.4-.2.3-.2.1-.2.4 0 1.1-.3 1.2-.2l3.2-.7-.4.2.7-.1h-.7 3.2l.4-.1.5.2h1.8-.1.6v.2c-.1-.1.7 0 .8 0h-.5l1.6.2c.5 0-.1 0 .2-.1.5 0 1 0 1.5.3l-.1-.2a8.4 8.4 0 0 1 2 .6c3.5.6 4 .7 3.5.3zm-24 47.5a25 25 0 0 0-8.6-4.2l-3.2-1a19 19 0 0 0-3.4-.7l-2.3-.1c-.7 0-1.5 0-2.2.2a8 8 0 0 1-1.3.2 6.9 6.9 0 0 0-1.4.5h-.3l-.8.4-1 .4-.5.2-1.7 1v.1c-1.2.7-1.4 1.2-2.5 2v-.1l-1.5 1.4c-.5.5-1 .9-1.4 1.6.1-.2 0 0 0 0-.6.6-1 1.3-1 1.4l-.3.3-.5.8.1-.2-.7 1h.3c-.4.4-.3 0-.6.5h.1l-1.4 1.9-.6 1 .8.7.6.4 1.1.7 2.3 1.2c1.6.8 3.2 1.3 4.7 1.8l.2.1c0 .2 1 0 1 .2h.4c.1 0 .3.1.1.1h.7a2.4 2.4 0 0 0 .4.2c1.4.3 2.6.2 4.2.2h1.6l2-.3 1.8-.5 1.6-.6 2-.9 2-1a14.5 14.5 0 0 0 3.8-3l1.8-1.8 1.1-1.4c.7-.8 1.4-1.9 1.8-2.8s.7-1.5.5-1.4c-.2 0-.8.9-2.3 2.7v-.1l-2 2.5c-.2 0-.8.8-1 1-.5.7-1.3 1-1.9 1.7l.1-.2a5 5 0 0 1-1 .8c-1.2.9-2.9 1.8-3.6 2.3l-1.1.6-2 .7-1.1.2h.4c-.1.1-.9 0-1.6.3-.8 0-1.5.6-2.3.5-.4 0 .3-.2-.3 0 0-.2.3-.1.1-.2h-1.5l-2.3-.2c-1 0-.6-.2-1.6-.3l-.3-.2h-.7s-.6-.2-.3-.2c-1-.3-2-.4-3.2-1-.3 0-.9-.4-1.1-.4 0 0-1.3-.5-.5-.3h.2c-.6-.4-1.2-.5-1.9-.9l.3.2-.6-.3h.1l-.8-.6v.1c-.4-.3-.4-.5-1-.7-.2-.1.4.4 0 0h-.2v-.3l.2-.2.5-.7.1-.4c.5-.9.4-.2.8-1v-.2c.4-.8.4-.3.8-1.2-.2.3-.2 0 0-.3v.2l.3-.4.3-.2v.2l.2-.6 1.1-1.1.4-.5c.3-.2.5-.5.5-.6 0 .2.4-.2.3 0a4 4 0 0 1 1-1.1c1-.8 1.6-1.5 2.7-2-.1 0 .4-.4.2-.4 1-.7 2-.8 2.3-1.3l.9-.2h-.1a12.9 12.9 0 0 1 2-.6c.3 0 .3-.2 1-.3h.8c.4 0 1.1-.2 1.2 0h3.3-.5l.8.1h-.7c.9.2 1.8.2 2.9.5h.5c.2.2 0 .2.5.4l1.7.4c-.3 0-.2 0 0 0l.5.1v.1l.8.2h-.5l1.5.5c.5.2 0-.1.2 0 .5 0 1 .2 1.4.5l-.1-.1c.9.3 1.4.6 1.9 1 3.3 1.2 3.7 1.3 3.4 1zm-64.2-1.1c0-.2-.2-.3-.3-.4a26.8 26.8 0 0 0-4.5-2.7l-1.8-1-2.3-.9-2.4-.6-2.1-.3-2.7-.2-2.9-.1c-1.9 0-3.8.2-5.5.8a1.3 1.3 0 0 0-.4.1l-1.6.4-1.5.6-2.1.8c-1.2.5-2.6 1.3-3.7 2-1 .6-1.6 1.2-1.4 1.2.3 0 1.4-.6 4.1-1.7v.1l3.7-1.6 1.7-.5 1.6-.4 1.5-.3h-.3l1.8-.2 5.4-.3h-.1 1.6c.7 0 2 .4 2.6.5l1.4.4-.5-.1c.2-.1 1 .3 2 .6l1.4.4c.5 0 1 .2 1.4.5.5.1-.4-.1.2.2 0 0-.3-.1-.2 0l1.8 1c1 .5 1.8 1.2 2.4 1.5 1 .7.5.6 1.5 1.3l.3.4c.4.3.4.1.8.5 0 0 .5.5.2.3.9 1 2 1.7 3 3.2l1 1c0 .1 1 1.4.3.7 0 0-.1-.2 0-.2h-.2c.4.8 1 1.4 1.5 2.2 0-.3-.3-.6-.1-.4l.4.8-.1-.2.6 1.2v-.2c.3.6.2.8.6 1.4.2.3-.1-.6.2 0l.1.6h-.1l-.2.1-.2.1-1 .6-.4.3c-1 .6-.5 0-1.5.6l-.2.2c-.9.6-.5.1-1.5.8.4-.2.2 0-.3.3l.1-.2-.6.3h-.3l.2-.1-.7.4-2 .7-.7.2-1 .4c.3-.2-.4 0-.3-.1-.3.2-1.4.5-1.8.5l-2 .4c-.7.2-1.4.2-2.1.2 0 .1-.7.1-.5.2-1.5.2-2.7-.2-3.3.1-.7 0-.8-.2-1.2-.2h.2l-2.5-.5c-.5-.2-.6 0-1.4-.4l-.4-.1c.2 0 .3 0 0-.2h-.3c-.5-.2-.4-.2-.2 0l-1.4-.8-3.5-2.1.5.2-.8-.5.7.4c-.8-.7-1.9-1.3-2.8-2.3l-.3-.2-.4-.3-.4-.6a23 23 0 0 0-1.5-1.4c-.3-.2-.3-.4-.5-.6l-.7-.7c-.1-.2.3.3.4.3l-1.3-1.5c-.5-.5 0 .2-.2 0l-1.3-1.6.1.2c-.8-.9-1.1-1.5-1.5-2.2-2.7-3.5-3-4-2.9-3.3a26.2 26.2 0 0 0 3.6 6l3.3 3.8 1.6 1.8 1.3 1.3c.9.8 1.8 1.6 3.4 2.7.7.6 1.6 1 2.4 1.5.9.4 1.7 1 2.6 1.2l1.6.5 1.8.3.3.2 1.2.1 1.3.1h.6v.1l2.6-.1c1.7-.1 2.3-.5 4-.6h-.1c1-.4 1.7-.5 2.5-.7l1.2-.3 1.3-.5h.1c.9-.4 1.8-.8 1.8-1 .6-.2.5-.1.6 0 0-.2.5-.4 1-.7l-.2.2 1.4-.7h-.3l1-.3-.2-.1 2.7-1.2.2-.1.3-.2.7-.5-.3-.6-.2-.6-.4-.7-.8-1.5-1.8-2.7a46.8 46.8 0 0 0-4-4.8l-.2-.2c0-.2-1-.7-1-.8l-.4-.3c-.1-.1-.3-.3-.1-.2l-.8-.5zm31.4-66.4-.2 1.8c0 2.6.3 4 1 7 .6 2.7.6 3.5 1.8 6.1l1 1.9 1.2 1.7.9.9 1 .9.2.2.6.5.9.6.4.2h-.1l1.7 1v-.1c1.2.6 1.7.6 2.8 1v.1l1.8.5a6 6 0 0 0 2 .4c-.2 0 0 0 0 0 .7.2 1.5.2 1.5 0 .5.1.4.2.5.3 0-.1.4-.1.8 0h-.2 1.1l-.2-.2c.6.1.2.2.8.2v-.1c.8 0 1.2.3 2.1.3h1.2l.1-1v-.7l.1-1.3a24.8 24.8 0 0 0-.1-2.4c-.2-1.6-.5-3.2-.9-4.6v-.2c.2 0-.4-.8-.3-1l-.2-.2v-.2c0-.3 0-.3-.2-.5v-.4c-.6-1.3-1.2-2.2-2-3.4-.3-.8-1-1.8-1.9-2.7l-1.3-1.3-1.3-1-1.6-1.2-1.8-1.1a14 14 0 0 0-4.1-1.6l-2.4-.6-1.7-.3h-3c-1 0-1.6.1-1.4.3l3.2.6 2.9.4c0 .2 1 .2 1.3.3.8.1 1.5.6 2.2.7h-.2l1.2.5 3.5 1.7 1 .6 1.5 1.3.7.8-.3-.3c.2 0 .5.6 1 1.1.4.6 1.3.9 1.6 1.5.2.3-.3-.1 0 .3 0 0-.1-.2-.1 0 .3.3.4.7.7 1.2.5.7.6 1.5 1 2 .4.7 0 .5.5 1.3v.3c0 .4.2.2.3.6v.3c.1 1 .6 1.8.7 3.1l.3 1c0 .1 0 1.3-.1.6v-.2c-.2.7 0 1.2 0 2 .1-.3.1-.5.2-.4v.7l-.1-.1v1-.2c0 .5-.2.6-.1 1.2 0 .2.1-.5.1 0v.2h-1.6c-.9 0-.3-.2-1.2-.1h.1-.2c-.8.2-.4-.1-1.3 0 .4 0 .2.2-.3 0h.1-.4l-.3-.1h.3-.7c-.5-.2-1.3-.2-1.4-.4h-.6c-.3-.2-.6-.2-.7-.2.2 0-.4-.2-.2-.2l-1.4-.3h.1c-1-.5-2-.6-2.9-1.1 0 0-.5-.2-.4 0-1-.5-1.6-1.3-2.1-1.2l-.7-.6h.1l-1.4-1.2c-.2-.3-.4-.2-.7-.7l-.2-.2c.1 0 .1 0 0-.2a.3.3 0 0 1-.1-.1c-.3-.3-.3-.3-.2-.1-.1-.3-.6-.9-.5-1l-1.6-2.6c0-.1.2 0 .3.3l-.3-.6.3.5c-.2-.8-.7-1.5-1-2.5v-.2l-.3-.4c0-.1.2 0 0-.5 0-.4-.2-1-.4-1.5 0 .2 0 .2 0 0l-.1-.5-.2-.8.2.4-.2-1.4c-.2-.5-.1 0-.2-.1l-.2-1.5-.1.2c-.2-.9-.2-1.4-.2-2-.5-3.2-.6-3.6-.8-3.1zm-48.6 22-.3-.3c-1.2-.9-2.4-1.4-3.8-2l-1.5-.7-2-.6-2-.4h-1.7l-2.2-.1h-2.3a15.2 15.2 0 0 0-4.7 1.1 25.1 25.1 0 0 0-2.5 1s-.8.3-1.7.8c-1 .5-2 1.2-2.9 1.8-.7.6-1.2 1.1-1 1.1l3.3-1.4 2.9-1.5c.2.1 1-.4 1.4-.5.7-.4 1.7-.4 2.4-.7l-.2.1 1.4-.3c1.4-.3 3.4-.5 4.3-.6h1.3l2.1.2 1.1.3-.4-.1c.2-.1.9.3 1.7.4.7.3 1.6 0 2.3.5.4 0-.3 0 .2.2h-.1l1.4.7v.1c1 .3 1.5.9 2 1 .9.5.5.6 1.4 1l.2.3c.4.3.3 0 .7.4 0 0 .4.4.2.3.7.7 1.7 1.2 2.5 2.3.3.2.7.7 1 .8-.1 0 .8 1 .2.6 0 0-.1-.2 0-.2h-.2c.4.7 1 1 1.4 1.7l-.2-.3.4.6h-.1l.6.8v-.2l.5 1.2c.2.2-.1-.5.2 0v.3h-.1l-.2.1-.8.5c.1 0 0 .2-.3.3-.8.6-.4 0-1.2.6v-.1.2c-.7.6-.5.1-1.3.8.4-.2.3 0-.2.2l.1-.1-.4.3c.1-.1 0-.2-.3 0l.2-.2-.6.4-1.5.6-.6.3c-.3 0-.7.2-.8.3.2-.1-.4 0-.2 0a4 4 0 0 1-1.5.5c-1.2.2-2 .6-3.3.7.1 0-.5.1-.4.2-1.2.2-2.2 0-2.6.2h-1 .2l-2.1-.4c-.4 0-.5.1-1.2-.1.3 0 0-.1-.3-.2.2 0 .2 0 0 0h-.3l-.1-.1c-.4-.2-1.2-.4-1.2-.6l-3-1.4.5.1-.7-.4.6.3c-.7-.6-1.6-1-2.4-1.7l-.2-.1-.4-.3-.3-.4-1.4-1.2c.2.2.1.2 0 .1l-.4-.4v-.1l-.6-.5c0-.2.3.2.4.2l-1.1-1.1c-.5-.4 0 .1-.3 0l-1-1.2v.2c-.7-.7-1-1.2-1.4-1.8-2.4-2.6-2.7-3-2.6-2.4.2.6 1 1.8 1 1.8 1.6 2.4 2.7 3.4 5.2 5.8l2.5 2.4c.7.6 1.5 1.2 2.9 2l2 1.1 2.2.8c.4 0 .9.2 1.4.4l1.4.1.3.2h2a4.5 4.5 0 0 0 .6 0h-.1l2.2-.3h-.1c1.4-.1 1.9-.5 3.2-.7l2-.7c.6-.1 1.2-.4 2-.8-.2.1 0 0 0 0 .8-.3 1.5-.7 1.4-.9.5-.2.4-.1.5 0 0-.2.4-.4.8-.6h-.2l1.1-.6h-.3c.6-.2.3.1.8-.2v-.2l2-1 1-.7-.4-1-.4-.7-.7-1.1-1.7-2.1a40.6 40.6 0 0 0-3.6-3.7v-.2c0-.1-.9-.4-1-.6l-.3-.2c0-.1-.2-.3 0-.2l-.6-.3zm22.4-34c-.6 0-2 .6-2 .6-2.6 1.1-3.9 2-6.7 4l-2.8 2c-.7.6-1.5 1.2-2.6 2.4l-1.4 1.8c-.4.7-1 1.3-1.2 2l-.6 1.3a9.3 9.3 0 0 0-.5 1.4l-.1.2-.2 1-.3 1v.6-.1l-.2 2.1.1 3.3.3 2c0 .7.1 1.4.4 2.2 0-.2 0 0 0 0 .2.8.4 1.6.6 1.6v.5l.4.8v-.1l.3 1.1v-.2c.3.6 0 .2.2.8h.1l.6 2.2.6 1.1 1-.3.7-.2 1.3-.5 2.4-1.2c1.6-.9 3-1.8 4.3-2.8h.2c.1 0 .6-.8.8-.8l.2-.3c.1 0 .3-.2.2 0l.4-.5.4-.3c1-1 1.7-2 2.6-3.3l1-1.4 1-1.7.7-2 .5-1.6.5-2.2.3-2.3a15.5 15.5 0 0 0-.1-4.9l-.4-2.6-.5-1.8-1.2-3.2c-.4-.9-.9-1.4-.9-1.2l.8 3.5.8 3 .2 1.6c.3.8.2 1.7.3 2.5v-.2 1.4c0 1.5-.2 3.4-.3 4.4v-.1l-.2 1.2v.1c0 .6-.5 1.6-.6 2l-.5 1.1.2-.4-.7 1.6c-.4.6-.4 1.6-1 2.2-.1.3 0-.4-.2.1 0 0 .1-.2 0-.2l-1 1.3c-.5.8-1.2 1.3-1.5 1.8-.6.7-.6.3-1.2 1.1l-.3.2-.5.6c0-.1-.5.3-.3 0-.9.7-1.6 1.5-2.8 2.1-.2.3-.8.6-1 .8 0 0-1.2.6-.6.1h.2v-.1c-.7.2-1.2.7-1.9 1 .2 0 .5-.2.3 0l-.6.2v-.1l-1 .4h.2c-.3 0-.5 0-.7.2a3 3 0 0 1 0-.5c.3-.5.5-.6.6-1.2l.2-.8c0-.1.2-.3.1-.5h.1v-.2c0-.1.1-.2 0-.2h.1v-.1l.1-.4c.1-.2 0-.4.2-.5-.1-.4.3-.4.2-.8v-.3l.1-.1v-.4h-.1.2l-.1-.1c0-.2.3-.2.4-.3.3-.7.3-1.5.7-2 .2 0 0-.2.1-.2v-.2h.1c.2-.3.1-.6.3-.8.3-.3.3-1 .4-1.3 0-.6.7-1 .7-1.6l.2-.5s1-2.2-.7-.9c-.2.2-.3.4-.2.6-.2 0-.1.2-.2.3 0 .1-.3.2-.2.4l-.2.2-.2.8v.3l-.1.4-.1.1c.2 0-.2 0-.1.3 0 .1.3.4.1.5 0 .1-.1-.1 0 0h-.2s-.2 0-.1.2h-.1c0 .2-.2.3-.1.4 0 .2-.3 0-.2.3h-.1v.2h-.2c-.1.2 0 .4-.2.6v.3s0 .3-.1 0c-.2.1 0 .3-.2.4h.1v.1l-.2.1h.1c0 .1-.2.1-.1.3 0 0 .1 0 0 0l-.2.4v.1c0 .2-.2 0-.2.2h.1c0 .3-.2.1 0 .4 0-.1.1 0 0 0v.1h-.1v.1c-.1 0 0 .3-.2.3v.3c-.1-.1-.2 0-.2 0v.3c-.3.1-.1.4-.3.6l.1.1c0 .3-.4.3 0 .5l-.2.2a1.6 1.6 0 0 1-.1.3v.3h-.1v.1c0 .1 0 .3-.1.2v.7l-.2-.1v.1-.1c-.2.1 0 .4-.2.5v.1l.1.1h-.2v.7-.2l-.2.3-.1-.5c0 .1-.2 0-.3-.3-.4-1 .1-.4-.3-1.3l-.1-.1c-.5-.8 0-.5-.5-1.3.1.3-.1.2-.2-.3v.1l-.1-.5v-.3l.2.3-.3-.7c-.1-.5-.4-1.4-.3-1.6l-.2-.6c0-.3 0-.7-.2-.8.1.2 0-.4.2-.2a4 4 0 0 1-.3-1.6v.1c0-1.3-.2-2.2 0-3.4-.2 0 0-.6-.2-.4 0-1.3.5-2.2.3-2.7 0-.6.2-.6.3-1v.2l.7-2c.1-.3 0-.5.3-1 0 .2.1-.1.2-.3 0 .1 0 .2.1-.1l.1-.2c.2-.4.2-.3 0-.1l.8-1 2-2.7-.2.4.5-.6-.4.6c.7-.6 1.3-1.5 2.2-2.1l.1-.2.3-.3.5-.2 1.4-1.1c-.3.1-.2 0-.1 0l.5-.4h.1l.6-.5c.2 0-.3.3-.3.4l1.3-1c.5-.3-.1 0 0-.1l1.4-.9h-.2l2-1c3-1.9 3.4-2.1 2.8-2zm-14.6 33.5v.2-.2z"/><path d="M135.7 330.8c-.1 0-.2.2-.1.3-.2 0-.1.2-.2.2 0 .1-.2.1-.2.3 0 0 0 .1-.1 0-.1.3-.3.5-.2.7v.1l-.1.3-.1.1c.1 0-.2 0-.1.2 0 0 .2.3.1.4 0 0-.1-.1 0 0h-.4c0 .2-.3.2-.2.4 0 .1-.2 0-.1.1h-.1v.1h-.1c-.2.1 0 .4-.3.4.1.1 0 .2 0 .2s0 .2 0 0h-.1c-.2 0 0 .2 0 .3h-.1l-.1.1s-.1 0 0 .2a1.2 1.2 0 0 0-.2.3c0 .2-.2 0-.2.2.2.2 0 0 0 .2l.2.1h-.2v.1c-.1 0 0 .2-.2.2v.2h-.2v.2c-.1 0 0 .3-.2.4h.1c0 .3-.3.3 0 .5h-.2v.5h-.1l-.1.2v.5l-.1-.1c-.1 0 0 0 0 0-.2 0 0 .3-.2.4v.1c-.2 0-.1.2-.1.2v.1h-.1v.5h.1l-.1.3c.2 1.1.8.6.8.6.3-.3.1-.6.3-1 .2-.4.4-.4.5-.8 0-.1 0-.3.2-.5-.1-.2 0-.3 0-.4l.1-.1v-.2h.1a.3.3 0 0 1 0-.2c.2-.2 0-.3.2-.4-.1-.3.3-.3.2-.6 0 0 .1-.1 0-.2v-.2l.1-.1h-.1c0-.1.1 0 .1 0v-.1l.3-.2c.3-.4.2-1 .6-1.3h.1c.2 0 0-.2 0-.1 0 0 0-.1 0 0 .1-.1.1-.1 0-.2h.2c.1-.1 0-.3.2-.5.2-.1.3-.6.4-.9 0-.4.6-.5.6-1l.2-.3s.8-1.4-.8-.8zm-2.8 4.9zm22.5 25.6c-.3.4-.7 1.7-.7 1.7-.8 2.5-.9 3.9-1 7-.3 2.7-.5 3.5 0 6.4 0 .7.3 1.3.4 2 .3.7.4 1.4.8 2l.5 1.1.7 1.1.1.3.5.7.7.8.3.3 1.4 1.4v-.1c.9 1 1.4 1 2.3 1.8.7.3 1.1.7 1.6 1 .5.4 1 .7 1.8 1-.2-.1 0 0 0 0 .6.3 1.3.6 1.4.4.5.2.4.2.4.3l.9.2h-.2l1 .4-.1-.2c.5.2 0 .2.6.3.9.2 1.2.5 2 .8l1.2.3.4-1 .1-.3.1-.3.4-1.2.5-2.4c.3-1.6.4-3.1.5-4.6l.1-.2c.1 0-.2-.8-.1-1v-.5l-.1-.6v-.3c0-1.4-.5-2.5-.8-3.8-.2-.9-.6-2-1.1-3.2l-1-1.6-.9-1.3-1.3-1.5-1.4-1.6a13.4 13.4 0 0 0-3.5-2.7l-2.1-1.2-1.5-.7-3-1c-.8-.1-1.5-.2-1.4 0l3 1.5 2.6 1.2c0 .2 1 .5 1.2.7.7.2 1.3.9 2 1.2h-.3a29.6 29.6 0 0 1 4 3.4l.7.8c.4.4.9 1.3 1.1 1.7l.5 1-.2-.4c.2 0 .3.7.7 1.3.2.7 1 1.2 1 2 .3.2-.2-.3 0 .2 0 0 0-.2-.1 0l.4 1.3h-.1c.3.8.2 1.6.4 2.1.2.8 0 .6.1 1.5v1.3c-.1.9.1 1.9-.2 3.1v1.1s-.2 1.2-.2.5v-.2c-.3.6-.2 1.2-.4 2l.1-.4-.1.7v-.2l-.3 1v-.2l-.4 1c0 .3.3-.3.1.2l-.1.2h-.1l-.2-.2-.8-.2h-.4v-.1c-.9-.2-.3-.2-1-.5l-.2.1c-.8-.1-.4-.3-1.2-.4.3.1 0 .2-.3 0l-.4-.2c.2 0 .1 0-.2-.2h.3-.7c-.4-.3-1.1-.6-1.2-.8l-.6-.3-.6-.3c.2 0-.3-.2-.1-.2-.3 0-1-.5-1.3-.7h.1c-1-.7-1.7-1-2.5-1.9 0 .1-.4-.3-.4 0-.8-.8-1.2-1.7-1.7-1.8l-.4-.7-1-1.5c-.1-.3-.3-.3-.5-1 .1.2 0 0 0-.2v-.1l-.1-.2c-.2-.4-.2-.3-.1-.1l-.3-1-.8-3c0-.2.2 0 .2.4v-.7.6c0-.9-.3-1.7-.2-2.7v-.2l-.1-.5.1-.4c.1-.4 0-1.1 0-1.6 0 .2 0 .1 0 0v-.6h.1v-.7.5l.2-1.5c0-.5-.1 0-.1-.2l.1-1.4v.1a7.2 7.2 0 0 1 .4-2c.3-3.2.4-3.6 0-3.2zm-41.4-64 .2-.1c.7-.4 2-1 2.7-1.2a.5.5 0 0 0-.3-1l-2.9 1.3c-.2.1-.3.4-.2.7a.5.5 0 0 0 .4.2zm2.7 109h-.1c-.6-.3-1.1-.3-1.7-.4-.7-.4-2.2-.5-3-.6-1.2 0-2.4-.9-3.6-.9l-1.1-.2s-5.2-1-1.5.8c.6.2 1 .3 1.4.2 0 .2.4.1.6.2.3 0 .6.3 1 .2h-.1l.6.2c.6.1 1.4.3 1.8.2l.5.1.9.2.5.1h-.2c0-.2.3.2.7.1.3.1.7-.2 1 0h.1c0 .2-.1.1 0 .2l.6.2c.4 0 .6.3.9.3.4 0 .2.2.6.2l.2.1h.3c0 .1.2.2 0 .2.5.2 1 0 1.5.4h.5s.6.2.2.2h-.1c.3.2.6.1.9.2h-.1.3-.1l.4.2c.2 0 .2.2.5.1.1 0-.2-.1 0 0l1 .4h.3c.3 0 0 .2.4.2h.7c-.1 0 0-.1.2 0h-.1.2l.1.2h-.1.3c.2.1.6.1.6.3 0 0 .5.2.6.1 0 0 .1.1 0 .2l.7.1c.5.3 1 .2 1.3.5 0-.1.3 0 .2 0 .6 0 .8.4 1.1.2.3 0 .3.1.4.2l.8.3c.1 0 .2-.2.5 0-.1 0 0 0 0 0l.1.2h.1c.2 0 .2 0 0 0 .2 0 .6.1.5.2l1.4.4h-.2l.3.1h-.3c.3.2.8.1 1.2.4h.3l.1.2c.2.2.5.2.7.2h.2v.2c0-.1.3 0 .4 0h-.3l.7.3c.2 0 0-.1.1-.2l.6.3v-.1c.4 0 .6.2.8.4 1.5.3 1.7.2 1.6 0l-.7-.6c-1-.7-1.6-.7-3-1.2-1-.5-1.3-.8-2.5-1.2l-1.8-.6-1-.3-.1-.1-.4-.1-.4-.1-.2-.1c-.3 0-.6-.2-.8-.3v.1c-.5-.3-.8-.2-1.3-.4-.7 0-.9-.5-1.6-.5v-.1c-.3 0-.7-.2-.7 0-.3 0-.2 0-.2-.2 0 .1-.2 0-.4 0h.1-.5c-.2 0 0-.1-.2-.2v.1c-.4 0-.6-.3-.9-.5-1.4-.5-3-.6-4.4-1.2 0-.2-.5 0-.5-.1h-.2v-.1h-.2zm438-158.6zM494.3 281c-1.6 1-3.8.1-3.8.1l-.3 1s1 .4 2.2.4a5 5 0 0 0 2.4-.6c1.2-.7 2-2 2.3-3.7l-1-.2c-.2 1.5-.8 2.5-1.8 3zm12.7-11.6c.2 1.4 0 2.5-.8 3.3-1.3 1.4-3.6 1.3-3.6 1.3v1h.1c.6 0 2.8 0 4.2-1.6 1-1 1.3-2.4 1.1-4.2l-1 .2zm-3 9.7a1 1 0 0 0-1 0l-1.8 1.3a1 1 0 0 0-.4 1c.1.4.4.6.8.7l1.6.4h.3l.5-.1a1 1 0 0 0 .4-.8l.1-1.6a1 1 0 0 0-.4-.9zm-.5 2.5-1.7-.4-.3-.4.3.4 1.7-1.2v1.6zm-7.6 201.3h-.3c0-.2 0 0-.1 0 0 0-.2-.2-.2 0v-.1h-.5v.1h-.3c0 .2 0-.1-.2 0 0 0 0 .4-.2.3 0 0 0-.2 0 0v-.2s0-.1 0 0v-.1h-.3s0-.2-.1 0v-.2s0 .1-.1 0h-.3l-.1.1s-.1 0 0-.1c-.1-.2-.2 0-.2 0h-.2s0-.2 0 0h-.3s0-.2-.1-.1c0 .2 0 0-.1.1v.2-.1h-.1v-.2.1h-.3v-.2c0 .1-.1.2-.2.1 0-.1-.1.1-.2 0v.2c-.2 0-.3-.3-.3 0h-.2s0 .2-.1.1h-.2l-.3.1v-.1c0-.1 0 0 0 0 0-.2-.1 0-.2 0-.1-.2-.2 0-.2 0h-.2v.1s-.1.1-.2 0v.1c0 .1 0 .1-.1 0-.6.7-.1 1-.1 1 .2.1.3-.1.6-.2l.5.2h.4c0-.2.2 0 .2-.2h.4c.1 0 .2-.2.3 0 .1-.3.2.1.3 0 .1 0 .2 0 .2-.2v.1-.1h.2v-.1.1-.1l.2.3c.3 0 .6-.3.9 0 0 .2 0-.2.1 0h.5c.1.1.4 0 .6-.1.2-.2.5.3.7 0 0 .1 0 0 0 0h.2s1 .1.3-1zm-120.7-138a8.3 8.3 0 0 0 8.2 8.2 8.3 8.3 0 0 0 8.3-8.3 8.3 8.3 0 0 0-8.3-8.2 8.3 8.3 0 0 0-8.2 8.3zm15.5 0a7.3 7.3 0 0 1-7.3 7.2 7.3 7.3 0 0 1-7.2-7.3 7.3 7.3 0 0 1 7.2-7.2 7.3 7.3 0 0 1 7.3 7.3z"/><path d="M531.6 344.8a8.3 8.3 0 0 0-8.2-8.3 8.3 8.3 0 0 0-8.3 8.3 8.3 8.3 0 0 0 8.3 8.2 8.3 8.3 0 0 0 8.2-8.2zm-15.5 0a7.3 7.3 0 0 1 7.3-7.3 7.3 7.3 0 0 1 7.2 7.3 7.3 7.3 0 0 1-7.2 7.2c-4 0-7.3-3.2-7.3-7.2zm132.8 9.6v-1.2c-.3-2 0 .4-.3-.6a23 23 0 0 0-1.4-5.5l.2.7a23.4 23.4 0 0 0-4-6.6 18.7 18.7 0 0 0-6.1-4.2l-1.2-.4-1-.3-1.6-.4c-1.6-.3-1.6 0-.7.1l1.7.6 2 .8 1.6.8.7.4a20.2 20.2 0 0 1 4.8 4.3c1.2 1.6 2.1 3.2 2.8 5a18.8 18.8 0 0 1 1.3 5.9v1.7l-.8 5.9-3.2 23.6-2 15.5-1.2 9.3-.2 1-.3 3.1-.5 3.7-.2 1.7v-.3l-1 7.4.2-.2-.3 1.4v1.7a23.3 23.3 0 0 1-.4 2.5c-.4 1.5-.8 3-1.8 4.9a16 16 0 0 1-4.4 5.4 22.6 22.6 0 0 1-6.1 3.5c.6-.3-.3 0-.3 0-2.4 1-5.2 1-5.2 1.2-1.9 0-1.6 0-1.8-.1H615h.7-4.3l.8.2c-2.3 0-.5-.2-2.7-.1l-8.1-.2h-14.6l-.6-.1c3-1.5 4.5-3.8 5-5.3 1-1.8 1-3 1.2-4v-2.7 1-28.1l-.1-2.3v1.7-4c.1-6.4 0-18.4-.1-25.3v-15.4l.2-7.9a20.3 20.3 0 0 1 1.4-7.2 7.7 7.7 0 0 0 .3-.7l.2-.4a20 20 0 0 1 5.6-6.7l.4-.2 1.1-.7.8-.5 1-.5 2.2-.9a21 21 0 0 1 5.6-1h5.6c3.5 0 5.8-.1 5.3-.3l-3.4-.3-3.7-.1c-1.6 0-3.3-.2-5.5-.1h.3c-3 .2-5.3 1-7.3 2l.2-2.7c.3-3.8.2-4.4.8-11.2l.3-3.1.1-1.2v-2s0-.2 0 0l-.2-2.4-.2-.8.3 1.5v.7l-.2-1.8-.3-2c-.4-1.3-.7-2.7-1.2-4l-1.3-3.1-.7-1.5c-1-1.7-2-3.1-3.3-4.5v-.6l-.6-2.6-.5-1.6-.7-1.7a22.5 22.5 0 0 0-10.5-11 26.7 26.7 0 0 0-6-2.3v-.9c.2-.4.2-.8.3-1.3v-3.1c0-1-.2-2-.3-2.6l-.1-.8v-.3c-.8-3.3-2-6-3.3-8.5l-1.1-1.8-1.2-1.6c-.8-1.1-1.7-2-2.7-3-.4-.6-1-1-1.5-1.4l-1.6-1.4-1.8-1.2-.9-.6-1-.6-2.1-1-2.4-1-1.2-.5-1.3-.4-2.8-.7a48 48 0 0 0-15.8-.5 51.3 51.3 0 0 0-24.8 9.3l-2.1 1.5-.3.3a41.9 41.9 0 0 0-5.6-8c-.3-.3-.6-.6-1.1-.8-.2-.2-.6-.3-1-.2a1.7 1.7 0 0 0-1 .4c-.5.5-.7 1-1 1.4l-.6 1.6a54 54 0 0 1-1.4 3l-.7 1.6-.3.8v.4h-.1l-.3.1-.5.2-1 .3-2.2.8-.5.1-1.2.7c-.6.3-1.3.7-1.5 1v-.1l-.7.5.1-.1a30.8 30.8 0 0 0-2.5 2.3l-1.6 2-.6 1-.3.4-.1.2-.1.1h-.7l-.8.1h-1.6l-3.2.4h-.2l-1.7.1-.8.3-.8.3h-.2l-.3.6c-.2.4-.1 1 0 1.3l-.1-.4c.1.8.5 1.4.8 2v-.4c.4 1-.1.3.4 1.1h.1c.8 1.2 1 2 1.8 3.2l3 3.4.9.9-1 .4s-.5.1-.3.2c-.8.4-1.6.4-1.8.8l-.7.1h.1l-1.5.5c-.2.1-.2.3-.7.4h-.3c.1 0 .2 0 0 0h-.2c-.3.2-.2.2 0 .1l-1 .3-2.3.8.3-.2-.5.1.4-.1c-.7 0-1.3.4-2 .4l-.2.1-.3.2c-.2-.1 0-.2-.4-.1-.3 0-1 0-1.4.3h.1l-.5.1-.5.3c-.2 0 .2-.2.3-.3l-1.2.6c-.3.3.1 0 0 .2l-.9.8h.2l-1.1 1.1a6 6 0 0 0-.7 2c-.4 0-.5.2 0 .3a.5.5 0 0 0 0 .2h-6.7c-69.2.6-14.6.8-14.6.8h73-.1v4.8l.1 4.5c.1 3 .2 6 .7 9.8a33.2 33.2 0 0 0 1.3 7.6l.4 2.4s.6 2.2 1.9 4l-.6-.9a5.8 5.8 0 0 0 1 1.3c.2.4.6.7 1 1l.8.4c.3 0 .5.2.8.1.7 0 1.2-.3 1.6-.7l-.6.4-.6.2.6-.2.3-.3.4-.4.3-.4c.1-.2.4-.3.8-1.7h-.1l.6-3c0-1 0-1.7.2-2.5a220.7 220.7 0 0 1 3.8-16l1.5-5.5 1.5-4.9 38.7.1c2.8 0 5.7 0 8.8.5l2.2 1.3a10.6 10.6 0 0 1 4.4 10c0 .6 0 1.2-.2 1.8-.1.7-.2 1.4-.5 2-.4 1.1-1.3 2.2-2.4 3s-2.5 1.6-3.9 2.2a44 44 0 0 1-8.7 2.3 21 21 0 0 0-4 1.2 6.9 6.9 0 0 0-3.2 2.4c-.5.8-.8 1.6-.9 2.5l.1 2.6a5 5 0 0 0 1.4 2.4c.6.7 1.4 1.2 2.2 1.5 1.7.7 3.5 1 5.3 1a33.2 33.2 0 0 0 15-5c3-2 5.6-4.5 7.3-7.4a3.5 3.5 0 0 0 .5-.8l.2-.6c1.8-3.6 2.4-7.7 2.2-11.7l1 1.3a28 28 0 0 1 4.7 14.7v1.3l-.3 3.9-1.2 15.3c-.8.5-1.6 1-2.3 1.7-.3 0-1 .8-1.9 1.6l-1 1.2-.8 1c-.9 1.2-1.6 2.6-2.3 4-.6 1.5-1.1 3-1.3 4.5l.1-.8c-.4 2.1-.3 5.1-.4 5.3l.1 15.4v-.2 16.4-1.6c.2.5-.1 3 0 6 0 2.7.4 5.5.3 8.4.1 1.3-.1-1.2 0 .8-.2 0-.1-1-.2-.4v1.3a9 9 0 0 0-.4-.9c-1-1.7-2.2-2.8-2.3-3-1.8-1.6-4-2.5-6.1-2.8h-17.3 3.2-5.5 4.8c-6.5-.2-13.4 0-21 0h-5c-1 0 .1-.1-3.7-.1h-12.4c2 0 1.4.1.5.1h-10.3 3.4-11.4c-4 0 .7 0-1.2.1h-11.2l1.3.1h-15.3c-50.2.7-10.6 1-10.6 1l53.5-.2 55.3.1a10.6 10.6 0 0 1 7 1.8 10.2 10.2 0 0 1 4.2 5.9c.3 1.2.3 2.3.3 3.6v3.8c.2 4.7 0 13.1.1 18.7v5.2c0 1.1 0 2-.3 3v-.2a9.7 9.7 0 0 1-3.6 6 9.8 9.8 0 0 1-2.3 1.3c-1 .5-2.2.8-3.4.9h-10.9l.3.1h-22c-11 .2-17.6-.2-29 0h-8c-2.1 0-3.6 0-3.6.2-3.9 0-3.1-.1-3.6-.2h-.6l-1.5.1h-4.3 1.4-8.6l1.7.2c-4.6 0-1.2-.2-5.6-.2v.2l-16-.3c-25.6 0-53 .2-76.7 0l-1-.1c-.5-.1-6.6.2-7.5 0l-2.7.1h-52c-1.1 0-2.1-.1-3.2-.4a10.4 10.4 0 0 1-7.9-9.3v-18.7l-.1-7.4V407a10.4 10.4 0 0 1 5.2-9.3 10.3 10.3 0 0 1 3.4-1.3 14.6 14.6 0 0 1 1.9-.1H384s88.1 0 21.2-1h.4-23c-1.1-.2-8.2 0-10.5 0h.2c-6 0-12.5-.2-18.4 0l1.7-.1h-26.2l-1 .2c-3 .5-5.5 2.3-7 4.3a10 10 0 0 0-1.2 2l-.1-9.8v.3V375v1.6c-.2-.5 0-3.2 0-6.2 0-2.8-.4-5.8-.4-8.7 0-1.4.2 1.2.1-.9.1 0 0 1 .2.5v-8.5c0-.8-.3-1.6-.4-2.3a50.9 50.9 0 0 0-.4-2 24.5 24.5 0 0 0-.7-1.7l-.8-1.8-.5-.9-.5-1-1.2-1.5-1-1.1-1-1c-.2 0-.4-.3-1.1-.8l-.4-.4-.3-4.5-.8-10.8-.4-5.4.1-2.7.4-2.6c1.3-6.9 5.3-13 10.7-17.1l1.5-1.1 1-.7a28.3 28.3 0 0 1 11.6-3.9l3-.1h9.4s121.6 0 29.2-1h.7a1530.2 1530.2 0 0 0-38.4-.1h-2.3c-.8.1-1.6.1-2.3.3l-1.9.3c-.6 0-1 .2-1.5.3l.3-.1c-4 1-8.1 3-11.5 5.6a27.8 27.8 0 0 0-8 9.9l.2-.6a27.3 27.3 0 0 0-2.6 7.1l-.4 2-.2 1.6-.2 1.6v2.8l1.6 18.4a19.3 19.3 0 0 0-4.9-2.3 26 26 0 0 0-7-.9c-1 .2-3.6 0-4.4.2-.2 0-5.1 0-2.3-.2h1c-2.9-.2-5.2 0-8 0 .8 0 2 0 1.2.1h-2.7.6-4 .5c-2 .2-2.7.2-4.8.9-.5.2 0 0 .3 0s.5-.2-.5.2a20 20 0 0 0-8.4 5.3c.3-.2-.4.5-1 1.2l-1.5 2c-.2.3-.5.5-1.2 2.2l.1-.3-.2 1-.6 1.5-.2.8c-.2.5-.4 1-.5 2.8l.1-.7-.1 1.7v-.4l-.1 2v-.4 1.5l-.2-1 .5 2.6.7 6s.5 4.3.8 5.3a64.7 64.7 0 0 1 .7 6.6v-.3c.5 4.8 1.2 8.3 1.7 12.6 0-.2.3 2.1.3 1.5.7 4.5.9 8.3 1.4 9.8l.4 3.5v-.4l1 7.8c.3 1.5.5 1.7.8 4.2-.2-.8 0 .2 0 1.2v.5a11.5 11.5 0 0 1 .2.7l.1.6v-.3l.6 4.8.9 6.4a22.2 22.2 0 0 0 .8 5.6 25.8 25.8 0 0 1-.4-1.4l.4 1.4.5 1.4-.4-.9-.4-1.5a16 16 0 0 0 2 5c.9 1.6 2.1 3.1 3.5 4.6l.7.5.1.2s.2 0 .5.3l.8.5.3.4 1.2.8c.7.5 1.7 1 2.8 1.4l1.7.6 1.7.4-.3-.1 2.4.4h3c.6.1-1.5.1-1.8.1h6l-1 5.6-.4 3.3-.1.4c0 .3 0 .7-.2 1l-.2 1.4v.6-.1a32.4 32.4 0 0 1-.5 2.6h.1c-.4 1.7-.3 2.4-.7 4v-.1c0 2-.6 3-.8 5.2 0-.3 0 0 0 0l-.2 2c0 .7 0 .6-.2.7v1.1-.2l-.3 1.5.2-.3c-.2.8-.2.2-.3 1h.1l-.7 2.8-.3 1.9a9.7 9.7 0 0 1-.2.8h-3.9l-.5.1H281h.1-3.3 1.1-3.6c-1.3 0 .2 0-.4.2h-3.6.4-5c-16 .7-3.3 1-3.3 1 6.3.2 9.6-.1 17.2-.2l15.3.2h10c1.5-.2 4.2 0 6-.2l.7.1h5.4-.1a95.9 95.9 0 0 1 4.7 0l-.1-.1h7.1c3.6-.2 5.7.2 9.4 0h.1c1.7 0 3.6 0 3.6-.2l1.2.1h2-.5 2.8l-.5-.2c1.4 0 .3.2 1.8.1l5.2.2h25c.2.2 2.1-.1 2.4 0h13c4 .2 11.8 0 16.2 0 6.3-.3 13.5.3 20 0h6.5s28.4 0 6.8-1h.1H434h.1c-2 0-4-.2-5.9 0l.6-.1h-13.4.2c-1.2.2-1.5 0-2.9.1H405h1c-.4.2-2-.1-3.9 0-1.8 0-3.6.4-5.4.3h-.5c0-.2.6-.1.2-.2h-3.7v-.1h-5.3c-2 0-1.4-.2-3.6 0l-.9-.1h-2.4c-2.4-.2-4.8 0-8-.1l-2.7.1s-3.2 0-1.4-.1h.6c-1.8-.2-3.3 0-5 0h.7-1.6.3-2.4.3-3c-.5 0 1.2 0 0 .1l-6-.1h-1c-2.2 0-.9-.2-3-.1h.2l-.6.1c-2 .2-1-.1-3.2 0 .9 0 .4.2-.6.2h.2-1.1c.3 0 .2-.1-.7-.1l.6-.1h-8.7c.6 0-.9 0-.5-.1h-3.5.1c-3 0-5.2.2-7.9 0 .1.1-1.3 0-1 .2-2.8 0-5-.2-6 .1h-2.3.3-9.3.2-2l.2-1 .2-.4.1-.2.2-.8.3-.4c.7-1.7 1-3.1 1.8-5 1-2 2.4-6 3.2-8.4 1-3.3 3-7 4-10.3l.1-.4 1.2-3 2.1-5.7c18.6-.6.7-.8.7-.8H297l-3.8.1a23 23 0 0 1-4.1-.3 18.3 18.3 0 0 1-10.2-5.4 20.3 20.3 0 0 1-3-4.3 19.3 19.3 0 0 1-2.1-6.4c-.2-.6-.1-1.3-.2-1.9l-.2-2.1-.6-4-1-8c-.5-2.5-1-6.8-1.5-9.7v-1l-.5-3.3v.1l-.5-3.9-.2-1.7v.3a254.1 254.1 0 0 1-1-7.7v.2c-.6-5-1-6.8-1.6-11.4-1-5.6-1-9-2-15 .1.8 0-.2 0-.2-.3-2.7-.7-5.6-.9-5.7v-2.7l.4-2.2v.7a31.3 31.3 0 0 1 .4-2.2l.8-2-.4.7.6-1.2.7-1.2.5-1 .7-.9.6-.8.7-.6 1.4-1.3 1.7-1.3c2.6-1.8 5.8-3 9-3.4h5l5.1-.1h10c3.2 0 6.3 1 9 2.5l.3.3c.2.2 2.8 1.7 3 2.2l1 .9.4.4.8 1 .6.8c.3.3.5.8.7 1.2 1.3 2.2 2 4.4 2.5 6.7.4 2.3.3 4.8.3 7.6-.2 6.6 0 19 0 26.2.3 10-.3 21.8 0 32.1a9.4 9.4 0 0 0 0 .7v10l.1 1v7.9-2.1 1.5a11.5 11.5 0 0 0 1.9 6.1 11 11 0 0 0 3 3l1.7 1a7.3 7.3 0 0 1-1.2.2c-1 0-1.4.1-1.1.2h1c.5 0 1.2 0 2-.2l1.6.5c1.4.3 2.9.1 4.2.1 2.8 0 5.7-.2 8.5-.1h1.7c.1.2-2 .1-.9.2h11.4l.2.1h16.4c6.6 0 4.4.2 11.3 0l2.6.2c3 0 2.1-.2 5.4-.1h2.2l24.7.1 8.6-.1c.2 0 9.8 0 4.3.1h-2c5.5.2 10 0 15.5 0h-2.3 5-1 7.6-1 9.2c1.9 0-3.5 0 .4-.1l18.7.1h3.1c6.7 0 2.5.2 9.1 0h1.2c6-.2 3.3.2 10 0-2.7 0-1.3-.2 2-.2h-.9 3.6c-1 0-.6.2 2.1.2h-1.8 26.8c-1.6 0 3 0 1.6.1H547h-.5 24.6c-.4-.1 4.1 0 3-.2h6.2c1 0 2 0 3-.2l1-.3.5.3a9 9 0 0 0 2.2.3c-.9 0-2-.3-1.2-.2.9.2 1.8.2 2.6.2h-.5 3.8-.5l3 .1.3 1.4v-.1l1.5 3.8.6 1.8c.5 1 .7 2.1 1.2 3l-.2-.2.7 1.8 2 5.1c.4.5.3.7.7 1.4a.8.8 0 0 0 0 .1l1 2.5.5 1.4-.2-.5c.2.1.3 1 .8 2 .3 1 1 1.7 1.3 2.7.3.4-.3-.3 0 .3 0 0-.1-.3-.1 0l.7 1.9c.5 1 .6 2 1 2.7.5 1.1 0 .9.7 2v.4c.2.5.3.3.4 1l.1.4h-.4c-1.2 0-2.4.4-3.6.3-.6.1.5-.1-.4 0 0-.2.4-.1.2-.2h-2.4v-.1H597c-1.4 0-.9-.2-2.4 0l-.5-.2c-.7 0-.5.2-1.2.1h-.5c-1.5-.2-3.2 0-5.2-.1l-1.9.1s-2 0-.9-.1h.4c-1.2-.2-2.1 0-3.3 0h.5-1.1.2-1.6.2-2c-.4 0 .8 0 0 0H573c-1.4 0-.5-.2-2-.1h.2l-.4.1c-1.3.2-.7-.1-2.1 0 .5 0 .2.2-.5.2h.2-.7c.2-.1 0-.2-.5-.2h.4-5.8c.4 0-.6 0-.3-.1h-2.4.1c-2 0-3.4.2-5.2 0 0 .1-.9 0-.7.2-1.8 0-3.4-.2-4 .1h-1.5l.2-.1h-3.3c-.6 0-.6.2-1.7.2h-.5c.2-.1.3-.1-.2-.2h-.3c-.7 0-.6 0-.3.1h.1-2l-5 .1.7-.1h-1.2 1c-1.4-.2-2.9 0-4.5 0h-.4l-.6.1-.8-.1h-2.7c.5 0 .3 0 .1.1h-1v-.1h-1.2.7-2.4c-.9 0 .2 0-.3.2h-2.4.3c-1.4.1-2.3.1-3.2 0-10.8.7-2.3 1-2.3 1 4.2.2 6.4 0 11.4-.1 4.4 0 5.6.2 10.2 0h11.1a7 7 0 0 1 1.3 0h2.3-.1a42.3 42.3 0 0 1 3.2 0l-.1-.1h4.7c2.4-.2 3.8.2 6.2 0h.1c1.1 0 2.4 0 2.4-.2.8 0 .6 0 .8.2l1.3-.1h-.3 1.9l-.4-.2c1 0 .3.2 1.2.2v-.2c1.3 0 2.1.2 3.5.3 5.4 0 11.3-.2 16.3 0h.2c.1.2 1.4-.1 1.6 0h8.7c2.7.2 7.8 0 10.8 0h.3l2-.1c3.6 0 7.4.3 10.9.1h4.3s18.9 0 4.6-1h-11l.4-.1h-6.5v-.1a2.5 2.5 0 0 0-.1-.5c-.1-.3 0 .6-.2 0a90.5 90.5 0 0 0-.3-3.4c-.1.1-.1-.2-.2-.5-.3-1.2.1-.5-.2-1.7l.1.1-.2-.3c-.3-1 0-.6-.3-1.7 0 .4-.2.2-.2-.4v.1-1l.1.3-.3-.8c0-.7-.3-1.8-.2-2.1 0 0-.2-1.5-.4-1.8.1.3 0-.5.1-.3-.1-.4-.4-1.5-.3-2v.1c-.2-1.7-.6-2.8-.8-4.3 0 0-.1-.8-.2-.5-.4-1.6-.2-3-.7-3.4v-1.2.1l-.5-2.7c0-.4-.3-.5-.4-1.4.1.3 0 0 0-.4v-.1a1.1 1.1 0 0 1 0-.3c-.1-.5-.1-.4 0-.2l-.1.1c0-.6-.3-1.6-.2-1.7a76.2 76.2 0 0 0-.6-2.8h.2c3-.2 1.6.1 5 0-1.4 0-.7-.2 1-.2h-.4 1.8c-.6 0-.3.2 1 0l-.9.2c.9 0 1.7-.1 2.6-.3 1-.1 2.2-.4 3.3-.7l1.5-.6 1-.3.5-.3 1.4-.8.8-.5.7-.5 1-.8c-.7.6 1.1-1 .7-.5l1.8-2 1-1.4.7-1v.2c1.2-2 2-4 2.4-6l.3-1.5.2-1.5v-1.6l.3-1.4c-.1.1.2-2 0-1.5.5-4.4 1.3-8 1.1-9.5l.6-3.4v.5l1-7.6c0-1.3 0-1.6.3-4 0 .8 0-.2.2-1.1 0 .6 0 .7.1-.5v-.7h.1c.2-1.5.1-1.3 0-.6v.3c.3-1.6.5-4.5.7-4.7l1.4-11.8-.1 1.6.3-2.7-.2 2.4c.5-3.2.7-6.7 1.3-10.5v-.8l.1-.2.1-1.4c.2-.5.2 0 .4-1.8.3-1.5.5-4.3.8-6.2-.2 1-.2.7-.1.2 0-1 .2-1.5.3-2.2l.3-3c.2-.4 0 1.6 0 1.8l.4-3.7v-.4a9.2 9.2 0 0 0 .1-.2v-.3zm-185.8-65.6h.3-.3zm21.2-.5-.3-.1h-8.2c-2 .2-4.3-.3-6.4 0h-5.9l.3-.4c.5-.8 1-1.3 1.5-1.9a5 5 0 0 1 2.1-1.4l1.2-.1 1.1-.1a15 15 0 0 0 2.5-.6c1-.2 2.2-.6 3.1-1l1.8-.7h.3l.6-.2.7-.3.3-.1 1.4-.5 1.6-.7.4.3.3.9 1.2 4.1.6 2 .2.7h-.4zm90.8.4v-.1h.2l.2.1a5 5 0 0 1-.4 0zm.1-.1zm20.5 16.1-.3 2.1-.3 1.6v-.2c-.3 1-.5 2-.9 2.9l-.7 1.3-.3.7-.4.6-.9 1.2-1 1.2c-.5.8-1.3 1.4-2 2l.6-.5a23.8 23.8 0 0 1-5.2 3.7c-3 1.6-6.7 3-10.3 3.7-1.8.3-3.6.4-5.1.2a9.1 9.1 0 0 1-3.6-1.3l.3.1a4 4 0 0 1-1.8-1.9c-.3-.6-.4-1.5-.4-2.8a1.2 1.2 0 0 1 0-.2 4.4 4.4 0 0 1 .8-2.1c.4-.7 1.1-1.3 2-1.7 1.5-.9 3.3-1.2 4.4-1.5h.1l5.3-1-2 .4c.6-.3 4-.6 7.6-2.5 1.6-.9 3.2-2 4.2-3.8a8 8 0 0 0 1-2.7l.3-2.8c0-1.8.1 1.6.1-1 .1-.2 0 1.2.1.5V299l-.4-1.7c-.3-1.2-.8-2.4-1.8-3.8v-.1a14.7 14.7 0 0 0-7.1-5c-.8-.2-1.6-.4-2.2-.7l-1-.6-.4.8-.3.5v.2h-1.3c-.8-.1-1.6-.2-3.7 0l-1.8-.2h-27.4l.3-.6 1-1.5 1.5-1.7c.2.1.7-.4 1-.4.4-.4 1-.2 1.6-.4l-.1.1h1c1 0 2.5.1 3.2 0v.1h1.2l.2.2 3 .6 1.2.2.2-1.2c-1.2-.3-2.8-.5-3.9-.6-.2 0-.2-.2-.8-.3l-.2-.1-.5-.1s-.4-.2-.2-.2c-.7-.4-1.5-.5-2.3-1.1-.3 0-.7-.3-.8-.3 0 0-.9-.6-.3-.3h.2c-.4-.4-1-.5-1.3-.9 0 .2.3.3.1.2l-.4-.3h.1l-.5-.5v.1c-.2-.2-.2-.4-.6-.7-.2 0 .2.4-.1.1l-.5-.7-.5-.9-.2-.2c-.4-.6 0-.3-.3-.9h-.1c-.4-.6 0-.4-.4-1 .1.3-.1.2-.2-.1h.1v-.5.1l-.1-.4c0-.4-.2-1-.1-1.2v-1c0 .2 0-.3.1-.2v-1l.3-1.3.3-1.1c-.1 0 .1-.4 0-.4.2-.9.7-1.4.5-1.9l.4-.5.7-1.3c.1-.3 0-.4.3-.8 0 .2.1 0 .2-.2 0 .1 0 .2.1 0v-.1c.3-.3.2-.3.1-.2l.3-.4.3-.2.9-1a12.7 12.7 0 0 1 .8-.8c.1 0 0 .2-.2.3l.5-.3-.4.3c.6-.3 1.1-.8 1.8-1l.1-.2.3-.2c.2 0 0 .1.4 0l.6-.2a12.6 12.6 0 0 1 .6-.2c-.2 0-.1 0 0-.1h.4l.6-.2-.3.2 1.1-.2c.4-.1 0-.1.1-.2h1.2l-.2-.1h1.6l2.5.1c.4 0 .4-.1.2-.2l-.8-.4-.6-.2c-1-.3-2-.3-2.8-.3-1 0-1.8.2-3.1.5-1.1.2-1.8.5-2.5.7-.7.4-1.4.7-2.3 1.5-.5.3-.9.8-1.3 1.2l-1 1.4-.6.8-.4 1-.2.2-.3.6a11.5 11.5 0 0 0-.3.8l-.1.3-.5 1.5c-.3 1-.2 1.4-.5 2.3 0 1.2-.4 2 0 3.2 0-.1 0 0-.1 0 0 .7.2 1.3.4 1.3v.4l.3.6v-.1a4.9 4.9 0 0 0 .3.9v-.3c.2.5 0 .2.1.7l.1-.1.7 1.7c.8 1.2 2 2.1 3.2 2.9l2.2 1.3a8.2 8.2 0 0 0-3.3 0 .5.5 0 0 0-.2.1c-.8.2-1.3.6-2 1l-1 1a6 6 0 0 0-1.1 2.4c-.2.5-.2 1-.1 1.1h-2.4.8l.4-.1h-7.2l-1.1 4 .5-1.5-1 3.2.1-.7-1.4 4.9.2-.7-1.7 6c-.2 1.2.7-2.3 0 .2-.4 1.6-1 3.6-1.4 5.7-.5 2.2-1 4.4-1.2 6.6v1.9l-.1.1c-.1 2.2-.4 2.5-.5 2.9l-.2.7c-.2.4-.4 1-1 1.6h.1l-.1.1-.1.2h-.2c-.5.4-1 0-1.3-.2l-.7-.7c-.3-.4-.8-.7-1.6-2.7l.2.8-.8-2 .2.5a19 19 0 0 1-.8-3.6l.3 1.2a48 48 0 0 1-1.5-10.8l-.2-3-.2-3.8c0 1.1 0-2 .1-1a73 73 0 0 1-.1-7.4v.3-2.8h-4.8l.6-.4 1.5-1 1.3-1.3a15.8 15.8 0 0 0 4.3-6.4l.4-1 .3-1 .3-2.1v-2.9c-.3-1.8-1-3.8-1.8-5.1-.8-1.4-1.5-2.2-1.5-2l.6 1.5a18.7 18.7 0 0 1 1.3 3.8h-.1c.5 2 .4 3.4.5 4.9l-.2 1-.3 1.2c-.1.6-.4 1.2-.7 1.9l-1 1.7.2-.3-.7 1.2-.6.6-.5.7-.6.7-1.3 1.4-1.3 1.1a26.7 26.7 0 0 1-1 .9v-.1a5.7 5.7 0 0 1-.8.6l-.3.2h-.5c-.9.2-2.7.2-3.4.2H504h.6c-.2.2-1.3-.1-2.7 0-1.2 0-2.5.4-3.7.3-.6.1.5-.1-.4 0 0-.2.4-.1.2-.2h-2.6v-.1h-3.7c-1.5 0-1-.2-2.5 0l-.6-.1h-1.7l-1-.1v-.1l-.1-.2-.1-.3c-.3-1-.6-1.8-.8-3-.3-.3-.5-1.4-.7-1.7 0-.1-.6-2.1-.1-1v.3l.1.1c0-.6-.2-1.1-.4-1.7l-.2-.6-.5-.4-.7-.6.4.4-.8-.8.2.2a33.1 33.1 0 0 1-1.2-1.2v.2c-.4-.6-.6-1-1.2-1.6-.4-.2.4.7-.2 0a46.7 46.7 0 0 1-2.4-3.3l-.4-.5c-.9-1.3-.2-.6-1-1.8h.2l-.3-.2c-.4-.5-.4-.7-.4-.9l-.2-.8-.1.2a.2.2 0 0 1 0-.4v.1l.4-.2h.4a4.4 4.4 0 0 0-.3.1l1-.3h2.6l1-.1 1.3-.2h.4c.4 0 1.9-.2 2.4 0h1l.5-1 .3-.5.7-1a11 11 0 0 1 1.4-1.7s.6-.6.4-.6c1.3-1.4 2.8-2 3.2-2.6.8-.5 1-.4 1.4-.6h-.2l3-1.2c.7-.2.7-.4 1.8-.6-.4.2 0 0 .6 0v-.2.2c-.1 0-.1 0 0 0l.3-.4v-.4l.1-.3v.1l.8-1.8 1.2-2.6.9-2.4-.2.7.5-1-.4 1c.3-.7.6-1.5 1-1.8.2-.4 1 .1 1.5.7l.3.2v.1l.5.4.4.7 1.7 2.2c-.2-.4-.1-.3 0-.1l.6.8-.1.1c0-.2.7 1 .8 1 0 .3-.4-.5-.5-.6l1.3 2.2c.4.8 0-.2.2.2l1.1 2.2v-.3a14.4 14.4 0 0 1 .4 1l.3.4.3.2a8.8 8.8 0 0 1 1.2 1c2.3 1.6 3.4 2.9 4 3.4.5.5.5.4.3 0l-1-1.5-.8-1c-.8-.9-1.6-1.5-2.4-2.1l-.6-.4a6.3 6.3 0 0 0-.4-.3l-.4-1-.4-.8a56.6 56.6 0 0 1 8.8-5.6l1.6-.8 1.7-.7c1-.6 2.3-1 3.5-1.4l-2 .8 3.4-1.2-3 1.1c4-1.4 8.5-2.8 13.5-3.2l1-.2h.3l1.9-.2c.7 0 0 .2 2.5 0l3.8.2h1.1l1.1.2 2.1.3c-1.4-.2-1-.2-.3-.1 1.2.1 1.9.4 2.8.7h.1l1.5.4c.2 0 .5 0 .7.2s.4.1.6.2l.8.3c.6.4-1.8-.7-2.1-.6.6.1 1 .3 1.4.5l1 .3 1 .5c.7.2 1.2.5 3.4 1.7 2.3 1.4-.3-.4.8.2l2.9 2 1.4 1.3a8.8 8.8 0 0 1 .7.6l.7.8-.6-.7 2.1 2.2 1.6 2 1.2 2 .5 1 .5 1a28 28 0 0 1 3 9.3c.1 1.2.3 2.3.2 3.2v2.2l-.1.5h-.3a2.1 2.1 0 0 0 .3.2c-.1 1.4 0 1.1.2.1l3.6 1.5a20 20 0 0 1 4.2 2.5c1.6 1.1 3.5 2.7 5 4.8l-.1-.2c2 2.6 3 5 3.8 7.3l.5 1.6.3 1.7.4 3.3c0 .6 0 1.7-.2 3zM297.4 453.4l.1-.4c0 .2 0 .3.1-.1v-.3c.1-.5 0-.4 0-.2v.1l.3-1.6.5-3.4h5.3l-.7-.1h8l4-.1-.9 1.7v-.1c-.7 1.6-1.1 2.7-1.4 3.9-.2 0-.6 1.3-.8 1.7-.2 1-.9 2-1.1 3v-.3a9 9 0 0 1-.7 1.7c-.6 1.8-1.6 4.1-1.8 5.3v-.1l-.5 1.5v.1l-1 2.5-.6 1.4.2-.5c.1.3-.5 1-.7 2-.4 1-.4 2-.8 3-.1.4 0-.5-.2.2-.1 0 0-.3 0-.2-.3.7-.6 1-.8 1.9h-.1c-.3 1.1-.9 2-1 2.7-.4 1.2-.5.7-.8 2l-.3.3c-.2.5 0 .4-.3 1l-.2.3-.2.4-7.3.2 1-.1H293h1.6a26 26 0 0 0-1.5 0v-.5c0-.4-.2.6-.1-.1l.7-3.3v-.6c.2-1.2.3-.4.4-1.6v.1-.3c0-1.1.2-.6.2-1.8 0 .5-.2.2-.1-.4v.2l.1-.6.2-.4v.3-.9c.2-.6.3-1.7.5-2 0 0 .3-1.5.2-1.8 0 .3.2-.5.2-.3 0-.4.1-1.5.3-2v.1c.3-1.6.3-2.8.7-4.3v-.6c0-1.5.6-2.8.4-3.4 0-.7.2-.8.3-1.2v.2l.4-2.7v-1.5zm314.9 3.3v.4a5 5 0 0 1 .2 1.1l.2 1.3v.6l.5 2.5.7 4c.5 1.8.3 3 .9 5-.1-.2 0 .2-.1.2.2.9.4 2 .5 1.9v.7l.3 1v-.2l.2 1.6.1-.4v1h.2c.1 1.1 0 1.8.2 3l.3 1.8v.6h-1 .1-2l-3.2.1h-1.8.6-.8v-.2c.1-.1-.6-1-.5-1.2l-.3-.4v-.2l-.3-.8-.1-.5-2-4.8c-.6-2.2-2.3-6.2-3.3-8.5-1.4-3.2-2.4-7.1-3.8-10.4a1.4 1.4 0 0 0-.2-.4l-1.2-3-1.8-4.5h.8c.9-.1-1.8-.2.2-.2l9.4.1h1.4l4 .1.9 5.4c.3.8.4 2.3.7 3.3z"/><path d="M521.5 395.3zM491.2 448h-.6zm-44-51.7c.3 0 .5-.2.5-.5s-.2-.5-.5-.5h-3.6c-.2 0-.5.2-.5.5s.3.5.5.5h3.6zm8.6-99.6c-.2 3.1 0 4.7.1 8.4l-.1 7.5v5c.2.7 0 2 .1 2.9v3-.1 2.3c0 1.5.2 2 0 3.5.3 1.7-.1 2.7.1 4.5v.1l.1 1.7v1.6-.2 1.3l.2-.2c0 .7-.2.1-.2.8h.1c0 1-.2 1.6-.3 2.6 0 4 .3 8.3 0 12v.2c-.2 0 .2 1 0 1.1l.1.5v.8l-.1.4v4.7c-.1 2 0 5.7.1 7.9.2 3-.3 6.6 0 9.7a.8.8 0 0 0 0 .3v2.9s-.1 13.8 1 3.3v-8 .2-7.8c-.2-.7 0-1.9-.1-2.4v-1.3.5c-.1-.2.2-1 0-2 0-.8-.3-1.7-.3-2.6 0-.4.2.4.1-.2.1 0 0 .3.1.1V360h.1v-2.6c0-1 .2-.7 0-1.8l.2-.4c0-.4-.1-.3 0-.8V348v.2l.1.1V346c0 .2 0 .6-.1.4v-.8.1-1.2.2c0-.6.2-.8 0-1.5 0-.3 0 .6 0 0v-3.4c0-1.1.2-.4.1-1.5v-.2c-.2-1 0-.5-.1-1.5 0 .4-.2.2-.1-.3v-.8l.2.3-.1-.8v-3.5c0 .3 0-.4.2-.2-.1-.3-.2-1.3-.1-1.7v-3.8c-.1 0 0-.7-.1-.5-.1-1.4.2-2.5-.2-3l.1-1a50 50 0 0 1 0-2.3c0-.4-.2-.5-.1-1.3v-.3l.1-.2v-.4l-.1.1.1-1.4-.2-3.8.2.5v-.8.7-3.6l-.2-.5c0-.1.2 0 .2-.5v-2c-.1.3-.1.2-.2 0v-.6h.2l-.2-1c.1-.1.1.5.1.6v-1.8c0-.6 0 .1-.1-.2v-1.8l-.1.2v-2.4c-.7-7.9-1-1.7-1-1.7zm1.5 41.5v.1z"/></g><defs xmlns="http://www.w3.org/2000/svg"><path id="a" d="M147.4 456h-2.1c-.3 0-.5.2-.5.4s.2.5.5.5h2c.3 0 .6-.2.6-.5a.5.5 0 0 0-.5-.5z"/><path id="b" d="M172.3 456h-2c-.3 0-.6.2-.6.4s.3.5.5.5h2.1c.3 0 .5-.2.5-.5s-.2-.5-.5-.5z"/><path id="c" d="M165.7 471h-2c-.3 0-.5.2-.5.5s.2.5.5.5h2c.3 0 .5-.2.5-.5a.5.5 0 0 0-.5-.5z"/><path id="d" d="M128.6 471h-2c-.4 0-.6.2-.6.5s.2.5.5.5h2c.4 0 .6-.2.6-.5s-.2-.5-.5-.5z"/></defs><g transform="translate(120 80)"><path xmlns="http://www.w3.org/2000/svg" d="M393.1 244.9v.1-.1zm-276-109.4v.1-.1z"/><path xmlns="http://www.w3.org/2000/svg" fill="#fff" d="M258.6 49.3c-3.5-4.6-12.1-.9-12.1-.9s-1.3-2.5-5.7-2.7c-1.8 0-3.9.3-6.1.4s-4.4-.2-7.1 1.1c-5.5 2.6-4.8 7.6-4.8 7.6s-1.6-.1-3.2 1.1c-1.6 1.3-3.4 3.3-2.3 6.7.7 2 2.6 9.8 2.6 9.8s.4-.6 1.2-1.2v.3c-1 1-1.5 2.5-1.5 4.1 0 3.2 2.4 5.7 5.3 5.7l1-.1-6.8 22.4-2.2 5.7s3.2 4.1 10.8 5.7a38 38 0 0 0 11 1c1.9-.2 4.2-.6 3-4-1.7-5.3-1.1-8.6-1.1-8.6l2-10.8c2.4.7 4.5 1 6.1.8 4.2-.4 6.2-3 6.6-6.3.2-1.7.4-4.4.3-6 0-1.3-.9-1.7-.9-1.7 0 .6-.3 1.6-.3 1.6a10 10 0 0 1-.4.2l.2-1a108.5 108.5 0 0 0 .5-18.8 39.6 39.6 0 0 0-.2-1.2c4.3-1.9 7.3-6.8 4.1-10.9zM228.3 80v.1z"/><path xmlns="http://www.w3.org/2000/svg" d="M249.3 46.8h.2-.2zm4.9 40.2v.1zm-32.6-15.9v-.3a8.7 8.7 0 0 0-1 .7l.2.5a6.2 6.2 0 0 1 .8-.9zm7.9 11.9a5 5 0 0 1-.2-1l-.1-.5-.5-2-.8.8.3 1.4a7 7 0 0 0 2.5 3.7 8 8 0 0 1-1.2-2.4z"/><path xmlns="http://www.w3.org/2000/svg" d="M225.2 72.6c-1.6 0-3 1.4-3 3s1.4 3 3 3 2.9-1.4 2.9-3-1.3-3-3-3zm0 5c-1 0-2-.9-2-2s1-2 2-2 1.9.9 1.9 2-.9 2-2 2zm35.6-25.3a7 7 0 0 0-3.4-5.2c-2-1-3.9-1-5-.8h.1c-1.2.2-1.6.1-3 .5h-.2l-2.4.8s-.2.1-.2 0l-.2-.1-.2-.2-.3-.3-.5-.4v-.1c-.8-.6-1.7-1-2.7-1.2a7.1 7.1 0 0 1 1 .4l-1.4-.4c-.7-.2-1.7-.3-2.7-.2-1.8 0-3.6 1-5.5.8-1 .2.8-.2-.6 0 0-.2.7-.2.3-.3-1.3.1-2.2-.2-3.9.2-1.2.2-2.2.6-3 1-.9.4-1.6 1-2.2 1.5l-1.4 1.4c-.2.3-.6.6-1 1.9a9 9 0 0 0-.3.9l-.1.9v.5l-.1.2-.2-.1h-.4a4 4 0 0 0-.5.1 6 6 0 0 0-1 .4 7.1 7.1 0 0 0-.9.6l-.7.7c-1 1-2 2.4-2.3 4.2 0 .5 0 1.1.2 1.7 0 .7.3 1.2.4 1.4 0 .1.9 3.1.2 1.4 0-.1-.1-.4 0-.4l-.2-.1c.3 1.8 1 3.1 1.3 4.9 0-.5-.2-1.2 0-.8l.3 1.7-.1-.4.8 3.6v-.8l.2 1.4v.5l-.1 1.5c0 3.4 2.6 6.2 5.8 6.2h.4l-6.7 21.6-2.3 6 .2.2c.1.2 3.4 4.2 11.1 5.9 3.4.7 6.5 1 9 1a22.6 22.6 0 0 0 2.2 0c1.2-.2 2.7-.4 3.4-1.5.5-.8.5-1.9 0-3.3-1.6-5-1.1-8.2-1.1-8.2l1.8-10 3.3.7a7 7 0 0 0 2.7-.2l2.4-.4a3 3 0 0 1-.4.1 7.6 7.6 0 0 0 2.7-1.5 7 7 0 0 0 1.6-2l.3-1.1.3-1.7c0 .5.1-.2.2-.8 0 .4 0 .5.1-.3v-.8.1c.1-1 0-3 .2-3.1v-2a2.8 2.8 0 0 0-.5-.9l-.8-.8h-.1a122 122 0 0 0 .3-17.5l-.1-.6.9-.5h-.1a12 12 0 0 0 2.6-2 7 7 0 0 0 1.7-2.7l-.1.6c.3-.7.5-1.7.6-2.4v-1l.2-.4zm-7.1 27.8-.2.7c-.5.2-1.2.5-1.9.6-.3 0 .3-.2 1-.4l-1.7.4 1.5-.4c-2 .3-4.3.8-6.7.2h-.6s-.6 0-1-.2c-.3-.2.1-.2-1-.6-1-.4-2.6-1-3.7-1.6.6.4.4.3.1.2l-1.1-.8V78c.1.3-1.3-.9-1.5-1-.2-.3.7.6 1 .6l-1.4-1.2-1.3-1.4c-.9-1 0 .3-.4-.1-.7-1-1.5-1.9-2-3.1l.1.4-.4-1.3c0-.4.3-.8.5-1.1l1.3-1.9a14 14 0 0 0 1.8-4.6 11.5 11.5 0 0 0 .1-3.1l.6-.1 2 .8c1.3.4 3.2 1 6 1.3 3.3.3 5.5 0 7.7-.7a5 5 0 0 0 1.6-.4l.1.4.3 5.3c0 4-.3 10-.8 13.3zm-28.8.7c-2.7 0-4.8-2.3-4.8-5.2a5.5 5.5 0 0 1 .7-2.6 8.7 8.7 0 0 1 .3-.4l.7-.7c.2-.3 0-.2-.3.1a5.4 5.4 0 0 1 .4-.4 7 7 0 0 1 2.3-1 8 8 0 0 1 2.7.3 5 5 0 0 1 2 1.8l.3.4-.1-.1.4.3.1.2v.4l-.2.4-.3 1.6c.1-.8.3-.3 0 .7v-.3c-.1.6 0 .8-.2 1.2 0-.3-.1-.2-.2.7v-.6a39.2 39.2 0 0 0 0 1.5l-.1-.2a4.6 4.6 0 0 1-3.7 1.9zm15.2 22.5c0 .1-.6 3.5 1.1 8.8.4 1 .4 1.9 0 2.4-.4.7-1.5.9-2.6 1a38 38 0 0 1-10.8-1 19.5 19.5 0 0 1-10.3-5.3l2-5.4 6.9-22.2a5.6 5.6 0 0 0 1.8-1l.3.2-.1-.3a12.2 12.2 0 0 0 0 1.2l.2 1.9.2.5a8.2 8.2 0 0 0 .5 1c.5.7 1 1.4 1.3 1.6-.5-.4.5.9.1.6l1.4 1.3 1.6 1.3a3.7 3.7 0 0 1-.1-.1c1.4 1 2.6 1.5 3.8 2l3.8 1.5h.7l-1.8 10zm3.3-38c-3.6-.4-5.2 2-5.3 2.1-.2.3-.2.8.2 1 .5.4.9.2 1.1 0 .1-.2 1.2-1.9 4-1.7.3 0 .7-.3.7-.7s-.3-.8-.7-.8zm7-.6a.7.7 0 0 0-.5 1c.1.3.5.5.9.4.1 0 1.2-.3 2.1.2l.4.1c.2 0 .5 0 .6-.3a.8.8 0 0 0-.2-1c-1.4-1-3.1-.4-3.3-.4z"/><circle xmlns="http://www.w3.org/2000/svg" cx="242.3" cy="71.9" r="1.4"/><circle xmlns="http://www.w3.org/2000/svg" cx="252.3" cy="71.1" r="1.4"/><path xmlns="http://www.w3.org/2000/svg" d="M248.3 72.3c-.4.1-.6.5-.4 1 .5 1.2 1.4 3.7 1.3 4.6s-.8 1-1.2 1.1c-.4.1-.7.5-.6 1 0 .5.6.6 1 .5.7 0 2.1-.9 2.2-2.4.1-1.6-1.2-5-1.4-5.4 0-.4-.5-.6-.9-.4zm-3.7 8.7.4.1-.4-.1z"/><path xmlns="http://www.w3.org/2000/svg" fill="#fff" d="M243.8 86c.4 0 .7-.4.6-.9 0-.3-.4-.6-.8-.6a4.4 4.4 0 0 1-4.7-2.7c-.2-.4-.6-.6-1-.4-.4.1-.5.5-.4 1a6.1 6.1 0 0 0 6.3 3.6z"/><use xmlns="http://www.w3.org/2000/svg" xlink:href="#e"/><path xmlns="http://www.w3.org/2000/svg" fill="#fff" d="m311.4 415.8-8.6-18.2 27-9.8 12.3 23zm-164-26.6 9.4-14.7 24.3 17.3-7.6 11.8s-10.1 1.4-15.4-2.3c-9.4-6.5-10.8-12-10.8-12z"/><path xmlns="http://www.w3.org/2000/svg" d="m379.4 414.3-.2-.5-.1-.5-.3-1a13 13 0 0 0-1-2c.3.3 0-.3.1-.3-.6-1.4-1.5-2.9-1.8-2.7-.6-1-.4-.9-.4-1l-.5-.4c-.3-.3-.5-.7-1-1l.4.3c-.8-.8-1.6-1-2.4-1.3l.4.4c-1.3-.6-.3-.4-1.5-.8v.2l-4.4-1.7c-7.2-1.7-15-2.3-21.7-3.5l-.3-.2c0-.2-1.9.1-2-.1h-.9c-.2 0-.7-.2-.3-.2h-1.2l-.8-.3h-1l-.6-.2a4 4 0 0 0-.7 0 3.7 3.7 0 0 0-1.3.5c0-.1-.8-1.6-.3-.8l.1.2h.1c-.3-.8-.9-1.4-1.3-2.3.1.2.3.6.1.4l-.4-.8.2.1-.6-1.2v.2l-.7-1.4c-.2-.3.2.6-.2 0l-.7-1.6 2.2-.7 5-1.7a5 5 0 0 0 3.1-4.6c.1-1.7-.3-3.2-.6-4.4a24 24 0 0 0-1.2-3c-.8-1.6-1.2-2.3-1.1-1.8l.5 1.8.3.8a50 50 0 0 0-1-2.5l-.8-1.7-2.7.9-2.7-6.7a4.4 4.4 0 0 0 .2.3l1.5 3.5.7 1.5.5 1 1.2-.5 1.6-.6.4 1 .4.8.5.8.3.5-.2-1-.2-.4v-.2l-.2-.4-.7-1.8-2.2.7h-.4v-.2l-.6-1.3-.8-2.2-.9-2.3c-6.3-16.7-10.1-25.1-18.1-44.9l-15.8-40-10.5-26.2c-1.8-4-4.4-11-6.4-15.7l-.7-1.9c-.7-1.6-1.5-3.5-2-5.1l-2.6-6.3v.1l-1.1-3 .2.6a412 412 0 0 1-5-12.5v.4l-1.3-3.3-1.4-3.5h-7a228.7 228.7 0 0 1-7.1 0c-10 .3-16-.3-26.3 0h-.5c-4.8 0-10 0-10 .3-3.5 0-2.8 0-3.3-.2l-5.7.2h1.2-7.8l1.5.2c-4.1 0-1-.3-5-.2v.2h-4l-1.2-.1h-.5v2.9c0 2.3.2 4.5.7 7.3.9 4.6 2.3 9.1 4 13.5l-4.2 36.4c-1 7.9-1.9 12.8-2.7 17.8l-1.4 7.8-1 4.6-.8 2.4-1.2 2.6c-3.4 6.9-7.6 14.1-11.4 20.7-1.7 3.2-5.1 8.6-7.2 12.4l-1 1.3-2.4 4c-1 1.9-2.4 4-3 5v-.2l-1.3 2.3.2-.4-6 9.6.3-.2-1.4 2.2-.3.3-.4-.1-.2-.2.3.2-1-.5-.2-.1-.2.1-1 1.4-1 1.6-2.2 3.1-1.2 1.7-.6 1c-.3.4-.6.8-.7 1.3a5 5 0 0 0 .4 3.6 5 5 0 0 0 1 1.4l.7.5.6.4 4.3 3 2 1.3v.1l-.2.4c-.2.1-.2 0-.5.4l-1 1.7c.2-.3.2-.2.1 0l-.4.5-.5.8.2-.5-1 1.5c-.2.6.2 0 .1.2l-.9 1.5.2-.1c-.5 1-.9 1.4-1.3 2l-1.2 2.3a2 2 0 0 0-.7-.3 2.3 2.3 0 0 0-1 0c-.4 0-.8.3-1 .4l-2.1 1.5a2.2 2.2 0 0 0-.6.5 36.3 36.3 0 0 0-4 3.6l-2.5 2.9-2 2.7-1 1.5-.4.7-.2.3-.2.5c-.2.6-.3 1.2-.2 1.7a2.7 2.7 0 0 0 .6 1.2c.4.5.7.6.7.4l-.3-.9c0 .3.3.5.5.7l2.8 2.6c-7.6-5.8-.8 1-.8 1 4 4.2 6.4 6 11.4 10.5 4.4 4.2 5.3 5.5 10 9.7l3.3 3.1 1.6 1.5 1.1 1 .2.2h1.5c1.4-.2 3.8 0 5.4-.1l.7.1h4.9-.2 4.3v-.2c2.8.2 3.8 0 6.4.1 3.2-.3 5 .3 8.4 0h2.4c1 0 1.6-.2 1.5-.4h.3v-.1a6.7 6.7 0 0 1 .1-.4l.1-.3c0-.2.1-.1.2-.2l-.1-1a18.8 18.8 0 0 1 0-1.2v.4-2.6l-.2.5c0-1.3.3-.3.2-1.7h-.2c0-.9-.1-1.7-.4-2.5l-.6-1.2-.8-1c-1-1.1-2.3-2-3.6-2.9a45.6 45.6 0 0 0-10.5-4.3l-1-.3-.8-.1-.8-1.8-.9-2v-.4c.2-.2-1-1.6-1-1.9l-.5-.7c0-.2-.2-.6 0-.3l-.6-1.1-.3-.8-.9-2-.2-.4a3.3 3.3 0 0 0-1.5-1.5l.2-.2.4-.7.3-.3 2.1-3.2c0-.3.6-1 .6-1.2 0 0 .8-1.3.5-.5l-.1.2c.6-.6.8-1.3 1.2-2l-.2.3.4-.7v.2l.4-.6c1 .8 0 .2 2.3 1.7v-.2l1.6 1a4.9 4.9 0 0 0 5-.5l.6-.6.3-.3.2-.3.9-1.2 2-2.5 3.3-4.9-1.7-1.3 7.4-9.6 7.9-10.5 15-20.1.6-.6c.4-.2 2.6-4.4 3.1-4.8l1.1-1.8c.4-.5 1.1-1.5.6-.6l1.8-2.9 1.3-1.6c4.4-6.4 7.7-12.2 11-19.6a59 59 0 0 0 1.3-3.1l3 5.1 11 19.6 6.3 10.7L281 372l9.1 16.7-.3.1-2.7 1 3.6 6.8 1.5 2.8a5.4 5.4 0 0 0 3 2.5c.3.2.9.3 1.4.3h1l1.2-.3 1-.4 3.8-1.2.6 1.5.2.2v.1l.4.4c0 .2-.2 0 0 .7.2.5.8 1.3 1 2 0-.4 0-.3.1-.2l.3.7v.1l.5.9c0 .2-.3-.5-.4-.5l1 1.8c.3.6 0-.2.2.1.3.6.6 1.1.8 1.8v-.3a15.8 15.8 0 0 1 1.2 2.6 2.6 2.6 0 0 0-.6.2 2 2 0 0 0-1.1 1.5v.7l-.1.6a16.6 16.6 0 0 0 .3 3 39.6 39.6 0 0 0 .8 5.2 42.7 42.7 0 0 0 1 3.5l1.2 3.2.7 1.6.3.7.4.8a3 3 0 0 0 2.6 1.2c.7 0 .9-.3.7-.4l-1-.1a2.3 2.3 0 0 0 1-.1l3.5-1c-8.7 3.4.5 1.2.5 1.2 5.5-1.2 8.2-2.3 14.6-4.2 5.7-1.5 7.3-1.7 13.2-3.4l8.5-2.4c1.3-.5 3.6-1 5.1-1.5l.7-.1 1.6-.5 2-.6 1-.2h-.1a43 43 0 0 1 4-1.1l-.1-.1c2.7-.6 3.6-1.2 6.1-1.6a15.4 15.4 0 0 0 .5-.2l.3-.1.3-.1a3.2 3.2 0 0 0 1.2-1 3 3 0 0 0 .8-2.4zM154 358zm23.6 38.3-2.7 4-.4-.7c-.3-.3-.5-.4-.8-.4 0-.2-.2-.2-.3-.3-.2 0-.3-.4-.6-.5h.1l-.3-.2c-.4-.2-.8-.6-1.1-.6-.2 0-.2-.1-.3-.2l-.6-.3-.2-.2c0 .2 0-.2-.3-.2l-.8-.1s.2-.1 0-.1l.1-.1c-.1-.1-.1-.3-.3-.3v-.1c-.3 0-.4-.4-.6-.4-.2 0 0-.2-.3-.3v-.1h-.3v-.2c-.2-.3-.6-.2-.8-.6h-.3c0-.1-.4-.3-.1-.3 0-.2-.3-.1-.5-.3 0 0 .1.1 0 .1l-.1-.1-.2-.2s0-.2-.3-.2c0 0 .1.2 0 .1l-.6-.5h-.1v-.1c-.3 0 0-.2-.3-.3l-.4-.1s0 .2-.2 0h.1-.1v-.2h-.2l-.3-.3s-.3-.3-.4-.2c.1 0 0-.2 0-.2s-.3 0-.4-.2c-.2-.3-.5-.3-.8-.5 0 0-.1-.1-.2 0-.3 0-.4-.5-.7-.3l-.1-.2-.5-.4c-.1 0-.2.1-.4 0 .1 0 0 0 0-.1v-.1h-.1l-.3-.2-.9-.4c0-.1.1-.1.2 0l-.2-.2h.2c-.2-.2-.6-.1-.7-.4h-.2s.1-.1 0-.2l-.5-.2h-.1v-.1h-.3c0-.1.2 0 .2 0-.2-.2-.1-.2-.4-.3h-.1l-.4-.1c-.3 0-.4-.1-.5-.3-2-.6-.9.5-.9.5.6.6 1 .7 1.9 1.1.6.5.7.8 1.5 1.2l1 .7c.3 0 .5.3.8.3v.1l.2.1.3.2a1.5 1.5 0 0 1 .5.4v-.1c.4.3.6.2.8.5.5 0 .5.6 1 .6v.1c.2.1.4.2.5 0v.3h.3l.2.2v-.2c.2.2 0 .2.2.3v-.1c.2.1.3.4.4.6.8.6 2 1 2.6 1.7 0 .2.3 0 .3.2h.1l.2.1v.1c.3.3.7.4 1 .6.4.5 1.3.9 1.8 1.1.7.3 1.2 1.2 2 1.5h.1l.6.5 1.4.7-.1.1c-.2 0-.4 1-.6 1l-.2.4-.1.1-.2.4c-.6-.1-1.2-.1-1.6 0l-2.1.2c-1.8 0-4.4-.2-6.8-.9a21.6 21.6 0 0 1-11-7 16.3 16.3 0 0 1-3.1-5.4c0-.3-.3-.6-.4-.8l.6-1c1.8-2.4 2.5-3.9 4.4-7a90.8 90.8 0 0 1 1.9-2.6l6.4 4.1c-1-.5.3.3.2.3 3.4 2.2 7 4.6 7.2 4.4 2.5 1.7 2 1.4 2.2 1.7l4.1 2.6-.9-.6 4.6 3-1.5 2.5zm1.6-2.7v-.1.1zm155.1 5.8-.2.6-.4.9a15 15 0 0 1-1 1.8c-1 1.4-2.7 3.3-4.6 5s-4.2 2.7-6 3.4c-2.6 1-5.5 1.5-8.4 1.4a16 16 0 0 1-2-.2c-.5 0-.7 0-1.2-.2l-2.6-5 1.6-.8c.7-.2 1-.1 1.7-.5.4 0 .8-.3 1.1-.4.1-.2.5-.2.6-.3h.4c.1-.2.2-.2.3-.2a1.2 1.2 0 0 1 .6-.2v-.1c.3 0 .4-.3.7-.3.4-.3.7 0 1-.4v.1c.3-.1.5-.2.4-.3h.2l.2-.2h.2v-.1c.1 0 0 .1.2 0h.6c1-.3 1.8-1 2.7-1 .1.2.2-.2.3-.1v-.1h.4c.4 0 .6-.3 1-.4a5 5 0 0 0 1.7-.7c.7-.5 1.6-.3 2.2-.7h.1l.7-.3s3-1 .4-1.2c-.4 0-.6.1-.8.3-.1-.1-.3.1-.4 0-.2.3-.5.1-.7.3h-.3c-.4.2-.9.3-1 .5-.1.2-.2.1-.3.2l-.6.2h-.3.1c0 .3-.2 0-.4.2-.2 0-.3.5-.5.5 0 .1 0-.1 0 0-.1-.1 0-.1 0-.2l-.5.1c-.2.2-.5 0-.6.2-.2.1-.2-.1-.4 0h-.1l-.2.1h-.1c-.3 0-.5.3-.9.3l-.2.2s-.4.1-.2 0v-.1l-.5.2s.1 0 0 0l-.1.1h-.3.1l-.3.1s.1 0 0 .1a3.8 3.8 0 0 0-.7.1v.1h-.1c-.2.2-.2-.1-.4 0v.1c-.1.3-.1 0-.3.2v.2-.1h-.2v-.1l-.2.2c-.1 0-.3.1-.4 0 0 0-.3.1-.3.3 0-.2-.2-.1-.2-.2l-.3.2c-.4 0-.5.3-.9.3 0 0-.1.1 0 .2-.3.2-.7 0-.7.3 0 .1-.2 0-.2 0l-.5.2c-.1 0 0 .2-.3.3 0-.1 0 0 0 0l-.1-.1c-.2 0-.1 0 0 0v.1c-.2 0-.4.1-.4 0l-.8.5v-.2l-.1.1h.1c-.2-.1-.4.2-.7.2v.2l-.2-.1-.5.2c.1 0 .1 0 0 0v.1l-.1-.1-.2.2.1-.2-.4.2c-.1.1 0 0 0 .2l-.4.2h.1c-.2.2-.4.2-.5.2l-.2.1-.7-1.4-1.7-3.7-.5-1.2.9-.3 7.8-2.6 11-3.6 6.6-2.2 4 7.4-.3.3-.4.6z"/><g xmlns="http://www.w3.org/2000/svg" fill="#fff"><path d="m198 431.5-.1-1.1c0-.7-.1-1.2-.2-1.3s-.1 0-.2.6a1.1 1.1 0 0 0 0 .2v-.8l-3-.1c7.8-.4-.5-.8-.5-.8-5.1-.3-7.8 0-14-.2l-6-.2-2.8-.1h-2.6a12.7 12.7 0 0 0-1 0c-1.4 0-2.7.3-3.6-.2l-.7-.5-.7-.7-1.5-1.4c-1-.7-2.4-2.4-3.5-3.3l-.4-.5a11 11 0 0 1-1.2-1l-1.4-1.4-.6-.6.1.1-2.8-2.7v.2c-1.7-1.9-2.5-2.4-4-4-2.3-2-3.3-3.4-5.6-5.3.4.2 0-.1 0-.1-1-1-2-2-2.2-1.9-.7-.7-.6-.6-.6-.8l-1.3-1 .3.2-1.6-1.5.2.4-.5-.6s0-.2-.7-.8v.2l-.2-.2-.5.5-.5.4-.8.6-.5.5-.3.2c-.1 0 0 .1 0 .2v.1l1 1.2c4.4 5 9.7 9.8 14 14.3v.3c0 .1 1.4 1 1.5 1.3l.5.4c.2.2.5.5.2.3l.8.7.5.6c1.8 1.9 3.6 3.3 5.6 5.2 1.1 1.2 2.9 2.8 4.7 4.4l1.4 1.2c.1.1.6.7 1 .6h1l3-.1c5.1-.2 11 .3 16.2.1H198a51.7 51.7 0 0 0 0-1.8zm179.6-19a.7.7 0 0 0 0-.2c-1.5.6-4 1.2-4 1.2l-2 .6a.6.6 0 0 1-.3 0c-2.2.9-4.8 1-7 1.8l-5.5 1.5-3.2 1h-.3l-.5.2c.1-.1 0 0-.1 0h-.3l-.8.4-.2-.1c-2.7.5-5.6 1.6-8.5 2.3-.7.1-1.1 0-1.8.2v.1c-.5.2-.1 0-.7 0l.3.1-1 .3h.2c-.4 0-.7.2-.7.2h-.4c0 .2-.6.4-1.2.6 0 0-.2 0 0 0-1.3.5-2.1.3-3.3.8l-2.5.6v.1a12.3 12.3 0 0 0-1.5.5h-.4l-.8.3a2 2 0 0 0-.7.2h-.2c-.6.2-1.6.3-2 .6h-.1l-3.4 1c-2.4.7-3 .7-5.3 1.2-2.6.8-3.7 1.3-6 1.7l-.8.2.5 1.8.3 1.1.6.7a2.3 2.3 0 0 0 .9.5h.8l3.7-1 3-1.1c1.3-.2 2.4-.5 4.3-1.1h-.4c1.2-.2 2.1-.6 3.1-1 .5-.2-.8.1.3-.3l3.2-.8c-.1 0-1.3.4-1 .4.3-.1 1.9-.6 1.6-.6l.1.1c.4-.2.7-.1 1.3-.3.2 0 .4-.2-.2 0 1-.4 2.6-1 3.4-1 1-.4.8-.1 1.1-.1l.8-.4h-.5.6l.4-.2c2.2-.4 4-1.3 6-1.6-.5.2-1.4.3-1.4.5l1.5-.5c-.6.2-1 .4-.8.5l6.5-2 2.7-.6h-.2c-.4 0-.5 0 .3-.2l.4-.1h.3c.5-.1 1-.3.7 0 1.4-.4 1.4-.7 2.2-1l4.2-1h-.3c.6 0 .9 0 2-.3.7-.8 2.9-.8 5.3-1.6-.4-.1.9-.4.7-.5 2.4-.4 4.2-1.3 6.9-1.8h-.1.5a.7.7 0 0 0 .4-.3v-.7s.2 0 .2-.2c0 0 0-.3.1 0l-.6-1.6-.4-1.2zm-35.9-12.3-.4.8-.1.6v.5s-.1 0 0 .1h-.1v.3l-.1.4c.1.3-.3.3-.1.5h-.1l.1.3h-.1v.2h.2c0 .2-.2 0-.2.2h.1l-.3.2c-.2.4-.1 1-.4 1.3h-.1c-.2 0 .1.2 0 .2v.2h-.1l-.1.5c-.2.2-.2.6-.2 1 0 .3-.5.6-.4 1l-.1.3s-.6 1.6.8.7c.1-.1.2-.2 0-.4.3 0 .2-.1.2-.2 0 0 .2-.1.1-.3 0 0 0-.1.2 0v-1.2h.1v-.2c-.2 0 .2 0 0-.1.1-.1-.2-.3-.1-.4 0 0 .1 0 0 0h.2s.1 0 0-.2h.2c-.1 0 .1-.1 0-.2 0-.2.3 0 .2-.2v-.2h.1c.2 0 0-.3.2-.4l-.1-.2s0-.2.1 0c.2 0 0-.2.1-.3l.1-.2s.1 0 0 0l-.1-.1a1.2 1.2 0 0 0 .3-.3l-.1-.1.2-.1h-.1c-.1-.2.2 0 0-.3h-.1.2l-.1-.2.1-.1s.1-.2 0-.2h.2v-.2c.2-.2 0-.3.2-.5h-.2c0-.3.3-.3 0-.4l.1-.1.1-.3s-.2 0 0-.2c0-.1 0-.1 0 0l.1-.2v-.5a.1.1 0 0 1 0 .1h.1c.2 0 0-.3.1-.4h-.1l.2-.1v-.2h-.1v-.1h.2l-.1-.2v.1l.1-.2h-.2v-.5c-.3-1-.8-.5-.8-.5-.2.3 0 .6-.1 1zm6.9 1c-.2.3-.4.4-.4.8v.5c0 .1-.1.2 0 .4h-.1v.2h-.1v.7c.1.3-.3.3-.1.5h-.1s0 .2.2.2c0 .1-.1 0-.2 0l.1.2v.1h.1-.1v.1l-.3.2c-.2.4 0 1-.3 1.3-.2 0 0 .2 0 .2v.1h-.1l-.1.6c-.2.1-.2.6-.1.8 0 .4-.5.7-.4 1v.4s-.5 1.5.8.6c.2-.1.2-.2.1-.4.2 0 0-.1.1-.1 0-.2.2-.2.1-.3l.1-.2c0-.1.2-.4 0-.5v-.5h.1c-.1 0 .2-.1 0-.2.1-.1-.2-.3-.1-.4-.1 0 .1 0 0 0h.2s.1 0 0-.1h.1c0-.2.2-.2 0-.3 0-.2.3 0 .2-.2.1 0 0-.1 0-.1.1 0 .1-.1.2 0v-.6s0-.2.1 0c.2 0 0-.2 0-.3h.1v-.2s.2 0 0 0v-.1l.2-.3h-.1c0-.2.2 0 .2-.2h-.1c-.1-.2.2-.1 0-.3h-.1.2v-.3s.1-.2 0-.2h.2v-.2l.1-.4-.1-.1c-.1-.2.3-.2 0-.4l.1-.3s-.2-.1-.1-.2h.1c0-.1 0-.1 0 0v-.7l.1.1c.1 0 0 0 0 0 .2 0 0-.2.1-.3v-.1c.2-.1 0-.2 0-.3h.1v-.2.1-.5h-.2l.1-.2c-.4-1-.8-.4-.8-.4-.3.3-.1.5-.2 1zm-37.4 17.3c.6 0 .8.2 1.4.1h2.1v.1a.8.8 0 0 1 .4 0h.7c.4 0 .5.4.8.2v.1l.4-.1c.1 0 0 0 0 .1h.5c.1 0 0 0 0 .1h.1c.2 0 .2.2.4.4.6.3 1.5.4 2 1v.1c-.1.1.2 0 .2 0 0 .1.1.2 0 .2h.2l.7.6c.2.3.8.7 1.2 1 .6.2.6 1 1.2 1.4l.3.5.7.8c.2.3.6.4.5-.8 0-.3-.1-.5-.4-.6.1-.2-.1-.3-.1-.4-.2 0-.2-.4-.4-.4h.1l-.2-.3-.7-.7-.3-.1-.4-.4-.1-.2v.1c-.1.1 0-.2-.2-.3h-.6c-.2 0 .1-.1 0-.2 0-.1 0-.3-.2-.3-.2-.1-.2-.4-.4-.4s0-.3-.2-.3v-.1h-.2s-.1-.2 0-.2c-.2-.2-.5-.1-.7-.4h-.3s-.3-.2 0-.2c0-.2-.3-.1-.4-.2h-.1l-.2-.2s0-.2-.2-.1c-.1 0 0 .1 0 0l-.6-.3c0 .1 0 0-.1 0-.2 0 0-.2-.2-.2h-.1c-.2.2 0-.1-.3 0 0 0 0 .2-.1.1h-.1v-.2h-.2l-.3-.1h-.3s-.1-.1 0-.2h-.4c-.3-.2-.5 0-.8-.2 0 .1-.1 0 0 .2-.4 0-.6-.3-.7 0l-.2-.1h-.5s0 .1-.2 0h-.2l-.3-.1-.8.1h.1-.1c0-.2 0-.1.1-.1-.2-.2-.4 0-.6 0h-.1l-.1.1-.1-.2-.4.1v.1h-.1v-.1l-.2.1.1-.1h-.4v.2h-.3v.1h-.5c-.7.4-.8.6-.7.8l.4.1c.6.2.9 0 1.6-.2zm-142.5-6.6c.3 0 .5.1.8 0a2.3 2.3 0 0 0 .5-.2c0-.1.2 0 .3-.2h.2l.3-.1.3-.2c.2-.2.4.1.5-.1 0 0 .2 0 .1-.2l.1.1.1-.1h.1v-.2.1l.4.1c.4 0 .8-.4 1.2-.3.1.2.1-.2.2 0v-.1h.1l.5-.1c.3 0 .6-.2.8-.3.3-.3.8.1 1-.2h.4s1.4-.4 0-1.1h-.3s-.1.1-.2 0c0 .2-.2 0-.3.1h-.1c-.2 0-.4 0-.5.2 0 .1 0 0-.1 0-.1.2-.3.1-.3.2h-.1c0 .2-.1-.1-.2 0 0 0 0 .4-.2.4 0 0 0-.2 0 0v-.2h-.5c-.1.1-.1-.2-.2 0v-.1c-.1 0 0 .1-.1 0h-.1c-.1 0-.2.2-.4 0l-.1.2h-.1v-.1c-.1-.1-.1 0-.2 0v.2-.1h-.4v.2l-.3-.1v.1c-.1 0-.1-.2-.2-.1v.1c0 .2-.1-.1-.2.1v.1-.1l-.1.1h-.5c-.2 0-.2.2-.4.1v.2c-.1.1-.3-.2-.3.2l-.1-.1a.5.5 0 0 1-.3 0v.2h-.1c-.1 0 0 0 0 0-.1 0-.2.1-.2 0-.2 0-.2.2-.4.3v-.2c-.1-.1-.2.2-.3 0v.2s0-.1-.1 0c-.1-.1-.2 0-.2 0v.1l-.1-.1v.1c-.1 0 0 0 0 0h-.2v.1l-.2.1c0 .2-.1.2-.2.1-.7.9 0 1 0 1 .4 0 .5-.2 1-.4z"/><path d="m172.6 417.9.7-.1.4-.2c0-.2.1-.1.2-.2h.1v-.1h.1l.2-.1c.1 0 .1-.2.3-.2 0-.2.3 0 .3-.2.1 0 .2 0 .1-.2l.1.1v-.1h.1v-.2.1l.4.1c.3-.1.5-.5 1-.5v.1c0 .1 0-.2 0 0v-.2l.1.1h.1l.4-.2c.2 0 .4-.2.6-.4.1-.3.6 0 .8-.2l.3-.2s1.1-.4-.2-1l-.2.1c-.1-.1-.1 0-.2 0 0 .2-.2 0-.2.1h-.2c-.1 0-.3 0-.3.3h-.1c0 .2-.2.1-.2.2h-.2c.1.1 0 0 0 0-.1 0 0 .4-.2.4 0 .1 0-.1 0 0v-.2h-.2l-.2.1c-.1.1-.2-.2-.2 0h-.5c0 .1-.1 0 0 .2l-.2-.1c-.1-.2 0 0-.2 0l.1.1h-.2v.2h-.3c-.1 0-.2-.2-.2 0v-.1.4-.1h-.1v-.1.1h-.3v.1l-.2-.1s0 .2 0 0c-.2 0-.2.3-.4.2v.2c0 .1-.3-.1-.2.2h-.3v.2h-.3l-.2.3v-.1h-.3v.1a.2.2 0 0 1 0 .1s0-.1 0 0c-.2-.1-.2 0-.2 0v.1-.1l-.1.2v-.2l-.2.1.1.2s0 .1-.1 0v.2h-.2c-.4 1 .3 1 .3 1 .3 0 .3-.4.6-.6zm-27.9-25.1.6 1.3.5.9c.1 0 .1.4.3.5v.3l.1.2a.8.8 0 0 1 .2.5l.2.6c.3.3 0 .6.2 1 0-.1 0 0 0 0s0 .3.2.3h-.1l.1.3v.2h.2l-.2.1h.2c0 .2-.2.4-.3.5 0 .8.2 1.7-.1 2.5h-.1c-.1 0 .2.2 0 .2v.3c-.2.4 0 .7-.1 1-.3.4-.3 1.1-.3 1.6 0 .7-.6 1.2-.6 1.9l-.2.6-.3 1c0 .5 0 .8 1 0l.3-.7.1-.3c0-.3.3-.4.2-.6l.2-.3c0-.3.2-.7.1-1v-.3h.1v-.5h.1v-.3.1c-.2 0 .2-.1.1-.4 0-.1-.3-.4-.2-.6 0 0 .1.1.1 0h.1c0-.1.2-.2.1-.3h.1c-.1-.3.2-.4 0-.6 0-.2.3 0 .2-.3v-.1c.1-.1 0 0 0-.2 0 0 0-.1.1 0 .2-.3 0-.6.1-.9v-.4h.1v-.5s0 .2-.1 0l.1-.3v-.3s0 .2-.1 0l.1-.6v-.1c-.1-.2.2-.1 0-.3h.1-.2c-.1-.3.2-.2 0-.4h-.2.1v-.2h.2l-.2-.2v-.8s-.1-.3 0-.4c0-.3-.3-.5-.3-.8 0 0 0-.1-.1 0-.2-.3 0-.6-.3-.6v-.3l-.2-.4c0-.1-.2 0-.2-.2v-.2c0-.1 0-.1 0 0l-.1-.3-.5-.7h.2l-.1-.1v.1c.1-.2-.2-.3-.3-.6h-.2c0-.1.2-.2.1-.3l-.3-.3v-.1l-.2-.2h.2l-.2-.2h-.2s-.2-.1-.2-.3v.1c-.3-.1-.3-.2-.4-.4-.7-.4-1-.3-1-.1l.1.4c.2.7.6.8 1 1.4zm71.7-166c2.6 6.2 3.2 8 6.4 14.2 1.4 3 3.1 6.2 4.6 9 .9 1.4 2 3.9 3 5.4l.3.7 1 1.8c.4.7.9 1.7 1.2 2l.5 1-.2-.1a106.8 106.8 0 0 1 2.4 4.2v-.1l3.6 6.3c2 3 2.7 5 4.7 8.2-.2-.4 0 .2 0 .2l2 3 .6 1 1.1 1.8-.3-.4 1.5 2.4-.1-.5c.7 1.3 0 .4.8 1.6 1.1 1.7 1.6 2.8 2.5 4.6a438 438 0 0 1 12 21.9l.1.3c0 .2 1.2 1.8 1.2 2.2l.5.7c0 .3.3.8 0 .4l.8 1.2.3.9c1.5 2.9 3 5.3 4.5 8.4 1.8 3.7 5.5 10.6 7.6 14.6 3 5.6 6 12.4 9 18l.4.7 2.6 5.3 5.3 10.4c2.1 4 3.1 5.4-1.3-4.7l.1.2c-1.4-3-2.3-4.8-3.4-6.7 0-.4-1.2-2.4-1.5-3.1-1-1.7-1.7-3.7-2.6-5.3l.3.4c-.7-1.2-1.6-2.9-1.5-3l-4.7-9v.2l-1.3-2.6v-.2c-.8-1.1-1.8-3.4-2.4-4.3v-.1l-1.1-2.4.4 1c-.3-.3-.8-2-1.8-3.6-.8-1.6-2-3-2.7-4.7-.5-.7.4.6-.2-.5 0-.1.3.5.2.2l-1.7-3.4c-1-1.9-1.6-3.6-2.4-4.8-1-1.9-.5-1.4-1.7-3.3l-.3-.8c-.4-.9-.4-.6-.9-1.5.1 0-.5-1.2-.2-.7-1-2.2-2.4-4.3-3.8-7.2-.4-.5-1-2-1.4-2.4 0 0-1.5-2.8-.6-1.3l.2.4.2.1-2.5-4.4c.2.5.6 1.1.3.7l-.8-1.5.2.3-1.1-2.2v.3c-.5-1-.6-1.5-1.4-2.6-.3-.5.5 1-.1 0l-3-5.5c0 .2-.2-.2-.6-.7v-.1c-1.2-1.8-.2-.8-1.4-2.6l.1.1-.4-.4c-1.1-1.6-.4-1-1.7-2.7.5.7 0 .4-.4-.5l.2.2-.7-1c.2.2.2 0-.2-.7l.3.5-1-1.4c-.5-1-1.6-2.8-1.7-3.3l-1.8-2.8c.4.4-.4-.9 0-.6a27.6 27.6 0 0 1-2-3h.2c-1.5-2.6-2.7-4.5-4-7 0 .2-.7-1-.6-.7-1.5-2.4-2.3-4.7-3-5.4-.7-1.1-.7-1.4-1-2l.1.3-2.3-4.4c-.5-.8-.7-.8-1.4-2.3l-.3-.6-.1-.3a3.7 3.7 0 0 1-.2-.4l-.2-.4v.2l-1.3-2.8-3.6-6.8.6.9-.8-1.6.7 1.4c-.8-2-2-4-3-6.2l-.2-.5v-.1l-.5-.8-.4-1.2c-.3-1-1.1-2.5-1.7-3.7.3.7.2.5 0 .2l-.5-1.3v-.1l-.8-1.7c0-.3.5.9.6 1l-1.5-3.4c-.5-1.2 0 .2-.3-.3l-1.3-3.4v.4l-1.7-4.7c-3-7.6-3.4-8.4-3.2-7.2a48 48 0 0 0 1.2 4.3c2 6.2 3.4 9.2 6.4 16.3zm-60 134.8c1.2.8 1.4 1.2 2.8 2l1.9 1.3c.4 0 .8.5 1.2.7l.1.1.4.2.5.3.2.2c.3.1.6.3.8.6v-.1c.6.4 1 .4 1.4.9.8.3 1 .9 1.8 1.1-.1 0 0 .1 0 .1.3.2.7.4.8.3.2.2.1.2.1.3l.5.1h-.1l.5.3v-.2c.3.3 0 .2.3.4v-.1l.8.9c1.6 1 3.4 2 4.7 3.1v.1c0 .1.5.1.5.3h.2s.1.2 0 .1l.3.2.2.2 1.8 1.1c.6.7 2.2 1.5 3 2 1.4.7 2.4 2 3.8 2.7h.1l1.1.8s5.3 3.6 1.9 0l-1.4-.9c0-.2-.5-.3-.6-.5-.4-.1-.7-.6-1.1-.7h.1l-.6-.5a8 8 0 0 0-2-1.1h.1l-.6-.3-1-.7-.4-.3.1.1c-.1.1-.3-.3-.7-.5-.3-.2-.9-.1-1.2-.4-.2 0 .3 0 0-.2h.1c-.3-.2-.3-.4-.7-.6-.4-.2-.6-.6-1-.7-.4-.2-.1-.3-.6-.5l-.1-.2-.4-.2s-.2-.2 0-.1c-.4-.4-1-.5-1.5-1l-.6-.3s-.6-.4-.2-.3h.1c-.3-.3-.7-.3-1-.6.1.1.3.2.1.2l-.3-.2h.1l-.4-.4v.1c-.2-.2-.2-.3-.5-.4-.2 0 .1.2-.1 0l-1-.8h-.3v-.1c-.5-.2 0-.3-.5-.5h-.1c-.5 0-.1-.2-.7-.3.2.1 0 .2-.2 0h.1l-.2-.1c.1 0 .1 0 0-.2h-.3l-.6-.6-.7-.4c.1 0-.1-.2 0-.2-.2 0-.6-.2-.7-.4-.5-.5-1-.6-1.5-1 0 .1-.2-.1-.2 0-.6-.3-.9-.8-1.3-.7-.2-.1-.2-.3-.3-.4l-1-.5-.5-.2c.1 0 0 0 0-.2h-.2l-.1-.1-.5-.4-1.5-.9h.2l-.3-.1.3.1c-.3-.4-.9-.4-1.3-.8h-.1l-.2-.1c0-.1 0-.2-.2-.3-.1-.2-.5-.3-.8-.5.1.1 0 .1 0 .1l-.2-.2-.4-.2h.2l-.7-.4c-.3-.1 0 .1-.1.1l-.7-.4a2 2 0 0 1-1-.6c-3.4-1.5-1 .4-1 .4 1 .9 1.8 1.1 3.3 2z"/><path d="m175.1 354 5-7 3-4.8 1.8-2.9.2-.3a5.7 5.7 0 0 1 .6-.9l.7-1.1.4-.5 1.4-2.2h-.1l2.2-3.3c.9-1.8 1.8-2.6 2.8-4.5-.2.3 0 0 0 0 .6-.8 1-1.7 1-1.8.3-.6.3-.4.4-.5l.5-1v.2l.7-1.3-.3.1c.5-.6.3 0 .7-.7h-.1c.6-1 1.1-1.5 1.8-2.4l3.4-6.1 1.6-3.2.7-1.6.4-1.6.1-.2c.2 0 .1-1.2.3-1.3v-.5l.1-.2.1-.8.2-.4 1.1-5.2c.7-2.2 1.5-6.4 2-8.9.5-3.4 1.9-7.3 2.4-10.8 0-.1.1-.4 0-.4l.8-3.2s3.5-15.5-.1-4c-.5 1.7-.8 2.8-.9 4-.2.2-.3 1.5-.5 1.9 0 1-.6 2-.7 3.1v-.3l-.4 1.9c-.4 1.8-1 4.2-1.1 5.4 0 .6-.2.8-.3 1.5v.1c0 .8-.5 2.1-.5 2.7h-.1l-.3 1.4.1-.5c.2.2-.3 1-.4 2-.3 1-.1 2.1-.4 3 0 .6 0-.4-.2.4v-.2c-.2.7-.4 1.1-.5 2h-.1c-.1 1.2-.6 2.1-.6 2.9-.2 1.2-.4.7-.5 2l-.2.4-.2 1s-.2.7-.2.3l-.4 2a7 7 0 0 1-1 2c0 .5-.4 1.2-.5 1.5 0 0-.8 1.6-.5.6l.2-.2v-.1c-.6.8-.8 1.6-1.3 2.5l.2-.4-.4.8v-.2l-.7 1.2.2-.1-1 1.4c0 .3.5-.5.1.1l-1.8 2.8-.2.5h-.1c-.5 1-.4.3-1 1.4v-.2.4c-.4 1-.4.4-.9 1.5.3-.4.3 0 0 .4v-.2l-.3.6c0-.2 0-.1-.3.3v-.3l-.3.8-1.2 1.7-1 1.6-.2.2-1 1.7v-.1c-1 1.4-1.5 2.5-2.4 3.7 0 0-.4.6-.2.5-.8 1.4-1.7 2.3-1.8 3l-.7 1v-.2l-1.5 2.3c-.2.4-.1.6-.6 1.3 0-.3-.1 0-.3.3 0-.2.1-.2-.2.1a2 2 0 0 1 0 .2c-.4.5-.3.4-.1.2l-1 1.3-2.2 3.7.2-.6-.5.9c-.1-.1.2-.5.4-.8-.8.9-1.2 2-2.1 3.2l-.1.2-.3.6-.5.4-1.2 2c.3-.4.2-.3.2-.1l-.5.6h-.1l-.5 1 .3-.6-1.2 1.7c-.3.6.2-.1 0 .2l-1 1.7.2-.1-1.6 2.2c-4.6 7.9-.3 2.1-.3 2.1 2.1-2.8 3-4.5 5.3-8zm65-53.2-3.5-6.1-2.5-3.9c-.5-.5-1-1.6-1.5-2.3l-.1-.3a3.8 3.8 0 0 1-.5-.8l-.6-.9-.3-.4a18.3 18.3 0 0 1-1-1.8h-.1c-.7-1.2-1.1-1.5-1.7-2.7-1-1.3-1.2-2.3-2.3-3.6.1.1 0-.1 0-.1-.4-.7-.9-1.4-1-1.3l-.2-.5-.6-.8.1.2-.7-1v.2l-.3-.8v.1c-.5-.8-.7-1.4-1-2.2-2-3.2-4.4-6.5-6-9.6v-.2c0-.1-.7-.7-.6-1l-.3-.2c0-.1-.1-.4 0-.2l-.4-.5-.1-.4-2.2-3.8c-.8-1.7-2.6-4.7-3.6-6.5-1.6-2.4-2.6-5.6-4.2-8a.9.9 0 0 0-.2-.4l-1.2-2.4-2.4-4.7c-1-1.7-1.6-2.3.1 2.4l1.5 3 .7 1.4c.5.7.7 1.6 1.2 2.3l-.2-.2.7 1.4c.7 1.4 1.6 3.2 2.2 4l.7 1.1v.1c.4.5.8 1.5 1 2l.6 1-.2-.4c.3 0 .3.9.9 1.6.3.7 1 1.2 1.4 2 .3.3-.3-.2 0 .3 0 0-.1-.2-.1 0l.8 1.4c.6.8.8 1.7 1.2 2.2.5.8.1.7.8 1.5v.4c.3.4.3.2.5.6 0 0 .3.6 0 .4.6 1 1.3 1.8 2 3.1.2.2.5.9.7 1 0 0 .8 1.3.2.6v-.1l-.1-.1c.3.8.8 1.2 1.2 2 0-.3-.3-.6-.1-.4l.4.7-.1-.1.5 1v-.2l.7 1.2c.2.1-.2-.6.1 0l1.4 2.4.3.3h-.1c.6.8 0 .4.6 1.2l.2.1c.6.7.1.5.8 1.2-.2-.3 0-.2.3.2h-.1l.3.4c-.2-.1-.2 0 0 .3l-.2-.2.5.6.9 1.5.8 1.2c-.2-.1.2.5 0 .3.2.3.8 1 .9 1.4.6 1.2 1.3 1.9 1.9 3 0 0 .3.5.3.3.8 1 1 2.1 1.6 2.4.4.5.3.6.5.9l-.1-.2 1.2 2c.2.3.4.2.7.9l.2.3c-.1-.2-.2-.2 0 .1l.1.2.1.1c.2.4.7 1 .7 1.2l2 2.8c0 .2-.2 0-.4-.3l.4.7-.4-.6c.4 1 1.2 1.6 1.7 2.7l.1.1.4.4c0 .2-.2 0 .1.5l1 1.6v-.1l.4.5v.1l.5.7-.4-.4.9 1.4c.4.5 0-.1.2 0l1 1.5v-.2c.5.8.8 1.3 1 2 4.6 5.9 1.7.8 1.7.8-1.4-2.5-2.4-3.7-4.3-6.6zm53.9 88.4c1.5-.5 2-.4 3.5-1l2.3-.9c.3-.2 1-.3 1.3-.6h.2l.4-.1.6-.3h.2a5.5 5.5 0 0 1 1-.4c.7-.3 1-.5 1.6-.6.8-.5 1.4-.3 2.1-.8h.1c.4-.1.8-.3.7-.5h.4l.4-.2h-.1l.6-.2h-.2c.4-.2.2 0 .5-.1v-.1l1.2-.1c1.9-.6 3.8-1.6 5.6-2h.1c.1.1.4-.3.5-.2l.2-.2h.6l2.2-.9c1-.2 2.7-1 3.6-1.3 1.4-.7 3.2-.8 4.6-1.5l.2-.1 1.3-.5s6.5-2.2 1.2-1.5c-.7.2-1.2.3-1.6.6-.2-.1-.6.2-.8.2-.4.3-1 .2-1.4.5l.1-.1-.7.2c-.8.3-1.8.6-2.3 1v-.1l-.6.3-1.1.4-.7.2h.3c0 .1-.5 0-.9.2-.4.1-.7.6-1.1.7-.2.2.1-.2-.2 0 0-.1.2-.1 0-.2-.2.2-.4.1-.8.3-.5.2-1 .1-1.2.4-.5.2-.4-.1-.9.2h-.2l-.4.2c0-.1-.3 0-.2 0-.6 0-1 .4-1.8.5-.1.2-.5.2-.6.4 0 0-.7.2-.4 0h.1v-.2c-.4 0-.6.4-1 .5 0 0 .2-.1.1 0l-.3.1v-.1l-.5.2c-.2 0-.4 0-.6.2-.2 0 .3 0 0 .1l-1.5.3c.1.1 0 .1-.1.2-.5.2-.3-.2-.8.1v.2c-.4.2-.3-.1-.7.2.2 0 .1.2-.1.2h-.4v-.1l-.2.2-1 .3s-.5.1-.6.3c0-.1-.3 0-.2-.1l-.8.3c-.7.1-1.1.5-1.8.6l-.2.2c-.6.4-1.2.2-1.3.6-.3.2-.4 0-.6.1h.1l-1 .4c-.3 0-.3.2-.6.3h-.4c-.3.1-.2.1-.1.1-.2 0-.6.3-.7.2l-1.7.8s0-.2.2-.2l-.4.1.4-.2c-.5 0-1 .5-1.6.6h-.1l-.2.3s0-.2-.3-.1l-.9.4c.2 0 .1 0 0 0l-.3.1-.4.2.2-.2-.8.3c-.3.2 0 .1 0 .2-.3.1-.5.3-.8.3a3 3 0 0 1-1 .4c-3.5 2-.5 1.2-.5 1.2 1.5-.3 2.2-.8 3.9-1.5zM223 232l1.3-.5 1.3-.6 1.6-1 .9-.8h.1a.6.6 0 0 1 .3-.3l.4-.3.1-.1.7-.6 1-1c.3-.6.9-.6 1.1-1.3 0 .1 0 0 .1 0 .2-.2.4-.5.3-.6.1-.2.2 0 .2 0 0-.1 0-.3.2-.5v.1l.3-.4h-.2c.2-.2.2 0 .3-.2h-.1c.2-.4.5-.4.8-.7.9-1.3 1.5-2.9 2.3-4 .2 0 0-.5.2-.5v-.2h.1l.1-.2.1-.2c.4-.5.4-1 .7-1.6.5-.6.9-2 1-2.9.2-1.1 1.1-2.3 1.2-3.5v-.2l.2-1s.3-1.3.3-2.2c0-.8-.3-1.1-1 .7l-.3 1.3c-.1 0 0 .5-.2.7l-.2 1v-.1l-.2.6-.4 1.7-.1.5-.3 1v-.1l-.2.5v-.2c.2.1-.2.3-.2.7v1c0 .2-.1-.2-.2 0l-.4.5c0 .4-.4.6-.4 1-.1.3-.3 0-.4.5h-.1l-.1.4s-.1.2-.2 0c-.2.4-.2 1-.7 1.4v.5c-.1 0-.4.5-.3.1v-.1c-.3.2-.2.5-.4.8 0 0 .1-.2.1 0l-.1.2v-.1l-.3.3c0 .2-.2.2-.2.5 0 0 .2-.2 0 0l-.7.9c.1 0 0 0 0 .2-.2.3-.3 0-.4.3v.1c-.1.4-.2 0-.3.5 0-.1.2 0 0 .2v-.1l-.1.2s0-.1-.1 0v-.1l-.1.3c-.2 0-.4.4-.5.4l-.2.2-.2.3h-.2l-.4.5-1 1s-.2.1 0 .2c-.4.4-1 .4-.8.8l-.4.1-.7.5c-.1.1 0 .3-.3.4h-.2l-.1.2c-.2 0-.4.3-.5.2l-1 .8c-.1 0 0 0 0-.2l-.2.2.2-.2c-.4.1-.7.5-1.1.6v.1h-.1l-.1.2c-.1 0 0-.2-.3 0l-.6.3c.1 0 0 0 0 0l-.2.1-.3.2.1-.2-.6.2c-.2.2 0 .1 0 .2l-.6.3h.1l-.9.3c-1.3.7-1.5 1-1.2 1 .2.2.9 0 .9 0 1.2-.1 1.7-.5 3-1.1z"/></g><use xmlns="http://www.w3.org/2000/svg" xlink:href="#e"/><g xmlns="http://www.w3.org/2000/svg" fill="#fff"><path d="m323.8 121-5.5-1.8-.2.1 2.6-5.2s3.8-1.5 5.7-4.4.7-3.7.7-3.7-6.6 2-8.3 3.4c-1.7 1.3-4.7 3.2-5 5.2s-.4 4-1.8 6.4-16.5 16.2-16.5 16.2l11.3 14.4 14.3-19.5.8-.6 5.9-4.5c1.4-1 9.7-14.5 10.8-16.4L323.8 121z"/><path d="M336.4 105.7c-.9-.7-3.4-1.8-4.3-.3-.6 1.1.4 3 2 4.2l-1.1-.4c-1.2-.4-4.2-1-4.9.7-.6 1 .7 2.6 2.6 3.5l-.9-.2c-1.1-.3-3.8-.5-4.1 1.3-.3 1.5 1.9 3.1 4.3 3.4 2.4.4 4.3.1 4.7-1.9.2-.7-.4-1.3-1.1-1.7 1.9.4 3.3.2 4-1.4.4-.7-.1-1.4-.9-2 1.1.3 2-.1 2.7-1.3 1.1-1.7-2.1-3.2-3-3.9z"/><path d="M327.5 117.5c-1-.2-3.4-.4-3.7 1.2-.2 1.3 1.7 2.8 3.9 3.2 2.2.3 3.2-.2 3.6-2s-2.8-2-3.8-2.4zm-134 91.8s-.9 11 21 11c24.7 0 46.8-11 46.8-11h-67.8zM164 167.9c-3.9 6.5-3.6 7-3.3 21.1.4 14.2 3 43.3 3 43.3s-1.3 6.2 1.1 13.5 3.3 7.8 3.9 8.8c.5 1 1.7-.3 1.7-.3s.6 2.3 2 2.3c1.3 0 1.4-1.5 1.4-1.5s.9 1.6 2 .6c1-1 .6-2.9.8-5.6l.9-8.2c0-1 1 2.1 1.7 3.7s2.7 2.2 2.2-.8c-.6-3-.6-5.7-.8-6.5s-1-2.8-1.7-4.2l-.6-1.4s-.6-1-.1-4.2 7.2-34.8 8.5-39.5c1.5-5.9-19.3-26.6-22.7-21z"/></g><path xmlns="http://www.w3.org/2000/svg" d="M304.3 167.2v.2zm10.9-14.6-.3-.9a4 4 0 0 0-.5-.6l-1.5-1.6.2.1-6.6-6.6c0 .2-1-1-1-.7-2.3-2.2-3.9-4.6-5-5-1.1-1-1.2-1.3-1.8-1.9l.3.2-2.2-2.2c-.3-.2-.4-.5-1-.9-.3-.1-.7-.2-1-.1l-1 .6-.5.5-.3.4-1.4 1.2c.4-.4-.2 0-.7.5.3-.3.4-.4-.4 0a3 3 0 0 1-.3.4c-1 .7-.8.6-.3.3h.1c-1 .6-2.6 2-2.8 2l-7 5.2c-.3.1.2-.3.9-.8l-1.7 1.1 1.5-1c-1.1.5-2 1.3-3.2 1.7-1 .5-2.3.8-3.6.5h-.7l-1-.1c-.2-.3.2-.2-1-.8a23 23 0 0 1-3.7-2.4c.5.5.3.4 0 .2-.5-.4-.7-.8-1.1-1v-.2c.1.3-1.4-1.2-1.6-1.3-.2-.4.8.7 1 .7l-1.5-1.5-1.4-1.5c-1.1-1 0 .3-.5-.1l-2.8-3.1.2.5-1.6-1.8v-.4a70.2 70.2 0 0 0-10.1-19.2 37.6 37.6 0 0 0-7.7-7.6 26.7 26.7 0 0 0-4.2-2.6l-1.7-.9c-2-1-4.2-1.7-6.4-2a32 32 0 0 0-15.4 1.6 49.7 49.7 0 0 0-11.7 5.5 63 63 0 0 0-10.4 7.9l-6 5.9-3 3-2.7 3c-1.6 2-4.7 5.4-6.4 8l-.8.8-2 2.7c-.7 1.3-1.8 2.7-2.2 3.4v-.1l-1 1.6.1-.3-2 3.6-1.9 3.4.2-.1-1.5 3-1.1 2.6-1 2.5-1 3v-.1l-1.1 4-.5 1.8-.5 1.7a50 50 0 0 0-1.3 7.9c0-.8-.1.3-.2.2-.3 2.9-.5 5.9-.3 6l-.3 2v3.3-.7l-.2 4.6.2-.9c-.1 2.5-.3.6-.3 3h.2c0 3.4-.4 5.4-.5 8.7l.2 5.1.2 2.7.1 2.1c.7.2 1.5.1 2.2.1h5l.5 6.4.6 6.6v.7l.2 2.2.3 2.6v1.2-.2 1.2l-.2 1.4a39.7 39.7 0 0 0 0 2.6v-.1c0 1.7.2 3 .3 4l.8 3.9 1.7 4.8c.5 1.5 1 3 2.4 4.8-.3-.4 0 .2 0 .2l.3.3c.1.3.4.5.7.6s.6 0 .9-.1l.3-.2c.2.4.4.6.5.6l.8.9.2.2h.9c.2 0 .5 0 .8-.2a1.4 1.4 0 0 0 .4-.3l.1-.2v-.1.2-.1a1.3 1.3 0 0 0 .1-.3 1 1 0 0 0 .2.2.7.7 0 0 0 .2.1l.4.2.9-.1h-.9c.6 0 .9-.2 1-.2l.3-.2s.3 0 .7-1h-.2c.4-1.1.4-2 .5-3 0-.8 0-1.6.3-2.7l.3-3 .2-2v-.4h.2v.2l.2.4.3.9c.2.4.4 1 .8 1.3l.7.6c.3.1.7.2 1 .1.3 0 .6-.3.8-.7l.1-.4v-1.9c-.4-1.7-.6-3.4-.7-5.1v-.7l-.2-.7-.4-1.2-1-2.4v-.3l-.8-1.5-.2-.5a1.1 1.1 0 0 1 0-.3 6.5 6.5 0 0 1-.1-.9v-.3l.2-1.5.2-1 2-10 1.1-5.1h.1l5.5.2h.6l.1-.3.2-1.2v-1.5c.1-.9.1-1.8.3-2v-1.5c.2-.4.3-1.2.3-.5l.2-2.4.4-1.4.6-3.3-.3 2.7c-.5 5-.7 7.9.2 4.1l-.2 1.7-.2 1v.2l-.1.5h2.9v.2l-2.9.2h-.3v-.4a.4.4 0 0 1 0-.2 1.3 1.3 0 0 1 0-.1v-.4l.1-.9v-.5c-.1-.3-.2-.4-.3-.3v.6h-.1c-.1 0 0 0 0 0v.4l-.1.2-.1.4-.1.2-.1.3v.3l-.1 1 1.1.2h2.8l.1 1.1.5 1.4c.2.7.5 1.2.8 1.7l1.1 1.4 1.2 1 1.3 1c1.8 1 3.8 1.7 6.6 2.4l3.1.7 2.5.3c.8.2 1.6.2 2.5.2 1 0 2 .2 3.3 0a120.9 120.9 0 0 0 3.8 0l3.7-.4c1-.3 3.1-.4 4.4-.7h.5l1.5-.2 1.7-.4h.8c1-.3 2.3-.6 3.4-.7l-.1-.2c2.3-.3 3-.8 5.1-1.1 2.5-1 4.1-.8 6.7-2-.3.2.1 0 .1 0 1.2-.3 2.5-.8 2.4-1 .9-.4.7-.2 1-.2l1.3-.7-.3.2 1.9-.7-.5-.1c1-.3.4.2 1.3-.3v-.1c1.4-.5 2.3-.6 3.7-1l3.1-1.4h7.1a36.1 36.1 0 0 1 2.3-.2h4.2v-.4l-.2-.6-.2-1.3-.3-1.6a56 56 0 0 0-.5-2.5l-.1-1.2c-.3-1-.6-2.3-.7-3.3l-.8-4-.3-2 .1.4a148 148 0 0 1-1-4.7h.4c1.2-.1.8-.3 2-.5h.7c.3-.1.6-.2.2 0 2.9-.6 5.4-2 8.7-3.6l1.4-1 1.3-.8c.1 0 3-2 1.5-.7l-.4.2-.2.3c1.9-1 3.1-2.2 4.8-3.4l-.8.5a24.5 24.5 0 0 0 1.6-1.2l-.3.4 2.3-1.8-.4.2c1.1-.9 1.7-1 2.7-2.2.5-.6-1 .7 0-.3 1.4-1.1 3.5-3 5.2-4.7-.3 0 .2-.4.6-.9h.1c1.6-2 .8-.5 2.4-2.4l.2-.5c1.2-1.9 1-.7 2.3-2.9-.6.8-.5.2.3-.7l-.1.3.8-1c-.2.3 0 .2.6-.6l-.3.6 1-1.6c1-1 2.2-3 2.7-3.3 0 0 1.9-2.5 2.1-3.1-.1.2 0 0 .3-.1l.1-.2.2-.2c.1 0 .2-.1 0 .1.2-.4.5-.9.5-1.5zM180.6 216c-.1 1 0-.9-.2.6-.1 0 0-.7 0-.4l-1 4c-.4 2.3-1 4.2-1.2 5.7l-.4 2c-.1.4-.3.7-.3 2l-.1 1v1l.2.3.2.8c-.1-.1.5 1.3.2.7l.8 1.8.8 1.9a12.8 12.8 0 0 1 .4 1l.1 1 .2 2.4c.2.8.3 2.5.6 3v1.4c0 .2-.2.2-.2.2v-.2l.1-.3v-.2l-.1.4v.1h-.2s-.2 0-.3-.2a1.6 1.6 0 0 1-.3-.3l-.2-.5-.6-1.7.3 1.1c.1.2.1.3 0 0l-.4-1.1-.6-1.4.3.5-.5-1-.4-.3c0-.1-.2-.2-.4-.1l-.3.2h.2a2.3 2.3 0 0 1-.3.2l-.2.6-.2 1.6-.1 1v.6c0 .6.2-1.3 0 .1l-.4 3.1-.2 1.8-.1 1.7v1.1c0 1.2-.1 1.3-.2 1.5l-.2.2a1.2 1.2 0 0 1-.4.5v.1h-.2l-.2-.2-.2-.2h-.2l-1.3-10a.5.5 0 0 0-.5-.5c-.3 0-.5.3-.5.5l1.4 10.1-.2.1c0 .3-.3.6-.3.6s-.1.2-.3.2h.3l-.2.1h-.5a.6.6 0 0 0 .2 0c-.4 0-.5-.2-.7-.4l-.3-.6.4.4-.8-1.3-.1-.3-1.6-8.2c0-.3-.3-.5-.6-.4a.5.5 0 0 0-.4.5l1.6 8.3-.4.3-.3-.1c-.5-.8-1-1.4-1-1.7l-.6-1.4-.9-1.8c.3.5-.2-1 0-.6a32 32 0 0 1-1.3-3.7v.2a37 37 0 0 1-1.3-8.3s0-1.4-.1-1a16.4 16.4 0 0 1 .1-2.2 12.1 12.1 0 0 1 .2-1v-1c0-1.2-.2-2.1-.4-2.7v-2.4.4l-.5-5.4c-.1-1-.3-1-.4-2.8.1.5 0-.2 0-.8v-.4a4 4 0 0 1 0-.5c-.1-1-.1-.9 0-.4l-.1.2c0-1.1-.3-3.2-.2-3.3v-1.2h4.2l10.3.2 4 .1a21 21 0 0 1-.5 3.2zm8.8-8.6zm3.6 1.8h1.3l-1.3.2v-.2zm61.8 1.8h-.2c-1.3.7-.6-.1-2 .6l.1-.1-.3.4c-1.2.7-.8 0-2.2.8.6-.2.4.2-.3.4l.1-.2c-.4.2-.5.3-.8.3.2-.1 0-.2-.5 0l.3-.2-1 .6c-.9.1-2.2.7-2.6.7 0 0-2 .5-2.3.8.4-.2-.7 0-.4-.2a8 8 0 0 1-2.5.8v-.1l-2.8.7c-.9.3-1.7.5-2.7.6.1.2-1 .3-.6.4-2 .7-3.8.4-4.4 1-1 .2-1.1 0-1.6.1h.2l-3.5.5c-.7 0-.7.4-1.9.4h-.5c.2 0 .3-.1-.3-.1h-.3c-.7.2-.6.2-.2.2-.7 0-2 .2-2.1 0l-5.6.5c-.2-.1.2-.2.8-.2h-1.3c0-.2.7 0 1.1-.1h-2.3c-.9 0-1.7 0-2.6-.2h-.4s-.5.1-.8 0c-.2 0 .1-.2-.8-.3l-2.8-.4c.4.1.3.2 0 .2-.4 0-.6-.3-1-.3v-.2c.2.2-1-.2-1.2-.1-.2-.2.7 0 .8 0-1.7-.5-.9-.2-2.5-.9-1-.2 0 .2-.4.2l-1.1-.5-1.2-.7.2.3a7 7 0 0 1-2.6-2.3 9 9 0 0 1-2.5-3.9h2c10.9.4 16.5 0 29.5-.1 11.3 0 14.4.3 26.2.2h4.6-.3c.2.2-.2.3-.6.5z"/><path xmlns="http://www.w3.org/2000/svg" fill="#fff" d="m193 185.8.1-.2-.1.2zm28.9-33.8zm-25.3 27.7zm-3.2 8.5 1.9-5.1.6-1.7.7-1.6c0-.6.6-1.4.8-2l.1-.2a1.9 1.9 0 0 1 .3-.7l.4-.7.2-.4a10 10 0 0 1 .8-1.4h-.1c.6-1 .7-1.4 1.3-2.2.6-1.1 1.3-1.5 2-2.7-.2.1 0 0 0 0 .4-.5.8-1 .6-1.1.3-.3.3-.2.4-.2l.4-.7a.6.6 0 0 0-.1.2l.6-.8h-.2c.4-.3.2 0 .5-.3.5-.6.8-.8 1.4-1.2 2.1-2 4.4-4.3 6.7-5.8h.1c.1 0 .5-.6.7-.6l.2-.2s.2-.2.1 0l.4-.4.3-.1c1-.6 1.7-1.3 2.7-2 1.3-.7 3.5-2.4 4.8-3.3 1.8-1.4 4.2-2.4 6-3.9l.2-.2 1.8-1.2s2-1.5 3.1-2.8c.5-.6.9-1 .6-1 0 0-.3 0-.7.3l-.7.5-1 .7a7 7 0 0 0-2 1.6c-.3 0-.8.5-1 .7l-1.8 1.1.1-.1c-.4.3-.9.7-1 .6l-2.9 2c-.3.4-.4.4-.8.7l-1.5 1-.8.5.3-.2c0 .2-.7.3-1.2.8-.5.3-.8 1-1.4 1.3-.2.2.1-.3-.2 0 0 0 .1-.1 0-.1-.4.3-.7.3-1.1.7-.6.5-1.3.7-1.6 1-.6.6-.6.2-1.1.8h-.3c-.3.3-.1.3-.5.5 0 0-.4.3-.2 0-.8.5-1.3 1.2-2.3 1.8-.1.3-.6.6-.7.8 0 0-.9.7-.5.2h.1v-.2c-.5.3-.8.8-1.3 1.2.2 0 .4-.2.3 0l-.5.3v-.1l-.6.5h.1c-.3.3-.5.3-.8.7-.1.2.4-.2 0 .1l-1.6 1.5-.2.3c-.5.6-.4 0-.9.7v-.1.2c-.3.7-.4.2-.7 1 .2-.3.2 0 0 .2v-.1l-.3.3-.2.2v-.2l-.2.5c-.4.3-.8 1-1 1 0 0-.6.8-.6 1 0-.2-.3.2-.2 0l-.7 1.2c-.7.8-1 1.6-1.5 2.4 0 0-.2.4 0 .4-.5 1-1.2 1.5-1 2l-.5.7v-.1l-.7 1.6-.2.9c0-.2-.1 0-.2.2 0-.1 0-.2 0 0a.6.6 0 0 1-.1.2c-.2.4-.1.3 0 .2l-.5.9-.9 2.6v-.4l-.1.6v-.5c-.3.6-.3 1.5-.7 2.3v.7c-.2.1-.2 0-.3.4-.2.3-.3 1-.4 1.4 0-.3.1-.2.1 0l-.2.4-.1.7c-.1 0 0-.4 0-.4l-.4 1.3c0 .4.1 0 .2.1l-.3 1.3v-.1c0 .8-.2 1.2-.4 1.7-.3 3 0 3.3.2 2.9l.5-1.5c.7-2.2.7-3.4 1.4-6zm74.8-9zm-7.7-33.2zm7.7 27.9zm1.4 6.7c-.3-1.7-.3-2.2-.8-4l-.6-2.7-.5-1.5v-.2l-.1-.6-.2-.6v-.3a7 7 0 0 1-.3-1.2h-.1c-.1-.8-.4-1-.4-1.8-.5-1-.2-1.6-.7-2.5 0 .1 0 0 0 0 0-.5-.2-1-.3-1v-.3l-.2-.5v.1l-.1-.7-.1.2v-.5h-.1v-1.4l-1.6-6.5v-.1c.2-.1-.2-.5-.2-.7v-.2s0-.2 0 0l-.1-.5v-.2l-.7-2.5c0-1-.7-3-1-4.2-.6-1.6-.5-3.7-1.1-5.3a.3.3 0 0 0-.1-.2l-.4-1.6s-1.6-7.5-1.4-1.5c.1.8.2 1.3.5 1.9-.1.1.1.7.1.9.3.5.2 1.1.4 1.6l-.1-.2c0 .4.2.9.1 1 .3.8.5 2 .8 2.5.1.3 0 .4.2.7v.1l.3 1.3.1.7v-.3c.2 0 0 .6.2 1 .1.5.6.9.6 1.4.2.2-.1-.2 0 .1-.1 0-.1-.1-.1 0l.1 1c.2.5.1 1 .3 1.4.2.5-.1.4.2 1v.2l.1.5v.2c0 .6.4 1.2.4 2 .2.2.2.6.3.8 0 0 .2.8 0 .4v-.1h-.1l.3 1.2v-.2l.2.5-.1-.1v.6h.1c0 .3 0 .4.2.7 0 .2 0-.3 0 0l.3 1.7.2.2h-.1c.2.6-.1.3 0 .8h.2c.3.6 0 .4.3 1-.1-.3.1-.2.1 0v.5l-.1-.1.2.4c0 .3.2.8.1 1 0 0 .1.7.3.8-.1-.1 0 .3-.1.2 0 .2.3.7.2 1v-.1l.5 2.1s.1.3.2.2c.3.7.1 1.4.5 1.6v.6l.3 1.2c.1.3.3.3.3.7v.2c0-.1 0-.1 0 0v.2c.1.2.1.2 0 0h.1l.1.8.6 2-.2-.2.2.4-.2-.4c0 .6.4 1.1.4 1.8l.1.1.2.3c0 .1-.2 0-.1.4l.3 1c0-.2 0-.1 0 0l.1.3h-.1l.2.5-.1-.2.2 1c.2.3 0-.2.2 0l.3 1v-.2l.3 1.3c1.6 4.1 1.1.7 1.1.7-.2-1.7-.6-2.5-1.1-4.5z"/><path xmlns="http://www.w3.org/2000/svg" d="m340 102.6-.1.1h.1z"/><path xmlns="http://www.w3.org/2000/svg" d="M341.9 98.8c-.4-.5 0 0-.3-.1-.3-.4-.8-.5-1.2-.7v.1c-.7 0-1.1-.2-1.6-.4h-1.3l-1.5-.4a1 1 0 0 0-.4 0c-.2 0-.6-.1-1 .3l-1.2 1c-.8.7-1.3 1.3-1.7 2-.2 0-.6.7-.8.8l-1.4 1.6v-.2c-.3.4-.7 1-.8.9l-.8 1-.5.6-.2-.1-1.9.5-1.5.5-3.6 1.5-2 1-1.6 1.3c-1 .9-2.2 1.8-3 3.1l-.4 1.3-.1 1.3-.6 2.4-.2.5c-.1.4-.3 1-.6 1.4-.3.7-.7 1.2-1 1.5l-.5.7v-.2c-.8 1-1.7 2-2.6 2.8h.1l-4.2 4c-2 2.2-3.4 3-5.5 5.3.2-.3-.2 0-.2 0l-2 2.1c-1 1-1 .8-1 1l.5.6.8 1-.2-.3 1.4 1.8-.2-.5c.7 1 0 .4.8 1.3l.1-.1 2.4 3.5 3 3.7 3.3 4.2 3.6-5 3.2-4.1.2-.2c.2 0 .9-1.5 1-1.6l.5-.6.2-.2.6-1 .5-.5 4.5-6.2.4-.5.2-.1.3-.2.6-.5 1.3-.9 2.6-2 1.7-1.4.4-.3.5-.7 1.6-2.5 4.5-6.7 2.3-3.5.5-.6.1-.4.5-.7.5-.8.1-.2a.7.7 0 0 0 .1-.4l-.1-.1.7-.8c.3-.4.4-1 .3-1.3-.3-1-1.7-2-2.7-2.7l.8-1.2-.1.3.4-.5-.3.5c.6-.5.9-1.3 1.5-1.9l.1-.2.2-.3c.1 0 .1.1.4-.2l.9-1.2c-.2.2-.2 0-.1 0 0-.2.2-.2.3-.4h.1l.1-.2.2-.5-.1.5c.3-.5.2-.7.3-.8l-.2-.8zm-17.3 21c-.2-.3-.4-.6-.3-1 0-.3 0-.5.4-.8.7-.4 2-.3 2.7 0l.7.1c1.4.3 3 .7 2.8 1.7-.2 1.3-.8 2-3.1 1.6a5.2 5.2 0 0 1-3.2-1.7zm8.5-1.5-1.4 2.4-1.2 2h-.1c-.5 1-1.7 2.6-2.2 3.3h-.1l-.3.4-.3.3-.9.7.7-.5c-.1.3-1.4.9-2.5 1.9-1.2.8-2.1 2-3.4 2.9-.5.5.5-.5-.4.2 0 0 .4-.3.1-.3l-.3.3-1.6 2.1h-.1c-.9 1.5-2 2.5-2.5 3.5-1 1.4-.9.8-1.8 2.4l-.5.5c-.5.6-.2.5-.8 1.1 0 0-.7.9-.4.4l-3.9 5.3-1.2 1.9s-1.5 2-.8.8l.2-.3v-.1l-.6.8v.2h-.2l-.2-.4-.3-.4c.2.4.6.8.3.6l-.8-1.1.2.2-1.2-1.6.1.2-1.4-1.9c-.4-.3.5.8-.2 0l-3-4-.5-.5v-.1c-1.1-1.3-.2-.6-1.4-2l-.2-.1-.8-1-.2-.4-.3-.2-.2-.2-.1-.2v.1l.1.1c-.2 0-.3-.2-.4-.3h.2-.1c0-.1 0-.2.2-.2l.3-.3c0 .2-.2.3-.2.3l.2-.1.2-.3.4-.5 2.3-2 2-1.9c-.3.4.6-.4.4-.1.3-.5 1.5-1.7 2-2l4.6-4.5c-.1 0 .7-.8.4-.6 1.6-1.8 3.1-3 3.3-4l1-1.6-.1.3c.7-2 .8-2.5 1-4v-.9c0-.3 0-.6.3-1-.1.3 0-.2.3-.5l.2-.2a1.2 1.2 0 0 1 .2-.2c.5-.6.4-.5.1-.3a10 10 0 0 1 1.8-1.4l1.3-1 .7-.6.5-.4 2.6-1.3c.3 0-.2.2-.7.5l1.3-.6-1.1.5 2.5-1 1.3-.4.7-.2.3-.1h.2v-.1c.1 0 .2-.1.2 0v.2l.1.2-.1.8c-.1.5-.6 1.2-.8 1.6l-.6.7.3-.3c0 .2-.5.5-.9 1l-.5.9-.7.7c-.2.2.2-.3-.2 0 0 0 .2-.2 0-.2l-1.1.7c-.6.4-1.3.5-1.7.8l-.4.2c-.3.6-.4.4-.5 1l-.3.3-.2.6s-.2.4-.2.2l-.5 1.2-.3.6-.2.4-.4.7-.4.7 1 .2.7.3c.2 0 .3 0 0 0h-.4l.4.1.2.1a3.3 3.3 0 0 0 .4.1l.9.2-.3-.1.6.2h-.2l.9.3-.1-.1 1 .4c.2 0-.4-.3 0-.1l.5.1.2.1.4.2c.4 0 1 0 1.5-.3a6 6 0 0 0 2.6 1l1.2.1c1.3 0 2.5-.5 2.9-2.4a2 2 0 0 0-.6-1.5h.4a4 4 0 0 0 1.7-.2zm-3.1-.7c-1.5-.2-3-1-3.6-1.9-.2-.2-.4-.6-.3-1 0-.4.2-.6.5-.8.4-.3 1-.4 1.7-.4.5 0 1 0 1.4.2l.7.2.6.1 1 .4 1.1.3c.4.2.8.4 1 .7v.6c-.1 1-.8 2.1-4.1 1.6zm5.4-2.6-.4.6-.2-.7a3.5 3.5 0 0 0 .7 0zm1.7-2.4c-.7 1.4-1.7 1.7-4.1 1a13 13 0 0 0-1.7-.4c-1.3-.5-2.4-1.4-2.8-2.3a1 1 0 0 1-.1-.9c.6-1.4 3.4-.8 4.3-.5l.5.2.7.3.8.5a7 7 0 0 0 1.6.7c.4.2.7.5.8.8a.6.6 0 0 1 0 .6zm.8-1.2v.2l-.3-.3.6-.2-.3.3zm1.2-2.8-.1.7c-.7 1-1.3 1.4-2.2 1.2a10 10 0 0 0-2.6-1.2c-1-.8-1.7-1.7-2-2.6 0-.3 0-.8.2-1l.8-.6h.4c.9 0 2 .5 2.4 1l.7.3c.8.5 2.2 1.4 2.4 2.2zm-40.8 31h.1z"/></g></svg>
