<svg xmlns="http://www.w3.org/2000/svg" viewBox="0 0 169.3 420"><path fill="none" d="M-292.9-110h720v640h-720Z"/><path d="M220.2 214.9v.1zm-276-109.4v.1z"/><path fill="#fff" d="M86.8 30.2c-.9-1-5-8.2-11.8-12a15.4 15.4 0 0 0-13-.8l-2-4.2-.4.2a9 9 0 0 0 0-6.6c-1.6-5-9-7-14.6-4.9-4.6 1.7-8.3 7.6-7 12.6.8 4 3.7 5.7 5.4 6.3l2 3.8v.8s-5.7 5.3-4.5 15.7a18 18 0 0 0 10.5 14.8l2-5-7 22.5-2.2 5.7s3.2 4 10.8 5.7a38 38 0 0 0 11 1c2-.2 4.2-.6 3-4.1-1.7-5.2-1-8.5-1-8.5l2.3-13c1.5.2 3 .2 4-.1 3.1-1 6.1-4 7.2-10a82.2 82.2 0 0 0 1-19.1c2.8 0 4.7-.5 4.3-.9zm-46 3.3-.3.4zM61 8v-.2z"/><path d="M52.5 42.4a3 3 0 0 0-2.9 3 3 3 0 0 0 3 3c1.7 0 2.8-1.4 2.8-3a3 3 0 0 0-2.9-3zm0 5a2 2 0 0 1 .1-4c1.1 0 1.8.9 1.8 2s-.8 2-1.9 2zm18.7-13.6c-3.6-.3-5.2 2-5.3 2.2a.8.8 0 0 0 .2 1c.3.2 1 .1 1.1-.1.4-.4 1.2-1.8 4-1.6.3 0 .7-.3.7-.7 0-.4-.2-.8-.7-.8zm7.8.9c.5 0 1 0 1.7.4.3.2.8 0 1-.2.1-.3.1-.8-.2-1-1.3-1-2.4-.8-2.8-.7-.4 0-.7.5-.6.9.1.4.5.6 1 .6zm-3.5 9.7c-.3.2-.3.6 0 .9.1.3.6 1.2.4 1.8-.2.6-.7.6-.9.6-.3 0-.7.2-.7.6 0 .3.2.7.6.7h.2c.6 0 1.7-.3 2.1-1.5.4-1.4-.7-2.8-.8-3-.2-.3-.6-.3-.9-.1zm-4.2-3.9c-.3 0-1.4 0-2.3.5a1 1 0 0 0-.5.3 1.4 1.4 0 0 0-.3.9c0 .8.7 1.4 1.4 1.4S71 43 71 42.2c0-.2 0-.5-.2-.7h.5a.5.5 0 1 0 0-1zm.3 12.3a4.5 4.5 0 0 1-4.6-2.9.7.7 0 0 0-1-.4c-.3.1-.5.5-.3 1a6 6 0 0 0 6.1 3.8c.4 0 .7-.3.7-.8 0-.3-.4-.7-.8-.7zm15.8-22.6-.2-.4-.3-.4-1.2-1.9a9 9 0 0 0-1-1.3c-1.4-1.5-.6-1.3-2.2-2.7l-.4-.7c-.6-.7-.6-.4-1.2-1.1 0 0-.9-1-.4-.6a45 45 0 0 0-6.4-4.5l-1.4-.4-1.3-.3-1.3-.3c-.6 0-.9-.1 0-.1l.4.1h.2c-1.7-.6-3.3-.3-5-.1.5 0 1.2-.1.8 0l-1.6.2.3-.1c-.8 0-1.6.2-2.4.5h.3l-.7.1V16l-.3-.3s-.2-.2-.3-.1v-.3l-.3-.4-.2-.5-.2.2c0-.4.2-.2 0-.5-.2-.2-.3-.5-.3-.9v-.1a9.1 9.1 0 0 0 .3-1c-.2.1 0-.4 0-1h.1V9.5c.1-.2.2-.4 0-1.5l-.3-.4-.5-1.5c0-.3-.2-.6-1-1.5l.2.4-.3-.3a5.3 5.3 0 0 1-.4-.5l.3.1c-.4-.5-.6-.6-.9-.8.3.2.3 0-.4-.6.2 0 .3.2.5.3-.4-.4-1-.6-1.4-.9-1-.8-3-1.4-3.4-1.6L52.2.4c-.7-.2-1.6-.2-1.9-.1.6-.1-1-.2-.5-.3l-3.6.5h.2c-1.5.2-2.8.8-3.9 1.6-1 .7-2 1.6-2.9 2.6.2 0-.7 1.1-.4 1-1.5 2.3-2.5 4.5-2 5.6l-.2 2.2v-.3c0 1.3.3 2 .5 2.7l1 2a3.6 3.6 0 0 0 .8.8l1.2 1c-.5-.2 0 .2.5.5-.3-.2-.5-.2.2.3a3.7 3.7 0 0 1 .4.2c1 .5.7.3.3.1v-.1c.1.2.4.3.7.5l.7 1.3s.8 1.7 1.5 2.5v.3l-.3.3-.4.7-.9 1.3.3-.7-.8 1.2.8-1.3c-1.4 1.6-2 3.8-2.7 6v1.6c-.3.3-.4-.1-.5 1-.2.5-.2 1.2-.2 1.9l.1 2c0-.6 0-.4.1-.1v1.4l.1.7.3 1c0 .4-.3-.9-.4-1l.8 3.5c.5 1.2 0-.3.3.3l.7 1.5.7 1.7v-.5a40.2 40.2 0 0 0 2.6 4 16.6 16.6 0 0 0 5.7 3.5c0 .5 0 .7.3.3L46 73.2l-2.3 6 .2.2c.1.1 3.4 4.2 11 5.9 3.5.7 6.5 1 9.1 1a22.6 22.6 0 0 0 2.1 0c1.3-.2 2.7-.4 3.4-1.5.5-.8.5-1.9 0-3.3-1.6-5-1-8.2-1-8.2l2.3-12.6a11.6 11.6 0 0 0 1.5.1c.8 0 1.5 0 2.1-.3 2.3-.7 6.3-3 7.7-10.4l.3-2c1.6-.9 2.7-3.2 2.7-5.9 0-2.2-.8-4.2-2-5.3l-.2-5.6a4.6 4.6 0 0 0 .4 0c0 .1-.5 0-.2.2l1.6-.1h.5l.6-.2c.4 0 1-.2 1.2-.4h.2a1 1 0 0 0 .2-.3zm-17.4 7c-2.3 0-4.4 2.3-4.8 5.3l-5.5-1a7 7 0 0 0 3.7-3.2c2-3.5 2-8.5 2-10.4A49.9 49.9 0 0 0 82 31.4l.2 4.8a3.1 3.1 0 0 0-1.3-.3c-2.2 0-4 2.3-4.3 5.4h-.8a2 2 0 0 0-1 .2c-.7-2.5-2.5-4.4-4.7-4.4zm4 6.5c0 3.1-1.7 5.6-4 5.6s-4-2.5-4-5.6c0-3.1 2-5.6 4-5.6 2.1 0 4 2.5 4 5.6zM45.5 25v.2zm22 48.1c0 .1-.7 3.5 1 8.8.4 1 .5 1.9.1 2.4-.4.7-1.6.9-2.6 1a38 38 0 0 1-10.8-1A19.5 19.5 0 0 1 44.8 79l2.1-5.5 6.8-22.1a6 6 0 0 0 1.6-.7l.3 1c.5 2.1 2.4 4 6 5.9 1.6.8 5 2.4 8.2 3zM81 50c-.9 5.1-3.3 8.5-7 9.6-3.6 1.1-10-2-12-3-3.2-1.6-5-3.3-5.5-5.2 0-.6-.2-1.2-.4-1.8l-.2-.7-.6.5c-.9.8-2 1.2-3 1.2-2.7 0-4.9-2.4-4.9-5.2 0-2.8 2.2-5.2 4.8-5.2 1.4 0 2.8.7 3.7 1.8l.2.2h1.2l7.8 1.3v.2c0 3.6 2.1 6.6 5 6.6 2.6 0 5-3 5-6.6a8.8 8.8 0 0 0 0-1c.1-.2.3-.4.6-.4l.8.1c0 3.5 2 6.2 4.3 6.2h.5zm1-10.2a.5.5 0 0 0-.3-.1 6 6 0 0 0-2.2.4 1.3 1.3 0 0 0-.4.3 1.4 1.4 0 0 0-.4 1c0 .7.7 1.4 1.4 1.4s1.4-.7 1.4-1.4a1.4 1.4 0 0 0-.2-.7h.4a.5.5 0 0 0 .3-.1 85.8 85.8 0 0 1-.6 6.9 2 2 0 0 1-.6 0c-1.8 0-3.3-2.4-3.3-5.3s1.5-5.3 3.3-5.3c.4 0 1 .2 1.3.5v2.4zm1.1-1.3a7.3 7.3 0 0 1-.6 8.2 89 89 0 0 0 .6-8.2z"/><path fill="#fff" d="M46.8 23.7a2 2 0 0 0 1-.6l.6-.6c0-.2-.3 0 0-.3l.6-.5s-.2.3 0 .3c0 0 .3-.3.2-.4v.1l.4-.1v-.1c.1-.2.4-.6.6-.6.3-.2.3 0 .4 0l.1-.2v-.2c.7-.2 1-.8 1.5-.9l-.3.3.4-.3-.2.3 1.7-1 .7-.2s-.2 0 0-.1h.2c.2 0 .3-.1.2 0 .4 0 .4-.3.6-.4l1-.4c.2 0 .3.2.6 0 0-.5.8-.2 1.4-.5-.2-.1.2-.2.1-.3l1-.2.4-.2h.2c.2 0 .2 0 0-.1.2 0 .3 0 .4.2v-.5l-.4-.2h.1l.1-.2-.2-.2h.2c0-.3-.4-.2-.3 0-.5-.4 0-.4-.4-.7h-.2c-.3-.5.2-.3-.2-.8h.1c0-.1 0-.2-.4-.3-.3 0 0 .1 0 .2-.3.2-.4 0-.7 0h-.5.1-.4.2c-.4 0-.7.5-1 .3v-.1c.4-.2-.3 0-.3-.1 0 .2-.5.1-.6.4-.7 0-1.2.4-1.7.5l-.2-.1c-.3 0 0 .2-.3.3l-.3-.1c-.4.4-.4 0-.8.3-.2.3-.7.2-1 .6v-.1l-.9.4v-.2c-.3.2 0-.3-.2 0-.5 0-.5.8-1 1-.2.4-.8.2-.7.5l.2-.1-.5.3c-.3.2-.9.4-1 .7-.3.2-.5.1-.6.4-.3.5-1.2 1-1.8 1.5h-.3l-.2.2v.1H44c-.2.1 0 .2 0 .3l.1.2s.2.2 0 .3c.5.4.7.8 1 1.6l.1 1.8v.2l1-.6zm-37 384.2c-5.3-.8-4.8-9.3-2.2-14.9l3.8-21.8 24-.4s-4.9 17.5-3.6 18.5c2.4 2.1 8.7 5.5 23.1 10 6.7 1.9 10.8 2.6 10.5 5.5-.3 2.9-1.4 2.8-1.4 2.8z"/><path d="M46.7 408.1zm-23.3 9.8h.4zm7.1-4zm6 6z"/><path fill="#fff" d="M65.1 407.6H8.8a2.6 2.6 0 0 0-2.6 2.6v2.9l61.6-.1v-2.9c-.2-1.4-1.4-2.6-2.7-2.5z"/><path d="M46.3 408.3H46zm1.1 4zm-14.3-6h.2zm6.7-13.2zm9 10.1zm2 3.4zm-6.5-8.7z"/><path fill="#fff" d="M49.7 402.4a6 6 0 0 0 5.2-4.1l-11.8-4.4c-.3.9-.4 1.8-.3 2.8a6.2 6.2 0 0 0 7 5.7z"/><path d="M37.1 401.3zm16-1.4h.2zm-8.6-.6zm10.6-2.3z"/><path fill="#fff" d="M75.7 407.9c-5.8 0-1.7-10.3-1.5-14.9-.8-5.5-1.6-21-1.6-21l24-1.9s.6 18.2 1.8 19.2c2.4 2.1 8.7 5.5 23.1 10 6.7 1.9 10.8 2.6 10.5 5.5-.3 2.9-1.4 2.8-1.4 2.8z"/><path d="M77.8 372.3h-.2zM8.6 384.8l.1-.4zm6.7-13h-.2zm17.1 17zm71.8-8.7.1-.2v.2zm-22.5-26.3zM24.8 383h-.4zm88.5 25.3zM90 418h.4zm7.1-4zm6.1 6z"/><path fill="#fff" d="M131.7 407.6H75.4a2.6 2.6 0 0 0-2.6 2.6v2.9l61.6-.1v-2.9c-.2-1.4-1.4-2.6-2.7-2.5z"/><path d="M113 408.3h-.4zm1 4zm-14.2-6zm6.6-13.2zm9 10.1h.1zm2 3.4zm-6.5-8.7z"/><path fill="#fff" d="M116.3 402.4a6 6 0 0 0 5.2-4.1l-11.8-4.4c-.3.9-.4 1.8-.3 2.8a6.2 6.2 0 0 0 7 5.7z"/><path d="M103.6 401.3zm16.2-1.4h.1zm-8.7-.6zm10.6-2.3zM7.5 410.6v.1zm66.6 0v.1zm61.2.5v-1.4l-.2-.3c0-.1 0-.3-.2-.5-.6-1.4-2-2-2.7-1.9-.4 0-.5.2-.5.2l.6.3c.6.3 2.1 1.4 1.4 4v-.1.7h-1l-1.7.1c-.2-.3-1.8 0-2.3 0v-.1c-1.3.2-2.7-.2-4 0h.4l-2.3-.1c-2.2 0-5.3 0-6.8.2h.1-2c-1 .2-2.6 0-3.3.1H109h.6c-.2.3-1.3-.2-2.6 0-1.2 0-2.4.6-3.7.5-.6.1.5-.2-.3-.1 0-.2.4-.1.2-.3h-2.5v-.1c-1.5.2-2.7-.2-3.7 0-1.4.1-1-.3-2.4-.1l-.6-.2c-.7 0-.5.2-1.2.2 0-.1-1-.1-.5-.2-1.6-.2-3.3.2-5.4 0-.5.1-1.5 0-1.9.2 0-.1-2 0-1-.2h.4v-.1c-1-.2-2 .1-3.3 0 .4.1.8.1.5.2h-1l.1-.1H79h.3c-.8 0-1-.2-2 0-.5 0 .7.1 0 .1l-2-.1h-1l-.3-.1v.1-.5c.1-.1.2-.2.1-1l-.2-.2.1-.7c.1 0 .2-.1.4-.6-.3.3-.4 0 0-.3v.1l.5-.3c-.2.2 0 .2.3 0 0 .2 0 .2-.2.3l.3-.2.4-.1 2.5.1h2.3c-.4 0 .6 0 .3.2.5-.1 2-.2 2.4 0 2 0 3.5-.3 5.3 0 0-.2 1-.2.7-.3 2-.2 3.5.3 4.2-.2l1.5.1h-.2H98c.6 0 .7-.3 1.8-.2h.5c-.3 0-.3.1.2.2h.3c.7-.1.6-.1.3-.1l-.2-.1c.7.1 2 0 2.1.2l5.2-.3-.7.2h1.2-1c1.4.3 3-.2 4.6 0h.4l.6-.2c.3.1 0 .3 1 .2h2.6c-.5-.1-.3-.2 0-.2h1v.2c-.2-.1 1-.1 1.2-.2.2.1-.7 0-.8.2h2.5c1-.1-.2-.2.3-.3.8 0 1.5-.2 2.4 0l-.3-.2h3.4c4.7-.5 5.8-.8 5.5-1l.2-.8.3-1.4c0-1-.4-1.8-1-2.2l-1-.7-.4-.3a5 5 0 0 0-1.6-.7l-.8-.3-1.5-.4-.6-.3-.2-.2-.4-.4c-.3-.2-.5-.1-.5 0v.3l-1.7-.6h1.6c.4 0 .4-.1.3-.3l-.9-.6-.4-.3h-.3l-2.3-1v.2l-.6-.2v-.1l-.4-.1-.4-.1v-.1l-.9-.2c-.4-.2-.7 0-1-.4-.8.1-.9-.6-1.6-.5.1 0 0 0 0 0-.2-.1-.5-.2-.6 0-.2 0-.2 0 0-.2h-.9v.2c-.2-.2 0-.3-.2-.4v.2c-.3-.1-.4-.5-.7-.7l-1-.4-.5-.1-.6-.2h-.2v-.1l-.8-.3h.1l-.8-.3-.7-.2-.9-.4v.2l-.4-.2-.5-.2-1 .1-.8.5-3-1.7c0 .2-.4 0-.9-.3v-.1l-1-.7-1-.8-.4-.1v-.1l-.3-.5v-.4l-.4-1.4c.2.8 0 .4-.2-.6l.1.3v-1.7.5l-.3-1.4v-.8h4.7c1.2-.3 2.3-1 3-2 .3-.5.5-1.1.5-1.7l.1-1.6.2-6.1.2-12.7a545.2 545.2 0 0 0 0-26v-.8l-.3-14.6-.6-28.7c-.2-5.5-.4-9.3-.6-8.4l-.2 2.4v-2.4l-.4-10.6.8 9.6c.2 2.7.4 2.5.5 1 .2-3 0-11 0-11-.3-15.8-1-24-2.2-42.9-.9-16.6-.9-21-2.2-38.2l-.5-6.3-.3-3.1v-2.3c0-.2-.3-.2-.4-.2H85l-1 .1h-1.7l-.5.3c-11.3-.2-30 0-41 .2H27l-.4 5.8-.4 5-.9 10-1.5 19.9v1.9L22 235.1l-2.4 30.6c-.3 5.9-.5 10-.2 9l.5-2.5-.2 2.5-1.6 11.2c1.3-12.7 1.3-13.9.7-11.3-.8 3-2 11.5-2 11.5-2.6 16.8-3.3 25.5-5.8 45.6l-3 20-3 20.5-.5 3.2v.9l-.2.9v2c.1.7.5 1.7 1.3 2.3.4.3.8.4 1.2.5a5.6 5.6 0 0 0 .6.2H8l3.4.1 13.4.6 7 .3v.8l-.4 1c.1 0 0 1-.2 1.9v-.4 2.7l.1-.6c0 .3 0 .7.2.8l.1.2.6.6v-.1l4 2.7 1.8.8v.1c-.3 1.4-1.3 2-1.5 3.4 0-.2 0 0 0 0-.4.6-.6 1.3-.4 1.4-.2.4-.2.3-.4.3.2.1 0 .5 0 .8v-.1l-.5 1 .3-.1c-.3.5-.3 0-.5.5h.2c-.4.8-.8 1.1-1.3 1.8l-1 2.1-.6 1.6-3.2.1h-.5a5 5 0 0 1-1.4 0H25h.1-3.2v.1c-2-.1-2.9.2-4.8 0-2.4.3-3.9-.3-6.4 0 .3 0 0 0 0 0H9a4 4 0 0 0-.4 0l-.4-.2-.2-.2v-.2l-.4-.3-.2-.4a8.9 8.9 0 0 1-.8-3.5c0-1.1 0-2.2.2-3.3l1-3.5.2-1 .2-.5.1-.3v-.4l.5-2.4c.8-4.3.2-7.6 0-6.6v1.4c-.2.3-.2 0-.4 1l-.6 3.7c.1-.6.1-.4.1-.1l-.2 1.3-.3 1.7v-1 1.1l-.2.2v.2l-.7 1.6c-.3 1.2.1-.2 0 .4l-.7 3.2.2-.3c-.3 2-.3 3.1-.3 4.5.3 1.9 1 3.2 1.8 4l.5.3-.8.3H7s-.7.7-1 1.5l.1-.4a3.2 3.2 0 0 0-.5 1.7v.5l.2-.4c0 1-.3.3-.2 1.3h.2v1h-.5c.2 2.5.3 3.2.5 3.5.1.1.2 0 .4-.4v-.2.6c0 1 .6 2 1.5 2.3-.3 0-.6-.2-.8-.4-.7-.5-1-1.1-1-1.5-.3-.9-.5-.7-.6-.4 0 .6 0 1.7.6 2.4.6.8 1.3 1.1 1.3 1.1a3.4 3.4 0 0 0 1.7.5h1.8a56.6 56.6 0 0 0 2.6 0c1.7-.1 3.6-.3 6.1-.3 4.6 0 5.8.3 10.5.2h6.8c1-.3 3 0 4-.2H48v-.1c2 .1 2.8-.2 4.8 0 2.4-.3 3.8.3 6.3 0h.1c1.2 0 2.4 0 2.4-.3 1 0 .8.1 1 .2l1.3-.2h-.4 2.1l-.5-.2h.8s.1.1.7-.2v-.1c.6-.4 1.1-.9 1.5-1.5l.4-1 .1-.5v-1.9h.2v-4.1l-.2-.3-.2-.5c-.7-1.4-2-2-2.8-2-.3 0-.5.2-.5.3l.6.3c.7.3 2.2 1.4 1.5 4v-.2.7h-1c-.7 0-1.2 0-1.8.2-.2-.3-1.8 0-2.3-.1-1.3.1-2.7-.3-4 0 .1 0 .1-.2.4-.2h-2.3c-2.2 0-5.3 0-6.7.2-.7.2-1 0-1.9.1h-5.2.7c-.3.3-1.4-.2-2.7 0-1.2 0-2.4.7-3.6.5-.6.2.5-.2-.4-.1 0-.2.4-.1.2-.2-.9 0-1.4-.2-2.5 0v-.2c-1.4.2-2.7-.2-3.6 0-1.5.2-1-.3-2.5 0l-.6-.2c-.6 0-.5.2-1.2.1 0-.1-.9 0-.5-.2-1.6-.1-3.2.3-5.4 0-.4.2-1.5 0-1.8.2 0 0-2.2 0-1-.2h.4c-1.2-.3-2.2 0-3.4 0 .4 0 1 0 .5.1h-1 .1l-1.6-.1h.2c-.8 0-1-.2-2 0-.4 0 .8.2 0 .2l-2-.2H7.2l.1-.1v-.3c.1-.2.2-.3.1-1v-.9l.3-.6c-.2.3-.4-.1 0-.4v.2c.3-.2.3-.3.5-.3h.3l-.2.2.3-.2H14c-.4 0 .6.1.3.3.5-.2 2-.3 2.5-.1 2 .1 3.4-.2 5.3 0 0-.2 1-.1.6-.3 2-.2 3.5.4 4.2-.2 1 0 1 .1 1.5.2h-.2 3.3c.6-.1.7-.4 1.8-.3h.5c-.2.1-.3.2.2.2h.3c.7 0 .6 0 .3-.1l2 .1c2 0 3.4-.2 5.1-.3.2.1-.2.2-.7.2h1.2-1c1.4.3 3-.1 4.6 0h.4l.7-.2c.2.1 0 .3.8.3l2.7-.2c-.4 0-.3 0 0 0h1v.1c-.2-.1 1-.1 1.2-.2.2.1-.7.1-.8.2h2.5c1-.1 0-.2.3-.3H57l-.3-.2H60c4.7-.4 5.8-.8 5.5-1l.3-.8.2-1.3c.1-1-.4-2-1-2.3l-.9-.7-.5-.3a5 5 0 0 0-1.6-.7 24.2 24.2 0 0 0-.7-.3c-.9-.3-.7 0-1.6-.4l-.6-.3v-.2l-.6-.4c-.3-.1-.4-.1-.4 0v.3H58l-1.6-.6a6.8 6.8 0 0 0 1.6 0c.5 0 .5-.1.3-.3 0-.2-.5-.4-.8-.6l-.5-.2-.2-.2a67.7 67.7 0 0 0-2.4-.7l-.6-.2v-.1l-.3-.1-.4-.1h-.2v-.1l-.7-.2v.1c-.5-.3-.8-.1-1-.5-.8.2-.9-.6-1.6-.4v-.1c-.3-.1-.6-.2-.7 0-.2 0 0 0 0-.2h-.5.1-.4v.2c-.2-.2 0-.3-.2-.3v.1c-.4-.1-.5-.5-.8-.7l-1-.4-.5-.1-.6-.2h-.2v-.1l-.8-.3h.2l-.9-.3-.7-.2-.9-.3v.1l-.4-.2-.5-.2-1 .1a2 2 0 0 0-.8.5l-3.8-2-.7-.4v-.1l-1-.7-.7-.7-.2-.1v-1.3l.2-1.5c0 .8-.2.4 0-.6v.3c0-.5 0-.7.2-1l.2-.6v.5-1.2l4.1.2a7 7 0 0 0 2.4-.5c.8-.3 1.5-.8 2-1.4a6 6 0 0 0 1.2-2l1.5-5 1.8-6.3v.1l.8-2.9v.5c1-4.2 2.2-8.5 3.4-12.2l-.3.2c2.5-8 3-11 5.3-18.3 2.3-9.2 4.5-14.4 7-24l.1-.4.4-1.4.4 4c-.2 1.7 0 7.4 1.1 21v.9c-.2.4.8 5.2.7 5.9l.3 2.2v.8l.3 3.6.1 2.2 2.3 23.4.3 5.4c0 .8.2 1.8 1 2.6.5.7 1.5 1.1 2.5 1.1H97l.4 2c.2 1.1.1 1 0 1l.4 2v-.5c0 .4 0 .7.2 1l.1.6.2.3.2.3.5.3-.3-.4c1 .9.1.4 1.2 1.1 1.7 1 2.6 1.7 4.2 2.5l1 .5c-.4 1.5-1.3 2-1.6 3.5 0-.2 0 0 0 0-.4.6-.6 1.2-.4 1.4-.2.4-.2.3-.3.3 0 0 0 .5-.2.8v-.2l-.4 1h.3c-.3.4-.3 0-.5.5h.2c-.4.7-.8 1-1.3 1.7l-.9 2.2-.7 1.6h-3.7a5 5 0 0 1-1.3 0h-2.4.1-3.2v.2c-2-.2-2.9.1-4.8 0v-.1c-2.4.4-3.8-.3-6.4.1.3 0 0 0 0-.1h-1.7l-1 .4c-.2 0-.3-.2-.5-.4l-.4-.7v-.4a8.7 8.7 0 0 1 0-3.6l.5-3.4.6-3.7.1-1.1v-1.2l-.3-2.4c-.7-7.6-1.6-5.1-1.5-4 0 1 .2 2.5.4 3.7v-.2c.1.6 0 1 .2 1.3l.2 1.7-.2-1 .1 1.2v.4l-.2 1.7c0 1.2.2-.2.1.4l-.6 3.2.2-.4-.7 4.5c0 1.9.2 3.4.8 4.2l.6.5h-.4c0 .1-.7.7-1 1.5v-.4a3.2 3.2 0 0 0-.4 1.8v.5l.2-.4c0 1-.3.3-.2 1.2h.2v1h-.5c.2 2.6.3 3.3.5 3.6.1 0 .2 0 .3-.5v-.2l.1.7c0 1 .6 1.9 1.5 2.3l-.8-.4c-.7-.6-1-1.2-1-1.6-.4-.8-.5-.7-.6-.3-.2.5 0 1.6.6 2.4.5.7 1.3 1 1.3 1a3.4 3.4 0 0 0 1.7.5h1.7a56.6 56.6 0 0 0 2.6 0l6.2-.3c4.5.1 5.7.4 10.4.3l7-.1c1-.2 2.7 0 4-.2l.4.1h3.8-.2 3.3v-.2c2 .2 3-.1 4.7 0 2.5-.3 4 .4 6.4 0h.1c1.2 0 2.4 0 2.4-.3 1 0 .7.1.8.2l1.4-.1h-.3 2l-.4-.3h.7c.1.1.2.2.8-.1v-.2a5 5 0 0 0 1.5-1.4l.4-1 .1-.5V414h.2c-.2-1-.2-2-.2-2.9zm-8.7-9.8.8.2.3.1 1.2.4.7.4c1 .5 2 1.2 1.8 2.1 0 .5 0 1.1-.2 1.6l-.2.4-2.2-.2-3-.1v-5.1l1 .3zm-16.8-4.2c.2 0 .1.1.2 0 0-.1.2-.3 0-.5h.2c-.3-.3 0-.6 0-.8-.2-.3.2-.1 0-.3h.2s-.2-.1 0-.2l.1.1v-.1c0-.2 0-.1.2 0v-.2c0 .1.2.1.1.3v.1h.5s-.2 0 0-.1l.1.1.3.3v-.2c.2.2.2.4.4.3.2 0 0-.2.1-.2l1 .6c0-.1 0 0 .1 0 .4 0 0 .3.4.3v-.1c.5-.1.1.3.6 0 0 0 0-.2.2 0h.1v.3h.2c.2.1.6 0 .6.3 0 0 .4.2.5 0 0 .2.1.3 0 .4h.6v.1c.4.3 1 .1 1.2.4l.3-.1c.5 0 .7.6 1 .1.2 0 .2.2.3.3l.4.2h.2s.3-.2.4-.1c-.2 0 0 0 0 .1v.1-.1c0 .1.3 0 .1.2l.2.5-.2-.1v.1c-.2 0 0 0 0-.1-.3 0-.2.1-.2.2l-.3.4v.3s-.2-.2-.3 0c-.2 0-.2.3-.3.5v.1h-.2v.3-.3l-.5.3v.3c0 .1-.2.3-.4.3l.1.1c-.3.3-.5.3-.8.3l-.4.4h-1l-1-.7c-.5-.2-.8-.3-1-.1 0-.3-.5-.2-.6-.3-.3 0-.5-.4-.8-.4h.2c-.2-.1-.5-.2-.4-.3-.4-.3-.8-.8-1.2-.8-.2 0 0-.2-.3-.3-.2-.1-.3-.5-.4-.6v-.4.1c-.4 0 0-.3-.3-.5 0-.3-.8-.4-.7-.7 0-.2.3 0 .1-.1zM60 401.3l.8.2.3.1 1.2.4.7.4c1 .5 1.8 1.2 1.8 2.1l-.2 1.6-.2.4-2.3-.2-2.9-.1v-5.1l.8.3zm-16.8-4.2c.2 0 .1.1.2 0v-.5h.1c-.2-.3.2-.6 0-.8 0-.3.3-.1.1-.3h.2s-.2-.1 0-.2v.1c.1 0 0 0 0-.1 0-.2.1-.1.2 0l.1-.2c0 .1.2.1 0 .3 0 .2 0 .2.1.1h.4v-.1l.2.1.3.3v-.2c.1.2.1.4.4.3.1 0 0-.2 0-.2.3.2.6.5 1 .6 0-.1 0 0 .2 0 .3 0 0 .3.3.3l.1-.1c.4-.1.1.3.6 0-.2 0 0-.2.2 0h.1v.3h.2c.2.1.5 0 .6.3 0 0 .4.2.5 0 0 .2.1.3 0 .4h.6v.1c.4.3.8.1 1.2.4l.2-.1c.5 0 .7.6 1 .1.3 0 .3.2.4.3l.3.2h.2c.2 0 .3-.2.4-.1v.2h.1v-.1c0 .1.3 0 .1.2 0 .1.2.3.1.5v-.1.1c-.3 0-.2 0-.2-.1-.2 0 0 .1 0 .2l-.4.4v.3s-.2-.2-.3 0c-.2 0-.2.3-.3.5v.1h-.2v.3-.3l-.6.3.1.3c0 .1-.2.3-.4.3v.1c-.2.3-.4.3-.7.3l-.5.4h-.9l-1-.7c-.5-.2-.7-.3-1-.1 0-.3-.5-.2-.6-.3-.3 0-.4-.4-.7-.4h.1l-.4-.3c-.4-.3-.8-.8-1.2-.8h.1c-.3 0 0-.2-.3-.3-.3-.1-.4-.5-.5-.6l.1-.1-.2-.3v.1c-.2 0 .1-.3 0-.5-.2-.3-.9-.4-.8-.7 0-.2.3 0 .1-.1zM78.7 285v.3zm-.2 10.6z"/><path fill="#fff" d="m77.3 281.8.6 8.3.6 5.5c.2.8.2 2.3.4 3.3v1.4l.2 1.4v.5c.2.8.2 1.7.2 2.5h.1l.1 3.8c.3 2 0 3.1.2 5.2 0-.3 0 0 0 0 0 1 0 2 .2 2v1.7-.2 1.5l.2-.3c0 .8-.2.2 0 1l-.2 2.9c0 4.5.5 9.3.4 13.4v.2c-.2.1.1 1.2 0 1.3v2l.2 5.1c0 2.2.1 6.5.3 8.9.2 3.4-.2 7.4 0 10.9l.1.4v3.2s.4 15.5 1.2 3.7v-5.8c-.3-1 0-2.2 0-3.2v.3-1.9c0-1.8 0-4.3-.4-5.4V354s0-.1 0 0v-4.2.5c-.3-.2 0-1 0-2s-.6-2-.5-3v-.3c.1 0 .1.3.2.1v-4.9c-.2-1.2.1-.8 0-2V332c0-.3 0-1.2-.2-1.5 0 0 0-1.7.1-.7v.2l.1.1v-2.7.4-1 .3-1.4.2-1.6c-.2-.3-.3.6-.3 0v-3.9c0-1.2.2-.4 0-1.6l.1.1v-.3c-.3-1 0-.6-.2-1.8 0 .5-.2.3-.2-.3l.1.1v-1l.1.3v-5a7 7 0 0 1 0-2v.1l-.3-4.3s0-.7-.2-.5c0-1.6 0-2.8-.3-3.4v-1.2.2l-.3-2.7-.3-1.4c.1.3 0 0 0-.4 0 .2.1.3.1-.1v-.5.1c0-.6-.3-1.6 0-1.6L79 289l.1.6v-1 .8c.1-1.1-.3-2.3-.3-3.7v-.4l-.2-.5c0-.2.2 0 .1-.7l-.3-2.2v.1-.8l-.2-1 .2.6-.2-2c-.2-.7 0 .2-.2-.2l-.2-2v.3a14 14 0 0 1-.3-2.7c-1.5-8.7-1-1.8-1-1.8 0 3.5.4 5.2 1 9.4z"/><path d="M26.1 335.7Z"/><path fill="#fff" d="M42.4 208.8c-.7 6.5-1 8.1-1.6 14.8l-1 9.7c0 1.5-.4 4-.5 5.8v.7l-.3 1.9-.2 2.3-.2 1v-.1c0 1.5-.2 3.1-.4 4.6v-.1c-.3 3-.3 4.1-.7 6.9 0 3.4-.7 5.4-.9 9v.1c-.2 1.7-.4 3.4-.2 3.5-.2 1.2-.2 1-.3 1v2-.4l-.3 2.7.2-.5c-.2 1.4-.2.3-.4 1.7h.2l-.5 2.5-.6 2.4-4 23.6-.2.3c-.2.1-.2 2-.3 2.3v.9c-.2.2-.3.7-.3.3v1.4l-.4.8-1.5 9c-.8 3.9-2 11.3-2.6 15.5-.9 6-2.6 12.9-3.4 19v.7l-1 5.6s-4.9 27.1-.3 6.7v.2c.6-3 1-5 1.2-7.1.2-.3.5-2.5.6-3.3v.1c.2-1.9.8-3.8 1-5.6v.5l.6-3.2c.5-3.1 1.3-7.5 1.5-9.5v.1l.4-2.8v-.1l.8-4.7.5-2.5-.2 1c0-.4.5-2 .7-3.7.3-1.7.2-3.5.6-5.2 0-.9 0 .7.1-.5.1 0 0 .6.1.2l.7-3.5 1-5c.2-2 .4-1.4.6-3.5l.2-.8.2-1.7c0 .1.3-1.2.3-.6.5-2.3.6-4.7 1.3-7.6l.3-2.7c.1 0 .6-3 .4-1.3v.6c.4-1.7.4-3.1.7-4.8 0 .5-.2 1.2-.2.7l.3-1.6v.4l.5-2.4-.2.3c.3-1.1.5-1.5.6-2.8 0-.6-.3 1 0-.1l1-5.8v-.9h.1c.2-2.1.3-.8.5-2.9v.2-.5c0-2 .2-1 .2-3.1 0 .8-.2.3 0-.7v.3-1.1c0 .3.2.2.2-.7v.6l.1-1.6c.2-1.2.3-3 .5-3.6l.3-3.2c0 .6.2-.9.2-.5 0-.6.1-2.6.3-3.4v.2c.4-3 .4-5 .8-7.7v-1c.1-2.7.7-4.9.4-5.9.1-1.2.3-1.4.4-2v.2l.4-4.7.1-2.5c0 .5 0-.2.2-.7v-.7c.2-1 .1-.8 0-.4v.2l.4-3 .6-7.3v1l.2-1.7v1.5c.2-2 .2-4.2.6-6.6v-1.6c0-.3.1.1.3-1l.3-4v.2l.1-1.4.1-1.8v1l.4-3.5c0-1.3 0 .2-.2-.4l.4-3.5-.2.4c.2-2 .3-3.3.6-4.7 1-15.7-.6-3.4-.6-3.4-.8 6.1-1 9.3-1.6 16.6zm25 80.1v-.3zm21.5-80v-.1zM72 277v.1zm-4.7 16 3-9.6L72 277c.1-1 .8-2.7 1-3.8l.2-.4.3-1.3.4-1.5.2-.7v.1l1-3h-.2c.6-2 .6-2.7 1.3-4.5.4-2.3 1.1-3.5 1.6-6 0 .3 0 0 0 0 .3-1.1.6-2.3.5-2.4.2-.8.2-.6.3-.7 0 0 0-.7.2-1.3v.3l.4-1.8-.2.3c.3-1 .2-.2.5-1l-.2-.1 1.2-3.2c1.5-5.3 2.7-11 4.1-15.8l.2-.2c.1 0 .1-1.4.3-1.5v-.6c.1-.2.3-.5.2-.2l.2-1 .2-.5 1.5-6c.8-2.6 2-7.6 2.5-10.4.8-4 2.4-8.6 3.1-12.8v-.5l1-3.7s4-18.3 0-4.6v-.1c-.6 2-1 3.3-1 4.8-.3.2-.5 1.7-.7 2.1 0 1.3-.7 2.6-.8 3.8v-.4l-.5 2.2c-.5 2-1.3 5-1.4 6.4v-.1l-.4 1.8v.1l-.8 3.1-.4 1.7.1-.6c.1.3-.4 1.3-.6 2.5-.3 1.1-.2 2.4-.6 3.5v.3c-.2 0 0-.4-.2-.2l-.6 2.4c-.3 1.3-.8 2.4-.9 3.4-.3 1.3-.5.8-.7 2.3l-.2.5-.2 1.1s-.3.8-.3.4c-.5 1.5-.6 3.1-1.3 5l-.3 1.9s-.6 2-.4.8l.1-.2v-.2c-.5 1.1-.5 2.1-.8 3.2 0-.3.2-.7.2-.4l-.3 1v-.2l-.5 1.5.1-.2c-.2.8-.4 1-.5 2 0 .3.3-.8 0 0l-1 3.8v.6h-.2c-.3 1.5-.3.5-.6 1.9v-.1.4c0 1.3-.3.6-.4 2 .1-.5.2-.1 0 .5v-.2l-.2.8c0-.3 0-.2-.2.4v-.4 1l-.9 2.4-.5 2c0-.3-.2.6-.2.4 0 .4-.4 1.7-.6 2.2-.6 1.8-.8 3.3-1.4 5 0-.1-.2.8 0 .6-.4 1.8-1.2 3.2-1 4-.2.8-.4.9-.5 1.3v-.2l-.8 3.1c-.2.6 0 .7-.4 1.7v.5c0-.3 0-.4-.3.1v.3c-.2.7 0 .6 0 .3v-.1c-.3.6-.5 1.8-.6 1.9l-1.2 4.8v-.6l-.3 1 .3-1c-.5 1.4-.7 2.9-1.3 4.4v1c-.3.2-.3 0-.5.7l-.7 2.6c.2-.4.1-.3.1-.1 0 .4-.2.6-.3.9l-.3 1.2.1-.7-.6 2.3c-.2.8 0-.1 0 .3l-.6 2.3.2-.3c-.4 1.4-.6 2.2-1 3.1-2.4 10.4.3 2.5.3 2.5 1.3-4 1.7-6.2 3-11z"/><g fill="#fff"><path d="m158.7 62.5-3.9 3 .5-.8c1-1.4.2-3 .2-3s-6.2 2.3-7.7 3.7c-1.5 1.3-3.5 3.2-4 5.6-.4 2-1.9 7.4-2.5 8.6a275 275 0 0 1-16 18.6l10.6 10.4 14.6-21 1.4-1.2 5.4-4.7c1.3-1.1 8.8-16.6 8.8-16.6z"/><path d="M163.8 61.7c-.8-.6-3-1.4-3.7 0-.5 1 .6 2.6 2.2 3.6l-1.2-.4c-1-.3-3.7-.5-4.2 1-.3.8.6 2 2 2.8-1-.2-3.3-.2-3.5 1.3 0 .7.6 1.5 1.6 2-1 .1-3 .7-3 1.8-.2 1 1.5 2.1 3.3 2 1.7.3 2.8-.2 3-1.7 0-.6-.3-1-.8-1.3 2 0 3.2-.4 3.6-2 0-.6-.4-1-1-1.4 1.5 0 2.6-.4 3.1-1.6.3-.7-.3-1.3-1-1.8 1 .3 2-.1 2.4-1.2.8-1.5-2-2.5-2.8-3.1z"/></g><path d="m156.4 71.6-.4.6a5.5 5.5 0 0 1 1-.2 4.2 4.2 0 0 1-.6-.4z"/><g fill="#fff"><path d="M92.1 110.2c-.9-4.2-2.5-8.5-4.3-13-7.4-17.6-18-28.2-33-27.6-3.6 0-15.2 1.3-21.6 27.7-.9 3.3-15.5 81.3-15.5 81.3h79.4Z"/><path d="M13.1 186.7c6 18.9 13.4 33.4 13.4 33.4s.8 9.5 7.7 19.1a22 22 0 0 0 4 3.8c1.5 1 2 .2 2 .2s1.5 1.7 2.8 1.3c1.2-.4.7-2 .7-2s1.1 1 2 .3c.5-.6-.3-3-1.4-5.4-.9-2-1.9-7.2-2.2-8.2-.4-1 1.7.8 3 1.9 1.3 1 3.3 1.5 1.6-1.2-1.6-2.6-2.7-5.1-3.2-5.8-.5-.6-2-3.4-4-4.8-1.2-1-3-1.6-4-5-1.6-5.4-3.4-25.4-4.4-35.2-.5-5-1.8-17.5-1.3-21.5-.5-12.2-27.9-.7-16.8 29z"/></g><path d="M31.7 236.7v-.1.1zM43 224.5zm92.8-106.3v.2-.2zm33.2-64c-.4-.6-.9-1-1.5-1l-3.9-.6c-1-.2-1.7.5-2.2 1.3l-.4.5-5 6.5v-.1l-3.4 1.3-3 1.5-1.5.8-.6.5-.5.4-1.8 1.6c-.5.6-1 1.2-1.4 2a7.5 7.5 0 0 0-.6 1.5l-.4 1.6-1.9 6.6c0 .5-.4 1-.8 1.6l-1.3 1.7-.4.4a8 8 0 0 1-.8 1c-.4.5-.9 1-1 1.3l-.6.6v-.1l-2 2.5-3.2 3.6c-.7.8 0 1.7 4.2-2.8 0 0 .6-.7.3-.6 1.2-1.6 2.5-2.6 2.7-3.3l1-1.1v.2l2-2.7.4-.7.5-1.1.2-.5c0 .3 0 .4.1-.1l.1-.3c.2-.7.2-.6 0-.3v.1l.7-2 1.2-5.1v.7c0-.5 0-.8.2-1.2l-.2 1 .7-2c.3-.7.8-1.3 1.4-1.9l.2-.3.4-.6c.2 0 .1.2.7-.4l.5-.4.2-.1.1.2.6-.2c1-.4 1.2-.8 2.3-1.4l2.2-.8 1.5-.7.2-.2v.8h.2c-.2.3 0 .5-.3.8 0 .5-.6.6-.8 1.2 0-.1 0 0 0 0-.2.2-.4.4-.2.5-.2.1-.2 0-.2 0s0 .2-.2.3l-.2.3h.1-.3v.2c-.2.2-.4.2-.7.3l-1 .8-.7.4-.3.1-.5.3-.2.4v.2l-.4.5c-.2 0 0 .4 0 .4v.1s-.2.1-.2 0v.3h-.2c-.3.5-.3 1-.5 1.5-.4.5-.8 1.7-1 2.3l-.4.7-.7 1 .1.4v.1h.2c0 .2.2.4.5.6l.3.1h.1a4.9 4.9 0 0 1 .7.5l1.4 1.1c.5.4 1 .5 0-1.1h.1c-.3-.4-.6-.7-1-.8.1-.2-.3-.3-.4-.4l-.3-.2-.2-.1-.2-.1v-.2l.1-.1.2-.4a.4.4 0 0 1 0-.3v.2l4.6 1.2c.7.1 1.3-.1 2-.8a5 5 0 0 0 1.5.6h1c1.1.2 2 0 2.6-.4a2.2 2.2 0 0 0 .3-.4l-2.7 5.2-.2.4-.3.2-.7.8-2.6 2.3-1.4 1.1.5-.4c0 .3-1 .8-2 1.7l-.6.4c-.5 1-.9 2-1.5 2.8-.3.5.2-.5-.3.2 0 0 .2-.3 0-.2l-1.5 2c-.8 1.3-1.7 2.2-2 3.1-.9 1.3-.9.7-1.6 2l-.4.5-.7 1s-.5.7-.3.3c-.8 1-1.5 2.1-2.3 3.4l-1.2-1.3h.2l-6-6.1c0 .2-1.2-1-1-.6l-.9-.8-.4-.4-.4-.5a3 3 0 0 0-1.5-.5 2 2 0 0 0-1.5.5 6 6 0 0 0-1.8 1.8c-1 1-1.4 1-2 1.4l.3-.2-4.2 3.3c-.8.6-.7.9-2.2 1.9.4-.4-.2 0-.7.4.3-.3.4-.4-.3 0l-.4.4c-.9.6-.7.5-.3.3h.2c-1 .4-2.7 1.6-2.9 1.4a10.2 10.2 0 0 1-3.9 1.2c-1.2 0-2.5 0-3.8-.3-.2-.2.4-.1 1.1 0l-1.8-.4c.1-.1 1 .2 1.6.3-2-.6-4.4-1.3-6.5-3l-.5-.2-1-.5c-.2-.4.2-.2-.8-1-.7-.8-2.2-2-3.2-3 .5.6.3.5 0 .3-.4-.5-.6-.9-1-1.2v-.2c.1.3-1.3-1.1-1.5-1.3 0-.3.8.7 1 .8L90 92.4A44.2 44.2 0 0 0 74.1 74c-1.7-1-3.6-1.9-5.4-2.5l-7.6-2.7.6.4a23.3 23.3 0 0 0-9.4-1.1c-2.5-.2-4.7.4-6.6.7a25 25 0 0 0-5.2 1.7c-.3 0-1.3.2-2.3.7l-2.7 1.3h.1l-2 1.3-1.9 1.4-1.7 1.5-1.6 1.7c0-.1 0-.2.5-.7l-2.3 2.5-1.3 1.3a110.8 110.8 0 0 0-9 12.6v-.2c-.8 1.7-1.3 2-2.2 4l-.2.1-2 3.4-1.6 3.2h-.2l-1.8 3.7A21.3 21.3 0 0 1 9 107c0 .6-1.5 2.6-2.5 5.4-.6 1.2-1 2.6-1.4 4a30 30 0 0 1-1.3 4c-.2 1.3.2-1.2-.3.7-.2 0 .2-1 0-.5-.7 2-1.3 3-1.8 5.5h-.2l-.5 2.4-.4 2.1-.2 1v1c0 .6-.2 1.2 0 1.8l-.3 2.8c0 .5-.2 1.1 0 2.9v1.3l.1 2.7v1.1c.1 3.7 1 7.5 1.4 12.3.3 1 .6 3.5 1 4.2 0 .2.7 4.9.1 2.2v-.6l-.3-.3c.3 2.7 1 5 1.5 7.6 0-.8-.3-1.9 0-1.2l.4 2.5-.2-.5.8 3.8v-.6c.3 1.8.2 2.5 1 4.5.2 1-.4-1.7.1.2l1 4.3.5 2.5.1.6c.1.4.3.7.6 1 .5.6 1 .7 1.6.9-.2-.1 0-.1.4 0l.8-.1.6-.1h.1l1-.1.5 1.4.6 1.9c2.2 6.9 3.7 10.3 7.2 18.3l3.5 7.9.8 1.6.4.8a21 21 0 0 1 0 1c.3 1.3.6 3 1.2 4.9a44 44 0 0 0 4.7 10.5l2 2.8c.7 1.1 1.6 2 2.4 2.7l.5.6 1 .7a5.2 5.2 0 0 0 1.3.6H40l.4.3a4.3 4.3 0 0 0 .5.3c.3.2.8.5 1.4.5H42a2 2 0 0 0 1.6-.3 1.6 1.6 0 0 0 .6-.7l.1-.3v-.2h.2l.2.1h.6a2 2 0 0 0 1-1l-.2.3.2-.6v-.4a8 8 0 0 0 0-.7l-.3-1-.7-1.9-.7-1.6-.6-2c-.6-1.7-.9-3.2-1-4.6l1 .9 1.3 1c-.5-.4.2 0 .2 0l.4.3.6.1c.4 0 .8 0 1-.2.3-.3.4-.6.3-1v-.4a1.6 1.6 0 0 0-.2-.4c-.5-1-.8-1.2-.9-1.2-.7-1.2-.5-1-.5-1.2l-1.2-2 .2.5c-.5-1-.8-1.8-1.4-2.7v-.2.1l.1.5a4.4 4.4 0 0 0-.3-.4l-.7-1.3-1.9-2.4a10 10 0 0 0-1-1.1l-1.3-1a7.7 7.7 0 0 1-3.2-5.5c-.5-2.3-.8-4.7-1.2-7a235.3 235.3 0 0 1-1.5-13.8v-.4c.2-.2-.4-2.2-.3-2.6 0 0-1.2-4.6-1 1.1 0 0 .2 1.5 0 .8l1 9c.2.8.3 2.6.5 3.1 0 .1.4 3.6 0 1.6v-.7c0 2 .4 3.7.7 5.7 0-.6-.2-1.4 0-.9l.2 1.9v-.4c0 1 .2 1.9.4 2.8v-.4l.2 1.6.7 1.8c.3.6-.5-1.3.2 0 .4 1 1 2 2 2.9l1.6 1 1.2 1.2.7.7 1 1.4c0 .2.1.4 1 1.4v.1l.2.2c1.1 1.8.4 1 1.7 3.2-.5-.9 0-.5.5.6l-.2-.3.7 1.2c-.3-.3-.2-.2.3.7l-.4-.5 1 1.3v.3H46a4.6 4.6 0 0 1-.8-.6l-.5-.5-1.2-1-.6-.4-.3-.2c0-.1-.2-.2-.6-.2l-.5.1-.2.3v.6l.1.2.2.3c-.3-.5.1 1 0 .6a48.6 48.6 0 0 1 1 4v-.2a22.6 22.6 0 0 0 1 3.5l.4 1a18.2 18.2 0 0 1 1 2.9v.8h-.5l-.3-.1-.4.1L40 233a.5.5 0 0 0-.7-.3.5.5 0 0 0-.2.7l4 9.7.1.2v.3l-.2.1a.5.5 0 0 1-.2.2h-.7l-.8-.4v-.5l-4.5-9.3a.5.5 0 0 0-.6-.2.5.5 0 0 0-.3.7L40 243h-.4c-.4.1-.8 0-1-.2l-.8-.5.3.2c-1-.7-1.7-1.4-2.2-2l-1.6-1.8c-.6-.8-.8-.8-1.7-2.4l-.4-.7c.2.3.3.5 0-.3l-.4-.5-.2-.3v.2c-.5-1-1.5-3-1.4-3.1a45.4 45.4 0 0 1-2.5-7 45.6 45.6 0 0 1-.5-2l.4 1.8-.7-3.6v-.8l-.2-.3-.5-1-.9-1.8-.3-.5v-.1l-.5-1-.5-1.2-1.9-4.2c.3.8.2.5 0 .2l-.6-1.5-.9-2c0-.3.5 1 .6 1.2l-1.6-3.9c-.6-1.3 0 .3-.3-.3l-1.5-3.8v.5L16 195l-2.6-6.7c1.1-.1.4.2 3-.3l.5-.3c3-.7 1.7 0 5-.8-1.4.2-.7-.2 1-.4l-.5.2 1.7-.4c-.5.2-.2.3 1.1 0l-.9.3 2.5-.6c1.5-.1 3.7-.5 5-.7v.3h26.6a19.1 19.1 0 0 0 12.8-5.8 1 1 0 0 1 0-.1c6 0 14.2 0 20.6-.2a5.9 5.9 0 0 0 1.5 3.7c1 1 2.4 2 4.5 2.4h6.8v-.6l-.2-2.2v-1.4a38 38 0 0 0-.6-3.3c.1.6 0-.2.1-.2-.3-2.2-.6-4.5-.8-4.5-.2-1.6 0-1.3 0-1.6l-.5-2.6.1.6-.4-3.6v.7c-.3-1.9.1-.5 0-2.3h-.3c-.3-2.6-.2-4.1-.4-6.7-.6-5.5-1.5-11.3-2.3-17 .4.3 1 .4 1.3.5l2 .6c.4.1 1 .2 2.2 0l1 .1c.6 0 .8-.1 1-.2l1-.3c0 .1 1.5-.5 1-.1 2.6-.9 4.7-2.6 7.7-4.4.5-.7 2-1.6 2.3-2 .2 0 2.8-2.3 1.4-.9l-.4.3v.2a9 9 0 0 0 2.1-1.8l2-2c-.5.5-1 1-.7.6l1.3-1.2-.2.3 2-1.9-.3.2c1-1 1.5-1 2.3-2.3.4-.6-1 .8 0-.3 1.6-1.5 3.2-3.1 4.6-4.8-.2 0 .2-.4.6-.9h.1c1.4-2 .8-.5 2.2-2.4l.1-.5c1.1-1.8 1-.7 2.1-2.8-.6.7-.5.2.2-.7v.3l.7-1.1c-.2.4 0 .3.5-.5l-.2.6 1-1.6 2.3-3.3.1-.2.2-.2a2.3 2.3 0 0 0 .3-.5c.3-.7.2-1.9-.6-2.5l-1-.9c.5.4-.6-.8-.2-.6l-.8-.7 2-2.8.2-.1c.1 0 .7-1.3 1-1.4l.2-.5c0-.2.3-.5.2-.2l.5-.8.4-.5 3.6-5.4 1.2-1.6 1.2-1.8 1.4-1.1 1.4-1.2 2.5-2.3 1.4-1.3 1-1.3.7-1.2 1.5-2.6a58.6 58.6 0 0 0 3-5.8l1-2 1-1.1v-.8l.1-.4.4-.8.7-1c1-1.6-1-2.7-2.3-3.3l4-5.6c.4-.5.5-1.3.2-1.9zM89.3 178l-.2-.2h-4.4l1.7.1c-.6.3-3.3-.2-6.5 0-2.6 0-5.2.4-7.8.5.4-.7.8-1.5 1-2.4l1.1-4a104.9 104.9 0 0 0 2.8-16.8l1-9.2.4-6.5.6-11.7c0-3.5 0-5.9-.3-5.3l-.3 1.5v-1.5l.2-6.7.3 6c.1 1.8.3 1.7.4.7.2-.9.3-2.6.4-4.1l.1-2.8a92.5 92.5 0 0 0-.3-13c-.5-4-1-8.4-2.7-14.3a35.7 35.7 0 0 0-6-12.8 49.1 49.1 0 0 1 9 8.8c1.6 2.3 3.2 5.5 4.3 8.1 1 2.6 1.6 4.5 1.7 4V95l.3 1.2 1.3 5.5a26.3 26.3 0 0 0-.5-1.7l-1-3.2c-.7-1.3-.8-1.1-.7-.4a35.9 35.9 0 0 0 1 5.5l1.6 10.3c.5 3.3 1 6.7 1.5 11.6.6 8.5.4 10.8 1 19.7l.4 13c.3 1.9.1 5.4.4 7.7v3.5l.1 3v1.5-.3a127 127 0 0 1 .2 6h-2.2zM159 75c-.4.3-1 .4-2 .3-1 0-2-.5-2.5-1a1 1 0 0 1-.3-.6c0-1 2.2-.8 2.4-.8l.6.1c.6.1 2 .3 2.3.7v.3c0 .5-.2.8-.5 1zm1.4-.4.1-.5c0-.3 0-.7-.2-1 .3 0 .7 0 1-.2-.3.8-.8 1.7-.9 1.7zm1-1.7zm-2.3-.7c-2-.3-3.4-1.4-3.4-2.3 0-.2.1-.4.3-.5.7-.5 2-.5 2.5-.3h.5c1 .2 3.5.6 3.3 1.6-.2 1.1-1 1.5-3.3 1.5zm4-2.5v-.1zm1.4-2.2c-.4 1.2-1.4 1.4-3.9.9-1.6-.3-2.9-1.1-3.3-1.8 0-.3-.2-.5 0-.7.2-.9 2-.9 3-.7l.4.1.3.1c.3 0 .5.2.8.3l.6.3 1.3.4c.4.3.7.5.8.8a.3.3 0 0 1 0 .3zm1.5-3c-.4.7-1 1.2-2 1a10 10 0 0 0-1.7-.7c-1.4-1-2.3-2.3-2-3a.8.8 0 0 1 .6-.4c.7-.2 1.8.2 2.4.6l.7.5c1.2.6 2.3 1.3 2 2z"/><g fill="#fff"><path d="M59.3 139.4c0-.4-.3-.4-.4-.1a39 39 0 0 0-3.6-.8 17 17 0 0 0-4.2 0c-.2-.3-1.5-.1-2-.2h.1c-1 .2-2.3-.3-3.4-.1l.3-.1-1.9-.1h-3.6l-.4 1.7c2.5.2 5 .6 7.4.4h11l-.3 1.6c-.7 3.6-.5 5.5-.9 9.8l-1.4 8.6-.6 2.6c-.2.8-.5 1.5-1 2.1-.3.7-1.5 1.5-2.2 2l-.4.2-.9.5c-.4.2-1 .3-1.2.5l-.5.1c-.7.3-1.6.5-2.4.6-1.7.2-2.3.5-3.9.3-2 .4-3-.3-5-.3.1 0-.2 0 0-.1l-1.6-.2-.2 1.9c.7.3 2 .3 2.1.5l1 .1h1c-.4.1.5.2.3.3h2c1.8.1 3-.3 4.7-.4 0 0 .7-.2.5-.3 1.6-.5 3-.4 3.5-1.2l1.2-.4v.1l.7-.5.6-.3 1-.9c.5-.4.3-.6 1-1.3 0 .3.2 0 .4-.3-.2.2-.2.3.2 0v-.3h.1c.3-.6.2-.5 0-.3.1-.2.4-.5.5-.9l.4-.6.3-1.3.1-1.1.2-2c.1-.2.2.1.1.5l.1-1c.2 0 0 .6 0 1 .4-1.2.2-2.6.6-4v-.9l.2-.6c.2-.5.2-1.6.2-2.3 0 .4 0 .2-.2 0l.2-.7h.2c-.2 0 0-1 0-1v.6l.2-2.1c0-.8-.2 0-.3-.3 0-.7 0-1.3.2-2l-.2.2c0-1.3.2-2 .4-2.8l-.2-4c.5 0 .6-.2 0-.5zm-22.8 30.9v-.3Zm15.3-50.9zm-13.3 42.7v.1z"/><path d="m37.3 173 .8-6.6.4-4.3.2-2.5v-.3a3 3 0 0 1 .1-.9l.1-1 .1-.5v.1l.2-2c.2-1.3 0-1.8.3-3 0-1.6.5-2.4.5-4 0 .2 0 0 .1 0 0-.8.2-1.6 0-1.6l.2-.5v-.9.2l.2-1.1-.2.2c.2-.7.2-.2.3-.8 0-.8.3-1.3.5-2.1l.6-2.6.3-1.3.4-1.3c.2-.8.7-1.6 1-2.4l1.3-2.1.1-.1c.1 0 .3-.9.5-1l.1-.3c.1 0 .2-.2.2 0l.2-.6.3-.3 2.1-3.4c1.2-1.3 3-4 4-5.6 1.5-2.3 3.8-4.4 5.3-6.7l.2-.3 1.6-1.9 3-3.8c1.2-1.5 1.5-2.3-2 .9h.1c-1 1-1.5 1.6-2 2.4-.2 0-.7.9-1 1.1l-1.5 2v-.3c-.3.5-.8 1.2-.9 1.1l-2.5 3.5-.7 1-1.2 1.7-.7.9.2-.3c0 .2-.6.6-1 1.3-.4.6-.5 1.5-1 2-.2.4 0-.3-.3.2 0 0 .1-.2 0-.1-.3.4-.6.6-1 1.3-.4.8-1 1.3-1.2 1.8-.5.8-.5.4-1 1.3l-.2.3c-.2.3 0 .3-.3.7 0-.1-.4.4-.3.2-.6.8-1 1.8-1.7 3 0 .3-.3.9-.4 1.1l-.3.6c0 .2 0 .3 0 0v-.4c-.4.7-.4 1.4-.7 2 0-.1.2-.4.2-.2a3.5 3.5 0 0 0-.3.7v-.2l-.3 1h.1c0 .4-.3.6-.3 1.2 0 .3.2-.5 0 0l-.6 2.6c.1 0 .1.2 0 .4 0 1-.2.3-.3 1.2v.2c0 .9-.2.4 0 1.4v.3-.1.5c0-.2-.2-.1-.2.2v-.2.7c-.2.5-.2 1.3-.4 1.6 0 0-.2 1 0 1.4 0-.3-.2.3-.3.1a5 5 0 0 1 0 1.6c-.4 1.2-.3 2.1-.5 3.3v.4c0 1.2-.4 2.2 0 2.7 0 .5-.3.6-.3.9v-.2l-.2 2.1v1.5c0-.2 0-.2-.2 0v.5-.1c0 .4 0 1.2-.2 1.3v3.3l-.2-.5v.8-.7c-.3.9 0 1.9-.3 2.9v.7l-.2.5v1.7c0-.3 0-.2 0 0v.5H36v.9-.5 3.3-.2c0 1 0 1.5-.2 2.1 0 7 .8 1.5.8 1.5.4-2.8.3-4.2.5-7.4l.2.1zm60.4-39zm-5-28.3zm5.5 23.8zm.8 5.8c-.2-1.6 0-2-.4-3.6l-.4-2.2c-.2-.3 0-1-.3-1.4v-.1a1.1 1.1 0 0 1 0-.5l-.2-.5v-.3l-.2-1c0-.7-.3-1-.3-1.6-.3-.7 0-1.3-.4-2l.1-.1c0-.4-.2-.8-.3-.8v-.3l-.2-.4v-.5l-.2.1c0-.3.2 0 .1-.4v-1.2c-.3-1.9-1-3.8-1-5.6.1-.1-.3-.5-.2-.6v-.8l-.6-2.1c0-1-.5-2.7-.8-3.6-.5-1.4-.4-3.1-.9-4.5v-.2l-.3-1.3-.7-2.5c-.4-1-.7-1.3-.7 1.2 0 .7.2 1.2.4 1.6l.1.8c.2.4.1 1 .3 1.3v.7c.2.7.4 1.7.7 2.2l.1.6c.2.3.2.9.3 1.1v.6-.2c.3 0 0 .4.2.8 0 .4.6.8.6 1.2 0 .2-.2-.1 0 .1h-.2l.1.8c.2.5 0 1 .2 1.2.2.5 0 .4.1.9v.5s.1.3 0 .2c0 .6.4 1 .3 1.8.2.1.2.5.3.6v.3h-.2l.3 1v-.2l.1.4v.5-.1l.1.7c.1.1 0-.3.2 0v1.4c.1-.1.2 0 .2.2.1.5-.2.2 0 .7h.1c.2.4 0 .3.1.7 0-.2.2 0 .2.2v.3h-.2l.2.3c0 .3.2.7 0 .8 0 0 .1.6.3.8 0-.1 0 .2-.2.1l.2.8c0 .7.3 1.1.3 1.8 0 0 0 .3.2.2.2.6 0 1.2.3 1.3v.5l.1 1c0 .3.3.3.3.6v.4c0 .2 0 .2 0 0v.7c.1.7.3 1.2.5 1.7l-.2-.2v.4-.3l.2 1.5v.1l.2.2v.3l.1 1v-.1.3l.2.5-.2-.3.2.9c0 .3 0-.1.1 0l.2.8c.2.4.2.7.2 1 1.2 3.6 1 .7 1 .7 0-1.5-.3-2.2-.6-4zM37.6 185h.1zm26.5-1zm-22.3 2.3zm-5.5-.1c1.4 0 1.8.2 3.3.1h2.1l1.3-.1h2.3c.6 0 .8-.2 1.4 0 .8-.3 1.2.1 2 0 .4 0 .8 0 .8-.2l.3.1.4-.1h.5v-.1l.2.1v-.1c.5 0 .7.2 1.1.3 1.8 0 3.6-.3 5.3 0 0 .2.5-.2.5 0h.8l2-.2 1.8-.3a11 11 0 0 0 1.7-.7c1.2-.7 2.8-1 4-1.9v-.1l1-.7.7-.6 1.2-1.1c.3-.4.4-.7.3-.8a5 5 0 0 0-1.7.8c-.5.3-.8.5-1 1-.3-.2-.6.2-.7.3-.3.3-.8.3-1 .6-.2 0-.5.3-.6.2l-1.8 1c0 .2-.2.2-.5.3-.2.2-.7.3-1 .4l-.5.1h.2c0 .2-.4 0-.7.2-.4 0-.7.6-1 .5-.2.1 0-.1-.2 0 0-.1.1-.1 0-.2l-.7.1h-1c-.5.1-.4-.2-.9 0v-.1h-3.3.1v-.1c-.3-.2-.6 0-1 0 .1 0 .3 0 .2.1h-.4.1l-.5-.1h-.6s.3.1 0 .1l-1.3-.1-.2.1c-.4 0-.2-.2-.6-.2v.2c-.5.1-.3-.2-.8 0 .2 0 .1.2 0 .1h-.3v-.2l-.4.1h-1.5c.1 0-.2 0 0-.2-.2.1-.6.2-.8 0-.6 0-1 .2-1.7 0 0 .2-.2.1-.2.2-.6.1-1-.2-1.3.2l-.4-.1h-1c-.2 0-.2.2-.6.1v-.1h-.3c-.2 0-.2 0 0 0h-.7l-1.6.2.2-.2H39h.4-1.6l-.2.2c0-.1 0-.2-.2-.2h-.9c.1 0 .1.1 0 .1h-.7.3-.8c-.3 0 0 0 0 .1h-.9l.1.1h-1c-3.4.7-.7 1-.7 1 1.4.1 2 0 3.7-.2zm56.1-5.1zm6.1 3.8zm-6.5-2.2zm-.7-1.7c0 .5 0 .7.3 1.1l.3.6c.2 0 .2.3.4.3v.2h.2v.2a.5.5 0 0 1 .2.2c.2.2.4 0 .4.3.4 0 .2.4.6.4 0 .1.2.2.3 0v.2h.3c.1 0 0 0 0 0h.1l.2.4c.5.3 1.2.2 1.6.6 0 .2.2-.1.2 0 0 0 .1 0 0 0h.2v.1c.2.2.4 0 .7.1.2.2.7.2 1 .1.5-.1 1 .4 1.3.2h.5s1.8.1.5-1h-.5c0-.1-.2 0-.2 0s-.3-.2-.4 0v-.1h-1.4c0 .1 0-.2-.2 0 0-.1-.3.3-.4.2v-.2s0-.2-.2-.1v-.1H97c-.2 0 0-.3-.2-.2 0-.1 0 0-.2 0v-.1c0-.2-.3 0-.4-.2 0 .1-.2 0-.2 0s-.2 0 0 0v-.1c0-.2-.2 0-.3 0v-.2.1c-.2 0-.2-.2-.3-.1 0 0 0 .1 0 0l-.3-.2c-.3 0 0-.2-.2-.2v.1c-.2 0 0-.2-.3 0 0 0 0 .1 0 0v-.1l-.3-.2s0-.1 0 0v-.2l-.2-.1c0-.2-.3-.1-.3-.3h-.2c-.2 0 0-.3-.3-.2v-.1a.8.8 0 0 1-.2-.2H93v-.4l-.4-.3h.1v-.1c.1-.1-.2-.1 0-.3h-.3l.2-.1-.2-.2v-.4h-.2s-.2 0 0-.2c-.3 0-.3-.1-.2-.2-.5-.4-.7-.5-.8-.4-.2.1-.2.3-.2.3 0 .5.2.7.4 1.2zM24.1 81.6l.2-.1zm33.5-13.3zm-28.5 10zm-5.3 5.3 1.5-1.6 1.6-1.7 2.1-2 1.3-1.2.2-.1.4-.4.5-.4.3-.2a6 6 0 0 1 1-.8c.8-.5 1-.8 1.8-1.2.7-.8 1.5-.7 2.3-1.4 0 .1 0 0 0 0 .5-.2 1-.5 1-.7h.2l.5-.3.6-.3H39c.4-.2.2 0 .6-.1v-.1l1.4-.4 3.5-1.1 1.8-.4c.5-.1 1.1-.3 1.6-.2h.2c0 .2.6-.2.6 0l.3-.2s.2 0 0 .1l.5-.1h3l2.3.1 2.4.2c1.8.1 3.7 1.2 5.5 1.7h.2l1.5.8 1 .5 2 1.1c.5.4.8.6.8.4 0-.2-.3-.8-1.5-2-.8-.5-1.3-.8-2-1 0-.2-.7-.3-.9-.5-.5 0-1-.6-1.6-.6h.2l-1-.4c-.9-.3-2.2-.7-2.9-.7l-.8-.1c-.4 0-1.2-.3-1.5-.2V68l-.8-.1h.3c0 .2-.5-.2-1 0-.6-.1-1.2.2-1.7.1-.3 0 .2-.1-.2 0 0-.2.2-.1 0-.2h-1v-.1c-.6 0-1.2-.1-1.6 0-.6.2-.4-.1-1 0h-.4l-.5.1H48a4 4 0 0 0-1 0l-1.4.3-.8.3s-.9.2-.4 0c0-.1.1-.1.1 0v-.2c-.5 0-.9.3-1.4.4h.2l-.4.2v-.1l-.6.2-.8.2c-.2.1.4 0 0 .2-.5 0-1.2.2-1.8.4.1.1 0 .2-.2.2l-.9.3v-.1.2c-.5.4-.4 0-1 .4.3 0 .3.1 0 .2h-.3l-.2.1v-.2l-.3.4c-.3 0-.8.5-1 .5 0 0-.7.3-.8.5h-.3s-.6.5-.9.5c-.7.4-1.2 1-1.9 1.3l-.2.3c-.6.6-1.3.8-1.4 1.3l-.5.3v-.1l-1 1-.6.6c.1-.2 0 0-.2 0 .1 0 .1 0 0 0v.2l-.2.1c-.3.1-.6.6-.7.5L25.6 80l.1-.3-.3.4.3-.4c-.6.3-.8 1-1.4 1.5v.1l-.2.3c-.2 0-.2-.1-.4.2-.2.1-.5.6-.7 1 .1-.2.1-.1 0 0l-.2.2-.3.5c-.2 0 0-.3 0-.3l-.6.8c-.2.4.1 0 0 .2l-.6.9h.2l-1 1.1c-1 2.2-.9 2.5-.6 2.3l1-1c1.1-1.3 1.5-2.2 3-4z"/></g></svg>
