<svg xmlns="http://www.w3.org/2000/svg" viewBox="0 0 167.4 415.7"><g transform="translate(-173.5 -33.1)"><path fill="#ea9d7d" d="m226.1 79-7.5 24.5-2.2 5.7s3.2 4.1 10.8 5.7a38 38 0 0 0 11 1c1.9-.2 4.2-.6 3-4.1-1.7-5.2-1.1-8.5-1.1-8.5l2.7-14.7z"/><linearGradient id="a" x1="229.2" x2="236.1" y1="95.9" y2="87" gradientUnits="userSpaceOnUse"><stop offset="0" stop-color="#bc5a32" stop-opacity="0"/><stop offset="1" stop-color="#bc5a32"/></linearGradient><path fill="url(#a)" d="M224.9 92.2c2.5 3.8 6.9 7 9.4 8.2a24 24 0 0 0 6 2.1l2.2-12.2L226.1 79l-.9 1.7-.7 2.8c-.1.1-1.9 5.2.4 8.7z"/><path fill="#ea9d7d" d="M253.9 60.4c1.1 2.1.8 5.7.8 6.9-.1 3.8-.4 8.9-1.1 12.9-1.1 6-4.1 9-7.3 10s-8.6-1-12.5-3c-3.3-1.7-5.2-3.5-5.7-5.6-.5-2.2-1.5-5-1.5-5l1.8-4.8s3-11 7.9-14.5c5.8-4.1 11.9.4 11.9.4s3.7-1 5.7 2.7z"/><path fill="#cf7653" d="M217 109.4h-.1a.6.6 0 0 1-.3-.5l4.7-14.4 3.6-13.1a.6.6 0 0 1 .5-.3.6.6 0 0 1 .3.5l-3.6 13.1-4.7 14.3c0 .3-.2.4-.4.4z"/><path fill="#b76349" d="M243.4 90.8c-1.1 0-2-.2-4-.7-3.2-.8-7.7-3.3-10-5.5-2.2-2.2-2-4.3-2-4.4 0-.2 0-.5.2-.5s.3.2.4.4c.1.4.1 2.1 1.9 3.9 2.1 2.1 6.6 4.5 9.6 5.3 3.1.7 3.7.9 6 .7a7 7 0 0 0 3.3-1c.4-.3.5-.3.3 0-.2.2-1.3 1.3-3.5 1.7z"/><g fill="#a84d3b"><path d="m228.9 84.8.2.5.4-.4z"/><path d="m228.9 84.2-.3.9 1.1-.2zm5.3 3.8v1.1l1.1-.5zm-2.7-1.7-.1 1.1 1.1-.4zm-1.5-1.1-.2 1.1 1.2-.3Z"/><path d="m228.2 83.2-.4 1h1.2zm7.5 7.2-.5-.6-.4.7zm-1.4-1.1-.6-.8-.3.9zm4.1 2.1-.7-.7-.2.8zm3 1.1-.7-.8-.3.9zm-5.3-3.6-.6-.3v.9zm1.4 3.1-.5-.5-.3.7zm-3.9-4-.6-.4-.1.9zm5.3 2.1-1-.4.1 1.2zm1.9.3-.8-.1.2.9zm1.3 1.6h-.8l.3.7zm-2.8-.2-.3-.7-.5.7zm2.4 2.3.1-.7-.8.2zm-.2 1.3.1-.7-.8.2zm-1.7 0-.4.3.5.3zm.3-3.9-.4.4.6.3zm2.3-.7-.6-.1.2.6zm-1.9 5.8-.4.3.6.3zm-9.9-10.4-.4.3.5.3zm-3.4-4.6-.4.3.5.3zm10.1 9.4-.3-.3-.1.5zm-2.8-.8.1-.4h-.5zm1.4.9.2-.4h-.5zm2.1 2 .2.5.5-.4zm2.9-2-.3.3.4.2z"/><path d="m241.1 90.6-.5.4.6.3zm-1.2.4-.4.3.4.2zm.4 7.1-.4.2.4.3zm-1.1-1.1.2.4.3-.4zm-.1-2.4.2.4.3-.4zm1.9.9-.3-.2-.1.4zm-13.9-4.7.2.2.2-.3zm1.9-1.2-.2.2h.3zm2 3.5-.3-.1.1.4zm-1-1.7-.2.3h.4zm6.9 3.2-.1.6.6-.3zm-.9-4.5v.5l.5-.2zm0-1v.5l.6-.3zm-7.7-3.1v.6l.5-.3zm12 7.3-.5.1.4.4zm-1.5 4.2-.2-.4-.4.4zm.3-5.2.3.4.3-.5zm1.6.6.3.5.3-.6zm1-1.9-.3.4.5.1zm-.6 3.2-.4-.3v.6zm-11.3-8.9-.6.4.7.4zm-2 .8-.3-.3-.1.5zm-2-1-.2-.2-.1.4zm-.5 3.1.1-.4h-.4Zm3.8-2.2.2.4.4-.4zm-1.2-1 .3.6.5-.5zm-.2-2.7-.4.6.8.1zm3 4.8-.3.2.4.3zm.8-.4-.3.2.4.2zm.8.4-.3.2.3.3zm-1.5 2.7-.2-.2-.1.4zm-6-3.4.2.3.3-.4zm2.3-2.3-.3.2.4.2zm-.1 3.7-.3-.2-.1.4zm.3-4.1.2.3.3-.4zm1 .5.2.4.3-.4zm-2.3-1-.3.3.4.1zm.3-1-.3-.2-.1.4zm5.3 5.5v.4l.5-.2zm1.9.8-.4.1.3.3zm-.8-.8-.4.1.3.3zm6.7 3-.4.1.3.3zm-1.5-.6-.3.1.2.3zm-4.7.7-.1-.3-.3.3zm5.6 5-.1-.3-.3.3zm-6.1-6-.2-.3-.3.3zm2.6-.6v.5l.4-.2zm1.6.4v.4l.4-.2zm1.8.9-.4.1.3.3zm-1.4 2-.2-.3-.2.3zm-4.3-.1v.4l.4-.2zm1.9-1-.3.1.2.3zm3.4.8-.1-.3-.3.3z"/></g><path fill="#af361a" d="M238 67a.8.8 0 0 1-.2-1c.1-.1 1.7-2.5 5.3-2.2.4 0 .7.4.7.8s-.4.7-.8.7c-2.7-.2-3.8 1.5-3.9 1.6-.4.4-1 .2-1.1.1zm15-1.7-.4-.1c-.7-.5-1.5-.4-1.6-.4-.4.1-.8-.2-.9-.6-.1-.4.2-.8.6-.9.1 0 1.5-.4 2.8.7.3.2.3.7.1 1-.1.2-.4.3-.6.3z"/><path fill="#cf7653" d="M243.8 84.6a6.1 6.1 0 0 1-5.8-4.4c-.1-.4.1-.8.5-.9.4-.1.8.1.9.5 0 .1.8 3.1 4.4 3.3.4 0 .7.4.7.7 0 .5-.3.8-.7.8z"/><path fill="#b4603f" d="M247.3 79.1h-.2c-.4 0-.6-.4-.6-.7 0-.4.4-.6.7-.6.2 0 .7 0 .9-.6.2-.6-.3-1.5-.5-1.8-.2-.3-.2-.7.1-.9.3-.2.7-.2.9.1.1.2 1.2 1.6.8 3a2.2 2.2 0 0 1-2.1 1.5z"/><g fill="#4f2b23"><circle cx="241.8" cy="72.3" r="1.4"/><path d="M241.5 71.9c-.2 0-.9.2-1 0-.1-.3.4-.8.8-1 1-.5 1.8-.4 2.1-.4a.5.5 0 1 1 0 1c-.3 0-.9 0-1.7.3z"/><circle cx="252.2" cy="71.5" r="1.4"/><path d="M251.9 71.1c-.2 0-.9.2-1 0-.1-.3.4-.8.8-1 1-.5 1.8-.4 2.1-.4a.5.5 0 1 1 0 1c-.3 0-.9 0-1.7.3z"/></g><g fill="#f4b9a6"><path d="m244.7 76.6.6-.3-.7-.5zm-7.6-.9-.2-.6-.5.5zm9.7.3h.9l-.5-.9zm-1.6-3 .6.5.2-.8zm.4-.9.9-.5-.8-.6zm1.6 8 .8-.4-.7-.6zm2.3-.9.4-.9-.9.2zm-5-3.4-.7.1.4.8z"/><path d="m245.1 74.9-.8.1.5.7zm-.5 3.8.2.7.7-.5zm.2 1.4.6.4.2-.8zm3.4 2.4-.7.1.5.7zm-1.5-15.2-.3.5h.8zm.3 4.4-.6-.2.2.6zm.8-2.2-.6-.1.2.7zm-4.2 2.8-.2.7.8-.2zm.8-3-.6.3.6.5zm-2.9.7-.4.1.2.4zm5.5 12.4-.6.1.4.6zm-.7-.4-.6.1.4.6zm-4.9-4.3h-.6l.3.6zm1.4 1.2-.6.1.3.5zm-1.7-3.3-.2.6.8-.2zm3.2-.4-.1-.5-.6.4zm6 5.7.3-.4h-.6Zm-2.2-1.8.3.4.2-.7zm4.1-3.9v.5l.4-.2zm-2 1.9.4.1v-.5z"/><path d="m252.3 75.9.2-.3-.5-.1zm-12.4-4.5-.3.4h.5zm5.9-2.3.8-.1-.5-.7zm-.1 8.8.9-.2-.6-.7Zm-.6-5.8-.6-.1.1.6zm-4.9 3.9v-.6l-.7.2zm4-5.7v.7l.8-.3zm-.9 1.4v.7l.9-.4zm.8-.6-.1.7.8-.3zm5.9.3.6.3V71Zm-5 2.8-.3-.5-.4.5zm2.3 7.5-.5.2.4.4zm-2.4-4-.2.4h.7zm.4 3.1-.2-.5-.3.5zm.9.5.4-.3-.6-.3zm.3-1.1.5-.3-.6-.4zm-.2-.7.5-.3-.6-.4zm0-2.6.5-.3-.6-.4zm-1.2 0 .4.4.2-.5zm4.9 4.6-.6.2.4.4zm-2.4-5.1-.2.4.6.1zm.9 5.4-.3-.3-.3.4zm-3.2 1.6.1.5.6-.3zm-1.2-3-.6.2.4.4zm-5-6.4-.3-.4-.3.5zm5.2 7.7.4.2.1-.5zm-1.5-1.1.5.2v-.5zm-1.1 3.9-.3.4.6-.1zm-.8-.7-.5-.1.1.5zm-1-.2h-.5l.1.5zm5.7-7.8 1-.1-.8-1zm-.6-2.4.2.5.4-.5z"/><path d="m245 74.3.5.8.7-.8zm2.7-1.1-.8.6 1.1.4zm-6.7 1 .1-.4-.6.2zm6-.1-.3.3.5.3zm-1.7-3.2.6-.1-.4-.5zm3.8 1.6.7-.1-.5-.5zm-4.2-.2.6-.2-.4-.5zm4.6-2.6.6-.1-.4-.5zm-2-1.5-.5.2.6.3zm-5 1.3.1-.5-.6.3zm0 7.8-.1.7.8-.2zm-.9-.4h-.6l.3.7zm1.1 2.8-.2.6.7-.2zm1.1-2.5v.7l.7-.3zm-.8 1.2v.8l.9-.3zm-.6-2 .1-.5-.6.3zm8.2-3.5.6-.1-.4-.4zm-2.1-2.2.2.5.4-.4zm3.9 7.4.5-.1-.4-.4zm-8.7-8.6v-.4l-.5.2zm3.6 1.5-.1.6.7-.2zm-.7-1.2-.1.6.7-.2zm1.5 4.4.9.7.4-1.1zm1.2 1.7 1-.3-.6-.9zm-3.4.3.4.1-.1-.4zm0-2.5-.2.4h.6zm1.2-1.2h-.6l.4.5zm1.9.4h-.6l.3.7z"/><path d="m247.2 73.2 1-.5-1-.7zm1.7-4.5.4-.5-.8-.1zm-3 10 .4-.6-.8-.1zm.3-4.4.9-.5-.8-.6zm1.3-4.1.3.3.2-.5zm1.2 1.1-.7.8 1.3.2zm1-1.3-.3.5.6.1zm.3 3.9.3.4.3-.5zm-1.3-4.5-.3.4.6.1zm-8.2 4.5-.7.2.5.5zm2.8-.9-.4.5.7.1zm-.5.9-.1-.5-.5.4zm-.7.5v-.5l-.5.3z"/></g><g fill="#fff"><path d="m247.3 72.5-.7-.7s.6-.8 1.6-.8 1.7.5 1.7.6l-.6.8s-.4-.4-1-.4c-.5 0-1 .5-1 .5z"/><path d="M253.4 77.3c-1.8-.1-3.2-2.6-3.1-5.4.1-2.8 1.7-5.2 3.5-5.2l1 .2v-1.1l-.9-.2c-2.4-.1-4.4 2.8-4.5 6.2-.1 3.5 1.7 6.5 4.1 6.5h.4l.1-1z"/></g><path fill="#ccc" d="M258 72.2c.1-3-1.2-5.7-3.2-6.4v1.1c1.3.8 2.2 2.8 2.1 5.3-.1 2.6-1.4 4.8-3 5.2l-.1 1c2.3-.1 4.1-2.8 4.2-6.2z"/><linearGradient id="b" x1="240.8" x2="235.1" y1="62.9" y2="55" gradientUnits="userSpaceOnUse"><stop offset="0" stop-color="#bc5a32" stop-opacity="0"/><stop offset="1" stop-color="#bc5a32"/></linearGradient><path fill="url(#b)" d="M232.9 70.6s4-6.6 7.4-8.6c4-2.3 10.6-3.7 10.6-3.7l-17.5-5.5z"/><path fill="#c94112" d="M223.3 86.7s-10.1-4.2-11.2-14.6a21.2 21.2 0 0 1 5.2-16.6l-.4-3.6s-4.3-1.2-5.6-7c-1.2-5 2.8-9.4 7.4-11.1 5.6-2.1 12.1.8 13.8 5.8a7.8 7.8 0 0 1-.7 7.1l1.8 2.2s6.5-3.8 13.4.1c6.8 3.9 10.8 11.1 11.7 12 .6.5-4.2 1.3-9.4.5a47.4 47.4 0 0 1-11.7-3.4c-1.1-.8-1.2-.3-1.1 1.4.2 2.6.3 10.3-4.6 12.2-2.1.8-3.4.2-3.4.2z"/><linearGradient id="c" x1="210" x2="226" y1="63.5" y2="49.4" gradientUnits="userSpaceOnUse"><stop offset="0" stop-color="#ff7a00"/><stop offset="1" stop-color="#ffb600"/></linearGradient><path fill="url(#c)" d="m217.2 55.7 16.8-7-1.3-3.1-17.1 6.7z"/><ellipse cx="224.4" cy="75.5" fill="#ea9d7d" rx="5.3" ry="5.7"/><linearGradient id="d" x1="224.5" x2="224.8" y1="78.8" y2="73.5" gradientUnits="userSpaceOnUse"><stop offset="0" stop-color="#cc7a5e" stop-opacity="0"/><stop offset=".9" stop-color="#aa5f4b"/></linearGradient><ellipse cx="224.7" cy="75.5" fill="url(#d)" rx="2.4" ry="2.5"/><path fill="#b76349" d="M227.9 79.1c-.9 1-2.2 1.6-3.5 1.6-2.7 0-4.9-2.4-4.9-5.3s2.2-5.3 4.9-5.3a5 5 0 0 1 4.4 2.9s.2.1.5-.1.2-.6.2-.6a5.9 5.9 0 0 0-5-3.1 6 6 0 0 0-5.8 6.1c0 3.3 2.6 6.1 5.8 6.1 1.4 0 2.5-.4 3.5-1.2z"/><g fill="#964c38"><path d="M226.9 76.1v-.4l-.4.1zm-1.7-3-.4.1.3.4z"/><path d="m225.1 73.2-.5.6.9.2zm-.9-.1-.6.2.5.5zm2.6 1.5-.3.2.4.2zm-.9-.5-.3.3.4.1z"/><path d="m226.5 74.8-.2.3.4.2zm-2.2-.8-.3.2.5.2z"/><path d="m223.8 73.7-.4.5.7.2zm1.7 1.8.2.2.1-.3zm1.1-1.2-.1.2h.3zm.2.9-.1.3h.3zm-3.6-1.6-.4.4.6.1zm.8 1.5h-.2l.1.3zm.6.9-.1-.3-.2.2zm.8-2.5.2-.2-.3-.2zm-1.2 0-.3.3.5.1zm-.5.3-.3-.2v.4Z"/><path d="M223.7 73.8v-.3h-.3zm2.4.4.2.3.2-.3zm-.4-.9-.1.7.7-.2z"/><path d="m225.4 73.8.3.2.1-.4zm-2.4.9-.2.3h.3zm1.8-1.6-.3-.1.1.4zm-.6 1.8.2.3.2-.4zm.8 1.3-.1.2.3.1zm-2.1-2.2-.2.3.4.1z"/><path d="m223.8 76.2-.3-.1.1.3zm-1.1-1.6.3-.1-.2-.3z"/><path d="M222.4 75.7h.2l-.1-.3zm.2-1 .2-.1-.1-.2zm.7-.3v.3l.3-.2zm-1 .9h.4l-.2-.4zm.6.1v.2l.3-.2zm2-1.3-.3.2.3.2zm1.4 1.5.1.4.3-.2zm-2-2.2.1.4.3-.3zm1 1.1-.2-.2-.1.3z"/></g><g fill="#fff"><path d="M242.4 80.4c-2.8 0-5-3-5-6.6 0-3.6 2.3-6.6 5-6.6s5 3 5 6.6c0 3.6-2.3 6.6-5 6.6zm0-12.2c-2.2 0-4 2.5-4 5.6 0 3.1 1.8 5.6 4 5.6s4-2.5 4-5.6c0-3.1-1.8-5.6-4-5.6z"/><path d="m229.2 72-1.2-1.3 10.2 1.7-.1 1z"/></g><g fill="#a84d3b"><path d="m243.8 60.3-.1.5.4-.1zm1.5.4-.5-.1.1.5zm-.6 0-.4-.3-.1.5zm-8.2-2.6v1l1-.6zm5.1 1.6-.2.5.6-.2zm-1.8 0 .2.5.4-.4zm-1.3 1.1v.3l.3-.2zm-1.9.6v.6l.6-.2zm2.5-2.6-.4-.2-.1.4zm3.6 1.2.1.5.4-.4zm-1.7-.2.1.5.4-.4zm4.5 1v.4l.5-.3zm-3 0 .2.4.3-.3zm-2.4-.4.1.4.4-.3zm-.8-.7.1.3.4-.3zm2.7.4.3.3.1-.3zm1.2.3.1.2.2-.3zm2.9.7.1.2.2-.2zm-9.3 2.3-.2.1.2.2zm1-3.3.2.4.4-.5zm-1-2.5-.1.5.6-.2z"/><path d="m237.2 57.8-.1.7.8-.3zm-.3 4.7h-.4l.2.4zm.1-.2-.1-.3-.3.3zm1.2.4-.1-.2-.2.2zm1.7-.8-.1-.3-.2.2zm.6-1.5.5.1-.2-.5zm.2-.5.8-.3-.7-.2zm-1.9-.2.1.4.3-.3zm.5.9h.4l-.3-.4zm-2.5 3.3v.4l.4-.2zm.4-.9v.2l.2-.1zm1.5-3-.3.2.4.2z"/><path d="m236.6 63-.1.3.5-.2zm-.1 1.1.3-.1-.3-.3zm-.1 1 .3-.2-.3-.1zm0-.5.3-.1-.2-.3zm-.3 1.7.4-.2-.3-.3zm.2-.7.4-.1-.4-.4zm2.3-7-.7-.4-.2.8zm-1.2 2.4.3.3.2-.5zm2.4-1.9.3.9.6-.7zm-2.9 2.1.3.3.2-.6zm4.6-.7.4.2v-.5zm-5-1.4v.6l.6-.4zm1.2 2.5h-.4l.3.4zm-.2-1.2-.4.2.4.3zm1-1.2.1.4.3-.3zm-1.2-.6.1.4.3-.3zm0 1.6-.7-.2v.8zm-.3-.6-.3.2.3.3zm1.4-.2-.4.1.4.3zm0-.6-.4.1.3.3zm-1.6-1.1-.4.2.3.3zm.8 1.9-.4.1.4.3zm-.5-.7-.4.1.4.3zm-.5 1.9-.1.3.4-.1zm3.2-1.8-.7-.2.2.8z"/></g><g fill="#ff593e"><path d="m243.1 47.6.2 1.1 1-.7zm6.8 9.2-.5-.2v.5zm6.4 1.4h-.4l.2.5zm-2.5-.8.1-.5-.6.1zm-8-8.3-.5.6.8.3zm5.8 6.3-.3.5.7.1zm1.6-1-.2 1 1.1-.2z"/><path d="m252.7 53.7-.3 1 1.1-.1zm-11.1-6.3-.8-.1.3 1zm-.9-.1-.9.1.4.9zm-1.6 1.7-1.1.3.8 1.1zm-.6-1.6-.9.1.4.9zm11.5 3.8-.7-.5-.2 1zm-3.7 0 .3-1-1 .2zm1.6.9.4-.8h-1.1zm1.8 1.2.3 1 .8-1zm.7-1.8-.2 1.4 1.4-.3zm-1.2 2.5-.4.3.4.2zm-7.8-2.9-.4.3.4.3zm-1.8-1.1-.4.3.5.2zm.6-.7-.4.3.4.2zm-2.1.7-.4.3.5.3zm-.4-.6-.4.3.6.2z"/><path d="m237.1 49.3-.4.3.5.2zm15.9 8.4-.3.5h.5zm1.5-.3-.3.4.5.1zm-2.8-.2.2.4.3-.5zm-.5-1.9.3.4.2-.5zm1.7-.3-.5-.2.1.5zm-14.1-3.3.2.3.3-.5zm1.9-1.5-.2.3h.5zM242 54l-.2-.2v.5zm-.1-1.8-.1.3h.4zm2.4 4.1h-.3l.1.3zm1.4.1v-.3l-.3.1zm3.1-.8.1.6.5-.3zm-.3-5.5-.1 1.1 1-.5zm-7.3-1.6-.1.7.7-.3zm10.9 4.6-.5-.5-.3.8z"/><path d="m252.7 53.7-.5-.5-.3.8zm2.3 2.6-.5-.6-.3 1zm-3.5 1.7-.4-.4-.1.6zm-.6-5 .3.5.4-.6zm-.1 1.3.4.5.3-.6zm.4-.7.3.5.3-.7zm-4.9.1-.4.5.5.1zm6.2.3h-.5l.2.6zm-14.8-5.3-.4.3.6.3zm0-.7-.4.3.5.3zm-1.2.6.5.5.3-.9zm-.4-.2-.5.4.7.4z"/><path d="m241.8 48.1-.3-.3-.1.4zm-5.4.5.1-.8-1 .3zm.9-.1.1-.9-.9.2zm2.7-.7.5.9.7-.8zm.3 1 .2.7.7-.6zm1.9.5.1.4.4-.4z"/><path d="m242.8 47.9-1.3.6 1.1 1zm-3.1-.6h-.8l.4 1z"/><path d="m242.9 47.6-1.1-.1.4.7zm-.7 2.7-.3-.2v.4zm-3-1 .2.5.4-.5zm0-1 .6.7.2-1.2zm-3.3 1.9-.3.2.4.1zm2.9-1.7-.4-.3-.1.8z"/><path d="m239.1 48.1-.3-.6-.6.8zm-2.2 2.6.3.4.2-.4zm1.3 1.7-.4.4.4.1zm-3.3-3.7-.6.7.9.3z"/><path d="m235.4 48.1-.9.3.8.7zm1.3 4.1-.4-.2v.5zm-1.1-2.3h.4l-.2-.5zm2.6 1.1h.3l-.1-.4zm-4.7-2 .6.6.2-1zm-1 .4.7.6.2-1zm-1.1.5.8.6v-1zm-1.2.5.9.7.2-1.2zm7.5 1.1v.4l.3-.2zm1.1-.4.4.1v-.5zm-3.2-.2v.3l.4-.2Zm5.2.9-.4.1.2.4zm-1.4 1.4-.5.1.3.4zm4.1-4.4-.2.5.6-.2zm2.8 0-.9-.4-.1 1.1zm-1-.4-1-.4v1.4z"/><path d="m244.7 51.4-.4-.8-.6.7zm6.5 5.3-.2-.2-.2.4zm-7-6.3-.2-.3-.3.3zm3.1-1 .1 1 .9-.4zm-2.2 3v.5l.5-.3zm1.1-3.6.1 1 .9-.5zm1.1 4.2.1.5.4-.3zm.5 1.5v.5l.5-.3zm2.3-2.9-.4.1.3.3zm-1.4.1-.2-.3-.2.4zm.8 1.5-.3-.4-.2.5zm3.5 3.3.8-.4-.8-.6zm-.4.9-.3.4h.6zm3-.3-.4.6h.8zm-2.8 1.9.3.5.3-.5zm.8-3.2.5.3.1-.6zm.6 1.3.6.2v-.7zm1.1 2.1-.4-.3-.1.5zm-2.5-2.5-.3-.3-.1.5zm-8.2-3.2v.5l.4-.3zm2-1.4-.4.2.3.3zm-.6 3.7-.2-.4-.2.3zm-12.8-2.1-.3-.2.1.4zm2.5 2-.3-.1.2.4zm-3.6 1.3h-.3l.2.3zm5-1.5v-.3l-.4.2zm-7.9 2.5v-.3l-.3.1zm4.9-2.9-.1-.4-.3.2zm1.5-2.3.2.6.3-.4zm1.8 2.1-.3-.3-.2.3zm12.8-2.2-.2-.4-.2.5zm-3.2-1.4-.7-.3v1z"/><path d="m247.6 50.8-.5-.1.1.5zm-4.7.7.1-.5-.4.1zm.2-1.9-.9.7 1 .6zm-.4-.3-.2.2.3.2zm.9 2.2-.2.3h.4zm1.1-1.7-.3-.4-.2.5zm.5-.8-.4-.5-.3.7zm-.9-.4-.4-.5-.3.7zm3 1.3-.4-.5-.3.6zm1.1.6-.4-.5-.3.7zm-3 .3.1-.4-.5.2zm-.8 1.3.1-.4-.5.1z"/><path d="m245 50.7.2.6.5-.5zm3.1 2.1.4.4.2-.7zm-7.1-3.2.4.3.2-.6zm2.6.7.1.4.4-.3zm3.6 1.1-.4.2.4.2zm-1.3.5-.3-.3-.1.5zm1 1.3-.2-.4-.1.5zm-3.3-.5-.4.1.4.3zm3.9-.3-.2-.2-.1.4zm3.6 3.9-.2.5h.6zm-1.4-1.5.1.6.5-.3zm1.8 0 .1.4.4-.4zm-.2-.1h-.4l.3.3zm-.7-.3-.2-.3-.3.4zm.8.8-.3-.2v.5zm.1-1.1-.3-.2v.5zm-8.5-1.8-.1-.4-.4.4zm-23.1 2.4.8.7.4-1.2zm.2 5.9-.4-.2.1.6zm-.7.7-.2-.5-.4.4zm3.3-6.3v.9l1.1-.5zm9.1-4.4.4.4.3-.7zm3.4-.7v.6l.5-.3zM216.9 56l-.9 1.4 1.4.3zm-1.3 1.8-.3.7.7-.2zm2.3 1-.1.5h.6zm-1.3-.4-.2.5.7-.1zm10-6.4-.7.3.9.8zm-2.1 3.6-.2-.4-.4.4zm2.2-1-.4-.6-.5.8zm2.6-1.8.5-.1-.3-.5zm-.2 1.6v.5l.5-.3z"/><path d="m219.2 58.3-.3.3.4.2zm-2.3-1.1v.5h.5zm-.1 2.7-.1.3h.5zm23.8-7.4v.5l.5-.2zm-7.2 0-.1.4.4-.1zm-1.4.5-.4-.1.2.5zm.6-1.1.1.3.3-.3zm2.3.7-.4.2.5.3zm.7-1.3.2.5.3-.5zm-2.1-.4.5-.2-.5-.3zm-2.5.5.5-.2-.5-.3zm1.5-1.8-.2.5h.5zM217.6 59l.3.1v-.4zm.8-1.5-.1.3h.4zm2.9 3.3h-.3l.1.4zm-1.4-1.5-.1.3h.4zm5.9 3.2-.2.2.2.2zm-8.4-.6-.2-.2-.2.4zm13.3-6.4.5.2-.1-.7zm-6-2.7.9.9.2-1.4zm-5.9 3.2.1.5.5-.4zm11.4-5.4.2.4.4-.3zm3.9.7-.4.3.6.3zm.6-1.6-.6.4.8.5zm-1.6.3-.7.5 1 .5zm-3.6 2.2-.2-1.3-1.2.5z"/><path d="m231 51 .5-.4h-.7zm-.9-.3-.8.2.9.8zm-3.6 8.1v.7l.7-.3zm5.1-8.9-.1.4h.5zM217 59.1l-.1.4.5-.1zm2-3.2-.3-.2v.5zm-3.4 4.1h-.4l.2.5zm.7-.3v-.4l-.4.3zm.9-3.6.4.3v-.5zm2.7.1.4.4.2-.5zm-.3-1.4-.9.4.9.8zm-1.8 2.1-.2.7.7-.1zm2.5.1-.8-.4v1zm-2.7-1.1.7.4.1-.8zm-2.8 3.1-.4.9h1.1zm3.1-.9h-.7l.4.7zm-2.4 1.1.4.2v-.5zm1.9.7-.1.5.5-.2zm-1.3.6-.5.1.2.4zm10.1-5.6-.4.5.7.1z"/><path d="m224.8 53.8-.5.3.6.4zm1.4-.7-.4.4.5.1zm-1.9 2.2-.3.3.4.3zm1.5-.3.3.3.1-.5zm-7.5 1.5v.8l.8-.3zm2.7-.3v.4l.4-.1zm7.2-4.2.4.1.1-.5zm-1 1 .3.1.2-.3zm-5.5 2.5.1.3.3-.2zm3.2-.7-.4.4.6.2zm-.8 0 .2-.7-.8.1zm1.8-.6h-.4v.4zm-1.2 1.6-.2.2.4.1zm-1.6-.9-.6-.6-.4 1zm-7.3 6.2.4-.2-.3-.3zm-2 1.9.3-.3-.3-.2zm.7-1.4.3-.1-.4-.3zm-.8 2 .3.3.1-.3zm.8-.9.4-.2-.3-.3zm-.4-2.3.5.6.4-.7zm-.4.7-.4.9 1.2-.1zm.1 2-.2.2.4.1zm7-7.6.1.4.4-.3zm1.2-1.7-.9.5.9.7z"/><path d="m221.7 55-.3.1.3.4zm2 2.5-.6-.4-.2.8zm8.7-5.9-.3.2.4.2zm-.9.4.4-.2-.4-.4zm-3.5 3.3.8.6.2-1.2zm2.2-2.2.6.3v-.8zm-3.2.7 1.1.1-.5-1.2zm-3.6 2.8.6.1-.2-.7zm6.4-4.3h.6l-.3-.7zm4.6-.8 1.1-.1-.7-1.1zm-2.5.1 1.2-.2-.7-1.1zm-3.8 1.3 1 .5v-1.3zm3.8 1.5-.5.1.4.4zm-.8-3-.9.1.7.8zm3-2-.9.2.7.7zm-4.1 4.5-.4-.1.2.4zm-7.8 2.7-.2-.3-.2.5zm1.5-3.4 1.1.9-.2-1.3zm2.1 3.3.8.5.1-1zm-3.6-2.7 1.2.9-.1-1.4zm5.2 1.8.3.2.1-.5zm-9.8 3.2.1.5.4-.3zm9.1-6.9.8.7-.1-1zm.2 1.8-.3-.1.1.4zm1.8.1h-.4l.2.4zm-4.9 5.5.3.5.3-.5zm.5-1.3-.2.3.4.1zm-1.6-1.2-.1-.5-.4.3z"/><path d="m221.8 59.1-.3.4h.5zm.6-2.7h-.6l.3.6z"/><path d="m222.1 56.2.1.3.3-.2zm-.8.3-.7.1.5.7zm-.9 1.3.1.5.4-.3zm2.6.3.3.4.3-.4zm-3 .8.2.5.4-.3zm1.9-1.9-.4.2.4.4zm5.4 3.6-.3-.2-.1.4zm1.2-8.3-.5.1.3.4zm-6.8 6.7-.2-.3-.2.4zm3.1-25.7.1 1.1 1-.7zm4.2 8.9-.3-.4-.3.5zm-.7-.7-.3-.3-.2.5zm3.1 2.4.4-.4-.5-.2zm-3.9-9.1-.6.6.9.3zm2.3 5.7-.5.4.5.3zm3 .7-.8.7 1 .5z"/><path d="m232.6 40.3-.8.6 1 .5zm-9.3-7.1-.8-.1.3 1zm-.9-.1h-1l.4 1zm-1.4 1.8-1.1.6.9.9zm-1-1.5-.9.3.6.8zm11.1 3.7-.6-.5-.4.9zm-3.1-.2.2-1-.9.1zm1.3.9.3-.8h-1zm.8.6-.2 1.1 1.2-.5zm1.2-1-.7 1.2 1.5.2zm-2 1.8-.5.2.4.4zm-6.3-2.4-.4.3.5.3zm-1.4-1-.3.4.5.2zm.3-.8-.4.3.4.2zm-1.7 1.1-.4.4.5.2zm-.5-.5-.4.3.6.2z"/><path d="m219 35.6-.3.3.5.2zm12 8.3-.4.3.4.3zm1 .4-.5.2.4.4zm-1.9-1.4v.4l.5-.3zm.4-1.9.1.5.4-.4zm1.5.5-.3-.5-.2.5zm-10.9-3.8.2.2.2-.5zm1.3-1.8-.2.2.4.1zm1.3 3.8-.3-.2.1.5zm-.2-1.8v.3h.4zM226 42l-.3-.1.1.4zm1.4.1v-.4l-.4.2zm1-1.4-.1.5.5-.1zm1.4-4.9-.3 1 1.1-.2zm-7-1.6v.6l.6-.2zm9.6 5.2-.4-.6-.5.7z"/><path d="m232.6 40.2-.2-.6-.7.5zm.2 3.5.1-.7-1 .3zm-3.3-.2-.1-.5-.4.4zm1.7-4.6.2.6.6-.5z"/><path d="m230.7 39.9.1.6.5-.4zm.7-.5v.6l.5-.4zm-3.5 0-.3.5.5.1zm4.4 1.1-.4-.4-.2.6zm-12.8-5.6-.3.4.6.2zm-.1-.7-.3.4.5.1zm-1.1.8.6.4.1-.9zm-.4-.1-.5.4.8.3zm5.6-1.2-.3-.2-.1.4zm-5.3 1.2-.1-.9-.9.5z"/><path d="M219 34.5v-.9l-.9.5zm2.7-1.1.4 1 .7-.8zm.2 1.1.3.7.6-.6zm1.9.5.2.4.4-.4z"/><path d="m224.4 33.6-1.2.6 1.1 1zm-3.1-.4-.8.2.5.8zm3.3.1-1.2-.2.4.7zm-.7 2.7-.3-.3-.1.5zm-2.8-.7.3.4.2-.6zm-.2-1 .7.5v-1.1zm-2.9 2.3-.3.3.4.1zm2.6-2.1-.5-.2.1.8z"/><path d="m220.8 34.1-.4-.6-.5 1zM219 37l.4.3.2-.4zm1.5 1.5-.2.4h.4zm-3.7-3.2-.5.9.9.1z"/><path d="m217.1 34.5-.8.5.8.6zm1.9 4-.3-.1v.5zm-1.4-2.1.4-.1-.2-.4zm2.7.7.3-.1-.1-.4zm-5-1.4.8.4v-1zm-.8.6.9.4-.2-1zm-.8.9 1.1.2-.5-.9zm-.8.9 1 .3-.3-1.1zm7-.4.1.4.3-.3zm1-.6.5.1-.1-.6zm-3.1.3v.3l.4-.2zm4.6.1-.3.1.2.4zm-.5 1.6-.4.2.3.3zm3.2-4.6-.1.5.5-.2zm2.9 0-1-.4v1.1zm-1-.5-1-.3V35Zm-.6 3.1-.4-.8-.7.7zm3.5 5.1-.1-.3-.4.3zm-4.1-6.1-.2-.3-.2.3zm3-1.1v1.1l.9-.4z"/><path d="m226.7 38.1.1.5.5-.3zm1.2-3.6v1l.9-.5zm.7 4.2v.5l.5-.3zm-.1.9-.1.5.5-.2zm2.6-2h-.5l.3.4zm-1-.2-.2-.3-.3.4zm-.3 1.2-.1-.4-.3.4zm1.4 4.1 1 .2-.4-1zm-.4.7-.5.3.5.3zm1.9 1-.8.2.6.5zm-2.4.5-.1.7.6-.4zm1.9-2.4.2.5.4-.4zm-.3 1.4.3.5.5-.5zm-.4 1.3-.1-.4-.5.3zm-.2-2.2-.2-.4-.3.4zm-5.1-3.8.1.5.4-.3zm2.1-1.4-.4.2.2.2zm-.6 3.6-.2-.3-.2.3zm-11.9-.9-.3-.1.2.4zm2.9 1.6h-.3l.2.3zm-4.4 5.5h-.3l.2.3zm1-3.6h-.3l.2.3zm4.7-2.2-.1-.3-.3.2zm-5 3.7-.1-.3-.3.2zm2-3.8-.1-.3-.3.3zm1.1-2.4.2.5.3-.4zm2 1.8-.3-.3-.1.4zm10.6-2.7-.1-.4-.3.3zm-2-1.5-.8-.3.1 1.1z"/><path d="m229 36.5-.5-.2v.6zm-4.4.7.1-.5-.5.1zm.2-1.9-1 .7 1 .6zm-.4-.3-.3.2.4.2zm.9 2.1-.2.4h.3zm1-1.7-.2-.3-.2.5zm.6-.7-.4-.5-.3.7zm-.9-.4-.4-.5-.3.7zm3 1.2-.5-.5-.3.7zm.8.7-.4-.5-.3.7zm-2.7.3v-.4l-.5.1zm-.8 1.3v-.4l-.4.1z"/><path d="m226.7 36.4.1.6.6-.5zm2.5 1.6.3.5.3-.7zm-6.5-2.8.4.4.2-.6zm2.5.7.2.5.3-.3zm3.7 1.2-.4.2.3.2zm-1.3.5-.3-.3-.2.5zm1 1.3-.2-.4-.2.5zm-3.3-.5-.4.1.4.3zm3.9-.3-.2-.3-.2.5zm.8 3.7-.4.3.5.3zm-.5-1.9-.2.5.5-.1zm1.5.6-.1.4.5-.2zm0-.1-.5-.1.2.4zm-.6-.6v-.3l-.5.3zm.4 1.2-.2-.4-.2.5zm.6-1-.2-.3-.3.4zm-6.7-2-.2-.4-.4.4zm-12.2 10.1.7-.8-1.1-.5zm5.4-11.5.8.6.4-1zm-3.5 1 .5.2v-.7zm2.8-1.1.1.6.5-.4zm-5.8 4.6-.2.7 1.2-.1zm1.1 4-.4-.1.1.5zm.9-2.3-.8-.1.3.9zm-.4-2.1.4-.3-.5-.4zm.4 1.5.3.5.3-.5zm8.9-4-.1.5.5-.3zm-6.4 1.1-.1.4.4-.1zm-.4.4-.4.2.4.3zm-.6-.9.3.4.1-.4zm2.4.4-.3.3.5.1zm.6-1.4.3.5.2-.6z"/><path d="m215.7 37.7.5-.2-.6-.3zm-1.7 1 .3-.3-.5-.1zm.5-2.1-.1.5h.5zm.9 6h.5l-.4-.6Zm-4.2.4 1.2-.4-1.2-.8zm1.7-4.7.4.3.2-.4zm3.5-.3-.4.4.7.2zm.3-1.6-.5.5.8.3zm-1.5.5-.6.6 1 .4zm-2 3-.9-.9-.6 1.1zm.6-1.6.3-.5-.6.3zm-.9 0-.6.6 1.2.2zm-.1 8.5.2.5.6-.5zm1.2-9.7v.4l.5-.2zm-.8 6.3.1.6.6-.4zm-1.1 0 .1.5.6-.4z"/><path d="M212 42.1v.6l.4-.3zm1.1 2.4v.5l.5-.2zm-.1-.7.4-.1-.3-.4zm-.8-3.3.4-.2-.3-.4zm.4.8.3-.1-.2-.4zm-.3 5.6h.3l-.1-.4zm0-2.7-.1.6.6-.3z"/><path d="m212.7 44.5-.5-.5-.3.7zm-.1-1.4-.4.3.3.2zm1 2.4v.3l.4-.2zm-.1 2.6-.6.5.9.4zm3-3.6h.4l-.3-.5Zm-4.9 1.2.3 1 .8-.7zm1.1-.5.1.4.4-.3zm2.1.4-.7.2.4.6zm-.1-7-.3.3h.5z"/><path d="m214.7 39 .3-.3-.6-.1zm-1.2 4.2 1 .2-.4-1.2zm.4-2.6h.7l-.3-.7zm-.9 1.5.8-.8-1.2-.4zm0 4.4.5-.3-.6-.4zm.2-6.5.6-.2-.5-.5zm3.5-1.8 1.1-.3-.9-.9zm-2.4.4 1.1-.3-.9-.9z"/><path d="m213.1 40.6 1.1-.4-1-.9zm1.6.9-.5.1.4.4zm-.6-2.8-.8.5 1 .4zm2-2.5-.9.3.8.6zm-2 5.2-.4.1.4.3zm7.1-1.6h-.4l.2.4zm-10 4.2 1.2-.6-1.3-.3zm2.7.8.9-.2-.6-.8zm-2.3.7 1-1h-1.4zm3-2h.4l-.2-.5Zm-3.1-2.6h.9l-.7-.7zm1.4 1.1-.4.2.4.2zm2.3-1-.4.3.4.2zm3.9-1.2v.4l.4-.1zm-1.9 3.2-.4-.3-.1.5zm-.2-4.7-.4.5.7.2z"/><path d="m215.9 38.7-.4.4.6.2zm-2.1 8.2.3.2v-.4zm1.2 0 .5.1-.1-.5zm2.3-6.5v.4h.5zm-4.4-.5-.2.5h.5z"/></g><g fill="#af2500"><path d="m251.1 61.7-.5-1-.7.8zm-11.6-4.4v.6l.6-.3zm3.5.6.5.2-.1-.6zm-2.8-1.1-.1.6.7-.2zm7.3 3.4.3-.6-.7-.1zm6.3 1.6h1.7l-.6-1.3z"/><path d="M252.8 61.8h1.1l-.7-.9zm2.2-2.3.5-.5-.7-.2z"/><path d="M251.9 61.8h1l-.4-1.1zm-9.1-1.8.7.2-.2-.7zm3.7-1.1v.6l.5-.2zm-1.8 0 .1.6.6-.3zm-2.6-.6-.5-.4-.3.6zm.2.8.4-.4-.7-.2zm-4.3-1.9.3-.4-.6-.2zm19.7 3.2.3-.3-.6-.3zm-4.8.2.4-.5-.7-.1zm-11.8-2.2-.4-.3-.2.6zm17.6 2.7-.3-.3-.1.4zm-6.5-1.6.1-.4h-.4zm-4.9-2.9h.3l-.2-.3zm-8 1.6.1-.4-.5.1zm4.7-3.1h.3l-.2-.4zm.8 1.2h.3l-.2-.4z"/><path d="m239 56 .2.3.2-.3zm4.1 0 .1.3.3-.3zm-1.5 1.8-.3-.7-.5.6zm3.1 2.7-.2-1.1-1.1.8zm6.6-.1-.2-.6-.6.5zM240 58.8l.5-.5-.7-.4zm.8.6-.1-.9-.8.5zm2.4-.8.2-.5h-.6zm12.6.8.4-.5-.6-.1zm-3.1 0 .5.2-.1-.5zm-.6 1.2.5.2-.1-.5zm2.2-1.3.4.3v-.5z"/><path d="M253.2 59.4v.5l.5-.2zm1.5-.6-.2-.6-.4.6zm-4.1 1.7-.3-.5-.3.6zm1-.5.3-.3-.5-.2zm-.5 1.7h.8l-.3-.9zm3-1.9.3-.4-.5-.1zm-4-2.1.4.2v-.5zm2 2.2.4.2v-.5zm3.8-.2-.4-.4-.4.6zm-1.6.6.3-.3-.6-.2zm1.8-.6.5.3v-.5zm-2.2.7-.4-.5-.2.6zm.6.8-.7-.6-.3.9zm-1.1-.2-.5-.5-.2.7zm3.2-1.9.2-.4-.5-.1zm-14.6-.9.5.2v-.6zm3.2.5.7-.1-.4-.6zm.1 1.7.6-.2-.3-.6zm-.6.1.5.2v-.6zm1.8-1.2h.6l-.4-.6zm-.9-.1-.1-.5-.4.4zm11 2.5-.5-.8-.6.9zm-6.8-.1-.3-1.3-1.2 1zm.4-2.7v-.4l-.4.2z"/><path d="m241.3 59.5-.1-.4-.4.3zm1.5.5-.2-.4-.3.2zm6.7 0-.1-.5-.5.3zm-1 .6-.4-.7-.5.9zm-2.9-1.1.5-.1-.3-.5zm.1.9.5-.1-.4-.5zm1-.5-.4.4.4.1z"/><path d="m246.3 60.2-.5.6.6.1zm-1.4-.7.2.5.4-.5zm1.4-.8.5-.2-.3-.5zm1.3 1 .3.4.3-.4zm7.4.5-.7.1.3.7zm2.4 0-.7.1.5.7zm.6.1-.3.4.5.1zm-.3 1.3.6-.2-.6-.6zm-.1-2h-.6l.3.5zm-1.6 1.1-.2-.6-.3.3zm-.1.7-.5-.8-.4.6zm.3 0 .9-.4-.8-.7z"/><path d="m256.8 61.7.7-.1-.5-.6Zm-6.3-1.8-.2-.6-.5.4zm1.5 1.3-.2-.7-.6.4zm-3.9-.1-.2-.6-.5.4zm.3-.6.6-.3-.7-.4zm1.2 0 .4-.3-.4-.2zm-1.4.8.8-.4-.7-.4zm1.7-.1.4-.3-.5-.2zm-2.2-3.5.3.3.1-.5zm-7.6.1.4.2.1-.5zm.1.3-.5-.4-.1.6zm3.7.7-.2-.7-.6.6z"/><path d="m243.3 59.3-.3-.6-.5.6zm.3-.9.5.3.1-.6zm-1.5-.7.4.2.1-.4zm8.4 2.9.5.5.2-.9zm-14.8 6.8-1 .4.6.6zm.2-.7.3-1-1.1.2z"/><path d="m234.8 66.2.2-.4h-.5zm.9 1.2.2-.7-1 .1z"/><path d="m235.2 68.6-1.3-.2.8 1zm.2-2.2-.8.1.4.7z"/><path d="m235 68.5-.2-.4-.3.4zm-.5-.7.6-.4-.9-.3zm11.4-7-.2-.6-.5.5zm1.1-3.7-.1-.5-.5.4zm.7 4.1-.4-1.1-.9.8zm-3.1-2-.2-.6-.4.5z"/><path d="m245 58.8-.2-.5-.5.4zm-3.6.8.8.2V59Zm2.1-.3.3.4.2-.5zm-7.2 4.5.1-.7-.7.3zm.2-2-1 .4.9.9zm-.1 2.5-.3.2.2.3zm-.9-.6-.5.2.5.6zm-.3-1.6-.5.3.5.3zm1 3.6.2-.8-.8.1zm-.6-2.6.3-.4h-.5zm.9-2.8v-.6l-.5.3Z"/><path d="m236.5 60.3-.3.3.3.2zm-.8-.3-.5.5.7.3zm.8-.9-.4.3.4.2zm0 2.7V61l-.7.2zm-1-2 .3-.4h-.6zm5.8-.9.5.3.1-.5zm-4.1-1.1v-1l-.9.5zm4.1-1.1-.2-.6-.4.4zm-.8-1 .3-.1-.3-.3zm-.6.7.2-.1-.2-.3zm-.9.4-.3-.5-.3.5zm6.4 1 .3-.2-.4-.3zm2.8 1-.1.6.6-.2zm-1.9 1.3.2-.5-.7-.1z"/><path d="m248.2 58.8.7-.2-.5-.6zm.8.3-.1-.4-.4.4zm1.1-.2.4-.2-.3-.4zm1.6.3-.1-.6-.5.4zm-3.7-1.9-.2-.5-.5.5zm-5.2.2-.2-.4-.5.4zm1.6 0-.2-.5-.5.4zm7 2.3-.2-.5-.5.4zm-2.2-1.7.4-.2-.5-.3zm-1.9.8.3.3.3-.5zm-6.5-.2.3.2.2-.5zm-2-.9.4-.3-.7-.3zm-1.1.2.1-.5-.6.3zm1.4.7-.1-.4-.4.2zm.8.3-.2-.7-.6.5zm-2.1-.9.7.4.2-.8zm0-.7.4.4.2-.4zm-.4-.3.2.3.3-.4zm11-.1.3.4.2-.6zm-16.6 12.9.1-.7.6.3zm-.8.1.1-.7.7.3zm1.3.7.1-.7.6.4zm-1.1.5.4-.6.7.7zM230 71l.7-.7.3.9zm6.3-13.7-.4-.2.5-.4zm-2.5 8-.5-.3.4-.5zm.5 2.9-.8-.4.7-.8zm.8-1.9-.7.6-.4-1zm.8-9.3-.4-.2.4-.3zm.5 2.1-.4-.2.4-.3zm-10.7 10.4-.7-.1.5-.6zm-.9-.2h-.7l.4-.6z"/><path d="m236.3 63.9-.5.3-.1-.6zm-5.6 3.2.4.4-.5.2zm3.5-3.7.5.4-.6.2zm.4-1.2-.2-.6.8.1zm-1.7-.3h-.5l.2-.5zm-6.1 8-.8-.3.8-.8zm9.8-13.3.5-.4.2.6zm3.1-1.4.3.1v-.4zm2.1.8.3.2v-.4zm-5.4 2.4v.2l-.3-.1zm-11.3 7.2-.3.3-.1-.4zm-.3 2.5-.3-.3.4-.2zm-.6 1.2-.6-.3.5-.5zm-1.1-.4-.6-.3.5-.5zm4.7.7-.3-.3.4-.2zm-2-6.9-.3.2v-.4zm10.2-6.5-.3.1V56Zm-.8-.8.2.3h-.4Z"/><path d="m236.3 56-.3.2v-.4zm-1.9-.5.2.3h-.4zm1 3.6v-.4l.4.2zm-1.4 5.5-.4-.4.7-.2zm1.5-.9-.5-.4.7-.3zm-.7 1.1-.4-.4.7-.2zm1.2-3.4-.6.1.2-.7zm1.7-5.5-.4.4-.1-.6z"/><path d="m235.4 62.1.1-.8.6.4z"/><path d="m235.2 62 .1-.6.6.4zm-2.1 5.2-.5-.3.5-.5zm-4.2 2.5-.1-.6.9.3zm-.3-.2-.7-.4.7-.5zm-.8.9-.7-.4.7-.5z"/><path d="m228 70.7-.3-.3 1-.5zm1.6-.5-.8-.1.8-.8z"/><path d="m229.3 70.1.1.8-1.2-.2zm-8.5-.1-.4-.1.3-.4zm12.6-4.6-.5.3-.1-.7zm1.1.5-.8.4v-.9zm-.6.9-.5.2v-.6zm-6.3 2.7-.5.4-.1-.6zm.8.2-.5.4-.1-.6zm2.4.3-.9.8.1-1.1zm1.6-5.7-.2-.3h.5zm-2.2-1.3-.2-.4h.5zm.1 5.1-.2-.4.4-.1zm4.2-6.9-.2-.3.3-.1zm.8 1.8-.3-.4.5-.1zm-3.1 3.4-.2-.4.5-.1zm.2 5-.6-.9 1.4.5zm-.2-2.2.9-.1-.4.8z"/><path d="m231.5 70 .8-.1-.4.8zm1.7-5.8v.4h-.5zm-.3.7.1.4-.4-.2zm-2.5 4.7-.2-.5.6-.1zm2.8 1.4-.4-1.2 1.1.5zm.1-4.8h-.4l.2-.5zm0 2.1h-.4l.2-.5zm-.3.6h-.4l.2-.5zm.5-1.1-.4-.1.1-.5zm-4.7-.8v.5l-.5-.3zm7.6-10.4-.4.3-.1-.5zm-1.4-.1.4-.3v.5zm-.1 4.6-.3-.6h.8zm-.2 2.4-.4-.6.8-.1zm.5-7.4-.3.4-.4-.5zm-1.8 4.7v.5l-.4-.2Z"/><path d="m230.9 66.8-.2-.5h.6zm.9 1.5-.2-.5h.6zm-3-2.2-.3-.5h.6zm3.8 2.1-.2-.6.7.1zm-1.1.7-.3-.5.7.1zm-.4 2-.2-.5h.7zm2.1-1-.2-.6.7.1zm1.4-9.7-.3-.4.6-.1zm.8 1.3-.4.1.1-.5zm-.2 1.5v.5l-.5-.3zm-1.6-.6.1.5-.5-.3zm-6 3-.2-.6h.6zm6.3 5-.2-1.2 1 .2z"/><path d="m234 69.3-.8-.8.9-.5zm1.5-3.6-.8-.7.9-.6zm-4.9-.1-.4.1.1-.5zm-3.8 1.4-.6-.3.5-.4zm3 1.9h-.6v-.6Zm-1.5-1.9-.3-.5h.6zm-3.1 1.3-.2-.5h.6zm0 .7-.2-.5h.6z"/><path d="m223.8 68.7-.2-.5h.6zm.9.6.1-.6.5.3zm1.2.1-.2-.5h.6zm-3.2.2-.7.3.1-.8z"/><path d="m221.8 70-.6.3v-.8zm2.1-.7-1 .2.3-1zm-2.2.6-.2-.5h.6zm1.1-.5-.5-.3.5-.3zm-1.7 1-.6.4-.1-.7zm-.7.6-.5.5-.2-.8zm.3-2.2v.5l-.3-.2zm-1.3 1.4h-.4l.1-.5z"/><path d="m219.9 71.3-.6.3-.1-.7zm-1 .6-.6.3-.1-.7zm-.8 2.5-.3.2-.1-.5zm1.8-4.4-.5-.2.4-.4zm.5.4-.5-.2.4-.4zm-1.2.9-.5-.2.4-.4zm1-.3-.3-.4.6-.2zm.9-.8-.5-.2.4-.4zm-2 2.5-.2.7-.5-.6zm-.9.7-.2.7-.5-.6z"/><path d="m218.8 73.6-.2.7-.5-.6zm.9-1.9-.5.8-.6-1zm-1 1.9-.5-.1.4-.5zm3.1-4.1-.5-.1.3-.5zm-2.8 3-.5.1.1-.6zm-.9 3.1-.4.3-.1-.5zm.5 0v.7l-.7-.4zm0-1.2-.1 1-.9-.7zm0 2.1.1.7-.7-.3zm-1.2.3-.2.3-.3-.3z"/><path d="m218.6 77.1-.1.6-.6-.3zm-.1 1.1-.1.7-.7-.4zm1.6 2.1v.4l-.5-.2zm-2.6-4-.4.3-.1-.5zm.7-.2-.5.3-.1-.5zm0 1.5-.4.3-.1-.6zm.3-1h-.5l.2-.5zm-.1-1.2-.4.3-.1-.6zm.9 3.1.4.6h-.8zm.5.8.5.5-.8.2z"/><path d="m218.8 77.4.4.9-1.1-.1zm1 2-.4.3-.2-.6zm-.7-.9-.2.5-.4-.5zm1.3 1.5.5.4-.7.3z"/><path d="m220.8 80.4.3.6-.7.1zm.6 1 .3.6-.7.1zm2.4.3.6.7-1 .2zm-3-.6-.2.5-.4-.4z"/><path d="m222.2 81.2.7.2-.6.5zm.9.3.7.1-.5.6zm.9.1h.8l-.3 1zm-.3 1 .8.1-.3 1z"/><path d="M223.4 83.7h.8l-.3 1zm0 1.6.5-.4-.3 1-1-.4zm-2.3-4.7.8.4-.9.7zm2.1 1-.2.5-.4-.4zm-1.2-.4.1.6-.6-.1zm5.1-11.9-.5-.2.5-.4zm3.1-2.7-.4.1.1-.5zm-8.3 2.4-.2-.6h.7zm-1.6-1.8-.1.5-.4-.3zm2.5 0-.1.6-.5-.4zm2.5-1.5-.2-.5h.5zm-3.7 3-.6-.1.4-.6z"/><path d="m221.6 67.2.1-.3.4.4zm2.1.2.1-.5.4.4zm-1.5.4-.2.3-.3-.4zm-.7.2-.2.4-.2-.5zm-1.9 1.2.3-.6.5.6zm7.6-1.5.3-.4.3.5zm-1.9-1.2-.4.3-.1-.6zm-2 1.7-.3-.3.4-.2zm-2.8-1.5-.3-.3.5-.2zm-3.3 5.6-.5-.1.3-.4zm1.3-1.8-.5-.1.3-.4zm-1.5 4.3-.6-.1.4-.5zm0-1.2.4.2-.4.3zm-.3 2 .4.2-.3.4zm1-3.1.3-.2.2.4zm10.2-10.2v.4l-.5-.2zm5.9-1.6v.5l-.4-.2Zm-7 6.4-.1.4-.4-.2zM222 81.9l-.3.3-.1-.4zm-.3 2.5-.3-.3.4-.2zm1-.3-.5-.6.7-.3zm.7-1.1-.4-.4.5-.3z"/><path d="m223.8 83.3-.6-.3.5-.4zm-.2 2.1-1-.5.8-.7zm-1.1-2.9-.2-.5.6-.1zm-1.9 1.1.2-.4.4.3z"/><path d="m222.2 82.8-.4.3v-.6zm1-.2-.1.7-.6-.6zm-.3 2.4-.4.3v-.6zm.1-.4-.8-.5 1-.5z"/><path d="m223.8 83.4-.1.4-.4-.2zm0 1-.1.4-.4-.2zm-1.3.5-.1.4-.4-.2zm5.5-16.5-.1.4-.4-.2zm-1.6-.6.4.2-.2.3zm-.1.8.4.1-.3.4z"/></g><path fill="#e79a7a" d="M248.6 438.1c-5.8 0-1.7-10.3-1.5-14.9-.8-5.5-1.6-21-1.6-21l23.9-1.9s.7 18.2 1.9 19.2c2.4 2.1 8.7 5.5 23.1 10 6.7 1.9 10.8 2.6 10.5 5.5-.3 2.9-1.4 2.8-1.4 2.8z"/><path fill="#0a5f66" d="M245.5 446.2c0 1.4 1.2 2.6 2.6 2.6h56.3c1.4 0 2.6-1.2 2.6-2.6v-2.9l-61.6.1z"/><path fill="azure" d="M304.5 437.8h-56.3a2.6 2.6 0 0 0-2.6 2.6v2.9l61.6-.1v-2.9c-.2-1.4-1.4-2.6-2.7-2.5z"/><linearGradient id="e" x1="259.9" x2="256.3" y1="422.1" y2="402.1" gradientUnits="userSpaceOnUse"><stop offset="0" stop-color="#cc7a5e" stop-opacity="0"/><stop offset=".9" stop-color="#aa5f4b"/></linearGradient><path fill="url(#e)" d="M258.4 425.5c10.8-.7 12.8-5.8 12.8-5.8s-.7-1.9-.9-3.5a801 801 0 0 1-1.3-17.6l-23.8 1.9 1.7 23.4c0 .1 2.6 2.2 11.5 1.6z"/><g fill="#ad5c49"><path d="m266.1 413.7.9-.8-1.5-.3zm5.5 7.2 1-.3-1.3-1zm-14.8 1.7h.7l-.4-.8zm.7-9.1.2.6.6-.4zm7.2 4.6-.7.2.7.4zm7.7 5-.6.3.6.4zm-8.2-1.9.2.7.5-.6zm-4.2-.4.2.7.5-.7zm16.2 3.3-.7.2.7.5zm-8.1-2.6-.7.3.7.4zm-4.4-.8.8-.9-1.4-.3zm-5.8-2.3.9.4.1-1.2zm9.8-.3-1.3-.8-.1 1.6zm-5.5 2.8.5-.9-1.4.1zm-6.9-6.6 1.4.1-.6-1.2zm12.1.9 1.1.1-.4-1.3z"/><path d="M272.8 420.6v1.1l1.4-.1zm-19.7-4.5 1.1.1-.4-1.1zm13.2-3.9 1.1 1.9 1.6-1.9zm-9.3.1 1.9 2.4 1.8-2.5zm4.7 2 1.1-1.4-1.8-.6zm6.8-1.4.7.4.1-.9zm-12.6 3.7h1l-.4-.9zm-8-3.4 1.1.1-.6-1zm7.1 1.7.2.7.7-.5zm10.5-2.8-2.8.1 1.7 2.8zm.5 3.6.6.6.4-.9zm-15.1-2.3.8 1.8 1.7-1.7zm12.6.9-1.8 1.2 2.1 1.1zm-1.1 2.7-.6-.6-.3.9zm-7.8 1.1-.5-.6-.3.9zm14.1 2 .5-.6-.8-.2zm2.2 2.7.5-.7-.8-.1zm3.7-.1.5-.6-.8-.2zm-13.9-3.6 1.1.5v-1.3zm10.2 1.3-1.3-.8-.2 1.5zm-3 .5.4-1.1-1.4.1zm-9.9-3.5 1.3.2-.6-1.3zm12.4-1.7-.3-2.2-1.6 1.2zm.3 2.3-.3-2.2-1.6 1.2z"/><path d="m268.7 417.7.2-1.1-1.3.2zm-15.6-5.4 1.3 2.2 1.6-2.2zm-3.8 0 .8 1.5 1-1.5zm21.9 7.1-.5-1.4-1.2 1.2zm-13-3.6 2.5.3-.9-2.4zm7-.6.2 1.2 1.2-.7z"/></g><linearGradient id="f" x1="287.3" x2="284.7" y1="423.9" y2="439.1" gradientUnits="userSpaceOnUse"><stop offset="0" stop-color="#0a7b95"/><stop offset=".9" stop-color="#0a5657"/></linearGradient><path fill="url(#f)" d="m297.1 429.6-2.7-1a6 6 0 0 1-5.2 4.1 6.3 6.3 0 0 1-7-5.6c-.1-.9 0-2 .3-2.8l-2.7-1c-.5-.1-1.1 0-1.3.5l-6.2 13.8h25.4v-7.1c0-.3-.3-.7-.6-.9z"/><path fill="azure" d="M289.1 432.6a6 6 0 0 0 5.2-4.1l-11.8-4.4c-.3.9-.4 1.8-.3 2.8a6.2 6.2 0 0 0 6.9 5.7z"/><path fill="#cc7a5e" d="M247 423.5c-.2 0-.4-.1-.4-.3l-1.8-22.6c0-.2.1-.4.3-.4.2 0 .4.1.4.3l1.8 22.6c.1.2 0 .4-.3.4z"/><path fill="#e79a7a" d="M182.7 438.1c-5.3-.8-4.8-9.3-2.2-14.9l3.8-21.8 24-.4s-4.9 17.5-3.6 18.5c2.4 2.1 8.7 5.5 23.1 10 6.7 1.9 10.8 2.6 10.5 5.5-.3 2.9-1.4 2.8-1.4 2.8z"/><path fill="#0a5f66" d="M179 446.2c0 1.4 1.2 2.6 2.6 2.6h56.3c1.4 0 2.6-1.2 2.6-2.6v-2.9l-61.6.1z"/><path fill="azure" d="M237.9 437.8h-56.3a2.6 2.6 0 0 0-2.6 2.6v2.9l61.6-.1v-2.9c-.2-1.4-1.3-2.6-2.7-2.5z"/><linearGradient id="g" x1="196.7" x2="193.3" y1="421.7" y2="403" gradientUnits="userSpaceOnUse"><stop offset="0" stop-color="#cc7a5e" stop-opacity="0"/><stop offset=".9" stop-color="#aa5f4b"/></linearGradient><path fill="url(#g)" d="M191.9 425.5c10.8-.7 12.8-5.8 12.8-5.8s-.4-1.8-.2-3.3c.6-4.2 4.7-17.8 4.7-17.8l-24.9 2.6-3.9 22.7c0 .1 2.6 2.2 11.5 1.6z"/><g fill="#ad5c49"><path d="m200.5 413.7 1-.7-1.5-.4zm4.6 7.2 1-.3-1.3-1zm-15.2 1.4h.7l-.4-.8zm2.2-9.4.2.6.6-.4zm5.7 4.9-.7.2.7.5zm8.1 5.3-.7.3.7.4zm-8.6-2.1.2.7.5-.7zm-4.2-.5.2.7.5-.7zm16.6 3.6-.7.2.7.5zm-8.5-2.8-.7.2.7.4zm-4.4-.9.8-.9-1.4-.3zm-5.8-2.3.9.4.1-1.1zm9.8-.3-1.3-.8-.1 1.6zm-5.5 2.9.5-1-1.4.1zm-5.4-7.1 1.4.2-.6-1.2zm13.1 1.9 1.5.2-.5-1.6z"/><path d="M206.2 420.6v1.1l1.5-.1zm-18.6-5.3 1.1.2-.3-1.1zm13.2-3.1 1.1 2 1.7-1.9zm-9.1-.5 1.7 2.5 2-2.4zm4.6 2.3 1.2-1.4-1.8-.7zm6.7-1 .7.4.1-.9zm-12.6 2.9 1 .1-.4-.9zm-7.8-3.7 1 .1-.5-1z"/><path d="m189.6 414.2.1.7.8-.4zm10.4-2.1h-2.8l1.6 2.9zm.8 3.1.9 1 .7-1.4zm-15.2-2.7.7 1.8 1.7-1.6zm12.5 1.5-1.8 1.1 2 1.3zm-1.5 2.3-.6-.7-.3.9zm-8.9 1.5-.5-.5-.3.8zm14.1 2.1.5-.7-.8-.1zm2.6 2.9.5-.7-.8-.1zm3.7-.1.5-.6-.8-.2zm-14.3-3.9 1.1.6V418Zm10.6 1.6-1.3-.8-.3 1.5zm-3.4.2.3-1H200Zm-8.8-4.1 1.2.2-.5-1.3zm12.8-1.8.4-2.2-1.9.6zm-.5 2.8.3-1.6-1.4.5zm-2.7-.1.2-1-1.3.1zm-14-5.9 1.2 2.3 1.7-2.1zm-3.8-.1.7 1.4 1-1.3zm20.5 7.8v-1.4l-1.6.8zm-11.7-3.9 2.4.4-.8-2.5zm6.8-.2.2 1.3 1.2-.7z"/></g><linearGradient id="h" x1="220.8" x2="218.2" y1="423.9" y2="439.1" gradientUnits="userSpaceOnUse"><stop offset="0" stop-color="#0a7b95"/><stop offset=".9" stop-color="#0a5657"/></linearGradient><path fill="url(#h)" d="m230.6 429.6-2.7-1a6 6 0 0 1-5.2 4.1 6.3 6.3 0 0 1-7-5.6c-.1-.9 0-2 .3-2.8l-2.7-1c-.5-.1-1.1 0-1.3.5l-6.2 13.8h25.4v-7.1z"/><path fill="azure" d="M222.5 432.6a6 6 0 0 0 5.2-4.1l-11.8-4.4c-.3.9-.4 1.8-.3 2.8a6.2 6.2 0 0 0 6.9 5.7z"/><path fill="#cc7a5e" d="M180.5 423.5s-.1 0 0 0c-.3 0-.4-.2-.4-.4l3.9-22.7c0-.2.2-.3.4-.3s.3.2.3.4l-3.9 22.7c0 .1-.1.3-.3.3z"/><linearGradient id="i" x1="235.7" x2="301.8" y1="293" y2="343.7" gradientUnits="userSpaceOnUse"><stop offset="0" stop-color="#0a4552"/><stop offset="1" stop-color="#0a5f66"/></linearGradient><path fill="url(#i)" d="M277.7 310.5c-.1-14.3-3.5-80.8-5.6-102.7h-16.8l-37.4 19.6 15 90.9a3445 3445 0 0 1 8.9 91.1c-.1 1.4 1 2.6 2.4 2.7l30.6.1c1.7 0 3.3-1.4 3.4-3.2 1-13.5-.4-84.1-.5-98.5z"/><path fill="#2d7f7f" d="M254.3 412.2c0-.7-1.7-72.8-2.1-78.8l-3.5-45.5 1-.1 3.5 45.5c.4 6.1 2.1 78.2 2.1 78.9z"/><linearGradient id="j" x1="258.8" x2="231.6" y1="328.6" y2="332.8" gradientUnits="userSpaceOnUse"><stop offset="0" stop-color="#00394a" stop-opacity="0"/><stop offset="1" stop-color="#00394a"/></linearGradient><path fill="url(#j)" d="m275.6 412.2-30.5-.1c-2.4-.1-3.3-1.2-3.2-2.5-.3-6.4-4-35.2-4.7-47.8a795.7 795.7 0 0 1-3.4-43c-2.2-8.7-6.9-39-6.9-39l24.7-36.3s18.3 59.2 21.1 85.9c2.7 26.4 2.9 82.8 2.9 82.8z"/><path fill="#0a5f66" d="m192.7 304.9-14 101.8c-.4 2.7 0 4.2 2.1 4.4l28.8 1.4c2.6 0 4-1 4.8-3.4l28.6-97.4 25.4-103.8h-68.1z"/><g fill="#044147"><path d="m264.7 348.2-.6 1h1zm2.1-3.1.5-1.4-1.6.3zm4 20-2.1.1 1.4 1.4zm2.8-8.8-1 1.8 2-.5-1-1.3.6-1.6-2 .3zm1.3-4.2-1 1.9 2-.5zm-3.5-9-.7 1.5-.2-.1v1l.7-.4-.2-.1 1.3-.3zm.2-14.2-.8 1.2-.4.3h.2l-.2.3h.3l-.6 1h1.1l-.4-.9h.2l.4.1-.1-.1 1.1-.2zm1.6 22.3-2 .3 1.5 1.3zm2-22.3-1.5-1.3-.3 1.8h-.7l.9 1.4.5-1.3zm-4.7 44.6 1.7-.4-1.4-1.5zm.8 7.8-.4 1.9 1.7-.4zm-4.3-16.9 1.8-.5-1.5-1.4zm-.8-52.5.1-.2h-.2l-.1-.1v.1l-.8.2.6.8-.3.8 1.8-.3zm2.6 46.3-.3 1.9 1.8-.5zm2.2 32.7 1.4-.4-1.1-1.2zm7.2 1.3L277 391l-.2 1.7zM273 345l1.4-.5-1.1-1.2zm-1.3 4-2 .3 1.5 1.3zm-12.7-3.8v1l.8-.6zm14 5.1.3-.8.1-.1h-.1l.2-.4-.4.1-.5-.2v.4l-.4.1zm.8-2 .9-.5-.9-.8zm-2.3-6.8-.9.8 1.1.3zm-1 22.2-.8 1.1 1.2.2zm3.2 11.8-.7 1.1 1.3.2zm-2.1-14.1-.8 1 1.3.2zm3.7-3.5.8.7.1-.3 1.4.7-1.7.9-.4-.4-.1 1.9-1.2-2.2-1.2 2.8h2.4v.5l1.5-.7 1.2.8-1.7.8h.1l-1.2.7 1.8 1.1-1.1 1 2.4 1.2-1.7 1.1 1.6.8v-2.2l-.1.1-.1-3-1.1 1-.1-1.5 1.3.5v-1.6l-.1-.8.1-1.1-.8.5-1.5-1.2 1.7.6V359l.6.2-.1-3-1.7 1.4zm-10.1.3 1-.6-.9-.5zm9.3 10.2-1.4-.3.2 1.2zm-.2 3.7 1.2-.9-1.4-.2zm2.1-.6 2 1.4v-2.6zm-1.6-6.4-1.4-.8.7-.4-.8-.5-.1.8-.2-.1.3 2zm-.6 5.3-1.9-1 .3 2z"/><path d="m273.5 353.3-1.9-1 .3 2zm-1-9.6 1.6-1-1.9-1zm-7.5 37.5.2-1-1.1.3zm6.9 10.8-.9.6.3.3-1.9.5 1 1.4.9-1.8.5.3zm.6-11.9.9-.8-1.2-.2zm6 9.1-.4.6.3.2-.9.9 1.2.7v-1.9l-.2-.5.3.2-.1-1.4-1 .9zm-14.7-33.5.8.2-.3-.7zm6.6.9.3-.7-.8.1zm2.3-15.7.7-.6-.8-.3zm-2.9 2.4-.3.4.8.1zm6.7 1.1-.8.7.7.3-.1.5-1-.2.6 1.2.2.7.7-.8-.8-.2.1-.2 1.3-.4-.1-.2.7.3-.1-3zm-3.5-11.1v.7l.5-.4zm-3.2 3.1.6.1-.2-.6zm5 .2.3.5.2-.6zm-6.4 32.3-.8.9 1.5.4zm4.8 6-1.3.2.7.8zm1.9-8.8-.1 1.1.9-.4zm-3.3 29 .9.8.1-1.1zm3.9.6-.9.4.9.8zm-4.6-28.9-1 1.4 2.1.3zm-4.3 15.9 1.2.2-.6-1zm2.3-2.2-.6-1-.1.2-.3-.6-.5.8h.6l-.3.2zm4.4 18.5.9-1.8-1.9.5zm1.1-.4 1 1.4.9-1.8zm.9-6.2.8-1.8-1.9.5zm-3.3-47-.6 1 1.2-.2zm-3 8.7-.9.4.9.8zm.4-2.9-.3 1.2 1.5-.1zm7.1 4.4-1 .7.9.5zm-8.4-7.4-.9.4.9.8zm3.8-20.7-.8 1.1 1.2.2zm-2.9 11.8-.6 1h1z"/><path d="m272.2 334.1-1 .2 1.6-1.1-1.8-1 .2 2 .7.6zm-8.6 2.9.8-.5-.3-.3.2-.7-1.1.3.5.4zm9.5-1.1.1.2-1.3.2 1 1.3.3-1.3.3.7.8-1zm5.3 71.4.1-1.4-.7.6zm-1.7-96.8-1.2 1 1.4.6-.2-1.6.9.6-.1-2.9-2.5 1.2zm-5.8 14.7.9-.8-1.3-.4v.2l-.2-.1-.4-1v-.1l-.7.6.3.1-1.1 1.9 2.6.3zm-.3-.9.3.6zm-1.7 8.1.3-.9-.5.1-.3-.7-.5.8-.5.9 1.1.1.2.3.1-.3h.2zm3.6 5.7-.7 1.7 1.8-.1zm-2.1-.5 1.8-.1-.9-1.7zm5.8 4.1-1.3.7 1.4.6-.5.2 1.5.7v-1.6l-.6.3v-.7l1.1.5-.1-3-2.4 2zm1.9 7.9-.1-3-2.3 1.9.8.4-1 .2.3.3-.2 1.7 1.7-.5-.5-.4.2-.9zm-1.5 2.4.4.9.4.1.3.3-1.7 1.6.3.2-.5.1.8.7.1-.6 1.5.8-.2-6-2.3 1.9zm-1.2 19.2 2.4-1-2.5-2.1zm1.5 3.2-.1-.8-.6.3h-.1l1.2-1.5-2.1.8-.2-.3v.2l-.8.1.8.7v.6l-.4-.3v1.2l-.1.1h.1v1.7l1.4-.7.8.6-.7.4-.1-.2-.1.4-.6.5.6.1v.1l-.9.7 1.6.8-.7.7-1.5-2.4-1.2 2.8 2.2-.1-.1.2 2.1.9-.9.7-.2-.3v.6l-.1.1h.1v.2l-.2-.1v3.1l1.4-.6-1 .9.5.2.3 1h-2.5l1.3 2.3 1.6-2.3h.7l-1.2-1 1.3.6v-1.7l-.2-.4-.1-.1-.1-1.1-.6.3-.3-.4.8-.2.5.3v-2.3l-.1-2.9-1.2.8-.1-.7.9-.2-.2-.4v-1.5l.5.6V375l-.8.5-.3-.3.6-.2.2.1v-.2l.6-.2zm-.8-36-1.5.2 1.3 1.1.2-1.3 1.8.7-.1-3.1-2.3 1.9zm.3 70.6 1.5 1.1.4-2.5z"/><path d="m276.2 406.2-.7 2.1 2-.1zm-8.4-54.7-1.1.3.8.7v.3l.7-.6-.5-.1zm-2-6.5-.8.7 1 .1zm8.7-67h-1.6l1 1.3zm-6.6 45.4-.2-.6-.4.3zm5.1-35.8.9-.8-1.3-.4zm-2.6-8-.7 1h1.1zm-5.2 8.7.7.9.2-1.2zm11 2h-.9l.6.7-.7 1 1.9.4-.9-1.6zm-7.7 1.3-.7-.6-.3 1zm-4.6 35.4.2-.8h.3l-.6-1.5-1.1 1.3h.5zm5.4 5.9.2 1.1.7-.4zm-6.1-3.2-.1-.8-.8.5zm6.1-28.3-1.1.8 1.4.4zm-1.7.5-1.6.7 1.5.9zm3.4 2.8-.3-1.9-1.6 1.1 1.4.8v.1h-.5l.3 1 .9-.8zm1.2 21.3-.7-.9-.3 1.2zm-.8-6.4.9.4.1-.9zm-6.3 5 .6-.7v.2l1.1-.4-.9-.7-.2.9-.9-.3zm-4.3-4-.2 1 .8-.1zm9.7-21.5-1.9 1.3 2 .7zm2.6 1.9 1.6-1.5-1.8-.8zm1.8.8.2 2.2 1.6-1.5zm0 4.7 1.5 1.7.5-2.2z"/><path d="m274.3 302.9-1.1 1.5 1.3.1 3 1.5-.1-2.8-2.1.8zm.1 5.4 1.6.3-1.1-1.9-.8 1.2-.1-.1-1.2 1.5.8.1.4 1.9-.8.8 2 .9-.5-2 .9-.7-1.7-.9 1.1.2zm-2.6-7.3-.7 1.1-.5-.9-.4 1.2.5-.1.3.6.2-.4 1.7.3zm-.9 4 2.2.4-1.1-1.9zm-2.5 4 1.5-1.6-1.8-.7zm8.8-14.2-.1-2-1.7.7zm-.4-5.2-.1-2-1.6.8zm-1-4.1-.9-1.6-1.1 1.3 1.8.4v1.1l1-.4zm-.5-13.3-1.1 1.3 1.8.5zm-3 46.9 1.2-1.1-1.4-.5zm.9 5 .2 1.4-1.1 1.3 2.1.6-.8-1.8 1-1zm-.7-12.4-.9 1.7h.2l-.4.6h-.1l.1.1v.1h.1l.8 2 1.1-1.9-1.4-.2.6-.2-.5-.5 1.7-.1zm-1.6-.8h-.3l.2.3.6 1.1.5-1.2h1l-1.4-1.6zm3.7 3.9-.7 1.8 2.1-.4-.7 1.5-.2-.1-.9 1.7 2-.1-1.4.8 1.5.6-1.6.5 1.1.7h-.8l.7.9.4-.8.9.5-2.1 1.9 2.3.7-2.3 1.8 2.3.6-.7 1 .4-.9-1.7.1.9 1.2-1.3 1.1.4.1-1.8 1.3 1.7.5-.4.3 3.2 2.1v-6.8l-.2-2.1h.1l.1-3.3-.4.5.2-1.4h.1v-2.4l-.8.4-.8-.9 1.7-.1-1.1-2.2-.1.4-1-.9 2 .8v-2.5l-2.2 1.5zm2 16.1-1.3.8-.2-1.6zm-4 2.2 1.9.6-.2 1 2-1.1-1.5-1.3-.2 1-.7-1.7zm.8.7-.9 1.2 1.7.2z"/><path d="m271.8 331.8-.4.1.2.3-.1.1h.2l.1.1v-.1l1.3.3-.7-1.5zm5.5 1.5-1.7 1 .6.4-.9 1.3 2.2.3-.7-1.2.6.4zm-3.2 51.3 1.2-.9-1.4-.3zm1.4 1.8-1.2-.2-.2-.3.5-.3-1.8-1 .3 2 .5-.4v.1l.7-.2.2 1.1zm-7.4-1.2 1.5.4-.7-1.2zm5.1 6 .5-1-1.1.2zm3.1-9.2-.9-.8v1.1zm2.1 17.8-.9 1 .9.7-.9 1.1h.1l-1.2 2.8h2.1l-1.1-2.7 1 .9v-2l.1-1.8.1-.4V392l-1.2 1.1-.2-.4-.1.7-.1.1h.1l-.1.8 1.2-.3-.1.6-1.5 1.7 1.6 1.3-.6 1.1-.6-.1.1.8.5-.2zm-5.9-80.5.9 2-1.5.8 1.5.7v.1h-1.1l.6 1.2-.5.1.3.5.3-.5.1.2.4-1 1.7.4-.9-2-.8.9v-1.4l.4-.6.8-.1-.5-.5.2-.5zm2.1-30.1.8-1.4-1.3-.1zm-4.6 33.1.7-1.4h-.2l.4-.3-.6-.2v.5l-.8-.1zm-.7-7.8.8-2.9-2.6.5 1.4 1.7-.4.9zm3.1 6.5-.6-.8-.5 1zm-1.2-15.8.4 2.2 1.2-1.3-.1.9.8-.3-.7-.7.2-.3zm.6-8.7-1.1 1.5 2.2.5zm-7.3 17.8.8.1-.2-.7zm-3.7-22.3.8-.1-.6-.9zm1.4-5.9-.7.3.7.4zm2.1 28-.8-.3.2 1zm2.1-5.2-1.1.3.8.8zm-1.3 11.7v1.8l1.7-.6zm10.4-22-.9 1.5 1.6.1-.4.4-1.3.9 2.8.9-.1-2.9-.7.6zm-10 16.1-1.7.5 1.4 1zm6.6-21 .5.6-.2-.1v1.1l.5-.3-.6.9 1 .2-.3-1 .2-.1-.4-.3.6-.8zm-3.3-5.5.6.2-.1-.8-.5.6-.3-.3-.5 1.1 1.1-.2zm-2.6 9.8v-1.1l-.9.4zm-3.7-8.1.6-.5-.9-.5zm-1.4-5.2.8.1-.2-.7zm13.7-4.7 1 .3-.1-.8zm-4.8 5.4-.9-.1.4.9zm3.3-1.5-1-.8v1.1zm-1.2-6.8-.8.7 1 .3zm-6.3 5.9.1-.5-.8.3.7.6-.3.1.6.9.5-1.1.1-.3zm-.1.5.1-.3.1.2zm4.1-.8-.5-1.5-1.2 1.2zm6.9 1.9-.2-2.1-1.7.9zm-.4-5.1-.1-2.2-1.7.9zm-10 39.8.8 1.2.5-1.4zm-2.7 1.4.5-1.1-1.1.2zm.4-28.8.8.5.1-1zm6.2 25.1-.1-.4.6-.2-.8-1-.3 1-.3.2-.7-.9-.1.4h-.1l-.7 1h.3v.1l.7-.1h.2l.4-.1zm-6.1 6.3h-.3l.4-.1-.4-.5-.5.6h-.3l.3.9zm1-5.5-1 .7.9.5zm0-36.3.8-.1-.4-.5zm7.7-1-.2.8h-1.1l.5 1 .7-1.1v.4l1-.3zm1.2-5.8-.9.4.9.5zm-7.5 4.8-.8-.3.2 1zm-.3 53.7.1 2 1.7-.8zm-5.1-5.5-.9 1.4 2 .1zm5.6.7-1.7.5 1.4 1zm.2 8.7.8 1.1.6-1.1zM263 332l-.3 1.2 1-.5zm-2.3 9.7 1 .6-.2-1.2zm5-36.6.1.8-.5-.2-.1 1 .8-.6-.3-.1.5-.5zm-.6-5.1-.6.7.8.1zm-4.8 5.9.5.6.3-.7zm-1.9 28.4-.9-.3.3 1zm12.8-4.9-1-.7v1.1zm-6.6-.6-.9-.1.4.9zm6.8-40 1 .3-.2-.9zm-4.3 37.2.6.9.5-1.1z"/><path d="m268.5 329.9.9-1.5.8.4.1-.9-.7.3.2-.3-.3-.1.4-.2-.7-.5v.6l-1.2-.2zm-9.9 6.7.8.3v-1zm12.7-.5.9-.6-1.1-.6zm-5-4.6.1-1.2-.5.5-.2-.5-.4.4.4.1-.1.1zm3.2-34.7 1.7-.7-1.5-1.3zm3.9-1.5 2 .2-1.1-1.6zm.2-4.3.4-1.5-1.7.5zm-7.5 3.7.4-.6-.9-.1.4.6-1.1-.2.6 1.2zm-5.3-5.7-.5 1.1 1.1-.2zm3.2 20.7-1-.8v1.1zm-.8-7.2-.8.7 1 .3zm-6.8 6.3.4.9.4-.9zm3.8 14.4-1-.7v1.1zm-.8-7.3-.1-.8-.8.7zm17.7-17.3.1-2.2-2.5 1.5zm-9.8-9.4-1.3.2.8 1.2zm-4.6 1.9.5-1.1-1.1.2zm.4 2.9.5-.9h-.3l.4-.1-.4-.5-.5.6-.2-.1zm6.1.7 1-.4-1-.8zm-3.6 52.4-1.1.3.7.8zm-2.8-5.7 1 .1-.2-.9zm3.4-5.1h-1l.2-.4h.2l-.4-.5-.1.5h-.3l.2.5.2.4.6.7zm6.4-43.9 2 .3-1.1-1.6zm-2.9 56.2-1.4-.1.8 1.1zm-5.8-5.6-.3 1.2 1-.4zm-1.9 9.9 1 .6-.2-1.2zm-2-12.7-.9-.3.1.5-.5.4 1 .6-.1-.8zm-3-4.3.8-.1-.3-.7zm3.3 22.1.5-.5-.9-.3zm-1.8-5.6-.5.6h.8zm12.7-12.2.5-.1-.6-.9-.4.6-.5-.2.1 1.2zm-1.5-6.3-.7.8 1 .1zm-5.5 7.4.3-.9-.9.1zm2.5-3.4.1 1.2-.6.2.9.8v-1.2l-.3.1.8-.6zm-.4-4.9-.3-.9-.4.5-1 .5.9.7.2-.9zm-5.2 5.8-.9.1.6.8zm-1.4 9 .8.3v-1zm-.4-9.6-1.4-.1.8 1.1zm3-.6.9-.6-1-.7zm-.6-6.8-.5.5-.2-.3-.4 1.1 1-.4-.2-.4h.6zm9.8-56.5-1 .7 1 .6zm.4 17-1.1.4.8.7zm-2.2 17.3-1.1.4.8.7zm-1-9.3.7-1.4-1.5.3z"/></g><linearGradient id="k" x1="225.4" x2="264.4" y1="308.5" y2="323.4" gradientUnits="userSpaceOnUse"><stop offset="0" stop-color="#00394a" stop-opacity="0"/><stop offset="1" stop-color="#00394a"/></linearGradient><path fill="url(#k)" d="M209 412.5c2.8 0 5.2-1.4 5.4-3.1l27.7-95.9c4.4-14.1 23.5-94.8 25.5-105.3-9.2-.4-32.7.4-32.7.4l-44.1 203.1z"/><g fill="#147a7c"><path d="M193.6 384.6c.2 0 .5-.1.6-.3l.1-.1-1.1-.2c-.1.1.1.5.4.6zm18.5-136.1.1.3v-.7z"/><path d="m191.7 382.6.8-1-1.2-.3zm.3 1.4.6.1-.4.4-.1-.2-.5.8h.2l-.2.2 1.6.2-.4-1.3.8.1v.1l.2-.1.4-.4-.6-.2-.1-.4-.2.2-.6-1zm-11.2 14.6-.5-.4.8 3 1.9-1.1-1.7-1.2 1.1-.7-1.8-.6zm5.2-4.7-1-1.5-.8 1.5zm1.3-20.6 1.5-1.9-2.2.1zm2.3 9.7.2.2.1-.6.1-.1.1-.6-1 .3.2.2h-.4l.1-.6-.7.4.2.2-.7-.1.8 1.8zm.2-14.3-.9-.4.4 1.3-.6.8 2.4.2-1.1-1.4.3-.3-.4-.1 1.4-1.6-2.2.1zm-.3 4.3-1 1.8 2.4.2zm6.4-20.7 1-2h-2.2zm.2-12.2 1.3 2 .8-2zm1.6 23.4.8-2-2.1.1zm-2 2.4-2.1.1 1.3 2.1.3-.6.6-.2-.4-.2zm-10.3 16.3.9 1.6.7-1.8zm4.4-4.6 1.3.1-.2.2.7.2v-.1l.6.1-1.3-2zm12.6 7.3.3-1.1-1.1.3zm-13.4.7-1.2-.5v1.3zm5.2-25.8.2 1.6 1-1zm-.8-13.6.2 1.6 1-1zm5.2 23.7.4-1.3-1.3.3zm-6.6-14.4v1.1l1-1-.8-.3.1-1-1.5.7zm-3.7-4.8-.3-.5-.1.3-1-.9-.3 2.6 2.5-1.1zm2 8 1.3 1.1-.9.1.8.8.3-.8.2.2.2-2.4z"/><path d="m204.9 343.1-.4 1.1 1.5-.1zm-15.8 3.6-.4-.5.1-.1-.7-.7.4.1v.2l.4-.1 1.1.3-.1-.4 1.1-.5.1.2.2-.2h.1l-.1-.1.3-.4.5 1.1 1.7-2.9-2.8-.2-2.6-1.5-.5 3.6.7-.4.1.3-.1.8-.4.6-.4-.7-.4 3.4 1.8-.6.2.3-.6.1-.2-.2-.2.2-.6.1.3.5-.3.1.4.4.1.8.4-.2.1.1-.4.8 1.4.2.2.2v-.2l.8.1-.7-1 .1-.8v.1l1.1 2.3 1.3-1.8-2-.5.2-1.1.4-.1-.3-.3.3-1.7zm1.4-4.4.6 1.4-.7.3-.1-.1.2-.4-.6-.1-.5-.4zm-1.3.9-.1.4h-.5zm10.2 28.2.1.8.6-.3zm-7.3-2.5-.1-.2-.5.8.4.1-.2.1.9.2-.1.1.8.1-.2-.6-.2-1.2zm-.9 15.2-.8-.4.1.8zm-7.2-.8 1.1-.5-.6-.5.2-.6 1.1.4-.6-2.4-.6.3v-.6l1.1-.7-2.4-1.8-.5 3.4.7-.3 1.1.4.4.3-.2.2-1.7.1.1.4-.7-.6-.5 3.5zm31.7-25.5-.6-.5-.2.8zm-5.5 6.4-.1-.8-.6.3zm-12.4-9.5.6 1.5 1-.8zm-2.4-7.6-.8 1h1.4zm-6.2 9.4.8 1 .3-1.3zm6.6-.1-2.3-.8.7 1.8-.8-.2 1 2.3-.1.1 2.4.5-1.1-1.7.3-.3-1.3-.3zm6.1-15.8.4 1 .1.8 1-.7-.6-.3.5-.3zm-1.7 2.6-.1-.3-.6 1.1.7-.1.2.6.5-.4.2.6.8-.6-.8-.3.3-.3zm0-16.8-.1-.2-.4.7h.2l-.3.8 2.2-.7-1.2-1.5zm-6.6-18.1.4.2.1-.4.3-.1-.3-.2v-.1h-.1l-.3-.2h.2l1.3 1.7.3-1.5v.1l.9-1.2-1.7-.4.5.8-.8.2-.2-1.1.6-.3 1.9.1-.3-.6h.1l-.1-.1-.7-1.7-.4.9-.7-.4 1.2-2-2.9-.7.3 1.8-.4-.2-.2 2.3-.2 1.3h.1v.4l.2-.1-.8 2.1zm-.3-1.8-.1.2-.1-.1zm5.1 15.2-1.3-1.4-.9 2.2.8-.2.1.8.8-.6-.8-.2zm-3.1-8.9 1.5-1.2-2.1-1.1.1.8h-.8l.6.9.3-.8zm.9 10.4-1.3-1.4-.9 2.2.8-.2.1.8.8-.6-.8-.2zm-8.2 57.3.4 1 .8-1zm5.7-7.9h1.2l-.8-1zm-1.5 1.9.8-.7-.9-.4-.1-.2-.1.1-.3-.1.4-.1-.7-.6-.1.5-.2.2.1-1.7-2 .9 1.4 1.3.2.2v-.2l.7-.1-.1.3h.3l.1.4h-.2l1.1 1.2.5-1.2zm-.8-1.4.1.2zm-4 14.6.3 1.2.8-1zm5.9-8.4 1.2-.1-.8-1z"/><path d="m193.5 300.8.9-.3.3.9.8-1.2.3.8.1-.1.7 1.4-.8.5.8.4v-.7l1-1.4.2.3.4-1h-.3l-1.3-.3.4-.4-.5-.2.5-.8-.8-.1 1-.4-.5-.5.5-.3-.8-.3v.4l-.8-.6-.6-.5-1.3-.8v.1l-.3.1-.2 2.6.5 1.3.2.6-.7-.7zm1.7-1.8.1.6-.9-.2v-.2zm-3.9 64.3-2.7-.4.2-.6-2.1.5-1.1-1.2 1.4-.4.2.8.9-.8-.4-.3.6-.1.9-.5-1.1-1 .7-1h-.8l.5-.3-2.5-1.7-.5 3.5 1.3-.7.3.6-.1 1-1.3-.9-.4 1.9-.2-.2-.3 2.5 1.2-.4 1.4 1.6-2.6-1 .6 1.4-.3.3-.5-.5.3.8-.3.1-.2.3-.3 2.1 2.7-1 .3-.1-.2.4 1.4.1-.8-1-.2.4-.3-.3v-.2h-.1l-.1-.1.1-.1h-.1l-.8-.6v-.2l1.8-.6.4.5.4-2.2 1 2.6zm-6.4 24.4-1.8-.4.7 2.2zm-1.4 7.9-1.8-.4.7 2.2z"/><path d="m184.1 386.9.2-.2 1.2-.2-.5-.4.2-.2 1.4 1.2-.7.4.6.3-.9.4.7.6.1-.4.7.1-.4-.9v-.4l.1.1.2-2.4-1.8.8-1-.4h.3l-1.5-1.1-.1.8-.2.7-.7-.6-.6 3.4 3-1.6zm-1.4-1 .4-.1.1.4-.1.1zm1.2 12.8 3.4 1-1.3-3.1zm11.8-24.1.1-.4-.6.3v-.3l-.7.4.6.3v-.2l.2.2-.5.6 1.5-.1zm-4.4 20.3 1.1-.5-1.1-.4zm2.2-56.1 1.5.6-.1-1.5zm0-3 1.3.4.3.3-.6.2 1.8 1.4.1-2.4-.6.3.2-.2h-.1l-.6-.2.1.3h-.1l-.1-1.4zm-5.4 4.8 1.9-.7.2.3.2-.5.2-.1-.2-.2.2-.2.1.2.3-1 .2-.2.6-2.1-1.8.5 1.4-.6h-.4l.5-.5-.8-.4v-.4l2.7.4-.9-2.9-1.2 1.2-.1-1.4-1 .9-.1-.1.7-.6-.8-.4 1.7-.9-.2-.2h.2v.1l.7-1.8h-.3l.8-.7-.4-.2.1-.1.6-.3-.3-.2.3-.7-1.4.2.1-.3.6-.9.3.3-.1.1.6.4.1-.8-.2.2.1-.4-.6.1.6-.9.7.5 1-.4-1-.8-.8.7-3-1.5-.3 2.2 1.3 1.3h-1.5l-.2 1.7 1.4 1-.4-.4-.3.2.6.4-.2.3-1.3-.4-.2 1.5.4.3v.9l-.5-.5-.2 1.4 1.5-.3.3.1-.8.7-.8-.1.5.5.1.3-.9-.5-.3 2 .1.3-.2.2.4-.1-.5.9h1.1l-.5.5-.1-.1-.5-.1zm3.4-12.1.1.4-.4-.1zm9.2 10.9 1-.9-1.5-.6zm-8.4 52.6 1.1-.6-1.1-.4zm-.5-13.5 1.5.3-.6-1.4zm7.1 6.9.6 1.1.6-1.3zm1.6-11.1-.1 1.3 1-.4zm4.1-3-.1-1-.8.4zm.5 5.6.8-.6-.9-.3zm5.5-5.8-.3-.8-.4.8zM206 258.7h.9l-.4-.9zm-1.4-3.5 1.1-1.1-1.4-.1zm-3.5 5.3h-.2l.2-.2-2.1-.5 1 2.2.6-.9zm.7 18.6-.4-1.6-1.1 1.4zm-.8 7.9-.3-1.6-1.1 1.4zm11.2-6.5-.2-1.6-.3.2-1-.3.3 1 .9-.6-1 1zm-7.7-10.7-1.2 1.3 1.4.3zm-1.1-2.1-.3-1.6-1.2 1.3zm-2.4 25.8v-.4l.1.3 1.1-1.2-1.5-.2v.2l-.9 1zm-2.8-37.1.1.2-.7.2.6.7.3-.5.4-1 .2-.4-.6.1-.4-.4v-.1l-.1.1-.2-.2.3-.2-.6-.2v.2l-.5-.9-.2 2.6.7-.3zm0-.5zm.3-1.1 1.1.2-.3-1.4zm1-19.7 1.1.2-.2-1.4-.9 1.2-1-.9v1.4zm-.4 5.6-1 1.2 1.1.2zm4.3.2-.6-.6-.1.7zm-3.2.4.8-.2-.6-.5zm1.9-2.7-.7.1.4.8zm-2.8-1.4.3-.7-.7.1zm2 22.6 1.3-1.2-1.7-.2zm9.8-4.4-.7.4.4.3-.2.3.7-.1-.2-.3zm-11.8 2.2v-1l-.9.6zm1.5-4.5 1-.3-.8-.6zm15.2.8-.4.6.6.1zm-1.4-2.6.5-.3-.6-.2zm4.6 1.1.5.4v-.6zm-20.6-7.7.1-.6.9-.9-1.4-.2.2.9-.7.5zm-.2-6.3-.1.8.9-.2zm5.9 5.8.3-.8-.8.1zm-3.8 32 .7 1.2 1.2-1.7-2.1-.5.5 1zm7.4 3.9-.9.1.5.9zm-9.4 1.7.6 1.1 1.2-1.6.1.6-.1.1.2.1v.1l.7.2v-.5l1 .2-.4-1.9-1 1.3-.7-.2.5-.5h-.1l1.1-.5-1-.6v1l-.8-.2.4.9h.1v.2l-1.3-.3-.1-.2-.1.1-.6-.3.3.9-.1.2zm2.6-13-.4 1h.3l.2 2.1.4-.3-.2.3h.1l.1.3-.2-.1.6 1.4.2-.1.5.1-.1-.4.8-.7-.8-.1.1-.2-.6-.2h.5l-.4-.7.9-.8-1.5-.5h.4zm10 6.6-1.2.3.8.8zm-2-5.1.9-.5-1-.2zm-3.4 14 .1.8.9-.5zm-5.7-.9-1 .2.7.7zm6.4-10.2.3-.6-.8.1zm-1.1-4.4v.5l.5-.3zm-.8-7.2v-.8l-.5.2Zm2.2 2.6.7-.1-.3-.4zm-5.3.1.2.6.4-.4zm7.2-11.2-.6.2.5.5zm-2.7 3.7.4-.4-.6-.2zm-5.7-5 .1-.7-.6.2zm2.2 2.6h.6l-.3-.4zm-2.9-9.3-.5-.4v1l.8-.2.1.1v-.1l.3-.1-.2-.2.1-.3zm2.3 2.4-.3.4h.5zm-3.8.5-.5-.2.1.5zm18.8 13.2.6-.4-.6-.3zm-2.5 5.6-.6.1.5.4zm-4.2-4.7-.2.5h.6zm5.3 15 .5-.1-.4-.4zm-2.5-5.2.4-.5h-.6zm-7.5 9 .3-.1-.8-.6v1.1l.4-.2-.5.5-.7-1-.5 1-1-.2 1 1.9-.3.3-.1-.2-.5.8 1-.2-.1-.2h.5l-.2-.5 1.1-1.6 1.5-.2zm-.9 1.2zm-5 13.2.9-.8-1.8-.7.2 2.3.7-.8.7 1.5.9-1.3z"/><path d="m199.9 299.2-1.3-.2 1.4-1.5h-.1l.4-.3.1.2.7-.7-1-.2.1.6-.5-.3v.7l-1.7-.5.2 2.3.1-.1.7 1.3.3-.3.7 1.4 1.1-1.7-1.4-.2zm-2.9 28.5-1.6-.5.6 1.7zm5.9-32.8.1-.6-.6.3zm6-14.4-.7 1.1 1.4-.2zm-4.7 5.6-.2-.3-.5.8h.6l.1.5.7-.7zm-2.6-7.9.8.5-.1-1.1zm-.1-21-1.2.4.6.9zm3.2-4.2-.4-.9-.6.6zm1.9 6.3v.9l.9-.6zm-9.9 3 .5-.6 1.6-.6-.9-.6.2.1v-.5l1.2.2v-.1l.8-.7-.9-.3-.1-.7-.9 1.2v-.4l.3-.2-.5-.1.6-.5-1.6-.4.4 1h-.1l.4 1.1-.2.2-.7-.5-.2 2.6.5-.1zm6.6.6-.2-.5-.3 1h.4v.3l.4-.2h.1v-.1l.3-.2zm-.7-2.4-.9.8 1.2.1zm-.6-9.2-.5-1-.6.6zm1.8 6.6.1 1 .9-.6zm-1.3-1.8-.7-1.1-.4 1zm-3.1-6.3.2.9.8-.6zm8.2 2.1-.8.4.8.6zm-5-1.7-.4.8.5.1v.7l1.1-.5-.7-.5zm4.9-2.6-.6.3.6.5zm-8.3 3.1-.3-1-.6.8zm-1.5-5.7.1.7.8-.4zm6.2 3.9.1-.8-.7.3zm-2.6-2.2-.2-.5.4-.3-.8-.1v.3l-.4.4zm1.9 6.7.1 1 .9-.6zm-.9 3.6 1.5.3-.4-1.9-1.1 1.6-.2-.6-.6.6zm-2.5 53.1-.3-1.4-.9 1.2zm-.7 1.5-.2-1-.8.7zm-.6-5.9v.7l.8-.3zm4.9 4.1.5.7.2-.7zm3.7-1.8.3-.8-1 .2zm-5.5-.1h.7l-.3-.8zm4.1-5.1.7-.5-.7-.2zm1.7-1.6.3-.8-1 .2zm-4.9-.2-.3-.8-.5.6zm3.5-5.8.1.7.7-.5zm-4.9 39.3.8-.4-.8-.7zm1.4-5.7-.2-.8-.5.6zm-2.1 6.8-.6-2.1-1.3 1.8zm6.2-6.2.8.1-.4-.7zm-1.3 10.4.3-.8h-1.1z"/><path d="m200.4 338.3-.6.8.8.1zm4.1-3.8.7-.4-.8-.3zm-1.7 2 .6.7.3-.8zm-4.9-.1.6.1-.1-.8zm4.6-4.7.7-.4-.8-.3zm-3.6-4.2-.2-.2-.5.8h.3l-.2.2.6.1.1.7h-.2v-.1l-.2.1-.8.8 1.2.3v-.9l.8.7.2-1.1h-.1l.5-.2-.4-.4.4.1-.6-1.6zm2.7-1.6.7-.4-.8-.3zm-5.9 6.5-1.6-.6.6 1.5zm-2.6 4.1-1.6-.6.6 1.5zm.3 0 .3 1 .6-.7zm6.9-12.5.1-.8-.9.4zm-3.1.9-.8-.3.3.7zm1.1-14.7-.6-1-1.2 1.9h1.6v-.1h.6l-.1-.3.4-.4zm-4.8 8.3-.6-1-1.2 1.9h1.6v-.1h.6l-.1-.3.4-.4zm3.1-9-.4-.7-.3.7zm-1.2 12.4.3-.6-.8-.1zm6.6.6.1-1.1-1.2.5zm-5.4-3.4.1-1.1-1.2.5zm3.3 5.9-.1-.2h.4l-.3-.6-.3.3v-.1l-.1.3-1-.8v1.4l.9-.4-.1.3zm-.7 6.3-1.8.1-.3-.3-.1.4-.6-1-.8 1 1.5-.1-.1.1-.5.8 1-.1-.8.5 1.1.6.1-.6.1.4.4-.4v.1l.1-.3.5-.4-.2-.2zm-1.7.7-.1-.2zm.3 0-.4-.1.2-.1zm2.7 0 .1-.6-.6.3zm4.7-5 .2-.9-1 .4zm-1.8-5.8.7-.6-.9-.2zm-3.4 49.1.6.8.4-.8zm-4.8 0 .7.2-.2-.8zm5.5-5-.8-.3.1.7zm-4.8 25.2.6.8.4-.8zm-3.1-10 .7.2-.2-.8zm4.7-5.2.1.7.7-.4zm-2.9 5.8-.9-.1.6.8zm2-8.4-.8-.3.1.7zm-7.6.1-.8-.3.3.7zm2.9-2.4-.3.1-.8.8 1.2.3v-.9l.7.8.3-1.1zm-7 1.2 1.5-.9-.2-.2h.9l-.8-1-.3.6-.4-.4.2-.1.6-.1-.1-.2.1-.1-.4-.1-.4-.5-.2.2-.7-.2.1.6-.6-.3-.5 3.5zm1.5 6 .3.8-.8.1.9 1 .2-1.4h-.1l.5-.5zm7.2-15.4-.8.1-.2-.2v.1h-.3l.4.5.1.8 1.1-1.1-.1-.1h.2l-.3-.6v-.1zm-3.7 3.8.2.8.5-.5zm-5.4 11.2.2-.2-.2.4 2 .1-.4-.4.7-1.9-2 .2.3.6-1.2-.3 2.5-1.4-1-.7-.2-.8h-.1l.1-.1-.3.3-.9-.6-.5 3.4.5-.2zm-1.8 15.9.6-.3-.2-.2.6-.5-.2-.2.6.1-1-1.5-.7 1.1-.2-.2.1.2-.1.1-1.1-.9-.6 3.3zm5.4-16.1.2.8.5-.5-.2-.2v-.2h.5l-.6-1.2-.5.8-.3.1.1.1-.3.3h.6l.1.2zm-1.3-6 .6.3.1-.8zm8.9-6.5-.5-1.1-.8 1.2zm-2.7 3.9h.4l.1.4.6-.6-.6-.2-.1-.4zm-.5-2h.9l-.1-.2h.4l-.3-.6-.3.3v-.1zm.8 6.6.6.3.1-.6zm4.5-9.3-.6.9 1.1.1zm-4.8-2.4.2-.9-.8.4zm-.1 25.1-.2.1h-.1l-.8.8 1.2.3v-.9l.7.8.3-1.1zm8.7.7.4-.8h-1.1zm-5.7-2-.1-.8-.5.6zm5-4.1.1.7.6-.3-.1.8 1-.5-.8-.7-.1.4zm-11.7 7.7.3.7.6-.5zm2.4-9.2.2 1 1-.6zm-5.9 10h1.1l-.1.3h.3l.2.8 1-1-.9-.4-.1-.2-.1.1-.4-.1.4-.1-.7-.6-.1.5zm.9-.6.1.2zm1.2 5.8.6-.7-.9-.4zm1.7-.8.6-.5-.8-.4zm-.8-6.6.1-.8-.7.4zm14 6.8.1-.6-.6.3zm-1.6-15.8-.6.9 1.1.1zm-7.7-1.2.6.5.2-.9zm6.5-66.6-.1.7-.3-.1.6 1.1.7-.7-.4-.1.7-.3zm1.9-22.1-.5.4 1.6.4-.3-1.1.3.1.8.5v-1.2l-.4.2-.7-1.3-.6 1-.2-.3-.3.4-.4-.7-.3.6v-.1l-.6.6zm.1-.3-.1.1h.3l-.2.2zm-7.5 55.8.6.3-.1.1 1.3.4-.1-1h-.1l-.1-1.2zm3.9 5.5-.4-2.1-1.5 1.5zm-.2-4.2-.2-.3-.7 1.3.5-.1-.1.3 2.4.1-1-2.5zm-1.1 5.5-.2 1.5.8-.4 1 2.3 1.5-1.7-2.4-.7.5-.3zm-.9 4.9 1-1-1.3-.5zm-9.4.2 1-.1-.4-.8 1-.5.6.8.3-1.6.9.3-.4-1.8 1.3.6v-.1l.1.1-.4.1 1.8 1.6.2-2.4-.6.2.1-.1.5-.6-1.3-.3.4.9-.9.1.1-1-1.2.6v-.1l-.2.2-2.9.5 1.3 1.7-1.7-1.1-.3 2.6 1-.5zm6.8-8.1.1-1-.8.6zm6.8-99.1-.9-2.4-1.2 2.3zm-5.7 90.9-2.4-.8.6 1.4-.9.1.8 1 .2-1.1.3.7zm-3.8-16.5 2.4.8-.4-2.1.2-.2-.4-.2v-.4l-.4.1-1.5-.7-.4 2.8 1.1-.7zm1.2-10 2.4.8-.4-2.1.2-.2-.4-.2v-.4l-.4.1-1.5-.8-.4 2.8 1.1-.7zm7.5 25-2.1-.6.9 2zm.8 13.4.8.4.1-1zm6.7-13.6-.9-1.2-.9 1.3z"/><path d="m200.6 317.6-.9-1.2-.9 1.3zM199 316l-.9-1.2-.9 1.3zm-3.2 0-.9-1.2-.9 1.3zm-1.9-5.7-.8-1.2-1 1.2zm14.2 64.1.3-.8h-1.1zm-4.8-.6-.3-.7-.4.6zm3.8-4.8.7-.4-.8-.3zm-1 15.7.3-.8h-1.1zm-5.1-1.3-.5.6.7.2zm4.2-4.1.7-.4-.8-.3zm-1.7 2 .6.7.3-.8zm-4.9.1.7.1-.2-.7zm4.7-5.4.1.7.7-.4zm-13.3 2.5-.2.2-.4-.1.2.5-.1.1-.9.5 1.1.6.1-.6.1.4 1-1-1-.4zm-1.6 18.5h.9l-.5-1.1-.5.6-.4-.1.2.5-.2.2h.2v.1zm12.8-20.2.1-.7-.6.3zm4.4-8.8-.4-.8-.6.9zm-4.6 4.2.5-.5-.8-.3zm-3.3 28.3-.1-.8-.6.3zm-7.2 8.9-.1-1-.8.4zm6-.1-.3-.8-.4.8zm-3.5-2.1.7-.4-.8-.3zm-1.5-1-.4-.8-.6.9zm-4.6 4.2.5-.5-.8-.3zm13.4-45.6.2-.9-.8.4zm-10.2 35.3-.9-1.2-.8 1.5zm-10.1 3.6-.3 1.3 1.1-.3zm4.3-2.6v-1l-.8.3zm0 5.7.9-.5-.8-.4zm6.1-5.2-.2-.9-.5.8zm-11.2 5.8v.7l.7-.3-.2.8 1-.4-.7-.7-.1.3zm18.9-12.4-.7.8 1.1.2zm-10.6 9.6.4-.7-1.1-.1zm4-7.4.4-.7-1.1-.1zm-8.7 6.2-.2-.8-.5.5zm1.3 5.7.7-.3-.7-.4zm-2.3-1.1.5.8.4-.7zm.7-2.4v.7l.7-.3zm-2.1.6.1-.7-.7.3zm.3-4.6.6-.5-.7-.4zm1.8 5.1-.7-1.3-1 1.4zm2.1-1.9-.7-1.3-1 1.4zm3.2 2.4.8-.9-1.3-.5zm19.6-45.5.4-1.3-1.5.2zm-7.3-.8-.3-1.2-.6 1.1zm5.7-7.3 1-.7-1.3-.4zm6.2-15.1.4-1.3-1.5.2zm-8.6 8.6-.3-1.2-.6 1.1zm8.6-19 1-.7-1.3-.4zm-18.3 2.2 1.3-.1-.9-1.7-.6 1v-.3l-.7.3.4.3-.2.2-.4-.2-.1 1.3 1.3-.5zm.1 44.9-.1 1.3 1.3-.5zm2.2-29 1.2.2-.6-1zm3.9 9.8.8-.9-1-.4zm3.4-76-.4-1.9-1.2 1.6zm.5 21.3-.4.3h-.1l-.9 1.2 1.6.3-.3-1.1.9.7.2-1.5zm-3.2-10.5-.2-1.3-1 1.1zm0-6 1.1-.5-1-.6zm7.7 5.9.2-1.1-1 .3zm4.6-4.7-1.3.3 1.1 1zm-7.3-.2-.6 1h1zm10.1 15.3.3-1.1-1.3.3zm-7-1.5-.6 1h1zm5.2-5.9 1-.6-1-.3zm-10.6 23.4-.1-1.1-1.2.6z"/><path d="m201.2 314.9-.1-1.1-1.2.6zm7.1 4.3 1-.3-.8-.9zm3.9-1.4 1-.3-.8-.9zm-7.8-2 1-.3-.8-.9zm8-7.7 1-.7-1.1-.2zm-1.2 3.9.3-1-1.3.2zm-8.4 1.5.6-2-2.5.4zm-2.6 7.6.6-2-2.5.4zm-3.7-3.5 1.2-1.7-2.5-.4zm.3-2.8 2-.6-1.7-1.9zm-5.9 3.6 2.2-1.6-1.7-1.9zm12.7-6.8h1l-.6-1.1z"/><path d="m209.5 304.7 1-.7-1-.3zm-4.3-4.2-.9-2.3-.7 1.2-.2-.4-.6 1.1h.5l-.1.1zm-11.3 15.1-.9-2.3-.7 1.2-.2-.4-.6 1.1h.5l-.1.1zm14.6-19.6-1-.3.2 1zm-8.5 9.4-1-.2.6 1.1zm4.4-15.2-.5 1.1 1.4-.3zm-6.1-1.8-.1-1.1-.9.8zm2.5 21.4.6-2.2-1.9.4z"/><path d="m197.2 308.6.6-2.2-1.9.4zm2.9-5.9v-.5l-.7.7-1.1.3 1.3 1.8.3-1.3.2.1zm7.5-20.6-1.3.3 1.2.9zm1.9 2h1l-.6-1.1zm-15.9 10.8.5.6.4.1v-.1l.4-.1-.3.3-.8.2.3.3-.1.1.5.2.2.2-.6.5.3.1.5.5-.1.1.8.4-.1-1.1-.4.2.1-.4h-.2l.1-.3h.1v-1.4l-.4.1v-.2l.6-.1.2.6.8-.9h.2l-1 1.4 1.6.3-.3-1.8.3-.5.5-.5-.5-.2 1.7-.4-1.8-2.3-.6 2.3-.1-.4.5-.8-.6-.1-.2-1 1.1-.4.4.2v-.8l-.5.3-1.6-.9.9-1.1.2.2.3-.4.7 1.3-.2-.1.6 1.4.1-.1.1.3 1.5-2.2-2.8-.7.3-.5-1.2.4-.6-.3v-.2l-.1.1-.4-.2 2.1-.8.3.9 1.2-1.7-.7-.2-.7-1.8-.3.3-.1-.8-.9 1.1-.1-.7.8-.9-1.7-.4 1.2-.5-.1.2.9-.4 1.5-.6-.5-.4 1.2-1.7-.3-.1 1-1.6-.5-.2.5-.5-2-.5.3.9-.1-.1v.1l-.5-.2.1-.1-1.7-.4 2.1-.7.9.8.3-.9-1.1.3 1.1-.5-1.5-.9.1-.3.3.2-.1-1.1-.4.2.1-.4-1.1.5.5.5-.2.1.3.2-.2.1-1.5-1.5-.3 3.6-.1 1.8.8-.4.4 1 .5-.5.3.3.1-.8.1-.1.3.8h-.4l.7.7v.1l-.9-.3.6 1.1h-1.4l-.2-.5-.8-.6-.3 3.7 1.1 1.5-.5.4-.7-.4-.3 3.3 1.1.1.1.5-.4.3-.9-.1-.3 3.1 1 1.2-1.1-.2zm3.3-15.5.6 1.1-.9-.6zm-1.3 4.9-.2.1.9.3-.2.3-1.6-.9zm-.3 4.1-.1-.1zm-.3 2.3h.3l-.5.4zm0 1.9.5.2.3.6.3-.4.4.1-.1.3h.6l.1.5-.8.2zm-.6-1.5.3.3h-.1l.1.2zm10.4 3.6-.2.2-.4-.2v.4l-.5.6 1.1-.3-.1-.3h.6zm-2.8 1.5-.9 1.7 1.9-.2zm2.2 9.3-.1-.2-.1.1-.5-.2.5-.2-1-.7-.1 1.3.8-.4.1.6-.4.5h.5l.6 1.1 1.2-1.6zm2.4-1.1-.8.6.6.4zm-1.7-10.6 1.6-.2-.9-1.1zm1.6 4.3-.8-.3-.2-.4-.2.2-.5.6.7-.1.1.6zm-6.9-23.1 1.6-1.6-1.8-.7zm4.5-9.5-.4-1.9-1.2 1.5zm12.8 11.6.2-1.1-1.3.3zm-7.1-1.5-.6 1h1zm6.2-6.4-1-.3.2 1zm-10.5 5.1-.7 1.1-.2-.3-.3.4v-.1l-.2.2-.5-.7-.6 1 1-.2-.3.3h.7l1.8.1zm3.2-1.6 1-.7-1.1-.2zm-2.5 4.4-1.8.4 1.5 1zm-3.8-7.8 1.1-1.2-1.5-.2zm3.5-3.6v-.4l-.8.4.5.5-.4.7 1.4-.3zm-6.8-2.2.5 1.1 1.3-1.2h-1.1l.1-.6-.7.5-.2.1zm-3.3 4-.3 3.7.7-.2-.1.6-.1.1-.1.3.5-.1 1.1.2-.1-.7h.1l-.1-.1-.1-.7 1.2-.5.3.3-.8.7.5.2.8.5v-.3l.4.2-.3-1.5.2-.3h-.2v-.1l-.1.1-.4-.4 1.1-.1-.6-1.1 1.7-.4-1.7-2.4-.4 1.4v-.1l-1 1.9-.9-.7.5-.5h.1l.4-.3.4.2-.3-1.3.1-.1h-.1v-.1l1.6-.5-2-1.2.1-.1v.1l.9-1.1.1-.2.3-.3h-.1l.2-.4-.9.2-1.3-.2.8 1.7-.5-.2v.1l-1.3-.8-.3 3.5 1.9-.5v.1l-.7.6-1-.2.3.8v.1zm3.5 2.4zm-2.5.9-.1.1-.1-.1zm9.1-.2-.4.5-.1-.2-.5.8 1.1-.3-.2-.3h.6zm2.2-3-1 1.7 1.9-.2zm3.1 1 1.6-.2-.9-1.1zm-3.5 5.4-.8-.3-.2-.4-.2.2-.5.6.7-.1.1.6zm-2.7-9.6.7-.6-.5-.2v-.1l-.2.1-.1-.1v.1l-.9.5 1 .6zm-6.6-16.1-1.1.5 1 .7zm1.4 6.4.7 1.2-.3.3.9.2-.4-.8.6-.6zm-1.9-1.8-.3-.3v.1l-.3-.1.2.6-.1.6.3-.1.2.6.7-.9.2-.2-.3-.1 1-.4-1.4-.7.3-.4.5.2-.4-1.4.6-.4-1.4-.2.2.9-.8.8.6.3h-.6l.6.9v-.1zm2 .1.7-.9-1.2-.2zm3.7 6-.2-1.3-.9 1.2zm6.8-1.4.2-1.1-1 .3z"/></g><g fill="#044147"><path d="m219.6 346.8.9.5-.1-1.2zm3.2-4.6.7 1.6 1-1.2zm3.4 25.6 1.1-3.6-2.9 1.7zm1.8-6.4.9-2.7-2 .2zm-7.3 16 1.3.9-.5.1 1.4.9.3-1.4-.6.2.2-.9v.1l1-.7-1.3-.7.3 1z"/><path d="m222.2 376.3 1.1-1.3-2-.5zm-3.6-10.1-.3.3.6.2.1.2 1.1-1.3-2-.5zm5.7-11.4.9 1.8 1.1-1.3zm1.6-1.8 1.1-1.3-2-.5zm7.3-11.8.9-1-1.7-.4zM218 371.8l-.9 1.7 1.9.3zm4.3 9.1-.9-1.9-.9 1.7zm-5.7 2.1-.9-1.9-.9 1.7zm-11.5-16.1-.9 1.7 1.7.2zm12.3-4.7-.9 1.8 1.8.2zm3-5.6-.9 1.7 1.7.2zm.5 29-.9-1.9-.9 1.7zm-3.4 9.9-.5-1.5-.9 1.4zm-4.3-6.9-.9 1.4 1.5.2zm3.5 11.2-.2-1.7-.9 1.4zm13.7-53.9-.6-1.6-.9 1.4zm8.3-21.1-.4-1.7-1.1 1.3zm-1.3-2 .8-1.5-1.6.3zm-.5 8.9-.6-1.6-.8 1.4zm-6-3.3.7.7.3-.8zm3 1.4.8.6.2-.8zm-.5-2.1.9-.5-.7-.6zm4-.9.9-.5-.7-.6zm-8.4 23.4-.9 1.4 1.7.2-.3-.6.8-1-1.7-.4zm-4.7-1.7 1 1.8 1.1-1.3zm11.2-14.3-.3.6h1.2l-.5-.8.6-.8-1.7-.4zm-18.7 7.6-.5-.7-.4.8-.4.1.7.4-.1-.5zm10.3 8.8 1.1-1-1.3-.2zm1.4-1.9 1-.1-.6-1.1zm.2-5.6.2-1-1 .3zm-17.2-5.5-.6.5.8.4zm2.8-2.6.3.6.4-.4zm-5.6-.5-.3.6.7-.1zm28.6-5 .4-.9-1.1.1zm-7.4 1.8-.9-.4v1zM216.7 376l-.6 1.2 1.3.1zm2.6-5.2.3-1-1.2.2zm-9.5 1.6-.2 1.1 1-.5zm9.3-7.4 1.1.5V364Zm.8 13-.1-1.6-1 .7zm.8-15 1.2.6-.1-1.6zm6.7-6.3.6-.8-1.1-.3zm-1.2 2.4.6-.8-1.1-.3zm-8.4-4.6-.5 1 1.2-.2zm4.8 10.3-.5 1.1 1.2-.2zm-14.9-1.2-.1 1.2 1.3-.4zm7.9 5.5 1 .6-.1-1.4-.9.6-.1-.3-.8.8 1 .4zm-4.1-11.4.6 1.1.6-.8zm9.8 12.8 1.3-.4-1.3-.7zm3.2 2.9.7-1.9-2 .6zm8.3-28.5.7-1.9-2 .6zm-7.5 25.8.7-1.9-2 .6zm-6.3 21.5.7-1.9-2 .6zm-5.2 17.2.7-1.9-2 .6zm15.6-52.3.7-1.9-2 .6zm-16.7 24.3-1.6 1.8 2.2.7-.1-.3.4.2-.2-1.3-.4.1zm-3.4-3.6.6 1.1.6-.8zm2.8 14-2-.2.5 1.7 1.5-1.5.5.6.3-1.1-1 .2zm5.1-11.5 1.1-.5-1.1-.5zm3.4 6.6.3-1.1-1 .2zm1.1-9.2.3-1.1-1 .2zm-3.2 16.3.1-1.1-.6.6zm-4.6-28.8.8-.4-.8-.4zm2.3-4.5.4.6.4-.5z"/><path d="m221.1 350.3-.4.8.9-.3zm-4.5 2.2.7.4-.1-.8zm5.9 3.2.6-.5-.7-.2zm-2.3-16-.4.8.8-.2zm1.1 4.8.2.6.6-.5zm8.9-3.3-.4.8.9-.3zm-3.9 1.9-.5.3.7.4zm5.3 3.5.6-.5-.8-.2zm-1.6-9.8.5.3-.1-.6zm4.2 2.5.5-.4-.6-.1zm-27.2 4.9.4.8.5-.8zm.7 8.1-.2.6.8-.1zm6.2-3 .5.4.1-.7zm-12.3 13.6.4.4.2-.7zm5.5-4.9.1.7.5-.3zm14.1 25-.6-1.1-.4 1zm-3.2-7.5.4-1.1-1.4.1 1 1h-.2l.3 1 .8-.8zm9.5-12.8-1.1-1.9-.8 1.7zm-16 31.4.6 1.1.5-1zm2.6 1.9.6 1.1.5-1zm1.2 3.8-.8-.6-.3.8zm21.3-73 .1-1.1-.8.6zm-19.5 59.7-.6-.9-.4.8zm-4.4-10.6-.5-1.9-1.3.9zm-.7 5.5-.2-1.2-.4.2-1-.1.5 1.1.4-.4zm1.6-2.9-.1-.6-.9.6.5.4-.4.1 1 .6-.2-1.2zm1 25.8 1.4-1.4-2-.2zm-3.3-7.5.5 1.7 1.4-1.4zm1.7 1.6.5 1.5 1.4-1.4zm-2.9-7.4-.3-.7-.4.8zm-1.6-18.6-1 .7 1.5.7zm8.2-1-.3 1.3 1.2-.1zm9.6-23.9.1 1.4 1.1-.6zm-1.8-6.1 1.1.3-.3-1zm-5.9 6.2.6 1.1.5-1zm11.3 6-1.2-.9.1 1.4zm-1.9-6.7-.2-1-.9.7zm-6 6.1-1.1-.1.6 1.1zm.6-1.6 1.5.4-.8-1.2zm5.2 6.4.5-1.1-1.2.3zm1.6-16.9-.3-1-.8.8zm-6.2 6.2-1.1-.1.6 1.1zm2.3-1.3 1.1.5v-1.4zm5-5.9.6 1.1.6-.8zm-8.9-1-.6 1 1.1-.2zm6.3 1.5-.1-1.2-.8.8zm3.9-4.7-.5.4 1.1.2-.1-.7.1-.3-.9-.2zm-7.1-.6-.5-.7-.4.9zm6.7 6.1 1 .3-.3-1.2zm4.2-4.9.4-.8h-.9zm-7.3.6-.6-.5-.2.9zm-3.5 5.5.6 1.1.5-1.1zm2.8 11.8-1.1-.9v1.3zm-3.8 10-1.2-.8v1.4zm6.1-17.9.1.5-.1-.1v2.1l1-.3-.6-.5.2-.1 1.4.2-.6-1.6-.3.6zm.8 1.1zm3.9-12.6-.8.1-.2-.3-.1.3-.3.1.2.3-.1.1h.1l.7.6zm-9.6 12.3 1.2.4-.2-1zm-5.2 5.9-1.1-.1.6 1.1zm-9.1 48.8-.7-1.6-.9 1.4zm-2 9.4-.6-1.1-.5 1.1zm.9-6.2.7.7.3-.8zm-7.1 2.3-.1 1 .9-.6zm-2.6-3.2 1.1-.5-1.1-.5zm6.3 2-.1-1-.7.7zm-3.4-8.1.6.9.5-.8zm-.6-2.6-.1 1.1 1.1-.6zm5.4 2.6.8.3-.1-1zm-2.6-7.9.6.9.5-.8zm9.5 17.1.3-1.4-.7.6zM244 282.8l-.8 1.2 1.2.2zm-8.3-3.8-.1.9.9-.3zm5.2 1.6-.6.5.7.3zm-1.8-6-.8-.1.4.7zm-5.6 14.6-.1.9.9-.3zm5.2 1.6-.6.6.7.2zm-1.9-5.9-.8-.1.4.7zm-.5 3.4.9-.3-.8-.5zm5.1.9-.6.6.6.2zm-1.8-6-.8-.1.4.7zm4.6-2.7-1.3 1.3 1.4.3zm-1.5-2.4-.8-.1.4.7zm3.1 13.6-1-.2.2.9zm1.4-3.9h.9l-.5-.9zm-1.2-13.2-.7.4.8.5zm1.1 5.7.6-.6-.8-.1zm4.3-5.5-.4-.8-.3.8zm-2.2 6.8.8-.1-.6-.5zm-1.3 2.5 1.4-1.1-1.5-.3zm-1.3 7.3 1.3-1.2-1.6-.1zm-5 23.5.1-1.7-1.3 1zm4-21h1.4l-.7-1.6zm-7 28 1.1-.9-1.5-.6zm5.3-30.8.6-.5-.8-.1zm4.4-5.6-.4-.7-.3.7zm-3.8-7-.2.1.7.5-.1-.8-.2.1v-.4l-.6.4zm4.9-.5-.1-.8-.3.1-.6-.1.3.8.3-.3z"/><path d="m243.7 289.4.3.2v-.3l.9.6-.1-.9.2-.5-.9.1.2.3-.4-.1v-.1l-.2.1-1-.2.6 1.4zm.6-.5-.2.2zm-3.2-4h.6l-.3-.6zm.3-10.7-.8.5 1 .5zm5.4.1.8-.1-.5-.8zm-10.5 22.3-.1-.3-.1.1-.9-.5-.2 1.1 1-.3-.4.9 1.2.1zm-8.4-3.6-.1.9.9-.3zm5.4 2.5-.1-.8-.6.6zm-2.1-6.9-.8-.1.4.7zm5.3 19-1.1 1.5 1.4.2zm-1.2-8.7.2.4-.4.2-.1-.5-.6.5.9.4v-.3l1 .5-.2-.9.1-.5zm6.6 2 .6-.7-.9-.1zm3.9-5.6h.9l-.4-.9zm-5.8 13.4.7-.5-.9-.5zm-.3 2.1.7-.5-.9-.5zm.6-19.7-1.1-.3.4 1zm1.6 7.3-.7.7.8.3-.1-.8.8-.1-.6-.8zm-1.4 15.2-.4 1 .9-.1-.5-.6.6-.5-.9-.5zm2.8-11.3-.7.7.8.3-.1-.8.8-.1-.6-.8zm-6.6 2.9.4-.7h-.8zm3.3-6.3.7-.1-.5-.6zm-4-4.2v-.8l-.6.3zm5.8-.5.6 1.4 1.3-1.2-1-.2-.1-1.1-.9.5.8.5zm-8.2 4 .1-.4-1.1.1.6 1 .1-.3h.4zm-17.4 92.9-.8-.7.6-.5-1.1-.3.2.8-.1 1.2.5-.2.5 1.5 1.4-1.4-1.7-.2zm-4.7 8.9 1.1-.5-1.2-.8zm6.7-15.7 1.1-.5-1.2-.8zm2.4-12.7.8.6-.1-.1-.1 1.2 1.3-.4-.8-.5.4-1.1zm-15.1 38.3 1.1.9.4-1.1zm9-25.5-.2-1-.9.7zm-6.2 5.9-1-.1.6 1.1zm25.3-51-.4-3-2 2.2zm-11.5 21.9 2.5.9-.4-3zm-5.5 26.9.5 2.6 2.5-1.8-.1-.1.9-1h-1.2l-.1 1zm3.5-6-.5-3-1.9 2.2zm-7.1 20.7-2 2.2 2.6.9zM244 297l1.6 2.1.7-2.4zm-16.4-17.3.9-.3-.8-.5zm5.2.8-.6.5.6.3zm7.6-2.4-.8-.1.4.7zM225.1 289l-.1 1 .9-.3zm5.2 1.8-.6.5.7.3zm-1.9-6.1-.8-.1.4.7zm-.5 2.7-.1.9.9-.3zm5.2 1.8-.6.5.7.3zm-1.7-6.1-.8-.1.4.7zm2 2.2.5 1.4.6-.5.3.2v-.4l.4-.3-.4-.1v-.2l-.2.1zm1.9 5.3.1.7.6-.5zm4-4.9h.7l-.4-.7zm-6.6-.8h.6l-.3-.6zm13-16.3-.8.5.9.6zM235.6 280l-.9-.1.2.8zm-.1 21.7-.9 1.4 1.5.2zm-14.7 10.2.9-.8-1.2-.1zm6.4-1.2-.4.9h.8zm-1.9-13.9-1-.2.4.9zm-3.8 36.7-.5 1.2 1.2-.1zm1.1-7.8.8.8.2-1zm-8.3 5.1.1 1.2.8-.8zm10-30.6-.2 1 1.2-.3zm6.3 3.5v-1l-.7.7zm-2.2-8.1.6-.6-1-.3zm8.9 9.4.6 1.7 1.5-1.5zm3.6 5.7 1.4 1.1.5-2.1zm.6-5.3.6 1.7 1.5-1.5zm-7.1 5.7-1.8.4 1 1.3zm9.6-6.2.4-1.7-2.1.4zm-5.1 8.4 1.6-.5-1.4-1.4zm4.2-12.1 1.7.2-.7-1.9zm-11.5-2.6 1 .8v-1.2zm1.8 10.3.5-.9-.9.2zm5.4-10.9-.4.9.9.1zm-7.6-.8-.3-.8-.3.7zm-2.6 24v.2h-1.3l.6 1.3.7-.9.1 1.3 1.4-.9zm-11.1 2 .6.9.5-1.1zm7.1-1.4-.7-.7v1zm-6.6-7.4-.9.5.9.4zm9.4 2.7-.3 2.2 1.9-.6zm15.7-7.9.1-2.2-1.7 1.3zm-10.3 23.5-1.8-1.3.1 2.2zm.8-9.8-.2 2.2 1.8-.5zm2.2-6.3-1.5-1.6-.3 2.2zm-5.3 8.1-.5-1.1-.8.8zm5.6-5.1-.4 1.3 1.2-.3zm-8.2-9.1.9.9.4-1.1zm1.3 14.1-.4 1 1.3-.1zm5.3 5.1.2-1.1-.8.5zm.3-8.8-1-.4.4 1zm-8.6-2.8v-.5h.6l-.7-.7-.2.3-.7.4zm.6 6.4.3.9.5-.5zm-2.2-16.3-.7 1 1.4.1zm3.4-8.2-.5 1.1h1zm12 19.1.8-3-3 1.2zm-27.5 1.9.6.9.6-1zm6.5-3-.7-.7-.3 1zm-4-22.2-1-.2.4 1zm-1.3 19.6.5.9.7-1zm7.4-1.1-.5.9h.9zm-2.2-21.1-1-.3.3.9zm11.9 20.3.5.9.7-1zm6.4-.6.9-.2-.7-.7zm-4.4-9.1.5-.7-1-.2zm-12.4 1.9-.9.5 1.1.7zm3.7 8.7.3-1-1 .4zm4.5-17.1-.5.9h.9z"/></g><path fill="#2d7f7f" d="m190.5 411.6-1-.2c.2-1 17.8-97.9 18.6-103.5.8-5.6 10.4-99.2 10.5-100.1l1 .1L209.1 308c-.8 5.8-18.4 102.7-18.6 103.6z"/><path fill="#053a39" d="m235.6 339.2-1-.3c.1-.4 12.4-42.4 15.3-56.3 2.9-13.9 17.6-74.3 17.8-74.9l1 .2c-.1.6-14.9 60.9-17.8 74.8-3 14.1-15.2 56.1-15.3 56.5z"/><linearGradient id="l" x1="235.4" x2="233.9" y1="235" y2="202.3" gradientUnits="userSpaceOnUse"><stop offset="0" stop-color="#00394a" stop-opacity="0"/><stop offset="1" stop-color="#00394a"/></linearGradient><path fill="url(#l)" d="M197.4 247.4s10.6-7.6 22.3-10c31.9-6.7 54.5 2.6 54.5 2.6l-2.2-32.2h-71.7z"/><g fill="#044649"><path d="m230.9 212.7-.3 1.4 1.6-.4zm-2.3-3.5-.2 1.5 1.6-.4zm5.9.5h.9l-.4-.9zm-5.4 5.5 1.5 1 .3-2zm-4.4-5.6 1.4.9.4-1.9zm-3.8-.6 1.5 1 .3-2zm8.2 0 1.4 1 .3-2zm.6 2.3 1.4 1 .4-2zm-3.2-.2 1.5.9.3-1.9zm7.9 0 1.4 1 .4-1.9zm-2.1-.4 1.5 1 .3-1.9zm-22.1 2.5 1.5.9.3-1.9zm9.7 1 .4-1.7-1.9.3zm-6.3-1.2.5-1.7-2 .3zm10.9.6-.3 1.5 1.6-.5zm8.1-.1-.2 1.5 1.6-.5zm-21.5 1.8-.3 1.5 1.7-.4zm11.1-2.5-.2 1 1.1-.2zm6.7 0h-.8l.4.9zm-4.5 7.2-.3-.9-.7.6zm2.2 3.4 1 .2-.3-1.1zm-.1-6.7v.8l.9-.4zm7.1 4.5-.8.3.6.7zm-21.1 4.1 1 .3-.3-1.2zm-.1-6.6v.8l.9-.4zm7.2 4.5-.8.2.5.7zm-17.4 1.5h1l-.4-1zm-1-6.7.2.8.7-.5zm7.7 3.6-.8.4.7.6zm-5.4 1.9 1 .2-.2-1.1zm-.1-6.7v.9l.9-.5zm7.2 4.5-.9.2.7.8zm-9-7 .7.9.5-1.1zm3.9-5.4-.4.7.9.1zm3.1 7.9-.7-.3v1zm12.7-2.4v1.9l1.9-.9zm-1.3 3.7-.9.2.7.7zm-10.8-1.4.5-.9h-1.2zm4.3-.1.7-.7-1-.4zm-5.6-3.7.8.4.1-.9z"/><path d="m215.7 209.6-.2.8.9-.1zm-6.7 8.6 1.4.2-.5-1.5zm-1.3-8.8.2 1.1 1.1-.7zm10.3 4.7-1 .5 1 .9zm-2.2-3-1 .5 1 .9zm-7.2 3.2.8-1-1.4-.4zm-7.4-3.7.8.5.1-1.3zm18.1 6.5.8-.7-1.1-.5zm-5.5-3.8.7.5.2-1zm7.9-3.2-.3.8.9-.1z"/><path d="m222.6 209.1-.2 1.4 1.6-.4zm-1.6 1.6.7 2.2 2-1.7zm2.8 1.3 2 1.2.3-2.6zm-13.1-.8 2 1.2.4-2.6zm-5 .1 2 1.2.3-2.5zm-.8 1.2.7-2.2-2.5.2zm1.9 2.2-.5-1.6-1.5 1.2zm-4.2-.8-.7-1.5-1.2 1.4z"/><path d="m211 213.4-.5-1.7-1.5 1.3zm-7.2 0-.5-1.7-1.4 1.3zm.3-3.7 2 1.1.3-2.5zm14.8.7-.2 1.4 1.6-.4zm-2.8 1.7-.2 1.5 1.6-.5zm13.6 6.4 1 .2-.3-1.1zm2.2-1.5.4-.7-1-.1zm-2.7 3.4v.8l.8-.4zM213.7 210h.9l-.4-.9zm11.5 3.5.1.8.8-.6zm-15.7-4.8 1.5 1 .2-1.7z"/><path d="m214.3 207.8-3.3.1 1.4 3.2zm-3.5.1h-3.4l1.5 3.2zm7.7-.1h-3.3l1.4 3.4zm3.8 0H219l1.4 3.4zm-17.6 0-3.2.1 1.2 3.2zm-3.1 11.3-1.9-1.1-.2 2.5zm24.5-11.1-3.3-.1 1.3 3.4zm3.4-.2h-3.4l1.6 3.4z"/><path d="m233.6 207.9-3.4.1 1.6 3.3zm-30.2 1.5 1.4 1 .4-1.9zm3.5-1.3-.3 1.8 1.9-.5zm-6.5-.2-.2 2.1 1.7-.4zm-.2 2.6-.2 2.6 2.3-.7zm-.3 5-.2 2.2 2.1-.7zm3.6-1.8-.5 2.5 2.3-.5zm3.6-2.3-.7 3.2 3.1-.6z"/><path d="m199.3 223.3-.2 2.3 1.3-1.3zm1.6-2.5-.2 1.4 1.3-.3zm1.9-2.1-.2 1.2 1.1-.2zm8.3-6.1-.4 2.3 2.1-.5zm-6.6 3.6.7 2.1 1.7-1.4zm-2.8-1.1-.1 2.1 1.8-.7zm6.1 2.4.7-.6-1-.5zm-5.6-3.7.7.5.2-1zm7.8-3.3-.2.8.9-.1zm5.7 8.2.6-.5-.8-.4zm5.7.8 1.1-.8-1.5-.8zm-8.2-1.3.7-.5-.9-.4zm1.8-1.8.6-.6-.8-.4zm-5.7 2.1-.2.6h.8zm5.2 6.9 1.2-.4-.8-1zm-3.7-6.6.4.9.7-.9zm9.5.6-.7.6 1 .4zm31.9-6.8-.2 1.5 1.6-.5zm-2.2-3.4-.2 1.5 1.6-.5zm.5 6 1.4 1 .4-2zm-4.4-5.6 1.4.9.4-1.9zm-4.1-.7 1.4.9.3-1.9zm8.4.1 1.5 1 .3-2zm.7 2.2 1.4 1 .4-1.9zm-3.2-.2 1.5 1 .3-1.9zm5.8-.3 1.5.9.3-1.9zm-19.1 2.3 1.5.9.3-1.9zm6.2.9.4-1.7-1.9.3zm-2.8-1.1.5-1.7-2 .3zm7.3.5-.2 1.5 1.6-.5zm8.7.2-.2 1.5 1.6-.5zm-10.4-.7-.2 1 1.1-.2zm6.7 0h-.8l.4.9zm-4.6 7.1-.2-.8-.7.6zm2.3 3.5 1 .2-.3-1.2zm-.1-6.7v.8l.9-.4zm7.1 4.5-.8.2.6.8zm-19.4 5.3 1 .3-.3-1.2zm-.1-6.7v.9l.9-.4zm7.1 4.6-.7.2.5.7zm-7-8.9v1.9l1.9-.9zm4.2 3.4-.9.3.7.7z"/><path d="m235.9 216.4.8-.7-1-.4zm-5.5-3.8.8.5.1-1zm7.8-3.2-.2.8.9-.1zm-4.5 7.7 1.3.2-.5-1.5zm-1.3-8.5.2.8 1.1-.7zm10.3 4.5-1.1.5 1 .8zm-13.4 4.4 1-.9-1.3-.5zm-6.8-4.8.9.7.2-1.2z"/><path d="m232.2 208.8-.3 1 1.2-.1zm11.9 8.3.8-.7-1.1-.5zm-5.5-3.9.7.5.2-.9zm7.8-3.2-.2.8h.9zm-2.9-1.3-.2 1.5 1.6-.4zm-1.4 1.9.6 2.2 2-1.7zm3.1 1.4 1.9 1.2.4-2.6zm-12-1 2 1.2.4-2.6z"/><path d="m240 210.2-.3 1.5 1.7-.4zm-.5-1.8-.3 1.4 1.6-.4zm11.6 10.1.9.2-.3-1.1zm2.1-1.5.5-.8h-1zm-2.6 3.3v.9l.8-.5zm-12.4-10.5.8.1-.3-.9zm8.4 3.7.1.8.8-.6zm-12.4-4.4 1.4.9.4-1.9z"/><path d="m239 207.9-3.3-.1 1.3 3.4zm4.2 0-3.3-.1 1.3 3.4zm3.9.1-3.3-.1 1.4 3.5zm3.6-.1-3.3.1 1.5 3.3zm4.2 0-3.3.1 1.5 3.3zm-14.9 9.3.6-.5-.8-.5zm2.2 2 1.2-.8-1.5-.8zm-4.7-1.3.7-.5-.9-.4z"/><path d="m239.7 216.8.6-.5-.8-.4zm3.2 5.7.9-.8-1.2-.6zm-5.9-4.7.7.5.3-1zm9-3.1-.4.9h1.1zm14-1.7-.2 1.5 1.6-.5zm-2.2-3.3-.3 1.4 1.7-.5zm5.8.3h.9l-.4-.9zm-6.5 5.5 1.5 1 .3-2zm1.1-6.1 1.4 1 .3-2zm.6 2.2 1.5 1 .3-1.9zm-3.6-.4 1.5 1 .3-2zm8.3.2 1.5 1 .3-2zm-2-.3 1.5.9.2-1.9zm.3 2.8-.2 1.4 1.6-.4zm-10.9-.8-.2 1 1.1-.2zm6.7-.2-.9.1.5.9z"/><path d="m253.1 220.1-.2-.8-.7.7zm2.3 3.5 1 .1-.2-1.1zm-.1-6.8v.9l.8-.4zm7.2 4.5-.9.2.7.7zm-3.6-2.4 1 .2-.3-1.1zm2.2-1.5.4-.8h-1zm-3.1 3.1v.9l.8-.5zm.7-12.5-3.4-.1 1.4 3.4zm3.6-.2-3.3.1 1.6 3.3zm1.5 5.5 1.5.9.2-2zm5.8.6.4-1.6-1.9.3zm3 .1-.2-2.4-2 .4zm-3.4 2.4.5 1.8 1.6-1.5zm3.7 2.3-.8.4.9.6zm-8.3-1.8.7-.7-1-.4zm-5.6-3.7.7.4.2-.9z"/><path d="m267.9 213.7-.3.9.9-.1zm-7.3 2.6 1-.6-1-.4zm-8-4.3.8.5.2-1.1zm9.6-4.2-.3 1 1.2-.1zm-62.3 5.9-.1 1.5 1.6-.4zm68.5 3-1.5-1-.5 1.9zm-6-5.4 2 1.2.3-2.6zm6.3-1-.2 1.4 1.6-.4zm-.5-1.9-.2 1.5 1.6-.5z"/><path d="M267.3 210.1h.9l-.4-.9zm-4-.7 1.5.9.3-1.9z"/><path d="M267.5 207.8h-3.3l1.4 3.4zm4.4.1h-3.3l1.4 3.4z"/><path d="m272.9 217.3-.2-2.4-1.5 1zm-.6-6.5-.1-2.4-1.6 1zm-.5 10.9.8-1.2-1.6-.3zm0-3.5.4-.8-1-.1z"/></g><g fill="#044147"><path d="m247.4 316 1.3.5-.1-1.6zm-3.8 1.3 1.4.5-.1-1.6zm2.4-5.4.2-.8-1 .1zm3.4 6.4 1.2-1.2-1.7-.8zm-6.4 3.4 1.3-1.2-1.8-.8zm-1.5 3.4 1.3-1.2-1.8-.7zm1.9-8.3 1.4-1.1-1.8-.8zm2.4 0 1.3-1.2-1.8-.8zm-.9 3.5 1.2-1.1-1.7-.9zm2.4-8 1.2-1.2-1.7-.7zm-1.4 1.8 1.2-1.2-1.7-.7zm-2 17.3 1.3-1.1-1.8-.8zm1.9-3.6-1.4-.9-.3 1.9z"/><path d="m244.6 328.1-1.4-.9-.3 2zm2.2-5.2 1.3.6-.1-1.6zm1.8-8.4 1.3.6.1-1.6zm-2.9 18.5 1.3.6-.1-1.6zm-.3-8.2 1 .5v-1.1zm1.7-6.4-.2.9.9-.2zm5.6 6.2h-.9l.5.9zm3.9-1.3.4-.8-1.1-.1zm-6.5-1.6.9.2-.2-.9zm6.1-5.6.1.8.9-.3zm-2.8 26.4.5-.9-1.1-.1zm-6.3-1.8.8.3-.2-1zm6.2-5.5-.1.8.9-.3zM240.7 360l1.1-.1-.7-.9zm-2-6.3.2.8.7-.6zm8 2.1-.7.5.8.5zm-3.4-6.3 1-.2-.5-.9zm-2.1-6.2.3.7.7-.7zm8.1 2-.7.4.7.5zm-11 4.6.9.7.3-1.1zm2.7-5.9-.3.7h.9zm4.5 6.8-.8-.1.3 1zm1.2-19.6 1.7.5-.3-2.1zm4.4-3.1v.8l.8-.3z"/><path d="m246.5 335.2-.7-.8-.4 1.1zm1-4.1-.4-.9-.8.8zm-5 4.1.6-.5-.8-.4zm-1-8.2.7.5.2-.9zm6.1 6.4.4-1.2h-1.5zm-8.7-1.1 1.1.1-.4-1.2zm7.2-8.5.2 1.2 1.1-.7zm-.7 24 .5-1-1.3-.1zm-8-1.8 1 .4-.1-1.2zm7.4-7.1.1 1 1.1-.6zm5.2-15-.4-1-.7.9zm-5 4.1.6-.5-.8-.4zm-.9-8.2.7.5.2-.9zm-2.1 3.6 1.3.7.1-1.7zm1.2 2 2.2-.1-1.1-2.3zm1.9-2.3 1.5-1.5-2.2-1.1z"/><path d="m241.6 332.1 1.7-1.5-2.3-.9zm-.6 4.9 1.6-1.6-2.3-1zm.3 4-1.7-1.2-.7 2.3zm3.2-4.2h-1.7l.7 1.8zm-5.3 12.6-1-1.3-1 1.6zm4.5-16.9h-1.6l.8 1.7zm-3.1 13.7-1.1-1.2-1 1.5zM239 338l1.7-1.5-2.4-1.1zm3-10.4 1.3.6v-1.6zm-1.9.1 1.3.5v-1.6zm12.6-9.2.4-.9H252Zm-.9-2.4-.6-.6-.3.9zm2.6 4.1.8.2-.2-.9zm-13.3 9.1.3-.9-1 .2zm5.7-7.1h.8l-.3-.9zm-7.3 8.7 1.3-1.2-1.7-.8z"/><path d="m239.7 326.2-1 3.1 3.6-.5zm-1.6 5.1-.9 3.1 3.6-.3z"/><path d="m240.1 324.1-.9 3.1 3.6-.4zm-3.5 15.7-1 3.1 3.5-.3zm-.1-3.5-1 3.1 3.5-.3zm3.2 18.8-3-1 .4 3.6z"/><path d="m241.5 320-1 3.2 3.6-.4zm.9-3.4-.8 3.1 3.5-.6zm.8-4.3-.8 3.2 3.6-.7zm-4.7 26.3 1.4-1.1-1.7-.8zm-.8-3.6 1.6.7.1-1.9zm-.1 9.1-1.3 1.1 1.6 1z"/><path d="m237.3 343.3-.8 1.5 1.9.2zm-1.4 3.2.2 2.5 2.2-1zm.6 4.8.3 2.5 1.7-1.1zm3.2-4.5.4 3.2 2.7-1.5zm-.8-4.7 1.7 2.8 1.8-2.6zm4.5 2 2.4-2-2.7-1.5zm-3.2-9.9 2.4-2.2-2.7-1.2zm1.3 1.5 2.8 1.4.2-3zM237 359l.3 2.7 2.4-1.3zm.4 3.9.2 2.1 1.8-1zm1.1-6.7.2 2.3 1.8-1zm2.2-4.1.2 2.3 1.8-1.1zm-2.6 9.3 1.3 1.4.7-1.6zm0 4.3 1.3 1.4.8-1.6zm3.6-18.9 1.4 1.4.6-1.7zm-5.8-9.3 1.9-.5-1.2-1.5z"/><path d="m243.1 332.2 2 1 .1-2.1zm-1.5 17.1 1.4 1.9 1.1-2zm-1.9-10.6 2 1.2.2-2.2zm-1.4 11.7.3 3.2 2.6-1.5zm7-1.6.5-.9h-1.2zm-6.5-1.5.9.2-.2-.9zm6.1-5.9v1l.9-.4zm3.8-11.9-.3-.8-.7.7z"/><path d="m251.2 327.8-.4-1.3-1.2 1.2zm-1.8 2.1-.3-.8-.6.8zm-1.1-.2-.4-.7-.6.6zm-1.3 7.5 1.4-1.1-1.9-.8z"/><path d="m248.1 335.5.6.5.1-.8zm7.2-9.3-.6-1.1-.8.9zm-6.1 4.2.7-.6-.9-.5zm-.4-9.4.7.7.3-1.1zm4.2-25.3 1.3.5v-1.6zm-3.8 1.3 1.3.6v-1.7zm5.8 1 1.3-1.1-1.9-.9zm-6.5 2.8 1.3-1.1-1.7-.8zm-1.6 3.8 1.3-1.2-1.8-.8zm2.1-8 1.4-1.2-1.8-.8zm2.3-.1 1.4-1.2-1.9-.8zm-.9 2.9 1.3-1.1-1.8-.7zm1.1-5.5 1.3-1.2-1.8-.8zm-2.5 18.7 1.4-1.2-1.9-.8zm2.4-5.7-1.5-.8-.2 1.9zm-1.6 2.4-1.6-.8-.2 1.9zm2.1-6.8 1.4.6v-1.7zm2.3-8.3 1.4.7-.1-1.7zm-3.1 9.8.8.4.2-1.1zm1.6-6.4-.3.8 1-.1zm5.6 6.1h-.8l.4.8zm3.8-1.3.5-.9-1.1-.1zm-6.3-1.6.8.2-.2-1zm6-5.7v.9l.8-.5zm.3 19.8.5-.9-1.1-.1zm-6.2-1.5.8.2-.3-.9zm5.9-5.7v.7l.9-.3zm-10.1 4.6 1.8.4-.5-2z"/><path d="M256 309.1v.9l.9-.5zm-3.8 3-.5-.9-.7.8zm-5 4.3.7-.6-.9-.4zm-1.2-8.3.7.5.2-.9zm6.3 6.3.4-1.3-1.5.1zm-8.8-1 1.1.1-.3-1.2zm7.1-8.6.2 1.1 1.1-.6zm.4 12.9-.5-1.2-.9 1.2z"/><path d="m244.9 322.9.8-.6-1.2-.6zm-1.4-10.1.8.5.3-1.1zm11.7-8.3-.4-.9-.8.9zm-4.9 4.4.6-.6-.8-.4zm-1.2-8.3.8.5v-.9zm-1.9 2.5 1.4.5-.1-1.6zm1.4 1.8 2.2-.1-1.1-2.3zm2-2.7 1.6-1.6-2.3-.8zm-4.3 11 1.7-1.4-2.4-1zm1.4-6.4 1.4.6v-1.7zm-1.9.1 1.4.5v-1.6zm12.4-8.6.5-1-1.2.1zm-.9-2.5-.6-.6-.3.9zm2.6 3.4.8.1-.3-.8zm-13 9.2.3-.8-.9.1zm5.5-7.1.9.1-.5-.9z"/><path d="m245.3 312 1.2-1.2-1.7-.7z"/><path d="m244.7 307.1-.9 3.2 3.6-.5zm1-3.7-.9 3.2 3.6-.5zm1-3.8-.9 3.1 3.6-.4zm1-3.6-.7 3.2 3.6-.7zm1-4.1-.8 3.3 3.6-.8zm5.6 16.6-.3-.7-.6.6zm2.5-1.7-.5-1.2-1.1 1.1zm-2.4 4.2-.3-.7-.6.7z"/><path d="m253.9 308.7-.3-.7-.6.6zm6.2-1.7-.5-1.1-.9.9zm-5.9 4.5.7-.6-1-.5zm-.8-9.4.7.7.3-1.2zm1.7-14 1.4.6-.2-1.6zm-3.7 1.7 1.4.5v-1.6zm1.6-5.7.2-.8-.9.1zm4.3 6.6 1.2-1.2-1.8-.8zm-6.1-1.6 1.3-1.1-1.9-.7zm2.3-.1 1.3-1.1-1.9-.8zm-1.1 3.6 1.2-1.2-1.7-.7zm2-8.1 1.2-1.2-1.9-.7zm-.9 1.9 1.2-1.2-1.8-.7zm2.7.3 1.5.5-.2-1.6zm.8-17.6 1.1.9 1.3-1.1zm-3.9 28 .9.5v-1.1z"/><path d="m254.6 290.7-.2.8.9-.1zm5.8 6h-.9l.4.9zm3.7-1.9.5-.8h-1.2zm-6.4-1.2.8.1-.2-.9zm5.8-6 .1.8.7-.3zm-2.9 3.2.3-.8h-1.1zm-1.2-2.7-.6-.5-.2.9zm2.4 4.1.9.1-.3-.9zm-12-4.7-.9 3.2 3.6-.5z"/><path d="m250.6 284.9-.7 3 3.6-.6zm2.8-7.9 1.2-1.2-1.7-.6zm2.7 7.7 1.2-1.2-1.8-.8zm1.9-5.5-1.5-.8-.1 2zm-1.4 2.1-1.5-.8-.1 1.9zm2.1 3 1.9.3-.6-2zm1.1-7.7.1.9.8-.5zm2.1-1.2-.5-.8-.7.9z"/><path d="m257.1 280 .6-.7-.8-.3zm-1.4-8.1.7.3v-.9zm2.6 17.5-.6-1-.8 1.1zm-5.9 5.7.8-.7-1.1-.5zm-1.8-10.1.8.5.2-1.1zm-14.4 64.6.3 1.4 1.4-.9zm21.1-68.3 2.3-.2-1.1-2.2zm-2.2-12.1 1.4 1.8.4-1.9zm0 4.4 1.2.9.4-1.7zm3-1.8 1-1.2-1.7-.6zm-3.5 5.3 2.3-.2-1.2-2.2zm-1.1-5.3 2.3-.3-1.7-2.2zm.4 13.7 1.6-1.6-2.4-.8zm.5-6.2 1.3.5-.1-1.7zm-1.9.1 1.3.5-.1-1.7z"/><path d="m253.9 280.6.1-.8-.9.2zm-1.6 3.6 1.2-1.2-1.7-.6z"/><path d="m251.7 279.9-.8 3.1 3.6-.5zm.9-4.1-.7 3.2 3.4-.5zm.7-3.5-.7 3.2 3.4-.7zm7.6 9.4-.4-.8-.5.8zm-2.5-4.6-.6-1.3-1 1.2zm3.1 5.8-.4-.8-.6.8zm-1.4-17.5 1.3.6-.1-1.6zm-3.9 1.3 1.4.6v-1.7zm5.9 1 1.2-1.1-1.8-.8zm-6-1.4 1.4-1.1-1.9-.9zm2.3-.1 1.4-1.2-1.9-.8zm2 4.1 1.4-1.2-1.9-.7zm-1.8-6.7 1.2-1.2-1.7-.8zm2.7.4 1.3.6v-1.7zm-3.1 9.7.8.4.1-1.1zm1.6-6.4-.3.9 1-.2z"/><path d="M265.4 273.4h-.8l.4.8zm.3 4.8.5-.9-1.2-.1zm-6.4-1.6.8.3-.1-1zm6-5.7.1.9.8-.4zm0-2.9.5-.9h-1.2zm-.9-2.5-.6-.6-.3 1zm2.6 3.4.8.2-.3-.9zm-12.3-3-.6 3.2 3.6-.7zm1-4.2-.8 3.3 3.6-.8zm6.5-3.8 1.3.5-.1-1.6zm-3.7 1.6 1.4.5-.1-1.6zm1.6-5.7.1-.8-.9.2zm4.2 6.6 1.3-1.1-1.8-.9zm-6.1-1.6 1.4-1-1.9-.8zm2.3-.1 1.4-1.1-1.9-.8zm-1.1 3.7 1.3-1.3-1.8-.7z"/><path d="m261.4 254.2 1.2-1.2-1.8-.6zm-.8 1.9 1.2-1.2-1.8-.7zm2.7.3 1.4.5-.1-1.6zm.5-17.5 1.2.9 1.2-1.1zm-3.7 27.9 1 .5v-1.1zm1.5-6.4-.1.9.9-.2zm5.8 6h-.9l.5.9zm2.8 1.8.4-.9h-1.1zm-6.4-1.3.8.2-.2-.9zm5.8-5.9.1.8.7-.4zm-1.9-.4.3-.9h-1.1zm-1.2-2.7-.6-.6-.2.9zm2.4 4 .8.2-.2-.9zm-12.3-3.5-.8 3.2 3.5-.5zm1-4-.7 3.1 3.6-.7zm2.6-7.6 1.3-1.1-1.8-.7zm2.9 7.6 1.3-1.2-1.8-.8zm1.7-5.4-1.5-.8-.1 2zm-1.3 2.1-1.6-.8-.1 1.9zm2.5-12.7 1.8.3-.5-2z"/><path d="m266.6 246.4.1.9.9-.5zm2.2-1.2-.6-.8-.6.9zm-4.8 4.6.5-.7-.8-.3zm-1.5-8.1.7.3v-.9zm2.9 17.4-.6-1-.8 1.1zm-5.9 5.7.7-.7-1-.5zm-1.8-10.1.8.5.2-1.1zm6.5-3.6 2.2-.2-1.1-2.2zm-2.3-12.1 1.4 1.8.4-1.9zm0 4.4 1.3.9.3-1.7zm3-1.8 1-1.2-1.6-.6zm-3.5 5.3 2.3-.2-1.2-2.2zm-.7-5.5 2.2-.3-1.6-2.2zm.3 13.8 1.6-1.6-2.4-.8zm.2-6.1 1.3.5-.1-1.7zm-1.9.1 1.3.5-.1-1.7z"/><path d="m260.7 250.4.1-.8-.8.2zm-1.3 3.6 1.2-1.2-1.7-.7z"/><path d="m258.5 249.7-.7 3.1 3.5-.5zm1.1-4.2-.7 3.1 3.4-.5zm1-3.8-.8 3.2 3.5-.7zm7.1 9.8-.4-.8-.5.8zm-2.4-4.6-.6-1.3-1.1 1.2zm3.2 5.7-.3-.8-.7.8zm-.9-17.4 1.3.5-.1-1.6zm-4 1.7 1.5.6-.1-1.6zm1.9-5.7.1-.8-.9.1zm4.2 6.6 1.3-1.2-1.9-.8zm-6.3-1.5 1.3-1.1-1.9-.8zm2.3-.2 1.3-1.1-1.9-.7zm1.1-4.5 1.2-1.2-1.8-.7zm-1.1 1.9 1.2-1.2-1.7-.6zm3 .2 1.4.5-.1-1.6zm3.2 1.5-.7-.5-.1.9z"/><path d="m262.1 235.7-.9 3.2 3.6-.5zm.7-3.7-.7 3.1 3.6-.7zm3.1-7.9 1.2-1.2-1.8-.6zm2.6 7.6 1.2-1.1-1.7-.8zm1.9-5.4-1.4-.8-.2 2zm-1.3 2.1-1.6-.8v1.9zm-3 14.6 2.3-.2-1.1-2.2zm1-28.4 1.4 1.8.4-1.9zm.4 6.1 1.3.9.4-1.7zm-.4 3.4 2.3-.1-1.3-2.2zm-.8-5.4 2.3-.3-1.7-2.2zm-.2 14 1.6-1.6-2.4-.9zm.7-6.3 1.4.5-.1-1.7zm-1.9.1 1.4.5-.1-1.7z"/><path d="m266.3 227.7.2-.8-.9.1zm-1.5 3.6 1.2-1.2-1.8-.7z"/><path d="m264.2 226.9-.8 3.2 3.6-.5zm1.1-4.1-.8 3.1 3.5-.5zm.9-3.8-.8 3.1 3.5-.6zm7.1 9.8-.3-.8-.6.8zm-2.4-4.6-.6-1.3-1 1.2z"/></g><path fill="#cc7a5e" d="m321.9 117.5 2.7-2.2 5.3-4.6c1.3-1.2 9.5-16.3 9.5-16.3l-8.2-2.8-9.4 7-3.7 8z"/><path fill="#1f2b36" d="m335.9 82.1 3.8.6c1 .1 1.5 1.3.9 2.1l-14 19.7c-.4.4-.9.7-1.5.5l-6.6-1.7 15.9-20.8c.5-.4 1-.5 1.5-.4z"/><path fill="#e89976" d="M297.9 127.4s14.8-16.2 16-18.7c.6-1.2 2.1-6.6 2.5-8.6.4-2.4 2.4-4.3 3.9-5.7 1.5-1.4 7.7-3.7 7.7-3.7s.7 1.6-.1 2.9c-1.6 2.8-5 4.2-5 4.2s-1.6 4.2-2.5 5.9l-.9 1.7s1.1-.3 3.6 2.5c2.4 2.8 1.1 7.3 1.1 7.3l-15.3 22.5z"/><path fill="#ea9d7d" d="M332.6 90.7c.7-1.3 2.9-.6 3.7 0 .8.5 3.6 1.7 2.8 3.1-.8 1.4-2 1.6-3.9.7-1.8-.8-3.1-2.7-2.6-3.8z"/><path fill="#cc7a5e" d="M337.2 95.6c-.8 0-1.5-.3-2.1-.6-2-.9-3.6-3-2.9-4.5.3-.5.7-.8 1.2-.9 1.1-.3 2.5.3 3.2.7 1.3.7 2.9 1.5 3.2 2.6.1.4.1.8-.1 1.2-.8 1.1-1.7 1.5-2.5 1.5zm-4.2-4.7c-.3.8.7 2.3 2.4 3.2 1.9.9 2.7.4 3.2-.5l.1-.4c-.4-1.1-2.6-2-2.7-2.1-.5-.4-1.7-.8-2.4-.6z"/><path fill="#ea9d7d" d="M327.9 99c.2-1.5 2.5-1.6 3.4-1.3.9.2 4.5.4 4.2 2.1-.3 1.7-1.8 2-3.9 2-1.9-.3-3.8-1.6-3.7-2.8z"/><path fill="#cc7a5e" d="M332.2 102.3h-.5c-2.2-.3-4.4-1.7-4.3-3.3.1-.5.4-1 .8-1.3 1-.7 2.5-.6 3.2-.4l.7.1c1.2.2 3 .5 3.6 1.4.2.3.3.7.3 1.1-.3 2-1.9 2.4-3.8 2.4zm-3.8-3.2c-.1.8 1.5 2 3.4 2.2 2.2.1 3.1-.3 3.3-1.5l-.1-.4c-.4-.6-2.1-.9-3-1a5 5 0 0 0-3.2 0c-.2 0-.4.4-.4.7z"/><path fill="#ea9d7d" d="M326.4 102.8c.1-1.3 2.2-1.3 3-1.2.8.1 3.5.2 3.3 1.6-.2 1.5-1.2 2-3 1.8-1.7-.1-3.4-1.2-3.3-2.2z"/><path fill="#cc7a5e" d="M330.5 105.6h-.8c-1.3-.1-2.7-.6-3.4-1.5-.3-.4-.5-.9-.4-1.3 0-.5.3-.8.6-1.1.9-.7 2.5-.6 3-.5l.5.1c.9.1 2.4.3 3 1a2 2 0 0 1 .3 1c-.3 1.9-1.6 2.3-2.8 2.3zm-1.8-3.5c-.6 0-1.2.1-1.5.4-.2.1-.2.3-.3.4l.2.5c.4.5 1.4 1 2.7 1.1 1.9.2 2.3-.4 2.5-1.4l-.1-.3c-.3-.4-1.6-.6-2.3-.7zm-2.3.7z"/><linearGradient id="m" x1="311.5" x2="299.3" y1="121.7" y2="137.5" gradientUnits="userSpaceOnUse"><stop offset="0" stop-color="#cc7a5e" stop-opacity="0"/><stop offset="1" stop-color="#aa5f4b"/></linearGradient><path fill="url(#m)" d="M311.5 116.4c7.9 5.3 5.9 8.8 5.9 8.8l-8 11.6-10.3-10.7 9-10c.7-.5 2.4-.3 3.4.3z"/><path fill="#ea9d7d" d="M329.4 94.8c.5-1.4 3.1-1.2 4.2-.9 1.1.3 4.8 1.2 4.1 2.8-.7 1.6-2.2 1.6-4.4 1.2-2.4-.3-4.4-1.8-3.9-3.1z"/><path fill="#cc7a5e" d="M335.3 98.7a9 9 0 0 1-2.2-.3c-1.7-.3-3.4-1.2-4-2.3-.3-.5-.3-1-.1-1.5.7-1.9 3.7-1.5 4.8-1.2l.5.1c1.6.5 3.4 1.1 3.9 2.2.2.4.2.8 0 1.2-.6 1.5-1.7 1.8-2.9 1.8zm-3.5-4.5c-.9 0-1.7.2-1.9.8 0 .1-.1.3.1.7.4.7 1.7 1.6 3.3 1.8 2.5.5 3.4.3 3.9-.9.1-.1.1-.3 0-.4-.4-.8-2.4-1.4-3.3-1.6-.2-.1-1.5-.4-2.1-.4zm-2.4.6z"/><g fill="#ad5c44"><path d="m308.8 133 .1.8-1-.3zm3.8-1.9h.6l-.2.5zm-4.8-7.1.5.4-.7.3zm-3.8 6 .4-.2.2.6zm6.4 1-.1-.6.6.1zm2.3-2 .7-.2-.2.8zm4.4-3.8-.7.9-.7-1zm-3.1 4.9-.7.9-.5-1zm1.8-2.7-.7.8-.6-1zm-4.4 1.5v.9l-.9-.4zm-1-3.8 1 .2-.6.8zm2.2 5.6-1.1-.2.6-1zm-1.1-3.4-.5.8-.5-.9zm-7.9.4.7.5-.8.4zm12.7-1.5-.5.9-.6-.9zm-7.8 5.6.9.3-.6.8z"/><path d="m308.9 132.5.9.1-.5.9zm6.1-4.6-.1.9-1-.6zm-8.2 3.5.9.4-.8.6zm7.9-2.4-.6.9-.7-1.1zm-6.1-3.3.8.5-.9.5zm1.3 7.6.8.5-.9.6zm-2.1 1.2 1.7-.6-.1 2.1zm-2.1-4.8-.9 1.6-1.4-1.4z"/><path d="m304.5 128.5-.1 1.2-1.2-.3zm2 1.9-.1 1.3-1.2-.5zm3.2 4.2h.6l-.2.6zm-4.9-7.8.6.3-.7.4zm-1.2.4.4-.3.2.7zm-.1-1.7.4-.3.2.7zm3.8 8.4-1.3-1.4 2.2-.5zm2.3-2 .7-.1-.2.7z"/><path d="m301 126.3.6-.2v.7zm6.4 4-.2-.6.7.2zm.4-.7h-.6l.3-.6zm7.2-2.9-1 .6-.1-1.2zm-2.4-2.6v.7l-.7-.4zm-5.1 2.7 1 .2-.7.8zm-1.4 4.8 1 .2-.6.9zm-.8-2 .9.3-.6.8zm6.8 2.5-1.1-.2.5-1zm2-7.2v.9l-1-.7zm-8.5 2.3.7.6-.9.5zm-4.5-.6.7.4-.8.6z"/><path d="m312.2 126.1.9.2-.6.9zm-.7 7-.8 1.1-.7-1.4zm.2-1.2-.3.8-.7-.6zm-10.4-4.1 2.2-.7-.4 2.4zm-1.6-1.7 1-.4-.2 1.1zm13.2 5.7-.8.7-.5-1.2zm-7.1-3.7.9.4-.9.6zm1.8 3.2 1.4-1.4 1 2.2z"/></g><path fill="#0a545a" d="M250.3 107.9s12.5 16.2 19.1 21.7c6.5 5.5 12.5 6 16.6 3.7a122 122 0 0 0 14.2-10.5c.5-.5 1.4-.4 1.9.1l12.2 12.5c.5.4.5 1.2.2 1.6-2.4 3.6-12 18.2-23.9 27.4-13.3 10.2-16.7 6.9-27.8-.1-14.9-8.7-12.5-56.4-12.5-56.4z"/><linearGradient id="n" x1="289.3" x2="243.8" y1="135.4" y2="158.3" gradientUnits="userSpaceOnUse"><stop offset="0" stop-color="#00394a" stop-opacity="0"/><stop offset="1" stop-color="#00394a"/></linearGradient><path fill="url(#n)" d="m291.9 129.7 15.5 16.8s-9.6 13.7-19 19.5c-6.5 4-12.8 8.6-21.7.3-15.9-14.7-6.9-46.8-6.9-46.8s5.4 7.6 12.1 12.1c3 2 6.4 3.1 9.4 3.2 4 0 10.6-5.1 10.6-5.1z"/><g fill="#0a4049"><path d="m270.9 137.7.3-1.7-1.5.3zm-5.7-6.9-.1-1.9-1.5.8zm3.6 4.7 1.8-1.1-1.5-1.2zm-5.2-8.2.8-.4-1-.5z"/><path d="m261.4 122.9.8-.1-1.3-1.5zm2.7 8.6 1.2-.4-1.2-1.5zm1.4-.3 2.2-.6-1.2-1.4zm-1.1-2.1 1.8-1-1.5-1.2zm4.1 10 1.7-1.1-1.6-1.1z"/><path d="m267.6 139.7 1.9-.8-1.4-1.3zm6.9 10.7-.2-1.9-1.4 1zm-3.7-10.9.7-1.7h-1.6zm2.9 9.4v-1.2l-1.1.4zm1.1 5.6-1.1-.2.2.9zm5.4-6.5-.5 1h.9zm6 6.1 1.3.3-.2-1zm-5.7-.3.5-.9h-.9zm5.2 6.8-.8-.7-.3.9zm-23.1-36-.3-1.8-1.4.8zm2 9.5.9-2.6-1.6-.1z"/><path d="m265.3 136.4 1.5-2.2-2.3-.5zm16.9 16 1.2-.1-.6-.9zm-8.1-16.2.1 1 .8-.5zm11 14.6.2-1-.9.3zM269 132.4l.3-1-.9.1zm-5-7-2.3-1.2 1.1 3.4z"/><path d="m266.7 128.2-3.9-.7.9 3.5zm2.4 8.3-4-.5 1 3.4z"/><path d="m269.8 139.9-3.7-.6.8 3.5z"/><path d="m270.8 143.3-3.9-.6.8 3.6zm-5.6-11.8 1.1 1.5.8-1.4zm5.8 6.9 1.9-.9-1.3-1.2zm-.5.3.2 2.1 1.6-1z"/><path d="m267.7 146.1.5 2 1.6-1.2zm1.7-1.7.7 2 1.4-1.3zm-.9-3.1.3 2.1 1.6-1zm5.3.6-.9-.9-.4 1zm4.9 3.1-1 .5.8.5zm-1-8.5.3 1.1.7-.6zm7.9 10.3 1-.7-1-.5zm-3.9 4.3-.3-.9-.7.5zm8.4.5-1 .1.5.8zm-16.8-6.4-.4-2.1-1.6 1.1zm1.9-5.1-1-.2.3.9zm7.7 6.4.4 1.1.8-.7zm-2.8-5 1-.1-.4-.8zm-3 7.8.1-1-.8.3zm-9.3-8.1 2.6-.9-1.8-1.8zm-1.4-1.6 1.7-1-1.5-1z"/><path d="m270.1 142.7 1.7.5-.2-1.5zm-3.8-8.4.9.5.1-.9zm7.9 25h2.2l-.8-1.7zm10.3-16.9 1.2.5v-1.1zm-5.6-.9.6-.8-.9-.2zm4.3 7.2-.7-.7-.4.8zm-4.3-4.1 1.1.6v-1.1zm-2.4 2.7-.4 1 .9-.1zm5.8-2.3.6-.8-.9-.3zm-6-4.5.1 1.8 1.4-.8zm-1.6 13.5 2.1.2-.6-1.9zm-1.8-8.4h2.1l-.7-1.7zm6.2 7.2.3-1.2-1.1.1zm-1 5.6-.9-.6-.2.9zm7.3-4.2-.8.7.8.3zm2.2-12.4 1.2-.1-.5-.9zm-5.6 1.4.3-1-1 .3zm6.9 4.9-.9-.3.1.8zm-3.5.2-.8-.8-.3.9zm-8.4-.5.3 1.2.9-.6zm-2.2-5.2h1.1l-.4-.8zm-3.9 7.5.3-1h-.9zm8.9-2.6.4.9.6-.7zm5.3 4.4.8 1.1.7-1z"/><path d="m280.7 147.3 1-.3-.7-.8zm-1.1 9.5v-1.2l-.9.5zm-8.2-10.3-1.5-.9-.2 1.7zm-.2 4.1.1-1.8-1.5.7z"/><path d="m272.2 149.1-1.6-.9-.2 1.6z"/><path d="m269.9 149.5 1.2 2.5 1.7-1.8z"/><path d="m268.2 148.2.6 2.5 2.5-2zm3.9 2.3 2-1-1.4-1.2zm.2 3.1 2.1-.6-1.3-1.4zm2.7-1.5.2-1.8-1.5.5zm-3.2.7v-1.7l-1.3.6zm1.8-7.3.9.4-.1-.9z"/><path d="m272.7 150.9-3.8-.3.5 3.5zm1.3 2.6-.3 2 1.6-.5zm4.2-.7.5.9.6-.7zm-2.9-4.3.8-.2-.4-.7zm-2.5 6.7.6-1.7-2 .7zm11.3-.3.3 1.1.7-.7zm-2.5-4.5.9-.1-.4-.7zm-2.9 7 .2-.9-.8.2zm-7.2.2.4-1.6-1.4.2zm.4-1.8.9.4v-.9z"/><path d="m276 170.9-.9-2.7-1.3 2.4zm-2.6-15.5-3.9-1 .6 3.5zm-3.2 2.8.5 2 1.4-1zm1.9-1.4.4 2.1 1.5-1.1zm7-.4-.8-1-.5 1zm4.2 3.8-.9.4.6.7zm.4-8.4.2 1 .7-.4zm-6.2 7.8-.5-2.3-1.5 1.2zm-2-2-.8-2.1-1.3 1.5zm-2.2-10.1-1.3-1.9-1.1 1.7zm7.3 12.4-.5-2.1-1.5 1.2zm7.6 3.2.1 1.4 1-.7zm-1.8-5.3h1.1l-.4-.8zm-4.5 7.2.4-1h-.9zm-6.3-4.1-1.5-.9-.2 1.7zm-2 2.5-.1-1.8-1.4.8z"/><path d="m276.2 163.8-1.7-.6.1 1.6zm-.3 2.3 2.7.6-.4-2.4zm-5.2-6.3.6 3.1 2.2-1.5zm5.6 5.3 1.8-1.2-1.6-.9zm-1-2.2 1.6-1.4-1.7-.8zm4.8 4.6 1.2-1.6-1.9-.4zm6.8-3.7-.5-2.1-1.6 1.1zm-5.8-.1-1.3-1.2-.6 1.4z"/><path d="m279.2 167.2-1-1.4-.7 1.3zm-1.7-6.9.9.5-.1-.9zm-2.2 4-3.9-.8.6 3.6zm5.6 1.8 1.2 1.6.8-1.5z"/><path d="m283 162.2 1 .3.1-.9zm-5-1 .5-.7-.8-.3zm3.7 6.6-.6-.6-.4.7zm-2.3-7.3 1.1-.4-.7-.7zm-4.4 2.7v-.8l-.9.3zm7.2 2.5h-.9l.2.7zm-.8 3.2.8-.5-.6-.5zm-5.8-1.8h-3.5l.9 3.4z"/><path d="m280.1 170.4 2.1-.9-2.3-2.3zm3.1-3.8-1.1-1.7-1 1.5zm-2.1-2.1-1.8.2.9 1.4zm-3.7 3.1-1.8.2.9 1.3z"/><path d="m282.7 167.3-1.8.5 1 1.2zm-2.7 0-1.7.5.9 1.2zm-2.9 1.3-.6 2.4 3.2-.6zm5.2-3.2 1.8-.6-1.1-1.3zm-2.6-3.6.8-.8-1.1-.3zm-2.6 4.6-.5-.9-.5.8zm7.5-1.4-.8.4.6.6zm-1.9-10.8 1.1-.5-.8-.6z"/><path d="m278.6 157.2-.2-1-.7.5zm7.3 2.1-.9-.2.3.9zm1.4 7-1.6.2.2 1.1zm-2.1-.1-.1-1-.8.4z"/><path d="m282.2 166 .7 3.3 2.9-1.7zm3.3-2.6 1.1 3.8 2.6-1.9z"/><path d="m289.2 165.3 1.7-1.3-1.5-.7zm-2.1-1.7 1.9-.9-1.4-1.3zm-1.8.4h-1.2l.4 1zm5.6-1.2-.2 1 .8-.2zm-6.6-5.3.9.5v-.9zm.3 3.3-2 .7 1.4 1.5zm8.1-3.6 1.1.6v-1.1zm-5.5-1.6.7-.8-.9-.3zm3.2 7.7-.6-.8-.5.7z"/><path d="m288.5 161.5-.4 1.8 1.6-.5zm3.6-1.8-1.5 1 1.4.9z"/><path d="m290.2 159.9.2 1.7 1.4-.8z"/><path d="m291.3 161.8 1.9-2.2-2.4-.8z"/><path d="m290.5 164.3 2.5-2-2.5-1.3zm.9-5.3-1.9-1.1-.2 1.9zm2.7-1.1-1.4-1.6-.8 1.7zm-2.4-1.9-1.7.6 1.1 1.1zm1.9 2.5-1.6.8 1.2 1zm-6.3.6.3-1-.9.1z"/><path d="m291.5 158.6 1.5 3.7 2.5-2.3zm1.5-1.9 1.7-.7-1.3-1.2zm-3.5-2.8.5-1-1-.1zm-1.5 5-.7-.6-.3.8zm7-3.1-.8.6.7.4zm-3.1-7.2.8-.7-.9-.4zm-3.1 4.2-.4-.8-.5.7zm7.6-.4-.9.2.5.7z"/><path d="m297.4 156.1-1.5.7 1 .9zm-1.6.8-.3-1-.6.6zm-1.5.6 1.4 2.4 1.7-1.8zm4.5-4.3-1.4 1.1 1.5.7z"/><path d="m297 153.4.3 1.7 1.4-.9zm9.9-5.8 1.2-1.6-1.7-.4z"/><path d="m297.5 158 2.3-2.3-2.6-.9zm7.2-7.7-2.1-.2.6 1.7zm-3.8.9-1.5-1.4-.7 1.6zm-.5.8-1.6.8 1.3 1z"/><path d="m298.2 152.1 1.7 3.6 2.3-2.4zm5.9-2.2 1.7-.9-1.4-1zm-9.2-.5.5-1h-1zm-1.1 5.1-.7-.6-.3.9zm6.8-3.4-.8.5.8.5zm-1.4-7.3.1-1.1-1 .3zm.2 5.1-.7-.3v.9zm5.7-5.2-.6.7.8.3z"/><path d="m304.6 149.1-1.5.8 1.2.9zm-2.1 1-.3-.8-.6.5zm-1.6.6 1.3 2.4 1.8-1.9z"/></g><path fill="#fffdf3" d="M264.7 139.6c-.8-4.2-2.4-8.5-4.2-12.9-7.4-17.7-18.1-28.3-33-27.7-3.6.1-15.2 1.3-21.6 27.7-.9 3.3-15.5 81.3-15.5 81.3h79.3z"/><path fill="#0a545a" d="M258.9 125.7c6.3 23.2 5.6 62.4 6.5 82.7a5.9 5.9 0 0 0 5.9 5.6h4.9s-5.7-58.6-13-87.5c-4.6-18.3-20-23.7-22.1-24.5a38.3 38.3 0 0 1 17.8 23.7z"/><linearGradient id="o" x1="238.6" x2="160.6" y1="160" y2="150.2" gradientUnits="userSpaceOnUse"><stop offset="0" stop-color="#0a5f66"/><stop offset="1" stop-color="#00394a"/></linearGradient><path fill="url(#o)" d="M251.2 151.9c1-27.1-2-53.3-25.7-53.3-3.6 0-16.6 3.7-23 29.5-.7 3-11.3 69.4-13.6 83.3-.2 1.4.9 2.6 2.2 2.6h40c5.5 0 12.8-3.6 14.1-8.9 3.8-14.1 5.4-37.1 6-53.2z"/><path fill="#106268" d="M232.5 168.8s-1.4 15-2.9 22.8c-1.1 5.6-7.6 8.3-16.2 7.8-8.6-.5-12.5-4.1-12.2-10.5.3-6.4 2.7-20.8 2.7-20.8z"/><path fill="#0e4f59" d="m215.4 199.9-2-.1c-8.7-.5-13-4.2-12.7-11 .3-6.4 2.7-20.7 2.7-20.9l.1-.4 29.6.7v.5c0 .2-1.4 15.1-2.9 22.8-1.1 5.4-6.7 8.4-14.8 8.4zm-11.1-31.3a223 223 0 0 0-2.6 20.3c-.3 6.2 3.5 9.5 11.7 10 8.7.5 14.7-2.3 15.7-7.4a289 289 0 0 0 2.8-22.2z"/><linearGradient id="p" x1="231.8" x2="207.2" y1="168.2" y2="164.9" gradientUnits="userSpaceOnUse"><stop offset="0" stop-color="#00394a" stop-opacity="0"/><stop offset="1" stop-color="#00394a"/></linearGradient><path fill="url(#p)" d="M242 156.9c.1 5.2 6.7 42.6-2.6 53.5-4 4.8-21.6 3.6-37.7 3.3-6.5-2.7 6.2-51.5 7.5-62.5 2.4-19.7 27.3-31.9 27.3-31.9s5.2 25.4 5.5 37.6z"/><g fill="#0a4049"><path d="m222.2 165.1 1.5-.8-1.3-.9zm-1.4-4.6 1.2-1.1-1.3-.5zm4.3 2.4 2 .4-.5-1.8zm-1.4-1.7-1.3 1.3 1.7.6zm-.2-2 1.8.2-.3-1.6zm-6 12.7 1.9-.6-1.1-1.3zm3.4-14.8 1.8.8v-1.7zm3.7-4.4 1.5 1.3.5-1.6z"/><path d="m219.2 159.7 1.6 1 .3-1.6zm1.5 1.5 1.5 1.1.5-1.7zm.9-2.1 1.8.7v-1.7zm-1.7 5.1 1.9.5-.3-1.7z"/><path d="m219.2 164 1.7.8V163Zm7.1-4.8 1.3-1.1-1.4-.6zm2.5-7.9 1.3-1-1.4-.5zm-.6 4.8 1.2-1.2-1.5-.4zm2.6-11 .8-.9-.5-.5zm-2.1 1.3 1.7.7-.4-2.4zm1.7 5.9.7-1.5-1.5.2zm-2.7-1.3.7-1.5-1.4-.1zm-6.3 15 1.5-.6-1-1zm4.9-9 .8-.8-.9-.4zm-2.7 4.6-.6-.9-.5.7zm7.7-1.1-1 .2.7.7zm-1.3 5.8 1.1.1-.3-.8zm-5.2.9.3-.9-.8.2zm5.9 5.1-.9-.4v.8zm-2.2-12.3-.4 1h1zm1.2-5.1.7.5.1-.8zm-6.9 3.4.8-.5-.8-.4zm.4-3.2 1-1.2-.7-1zm1.5 1 2.3-1.1-1.8-1.5z"/><path d="m222.8 157.9 2.3 1.1v-2.3zm5-3.8 1.4-.7-1.1-1zm-1-2.1 1.6-.6-1-1zm1.9 11 1 .6.1-1zm-3.6 2.8-.7.8.9.1zm5.3-3.4.8-.6-.8-.3zm-3 25.4.6-.9h-.8zm-17 13.5.8-.3-.6-.6z"/><path d="m226.2 158.3.8-.5-.7-.5zm-1.3-1.8-2.2-2.8-1.9 2.8zm-2.5 3.3-1.8-3.2-2 2.7zm6.8-10.3 1.8.4-.4-1.7zm-.4-1-.6-1.5-1.3 1.9zm2.8-.8-.8-.9-.3.9zm-12.2 33.2 1.1-1-1.2-.6zm7.6-29-1.1-1.9-1.5 1.9z"/><path d="m220.3 162-1.7-2.8-1.7 2.6zm-1.5 3.1-1.9-3.2-1.9 2.7z"/><path d="m217.3 167.5-2.2-2.9-1.6 2.5zm9.4-8.2-.1 1.6 1.4-.3zm-4.6 6.1 2 .8-.2-1.8zm-7.5 14h1.9l-.7-1.7z"/><path d="m218.1 177.5 1.8-.1-.7-1.4zm3.5-12.1-1.1 1.4 1.6.5zm-8.2 2-.5 1.9 2.8-.6zm3.9-.2-.7 1.8 1.8-.2z"/><path d="m218.7 165.7-1.2 1.5 1.6.4zm2.8 1.8-.1-1.1-.9.6zm2.2 4.7h-1l.3.8zm3.5-6.9-.4.9.9-.1zm-10.7 2.8-.2-1.1-.9.6zm2.1 4.9-1-.1.4.8zm3.5-7.1-.3 1 .8-.1zm7.2 9.6 1-.3-.7-.7z"/><path d="M224.8 178.4v-1l-.9.5zm7.4 2.4-.9-.1.2.7zm-12.7-11 .8-2-2 .3zm2.5 1.5.7-1.8-1.6.2zm-7-.3.7-1.9-1.8.2zm7.7-2.3 1.3-1.5-1.8-.5zm-4.3 14.6.7-1.8-1.7.1zm-.1-20.6-.7-.6-.2.8zm5.9 4.2-.2 1 1-.2zm0-5.4.9.5v-.9zm-6 4.8.6-.7-.8-.3zm17-17.6.8.8.4-1zm-4.4-2.8.8-.6-.7-.4zm.9 7.8-.3-1-.6.6zm3.4-.9.8.8.4-1zm-4.4-2.9.8-.5-.6-.5zm1 7.8-.3-.9-.7.6zm-.1-14.4 1.5 1.3.5-1.6zm4.1-1.2 1.1-1.2-1.4-.4zm-.2 4.9 1-1.3-1.4-.3zm1.2-11.4.8-1-.7-.4zm-1.3 2.8 1.2-1.2-.8-1zm1.9 4.6.8-1.6-1.5.1zm-2.8-1.1.5-1.6-1.4.1zm-2.6 10.8.6-.9-1-.2zm-2.1 4.9-.6-.7-.4.7zm7.5-2.3-.9.4.7.5zm-1.8-5.4-.4 1.1 1-.1zm.7-5.1.8.4.1-.8zm-6.6 4 .7-.6-.8-.3zm2.1-2.1 2.3-1.1-1.8-1.5zm1.3 3.2.2-2.6-2.2.7z"/><path d="m234.8 144.7 1.5-.8-1.1-.9zm-1-2.1 1.6-.6-1-.9zm1.9-2.4 1.9.2-.5-1.8zm-.3-.8-.8-1.3-.9 2z"/><path d="m237.9 138-.8-.8-.3 1zm-3.7 4.6-1-1.9-1.6 2zm7.5-3.2.9.6.3-.9zm-4.8-2.1.7-.8-.7-.3zm2.1 7.4-.5-.8-.5.7zm.6-.8.3-1.1-1 .1zm-.3 5.2-.8-.4-.1.7zm3.4-3.2-.7.7.9.3zm-3-8.3-.6.7.9.2zm-.1-2.6-1.3.4.8.9zm-.2-1.9-1.3.3.8.8zm-1.7 20.3.8.8.4-1zm-4.5-2.9.9-.5-.6-.4zm1 7.8-.3-.9-.6.6zm-7.6 17.1-.2 1.2.9-.2zm.4-5.2.8.4v-.8zm-6.3 4.7.6-.8-.9-.2zm1.3-8.7-.3 1.2.9-.2zm.4-5.2.7.4.1-.8zm-6.4 4.7.7-.8-.9-.2zm2.2-.5 2.4 1 .1-2.2zm-.5-2.4 1.8.5-.2-1.7z"/><path d="m218.4 165.9 1.3 1.2.4-1.4zm11.5-.6.4.8.5-.7zm.6-1.8.9.8.4-1.1zm-5.2-3.1 1-.5-.7-.6zm1.3 8.7-.3-1-.7.7zm-3.5 11.7 1.3.3-.1-1.1zm-6-.4.6-.8-.9-.1zm5.3 7.1-.8-.8-.4 1zm-4.7-17.6-.9-1.5-.8 1.1zm-2.2 3 .8-1.4-1.4-.3z"/><path d="m216.9 172.2-.7-1.5-.9 1.1z"/><path d="m215 171.3-.3 2.5 2.2-.6zm-2-2-.4 2.2 2.7-.3z"/><path d="m216.3 173.2 2 .3-.5-1.7zm-1.3 2.6 1.9.3-.4-1.7zm2.8-.2 1-1.2-1.4-.4zm-2.8-.7.8-1.4-1.5-.3z"/><path d="m219.5 170.1.5.8.5-.8zm-4 3.5-3-2-.6 3zm-2.5 11.3.5-.9-.9-.3zm-.8-1.5 1.5.4-.2-1.4z"/><path d="m212.3 181 1.6.3-.4-1.4zm1 3.1 1.3.2-.2-1.1zm3.5-4.5-1 1.4 1.5.3zm-5.1 11.9-1.4-1-.3 1.5z"/><path d="m215.4 181.6-1 1.6 1.6.1zm1.1-5.7-.9 1.5 1.6.1zm3.9.6.1 1.1.8-.4zm-1.2-4.6.9.3-.1-.8zm-4.1 5.7.4-.8h-.9zm7.5 5.6v1l.8-.5zm-1.4-4.6.8.1-.2-.7zm-3.9 5.8.4-.7h-.8zm5.2-3.7.1 1.1.8-.4zm-.9-4.7.8.3v-.8zm-4.5 5.6.4-.7-.7-.1zm-3.4.9 1-.9-1.2-.5z"/><path d="m214 181.5 1.9-.9-1.3-1.2z"/><path d="m215.1 180.5.9-1-1.2-.2zm-1.8-1.9 1-1.2-1.4-.4z"/><path d="m214 177.2.7.6.2-.8zm.9-.9-2.8-1.7-.7 3.1zm-1.2 3.1-2.3-1.7-.4 2.7zm-.1 2.6-2.4-1.5-.5 2.3zm-.7 2.2-2.1-1.2-.4 2zm3.6 1.5 1-1.3-1.3-.3zm-3.1.8.9-1.4-1.6-.2z"/><path d="m214 185.7 1.1-1.3-1.6-.3zm.7 1.9 2 .4-.4-1.6zm-1.4 2.1 1.6.8v-1.8zm2.6.7 1.1-1.2-1.3-.5zm-2.9-2.1.9-1.4-1.4-.2zm5.7.6-.4.7.8.1z"/><path d="m213.8 187.1-3.3-2-.4 2.7zm.6 3.5-1.7.6 1.2 1.1zm2.4 2.8-.4 1 .8.1zm1.4-4.5.7.6.2-.7zm-6.5 2.8.7-.5-.6-.5zm3.7 8.7-.6.9.9.2zm2.1-4.3.5.7.4-.7zm-6.9 1.8.8-.4-.6-.5zm6.6-1-.5.9.9.2zm2.1-4.3.6.6.3-.6zm-6.8 1.7.8-.3-.5-.5zm19.1-26.3h1.2l-.5-.8zm-5 1.4.2-.7-.9.1zm6.3 4.5-.8-.4v1zm-3.3 16.8.5-.8h-.9zm3.3-9.9 1.2-.4-.7-.7z"/><path d="M228.4 183.4v-.9l-.6.4zm7.4 2.7-1-.1.2.7zm-13.9 2.1.8-1.9-1.7.1zm-8.5 7.7 1.7-1-1.5-.9zm-2.2 4.4 1.7-1.1-1.5-1zm1.1-4.4-.1 2 1.7-.6zm2-5 .3 2 1.4-1.2zm5.6-2.4 1-1.9-1.9.1zm-11 11.6 1.8-.4-1.5-1.7zm.7 4 .4-1.2h-1.3zm.5-5.2.6-1.2h-1.4zm.7-2.6.5-1.2-1.4.1zm18.3-18.2-.2 1.2 1-.2zm-.1-5.1.8.3.1-.8zm-6 5 .6-.8-.8-.2zm3.6 7.8 1.3.4-.1-1.2zm-5.8-.6.6-.9-1-.1zm4.9 7.4-.7-.9-.4.9zm.3-4.5.1 1 .9-.4zm-1.1-4.6.8.2-.2-.8z"/><path d="m220.7 189.2.5-.7h-.8zm4.5-5.7.2 1 .7-.6zm-1.3-4.7.7.2-.1-.8zm-4 5.9.3-.8-.7.1zm-3.6 8.7 1.6 1.1.3-1.7zm.1 3 1.5-.7-1.1-1zm-7.5 6 1.5-.5-.9-1.1zm1.6-3.4 1.7-.4-.9-1.2zm9.1-3-.8.5.8.3zm-2 3-.6.8 1 .1zm1.6-4.5.6.5.3-.7zm-6.7 2.4.8-.5-.6-.4zm4.9 8.2-.5.9.9.1zm1.6-4.5.6.6.3-.8zm-6.6 2.4.7-.4-.5-.5zm2.1 4.8-.2 1 .9-.3zm0-4.8.7.3v-.8zm-5.5 4.5.5-.7-.6-.2zm3.1-10.8.5-1.2h-1.1zm-1.5-2.7.8-1.2-1.3-.3z"/><path d="m211.1 190.2-.1.9.8-.3zm2.4-.8-3.4-1.3-.3 2.3zm-1.2 5-2.5-1.3-.3 2.6z"/></g><path fill="#ea9d7d" d="M185.7 216.1c6 18.9 13.5 33.4 13.5 33.4s1.2 9.9 7 19.7c.4.7 1 1.9 2 1.9.9 0 1-.9 1-.9s1.4 2.8 2.1 3.2c1.6.9 1.6-.8 1.6-.8s1.5 1.7 2.8 1.3c1.2-.4.7-1.9.7-1.9s1.1.9 1.9.2c.6-.6-.2-3-1.3-5.4-.9-1.9-1.9-7.2-2.2-8.2-.4-.9 1.3 1.3 2.5 2.4 1.4 1.1 3.8 1 2.1-1.7-1.7-2.7-2.7-5.1-3.2-5.8-.5-.6-2.1-3.4-4-4.8-1.2-.9-3-1.6-4.1-4.9-1.5-5.5-3.3-25.5-4.3-35.3-.5-4.9-1.8-17.5-1.3-21.5-.5-12.2-28-.7-16.8 29.1z"/><g fill="#cc7a5e"><path d="M213 272.3c-.1-.2-.1-.3.1-.5h.7c.3.7.8 2 1.6 1.6.8-.4.5-1.5.5-1.5 0-.2-.1-.3.1-.3.2-.1.6-.3.7-.1 0 .1.4.8 1.1.4.4-.3.1-1.3-.8-3.8-1.4-3.4-2.8-9.7-2.9-9.9l.3-.6c.2-.1.3.1.5.3 1.5 1.9 3.3 3.4 4.2 3.5.1 0 .6-.2.5-.5l-.4-.8c-.3-.5-4.4-9-7.1-10.8a10 10 0 0 1-4.2-4.4c-.7-1.4-1.6-9-2.8-19.5l-.2-2a502.3 502.3 0 0 1-3.1-36.4.5.5 0 1 1 1 0c0 .1.6 13.8 3.1 36.2l.2 2.1c.9 7.5 2 18 2.7 19.2a8.8 8.8 0 0 0 3.8 4c2.9 2 7.2 10.7 7.4 11.2.3.5 1 2 .2 2.5-.3.3-.7.4-1.2.3-.9-.2-2.5-1.5-3.6-2.6.5 2.2 1.5 5.8 2.4 8 1.1 3 1.5 4.2.6 5-.5.5-1.6.2-1.7.2 0 .5-.3 1.1-1 1.5-1.7.4-2.6-2-2.7-2.3z"/><path d="M216.5 272.5a.6.6 0 0 1-.5-.3l-3.9-9.7c-.1-.3 0-.5.3-.7.3-.1.5 0 .7.3l3.9 9.7c.1.3 0 .5-.3.7zm-3 .2a.6.6 0 0 1-.5-.3l-4.3-9.3c-.1-.3 0-.5.2-.7.3-.1.5 0 .7.2l4.3 9.3c.1.3 0 .5-.2.7z"/></g><linearGradient id="q" x1="196.6" x2="194.5" y1="225.1" y2="210.7" gradientUnits="userSpaceOnUse"><stop offset="0" stop-color="#cc7a5e" stop-opacity="0"/><stop offset=".9" stop-color="#aa5f4b"/></linearGradient><path fill="url(#q)" d="m185.7 215.7 1.7 5.6 2.2 6.4 16.1-.9-1.2-13.2z"/><path fill="#0a5f66" d="M235.9 103.2c7.3 6.6 7.1 24.7-5.1 40.2-5.2 6.7-16.1 19.9-17.3 23-2.1 4.9-5.8 44.8-6.4 46.4-.2.5-.7.5-1.2.6l-22.4 3.6c-.6.1-1.8-.2-2.1-1 0 0-11-40.9-7-58.2 4.8-21.2 21.9-46.2 32.2-53.8 8.2-5.7 22.4-7.2 29.3-.8z"/><g fill="#147a7c"><path d="m187.4 132.7.9.5.1-1.2zm1.8-2.7.3-.7h-.7zm-4.1 2.2 1.3.1-.7-1.4zm3.8.9 1.2-.6-1.3-.9zm-1.5 2 1.1-.8-1.2-.7zm1.8-3.4 1-.8-1.1-.7zm7.9 3.7.7.2-.1-.8zm-9.9-6.8-1.2 2.1 2.7.4zm9-8 .9.6.2-1zm-2.1-.7.9.8.3-1.1zm1.2-1.9.8.7.3-1.2zm-.1 1.2.9.7.3-1.2zm.6 3.8 1.1-.6-1-.9zm-3.1-.5 1.1-.6-1.1-.8zm-2 2.2 1.2-.6-1.1-.8zm3.9-7.6-1 1.3 1.9.5zm2.3 2.2 1.2-.4-1.1-1zm-2.7 2.6 1.2-.6-1.1-1zm3.4-4.4 1.2-.6-1-.9zm-6.3 13.3 1.1-.8-1.2-.6zm1.9-3.7-1-1-.4 1.5zm-.9 1.3-1-.8-.3 1.5zm.5-4.2.8.6.3-1.3zm5-6.2.8.7.3-1.2z"/><path d="m196.3 116.6.7.9.6-1.2zm-5.3 12.2.6.5.3-.6zm2.6-4.1-.3.5.7.1zm2.7 5.6-.7-.2.1.7zm-4.8.5 1.3.6-.1-1.5zm5.4-1.9-.1.7.6-.2zm.5-3.7.2.8.7-.4zm4.1-6-.2.7h.9zm4.9.3h-.6l.3.6zm-5.6 4.9h-.7l.2.7zm2.4 0-.2-.6-.5.5zm.8-1.6-.6.1.5.6zm1.3 2.7-.6.2.6.5zm-14.1-1.9.9.7.3-1.2z"/><path d="m191.4 125.1 1.6.3-.5-2zm2.5-1.2 1.5-.8-1.6-1.2zm-6.3 8.9 1.3-1-1.6-1zm2.9-6.5.8.7.4-1.2zm-1.4-.1 1 .6.1-1.2zm10.5-5.6-.3-.7-.4.6z"/><path d="m189.9 127.3.4-.6h-.7zm4.7-4.2.6.2-.2-.7zm-5.9 6.9 1.1-.7-1.2-.8z"/><path d="m188.7 126.3-1.3 2.1 2.8.3zm1.6-2.6-1.3 2 2.7.4zm1.7-2.6-1.3 2.1 2.6.3zm1.6-2.6-1.5 2.1 2.7.5zm2.5-3.1-1.4 1.8 2.6.8zm-.2 13-.2-.6-.6.4zm-1.8-1.5-.1-1.1-.9.9zm2.3-2.7-.1-.7-.7.5zm-1 6-.1-.6-.5.5zm6.5-14.3.3.8.6-.7zm3.1-7-.1.6.8-.1zm3.1-.8-.6.1.4.7zm1.7-2.5h-.7l.2.6zm2-2.4-.7-.1.3.8zm-6.7 10.6-.3-.6-.4.6zm-1.8-1.8-.4-.5-.3.5z"/><path d="m203.5 109.8.2 1.4 1.2-1zm4.2 1.5-.3.5.5.2zm3.1-6.6-.7.2.6.5zm1.6-2.2-.5.3.4.6zm-6.4 8.7.2-.5-.7-.1zm-.5-1.2.4-.5-.7-.2zm-3 8.3.2-.5h-.6zm-6.9 10-.3-.4-.4.4zm7.4-20 .3.4.4-.7zm-1.2 3 .9-.3-.6-.9zm-1.8 1 .9-.3-.9-.9zm3.4-4.8.8.4.1-.9zm-1.3 6.7-.8-.7-.4 1.2zm-2.2 2.1-.7-.8-.6 1.2zm1.4 2.9-.1-.7-.6.4zm-4 1.7.5-.3-.5-.4z"/><path d="m198.3 115.3.4.4.3-.4zm2.3-3.4.6.5.3-.9z"/><path d="m199.8 113.2 1.5.1-.5-1.4zm-.1.5.8.5.3-.9zm-1.7.1.8.5.2-1zm1.2 1.3.2-.6-.6-.1z"/><path d="m197.6 113.7-1.5 1.6 2.3 1zm1.8-2.2-1.2 1.7 2.1.5zm1.6-1.6-1.3 1.2 1.9.8zm4.6-4-1.3.8 1.4 1.1zm-3.1 2.4-1.2 1.2 1.6.7zm5.8-3.5-.2.7.6-.1zm-1.3 1.9.2 1 1-.6zm3.3-3.1-.1 1.1 1-.6zm-4.2 3.5.8-.1-.4-.9zm1.2-2.2-1 .7 1.1.9zm2.4-1.2-.9.6.9.5zm-32.6 51.7 1 .3-.1-1.1zm1.2-3.2.1-.7-.7.1zm-3.1 3.4 1.2-.2-.8-1.2zm3.5 0 .9-1-1.4-.4zm1.9-.3.8-.9-1.4-.6zm-1.7-1.2.9-.9-1.4-.5zm8.7 2.1.8.1-.3-.8zm-11.1-4.9-.7 2.4 2.7-.3zm7.7-9.4.9.7.2-1.3zm-2.1-.7.8.8.3-1.3zm.7-2.2.9.6.1-1.2zm.2 1.4.9.5.2-1.2zm1 3.9 1-.7-1.1-.8zm-3.1-.3 1.1-.7-1.3-.8zm-1.8 2.9 1.1-.7-1.2-.8zm2.8-8.6-.9 1.5 1.9.3zm2.7 1.9 1.1-.4-1.1-1zm-2.2 3.1 1.1-.7-1.1-.8zm2.6-5.2 1.1-.7-1.3-.8zm-4.2 14.7 1-.9-1.5-.5zm.7-3.7-1.1-.6v1.4zm-.7 1.2-1.2-.6.1 1.6zm.3-4.6 1 .6V145Zm4.2-6.8 1 .7.1-1.3zm-1.7-1.4.8.6.3-1.2zm-3.1 13.6.7.3.2-.8zm1.6-4.7-.2.6.7-.1zm3.9 4.9-.7-.1.3.7zm-4.8 1.6 1.4.3-.4-1.6z"/><path d="m185.6 150.7.1.6.5-.4zm-.1-4.3.1.8.7-.5zm4-6.2-.2.8.8-.2zm4.9 0h-.6l.3.7zm-5.3 5h-.6l.2.7zm2-.2-.3-.5-.4.4zm.9-1.8-.6.3.6.4zm1.4 2.7-.6.3.5.4zm-.1-9.1.5.2-.1-.7zm-2.1-.5.1.7.6-.4zm-1.2-2.1.1.6.6-.3zm-.2 4 .7-.2-.5-.6zM188 137l1.2-.2-.8-1.1zm-1.9 7.6 1.2-.3-.9-1.1zm3.1-9.6.6-.2-.3-.5zm-9.9 10.2.9.6.3-1.1zm.7 2.1 1.7.1-.8-1.7zm2.2-1.9 1.4-1-1.6-1zm-5.5 10.3.9-1.3-1.4-.4zm2.6-6.9.9.4.1-1.2zm-1.1-.5.9.6.1-1.2zm9.4-6.7-.4-.5-.3.6z"/><path d="m179.1 149.4.2-.5h-.7zm3.8-4.9h.6l-.3-.6zm-5.1 7.8.9-.9-1.4-.4z"/><path d="m177.3 148.8-.7 2.3 2.8-.3zm1.2-2.9-.9 2.1 2.6.1zm1.1-3.3-1.1 2.1 2.7.2zm1.5-2.8-1.3 2.3 2.6.2zm1.7-3.5-1 1.9 2.5.4zm1.1 13.6-.2-.5-.5.5zm-.9-1.1-.4-1-.8.9zm1.6-3.4-.2-.7-.6.5z"/><path d="m184.7 151.5-.2-.6-.4.5zm-1-1.4-.4-.6-.4.6zm3.5-13.6-1.1-.6-.2 1.3zm1.8 2.8-.2-.7-.7.4zm-4 2.2.6-.3-.5-.4zm.4-5.5.3.3.2-.6zm.6-1.4.6.5.2-.9zm-1.8.3.9.5.1-1.1z"/><path d="m185.6 135.7.2-.5h-.7zm-1.5-1.7-1.2 2 2.4.5zm1-1.6-1 1.6 2.1.2zm-8.3 48.6h1l-.5-1.1zm-.5-3.7-.2-.6-.6.4zm-1.6 4.4 1.1-.8-1.4-.7zm3.6-1.2.5-1.1-1.5-.1zm.7-2.3.6-1.2-1.4.1zm-1.9.5.5-1.1-1.5-.1zm6.3 2.2h.7l-.4-.8zm-9.2-3.5.2 2.3 2.3-1.1zm3-11.7 1 .2-.3-1.2zm-2 .4 1.1.2-.4-1.2zm0-2.2.9.1-.3-1.1zm.4.9 1.1.1-.4-1.1zm2.7 3.1.6-1-1.5-.3zm-2.9 1.5.5-1.2-1.4-.1zm-.6 2.7.8-1.2-1.6-.1zm-1-8.4v1.6l1.7-.8zm3.4.4.7-1-1.4-.3zm-.9 3.8.7-1.1-1.4-.1zm.5-5.9.5-1.1h-1.4zm1.8 14.8.4-1.1-1.4.1zm-.2-4.2-1.4-.1.5 1.3zm-.4 1.9-1.3-.2.4 1.4zm-1.5-4h1l-.6-1.1z"/><path d="m177.3 162.4 1.1.1-.5-1.2zm-2.1-.1 1.1.2-.3-1.2zm2.7 13 .7.1-.1-.9zm0-5v.6l.7-.2zm5.2 3.4-.7.2.6.5zm-4.4-2.7 1.4-.4-1-1.2zm3.2 1.5.3.6.5-.6zm-1.2-3.4.4.6.4-.7zm.5-7.7.2.6.7-.5zm4.2-.1-.5.2.5.5zm-2.2 5.3-.5.3.5.4zm.9-4.2-.5-.3-.1.7zm.5 7-.3.5.7.2zm2.8-3.6-.3.5.7.2zm-3-8h.6l-.3-.7zm-1.9.3.1.6.5-.5zM180 156l.4.5.3-.5zm1.2 3.7.5-.3-.6-.4zm-1.6.1 1.1-.6-1.2-.7zm-1.2-1.6.5-1.2h-1.4zm1.2 8.2.9-.8-1.2-.4zm-.1-9.1.5-.3-.7-.5zm-5.1 13.7 1.1.2-.4-1.3zm1.4 1 1.5-.7-1.4-1.2zm1.3-2.3.8-1.4-1.9-.1zm0 8.4.7-1.6h-1.9zm-1.3-4.4 1.1-.1-.5-1.1zm-1.3.5 1.1.1-.5-1.1z"/><path d="m180.1 164-.6-.5.1.8zm-4.3 10.8-.1-.7-.5.4zm1.4-6.2.6-.1-.5-.6zm-1.3 9.1.4-1.2-1.4.1zm-2-3.1.2 2.4 2.4-1.4zm-.2-3.2.1 2.5 2.5-1.2zm-.2-2.9.1 2.3 2.4-1.1zm.1-2.9.3 2.6 2.2-1.4zm.5-4.2-.1 2.3 2.6-.9zm6.8 11-.5-.3-.2.7zm-1.8-.4-.7-.7-.4 1zm.2-3.3-.5-.6-.3.8z"/><path d="m181.6 176.8-.5-.4-.2.6zm-.9-4.1-.5-.4-.2.6zm4.3 15.5.7-.1-.5-.8zm-4.2-2 .7.2-.1-.8zm0-5 .1.7.7-.4zm5.3 3.7-.7.1.4.5zm-1.3-1.2.3.6.5-.5zm3.2-2.8-.5.6.7.1zm-4.1 2.7-.5-.4-.3.6z"/><path d="m183.6 183.8-.5-.3-.2.5zm-5.4-24.3-1.2-.2.3 1.3zm2.6 1.9-.5-.6-.3.8zm-2.5 3.6.4-.3-.6-.1zm-2.3-5 .6.2-.2-.7zm.4-2.3.9.2-.2-.9zm-1.6.8 1 .2-.3-1.1zm1.8.8.1-.7-.7.3z"/><path d="m174.4 158.7-.4 2.2 2.5-.5zm.7-2.7-.5 1.9 2.1-.4zm-.2 27.9 1.2-.8-1.3-.6zm5.5 8.7h1.2l-.6-1.2zm-1.9.6h1.1l-.5-1.1zm-.8-2.3 1.2-.1-.7-1zm.9.8 1.1-.2-.7-1zm3.1 2.8.6-1.1h-1.5zm-2.5 1.6.7-.9-1.8-.1zm-2.8-4.8.4 1.7 1.6-1.3zm3.5-.7.4-1.2h-1.4zm-.1 4.3.5-1.3-1.5.2zm-1-6.1.4-1.3-1.3.2zm.6.2 1.1-.1-.6-1z"/><path d="m177.3 189.3 1.2-.1-.6-1zm5.6 3.7.8-1-1.3-.3zm.3 2.8.7-1.6-2 .2zm-.6-6.3-.6-.1.1.7zm-1.6 6.1.4-.4-.5-.5zm-4.3-2.4.7 2.5 2-1.8zm1.9-12.3 1-.1-.7-.9zm-1.8 1 1.1-.1-.6-1zm3.4 1 .4-1.2-1.4.2zm-1.8.5.3-1.3-1.4.3zm2.8 1 .7-1-1.3-.2zm-1.7 1.3.3-1.6-1.8.4z"/><path d="m179.5 183.8.5-.2-.6-.4zm-4.4-2 1 2.4 1.8-1.8zm.7 7 .5 2.3 2.3-1.6zm3.7-2.6-1.2.2.6 1zm3 .8-.6-.4-.1.8zm-1.4 4.3.2-.5-.6-.1zm-3.4-4.4h.6l-.3-.6zm4.5 12.7h1.1l-.5-1.2zm-1.9.6 1 .1-.4-1.2zm-.8-2.3 1.1-.1-.6-1zm.8.8 1.2-.2-.7-1zm3.2 2.8.6-1.1h-1.6zm-3.4 1.3 1.1-.3-1.3-1.2zM178 198l.4 1.7 1.6-1.2zm3.6 3.9.5-1.2-1.5.1zm-.2-4.4.8-.9-1.3-.4zm-1.2 2.6-1.7-.2.5 1.8zm2.3 2.1.4-.4-.5-.4zm-5.1-6.5.5 2.3 2.3-1.5zm6.9-1.7-.6-.3-.1.7zm-1.4 4.3.2-.5-.6-.1zm-3.4-4.4.5.1-.2-.7zm-2.4-8.7 1-.2-.4-.8zm-1.1 1.3 1.1-.2-.6-.9zm1.7 0v-.5l-.6.4zm-2.2 0 .3 2.2 2.1-1.2zm-.5-2.5.3 2 1.8-1.3z"/></g><g fill="#084c4f"><path d="m216.1 161.4-.9-.9-.5 1.4zm1.5-.9-1.2-.7-.3 1.4z"/><path d="m219.6 157.6-1.3-.3.4 1.5zm-1.3 2-1.3-.3.4 1.4zm5.6-7.4-1.4-.2.5 1.4zm-8.8 11.8 1.2-1.8-2.4-.4zm-1.3-2.3-1.2.8 1.4 1.1zm-3.6-3 .4.7.5-.7zm3.1 1.8.4.7.4-.8zm5.8-4.8.5.6.3-.7zm-2.5-.1.5.6.3-.9zm6.1-6.6.5.6.4-.9zm-5.8 9.4.4.5.4-.8zm-5.3 15.4-1-.1.3.8zm-.1-2.1-.8 1 1.4.3zm0-2.7-.9.8 1.4.6z"/><path d="m210.6 172.3-.4.9 1.1.3zm-3-4.2 1.5.3-.3-1.6zm.8 2.8 1.4.4-.3-1.6zm2-7.3 1 1 .5-1.6zm-2.3-2.7.1.8.8-.5zm4.9-2.6-.6.4.6.5zm-.7 6.9-.6-.5-.2.8zm-10.9-1.1.1.8.8-.7zm4.7-2.9-.7.4.7.5zm-.4 7-.4-.6-.3.8zm-2.7 15.1.4.8.6-.8zm4.5-3.3-.6.4.7.4zm.4 6.9-.6-.4-.1.8zM204 160l.3.9.7-.6zm5-2.5-.6.3.5.6zm-.7 6.9-.5-.5-.3.7zm10.4-16.4.6.7.3-.8zm-1.8 2.4.2.8.7-.6zm4.5-3-.6.4.7.5zm.1 7-.4-.6-.3.8zm-.8-9.2-.2.7.9.2zm5.5 1.1-.8-.1.3.7zm-4.8 5-.1-.6-.6.2zm-10.7 4.1.2.8.8-.8zm4.1-3.5-.4.4.6.4zm.9 6.8-.6-.3-.1.7zm-2.9-8.1.2.7.7-.6zm4.5-3.1-.6.4.7.4zm.1 6.9-.4-.4-.3.7zm-6.1 15.5h-1.1l.4 1.1z"/><path d="m210.7 168-1.6.6 1.3 1.4z"/><path d="m211 167.6-.9-.4v1.1zm2.5-.8-1.3-.4.3 1.4zm-1.5-2-.3.6.8.1zm1.3 1.7 1.7-2.3-3-.8z"/><path d="m212.7 169.8.6-2.3-2.6.4zm-.5 3 .4-2.4-2.6.8zm-.3 2.3.3-2-2.1.5zm-3.6-2.6-1.2-.3.3 1.5z"/><path d="m211.1 174.9-1.3-.4.3 1.5zm-.7-1.5-1.2-.4.2 1.5zm-1.7.8-1 1.2 1.7.5zm.3 2.7-1.1 1.4 1.8.3zm-.6-.5-1.4-.4.4 1.6zm2.3.4-1.2-.3.2 1.4z"/><path d="m205 174.6.5.5.2-.9zm6.4 3.7.4-3-3.2.9zm-1.8 10.9-1-.1.3 1zm-.4-1.9-.7 1 1.3.2z"/><path d="m210.1 184.1-.9.8 1.4.5zm-1.7 3.8-.5.9 1.1.2zm-2-4.8 1.4.4-.1-1.5zm.8-3.7 1.4.4-.2-1.7zm-3.5-1 .5.5.4-.8zm2.9-4.7-.4.6.9.1zm2.9 6.2-.7-.1.2.8zm.3 5.4h-1.1l.6 1.2z"/><path d="m209.5 183.2-1.5.6 1.1 1.4zm-.1-.7-.9-.2.1 1.2zm1.7-1.6-1.1-.4.3 1.4zm-1.8-1v.7l.7-.2z"/><path d="m211.1 180.9.3-2.9-3 .7zm-.4 3 .4-2.4-2.7.7zm-.5 4.4.3-2.4-2.5.7zm-.3 2.3.2-2.1-2 .7zm-8.4-.9.1.8.8-.5zm4.8-2.4-.6.2.6.5zm-.7 6.8-.3-.6-.4.8zm-4.3 5.1.2.7.7-.6zm4.7-3-.6.4.7.5zm-.3 7.1-.4-.5-.2.7zm-4.2 4.8.5.6.6-.7zm3.8-4.1-.4.5.8.3zm1.6 6.7-.5-.3v.8zm1.4-13.8-.9-.2.3 1zm-.2-1.9-.6 1.1 1.4.2zm-.6 3.2-.5 1.1h1.5z"/><path d="m208.8 191.9-.9 1 1.4.6zm-1.6 3.7-.7.9 1.3.1zm1.3 6.3-.9.4.7.8zm-.4 4.2-1 .5.9.7z"/><path d="m208 207.6-1.1.6.9.6zm-2.8-16.8 1.2.5v-1.7zm3.2 2.3h-1l.3 1.1zm-.2-2-1.6.4 1.1 1.5z"/><path d="m208.1 190.4-1-.3.1 1.1zm1.5 2.7.3-2.4-2.5.7zm-.3 2.8.3-2.3-2.5.6zm-.3 2.7.2-2-2.2.8zm-.8 7.1.2-2-2.1.7zm.4-4 .2-2-2.1.6z"/></g><g fill="#ad5c44"><path d="m201.1 215.1-.5-.6-.7.6zm-3.9 1.2-.6-.9-.6.9zm2.2.1 1.1.1-.3-1.1zm1.4-.1 1.5.2-.3-1.5zm-10.9.8 1.2.2-.4-1.2zm9.6-2.6-1.7.3 1 1.1zm-6.2 1.1-1.5.2.9 1zm10.4 1.3-.1-2-1.3 1.2z"/><path d="m203.6 214.1-1.9.3 1.1 1.2zm-7.7 1-2 .3 1.2 1.1zm5.8-.1-.6-.4-.1.7zm-5.4 3h.5l-.3-.6zm1.7-1.8-.2.6.6-.1zm-3.6.3-.2.5.5.1zm8.3.3v-.6l-.5.3zm-4.6 1.7-.5-.1.1.5zm4.8-.2 1-.5-1-.7zm.3 3.1.8-.5-.8-.7zm.7 4.5.9-.5-.9-.6zm-2.9-5.7 1 .5.2-1.1zm3.6 3.2-.4-1.4-.8 1zm-.3-2.9-.2-2-1.3 1.2zm-2.1-1.6v-.3l-.4-.1zm-2.4-.6.2.1v-.3zm2.2-2 .2.2.2-.2zm0 2.1-.4-.4-.2.7zm1.3 3.8-.4-.3-.2.7zm-2.8-.4.2-.5-.5.1zm0-4.8-.6-.2.1.6zm-1.5.4-.6-.1.3.5zm1 2.6v-.5l-.4.2zm-1.2.6-.1-.5-.3.2zm1.1 2.7h.4l-.3-.5zm3.7.9.5-.1-.3-.5zm-8.3-5.6-.5-.3v.6zm-2.5.8.2-.5-.5.1zm-.6-1.8-.1-.4-.4.3zm.1 3.4.5-.1-.5-.5z"/></g></g></svg>
