<svg xmlns="http://www.w3.org/2000/svg" viewBox="0 0 720 640"><path xmlns="http://www.w3.org/2000/svg" fill="none" d="M0 0h720v640H0z"/><g transform="translate(120 80)"><path xmlns="http://www.w3.org/2000/svg" d="M393.1 244.9v.1-.1zm-276-109.4v.1-.1z"/><path xmlns="http://www.w3.org/2000/svg" fill="#fff" d="M253.4 47.5c-3.7-4.7-10.2-5.3-13.7-4.7-3.3.7-7.5 2.1-9.5 7 0 0-5.5-1-9.6 2.4-4 3.5-3.7 8.4-2.5 12.4a57 57 0 0 0 2.8 7.3 6 6 0 0 0-1.2 3.6c0 3.2 2.3 5.7 5.3 5.7a4.7 4.7 0 0 0 1-.1l-6.9 22.4-2.2 5.7s3.2 4.1 10.8 5.7a38 38 0 0 0 11 1c2-.2 4.2-.6 3-4-1.7-5.3-1-8.6-1-8.6l2.3-13a9 9 0 0 0 4.2 0c3.2-1 6-4.4 7-10s.8-16.1.8-16.1l-1.7-.3c2.8.2 4.7-.3 5.4-1.3 1.2-1.5-1.5-10.4-5.2-15zm-25.8 33zm-.6.3.3-.2a2.5 2.5 0 0 1-.3.2zm8.2 6.9a6.5 6.5 0 0 0 .3 0h-.3zm1 .4a2.7 2.7 0 0 0 .3.1h-.3zm1.2.5zm2.2.9h.1z"/><path xmlns="http://www.w3.org/2000/svg" d="M217.9 59.6v.3-.3zm34.7-12.1h-.1zm-32.7 24.9v-.1zm39.9-11.1v-.8l-.8-3.3a24.3 24.3 0 0 0-5-10 14.9 14.9 0 0 0-13-5.4l-1.9.4-2 .5-.7.2a13 13 0 0 0-1.9.9c-1.5.8-3 2.2-3.8 3.6l-.7 1.4a8 8 0 0 0-1.6-.2h-1.2a10.8 10.8 0 0 0-10 6.7c-1 2.3-1 3.9-1 5.4 0 1.5.3 3 1.1 5.3.7 2.2 1.7 4.4 2.6 6.4-.4 1-.7 2-.7 3.2 0 3.4 2.6 6.2 5.8 6.2h.3l-6.6 21.6-2.3 6 .2.1c.1.2 3.4 4.3 11 6 3.5.7 6.5 1 9.1 1a22.6 22.6 0 0 0 2.1 0c1.3-.2 2.7-.4 3.4-1.5.5-.8.5-1.9 0-3.3-1.6-5-1-8.2-1-8.3l2.3-12.5a12.6 12.6 0 0 0 1.8.2c.8 0 1.5-.1 2.1-.3 3.6-1.1 6.3-5 7.3-10.5a108 108 0 0 0 1-15.6l.6-.2c.2 0 .6 0 .3.1.6-.1.6-.2 1-.4.3 0 .5 0 .7-.2.3-.1.7-.3 1-.6.1-.2.5-.8.5-1.1a4.8 4.8 0 0 0 0-.5v-.5zm-19.6 42s-.6 3.4 1 8.7c.5 1 .5 2 .1 2.4-.4.7-1.6 1-2.6 1a38 38 0 0 1-10.9-1 19.5 19.5 0 0 1-10.3-5.3l2.1-5.4 6.8-22.2a5.3 5.3 0 0 0 1.5-.7l.2 1c.6 2.2 2.5 4 6 5.9 2.5 1.3 5.6 2.5 8.3 3l-2.2 12.5zM253.7 80c-1 5.2-3.3 8.7-6.6 9.7-3 1-8.6-1-12.5-3-3.2-1.7-5-3.4-5.5-5.3a28.8 28.8 0 0 0-.4-1.7l-.2-.7-.6.5c-.8.7-1.9 1-3 1-2.6 0-4.7-2.2-4.7-5.1s2.1-5.2 4.8-5.2c1.6 0 3 .9 4 2.3l.3.5.4-.4a19 19 0 0 0 5.3-6.5c1.5-3.9 1.6-7.2 1.5-8.9 1.5 1.2 4.7 3.3 9.1 5 3.8 1.4 7.7 2 9 2.3 0 2 0 10.6-1 15.5zm-28.4-7.6c-1.6 0-3 1.4-3 3s1.4 3 3 3 2.9-1.3 2.9-3-1.3-3-3-3zm0 5c-1 0-2-.9-2-2s1-2 2-2 1.9 1 1.9 2-.9 2-2 2zm14.2-9.2c0-.1 1.2-1.8 3.9-1.6.4 0 .8-.3.8-.7s-.3-.8-.7-.8c-3.6-.3-5.2 2.1-5.3 2.2-.2.3-.2.8.1 1 .5.4 1 .2 1.2 0zm11-3.6a.7.7 0 0 0-.5 1c0 .3.5.5.9.4.1 0 1.2-.3 2 .2l.5.1c.2 0 .5 0 .6-.3a.8.8 0 0 0-.2-1c-1.4-1-3.2-.4-3.3-.4z"/><circle xmlns="http://www.w3.org/2000/svg" cx="242.3" cy="71.9" r="1.4"/><circle xmlns="http://www.w3.org/2000/svg" cx="252.5" cy="71.1" r="1.4"/><path xmlns="http://www.w3.org/2000/svg" d="M248.3 72.3c-.4.1-.6.5-.4 1 .5 1.2 1.4 3.7 1.3 4.6s-.8 1-1.1 1.1c-.5.1-.8.5-.7 1 .1.5.7.6 1 .5.7 0 2.1-.9 2.2-2.4.2-1.6-1.1-5-1.3-5.4-.2-.4-.6-.6-1-.4zm-4 10.4c-3.6-.2-4.3-3.2-4.4-3.3 0-.4-.5-.6-.9-.5s-.6.5-.5 1c.4 1.4 2 4.1 5.8 4.3.4 0 .7-.3.7-.8 0-.3-.3-.7-.7-.7zM345.7 226v-.1zm13.4-7.5zm-16.8-1.3zm11.9 1.5z"/><g xmlns="http://www.w3.org/2000/svg" fill="#fff"><path d="m197.7 405.6 4.5-24.5 28.1 1.2-1.8 22.2z"/><path d="m228.3 397.7.7-4.3-29.5-2.7-.5 5.4c4.2.2 27.2 1.9 29.3 1.6zm38.6 27.2c.1-.9.2-2 0-3.2l-71.4-6.2c.1 1.7-.2 3.2-.2 4.2.1 1 .7 1.6 1.7 1.7l67.2 6c1.4 0 2.7-1 2.8-2.5z"/><path d="M266.7 420.6c-.6-3.3-8-9.4-13.2-12l-1.6-.8-4.3 12.3 19.1 1.6a2 2 0 0 0 0-1.1z"/></g><path xmlns="http://www.w3.org/2000/svg" d="M186.8 263.7v.3-.3zm-4.6 19.4zm6.6-11.5zm123.5 108.3v-.4.4zM178.6 271h-.4c0 .1.1.1.4 0zm-15.7 2.1h.2zm183.8-16.6-.8-2.2.1.5.7 1.7zm-36.5 53 .3-.5-.3.4zm5-53.7.7-.1-.7.1zm30.5-29.9z"/><g xmlns="http://www.w3.org/2000/svg" fill="#fff"><path d="m396.9 380-61.6-153.9c-1.1-2.8-4.2-4.1-7-3s-4.1 4.2-3 7l9.1 22.7-139.6 31.3-6.4-15.4h12.2a8.7 8.7 0 0 0 8.7-8.7 8.7 8.7 0 0 0-8.7-8.7h-44.3c-4.8 0-12.5 2-12.5 10.4v4.2c0 7.4 7.5 10.4 12.5 9.8a198 198 0 0 0 21.2-5.1l7.7 18.6-74.6 91a5.4 5.4 0 0 0-.7 5.7 5.5 5.5 0 0 0 4.5 3.1c3.6.4 56.4 9 101.3 16.5.5 4.4 2.2 8.5 4.8 11.8l-4.5 4-17.2-1.3c-2.8-.2-5.2 1.8-5.4 4.6s1.8 5.2 4.6 5.4l27.9 2a5 5 0 0 0 4.8-7.2 23 23 0 0 0 7.9 1.4 23 23 0 0 0 18.6-36.5l5.3-4.8 15.8 6.3a5 5 0 0 0 3.7-9.3l-16.8-6.7 75-107.5 46.6 116.4a5.4 5.4 0 0 0 7 3 5.5 5.5 0 0 0 3.1-7.1zm-207.3-79.2 35.3 83.9a23 23 0 0 0-7.7 10l-92.3-15 64.7-78.9zm50.4 91.9-3.5-8.4a18.7 18.7 0 0 1 2.1-.1c2.3 0 4.5.4 6.5 1.2l-5.1 7.3zm-9.9 4.2-8.8-1.5a19.1 19.1 0 0 1 5.3-6.9l3.5 8.4zm-10.3 9.3 11 1.8-7.3 6.6a18.8 18.8 0 0 1-3.7-8.4zm1.8 15.5 1.6-1.4 2.2 1.7-3.8-.3zm36-18.5a19 19 0 0 1-31.4 14.4l9.3-8.3c1 .5 2 .8 3.1.8a6.7 6.7 0 0 0 6.7-6.3l6.4-9.1 2.5-2.3a19 19 0 0 1 3.4 10.8zm-2.7-31.9a5 5 0 0 0-5.4 3.1 5 5 0 0 0 .3 4.3l-2.3 3.3a22.8 22.8 0 0 0-12.7-1.5l-36.3-86.2L329 265.1l-74 106.2z"/><path d="m246.9 352.9 7.2-22.8 27.9 7.2-6.3 22.8z"/></g><path xmlns="http://www.w3.org/2000/svg" d="M268.1 358.7z"/><path xmlns="http://www.w3.org/2000/svg" fill="#fff" d="m278.3 352.1 1.2-4.2-29-8.1-1 4.5c3.9 1.4 26.7 7.5 28.8 7.8zm29.6 33.7c.3-3.3-5-11.2-9.3-15.2l-1.3-1.2-7.6 10.5 17.9 7c.2-.3.3-.6.3-1.1z"/><path xmlns="http://www.w3.org/2000/svg" d="M189.7 206.3h.4-.4zm-.1 14.4z"/><g xmlns="http://www.w3.org/2000/svg" fill="#fff"><path d="m307.6 387-.7-.3-2-.5c-1-.6-2-1-3.7-1.5l.3.2c-1-.5-1.8-.7-2.7-1-.5 0 .7.4-.4.2l-2.7-1c.2-.1 1.1.3 1 0-.3 0-1.6-.5-1.5-.3v-.1l-1-.5c-.3 0-.5 0 0 .2l-3-1c-.9-.4-.5-.5-.8-.7-.2 0-.7-.2-.7 0v-.2h-.5c-1.7-.9-3.6-1.2-5-2 .4.2 1.1.5 1.2.4l-1.3-.5c.5.2 1 .3.8.1l-5.7-2c0-.1-1.5-.5-2.2-1l.1.1c.4.2.5.3-.3 0h-.3c-.6-.4-.5-.4-.2-.3-.4-.1-1-.3-.5-.3-1.1-.5-1.3-.3-2-.5l-3.6-1.4h.2c-.5-.1-.6-.4-1.5-.7-1 .2-2.5-1-4.6-1.6.2.3-.9-.2-.8 0-2-1-3.7-1.3-5.9-2.3h.2c-.6-.4-2.1-.9-2.7-1 .4 0-.7-.4-.3-.4-.5 0-2.4-.8-2.4-.8-.3-.3-1.9-.8-2.7-1.2l-1.3-.3h.5c-.7-.2-.7-.3-.5-.3l-.8-.3h.2c-.7-.4-1.2-.2-.6 0-1.7-.3-.8-.5-2.4-.9h-.3c-1.6-.4-.5-.4-2.1-.9v-.1l-.3-.1h-.4l-.1.1v.2l-.3.4-.7 1.6c-.3.9.2-.3.1.2v1-.2l.4.3 1 .4h-.4l1.2.5c.4 0-.1-.2-.5-.4 1.3.6 2.5.7 3.7 1.4h-.5c-1.3-.4 1 .4 1 .5.4 0 1.5.6 2.1.6 2.2 1.2 4.2 1.5 5.8 2.3-.5 0 .6.3.5.4.7.4.6.1 1.3.4l.6.4c1.7.4 1 .7 2.6 1.2 1.1.2 2.3 1.1 4 1.5v.1c1.1.4 1.6.8 2.6 1.1.2.2-.3 0-.3.2 1 .2-.3.1.4.2 1.3.7 2.8.6 4.1 1.1 1.5.4 2.5 1.3 2.8 1.1l-.7-.3 2 .8v.1c.8.2 2.6 1.1 3.6 1.3v.1l2.2.7c1.6.4 5 1.8 7.3 2.7 0 .2 1.4.7 2.5 1h-.5c1.5.3 2.9 1.3 4.4 1.7.4.3 2.2.7 2.4 1 1.7.5 3.2 1.1 5.5 2.2h-.2l1.4.6 1 .6c.6.2 1.2 0 1.6-.2.4-.1.6-.3.8-.5a2.6 2.6 0 0 0 .4-.6l.9-3h-.2z"/><use xmlns:xlink="http://www.w3.org/1999/xlink" xlink:href="#a"/><use xmlns:xlink="http://www.w3.org/1999/xlink" xlink:href="#a" x="-277.1"/></g><path xmlns="http://www.w3.org/2000/svg" d="M334.5 211.8h-.2.2z"/><circle xmlns="http://www.w3.org/2000/svg" cx="348.7" cy="219" r="11.6" fill="#fff"/><path xmlns="http://www.w3.org/2000/svg" d="m358.3 211.3.1.2v-.2zm-21.5 4.4zm17.1-.8zm-19.4-3.1h-.3.2zm-83 200.8.1.1zM90 403.2zm-.2-53-.1-.3.1.3zm308.6-7.7v-.3.3zm-2.1 11zm20.8 65s0 .2.2.3l-.2-.2zm-29.4-3.2zM361 380zm-3.3 29.4-.2.1.2-.1zm9.3-6.3zm43.7 6 .1.1zm-43.9-59-.1-.2.1.2z"/><path xmlns="http://www.w3.org/2000/svg" d="m470.7 375.4-.8-5.2-.5-2.4-.5-2.1c-1.9-7.8-5-16-9.5-23.5a72.7 72.7 0 0 0-17.6-20.2l-.5-.3a.9.9 0 0 0-.2 0 79.1 79.1 0 0 0-12.6-8.3s-1-.6-2.7-1.4l-3-1.3-3.9-1.6a78 78 0 0 0-25.3-4.3c-1.5 0-2.3.1-1.8.2l1.7.3h.7-2.4a77.6 77.6 0 0 0-10.6.7l3-.4 4-.5 2.6-.2c2.7-.3 2.5-.4 1-.5a56.9 56.9 0 0 0-9.9.3l-1.3.2a69 69 0 0 0-11 2.2l-.5.2-10-24.3-13.3-34-6.3-16c1-.5 2-1 3.2-1.3l1.7-.6h.1l.9.1c-.2 0-.5-.1-.3-.2l.7.2-.2.1 1 .3-.1-.2c.4.1.6.4 1.2.3.2-.1-.5-.2 0-.2a9 9 0 0 0 2.5.2c-.1-.2.1-.2.4-.2.8-.2.4.3 1.2 0l.1-.2c.7-.5.5.1 1.2-.5-.3.1-.2-.2.2-.3v.2l.4-.3c-.1.2 0 .2.3 0l-.2.3.5-.5c.6-.1 1.1-.7 1.4-.6l.5-.4.5-.5c0 .2.4-.2.4 0 .1-.3.7-.9 1-1 1-.8 1.1-1.8 1.9-2.7-.2 0 .1-.5 0-.4 0-.6.4-1 .6-1.4.2-.4.2-.7 0-1 .1-.5.3-.6.4-.8v.1l.2-2c0-.3-.3-.4-.3-1v-.3c0 .1.1.2.2-.1a.7.7 0 0 1-.1-.2v-.2l-.1.1c0-.4-.2-1.1 0-1.2-.3-1.2-.8-2-1.3-2.8 0 0 .2 0 .4.3l-.3-.6.3.5c-.2-.8-1-1.4-1.4-2.3l-.2-.1-.3-.3c0-.2.2-.1-.1-.5l-.5-.6-.7-.4c.2.2 0 .2 0 .1l-.5-.4.1-.1-.7-.3c0-.2.4.2.5.1l-1.3-.8c-.5-.2 0 .2-.2.2-.4-.2-.9-.3-1.3-.6l.1.2-1.8-.6c-1.6-.1-2.4.1-2.8.3s-.3.4-.1.5l1.4.4 2.6.8c.8.3 1.7.6 2.7 1.4l1 1 .6 1 1.2 2.3c.4 1 .7 2.2.8 3.2l.1 1v1.1l-.2.2v.7h-.1l-.1.8-.2.3c0 .5-.3 1-.6 1.4h.2c-.7 1-.7 1.4-1.5 2-.6 1.2-1.6 1.2-2.4 2.2 0-.2-.1 0-.1-.1-.5.4-1 .6-1 .9-.3.2-.3 0-.4 0l-.6.4.1-.1-.9.3.3.2c-.6 0-.2-.3-.7 0v.1c-.7.1-1.2-.1-1.8-.3-1.4 0-3 0-4.3-.6a7.6 7.6 0 0 1-3.5-2.3v-.1c.1-.2-.7-.3-.6-.6l-.3-.1c0-.1-.1-.3 0-.2l-.3-.3-.1-.3c-.5-1-1.2-1.7-1.5-2.9 0-.7-.3-1.7-.4-2.7v-2.9a6 6 0 0 1 1.5-3.1c.7-1 1.5-1.7 2.3-2.6l.1-.2c.6-.4 1.1-.8 1.7-1l.4-.3a6.6 6.6 0 0 1 1-.4l2.4-.7c.8-.2 1.3-.3 1.2-.6-.2-.2-1-.6-3.2-.6-.9.1-1.5.3-2 .7-2.5.4-4 1-7 2l-3.2 1.2a22 22 0 0 0-3.2 1.5c-1.3.7-2.7 1.6-3.8 2.6-.4.6-1.4 1.3-1.9 2.1l-.2.2-.5.8-.6 1-.2.5-.5 2.1h.1l-.2 1v2.3c.2 1.6 0 2.6.6 4.2-.1-.2 0 .1-.1.1.2.8.5 1.5.7 1.5v.6l.5.8-.1-.2.5 1.2v-.3c.2.6-.1.2.2.8h.1c.4.8.5 1.3 1 2.1l.3.6.3.4.4.5c0 .1.1.2.2.1l.9 2.3 4.9 12.1-17.3 4a240.5 240.5 0 0 1-6 1.4c0-2.8-.1-5.5-.4-7.9-.4-3-1-5.4-1.6-7-.7-1.6-1-2.2-1-1.7l.7 2.7a26 26 0 0 0-7-11.8 42.4 42.4 0 0 1 2 2.2c2.2 2.5 3.3 4.5 4 5.8 1.4 2.6 1.4 2.3 1 .8l-.6-1.4-.8-1.6c-.6-1.1-1.3-2.4-2.1-3.4a19.3 19.3 0 0 0-1.1-1.5 20.8 20.8 0 0 0-1-1.2l-.7-.8-.3-.3a35.6 35.6 0 0 0-9.6-7.1 46 46 0 0 0-4.8-2.3l-4.9-1.8a324.1 324.1 0 0 0-43.4-11.8l-4.4-.8-1.1-.2a2 2 0 0 0-.5 0h-15l-27 .2c-4.1.2-11.4 0-16.3.3l-1.9-.1h-14.8.6-2.5s-.2 0-.3.2l-.3.7-.3.6-.2.4-1.2 3.1a64.2 64.2 0 0 0-2 6.1l.3-.3a41.1 41.1 0 0 0-.8 19.5l.4 1.7.6 1.6.5 1.6.6 1.5a30.3 30.3 0 0 0 4.4 7h-.7.7v.1h-1.5l.3-.1a24.7 24.7 0 0 0-2 .1l.2.1c-1 .1-1.4 0-2.5.5-.5.2 1-.1 0 .2-1.4.3-3.4 1-4.8 2.2.2 0-.2.3-.5.7h-.2l-.9 1c-.2 0-.3.2-.8 1v.5l-.5 1.3c-.1.2-.3.5-.3 1.4.1-.7.3-.3 0 .6v-.2 1c-.1-.3-.2-.2-.3.5v-.5 4.8a8.2 8.2 0 0 0 0 .9 14.6 14.6 0 0 0 0 1l.2.6c-.2-.4 0 .9-.2.5l.6 1.5.8 1.5h-.1a9 9 0 0 0 2.5 2.7l2.9 1.7c0-.2 1.1.3.9 0 2.3.7 4.4 1.2 5.2.6h1.9-.3l4-.7c.7-.2.7-.5 2-.8-.4.2.1.1.6 0h.6c.8-.3.7-.3.3-.2h-.2c.9-.1 2.3-.6 2.5-.5l5.9-1.8-.8.4 1.4-.4-1.2.4c1.6-.2 3.1-1 5-1.4.3 1.2.6 2 1.1 2.7-.1.2.4 1 .5 1.2.4.7.5 1.5.9 2.2l-.2-.2.5 1.2 1.6 3.6.5 1 .8 1.8.3 1-.1-.4c.2 0 .2.8.6 1.4.2.5.6 1 .9 1.4l-15.9 19.4c1.4-1.8-.7.7-.6.5l-7.3 9-1 1.4a78 78 0 0 0-8.5-5.2s-1-.5-2.7-1.4l-3-1.3-4-1.5a78 78 0 0 0-18.4-4.2c-2.8-.2-5.2-.3-6.8-.2-1.6 0-2.3.1-1.8.3l1.6.2h.8-2.4a77.6 77.6 0 0 0-10.7.8l3-.5 4-.5 2.6-.2c2.8-.2 2.6-.4 1-.5a56.9 56.9 0 0 0-9.8.3l-1.4.2a69 69 0 0 0-20.2 5.6c-6 2.7-12.2 6.2-19.7 12.5a79.7 79.7 0 0 0-15.8 17.6l-1.2 1.9-1.2 2L43 349c-.8 1.7-1.7 3.6-2.4 5.7-1.6 4-2.9 8.1-3.8 12.4a85.3 85.3 0 0 0-1.6 12.8v3.4l.1 4.1.3 4.2.6 3.8.2 1.8.5 2.5a56.9 56.9 0 0 1 .5 2.5v-.1c.2 1.2.6 2.4.9 3.5l.8 2.5.9 2.7-.2-.4c1.5 3.9 3.3 7.8 5 11.2v-.4c1.9 3.6 3.4 6 5 8l2.4 3.3 1.4 1.8 1.7 2h-.1c3.2 3.3 5.8 5.8 8.6 8.3a58 58 0 0 0 9.9 7 34.4 34.4 0 0 0 8.6 4.2l2.3 1.1.3.3c0-.1 2.6 1 5 1.7l-1-.4a81.3 81.3 0 0 0 5.5 1.5c3.6 1 .8.5 4.4 1.3v-.2l3.5.7 3.1.5 3.1.5a77.2 77.2 0 0 0 35-5.2c10.1-4 19-10 26.2-16.7l.7-.5c.5 0 3.6-4 4.2-4.5l1.4-1.8c.4-.5 1.3-1.6.6-.6 1.3-1.7 1.4-1.7 2.2-3l1.4-1.8a76.7 76.7 0 0 0 11.7-26.1l2.9.5-.4 2.1a14 14 0 0 0-.1 4c0-.4 0 .1-.1 0 0 1.5.2 3 .5 3 0 1 0 .8-.2 1 0 0 .2.1.2.5v.8l-.1 1.5v1.6l-.2 1.2v1.1l.1.4a1.5 1.5 0 0 0 .2.5l-.2.1-.5.7c.3-.3.2 0 0 .3v-.1l-.4.5c0-.2 0-.1-.2.3v-.3a3.4 3.4 0 0 0-.2.8c-.3.5-.3 1.5-.4 1.8 0 0 0 1.4.3 1.6v.3c0 .3.6 1.2.8 1.6.9 1.3 2 1.7 3.3 2.1h.5c1.3 0 2.3.4 2.8 0l1 .2h-.2l2.2.2c.4 0 .5-.2 1.2 0h.4c-.2 0-.3 0 0 .1h.5-.1l1.3.1 3.5.1-.5.1h.8-.7c1 .3 2 0 3 .3h.4l.4-.1.6.2h1.8-.1.6v.2l.9-.1h-.5l1.6.2c.6 0 0-.1.2-.2l1.7.1h-.2l2.2.1c7.3-.1 1.6-.8 1.6-.8-2.8-.4-4.3-.3-7.8-.5-3-.2-3.7-.5-6.9-.6l-4.5-.3c-.7 0-1.9-.2-2.7-.1l-.3-.1a3.3 3.3 0 0 1-1 0h.1l-1-.1h-.6.1c-.7 0-1.5 0-2-.3v.1l-1.3-.5c-.4-.2-.7-.5-1-1-.6-.4-.8-1-.9-1.5l-.2-1.9c0 .2 0 0 .1 0 0-.7.4-1.4.2-1.5.3-.4.3-.3.4-.3 0 0 .1-.5.4-.8v.2l.8-.8h-.3c.5-.3.2.1.7-.2v-.1c.7-.4 1.3-.3 2-.3l1.4.1 1.4.1 2.9.2c1.9 0 3.7.2 5.4.4l.2.1h2.3l.4.2c1.4.1 2.7 0 4.2.2 1.8.3 5.3.4 7.3.5l2.2.1c.8.1 1.5.2 2 .5a5.1 5.1 0 0 1 2.7 3.2c.2.8.2 1.6-.1 2.3 0 0-.2.7-.8 1.4-.5.8-1.6 1.4-2.4 1.7s-1.6.2-1.4.4c0 0 .3.2 1 .2s1.5 0 2.6-.7a4.3 4.3 0 0 0 2-3l.2-.6v-1c0-.4 0-.8-.2-1.3l1.4.3-.4-.2c1.1.3.3.2 1.3.5v-.1c1.5.2 2.4.6 4 .7 1.6 0 3.4 0 5-.4 3 .3 5.8.7 8.4.8a1.8 1.8 0 0 0 .6 0l4.6.4 3.3.3 3 .2h1.4a3 3 0 0 0 1.8-.4 3 3 0 0 0 1.4-2.1c0-.6 0-.8-.2-.7-.1.1-.2.8-1 1.4-.3.3-.9.6-1.5.6l-1.2-.2-1.4-.3c-2.4-.4-4-.5-5.8-.5-.2-.3-2-.2-2.6-.3-1.5 0-3.1-.5-4.6-.4l.4-.1c-.6 0-1.4 0-2-.2 2.1-.8 4-2 5.7-3.3h3.3c1.8-.1 3.7.9 5.5.7h.2l1.6.1s1.7.2 2.9.1h.5l.3 2c.1 1 .3.9.4.4a7 7 0 0 0 .3-1.5v-2.7h-.6v-1.2l-.1-.5c-.4-1-.8-1.6-1.4-2.1-.5-.6-1.1-1-2-1.8-1.2-1.3-1.5-1.9-3-3l-.4-.3a39.5 39.5 0 0 0 .5-1.6c.5-1.4 1-3.7 1-6v-1.7l-.1-1.6-.3-1.6a29.2 29.2 0 0 0-3.1-8.3l-.6-1c1-1 2.2-2.2 3.7-3.3l1.1-1.1.8.2h-.5l.8.3-.7-.2c.8.4 1.9.6 2.9 1l.2.1.5.1c0 .1-.1.2.4.4l1.7.6c-.3-.2-.2-.2 0-.1l.6.2v.1l.8.2h-.5l1.5.5c.6.2 0 0 .2 0 .5.1 1 .2 1.6.5l-.2-.2c1 .3 1.5.6 2 .9 7.1 2 1.8-.3 1.8-.3-2.6-1.2-4-1.6-7.2-2.8-2.8-1.1-3.5-1.6-6.4-2.6l-4.2-1.7c-.7 0-1.8-.7-2.6-.9l-.3-.1a4 4 0 0 1-.8-.3l-1-.4-.5-.2h.1c-.7-.2-1.4-.4-1.9-.7l-1.1-.9a3 3 0 0 1-.7-1.1 3 3 0 0 1-.4-1.8c0-.6.2-1.1.4-1.9 0 .2 0 0 .1 0 .3-.6.8-1.1.7-1.3.3-.3.3-.2.4-.2l.6-.6-.1.1.3-.1 1 .4.2.2c0 .3 1.7.4 1.8.6l.7.2c.2.1.5.3.2.2.6.3.6.2 1 .3l.7.4c2.3 1 4.5 1.6 7 2.7 2.8 1.4 8.6 3.4 12 4.6 2.4.8 5 2 7.5 3 .2.6.4 1.2.4 1.8a.8.8 0 0 0 0 .3c0 .7-.3 1.5-.8 2.1 0 0-.4.6-1.1 1.2-.8.5-2 .8-2.9.8s-1.5-.2-1.4 0l.8.5a5 5 0 0 0 2.8.1 4.3 4.3 0 0 0 2.8-2.2c.3 0 .6-1.1.7-1.5.1-.8.3-1.6.2-2.4a60.5 60.5 0 0 0 6.1 2.3l4.3 1.8 3 1.1 2.8 1 1.4.6a3 3 0 0 0 1.9 0 3.1 3.1 0 0 0 2-1.6c.2-.6.1-.8 0-.7-.2 0-.5.6-1.4 1-.4.3-1 .4-1.7.2l-1-.5-1.3-.7h.1c-2.3-1-3.8-1.7-5.5-2.1-.1-.4-2-.8-2.4-1.1-1.5-.4-2.9-1.4-4.3-1.7h.4c-1-.3-2.4-.8-2.4-1-2.5-.9-5.8-2.3-7.4-2.7-.9-.1-1-.4-2-.7h-.2c-1-.3-2.8-1.2-3.6-1.4v-.1l-2-.7.8.3c-.4.2-1.4-.8-2.8-1.1-1.3-.6-3-.5-4.2-1.2-.7 0 .7 0-.3-.2 0-.2.5 0 .3-.2-1-.3-1.5-.7-2.7-1v-.2c-1.6-.4-2.8-1.3-4-1.5-1.5-.5-.8-.7-2.6-1.2l-.5-.4c-.7-.3-.6 0-1.4-.4.1 0-1-.4-.4-.3-1.7-.9-3.7-1.2-5.8-2.4-.6 0-1.7-.6-2.2-.6 0 0-2.3-.9-1-.6l.4.2h.2c-1.2-.8-2.4-1-3.7-1.5.3.2.9.4.5.4l-1-.5.8-3.6c1 .3.2.4 1.6.8h.4c1.5.3.7.5 2.4.8l1.6.7h-.5l.9.1 1.2.4c.8.4 1.7.7 1.9 1 0 0 2 .8 2.5.8-.5 0 .6.4.2.4.6 0 2.1.6 2.7 1l-.1-.1c2.1 1 3.9 1.3 5.8 2.3 0-.2 1 .3.8 0l.4.2.6.2.2.3 1.3.3 1.6.6s0 .1-.1 0l1 .4.7.4c2.4 1 4.6 1.6 7.1 2.7l6 2.5 5.3 1.8-.1.1.3.2a.6.6 0 0 0 0 .1c-.1.1.2.2.5.2.4 0 .7 0 .7.2h.4c0 .1.3.2 0 .2l.7.2.2.2c.8.4 1.6.4 2.5.8 1 .7 3 1.2 4.2 1.5 1.7.4 3.2 1.9 5 2.2h.2l1.5.6 2.8 1h.4l-.3 2.1c0 1 0 1 .4.5l.4-.8.3-.6.2-.7.5-1.8v-.1l-.1-.1-.2-.1-.2-.1.1-.1c.2-.2.3-.6.3-1v-.6c0-1-.4-1.7-.7-2.4l-1.4-2.2c-.9-1.7-1-2.2-2.1-3.8l-1.8-2.2c-.4-.2-.8-1-1.2-1.2v-.2l-.5-.4c-.2-.2-.3-.5-.5-.5l-.2-.3h.1a5 5 0 0 1-1-.9v.2a2.6 2.6 0 0 0-.5-.5l-.1-.1-.4-.4s.1-.1 0-.2l-1.2-1.3-1.3-1.4a2 2 0 0 0-.5-.4l-3-3.6-6-7.1-1.5-1.4c.4-.9 1-3.5 1-3.5l.4-1.8.2-.8.1-1a2.5 2.5 0 0 0-.1-.9l21.4-31.1 16-23 15.7-22.2.3.7 2.7 6.9 3.6 9.1 7.3 17.8.8 2 .4 1a4.2 4.2 0 0 0 .2.3l1.7 4.5a83.9 83.9 0 0 0-29.7 25l-2.4 3.5-1.2 1.8-1.2 2-2.4 4.6c-.8 1.7-1.7 3.5-2.4 5.6-1.6 4-2.9 8.2-3.7 12.5a85.3 85.3 0 0 0-1.6 12.7v7.5l.4 4.3.5 3.8.2 1.8.5 2.5a56.9 56.9 0 0 1 .5 2.5v-.1a81.7 81.7 0 0 0 1 3.4l.7 2.6.9 2.7-.2-.5c1.5 4 3.3 7.9 5 11.2v-.3c2 3.6 3.4 5.9 5 8l2.5 3.3 1.4 1.8 1.6 2h-.1c3.2 3.2 5.8 5.8 8.6 8.2a58 58 0 0 0 10 7c-1.1-.5.3.4.2.4 3.8 2.3 8.1 4.1 8.3 4l2.3 1 .4.3c0-.2 2.6.9 5 1.6l-1.1-.3a81.3 81.3 0 0 0 5.5 1.4c3.6 1 .9.5 4.4 1.3v-.2l3.5.7 3.1.6 3.1.4c1.1.1 2.2.3 3.5.3 10.6.5 21.6-1.4 31.6-5.5 10-4 19-9.9 26.1-16.6l.7-.5c.5 0 3.6-4 4.2-4.6l1.4-1.8c.4-.5 1.3-1.5.6-.6 1.3-1.6 1.4-1.7 2.2-3l1.4-1.7a76.7 76.7 0 0 0 10.4-21.8 72.2 72.2 0 0 0 3-31.7zM253.1 268.8l.3.2.3.2a2.7 2.7 0 0 1 .3.5l-3 .7-.7-2.3 2.8.7zm-82.3 2.3-7.8 2c-1.2.5-3.4.8-4.7 1.2h-.6a6 6 0 0 1-1.5.3h-2.6.2a8.9 8.9 0 0 1-3.4-.9v.2l-2.4-1.4-.9-.7-.8-1.1a5 5 0 0 1-1.3-3l-.1-1.7-.1-2v-2c0-.5-.1-.8-.3-.9.1-1 .2-.7.3-.8 0 0 0-.9.2-1.6v.4l.2-1 .4-1-.4.3c.6-1 .4-.1 1-1l-.2-.2c1-1.2 1.9-1.5 3.2-2.1a16.2 16.2 0 0 1 6.9-1.8h2.3a25 25 0 0 0 7 4.6c-1.2-.5.4.3.3.3a28.6 28.6 0 0 0 9.5 2.4c3.3.6 2.7.5 3.1.7l5.5.7-1.2-.2 7.5 1-1.5-.4c4 .5 1 .4 4.8.8v-.2c5.4.6 8.6 1.2 13.9 1.9l-.1.4a8.6 8.6 0 0 1-4.1 3.3c-1.6.6-2.8.7-2.5 1l.9.1h-4.3c8.5-.8-.1-1.2-.1-1.2h-6.7l-3.3.1h-1.9l-1 .1-.8.2-.6.1c-5.2 1.5-6.6 1.6-12 3.2zm17-1.8c-.1 0-.4-.1 0-.2v.2zm-10.5 2.1zm6 11.8c-1.2-2.2-1.8-5-3-7.3l-.1-.2-1-2.2-1-2.4.7-.4c.3 0 0 .3 1 0 .8 0 2-.6 3-1-.5.2-.3 0-.1 0 .5-.2.8-.1 1.1-.3l.1.1a.5.5 0 0 1 .2-.1.8.8 0 0 1 .2 0l.9-.1c.3 0-.8 0-1 .2h3l.5-.1 1 2.2c.3.5.6 1.6 1 2.2v.3a2.7 2.7 0 0 1 .3.7l.4.8.2.4a14.9 14.9 0 0 1 .7 1.7v-.1c.4 1.2.8 1.5 1.1 2.6.7 1.2.7 2 1.3 3.2l-4 1a2 2 0 0 0-.5 0h-.3l-.2.1-.4.2h-.3l-.1.1-.2.1-.1.1h-.1v.1a1.1 1.1 0 0 0-.4.2.7.7 0 0 0-.1.2l-.4.4-.3.3-.2.2-.2.3-.8 1-2-4.4zm6 2.3zm-.7.3zm-.6 1.3v-.1zm0-1.1zm-10.7 122.3h-.1c-1.5 4.3-3.6 7.7-5 10.3l-2.3 3.3a23 23 0 0 0-.8 1c-.4.6-.8 1.3-1.6 2.2l-1.2 1.4c-1.4 1.5-.9 1.2-2.4 2.9 0-.2-2 2-1.2 1a63.6 63.6 0 0 1-16.2 12.4L144 444l-2.8 1.2c-1 .5-1.7.8 0 0l.8-.4.4-.2c-3.6 1.4-6.5 2.7-10.2 3.7l1.6-.4-3.4 1 .7-.3-2.6.6-2.6.4h.7l-1.7.3h-1.4l-3.3.5c-1.3.1 2.5-.1-.3.1-3.4.3-8.7.2-13-.4.3.2-.8 0-2-.1l-.2-.1c-4.6-.8-1.7-.4-6.2-1.4h-.9c-4-1-2.1-.8-6.6-2.1 1.8.6.8.4-1.3-.4l.5.1c-1.2-.4-1.6-.6-2.3-1l-1.3-.6 1.1.4-3.2-1.4a60.8 60.8 0 0 1-7-4.1l-.7-.5-1.8-1.3-3.2-2.5c1 .7-1.5-1.4-.8-.8a56 56 0 0 1-5.6-5.4l.3.3a83.3 83.3 0 0 1-10-14c0 .4-1.4-2.4-1.1-1.7-2.9-5.5-4-10.5-4.8-12.5l-.7-2.8a38.8 38.8 0 0 1-.3-1.8l.1.6-.6-3.3-.3-2.4-.2-2.3-.2-2.5c0-2-.3-2.3-.1-5.8l.1-1.6c0 .9 0 1.1.2-.6v-1c.2-2.1.2-1.8 0-.8v.2l.5-3.8.5-2.5A71.5 71.5 0 0 1 53 357c.6-1.2 1-2.4 1.7-3.5l-.6 1.1-.8 2c2-4.1 4.1-8.5 7.4-12.8l.6-1 .2-.2.4-.6.8-1c.6-.6.1.1 1.8-1.9l2.9-3 3.3-3.2c-1.1 1-.8.7-.3.2l2.4-2h.2l1.3-1 1.9-1.5c.6-.3-1.7 1.3-2 1.5l3.3-2.3c.6-.3 1.1-.8 3.4-2.1 2.5-1.5-.5.2.7-.6a54.5 54.5 0 0 1 7-3.5l-.8.3a68.5 68.5 0 0 1 17.9-5.1 68.4 68.4 0 0 1 9-.7h2l2.7.3 2.4.3 2.9.4 3.4.7 4 1h-.3c6.7 2 10.7 3.8 15 5.9l2.8 1.7 2.7 1.7-.2.3-3.6 4.5.7-1-.8 1-3-1.9c-2.2-1.2.4.3-.7-.2-2-1.1-4-2-6.4-3.1l.8.4c-4-1.7-6.4-2.4-9.2-3.2-3.9-1-7-1.2-9.3-1.4l-3-.1h-2c-2.1.1-2 .2-.8.3l5 .4c1 0 1.8.2 2.4.3l1 .1a64 64 0 0 1 24.5 9.3l-7 8.5 2-1.9c-4.6 5.5-1.5 1.2-5.7 6.5l.2.1-16.3 19.1-1.7 2.1v-.2.1c.3-1.8.2-3 .4-4.7v-.5c0-1.7.4-3 .2-3.7 0-.8.1-.9.2-1.3v.2l.2-2.9c0-.5-.1-.6 0-1.6l.1-.4c0 .2 0 .3.1-.2v-.4c0-.5 0-1.6.2-1.7l.2-4.5c.1-.2.1.2.1.6v-1c.2 0 0 .5 0 .9.3-1.3.2-2.6.4-4v-1l.2-.7.1-2.4v.1-.8h.2v-1.2.7l.2-2.2c0-.8-.1.1-.2-.2 0-.7 0-1.4.2-2.2l-.1.3c0-1.3.1-2.1.3-3 .2-9.6-.7-2-.7-2-.6 3.7-.5 5.7-.9 10.2l-1 9-.4 6-.3 3.5v.4c0 .4 0 .8-.2 1.2v1.4h-.1v.7-.1l-.3 2.8h.1c-.3 1.8-.1 2.5-.4 4.1l-.1 2.4-2.8 3.4h-.3a3.6 3.6 0 0 0-.3 0c-.4-.2-1-.4-2.2-.4l-.1-1.3v-.2c.1 0-.3-1.2-.2-1.4v-.7c0-.5 0-.5-.2-.8v-.6c0-1.9-.4-3.5-.5-5.5-.1-2.5-.7-7-1-9.6-.6-3.7-.5-8-1.1-11.8a1.6 1.6 0 0 0 0-.5l-.4-3.4s-1.6-16.8-1.4-4c0 1.9.2 3 .5 4.4-.2.2 0 1.5 0 2 .3 1 .2 2.3.4 3.4l-.1-.3.2 2c.2 2 .4 4.7.7 5.9v-.1c.1.7 0 .9.2 1.7v.1l.3 2.9.1 1.6v-.6c.2.2 0 1.1.2 2.2 0 1 .6 2.1.6 3.2.2.5-.2-.4 0 .3-.1 0-.1-.3-.2-.1.1.7 0 1.2.2 2.2.2 1.2 0 2.3.3 3.1.2 1.3-.2.9.1 2.2v.5l.1 1v.4c0 .6 0 1.3.2 2a3.9 3.9 0 0 0-1.4.7l-.5-.7-1.3-1.4c.3.2-.2-.5 0-.4a9.2 9.2 0 0 1-1.4-1.6l-3-3.5s-.5-.6-.4-.3c-1.2-1.3-1.8-2.5-2.5-2.8l-.7-1h.1l-1.9-2.1-1.1-1.1c.3.2 0-.1-.2-.4.1.2.2.2 0-.2-.1 0-.2 0-.3-.2-.4-.4-.3-.3-.2-.1l-1-1.3-3-3.4c-.1-.2.2 0 .5.4l-.7-.8.6.7c-.7-1.1-1.7-2-2.6-3.1l-.2-.2v-.1l-.5-.4-.3-.6-1.6-1.8c.2.3.1.2 0 .1l-.5-.7-.8-.8c0-.2.4.4.5.4l-1.4-1.7c-.5-.5 0 .2-.3 0l-1.4-1.7.1.3A18 18 0 0 1 82 341c-6.7-7-2-1-2-1 2.3 3 3.7 4.4 6.6 7.9 2.5 3 3 4 5.8 7l3.8 4.6c.7.6 1.6 2 2.4 2.7l.2.4.8.9.9 1 .4.6v-.1l1.8 2.1c1 1.4 1.7 1.8 2.7 3.2 1.4 1.4 2 2.6 3.4 4l-.3.2c-.4.5-1.2.7-1.6 1.4v-.3l-.8 1a10.2 10.2 0 0 0-1.2 1.8l-1-.9-.1-.2c0-.1-1.1-.6-1.1-.8l-.5-.3c0-.1-.3-.4 0-.2l-.8-.5-.3-.4-4.4-3.6a93.8 93.8 0 0 0-7.5-6c-3-2.3-6-5.4-9-7.7a1.2 1.2 0 0 0-.4-.2l-2.6-2.3s-13-10.8-3.8-1.8c1.3 1.3 2.3 2 3.4 2.8 0 .3 1.2 1 1.5 1.3H78c1 .6 1.8 1.6 2.7 2.2l-.3-.2L82 361c1.5 1.3 3.6 3 4.7 3.7h-.1c.6.3.7.5 1.4 1l2.3 1.9 1.2 1-.5-.3c.3 0 .8.8 1.8 1.4.8.7 1.9 1 2.6 1.8.5.3-.4-.2.2.3 0 0-.3-.2-.2 0 .7.4 1 .9 1.7 1.4 1 .8 1.7 1.6 2.4 2 1 .8.5.8 1.6 1.5l.4.4.8.6s.6.5.3.4l1.8 1.5v.2l-.2.8-1.2-.1s-1.6-.2-2-.1c.3 0-.5-.2-.3-.2-.4 0-1.6 0-2.1-.2h.1c-1.8-.2-3-.1-4.7-.4 0 .1-.8 0-.6.1-1.7 0-3-.5-3.6-.2-.8 0-1-.1-1.3-.2h.2l-3-.2h-1.5l-.4-.1c.2 0 .3 0-.2-.1h-.5.1l-1.8-.2-4.5-.3h.6l-1-.1h1c-1.3-.2-2.7 0-4.1-.3h-1l-.7-.2-2.3-.2c.4 0 .2.1 0 .1-.3 0-.5-.1-.8 0v-.2h-1.1.6l-2.1-.2c-.8 0 0 .1-.3.2-.7 0-1.4 0-2.1-.2h.2c-1.3 0-2 0-3-.2-9.5-.2-2 .7-2 .7 3.7.6 5.7.5 10.2.8 4 .4 5 .7 9 1l6 .5 3.6.2.4.1 1.1.1h1.5l.6.1h-.1a34 34 0 0 1 2.8.3v-.1c1.8.3 2.5.1 4.2.4 2.1 0 3.3.5 5.5.5h.4v.8h-.2v.9-.3c.3 0-.2.6 0 1.3 0 .3.2.6.4 1 .2.2.4.5.4.8.2.3-.3-.2 0 .2-.2 0-.2-.2-.3 0l.2.7-2.2.2h-.2c-.1-.2-1.3.2-1.4.1l-.5.1h-.2l-.9.1h-.5c-2 0-3.6.4-5.6.5-2.4.1-7 .7-9.6 1-3.7.6-8 .5-11.8 1l-.4.1-3.5.3s-16.8 1.5-3.9 1.4c1.8 0 3-.2 4.3-.4.2.1 1.6-.2 2-.1 1.1-.2 2.4-.1 3.5-.3h-.3c.8 0 1.9-.2 2 0 1.9-.3 4.6-.5 5.8-.8.7-.1.9 0 1.7-.2l3-.3h1.5-.6c.2-.3 1.2 0 2.3-.3 1 0 2-.6 3.2-.6.5-.1-.5.2.3 0 0 .2-.4.2-.2.2.8-.1 1.3 0 2.2-.2v.1c1.3-.2 2.4-.1 3.2-.3 1.2-.2.8.1 2.1-.1h.5c.6 0 .4-.1 1-.2 0 .1.9 0 .5.1l3-.3.3.7c-.5.4-1 1-1.3 1l-1.5 1.3c.2-.2-.5.3-.3.1-.3.3-1.2 1.2-1.6 1.4-1.4 1-2.3 2-3.6 3 .1 0-.5.5-.3.4-1.2 1.2-2.5 1.8-2.7 2.5l-1.1.7.1-.1-2.2 1.9c-.4.4-.3.5-1.1 1.1l-.4.3c.2-.2.2-.3-.1 0l-.2.2-.2.2h.1l-1.4 1-3.4 3 .4-.4-.8.7.7-.7c-1 .7-2 1.8-3.1 2.6l-.2.3-.4.4-.7.4c-.5.3-1.2 1-1.8 1.6.3-.3.3-.2.1 0l-.6.5h-.1l-.8.7.4-.5-1.6 1.4c-.6.6.1 0-.1.3l-1.6 1.4.2-.1a18 18 0 0 1-2.3 1.9c-6.9 6.6-1 2-1 2 3.1-2.3 4.5-3.8 7.9-6.7 3-2.5 4-3 7-5.7l4.5-4c.7-.7 2-1.6 2.7-2.4l.4-.2.9-.7 1-1 .6-.4v.1l2-1.8 3.2-2.7c1.5-1.5 2.7-2 4.3-3.6-.2.2.1 0 .1 0l.4-.4c0 .1 0 .3.4.5l.1.4c.2.3.3 0 .5.4 0 0 .3.4 0 .3.6.8 1.5 1 2.3 1.9.2 0 .5 0 .7.2a54.3 54.3 0 0 1-1.6 1.7l-.2.1c-.1 0-.6 1.2-.8 1.2l-.3.4c-.1.1-.3.3-.2.1l-.5.7-.4.4c-1.3 1.4-2.2 2.8-3.5 4.3-1.7 1.8-4.5 5.4-6.1 7.5-2.3 3-5.4 6-7.7 9a1.2 1.2 0 0 0-.2.4l-2.2 2.7S75 435 84 425.8v.1c1.2-1.4 2-2.3 2.7-3.4.3 0 1-1.2 1.3-1.5.7-1 1.6-1.7 2.3-2.7l-.2.3 1.3-1.5 3.7-4.6c.3-.6.5-.7 1-1.3l1.9-2.3 1-1.2-.4.4c0-.2.9-.8 1.5-1.7.7-.8 1-2 1.8-2.7.3-.4-.2.4.3-.2 0 0-.2.3 0 .2l1.4-1.7c.7-1 1.6-1.7 2-2.4.8-1 .7-.5 1.5-1.6l.4-.3c.3-.4.1-.4.6-.9 0 .1.5-.5.3-.2l2-2.3a2 2 0 0 0 .4.1h.3l-.2 1.8s-.2 1.6-.1 2c0-.4-.2.5-.2.2 0 .5 0 1.7-.2 2.2v-.2c-.2 1.9-.1 3.1-.4 4.8.1-.1 0 .7.1.5 0 1.7-.5 3-.2 3.7 0 .7-.1.9-.2 1.3v-.2l-.2 2.9v1.5l-.1.5c0-.3 0-.3-.1.1v.5l-.2 1.7c-.2 1.8-.2 3-.2 4.5-.1.2-.1-.2-.1-.6l-.1 1v-.9c-.2 1.3 0 2.6-.3 4v1l-.2.7-.1 2.4v-.1.8h-.1v1.2-.7l-.3 2.2c0 .8.1-.1.2.2 0 .7 0 1.4-.2 2.2l.1-.3c0 1.3-.1 2.1-.3 3-.2 9.6.8 2 .8 2 .5-3.7.4-5.7.8-10.1l1-9.1.4-6 .3-3.5v-.4l.1-1.2.1-1.4.1-.7v.2a34 34 0 0 1 .3-2.9l-.1.1c.2-1.9.1-2.6.4-4.2 0-2.2.5-3.4.4-5.6 0 .3.1 0 .1 0v-.7l.6.1v-.1c.3.1.5.4 1 .2.2 0-.4-.2 0-.2a8 8 0 0 0 2.3.3c-.1-.2.1-.2.3-.3v.2c.8-.3.4.2 1.2-.1v-.1l.2 2.2-.1.2c-.1.1.3 1.2.2 1.4l.1.5v1.6c.2 2 .5 3.5.6 5.6 0 2.4.7 7 1 9.6.5 3.6.4 8 1 11.7v.5l.4 3.4s1.5 16.8 1.4 4c0-1.8-.2-3-.4-4.3.1-.3-.2-1.6-.1-2-.3-1.1-.1-2.4-.4-3.5l.1.3c0-.8-.2-1.9-.1-2-.2-2-.4-4.6-.7-5.8-.1-.7 0-.9-.2-1.7-.2-.8-.2-2.3-.3-3l-.1-1.5v.6c-.2-.2 0-1.2-.2-2.3 0-1-.6-2-.6-3.2-.1-.5.2.5 0-.3.1 0 .1.4.2.2-.1-.8 0-1.3-.2-2.2-.2-1.3 0-2.4-.2-3.2-.2-1.2.1-.8-.2-2.1v-1.6s-.1-.8 0-.4l-.3-3.3v-.2a.5.5 0 0 1 .2-.1v.1l.3-.2c0 .1 0 .2.1.1a.3.3 0 0 0 .1.1v.1c.5.5 1 1 1 1.3 0 0 1 1.3 1.4 1.5-.3-.2.3.5 0 .3l1.5 1.6h-.1c1 1.4 2 2.3 3 3.6 0-.1.5.5.5.3 1.1 1.2 1.7 2.5 2.4 2.7l.7 1.1v-.1l1.8 2.2c.3.4.5.3 1.1 1.1l.2.4c-.1-.2-.2-.2 0 .1.2 0 .2.1.3.2l.2.2v-.1l1 1.4 3 3.4c0 .1-.2 0-.5-.4l.7.8-.6-.7c.7 1 1.7 2 2.6 3.1l.2.2.5.4c0 .2-.1.1.3.7.3.5 1.1 1.2 1.6 1.8-.2-.3-.1-.2 0-.1l.5.6v.1l.8.8c0 .2-.4-.4-.5-.4l1.4 1.6c.5.6 0-.1.3.1l1.4 1.6-.1-.2a19 19 0 0 1 1.8 2.3c6.7 7 2 1 2 1-2.3-3.1-3.7-4.5-6.6-7.9-2.5-3-3-4-5.7-7l-3.9-4.6-2.3-2.7-.2-.4a6 6 0 0 1-.8-1l-1-1-.3-.5-1.8-2.1v.1c-1.1-1.5-1.7-1.9-2.7-3.3-1.5-1.5-2-2.7-3.6-4.3.2.2 0 0 0 0l-.4-.6c.2-.2.5-.4.6-.3 0 0 .9-.5.9-.8 0 .2.4-.1.3 0 .1-.2.6-.8 1-1l-.1.1.2-.1 2.7.4c.3.2.9.5 1 .7l.4.3s.3.3 0 .2l.8.5.3.4 4.4 3.5a164 164 0 0 0 7.5 6c3 2.2 6 5.4 9 7.6l.4.3 2.7 2.2s13 10.7 3.8 1.8c-1.4-1.3-2.3-2-3.4-2.8 0-.2-1.2-1-1.5-1.3-1-.6-1.7-1.6-2.7-2.2l.3.2-1.5-1.3-4.6-3.7c-.6-.3-.7-.5-1.3-1l-2.3-1.8v-.1l-1.2-1 .4.4c-.3 0-.8-.8-1.8-1.5-.8-.6-1.8-1-2.6-1.8-.5-.2.4.2-.2-.2 0-.1.3.2.2 0l-1.7-1.4c-1-.8-1.7-1.6-2.4-2-1-.8-.5-.8-1.7-1.5l17 2.6 27.2 4.4-.3 1-.5 1.9-.7 2v-.3a53.7 53.7 0 0 1-3.7 8.5l.2-.2a76.3 76.3 0 0 1-5.6 8.6l-1 1.4-1.3 1.4a45.4 45.4 0 0 1-6.5 6.3 94.5 94.5 0 0 1-7.4 5.4c.7-.5-.4.1-.3 0-2.8 1.8-6 3.3-6 3.5-2.3 1-1.9.7-2.2.8l-1.2.5-2.5 1 .8-.3a65 65 0 0 1-5.2 1.5 13 13 0 0 0 1 0c-2.7.6-.7 0-3.3.6a61 61 0 0 1-34-3.1A56.5 56.5 0 0 1 73.2 427l-.4-.5c-.2-.3-3-2.8-3.3-3.4l-1.2-1.2c-.2-.4-.9-1.3-.3-.6l-1.7-2.2-1-1.4A60.4 60.4 0 0 1 55 377.4c.2-1.4.3-2.7.6-4l.3-1.7.3-1.7c1.3-6 3.9-12.1 7.4-17.7 3.5-5.6 8-10.6 12.7-14.6l.7-.6.4-.4a60 60 0 0 1 9.6-6.2s.7-.4 2-1l2.3-1 3-1.2a64.9 64.9 0 0 1 20.4-4c-.3 0-1.6-.2-4.2-.1-2.5 0-6.3.3-11.5 1.5h.3a52.4 52.4 0 0 0-16.3 6.8l-3 2a63.4 63.4 0 0 0-8.9 7.5l.4-.5-4.2 4.5a60.3 60.3 0 0 0-6 9 53 53 0 0 0-3.7 8.1v-.3c-.3 1.1-.5 2-.8 2.6a27 27 0 0 0-.8 2.9l-.1.3a58 58 0 0 0-1.8 9.4v.2l-.3 3.2c.2.7-.3 4 0 7.6.3 3.5 1.2 7 2 10.5.5 1.7-.5-1.4.2 1 0 .2-.4-1-.3-.4.8 2.4 1 4 2.3 7a64 64 0 0 0 4.6 9.4c1.2 1.7 1.5 2.4 1.9 3a17.6 17.6 0 0 0 .7 1l1.5 2 1 1.3 2.3 2.5c-.2 0 1.7 2 .9 1.1a64.7 64.7 0 0 0 14.8 11.2l2.3 1.2 2.5 1.1c1 .5 1.6.7 0 .1-.3 0-.8-.3-.7-.3l-.4-.1a47 47 0 0 0 7.9 2.8c1 .3 2.1.7 3.2.9l-.7-.1 2.3.6 2.4.4-.6-.2c1.1.3 2 .4 2.8.5s1.7.3 3 .3c1.2 0-2.2-.2.3 0a60 60 0 0 0 12-.1c-.5 0 .6-.2 1.7-.4l.2.1c4.2-.9 1.6 0 5.7-1h-.3l1-.3c3.7-1.2 2-.4 6-2-1.5.6-.7.1 1.2-.6l-.4.2 2-.9c-.5.3-.2.3 1.3-.4l-1 .5 2.8-1.5c2.3-1 5.6-3.2 6.5-3.7l.7-.4 1.6-1.2 2.9-2.3c-.8.7 1.5-1.2.9-.5l5-5-.2.2a50.5 50.5 0 0 0 9.2-12.7c-.2.2 1.1-2.4.7-1.8 2.4-5 4-9.4 4.2-11.4l6.3 1-.1.1c-.7 2.7-1.4 4.3-2.5 7.6zm2.6-7.8-.1.8.1-.8zm.2 0c0 .3 0 .2 0 0zm36 1v-.6l.4-2a24.3 24.3 0 0 1 1.4-4.7l.5-1.2-.4 1c.8-1.3 1.3-2.8 2.5-4.2l.2-.4.4-.6.7-.6 1-1 1-1.1c-.4.3-.3.2-.1 0l.8-.6h.1c-.2 0 .9-.8 1-.9.2 0-.5.5-.6.6 1.4-1 .7-.6 2.2-1.5.8-.6-.2 0 .2-.3.7-.5 1.5-.8 2.4-1.2h-.3a9 9 0 0 1 3.4-1l1-.4 1-.2.6-.2 3.1-.2v-.1l1.6.3a29.4 29.4 0 0 0 .8 0l1 .3 1.1.3 1.3.4h-.1l2.8 1 2.3 1c0 .2 1.6 1 2 1.3l1.7 1.3a17.4 17.4 0 0 0 .6.6l-.8.8c.3-.3-.7.5-.4.2l-1 1h-.2.1l-.8-.6c.1.1-.8-.6-1-.6 0-.2.6.3.7.3-1.2-1-.6-.5-2-1.3-.7-.3.1.2-.2 0-.7-.3-1.3-.5-2-1a1.9 1.9 0 0 1 .1.3l-2.8-1-1-.2h-.7l-1.3-.1h-1.6c-.6.2-.6.3-.2.4l1.5.2.8.1h.3a19.8 19.8 0 0 1 2.6.7l-3.4 5.3-2.4-6.5c.5-.1.7-.2.6-.3l-1.3-.2h-1.5l-1 .1-1.2.2c-1 .1-1.7.5-2.4.7l-1.8 1c-.3 0-1.5.8-1.9 1-.4.5-1 .8-1.5 1.2l-1.3 1.2v-.1l-1.3 1.4-1 1.3-.9 1.5c-.5 1-1 2-1.1 2.7v-.1c-.1.7-.4.9-.5 1.7v.1c0 .5-.3 1-.3 1.6l-.3 1.4-.1 1.7v-.6 2.4c0 .6.3 1.1.4 1.7l.3.8a4.7 4.7 0 0 1 .2.8c.2.5-.3-.4 0 .4-.1 0-.2-.4-.2-.2.2.8.3 1.3.7 2.2v.1c.5 1.1.8 2.3 1.4 3l.8 1.3a22 22 0 0 0-2 1.9c-.7-.9-1.3-1.7-1.9-2.8 0 .1-.4-.8-.4-.5a17.2 17.2 0 0 1-.6-1.3l-.4-1.2c-.3-.8-.4-1.3-.7-1.7l-.3-1.5v.2l-.2-2-.1-1.5c0-.7-.3-.8-.2-2l.1-.5v-.2zm-9.4-9.5-1-.1h.9l.2.1zm-1.6-1.4c.2 0 0 0 0 0-.6-.1-1.3-.2-1.3 0l-.5-.1h-.7.2-1l.1.1c-.5-.1 0-.2-.6-.2v.1h-.1l.5-2.5 5 .6c4.8.2 8.4.7 12.3 1.1l-1.2 2-1-.2h-2.1l-.3-.2a2 2 0 0 1-.7 0h-.8l-.4-.1-1.6-.1c-1.1-.1-1.5 0-2.5-.2-1.3 0-2-.4-3.3-.3zm.2 1.2h-.5.5zm-1.8-.3zm-.3 0h-.2.2zm14.1 1.2zm-9.3-.6c1 .2 1.8 0 2.8.3 0-.1.4 0 .3-.1 1 0 1.8.3 2.2 0 .5 0 .5.2.8.2h-.1a26.4 26.4 0 0 1 1.7.2c.3 0 .4-.2 1-.1h.2c-.1 0-.2.1.1.2h.3l-.5 1a224.8 224.8 0 0 0-8.8-1.7zm37.6 1.8c.1 0-.8.7-.5.6-1.2 1.2-2.4 2-3.1 2.8l-.7-.3v.1l-1-.4c-.9 0-1.3.1-1.6.2-.2.1-.2.2 0 .3.2.2.8.3.8.3 1.1.4 1.8.4 3 1.2l1 1.2.7 1.3c.2.6.4 1.3.4 1.9v1.2l-.1.5-.1.4v.2l-.4.8c-.3.5-.3.8-.8 1.2-.3.7-.9.6-1.4 1.2.1 0 0 0 0 0-.3.2-.6.3-.5.5h-.3l-.4.2h.1l-.5.1.1.1c-.3 0 0-.1-.4 0v.1l-1-.2c-.8 0-1.7 0-2.5-.3s-1.5-.7-2-1.3v-.1c.1-.1-.4-.2-.3-.3l-.2-.1v-.1c0-.2 0-.2-.2-.2v-.2c-.3-.6-.7-1-.9-1.7 0-.8-.3-2.3-.2-3.2 0-.6.4-1.3.8-1.8l1.4-1.5v-.1a5.6 5.6 0 0 1 1-.6l.3-.1a3.6 3.6 0 0 1 .5-.3l1.4-.4c.5 0 .8-.2.7-.3 0-.1-.6-.4-1.8-.4-.8 0-1.2.3-1.6.6l-.7.4c-.3.3-.8.5-1 .9v-.2l-.6.6c-.5.6-1 1.6-1 2.1l-.2.6c0 .3-.2 1-.1 1.1h-.1v.7-.3c.2.1-.1.5 0 1 0 .4.5.7.5 1.1.1.2-.2-.1 0 .1h-.2c.1.3 0 .5.2.8a1.4 1.4 0 0 1 .1.3l-1 1-7-1.1-3.8-.8V404a8.6 8.6 0 0 1 0-1.3v-1.4c0-.8.1-1.6.3-2.2a9 9 0 0 1 .8-2.8c1.3.1 2.5.4 3.6.6l2 .3 1.2.2 1.2.1 1.6.3h.2v-.1l-.2-.3-.1-.5-.5-1.4-.3-.7a31.1 31.1 0 0 0-.2-.7l-.9-1.8-.3-1.3c-.6-1.4-.7-1-1.2-2.4l1-.8 1.6-.8.6-.3.7-.4.9-.3c1.3-.6 3-1 4.3-1.1l.6 1.2 2.8 5.7c-.5 1-.5 1.2.2.4 1 1.8 1 1.1.4-.5l4.4-5.4.8.3a18.2 18.2 0 0 1 4.8 2.8l-.3.3.1-.1c-1.9 1.6-3.1 3-4.8 4.3zm1.4 5.3c.1 0-.3.3 0 .2l1.5-1.3-2.8 4v-.1l-.5-1.2 1.4-1.4c.5-.5-.3.5.4-.2zm7.9 12.7c-1 1.6-1.3 2.3-2.5 3.5a9.4 9.4 0 0 1-2.8 2.5c.3-.3.2-.8.4-1.2-.2 0-.2.3-.2.1l.1-.4.1.1.3-.6h-.2c.2-.2.4-.2.4-.7h-.2l.2-.4.6-1.2a2.8 2.8 0 0 0 0-.2c0-.6.4-.1.5-.7l-.2-.2.2-.5.3-.7.2-.3.3-1 .2-.4v-.1c.2.2.3.1.5.2a1.7 1.7 0 0 1 .5.3c0-.2.3 0 .3-.1.8.2 1 1 1.5.6-.1.5-.4 1-.6 1.4zm-11.8 9.3h.4l-1.1.2c-1.2.3-2 .2-3.1.2a19.8 19.8 0 0 1-9.4-2.1c1.4 0 2.9 0 4.5.3 1.7.2 4 .5 6.5.6l4 .3-.4.1.2-.1-1.6.5zm6.5-3.2-.4.2.1-.3c.1-.2.2-.5.2-.1v.2zm7-11.7-.1 1.1a13.8 13.8 0 0 1-.4 1.4l-.4-.2h.1a6 6 0 0 1-1.2-.6c-.3 0-.4-.2-.6-.3h-.1l-.5-.2v-.2l-1.6-1-1.7-.9-.5-.3-2.7-1.7 6.8-9.8a2.5 2.5 0 0 0 .3-.2l1.6 3.2a18.3 18.3 0 0 1 1.4 6.5v1l-.1 1-.1.8-.1.4zm-29.4-13.8h-1.4a36 36 0 0 1-1.8-.3 26.5 26.5 0 0 1 2.2-2.4l.2.7.7 1.3.2.7-.1-.2v.2zm-3 .9h1.4-.1.5v.1h.7-.4l1.3.2h.1l.4.7.1.4s.1.2 0 .2a.5.5 0 0 1 0 .2l.2.2v.1a6.1 6.1 0 0 1-.5 0l-3.4-.5-2.2-.4.6-1 .2-.3h.2l.4-.1.4.2zm-5.6 25.2c-.1.1-.1 0 0 0zm-1.8 1.7-.6.6h-.7v-.1l-2.4-.2c-1 0-.6-.2-1.6-.2h-.4c-.4-.1-.3 0-.8 0 0-.1-.6-.2-.3-.2-1-.2-2.2 0-3.6-.3h-1.2s-1.4 0-.6-.1h.2c-.7-.3-1.4 0-2.2-.2.2 0 .5 0 .3.1h-.7l.1-.1-1-.1H200l-1.3-.1a5 5 0 0 0-1.6 0l-.4.3h-.1a3.8 3.8 0 0 0 0-.4c-.1-.4-.3.8-.3 0l.3-1.8v-.6h.1v-.2h.3v-.1h.3v.1c1.8 0 .7.4 2.4.4l.3-.2c1.5 0 .8.3 2.5.2l1.7.1-.4.1h2.2c.8.1 1.7.1 2 .3 0 0 2.1.3 2.6.1-.4.1.7.3.4.4.6-.1 2.2 0 2.8.1h-.1c1.8.3 3.3.2 4.8.4l-1.6 1.4c-.8.8.2 0-.1.4zm6 1 .4-.3.6.5-1-.1zm-1.5 0h-.3.3l-1.6-.2c-.8 0-1.6.3-2.4.1l3.6-3.3c4-3.7 5.2-4.5 9.4-8.3l2.5-2.3.2.4v.3c.2.1.3 0 .4.2 0 0 .2.3 0 .2.3.4.8.6 1.2 1-3.1 2.8-6.6 5.5-9.5 8.4l-.4.4-3.4 3zm2.8-1.2zm7 4.1zm29.3-10.5c0 .1-.2.1-.4 0l.4.3-.4-.2c.3.5 1 .6 1.4 1.2h.5c0 .2-.2.3 0 .5l1 .6c-.2-.1-.1-.1 0 0 .1 0 0 .2.2.2v.1l.4.2c0 .2-.2 0-.3 0l.7.6c.3.2 0-.1.3 0 .2.1.5.3.6.6v-.1c.5.4.7.7.8 1l1.6 1.6.1.2h-.1l-.5-.1v.1a1.5 1.5 0 0 1 .1.3l-.1.4a21.1 21.1 0 0 0-.9-.4c-.8-.2-1.4-.3-2 0 0-.4-.7-.2-.9-.3-.5.2-1-.3-1.6-.1l.2-.1c-.4 0-1 0-1-.2-.8 0-2-.2-2.7 0-.3.2-.4 0-.7 0-.5.2-1.1 0-1.4 0v-.1h-.3l1-1.3.4-.6c.1 0 .4-.4.2-.1l.6-1 .5-.4c.7-1 1.3-2 1.8-3.1a3.4 3.4 0 0 1 .5.2zm-2.2-21.4 1.5 3v-.2l.7 2v.1l.5 1.8.2 1.7v2-.8c.2.2.2.5.2 1l-.1 1.9-.1 2v1a6 6 0 0 1-.3 1c0 .6 0-.7-.2.3 0 0 .1-.5 0-.2a8 8 0 0 1-.4 1.2 13.5 13.5 0 0 0-.5 1.3c-.5 1.5-1.3 2.6-1.8 3.5-.7 1.4-.7.7-1.6 2.1l-.4.5-.8 1-.4.3-2 1.8c-.8.6-1.5 1.2-2.6 1.7l-.8.6-.9.5-.9.4c-.4.2-.6.2 0 0l.2-.2.1-.1-1.7.6c-.5.3-1 .5-1.7.6h.6l-1.2.3.3-.1-1.8.3h.3c-.9.1-1.2 0-2.2.3-.4 0 .9 0 0 0h-2.1l-2.3-.1h-.7v-.1c-1.6-.2-.6-.2-2.1-.5h.1-.4c-1.3-.2-.8-.3-1.8-.6l-1-1.2a5.4 5.4 0 0 0-2.3-1.3 6.8 6.8 0 0 0-1.3-.1 7.7 7.7 0 0 0-.7 0 9.4 9.4 0 0 1-.4-.4l-1.2-.8-.1-.2 2-1.9 2.4 1.7.8.4.8.3.7.5c.4.1.5.2 0 0h-.4a17.3 17.3 0 0 0 3 1c-.3-.2-.7-.3-.4-.3l1 .3h-.2l1.5.3h-.2c.7 0 1 .3 1.9.2.4 0-.7 0 0 0h3.9l.6-.2c1.4-.3.6.2 1.9-.2l.2-.2c1.1-.4.7 0 1.9-.6-.5.2-.3-.1.3-.3l-.1.1.7-.3c-.2.1 0 .2.4 0l-.3.2.9-.6 2-1.1s.2 0 .3-.2.3-.2.5-.3l.9-.8c-.2.3.5-.3.4-.1a8 8 0 0 1 1.6-1.6h-.1c1.4-1.3 2-2.6 3-4-.2 0 .3-.8 0-.7l.6-1.1.4-1c.3-.7.4-1.2.3-1.6l.4-1.3v.2l.3-3-.1-1.7v-1.2.1c0-.6-.3-1.8-.2-1.9a18 18 0 0 0-1.7-4.4c0-.2.2.1.4.5l-.5-1 .5.9c-.4-1-1-1.9-1.6-2.8l.5-.4c.6-.5.3-.5 1-1 0 0 .8-.7.5-.3l.3-.2 1 1.6zm.4-8.5a2 2 0 0 1 .1 0c-.1 0-.2 0 .2.2h.2c.4.2.3.1.1 0l1.2.6 1.3.5c-1.7 1.5-3.3 3-5 4.3l-.2.1c-.2 0-1.1 1.3-1.4 1.4l-.5.5c-.2.1-.5.4-.3.1l-.8.9-.6.4-5.7 5.2a67.5 67.5 0 0 0-2.2 2l-.6-.9h-.1l-.2-.2v-.3l-.8-.6c.1.1 0 .1 0 .1l-.1-.2.6-.6v.2a61.4 61.4 0 0 1 2.8-2.7h-.1c2-1.6 2.6-2.4 4.4-3.9 2-2 3.5-3 5.7-5.1-.3.2.1-.1.1 0l2-2zm-8.8-3.9 1.6 1.3c0-.1.6.2.5 0 1.2.5 2 1.2 2.6 1l.9.5h-.1l2 .7h.1l-.1.2c-.8.7-2 1.8-2.4 2l-.3.3-.8-.8a2 2 0 0 0-.5-.3c-.6-.4-1.2-1-1.8-1.3l-2-1.1-.7-.4-.3-.2a60.6 60.6 0 0 1 1.4-1.8zm-7.5-11.5 2 .7 6.6 2.6h.2l-.3.3v-.1l-.4.4c0-.2 0-.2-.3.1l.1-.2-.4.7c-.5.4-.8 1.4-1 1.6 0 0-.3 1.3-.2 1.6 0-.3 0 .5-.2.3l.4 1.8.1.2-1.9 2.8-.3-.1c-1.7-.7-3.9-1-5.5-1.2h-2.5c.3-.1.3-.2 0-.2l.1-.2.7.1.4-1.5-.5 1.1c.8-3.2.5-.8 1.1-3.9h-.2l2-7zm2.4-85.4c1-.4-2 .2-1.1 0a66 66 0 0 1-7.1 1.6h.3c-6.1 1.2-10.4 2.4-15.8 3.5.2 0-2.6.6-1.9.7-5.6 1.4-10.3 1.9-12.2 2.9-2.6.6-3.1.6-4.4.8l.6-.1-5.8 1.3 2.4 5.7c.8 1.6 1.1 1.8 2.3 4.8-.5-1 0 .3.5 1.4-.3-.7-.4-1 .1.6l.4.8c.9 1.9.8 1.6.4.7v-.3c.6 2 2.2 5.4 2.2 5.7l6.3 14.3c.1.5-.4-.5-1-1.9l1.4 3.3-1.3-2.9c1.5 4 3.6 8.1 5.4 12.9l.5.9.1.3.9 1.6c.2.7-.3 0 .7 2.4.6 1.9 2.2 5.1 3.3 7.5-.5-1.3-.3-.9 0-.4l1 2.8 1.6 3.5c.2.7-.9-1.8-1-2l2.9 7c1.1 2.3 0-.6.5.5l3 6.8-.3-.8c1.9 4 2.9 6.5 4 9.3l.7 1.6a21 21 0 0 0-8.8 3.6c-1-2.4-2.2-5-3.3-8-.6-1-1.5-3.3-2-4 0-.2-2-4.7-.7-2.2l.3.6.2.3c-.9-2.7-2.1-4.8-3.2-7.4l.4 1.2-1-2.5.3.5-1.5-3.7v.6c-.6-1.8-.7-2.6-1.7-4.5-.5-.9.6 1.8-.3 0l-3.5-9.2c0 .4-.4-.5-.7-1.3v-.1c-1.5-3.2-.2-1.3-1.7-4.5l-.4-.5c-1.4-2.8-.4-1.6-2-4.7.5 1.2 0 .7-.7-.9l.3.4-.8-1.7c.3.5.3.2-.3-1.1l.5.8-1.2-2.3c-.6-2-2-4.8-2.2-5.6 0 0-1.6-4-2.2-4.9.5.8-.4-1.4 0-.9-.6-1-2-4-2.3-5.3v.3c-.8-2.3-1.7-4.2-2.5-6l-1.3-2.9-.6-1.4-1-2.7c0 .2-.3-.4-.6-1l-1 1.4-1.5 2-1 1.2-1.9 2.1c-1.1 1.3-2 2.4-2.3 3.2l-2.3 2.6.3-.4-5 6.2c-.9 1.1-.8 1.5-2.5 3.4l-.8.9c.4-.5.5-.7-.4.2l-.4.6c-1 1.3-.8 1.1-.3.5l.2-.1c-1.2 1.2-3 3.6-3.2 3.6L160 336c-.4.3.1-.5.9-1.5l-1.8 2.3c-.1-.1 1-1.4 1.5-2-2.4 2.4-4.3 5.5-7 8.5l-.4.7-.2.1-.8 1.3c-.5.3-.2-.2-1.4 1.3-1.1 1.1-2.8 3.5-4 5.1.6-.8.5-.5.2-.1l-1.5 1.7h-.1c0 .2-1.6 2.1-1.8 2.4-.4.4 1-1.2 1-1.5L141 359c-1.3 1.7.3-.2-.2.7-1.2 1.5-2.3 3-3.7 4.5l.6-.4a77.1 77.1 0 0 1-5.1 6.1l-3.5 4.7-3.8 4.6.6-.4.5-.4-.7 1c-1 0-1.3 0-.2.4-1 1.5-.5 1.1.5.1 1.7.5 5.3 1.4 11.5 2.7h-.2c5 1 8.3 1.5 11.8 1.9.5.4 4.2.7 5.4 1h-.1c3.1.3 6.4 1.2 9.4 1.5h-1c2.3.3 5.3.7 5.4 1 5.2.7 12.5 2 16 2.3h-.3c2 .1 2.4.4 4.6.6l.2.1c2.1.2 6.1 1 7.8 1.2l4.2.7-1.5-.2c.6-.2 3 .7 6.1 1 2.8.5 5.8.3 8.7.9 1.4 0-1.2 0 .8.3 0 .1-1-.1-.4.1.6 0 1.2.2 1.7.3a22 22 0 0 0-1.3 6.8 8.6 8.6 0 0 1 0 1v1.3l.1.3a91.3 91.3 0 0 1-3.1-.6c.3 0-6.3-1-3.4-.7l-37.9-6.2-13.2-2c-.4-.1-15-2.4-6.6-1.3l2 .4h1c-8.5-1.6-15.5-2.4-24-3.8 2.6.5 5.9 1 3.7.7l-7.8-1.3 1.6.2-11.6-2 1.6.4-2-.3-.9-.2-.7-.1a4.5 4.5 0 0 1-2.7-2.4 4.2 4.2 0 0 1-.4-1.2 4.3 4.3 0 0 1 .7-3.1c.9-1.1 0-.2-.4.5l-.3.5.1-.4.3-.5.5-.7 18.7-22.4c-.7.6 1-1.4 2.7-3.5l.3-.2c6.5-8.2 2.6-2.8 9.1-11l1-1.4c5.8-7.4 3.4-3.8 9.8-12-2.6 3.2-1.5 1.3 1.8-2.6l-.8 1 3.5-4.3c-1 1.3-.4.8 2.2-2.4l-1.6 2.2 4.7-6.1 11.6-13.9 10-12.3c-1.6 2 3-3.4 1.8-1.8l1.5-2-.8-.7s.2 0 .5.3l.2.2h.2l.8-.8a1.3 1.3 0 0 0 .4-.3h.4a2.2 2.2 0 0 0 .4-.1h.2c3.9-1 8.4-2 10.7-2.4l-.7.1 37.3-8.3c-.7 0 6.1-1.5 4.4-1.3l13.2-3c.8 2.5.6 5.2.2 7.7l-.2 1.5-3.8.8s-5.3 1-6.5 1.5zM200 390.2h-.3l-.9-.2v.8l-5-.7.1-3.4c.2-3.9 0-7.7-.4-11.4l-.8-5.1-.5-2.4-.5-2.2c-2-7.7-5.1-15.9-9.5-23.4-3.4-5.7-7.6-11-12.3-15.5l4-4.8c1.3-2 4.2-5.3 6-7.7l.8-.8c.6-.8 1.3-1.8 2-2.5l2.4-3 1.1-1.4-.1.3 2.1-2.7.8-1 .2-.2v.1l.1-.2.1.3v.1l.2.2.6 1.5 1 2.4 2.1 5.1c2 4 2.8 6.8 4.3 10.2.3 6.6.3 13.4.2 19.8.2 3.4-.2 9.5-.2 13.6l-.2 1.6c0 1.4 0 3-.2 4.4l-.2 5.5v-.1l-.2 2.5v-.4c-.1 3.6-.3 7.4-.6 10.7l.1-.2-.4 5.3a2.1 2.1 0 0 0 .8 2c.3.2.7.3 1 .3h.8l1.9.2-.4 2.2v.2zm-34-13.4c-1.8.1-3 .2-4.3.5-.2-.2-1.6.1-2 .1-1.1.3-2.4.1-3.5.4l.3-.1c-.8 0-1.9.2-2 .1l-5.8.7c-.6.2-.8.1-1.6.2h-.1l-3 .4h-1.5.6c-.2.3-1.2 0-2.3.3-1 0-2 .6-3.2.6-.5.1.5-.2-.3 0 0-.2.4-.2.2-.2-.8.1-1.3 0-2.2.2v-.1l-2.7.3-6-.8 3.5-4c1-.8 1.7-1.6 2.8-2.4-.1 0 .6-.5.3-.5 1.3-1.1 2.5-1.8 2.8-2.4l1-.8v.2l2.1-1.9 1.1-1.1.4-.3c-.2.2-.2.3.2 0l.2-.2c.4-.4.3-.3.1-.2h-.1l1.4-1 3.4-3c.2-.1 0 .2-.4.5l.8-.7-.6.6c1-.7 1.9-1.8 3-2.6l.3-.2v-.1l.4-.4.6-.3 1.8-1.6c-.3.2-.2.1-.1 0l.7-.5.8-.8c.2 0-.4.4-.4.5l1.7-1.4c.5-.5-.2 0 0-.3l1.7-1.4-.3.1a19 19 0 0 1 2.3-1.8c7-6.7 1-2 1-2-3 2.3-4.4 3.7-7.8 6.6-3.1 2.5-4 3-7.1 5.7l-4.6 3.9-2.7 2.3-.4.2a6 6 0 0 1-.9.8l-.4.4c3.9-4.8 7-9 12.6-15.9l9.7-11.5a59 59 0 0 1 7.4 9.5l.9 1.4.9 1.5a58.6 58.6 0 0 1 3.6 7.7c1.2 3 2.2 6 2.9 9.3a64.3 64.3 0 0 1 1.2 9.6 72.9 72.9 0 0 1 .2 2.6l-.1 3a3.5 3.5 0 0 0 0 .4 265.1 265.1 0 0 0-16.5-2.7l-9.3-1.6-12-1.9c2.5 0 7-.7 9.6-1 3.7-.6 8-.5 11.8-1a1.6 1.6 0 0 0 .5-.1l3.4-.4s16.8-1.6 4-1.4zm9.6 4.4V379l-.1-.8s0-.1 0 0l-.1-.8v.4c0-1-.3-2.5-.4-3.7l-.4-2.2a56.2 56.2 0 0 0-4-12.5l-1.4-3.1.5 1 .8 1.7c-1.5-3.8-4-7.6-6.8-11.6l-.6-.8-.2-.2-1.2-1.4c-.4-.5.2 0-1.4-1.9a29 29 0 0 0-2-2.1l3.8-4.7a66.5 66.5 0 0 1 15.4 23.6l-.2-.2c.6 1.2.8 2 1.1 2.8l1 3.1v.3c.3.7.5 1.6.7 2.5l.6 2.9.8 5v.2c.1 1.8.3 3.7.3 5.6V380c.2.7 0 4.1 0 8.1l-6-1.1v-.7c0-1.8-.2-2-.2-5.2zm-13-44.3-.5-.5.5.5zm92-54-.4 1.3-.3-1.3h.4c-.8.1 0 0 .2 0zm-5.4 61.9c-.1.5-.2 1-.5 1.6l.2-.2-.2.7-.2-.2a2.1 2.1 0 0 0-.9-.7l2.3-10.6 1.9.5-.6 1.8v.9c-.2.2-.2 0-.4.6h-.6l-.2-.2v.3l-.2 1-.3 1.1-.4 2.4-.2.8a1.5 1.5 0 0 0 .3.1zM277 353l-.2 1v.1l-.1.1h-.2a21.2 21.2 0 0 1-.8.2 38.3 38.3 0 0 1-13.8.2c-1.3-.1-3.2-1-4.5-1.4l-.5-.4a4.8 4.8 0 0 1-1.4-.6l-1.6-1a18.6 18.6 0 0 1-.7-.4h.1a13 13 0 0 1-2.9-2.3v.2l-1-1 .8-2.8.7.2 2 .7.1.1c0 .2.8 0 .8.2h.4s.2.2 0 .1l.6.1.2.2 3.3.9c1.3.5 4 1 5.6 1.4 2.2.4 4.5 1.6 6.8 2h.3l2 .5 4 .9h.3l-.3.8zm.8-2.3-.3 1-2-.8h.1a12 12 0 0 0-2.5-.6c-.1-.2-1-.2-1.2-.4-.7 0-1.3-.4-2-.5h.2c-.5 0-1.1-.2-1.1-.3-1.2-.3-2.7-.8-3.5-.8l-1-.2c-.5 0-1.3-.4-1.7-.5l-.9-.3.4.1c-.2.2-.7-.3-1.4-.3-.6-.2-1.3 0-1.9-.2-.3 0 .3-.1-.2-.2h.2c-.5-.2-.7-.4-1.3-.5-.7-.1-1.3-.5-1.8-.5-.7-.2-.4-.4-1.2-.4l-.3-.2-.6-.1s-.4-.2-.2-.2c-.7-.3-1.7-.3-2.7-.8l-.5-.1h-.2v-.1s0-.1 0 0h.1v-.3l.2-.8-.1.2.1-.6v.2l.3-.9-.1.1c0-.4.3-.5.2-1v-.1s0-.1 0 0h.4l.2.2c0-.1.2 0 .4 0 .8.2.2.3 1 .4h.2c.7 0 .3.2 1 .2-.2 0 0-.2.3 0l.3.1.2.1h-.2l.6.1 1.3.4 1.1.3c-.2 0 .3.2.1.2l1.3.3h-.1c1 .4 1.8.4 2.7.7 0 0 .5.1.4 0 1 .2 1.7.7 2.1.5.5 0 .5.2.8.3h-.1l1.6.4c.3 0 .4-.1 1 .1l.2.1c-.1 0-.2 0 0 .1h.3c.3.1.3 0 0 0 .1 0 0 0 0 0 .4.2 1 .2 1 .4l2.7.5h-.4l.6.2-.5-.1c.7.3 1.5.3 2.3.6h.6c.1.1 0 .2.4.3.3.2 1 .2 1.4.3-.3 0-.2-.1 0-.1l.4.2.7.1c0 .1-.4 0-.4 0l1.2.3c.5.1 0 0 .2 0h.4l-.3 1.1.8-.6c-.5.7-.8 1.5-1.2 2.4zm1-3.9h-.6l-1.8-.5c-2.2-.7-2.8-1-5.2-1.6l-3.5-.9c-.5 0-1.4-.4-2-.4l-.3-.2a2 2 0 0 1-.7-.1l-.8-.2-.4-.2h.1a11 11 0 0 1-1.6-.4v.1c-1-.4-1.5-.3-2.5-.7-1.3-.1-1.9-.7-3.2-.8.2 0 0 0 0-.1-.6-.1-1.2-.3-1.3-.1l-.4-.3h-.7.2l-1-.3.2.2c-.5-.2-.1-.2-.6-.3-.4 0-.6-.2-.9-.3l1.1-3.5 7.5 2.2 19.2 5.3-.8 3.2zm1.3-.4.3-1.4s.4-1.6.3-.7l-.1.2v.2l.3-.7 1 .2.5.2c-1 .5-1.7 1.2-2.3 2zm11.3 33v-.1s-.1-.2.1-.3l.1-.3.1-.3.2-.2c.1-.1.3-.4.2 0v.2c.5-.3.4-.8.7-1.2 0 .1-.2.3-.2.1l.3-.4v.2l.5-.5h-.2c.3-.2.5-.2.6-.6 0-.1-.1 0-.2 0l.3-.5a12.3 12.3 0 0 0 .9-.9v-.2h.1c.2-.6.4 0 .6-.6v-.1l.3-.5.5-.6.2-.3.6-.8.3-.3v-.1c.2.3.3.2.4.3l.4.4c0-.1.3.2.4 0 .6.4.6 1.3 1.2 1 .3.3.2.5.3.6l.8 1c.2.1.4 0 .7.4-.2 0 0 0 0 .2 0-.1-.1-.1 0 .1.3.3.3.2.2 0 .1.3.5.6.4.8l1.4 1.5-.3-.1.3.3-.3-.3c.1.6.8.9 1 1.6h.2l.2.2c0 .1-.2.1 0 .4 0 .3.4.6.6.9 0-.2 0-.2.1-.1s0 .2.2.3l-.2.1c.1-.1.4.3.5.4-.1.1-.2-.2-.3-.2l.4.8c.3.3.1 0 .3 0 .2.3.4.5.5.9v-.2c.4.5.5.9.5 1.3l1 2 .1.1h-.2l-.4-.3.2.4h-.2a5.6 5.6 0 0 1-.3.4l-.7-.6c-.7-.4-1.2-.6-1.8-.6 0-.3-.7-.3-.9-.5-.5 0-.9-.6-1.5-.6h.2c-.3-.1-.8-.2-.8-.4-.9-.3-2-.8-2.6-.8l-.8-.2c-.4 0-1-.4-1.3-.5l-.6-.3.2.1c-.2.3-.4-.4-1-.4-.4-.2-1.1.3-1.5 0-.3 0 .2-.2-.1-.2 0-.2.2 0 .1-.2-.3 0-.5-.4-1-.4l.1-.1c-.6 0-1-.6-1.3-.5-.3 0-.4-.2-.5-.3l-.1-.2h-.2v-.1s-.1.1-.2 0l.2-.1zm10.3-82 .3-1v-.6l.1-.3 4-15.3.1-.8a64.3 64.3 0 0 0 .5-2.3l1.3-6.5 10.6-2.4 5.3-1.2 2.2-.5 1-.2-2.1 3-.5.4c-.4.1-2.2 3.7-2.7 4l-1 1.6c-.3.4-1 1.3-.5.5l-1.6 2.5-1.1 1.4c-4 5.4-7 10.1-11 15.8-1.9 2.6-4.4 6.1-7 10l2-8zm-16.8 56.2c-.4-.3-.5-.1 0 .7l-.5-.6.6-3.4a12 12 0 0 0-.1 3.2zm65-64c.2.4.4.6 1.1 2.5l-6-15-4.5-11.6-13 18.7-9.3 13.6.3-.6c-3.1 4.9-4.2 6.2-7.8 11.5l-.5.6c-3.4 5.3-10.5 15.1-13.3 19.3l-.3.2-7.1 10.3 2.7-3.8-3.7 5.3.2-.7 2-6 4-12.2 3.3-11a49 49 0 0 0 1.7-2.5c2.1-3 3.7-6.4 6-9.4.9-1.5-.7 1.5.7-.8.2 0-.6 1.1-.1.6 1.4-2.2 2.6-3.4 4.3-6.1h.2c2.2-3.7 4.7-6.5 6-9 2.5-3.5 2-2 4.4-6l1.2-1.3c1.1-1.6.6-1.3 1.9-3 0 .2 1.6-2.1 1-1l2.2-3.2 3.8-5.6-6.4 1.5-4.2.8c-1.3.5-4.5 1.1-5.5 1.5-.2 0-6.3 1.4-2.8.4l.8-.1.4-.2a53 53 0 0 0-5.3 1.1 92.6 92.6 0 0 0 1-9.4 179 179 0 0 1 5.7-1.3c-2.4.6.6 0 3.4-.7-1.8.4-2.3.6 1.4-.2l2-.5h.2a28.8 28.8 0 0 0 .9-.4l6-1.3 6.4-1.4-.9-2.4-.2-.8-5.5-13.3 2.3-.9 5.1-1.8h.2c0 .1.8-.5 1-.4l.1-.1.8 2 6.4 15.8 1 2.3.3.6.6 1.4 1.2 2.7c.5 1.6-.3 0 1.9 5.4 1.6 4.4 5 12.3 7.3 18-1.2-3.1-.8-2.2-.2-.9l2.5 6.5v.2l3.4 8.2c.5 1.6-1.8-4.2-2.1-4.9l6.6 16.5c2.4 5.8-.3-1.1 1 1.6l6.4 16.2-.6-2 8.8 22.1 11.8 27.9v.2h-.2v.2l2.6 6.4a5.4 5.4 0 0 1 0 4l-.1.3-.1.3a5 5 0 0 1-1 1.1 5 5 0 0 1-3.5 1.6 5.2 5.2 0 0 1-4.4-2l-.7-1.2-.5-1.5-1.2-3.2-6-15.7.4.7-13.4-33.3c-.4-1.6-4.7-11.8-6-15.2l.2.3c-3.8-8.7-7.1-18-10.7-26.4zm109 98.8c-.3 3.8-.5 7.8-1.6 11.7-.4 1.8.3-1.7-.4 1 0 .1.3-1.2 0-.5-.6 2.7-1.3 4.4-2.5 7.6-1.6 4.3-3.7 7.7-5.1 10.3L447 422a23 23 0 0 0-.9 1l-1.5 2.2-1.3 1.4c-1.4 1.5-.8 1.2-2.4 2.9 0-.2-2 2-1.2 1a63.6 63.6 0 0 1-16.1 12.3l-2.6 1.4-2.7 1.2c-1.1.5-1.8.7 0 0l.8-.4.4-.3c-3.6 1.5-6.5 2.8-10.3 3.8l1.7-.4-3.5 1 .7-.3-2.6.6-2.6.4h.7l-1.6.2-1.4.2c-1 0-1.9.2-3.4.4-1.3.1 2.5-.1-.2.1-3.5.3-8.7.2-13.1-.4l-2-.1-.2-.1c-4.6-.8-1.7-.4-6.2-1.4h-.8c-4.1-1-2.2-.8-6.7-2.2 1.8.7.8.5-1.3-.4l.5.2-2.3-1-1.3-.6 1.2.4-3.3-1.4a60.8 60.8 0 0 1-7-4.1l-.7-.6-1.7-1.2-3.3-2.5c1 .7-1.5-1.4-.7-.8-1.3-.9-4.5-4-5.6-5.4l.2.3a83.3 83.3 0 0 1-10-14c0 .3-1.3-2.5-1-1.7-3-5.5-4-10.5-5-12.5l-.6-2.8a38.8 38.8 0 0 1-.3-1.8l.2.6-.7-3.3-.3-2.4-.2-2.3-.1-2.6c-.1-1.9-.3-2.2-.2-5.7 0 1.2 0-.3.2-1.6v-.6a18.4 18.4 0 0 1 .1-1c.2-2.1.2-1.8 0-.8v.2l.5-3.8.5-2.5a71.5 71.5 0 0 1 4.3-13.7l1.6-3.5-.5 1.1-.9 2c2-4.2 4.1-8.5 7.4-12.8l.7-1 .2-.2.3-.6.8-1c.6-.6.1.1 1.9-1.9l2.8-3 3.3-3.2c-1.1 1-.8.6-.3.2l2.4-2h.1l1.3-1 1.9-1.5c.7-.3-1.7 1.3-1.9 1.5l3.3-2.3c.5-.3 1-.8 3.4-2.1 2.4-1.5-.5.2.6-.6a55 55 0 0 1 3-1.6l2.3 6-1.2.6c-.3 0-1.5.7-2.7 1.4l-3 2h.1a63.4 63.4 0 0 0-9 7.5l.4-.5-4.1 4.5a60.3 60.3 0 0 0-6 9c-1.8 3-3 6.1-3.7 8.1v-.3l-.8 2.6a27 27 0 0 0-.9 2.9v.2a58 58 0 0 0-1.8 9.5l-.1.1-.2 3.2c.1.7-.3 4 0 7.6.2 3.5 1.2 7 2 10.5.5 1.7-.5-1.4.2 1-.1.1-.4-1-.3-.4.7 2.4 1 4 2.2 6.9v.1a64 64 0 0 0 4.6 9.3l2 3a17.6 17.6 0 0 0 .6 1.1l1.5 1.9 1 1.4 2.3 2.5 1 1.1a64.7 64.7 0 0 0 14.7 11.2l2.4 1.1 2.5 1.2c1 .5 1.6.7 0 .1l-.8-.3-.4-.1a45.7 45.7 0 0 0 8 2.8c1 .3 2 .7 3.1.9l-.7-.1 2.4.5 2.4.5-.7-.2 2.8.5c.8.1 1.7.3 3 .3 1.2 0-2.2-.2.3 0a60 60 0 0 0 12-.1l1.8-.4h.1c4.2-.8 1.6 0 5.8-1l-.4.2 1-.5c3.7-1.2 2.1-.3 6.1-2-1.6.6-.8.2 1.2-.6l-.5.3 2.1-.9 1.3-.5-1 .6 2.8-1.5c2.3-1 5.6-3.2 6.5-3.7l.7-.4 1.6-1.2 2.9-2.3c-.8.7 1.4-1.2.9-.6l5-5-.2.3a50.5 50.5 0 0 0 9.2-12.7c-.2.1 1.1-2.4.7-1.8 2.4-5 4-9.4 4.2-11.4l.6-2.6.4-1.6v.6l.4-3 .3-2.3.2-2 .2-2.3-.2-5.2v-3c-.3-2-.3-1.6-.2-.7v.4c0-1-.2-2.5-.4-3.7l-.4-2.2a56.2 56.2 0 0 0-3.9-12.5l-1.5-3.1.6 1 .8 1.7c-1.6-3.8-4-7.6-6.8-11.6l-.7-.8-.2-.2-1.2-1.4c-.4-.5.2 0-1.4-1.9l-2.6-2.7-3-2.8c1 1 .6.7.1.3l-2.1-1.9c-.2 0-.7-.5-1.3-1a37 37 0 0 0-1.7-1.1l1.8 1.2-3-2.1-3-2c-2.4-1.2.3.3-.8-.2-2-1.1-4-2-6.4-3.1l.7.4c-4-1.7-6.4-2.4-9.1-3.2-4-1-7-1.2-9.3-1.4l-3-.1h-2c-2.2 0-2 .2-.9.3 1.2 0 3.3.1 5.1.4 1 0 1.8.2 2.4.3l1 .1a64 64 0 0 1 30.1 13.4 57.5 57.5 0 0 1 11.7 13.5l1 1.4.8 1.5a58.6 58.6 0 0 1 3.6 7.6 59 59 0 0 1 2.9 9.3 64.3 64.3 0 0 1 1.2 9.6 72.9 72.9 0 0 1 .2 2.6v3l-.3 3.2-.3 3-.3 1.2-.3 2a39.6 39.6 0 0 1-.5 1.8l-.6 2.6-.6 2v-.2l-.7 2.1.1-.4a53.7 53.7 0 0 1-3.7 8.5l.2-.2a76.3 76.3 0 0 1-5.6 8.6L438 422l-1.3 1.4a45.4 45.4 0 0 1-6.4 6.3 94.5 94.5 0 0 1-7.5 5.4c.8-.5-.3.2-.3.1-2.8 1.8-6 3.2-6 3.4-2.2 1-1.9.7-2.2.8l-1.1.6-2.6.9.9-.3a65 65 0 0 1-5.2 1.6 13 13 0 0 0 1-.2c-2.8.7-.7 0-3.4.7v.1c-3.9.8-6.2.8-10 1a61 61 0 0 1-24-4c-7.6-3-14.4-7.5-19.7-12.8l-.4-.5c-.1-.2-3-2.8-3.2-3.3l-1.2-1.3c-.3-.4-1-1.2-.4-.6l-1.7-2.1-1-1.5a60.4 60.4 0 0 1-10.2-40.3l.5-3.9.3-1.8.4-1.6c1.2-6 3.8-12.2 7.3-17.8 3.6-5.6 8-10.5 12.8-14.6l.6-.6.5-.3c3-2.4 6.1-4.5 9.5-6.2l.3-.2 1.3 3.4 7.4 18.3 4.2 10.5-.3-.6v.2l-1.8-2.3c-.3-.4-.5-.3-1.1-1 .2.1 0-.2-.2-.4l-.1-.2-.2-.2c-.4-.4-.3-.3-.2-.1-.3-.4-1-1.2-1-1.4l-3-3.3c-.1-.2.2 0 .5.4l-.7-.8.6.6c-.7-1-1.8-1.9-2.6-3l-.2-.3h-.1l-.4-.4-.4-.6-1.5-1.8c.2.3.1.2 0 0-.3-.2-.3-.4-.5-.6l-.8-.8c0-.2.4.4.5.4l-1.4-1.7c-.5-.5 0 .2-.3 0l-1.4-1.7.1.3a18 18 0 0 1-1.8-2.3c-6.7-7-2-1-2-1 2.3 3 3.7 4.4 6.6 7.8 2.5 3.1 3 4 5.8 7.1l3.8 4.6c.7.6 1.6 2 2.4 2.7l.2.4.8.9.9 1 .4.5h-.1a27 27 0 0 1 .9 1l1.2 2.9 3.1 7.7a10.2 10.2 0 0 0-1.1 1.7l-1-.8-.1-.2c0-.2-1.1-.7-1.1-.9l-.5-.3s-.3-.3 0-.2l-.8-.5-.3-.4-4.4-3.5a75.8 75.8 0 0 0-7.5-6c-3-2.3-6-5.5-9-7.7a1.2 1.2 0 0 0-.4-.3l-2.6-2.2s-13-10.8-3.8-1.8c1.3 1.3 2.3 2 3.4 2.8 0 .2 1.2 1 1.5 1.3.9.6 1.7 1.6 2.6 2.2l-.3-.2 1.5 1.3c1.5 1.3 3.6 3 4.7 3.7h-.1c.6.3.7.5 1.4 1v.1c.7.4 1.8 1.4 2.3 1.8l1.2 1-.5-.3c.3 0 .8.8 1.8 1.4.8.7 1.9 1 2.6 1.8.5.3-.4-.1.2.3 0 .1-.3-.2-.2 0 .7.4 1 .9 1.7 1.4v.1c1 .7 1.7 1.5 2.4 2 1 .7.5.7 1.7 1.4l.3.4.8.6s.6.5.3.4l1.8 1.5v.2l-.2.9-1.2-.2s-1.6-.2-2-.1c.3 0-.5-.2-.3-.2l-2.1-.1h.1c-1.8-.3-3-.2-4.7-.4h-.6c-1.7 0-3-.4-3.6-.2-.8 0-1-.1-1.3-.2h.2l-3-.2h-1.5l-.4-.1c.2 0 .3 0-.2-.1h-.5.1c-.6 0-1.7 0-1.7-.2l-4.6-.2c-.1-.1.2-.1.6-.1h-1c0-.2.6 0 1 0-1.3-.3-2.7-.2-4.1-.4h-1l-.7-.2-2.3-.1c.4 0 .2 0 0 0h-.8v-.1h-1.1.6l-2.1-.2c-.8 0 0 0-.3.1-.7 0-1.3 0-2.1-.2l.2.1c-1.3 0-2 0-3-.3-9.5-.2-2 .8-2 .8 3.7.5 5.7.4 10.2.8l9 1 6 .5 3.6.2h.4c.3 0 .8 0 1.1.2h1.5l.6.1h-.1a34 34 0 0 1 2.8.3v-.1c1.8.2 2.5.1 4.2.4 2.1 0 3.3.5 5.5.5h.4v.7h-.2v1-.4c.3.2-.2.7 0 1.4 0 .3.2.6.4 1 .2.2.4.5.4.8.2.3-.3-.2 0 .2-.2 0-.2-.2-.3 0l.2.7-2.2.2h-.2c-.1-.2-1.3.2-1.4.1l-.6.1h-1.5c-2 .2-3.6.5-5.6.6-2.4.1-7 .7-9.6 1-3.7.6-8 .4-11.8 1l-.4.1-3.5.3s-16.8 1.5-4 1.4c2 0 3.1-.2 4.4-.4.2.1 1.6-.2 2-.1 1.1-.3 2.4-.1 3.5-.4l-.3.1c.8 0 1.9-.2 2-.1 1.9-.2 4.6-.4 5.8-.7l1.6-.2h.1c.8-.2 2.3-.2 3-.3l1.5-.1h-.6c.2-.2 1.2 0 2.3-.2 1 0 2-.6 3.2-.6.5-.1-.5.2.3 0 0 .2-.4.2-.2.2.8-.1 1.3 0 2.2-.2v.1c1.3-.2 2.4-.1 3.2-.3 1.2-.2.8.1 2.1-.1h.5c.6 0 .4-.2 1-.2 0 .1.9 0 .5.1l3-.3c.2.2.3.5.3.7-.5.4-1 1-1.3 1l-1.5 1.3c.2-.2-.5.3-.3.1l-1.6 1.4c-1.4 1-2.3 2-3.6 3 .1 0-.5.5-.3.4-1.2 1.2-2.5 1.8-2.7 2.5l-1.1.7.1-.1-2.2 1.9c-.4.3-.3.5-1 1 .1-.2-.2 0-.5.3.2-.1.2-.2-.1 0l-.2.3c-.5.4-.4.3-.2.1h.1c-.5.3-1.3 1.1-1.4 1l-3.4 3.1.4-.5-.8.7.7-.6c-1 .7-1.9 1.7-3.1 2.6l-.2.2-.4.5c-.2 0-.1-.1-.7.3l-1.8 1.6c.3-.2.3-.1.2 0l-.7.5h-.1l-.8.8c-.2 0 .4-.4.5-.5l-1.7 1.4c-.6.5.2 0 0 .3l-1.7 1.4.2-.1a18 18 0 0 1-2.2 1.8c-7 6.7-1 2-1 2 3-2.3 4.4-3.7 7.8-6.6 3-2.5 4-3 7.1-5.8l4.6-3.8c.6-.7 1.9-1.6 2.7-2.4l.3-.2 1-.8 1-.9.5-.4 2-1.8c1.5-1 1.9-1.7 3.3-2.7 1.5-1.5 2.7-2 4.2-3.6-.2.2.1 0 .1 0l.5-.4c0 .2 0 .3.4.6v.4c.2.2.3 0 .5.4 0 0 .3.4 0 .3.6.7 1.5 1 2.4 1.8l.6.2a54.3 54.3 0 0 1-1.5 1.8l-.2.1c-.2 0-.7 1.1-.9 1.1l-.3.5c-.1 0-.3.3-.2 0l-.5.8-.4.3-3.5 4.4c-1.7 1.7-4.5 5.4-6.1 7.5-2.2 3-5.4 6-7.6 9a1.2 1.2 0 0 0-.3.4L363 422s-10.8 13-1.8 3.8c1.2-1.3 2-2.3 2.7-3.4.3 0 1-1.2 1.4-1.5.6-.9 1.5-1.7 2.2-2.6l-.2.3c.5-.7 1.2-1.6 1.3-1.5 1.2-1.5 3-3.6 3.7-4.7v.1c.3-.6.5-.7 1-1.4l1.9-2.3 1-1.2-.4.5c0-.3.9-.9 1.5-1.8.7-.8 1-1.9 1.8-2.6.3-.5-.2.4.3-.2 0 0-.2.3 0 .2.4-.7.8-1 1.4-1.7.7-1 1.6-1.7 2-2.4.8-1 .7-.5 1.5-1.6l.4-.4c.3-.4.1-.4.6-.8l.3-.3c.7-.6 1.2-1.4 2-2.3a2 2 0 0 0 .4.2h.3l-.2 1.7s-.2 1.6-.1 2c0-.3-.2.5-.2.3 0 .4 0 1.6-.2 2.1-.2 1.7-.1 3-.4 4.6.1 0 0 .8.1.6 0 1.7-.5 3-.2 3.6 0 .8-.1 1-.2 1.3v-.2l-.2 3v1.5l-.1.4c0-.2 0-.3-.1.2v.5-.1l-.2 1.8-.2 4.5c-.1.1-.1-.2-.1-.6v1c-.2 0 0-.6 0-1-.3 1.3-.2 2.7-.4 4.1v1l-.2.7-.1 2.3c0-.4 0-.2 0 0v.8h-.1v1.1-.6l-.3 2.1c0 .8.1 0 .2.3 0 .7 0 1.4-.2 2.1l.1-.2c0 1.3-.1 2-.3 3-.2 9.5.8 2 .8 2 .5-3.7.4-5.7.8-10.2l1-9 .4-6 .3-3.6v-.4l.1-1.1.1-1.5.1-.6v.1a34 34 0 0 1 .2-2.8c.2-1.8 0-2.5.4-4.2 0-2.1.4-3.3.4-5.5v-.1l.1-.7a6 6 0 0 0 .6.2l-.1-.2c.4.2.6.4 1 .3.3-.1-.3-.2.1-.2a8 8 0 0 0 2.3.2c-.1-.1 0-.2.3-.2v.1c.8-.3.4.2 1.1 0v-.2l.3 2.3-.1.2c-.1 0 .3 1.2.2 1.4v.7c0 .5 0 .5.2.8v.5c0 2 .3 3.6.5 5.6 0 2.4.6 7 1 9.6.5 3.7.4 8 1 11.8v.4l.4 3.5s1.5 16.8 1.4 4c-.1-1.9-.2-3-.5-4.4.2-.2-.1-1.6 0-2-.3-1-.1-2.4-.4-3.5l.1.4-.1-2-.7-5.9c-.2-.6-.1-.8-.2-1.6v-.1c-.2-.8-.2-2.3-.3-2.9l-.1-1.6v.6c-.2-.2 0-1.2-.2-2.3-.1-1-.6-2-.6-3.1-.1-.5.2.4 0-.4.1 0 .1.4.2.2-.1-.8 0-1.3-.2-2.2-.2-1.2 0-2.3-.2-3.1l-.2-2.2v-.5l-.1-1v-.5l-.2-3.2v-.3a.5.5 0 0 1 .2 0l.3-.1s0 .1.1 0a.3.3 0 0 0 0 .2h.1c.4.5 1 1.1 1 1.4 0 0 1 1.2 1.4 1.4-.3-.2.3.5 0 .4.4.2 1.2 1.1 1.4 1.6l3 3.5s.5.6.4.3c1.2 1.3 1.8 2.5 2.5 2.8l.7 1h-.1l1.9 2.1c.3.4.5.4 1 1.1l.3.4c-.1-.2-.2-.2 0 .2.1 0 .2 0 .3.2.4.4.3.3.2.1l1 1.3c1.1 1.4 2 2.3 3 3.4 0 .2-.2 0-.5-.4l.7.8-.6-.6c.7 1 1.7 1.9 2.6 3l.2.3.5.4.3.6c.3.5 1 1.3 1.6 1.8-.3-.3-.1-.2 0 0l.5.6s.6.8.8.8c0 .2-.4-.4-.5-.4l1.4 1.7c.5.5 0-.2.2 0 .5.6 1 1 1.4 1.7v-.3a19 19 0 0 1 1.8 2.3c6.6 7 2 1 2 1-2.3-3-3.7-4.4-6.6-7.8-2.5-3.1-3-4-5.7-7.1l-3.9-4.6c-.7-.6-1.6-2-2.4-2.7l-.2-.4a6 6 0 0 1-.7-.9l-1-1-.4-.6.1.1-1.8-2.2v.1c-1.1-1.5-1.7-1.9-2.7-3.3-1.5-1.5-2-2.7-3.6-4.2.2.2 0-.1 0-.1l-.5-.6.7-.3s.8-.5.9-.8c-.1.2.3 0 .3.1.1-.3.6-.8 1-1h-.1c.5-.4.8-.9 1-1.3l1.5 1.3.1.2c0 .1 1.1.6 1.2.8l.4.3c.1.1.4.3.1.2l.7.5.4.4c1.4 1.3 2.8 2.2 4.4 3.5 1.7 1.7 5.4 4.5 7.5 6 3 2.3 6 5.4 9 7.6l.4.3 2.7 2.2s13 10.7 3.8 1.8c-1.4-1.2-2.3-2-3.4-2.7 0-.3-1.2-1-1.5-1.4-1-.6-1.8-1.6-2.7-2.2l.3.2-1.5-1.3c-1.5-1.2-3.6-3-4.7-3.7h.1c-.6-.3-.7-.5-1.3-1h-.1c-.7-.4-1.8-1.5-2.3-1.8l-1.2-1 .5.3c-.3 0-.9-.8-1.8-1.4-.8-.7-1.9-1-2.7-1.8-.4-.3.5.1-.2-.3 0 0 .4.2.2 0l-1.6-1.4c-1-.7-1.7-1.6-2.5-2-1-.8-.5-.7-1.6-1.5l-.3-.4c-.4-.3-.4-.1-.8-.6l-.3-.3-2.2-1.8s.3-.5 0-.4a3.8 3.8 0 0 1 .3-.7l1.6.2s1.6.2 2 .1c-.3 0 .5.2.3.2.4 0 1.6 0 2.1.2h-.1c1.8.2 3 .1 4.7.4 0-.1.8 0 .6-.1 1.7 0 3 .5 3.6.2.8 0 1 .2 1.3.2h-.2a68.5 68.5 0 0 1 3 .3c.5 0 .6-.2 1.5 0h.4c-.2 0-.3 0 .2.2h.5l-.1-.1c.6.1 1.7.1 1.8.3l4.5.2h-.6l1 .1h-1c1.3.3 2.7.1 4.1.4h1l.7.1 2.3.2c-.4 0-.2-.1 0-.1l.8.1v.1h1.1-.6l2.1.2c.8 0 0 0 .3-.1.7 0 1.4 0 2.1.2l-.2-.1c1.3 0 2 .1 2.9.3 9.6.2 2-.8 2-.8-3.7-.5-5.6-.5-10.1-.8-4-.4-5-.7-9-1l-6-.5-3.6-.2-.4-.1-1.1-.1-1.5-.1h-.6l.1-.1-2.8-.2c-1.8-.2-2.5 0-4.2-.4-2.1 0-3.3-.5-5.5-.5h-.5c0-.2 0-.3-.2-.4.1-.4.3-.5.4-.7v.1l.1-1.8c0-.3-.3-.4-.2-1v-.2c0 .1.1.2.2-.1l-.1-.2c0-.3 0-.3 0 0h-.1v-.9h2c.1.1 1.3-.3 1.4-.2l.5-.1h.2l.9-.1h.5c2-.1 3.6-.4 5.6-.6 2.4 0 7-.7 9.6-1 3.6-.6 8-.5 11.8-1a1.6 1.6 0 0 0 .4-.1l3.5-.4s16.8-1.6 3.9-1.4c-1.8.1-3 .2-4.3.5-.3-.1-1.6.1-2 .1-1.1.3-2.4.1-3.5.4l.3-.1c-.8 0-1.9.2-2 .1l-5.8.7c-.7.2-.9.1-1.7.2l-3 .4-1.6.1h.6c-.2.2-1.2 0-2.3.2-1 0-2 .6-3.2.6-.5.1.5-.2-.3 0 0-.2.4-.2.2-.2-.8.1-1.3 0-2.2.2-1.3.2-2.4 0-3.2.2l-2.1.2h-.5l-1 .1h-.5l-2.6.2a10.8 10.8 0 0 0-.6-1l1.2-1 1.4-1.2c-.2.2.5-.3.4-.1.2-.3 1.1-1.2 1.6-1.4 1.4-1 2.2-2 3.5-3l.4-.4c1.2-1.2 2.5-1.8 2.7-2.4l1-.8v.1l2.1-1.8c.4-.4.4-.6 1.1-1.2-.2.3.1 0 .4-.2-.2.2-.2.2.2 0l.2-.2c.4-.4.3-.4.1-.2.4-.3 1.2-1 1.4-1l3.3-3-.4.4.8-.7-.6.7c1-.7 1.9-1.8 3-2.6l.3-.3.4-.5c.2 0 .1.2.6-.3.5-.3 1.3-1 1.8-1.6-.3.3-.2.2 0 0l.6-.5h.1l.7-.7-.4.5 1.7-1.4c.5-.6-.2 0 0-.3.6-.5 1-1 1.7-1.4l-.3.1a19 19 0 0 1 2.3-1.9c7-6.6 1-2 1-2-3 2.3-4.4 3.7-7.8 6.7-3.1 2.5-4 3-7.1 5.7l-4.6 3.8c-.6.7-2 1.6-2.7 2.4l-.4.2a6 6 0 0 1-.9.8l-1 .9-.5.4v-.1l-2.1 1.8c-1.4 1.2-1.8 1.8-3.2 2.8-1.5 1.5-2.7 2-4.3 3.5.2-.1 0 0 0 0l-1-1.2h-.1v-.1s-.3 0-.3-.2.2-.2-.1-.5l-.5-.5-.7-.4c.2.2.1.2 0 .1-.2-.1-.2-.3-.3-.4l-.6-.3c0-.2.3.1.4 0l-.5-.2 1-1.1.2-.1c.1 0 .6-1.1.8-1.2l.3-.4c.1-.1.3-.3.2-.1l.5-.7.4-.4c1.3-1.4 2.2-2.8 3.5-4.3 1.7-1.8 4.5-5.4 6-7.5 2.3-3 5.4-6 7.7-9l.2-.5 2.2-2.6s10.8-13 1.8-3.8c-1.2 1.3-2 2.3-2.7 3.4-.3 0-1 1.2-1.3 1.5-.6.9-1.6 1.7-2.2 2.6l.1-.3c-.5.7-1.2 1.6-1.3 1.5-1.2 1.6-3 3.6-3.6 4.7-.4.5-.6.6-1 1.3l-1.9 2.3-1 1.2.4-.4c0 .2-.9.8-1.5 1.7-.7.8-1 2-1.8 2.7-.3.5.2-.4-.3.2 0 0 .2-.3 0-.2l-1.4 1.7c-.7 1-1.6 1.7-2 2.4-.7 1-.7.5-1.4 1.6l-.4.3-.6.9s-.6.6-.4.2l-1.6 2c-.3 0-.6-.2-.8-.4v.2h-.4v-.1l.1-1.4.2-2c0 .4.1-.5.2-.2l.1-2.1c.3-1.7.2-3 .4-4.6v-.6c0-1.7.4-3 .1-3.7l.3-1.3v.2l.2-2.9v-1.5l.1-.5c0 .3 0 .3.1-.1v-.5c0-.5 0-1.6.2-1.7l.2-4.5c.1-.2.1.2.1.6v-1c.2 0 0 .5 0 .9.3-1.3.2-2.6.4-4v-1l.2-.7.1-2.4v.1-.8h.2v-1.2.7l.2-2.2c0-.8-.1.1-.2-.2 0-.7 0-1.4.2-2.2v.3c0-1.3 0-2 .2-3 .2-9.6-.7-2-.7-2-.6 3.7-.5 5.7-.8 10.2-.4 4-.7 5-1 9l-.5 6c0 .9-.3 2.5-.2 3.5l-.1.4-.1 1.2-.2 1.4v.7-.1c0 1-.2 2-.3 2.8h.1c-.2 1.8-.1 2.5-.4 4.1 0 1.5-.2 2.5-.3 3.7l-4.4-11.2-3.2-8.2c-.4-3.5-.4-7.4-1-10.9a1.6 1.6 0 0 0 0-.4l-.3-3.5s-1.6-16.8-1.4-3.9c0 1.8.1 3 .4 4.3-.1.3.2 1.6.1 2 .3 1.1.1 2.4.4 3.5l-.1-.3c0 .8.2 1.9.1 2l.4 3.7-9-22.6a61.3 61.3 0 0 1 15.2-2.4h-4.2c-2.5 0-6.3.3-11.4 1.5l.1-.1h-.1l-2.5-6 1.2-.2c3.1-.9 5.8-1.4 8-1.7a68.2 68.2 0 0 1 8.8-.6h2.2l2.5.3 2.4.2 2.9.5 3.4.7 4 1h-.4a81.3 81.3 0 0 1 15 5.8l3 1.8 3.3 2.2h-.1c3.6 2.2 6.8 5.3 9.8 8.2l-.9-.8a66.5 66.5 0 0 1 15.8 24l-.2-.3c.6 1.1.8 2 1.1 2.8l1 3.1v.3c.3.7.5 1.5.7 2.5l.6 2.9.8 5v.1l.3 5.7V380c.2.7 0 4.2-.1 8.3zM143.8 256v-.2zm182.6-41zm25.4 16.5zm-1.4-5.7z"/><path xmlns="http://www.w3.org/2000/svg" d="m349.6 212.9-.9-.1h-.2c-.2-.1-.7-.3-1.5-.2-.6 0-1 .2-1.4.6-.2-.1-.5.2-.7.3-.2.3-.7.4-1 .8v-.1l-.4.5c-.5.6-1 1.5-1 2v-.1l-.1.6-.2 1v.6-.2c0 .1-.2.5 0 .9 0 .4.4.7.4 1 .1.2-.2-.1 0 .2-.2 0-.2-.1-.2 0 0 .2 0 .4.2.7.2.4.2.8.5 1 .3.4 0 .4.3.7v.2c.2.2.3 0 .4.2 0 0 .1.3 0 .2.3.5.9.7 1.4 1.1l.6.2s.6.3.2.3h-.1c.2.3.6.2 1 .3-.1 0-.3-.1-.1-.1h.3v.1l.4.2v-.1c.2 0 .3.2.6.1.2 0-.2 0 0 0h1.7c.5-.2.2.1.7 0v-.2c.4-.2.3.1.7-.3-.2.1-.2 0 0-.1h.4v.1l.2-.3c.3 0 .6-.3.8-.3 0 0 .5-.3.5-.5 0 .2.2 0 .2 0l.5-.5c.6-.4.7-1 1-1.4v-.3c.2-.6.6-1 .4-1.3 0-.3.1-.3.2-.4v-1.9c0-.2 0-.2 0 0 0-.3-.2-.6 0-.7-.2-.6-.5-1-.8-1.5l.2.1-.1-.3.2.3c-.1-.5-.6-.8-.8-1.3h-.1l-.2-.1v-.3l-.7-.6v.1l-.2-.2v-.1l-.4-.1h.3l-.7-.4h-.2c-.2 0-.4 0-.7-.2l-.9-.3h-.6zm-23.2 2.1z"/><g xmlns="http://www.w3.org/2000/svg" fill="#fff"><path d="M201.9 371v-1l17.4 1.7-.1 1zm20-93c-1-7.6-2.2-13.4-2.2-13.5l-1 .2s1.3 5.9 2.3 13.5l1-.2zm.1 18.9a637 637 0 0 1-3.9 42.3l1 .1c0-.2 3.4-28 4-42.4a88 88 0 0 0-.2-8l-1 .2c.2 2.6.2 5.3.1 7.8zm28.2-60.3 2.7.6-.5-.2c1.4.3.3.2 1.6.5v-.2l4.8 1.5 5.8 1.6c2 .5 3.9 1.2 5.7 2a19 19 0 0 1 8.5 7.2l.1.3c0 .2 1 1.7 1 2l.3.8c.1.2.2.7 0 .3l.4 1.3v.8c.4 3 .4 5.7-.2 8.9-.3 1.9-1 4.7-1.7 7.5l-1.7 7.8c-1.3 5.8-3.4 12.5-4.7 18.6l-.1.7-1.4 5.5s-6.5 26.5-.6 6.6v.1a79 79 0 0 0 1.7-7c.2-.3.6-2.4.8-3.1.3-1.8 1-3.7 1.4-5.5v.6l.7-3.2c.7-3 1.8-7.3 2.1-9.3v.1l.6-2.7.1-.2 1-4.5h.1l.6-2.5-.2.9c-.1-.4.5-1.8.8-3.6.5-1.7.5-3.5 1-5.2 0-.8 0 .8.1-.5.1 0 0 .6.1.3.2-1.2.5-2 .6-3.5a32.4 32.4 0 0 1 .2-1.5v-3.7l-.1-1.7v-.7l-.4-1.1v-.9l-.8-1.6c.1 0-.5-1.2-.2-.7-1-2.2-2.7-4-5.1-6l-1.3-.7-1-.7c-.1 0-2.8-1.5-1.2-.7l.3.2h.3a39 39 0 0 0-4.5-2l.6.3-1.5-.5h.3a31.7 31.7 0 0 0-2.2-.7l.3.1c-1.1-.3-1.5-.6-2.8-.8-.6-.1 1 .4-.1 0l-5.7-1.5-.9-.1v-.1c-2-.4-.7-.4-2.7-.8h-.4c-1.9-.2-1-.3-3-.6.7.2.3.3-.7 0h.3c-.6 0-.8 0-1.1-.2l-.6-.2h.5l-1.5-.2-3.5-.8s-2.5-.6-3.1-.6c.5 0-1-.3-.5-.3-.7 0-2.6-.3-3.4-.6h.1c-2.8-.6-4.9-.8-7.5-1.4.1.1-1.2-.2-.9 0-2.7-.4-4.8-1.2-5.9-1l-2-.5h.3l-4.6-.8c-.9-.2-1 0-2.6-.3.5 0 0-.1-.7-.2.4 0 .5 0-.2-.1h-.5c-1-.2-.8-.2-.3-.1h.1c-1-.2-2.7-.4-2.8-.6l-7.3-1.2h1l-1.7-.2 1.5.2c-2-.5-4.1-.6-6.4-1.3h-.6l-.9-.2-1-.4-3.7-1.1c.6.2.4.2 0 0l-1.2-.5-1.6-.6h.1l.9.3-.6-.3c.3 0 .4-.1.5-.3.1.1.2-.1.3-.1.1-.2.4-.1.5-.3h.3c.2-.2.6-.4.6-.6 0-.2.1-.1.2-.2l.4-.3.2-.1h-.1c0-.1.2 0 .3-.2.1 0 0-.5.2-.5 0-.1 0 .2 0 0l.1.2c0-.1.2 0 .3-.2.1-.2.4-.1.4-.3 0-.2.2.1.3-.1h.1v-.2h.2c.2 0 .2-.3.5-.4l.1-.3s.2-.2.2 0c.2 0 .1-.2.3-.3h-.1.1l.2-.2h-.1s.2 0 .2-.2c0 0-.1 0 0 0 0-.2.2-.3.4-.4-.1 0 0-.1 0-.2s.2.1.2-.1v-.4c0 .1 0 0 0 0v-.1h.2v-.1c.1 0 .1-.3.3-.3v-.3c.1.1.2 0 .2 0l.1-.2.4-.7-.1-.1c0-.3.4-.3 0-.5l.3-.2.1-.4v-.3c0 .1 0 0 0 0h.1v-.1l.1-.2v-.7l.2.1v-.1.1c.2-.1 0-.4.2-.6l-.1-.2h.2v-.4h-.1s.1 0 0-.1h.2l-.1-.2v.1l.1-.3c0-.1 0 0-.1 0v-.4h-.1l.1-.4c-.2-.8-.5-.8-.7-.7l-.2.3c-.2.5 0 .8-.1 1.4-.2.5-.4.6-.5 1.2a12.1 12.1 0 0 0-.3.8v.5h-.2v.4h-.1c0 .2 0 .3-.2.4h.1c-.2.3 0 .4-.3.6 0 .4-.4.3-.4.7v.3c0 .1-.1 0-.2 0v.3-.1.2c0 .1 0 0-.1 0v.2l-.4.1c-.5.5-.8 1.3-1.4 1.6-.2-.2 0 .2-.2.1v.1l-.1.1h-.1c-.3.1-.3.4-.6.6-.4 0-.8.6-1 .8-.4.5-1.2.4-1.6.9l-.5.3s-.8.4-1 .7l-1.6-.8c-1-.6.2.2-.4 0l-1.4-.9-1.4-1.1.2.3-2-1.7-1.3-1.6c-2.5-3-2.9-5.3-3-6.4-.2-1-.3-1-.4-.4 0 .7 0 1.8.3 2.7l.4 1.2a10.3 10.3 0 0 0 .2.5 15 15 0 0 0 5.1 6.3 50.6 50.6 0 0 0 18.2 7l4.1 1 9.5 1.7c1.5.1 4 .7 5.8 1l.6.1 1.9.4c.9 0 1.8.3 2.3.4l1 .2h-.2a80 80 0 0 1 4.5.8c2.9.6 4 .6 6.7 1.3 3.4.4 5.3 1.2 8.8 1.7h.2c1.6.4 3.3.8 3.4.6 1.1.2 1 .2 1 .3l2 .4-.4-.1zm-63-14.4h-.1zm65.9 13.8h.2zm33 93.2h.1a3 3 0 0 0-1.5-.4c0-.2-.5-.1-.6-.2l-1.2-.3h.1l-.6-.3-2-.4h-.6v-.1l-1-.2-.5-.2h.2c-.1.2-.4-.2-.8-.1-.3-.2-.8.1-1.1 0-.2 0 .2-.1-.1-.1 0-.1.1 0 0-.2l-.6-.2c-.5 0-.8-.4-1-.3-.5 0-.3-.3-.8-.3l-.1-.1c-.2-.1-.2 0-.4 0 0-.1-.2-.2 0-.2-.5-.2-1-.1-1.7-.5h-.6s-.6-.1-.2-.2c0 0 .1 0 0 0h.1c-.3-.2-.6-.1-1-.2h.2-.4.1l-.5-.2h.1c-.2 0-.3-.2-.6-.1-.1 0 .2.1 0 0a11.1 11.1 0 0 0-1.2-.4c0 .1 0 0-.2 0-.5 0 0-.2-.6-.3v.1c-.5 0-.2-.2-.7-.1.2 0 0 .2-.2 0h.1-.2l-.1-.1.1-.1h-.4l-.7-.2-.6-.2s-.2-.1-.1-.2l-.7-.1-1.6-.4-.2.1c-.6 0-1-.5-1.3-.2l-.4-.2h.1l-1-.3c-.2 0-.2.2-.5 0h-.2c.1 0 .1 0 0-.1h-.2l-.5-.2-1.6-.3h.3l-.4-.1h.3c-.4-.2-.9-.1-1.3-.4h-.2s-.1.1-.2 0l-.2-.1-.8-.2c.1 0 0 0 0 .1l-.3-.1v-.1c0 .1-.3 0-.4 0h.3l-.8-.2c-.2 0 0 0 0 .1l-.8-.1a2 2 0 0 1-.9-.2c-3.4-.2-1 .7-1 .7 1.3.5 2 .4 3.5.8l3 1 2 .4 1.3.3c.2 0 .4 0 .5.2h.5l.2.1 1 .3v-.1c.5.2.8.1 1.3.4.8 0 1.1.5 1.9.4-.1 0 0 0 0 .1.3 0 .7.2.8 0 .2 0 .2.1.2.2h.4-.1l.6.1-.1-.2c.3.2 0 .2.3.3v-.1l1 .5c1.6.5 3.4.7 4.9 1.3v.1c0 .2.5 0 .5 0h.2c0 .1.2.2 0 .2h.4l.1.1c.7.3 1.3.3 2 .5.7.4 2.3.6 3.2.8 1.3.1 2.6 1 4 1.2l1.2.3s5.6 1.6 1.6-.6zm-19-5.5zm-73-106.8zm21.1 46.7h.1-.1zm25.4 2.4zm-21.6-.9z"/><path d="M213.9 264.5c1.3.2 1.7.4 3 .5l2 .1h1.3l.2.1h1.1v.1h.9l1.4.1c.8 0 1.1.3 1.9.2-.1 0 0 0 0 0 .4 0 .7.1.8 0h1.1l-.1-.1c.3 0 0 .2.3.2v-.2l1 .4c1.7.2 3.5.1 5 .5v.1c.1.1.5-.2.6 0h.2s.1 0 0 0h.5c.7.2 1.2.1 2 .2.7.3 2.3.3 3.2.3 1.3-.1 2.7.6 4 .5a.2.2 0 0 0 .1 0h1.2s5.7.7 1.5-.8c-.6-.1-1-.2-1.5-.1 0-.2-.5 0-.6-.1-.4 0-.8-.3-1.2-.2h.1l-.7-.1c-.6 0-1.5-.2-2 0h-.6v-.1h-1v-.1h-.5.2c0 .2-.4-.2-.8 0-.3-.1-.7.2-1 .1-.3 0 0-.1-.2 0 0-.2.2-.1 0-.2l-.6-.1c-.5 0-.8-.3-1.1-.2-.4 0-.3-.2-.7-.1l-.2-.1h-.4s-.2 0 0-.1c-.6-.2-1 0-1.7-.2l-.6.1s-.6 0-.2-.1h.1c-.3-.3-.7 0-1-.1h.2-.4l-.4-.1h-.5c-.2 0 .2 0 0 0l-1.3-.2h-.2c-.4 0-.1-.2-.6-.2v.1c-.5.1-.3-.2-.7 0 .2 0 0 .2-.1.1h-.2l-.2-.1.2-.1h-1.1s-.5-.2-.7 0c.1-.1-.2-.2 0-.3-.2 0-.7.1-.8 0l-1.6-.1-.2.1c-.6 0-1-.3-1.2 0l-.5-.1h.1l-1-.1c-.2 0-.2.2-.5 0h-.2c.1 0 .1 0 0 0h-.2l-.6-.1h-1.5l.2-.1h-.4.3c-.4-.2-.9 0-1.3-.2h-.1l-.3.2c0-.1 0-.2-.2-.2-.2-.1-.5 0-.8 0 .1 0 0 0 0 0h-.3v-.1h-.4.3-.8c-.2 0 0 0 0 0-.3 0-.5.1-.8 0v.1h-1c-3.2.3-.7.8-.7.8 1.3.3 2 .1 3.5.2zm38.6 29.6v.1-.1zm-6.9 32.7zm4.7-28zm1.5-6.5c-.4 1.7-.7 2.1-1 4l-.5 2.5-.2 1.7-.1.1-.1.5-.1.7-.1.3v-.1a6 6 0 0 1-.2 1.2c-.2.8-.1 1.2-.4 1.9 0 1-.4 1.4-.4 2.4 0-.1 0 0-.1 0 0 .5-.2 1 0 1 0 .3-.1.3-.2.3v.6-.2l-.1.8.2-.1c-.2.3-.2 0-.3.4h.2l-.6 1.3-1.3 6.4h-.1c-.2 0 0 .7-.1.7v.3s-.1.2-.1 0v.4l-.1.2c-.3.8-.3 1.6-.5 2.5-.4 1-.7 3-.8 4.2-.2 1.6-1 3.4-1.2 5.1v.2l-.4 1.9h.2l1.5.5 1.9.5c1.1.2 1.6 0-1-1.3l-1-.3-.2-.1h-.3l.2-.4c0-.6.3-1 .3-1.6v.2l.2-.9c.2-.8.5-2 .4-2.6l.2-.7.2-1.3.2-.7v.3c-.2-.1.1-.5.1-1 .1-.5-.2-1 0-1.5 0-.2.1.3.1-.1.1 0 0 .2.2.1l.2-1c0-.5.4-1 .3-1.3.1-.6.3-.3.3-1l.2-.1v-.5l.1-.2c.3-.6.2-1.2.5-2v-.8s.2-.8.2-.3v.2c.3-.5.1-.9.2-1.3v.1-.4.1l.2-.6c0-.2.2-.3.2-.7 0-.2-.2.3-.2 0l.5-1.6v-.3c0-.5.3-.1.3-.7v-1c0 .3-.1.1 0-.2v.1-.3l.2-.1v.1-.4c.1-.3.1-.9.3-1 0 0 .2-.7.1-.8 0 .1.2-.3.2-.1l.1-1c.3-.7.2-1.3.5-2l-.1-.3c0-.7.5-1.3.2-1.6 0-.3.1-.4.2-.5l.3-1.2c0-.3-.2-.3 0-.7v-.2s0 .1.1 0a.4.4 0 0 1 0-.2v-.1l.2-.7.3-2v.3l.1-.5c.1 0 0 .3 0 .4.2-.5.1-1.1.4-1.8v-.4l.1-.3c.2-.2.2-.7.2-1 0 .1 0 0 0 0v-.4h.1v-.5.3l.3-1c0-.3-.1.1-.2 0 0-.4 0-.7.2-1h-.1c0-.5.1-.8.3-1.2.2-4.3-.8-1-.8-1-.5 1.5-.5 2.4-.8 4.4zm33.4 64c-.3.3-.5.2-.7.4l-.4.4c0 .1-.2.1-.2.3h-.2v.1a.3.3 0 0 1-.3.2c-.1 0 0 .3-.2.3 0 .2-.4 0-.4.3-.1 0-.2 0 0 .2h-.2v.1h-.1l.1.2c-.1 0-.1-.2-.2 0h.1-.4c-.4.2-.6.7-1 .7-.1-.1 0 .2-.1.1l-.1.1c-.3 0-.3.3-.4.3-.3 0-.5.4-.7.6-.1.4-.7.2-.9.6l-.2.2s-1.2.8.3 1c.2 0 .3 0 .3-.3 0 .2 0 0 .2 0 0-.2.2 0 .2-.2h.2c.1-.1.3-.2.3-.4l.1-.2.2-.1h.1c-.1-.2.1 0 .2-.2 0 0-.1-.4 0-.4 0 0 0 .2 0 0l.1.2.2-.1c0-.1.3 0 .3-.2 0 0 .2.2.2 0 .1 0 0 0 0 0h.2c.2 0 .1-.3.3-.2 0-.1.1-.1 0-.2.1 0 .2-.1.2 0v.1c.2 0 .1-.2.2-.2h.1v-.1h.1v-.2h.3v-.1c0-.1.1.1.2 0v-.4.1h.1v.1-.2h.2s.2 0 .1-.2l.2.2v-.2c.3 0 .2-.2.4-.2v-.2c0-.2.3 0 .1-.3h.2a.6.6 0 0 1 .2-.1s-.1-.2 0-.2h.1s0-.2.2 0c0-.2 0-.4.2-.5v.2-.1c.2.1.1-.2.3-.1v-.2l.1.1.1-.2h.1v-.1h.2l-.1-.2.1-.1c0-.2 0-.2.2-.2.2-1-.5-.9-.5-.9-.3 0-.3.4-.6.7zm4 5.6c-.2.2-.4 0-.6.3l-.3.3c0 .2-.2.2-.2.3l-.1.1-.2.2c-.1 0 0 .2-.2.2 0 .3-.3 0-.3.3-.1 0-.2.1 0 .2h-.2v.2s0-.1-.1 0h-.3c-.3.2-.4.6-.8.7-.2-.2 0 .1-.1 0v.1c-.1 0-.1 0 0 0h-.2l-.2.3c-.3 0-.4.4-.5.6-.1.3-.7.1-.8.5l-.2.2s-1 .7.4 1c.2 0 .3-.1.3-.3 0 .1 0 0 .1 0 0-.2.2 0 .2-.2h.2c0-.1.3-.2.2-.4v-.1h.1l.1-.2h.2c-.2-.2 0 0 0-.1.1 0 0-.4 0-.4 0-.1.1.1.1 0l.1.1h.2c0-.2.2 0 .2-.2 0 0 .2.2.1 0h.3c.1 0 0-.3.3-.2-.1-.1 0-.1 0-.2l.1.1c.2 0 0-.1.1-.2h.2-.1s.2 0 .1-.1v-.1h.3c-.1-.2 0-.2 0-.2s.1.2.1 0v.1-.1c0-.2.1 0 0-.2h.1l.2-.1s.2 0 .1-.2l.1.1.1-.1c.2 0 .1-.2.3-.2v-.2c0-.1.2 0 0-.2 0-.1.2 0 .2 0l.1-.2v-.2h.2-.1c.1 0 .1-.1.2 0l.1-.4v.1h.1c.2.1 0-.2.2-.1v-.2l.1.1.1-.2h.1v-.1.1l.2-.1-.1-.2v-.1c0-.1 0-.2.2-.1.1-1-.5-.8-.5-.8-.4 0-.3.4-.6.6z"/></g><defs xmlns="http://www.w3.org/2000/svg"><path id="a" d="M391.8 323.2a60.7 60.7 0 1 1-.2 121.4 60.7 60.7 0 0 1 .2-121.4m0-7a67.6 67.6 0 1 0 .1 135.3 67.6 67.6 0 0 0 0-135.3z"/></defs><path xmlns="http://www.w3.org/2000/svg" d="m316.9 186.5-.7-.6.7.6zm1.7 21.8h.2-.2zm-30.2-42.2.1.1h.1-.1zm39 27.3zm17 14.8.5-.2-.5.2zm-14.8-6.9v.1-.1zm5.7-2.5zm-8.3 6.6z"/><path xmlns="http://www.w3.org/2000/svg" fill="#fff" d="M361.9 207.7c-1.9-1.1-6.3-2.2-9.4-3.5-5-2.1-9.3-3.6-13.3-5 .3-2.2-1.7-4.6-4.8-5.5a7 7 0 0 0-5.4.3l-40.9-27.2c-2.8-2-9.4-10.6-15.5-18.7l-12 6.6-6 3-.7.5c-3.7 2.2-7.9 4.1-12 6.1 8.5 11 18.7 23.7 21.9 26.1 6.7 5.3 17.2 8.2 31.4 12.3 11.5 3.3 21.7 5.7 31 8-.2.6.2 1.3.8 1.5l2.9.6c.7.2 1.4-.2 1.6-.8l1.2.2c1.7.4 3.4 1.3 5.8 1.6 2-3.5 5.8-5.8 10-5.8a11.5 11.5 0 0 1 11.2 14.8c0 .2.2.4.4.5 3.6 1.7 4.8-14 1.8-15.6z"/><path xmlns="http://www.w3.org/2000/svg" d="M330.8 193zm-.4 8.8zm3.5-7.5z"/><path xmlns="http://www.w3.org/2000/svg" fill="#fff" d="M240.4 209.4c2-.2 5.2-.5 5.1-1-.1-.7-1.3-.7-1.3-.7h-3.8c.9-.2-.3-.2-1.4-.2h-2l.3.1-5.6-.1-14 .3c-.6 0 .5-.2 1.8-.2h-3.2 2.9c-4-.3-8 .2-12.6 0l-1 .1h-.2l-1.7.1c-.6 0 0-.2-2.2-.2a94.8 94.8 0 0 0-7.1.3h-2.6l-.1-.2-3.4.2c-.7-.1 1.7-.1 2-.2h-6.8c-2.4.2.5.2-.7.3-2.1 0-4.2.2-6.6.1l.7.1c-4 .2-6.4.1-9 0-29.9 1.3-6.3 1.6-6.3 1.6 11.7.3 17.8-.2 31.7-.3l28.3.1h18.5l.4-.1z"/><path xmlns="http://www.w3.org/2000/svg" d="M364 213.3c0-2-.4-3.7-1-4.8-.3-.5-.6-.9-.9-1h-.1l.7 1c.3.6.5 1.5.6 2.7a26 26 0 0 1-1.3 10.3v-.3a4 4 0 0 1-1 1.5c-.1.2-.3.2-.4.2-.2 0-.3 0-.3-.2v-.2l.1-.4.2-.8a10.2 10.2 0 0 0 .1-1.8c0-2.2-.6-4.2-1.7-6 0-.3-.7-1.4-1.6-2.3-1-1-2.2-1.8-2.8-2.1h.1a12.4 12.4 0 0 0-10.7-.7l.4-.2a14.3 14.3 0 0 0-4.8 3.1l-.8.9-.3.5-.2.2v.1c0 .2-1 0-1.8-.3l-2.3-.7-1.9-.5.1-.5.4-1.5c.3-1 .6-2 1-2.8.2 0 0-.6.2-.6v-.2s0-.2 0 0c.2-.3.1-.3.1-.4l.2-.2c.3-.7.3-1.4.6-2.2a5.7 5.7 0 0 0 .2-.4h1c.4 0 .8-.3 1.4-.5 0-.1.4-.2.4-.4 0 0 .5-.3.3 0v.1c.3 0 .4-.5.7-.7-.1 0-.2.2-.2 0 0 0 .2 0 .2-.2v.1l.4-.4h-.1c.1-.1.3-.1.3-.4 0-.2-.2.1 0-.1a4 4 0 0 0 .3-.7l1.2.5-.6-.3c3.7 1.3 5.9 2 8.3 3.1l4.6 1.7 3.6 1.2a50.2 50.2 0 0 1 5.3 1.5c-1-.7-2.9-1.4-4.5-2l-3-1a39.5 39.5 0 0 1-1.8-.7l-1.9-.8-3.4-1.4-6.6-2.4-1.1-.4v-.4c-.3-.4 0-.3-.3-.6 0 .1-.1.1-.1-.1v-.3h.1l-.3-.2-.2-.7-.2-.2-.2-.3v-.2l-.5-.4c-.3-.5-.7-.6-1.1-1l-.2.1c-.5-.2-.7-.7-1-.4l-.4-.3-.8-.3h-.5c.1 0 0 0 0 0l-.1-.2h-.2v.1c-.1-.1-.4 0-.4-.2H332h.2-.3l.2-.1c-.3-.2-.8.1-1.2 0l-.1.1-.2.1s0-.2-.2-.1l-.7.2c.1 0 0 0 0 0l-.2.1h-.3l-2.7-1.7-23-15.5-15.1-10c-1-.7-2.4-2-3.7-3.5l-3.6-4.3-.7-1a46 46 0 0 1-2.2-2.9l-2.7-3.4h.1l-1.2-1.6.2.3-1.5-2c2-1.2 2.9-2 .8-1.2l1-.5-2.4-4.1c3.1 4.4 3.5 4.7 3.2 3.6-.5-1.3-2.2-4.4-2.2-4.4-3.5-6.4-5.8-9.4-10.8-16.4a256.9 256.9 0 0 0-5-7.1 83 83 0 0 0-2.4-3 75 75 0 0 0-3.3-3.8 93 93 0 0 0-11-10c-1-.8-2-1.6-3-2l-.7-.6-2.1-1-2.7-.9-1.2-.4h.2c-1 0-2-.3-2.9-.4h-2.8.2l-2.5.3c-.7 0-1.3.3-1.9.4l-1.8.5-1 .4h-.2l-.7.2-.7.3-2.3.7-1.5.8c-.5 0-1.4.5-.6 0l-2.4 1.4-1.5.8c-1.4.7-2.5 1.7-3.7 2.5a63 63 0 0 0-9 9.6 78 78 0 0 0-8.3 12.4c-2.8 4.8-5.1 10-6.8 13.7-4.7 10.5-11.1 22.3-15.7 33.2l-.4.7-.1.5-4.5 9.9S155 195.6 152 203l-.6 1.4-.4 1.3c-.4 1 .1 2.1.7 2.5a2 2 0 0 0 1.4.5c.3 0 .4-.1.2-.2-.2 0-.7 0-1.2-.6a1.9 1.9 0 0 1-.3-.4c.3.5.8.8 1.5.8l91-.3.2-.8 1 .3.5-3.2a54 54 0 0 0 .2-2.8l.3-1.2c0-1.2.1-2.5.3-3.7v.1l.4-4.5.3-2v.4a207.6 207.6 0 0 1 .7-8.8l-.1.2c.4-3.6.5-5.8.6-8.3l6 7.5c2.4 2.8 4.7 5.6 7.1 8.1l.4.5c.1.1.8.8 1.7 1.3l2 1.3 1.3.8c.4.3 1.3.7.5.4l2.4 1.1a27.7 27.7 0 0 0 1.4.8c5.4 2.4 10.3 3.6 16.2 5.4a328.5 328.5 0 0 0 28.4 7.6l9.3 2.2v.3c.1.6.4 1 .8 1.3a1.2 1.2 0 0 0 .4.2l.3.1a2.8 2.8 0 0 0 .6.1c-.1 0 0 0 0 0 .4.1.9.2.9 0l.3.2h.4l.5.1h.1l-.1-.1c.4 0 0 .2.5.2v-.2c.6 0 1 0 1.6-.5l1.7.4 2.2.8 1.2.3.6.1.3.1h.5l.3.1h.2l.2-.5.4-.5.7-.9 1.5-1.5c2.3-1.8 5.2-2.6 8-2.4l.7.1h.5a11 11 0 0 1 8.5 13v.3l-.2.4c-.1.5.1.9.4 1.2.4.3.9.4 1.3.3.4 0 .8-.3 1-.5.5-.5.8-1.1 1-1.7.3-.5.4-1.1.6-1.7.5-2.3.7-4.6.6-6.7zm-37.3-6.5v.2l-.2.4-.2.6v.2a5.3 5.3 0 0 1-.4 1.1h.1a3 3 0 0 0-.2.6l-2-.4h.2l-5.1-1.1-.3-.1-8.5-2-.1-.2-4.6-1.1 1.7.4c-.6 0-3.4-1-6.7-1.7-3-.9-6.3-1.4-9.5-2.4-1.5-.4 1.4.2-.9-.4 0 0 1.1.3.5 0l-6.3-1.9h-.1c-3.6-1-6.7-2.3-9-3-1.8-.8-2.4-1-3-1.4s-1.2-.6-3-1.4l-1.3-.9-2.6-1.6-.8-.6-.2-.2-1.1-1-1.1-1.2-2.3-2.5a99.5 99.5 0 0 1-5-5.9l-3.2-3.8c0-.1-3.6-4.5-1.5-2l.5.5.3.3-5.7-7 .8 1-1.8-2.3.4.4-1.9-2.5a119.7 119.7 0 0 0 12.1-6.3l5.9-3 11.6-6.3c1.9 2.6 3.3 4.6 4.3 5.5l2.4 3.2-.4-.4c2.7 3.4 3.5 4.4 5.7 6.9l1.3 1.3 2.1 2c-.3-.3-.3-.3 0 0l.5.4.6.4.4.3.7.4s.1 0 0 0l.6.4-.2-.2c1.5 1 4.4 2.8 4.5 3l11.6 7.6-1.6-1 2.6 1.8-2.3-1.5c3 2.2 6.6 4.2 10.2 6.8l.8.5.2.1 1.5.9c.5.4-.2 0 1.7 1.3l6 4c-1-.7-.6-.5-.1-.3l2.1 1.5v.1l1.1.6-.1.1a3 3 0 0 1-.6.6c-.4.7-.3 1.1-.2 1.3 0 .2.1.2.2.1l.3-.2.1-.2.8-.8a3.3 3.3 0 0 1 1.1-.7c1-.2 1.3 0 2.4-.1l1.5.2 1 .2v.1l.4.1.3.2h.2l.6.4c.4.3.6.3.9.7.5.2.5.7 1 1l-.1.1c.1.2.2.5.4.4v.2l.1.3s.4 1.1-1 2.7c-.4.5-1 .7-1.7.8 0-.2-.3.2-.4 0l-.1.2s-.2 0 0-.1h-2l-2.5-.6a3 3 0 0 1-1.3-.9l-1.1-1-.1-.1a5 5 0 0 1-.5-.8l-.2-.6-.2-1c0-.3 0-.6-.2-.6-.1 0-.6.3-.7 1.4 0 .6.1 1 .4 1.3l.3.6c.3.2.4.7.7.9h-.1l.4.4.2.2-.8 2.3-.7 2.3c0 .4-.4 1-.4 1.5zm3.1 6.3zm1.4-1.8-.2.3-.1.3-.3.2v.1h-.1c-.2.1-.1-.2-.3-.1h-.1c-.5.1-.3-.1-.8 0 .2 0 0 .2-.2 0h-.2l-.1-.1h.1-.4l-.9-.3h-.3l-.1-.1h-.1v-.2s-.3-.1-.2-.3v-.5l.3-1v-.2c0-.7.5-1.1.3-1.4 0-.3.2-.4.2-.5l.4-1v-.7l.1-.2c0 .1 0 .2.1 0v-.2c.1-.2.1-.6.3-.6l.4-1.8v.2l.1-.4c.1 0 0 .3 0 .4.2-.4.2-1 .5-1.6v-.1l.4.1.4.2.9.3v.1l.4.2-.2-.1c.1-.2.3.2.7.2.3 0 .7-.3 1-.1.2 0-.2.1 0 0v.2l.7.1h.3c0 .3-.2.5-.3.8 0 .5-.4.8-.4 1.2-.1.5-.3.2-.4.8l-.1.2c-.1.2 0 .2 0 .4-.1 0-.2.3-.2.1-.3.5-.3 1.2-.7 1.8v.7s-.3.7-.2.3v-.1c-.3.3-.2.7-.4 1 0 0 .1-.2.1 0v.3h-.1l-.2.5c0 .2-.2.2-.2.6 0 .1.2-.3 0 0z"/><path xmlns="http://www.w3.org/2000/svg" d="M340 198.2zm-6.8-.5c.4.1.7.2 1 .1l1 .8c.3.1.5.2.7 0 .2 0 0-.2-.1-.3l-1.1-.8v-.3l2.5-.2c.2 0 .3-.2.2-.3-.1-.2-.3-.2-.5-.2l-2.4.2-.7-.5c-.7-.2-1.4 0-1.5.3s.3 1 1 1.2z"/><path xmlns="http://www.w3.org/2000/svg" fill="#fff" d="M239 164.8c-.1-.2-1.8.4-3 .9l-1.5.8h-.2c-1.2.9-3.8 2-4.8 2.7l-.1-.1-2.5 1.4.9-.5-.5.3-.3.2-.3.1-.3.1-.1-.2-.2-.3-.4-.7c-.9-1.7-2.5-3.2-3.3-5.1-.6-.8.6.6-.2-.6.1-.2.4.5.4.1-.8-1.2-1-2.1-2-3.7l.1-.1c-1.2-2-1.8-4-2.8-5.3-1.1-2-.4-1.6-1.7-3.7l-.3-1c-.5-1-.5-.5-1-1.6.1 0-.6-1.4-.2-.8-1-2.5-2.6-4.8-3.8-8.2-.5-.6-1-2.3-1.4-2.7 0-.2-1.3-3.3-.4-1.6l.2.5.2.1c-.5-1.8-1.3-3.1-1.8-4.8v-.1c0 .5.2 1 0 .5l-.2-.7c-.4-.6-.8-1-1-.8-.4.2-.3 1.8-.1 3.4l.5 1.5c1.7 4.4 3.8 8.7 5.5 12.6v.4c0 .3 1.4 2 1.4 2.4l.5.9c.1.3.3.8 0 .4l.9 1.4.3 1c1.6 3.3 3.3 6 5 9.4l1.8 3.7 1.2 2 1.3 2.6.6 1 .2.4.5-.2 1.8-1 2.2-1.2 3.8-2.1a82.7 82.7 0 0 1 2.7-1.5c1-.7 2.5-2 2.4-2.2z"/></g></svg>
