<svg xmlns="http://www.w3.org/2000/svg" viewBox="0 0 720 640"><path xmlns="http://www.w3.org/2000/svg" fill="none" d="M0 0h720v640H0z"/><g transform="translate(120 80)"><path xmlns="http://www.w3.org/2000/svg" fill="#ea9d7d" d="m226.1 79-7.5 24.5-2.2 5.7s3.2 4.1 10.8 5.7a38 38 0 0 0 11 1c1.9-.2 4.2-.6 3-4.1-1.7-5.2-1.1-8.5-1.1-8.5l2.7-14.7-16.7-9.6z"/><linearGradient xmlns="http://www.w3.org/2000/svg" id="a" x1="229.2" x2="236.1" y1="95.9" y2="87.1" gradientUnits="userSpaceOnUse"><stop offset="0" stop-color="#bc5a32" stop-opacity="0"/><stop offset="1" stop-color="#bc5a32"/></linearGradient><path xmlns="http://www.w3.org/2000/svg" fill="url(#a)" d="M224.9 92.3a26.6 26.6 0 0 0 9.4 8.2 24 24 0 0 0 6 2.1l2.2-12.2L226 79l-.9 1.7-.7 2.8c0 .1-1.8 5.2.5 8.8z"/><path xmlns="http://www.w3.org/2000/svg" fill="#cf7653" d="M216.9 109.4h-.1a.5.5 0 0 1-.3-.5l4.7-14.4 3.6-13.1c.1-.2.3-.3.5-.3.2.1.3.3.3.5L222 94.7l-4.7 14.3c0 .3-.2.4-.4.4z"/><g xmlns="http://www.w3.org/2000/svg" fill="#a84d3b"><path d="m228.9 84.9.2.4.4-.4z"/><path d="m228.9 84.2-.3.9 1.1-.1zm5.3 3.9v1l1.1-.5zm-2.7-1.8-.1 1.1 1.1-.4zm-1.5-1.1-.2 1.1 1.2-.3z"/><path d="m228.2 83.2-.4 1h1.2zm7.5 7.2-.5-.6-.4.7zm-1.4-1.1-.6-.8-.3.9zm4.1 2.2-.7-.8-.2.9zm3 1-.7-.8-.3.9zm-5.3-3.5-.6-.3v.8zm1.4 3-.5-.5-.3.7zm-3.9-4-.6-.3-.1.8zm5.3 2.1-1-.4.1 1.2zm1.9.3-.8-.1.2 1zm1.3 1.6h-.8l.3.8zm-2.8-.2-.3-.7-.5.8zm2.4 2.3.1-.7-.8.2zm-.2 1.4.1-.8-.8.2zm-1.7-.1-.4.4.5.2zm.3-3.8-.4.3.6.3zm2.3-.8-.6-.1.2.7zm-1.9 5.8-.4.3.6.3zm-9.9-10.4-.4.3.5.3zm-3.4-4.6-.4.3.5.3zm10.1 9.4-.3-.3-.1.6zm-2.8-.8.1-.4h-.5zm1.4.9.2-.4h-.5zm2.1 2 .2.5.4-.4zm2.9-2-.3.3.4.2z"/><path d="m241.1 90.6-.5.4.6.4zm-1.2.4-.4.3.4.2zm.4 7.1-.4.3.4.2zm-1.1-1.1.2.4.3-.4zm-.1-2.4.2.4.3-.4zm1.9 1-.3-.3-.1.5zm-13.9-4.8.2.2.2-.3zm1.9-1.2-.2.2h.3zm2 3.5-.3-.1.1.4zm-1-1.7-.2.4h.4zm6.9 3.2-.1.6.6-.2zm-.9-4.5v.5l.5-.2zm0-1v.5l.6-.2zm-7.7-3.1v.6l.5-.3zm12 7.3-.5.1.4.4zm-1.5 4.2-.2-.4-.4.4zm.3-5.2.3.5.3-.5zm1.6.6.3.5.3-.5zm1-1.9-.3.4.5.2zm-.6 3.2-.4-.3v.6zm-11.3-8.9-.6.5.7.3zm-2 .8-.3-.2-.1.4zm-2-1-.2-.2-.1.4zm-.5 3.1.1-.4-.4.1z"/><path d="m229.1 86 .2.4.4-.4zm-1.2-1 .3.6.5-.5zm-.2-2.7-.4.6.8.1zm3 4.8-.3.2.4.3zm.8-.4-.3.2.3.2zm.8.4-.3.2.3.3zm-1.5 2.7-.2-.2-.1.4zm-6-3.4.2.3.3-.4zm2.3-2.3-.3.2.4.2zm-.1 3.8-.3-.2-.1.4zm.3-4.2.2.4.3-.5zm1 .6.2.4.3-.4zm-2.3-1.1-.3.3.4.1zm.3-1-.3-.2-.1.4zm5.3 5.5v.4l.5-.2zm1.9.8-.4.1.3.4zm-.8-.7-.4.1.3.3zm6.7 2.9-.4.1.3.3zm-1.5-.6-.3.1.2.3zm-4.7.7-.1-.3-.3.3zm5.6 5-.2-.3-.2.3zm-6.1-6-.2-.3-.3.3zm2.6-.6v.5l.4-.2zm1.6.4v.4l.4-.2zm1.8.9-.4.1.3.3zm-1.4 2-.2-.3-.2.4zm-4.3-.1v.5l.4-.2zm1.9-1-.3.1.2.3zm3.4.8-.1-.3-.3.3z"/></g><path xmlns="http://www.w3.org/2000/svg" fill="#ea9d7d" d="M250.4 55s2.9 4.7 3.4 6.9a20.1 20.1 0 0 1 .6 4.9c0 4.2-.3 10.1-.8 13.4-1 5.7-3.7 9.1-6.9 10.1s-9-1.1-12.9-3.1c-3.3-1.7-5.2-3.5-5.7-5.6-.5-2.2-1.5-5-1.5-5l.2-6.5 7.7-16.4 15.9 1.3z"/><linearGradient xmlns="http://www.w3.org/2000/svg" id="b" x1="241.4" x2="238.4" y1="65.8" y2="58.9" gradientUnits="userSpaceOnUse"><stop offset="0" stop-color="#bc5a32" stop-opacity="0"/><stop offset="1" stop-color="#bc5a32"/></linearGradient><path xmlns="http://www.w3.org/2000/svg" fill="url(#b)" d="M230.6 73.1s5.8-6.5 9.5-7.9c7.1-2.9 14-2.6 14-2.6l-1.1-3.5-17.7-.9-7 10.8 2.3 4.1z"/><ellipse xmlns="http://www.w3.org/2000/svg" cx="224.4" cy="75.5" fill="#ea9d7d" rx="5.3" ry="5.7"/><path xmlns="http://www.w3.org/2000/svg" fill="#b76349" d="M224.4 81.7c-3.2 0-5.8-2.8-5.8-6.1s2.6-6.1 5.8-6.1 5.8 2.8 5.8 6.1-2.6 6.1-5.8 6.1zm0-11.4c-2.7 0-4.9 2.4-4.9 5.3s2.2 5.3 4.9 5.3 4.9-2.4 4.9-5.3-2.2-5.3-4.9-5.3z"/><linearGradient xmlns="http://www.w3.org/2000/svg" id="c" x1="224.5" x2="224.8" y1="78.9" y2="73.5" gradientUnits="userSpaceOnUse"><stop offset="0" stop-color="#cc7a5e" stop-opacity="0"/><stop offset=".9" stop-color="#aa5f4b"/></linearGradient><ellipse xmlns="http://www.w3.org/2000/svg" cx="224.7" cy="75.5" fill="url(#c)" rx="2.4" ry="2.5"/><path xmlns="http://www.w3.org/2000/svg" fill="#ea9d7d" d="m230.2 71.9-1.7 1.5-.7 5.6.3 1.6s2.4-1.3 2.6-3.9-.5-4.8-.5-4.8z"/><path xmlns="http://www.w3.org/2000/svg" fill="#b76349" d="M243.4 90.8c-1.1 0-2-.2-4-.7a26.5 26.5 0 0 1-10-5.5c-2.2-2.2-2-4.3-2-4.4 0-.2 0-.5.2-.5s.3.2.4.4c.1.4.1 2.1 1.9 3.9a25.8 25.8 0 0 0 9.6 5.3c3.1.7 3.7.9 6 .7a7.8 7.8 0 0 0 3.5-1.1c.3-.2.6-.3.4 0a8 8 0 0 1-3.8 1.8l-2.2.1z"/><g xmlns="http://www.w3.org/2000/svg" fill="#f4b9a6"><path d="m243.7 75.6.7-.5-.9-.4zm-8.8-.3-.2-.5-.5.5zm11.7 1 .9.5.1-1.2zm-2.7-5.2 1.3.8.2-1.5z"/><path d="m243.9 70.4 1.3-.9-1.3-.9zm3 8.9 1.3-.8-1.3-.9zm1.3-1.6.5-1.5-1.6.1zm-4.8-2.9-.8.2.5.7zm.6-1.1-.9.2.6.7zm-.2 4.3.3.7.7-.6zm.4 1.5.7.4.2-.9zm4.1 2.4-.8.3.6.6zM245 64.8l-.3.6.9-.1zm.8 4.9-.7-.1.3.8zm.7-2.5h-.7l.3.7zm-5.8 1.5-.1.8.9-.3zm1.9-1.4-.7.5.8.4zm-3.2 1.1-.5.1.3.5zm7.5 13.5-.7.2.5.6zm-.8-.4-.7.2.5.6zm-6-4.4-.7.1.4.6zm1.7 1.3-.7.1.4.6zm-2.3-3.6-.1.7.8-.3zm3.6-.7-.2-.6-.6.5zm7.4 5.8.3-.5h-.7zm-2.9-2.1.4.1v-.4zm4.5-4.6v.5l.4-.2zm-2.1 2.3.5.1-.1-.6z"/><path d="m252.3 74 .1-.4h-.5zm-14.6-3.8-.3.4h.6zm6.5-3.2.9-.3-.7-.7zm.9 10.2 1.8-.5-1.5-1.4zm-1.4-6.7-.7-.2.2.8zm-5.2 4.8v-.7l-.8.4zm4-6.8.1.8.8-.5zm-1.1 1.5.1.8.9-.5zm1-.6v.8l.9-.5zm7.4-.9.7.3V68zm-6 4.3-.4-.5-.4.6zm3.4 8.3-.6.2.5.6zm-3.1-4.3-.2.5.7-.1zm.7 3.4-.3-.5-.3.6zm1 .6.5-.5-.7-.2zm.3-1.3.5-.4-.7-.4z"/><path d="m246 78.7.6-.4-.8-.3zm-.4-3 .5-.4-.7-.4zm-1.4.2.5.4.2-.6zm6 4.8-.6.1.5.5zM247 75l-.2.5h.7zm1.6 6.1-.4-.4-.3.6zm-3.5 2.1.1.6.6-.4zm-1.7-3.3-.6.3.5.4zm-6.3-6.7-.4-.4-.3.6zm6.7 8.2.4.2.1-.6zm-1.8-1.1.5.2v-.6zm-3.1.8-.3.5h.7zm2.1 2.2-.6-.1.2.6zm-2 .8-.6-.1.1.6zm5.6-9.4 1.2-.4-1-.9zm-.9-2.8.3.5.4-.6zm.1 1 .6 1 .8-1.1zm3.4-2-.8.8 1.2.3zm-7.4 2v-.5l-.6.3zm6.3-.4-.4.4.6.2zm-2.3-3.5.7-.2-.5-.5zm4.5 1.5.7-.2-.6-.5zm-4.8.1.7-.2-.6-.5zm4.9-3.4.7-.2-.5-.5zm-2.4-1.5-.5.3.7.3zm-5.5 2.1v-.6l-.6.3zm.8 8.8-.1.8.9-.3zm-1.1-.4-.7.1.4.7zm1.5 3.1-.1.7.8-.3zm1-3 .1.9.8-.5zm-.7 1.6.1.8.9-.5zm-.9-2.3v-.5l-.6.3zm8.9-4.8.7-.1-.5-.6zm-2.6-2.3.3.5.4-.5zm5.2 8 .6-.2-.5-.4zm-10.8-8.8v-.6l-.6.3zm4.3 1.2-.1.7.8-.3zm-.9-1.3-.1.7.8-.3zm.5 6.6 1.2.8.4-1.4zm2.9.1 1.4-.5-1-1.2zm-3.2.6.4.2-.1-.5zm-.6-2.8-.2.5h.7zm1.2-1.5-.7.1.4.7zm2.2.3-.7.1.4.7z"/><path d="m245.5 72 1.5-.9-1.6-1zm2.2-5.8.4-.7h-1zm-1.1 11.5.4-.7-1-.1zm-1.3-3.8 1.3-.8-1.4-.8zm.9-5.9.4.3.2-.5zm1.5 1.1-.7 1 1.5.1zm1-1.5-.3.5.7.1zm.7 4.4.4.4.3-.6zm-1.9-5-.3.5.7.1zm-8.9 5.9-.7.3.6.5zm1.1-2.9-.4.6h.8zm1.4-.1-.1-.5-.5.4zm-.8 3.2-.1-.5-.5.4z"/></g><g xmlns="http://www.w3.org/2000/svg" fill="#a84d3b"><path d="m243.3 61.3-.2.5h.5zm.2 1.3-.3-.4-.2.5zm3.8-.7-.3-.4-.1.5zm3.4-1 .3.3.1-.5zm1.8-.5.3.3.1-.5zm-.6.6.4-.1-.4-.4zm-7.5.9-.3-.3-.2.4zm4.6-.3-.3-.3-.1.4zm-6.3.5-.4-.3-.2.4zm-7.2-2.2V61l1-.6zm3.6.7-.2.5h.6zm-1.6.4v.5l.6-.2zm-.2 1.9-.1.5.6-.2zm-1.3-.2-.1.5.6-.2zm4.5-1.4-.4-.4-.2.5zm.3-.4.1.7.7-.5zm5.4.4.2.5.4-.5zm-3.8-.1.3.5.4-.5zm-3.6.1.2.8.7-.6zm8.8-.1.3.5.4-.5zm-3.1.1.2.7.7-.5zm-4.5.5.2.4.3-.3zm-3.4 1.6-.2.4h.5zm-.6.2-.1.5.5-.1zm3.5-2.5.2.3.2-.3zm2.2.3.2.2.2-.3zm3.8.3.1.2.2-.2zm-10 2.1-.3.1.2.3zm1.9-2.3.1.8.7-.4zm-1.6 2h-.4l.2.3z"/><path d="m235.5 63.5-.1-.5-.5.3zm2.6-1.6.4.2v-.5zm.3-.9h.4l-.2-.4zm-1.4.5v.3l.4-.1zm.9 1.2.4.1-.1-.5zm-2.4 2.2-.1.3.4-.1zm1.4-2.4-.3.1.2.3zm-2.1 1.2-.2.7.8-.2zm.1 1.2.5-.2-.5-.3zm-.8 1.3.3-.2-.3-.2zm.2-.7.5-.3-.5-.4zm-.3 1.4.2.2.2-.3zm.7-.9.5-.2-.4-.3zm-1.4 2 .4-.2-.4-.3zm3.5-7.6v.8l.8-.2zm-1.2 1.5.4.3.1-.4z"/><path d="m237.9 60.5-.1.8.9-.1zm-1.7 1 .3.3.1-.4zm4.5 1.1.4.1v-.5zm9-1.1.4.1v-.5zm-14.3 1.4.7-.2-.7-.6zm.9-2.5-.4.7.9.1zm2 3.1-.3-.1v.5zm-2.4-3.3-.4.2.4.3zm.6-.2-.1.3h.4zm-.4 1.4-.7-.3v.9zm1.3-.2h-.3l.1.4zm-1.4.7-.1.3h.4zm1.8-1.2-.5-.4-.2.7z"/></g><g xmlns="http://www.w3.org/2000/svg" fill="#964c38"><path d="M226.9 76.1v-.4l-.4.1zm-1.7-3-.4.1.3.4z"/><path d="m225.1 73.2-.5.6.9.3zm-.9-.1-.6.3.5.5zm2.6 1.5-.3.3.4.1zm-.9-.4-.3.2.4.2z"/><path d="m226.5 74.9-.2.2.4.2zm-2.2-.9-.3.3.5.1z"/><path d="m223.8 73.7-.4.5.7.2zm1.7 1.8.2.2.1-.3zm1.1-1.2-.1.2h.3zm.2.9-.1.3h.3zm-3.6-1.6-.4.4.6.2zm.8 1.5h-.2l.1.3zm.6.9-.1-.3-.2.2zm.8-2.4.2-.3-.3-.2zm-1.2-.1-.3.3.4.1zm-.5.3-.3-.1v.3zm0 0v-.3l-.3.1zm2.4.4.2.3.2-.3zm-.4-.8-.1.6.7-.2z"/><path d="m225.4 73.8.3.3.1-.4zm-2.4 1-.2.2.3.1zm1.8-1.7-.3-.1.1.4zm-.6 1.8.2.3.2-.4zm.8 1.3-.1.2.3.1zm-2.1-2.1-.2.2.4.1z"/><path d="m223.8 76.2-.3-.1.1.3zm-1.1-1.6h.3l-.2-.3z"/><path d="M222.4 75.7h.2l-.1-.3zm.2-1h.2l-.1-.3zm.7-.3v.3l.3-.2zm-1 .9h.4l-.2-.4zm.6.1v.2l.3-.2zm2-1.2-.3.1.3.2zm1.4 1.4.1.4.3-.2zm-2-2.2.1.4.3-.2zm1 1.1-.2-.2-.1.3z"/></g><g xmlns="http://www.w3.org/2000/svg" fill="#4f2b23"><circle cx="241.8" cy="71.9" r="1.4"/><circle cx="252.2" cy="71.1" r="1.4"/></g><path xmlns="http://www.w3.org/2000/svg" fill="#b4603f" d="M247.6 80.4c-.3 0-.6-.2-.7-.6s.2-.8.6-.8c0 0 1.1-.2 1.2-1.1s-.8-3.4-1.3-4.7c-.2-.4 0-.8.4-.9.4-.2.8 0 .9.4.2.4 1.5 3.8 1.4 5.4-.1 1.5-1.5 2.3-2.3 2.4l-.2-.1z"/><path xmlns="http://www.w3.org/2000/svg" fill="#321011" d="M235.7 60.1s-.2 3.6-2.2 6.8-2.2 3.2-2.1 4.3l-.2 5c-.1 1.4-1.5 1.3-2 1.3l-.8-4.8s-.4-3.5-4.8-3.2c-3.2.2-4.4 3.4-4.4 3.4s-2.2-8.7-2.9-10.7c-1.1-3.4.7-5.4 2.3-6.7 1.6-1.2 3.2-1.1 3.2-1.1s-.7-5 4.8-7.6c2.7-1.3 4.9-1 7.1-1.1s4.3-.4 6.1-.4c4.4.2 5.7 2.7 5.7 2.7s8.6-3.7 12.1.9c3.5 4.5-.4 9.9-5.3 11.3a31.4 31.4 0 0 1-16.6-.1z"/><path xmlns="http://www.w3.org/2000/svg" fill="#cf7653" d="M244.2 84.5a6.1 6.1 0 0 1-5.8-4.4c-.1-.4.1-.8.5-.9s.8.1.9.5a4.6 4.6 0 0 0 4.4 3.3c.4 0 .7.4.7.7 0 .5-.3.8-.7.8z"/><g xmlns="http://www.w3.org/2000/svg" fill="#633535"><path d="m249.4 47.1-.1.6.7.3.6-1.1zm4.8 5-.4-.2v.6zm4.3 2.1-.4-.2v.6zm-5-1v-.5l-.5.2zm-1-5.8-.4.8.9.1zm3.6 5.1-.4.4.6.2zm-7.1-5.3-.9.2.7.9zm-1.4.3-.8.5.8.6z"/><path d="m241.5 45.8.2 1.2 1.1-.8-.7-.2zm-11.4.2.6 1 .8-1zm13.9.8-.2 1 .9-.4zm13.1 1.9-.8-.3.1 1zm-4.7.9v-1.7l-1.3.7zm1.9-.5-1-1.4-.7 1.4zm1.2.7v-.9l-.9.3zm.6.9.6.9.6-1zm1-2-.4 1.3h1.4zm-1.4 2.7-.3.4.5.2zm-7.3-.2-.2.4.5.1zm3.3 1.3-.3.4.5.1zm-11.7-6-.7 1.1 1.4.3zm-3.8 0-.1.7.7-.2zm-8.9.8-.1.8.9-.2zm1.1.4v.9l.8-.3zm-1.6 1.1 1.3.6.1-1.5zm3.3-1-1 .6 1 .8zm-4.5.8 1.2.2-.3-1.3zm16.9-.7-.3.4.6.1zm-4.7-1.2-.2.4.5.1zm1.3.6.1-.6-.7.2zm17.2 3.8-.4.3.5.2zm2.2 1.8-.4.4.5.2zm-1.6 1.3.2.4.3-.4zm1-1.6.2.4.3-.4zm.1.9-.4-.3-.1.6zm-8.8.2.4.2v-.4zm-1.6-3.2-.1.3.4-.1zm3.3 3-.3-.1.2.4zm-1.6-1.4-.1.3.5-.1zm3.8 2.7h-.3l.2.3zm1.3 2.7-.1-.3-.3.2zm1.1-4.4.1.6.6-.4zm.1-5.5-.1 1.1 1.1-.6zm-7.7 1.2.2.6.5-.5zm10.6 2-.6.6.8.4zm-2.6 3.7-.3-.3-.3.4z"/><path d="m257.4 50.3.4.5.3-.7zm.1 1.3.3.5.3-.7zm-.2-.6.4.4.2-.6zm-3 .8-.2.5h.5zm1.4.7-.5-.2.1.6zm-10.8-4.8-.2.4.5.1zm3.4.3-.4-.1.1.5zm-5.4-.8-.8-.2.1.9zm-3.5.6-.8-.3.2.9zm2-.9-.7-.3.1.9zm-2.5-.3-.8-.3.1.9zm-1.2-.2.1-.8-.8.3zm-2.9-.2-.8-.3.1.9zm1.4.1-.7-.3.1.9zm-6.5.4-.9-.3.1 1.1zm-1.5 1 .3-.9-1.1.1zm4.2-1.5-.7-.2.1.9zm-2.9.8.9.5.1-1.3z"/><path d="m228.9 47.6 1 .5.1-1.2zm1.1.2.6.9.6-1.2zm13.4-.4v-.9l-.9.3zm-5.4-1.8.6.9.6-.9zm-1.9.2.6.9.5-1zm-1.5.1.6.9.6-1zm-8.6 1.4.9.6.1-1.1zm20.9 2.1.3.4.3-.5zm2.2-.3.3.3.2-.5z"/><path d="m249 47.6-.8 1 1.4.5zm-2.4.3-.7.2.5.6zM229.9 46l-.7.2.4.6zm-2.2.6-.7.2.5.6zm-1.6.6-.6.4.6.4zm23.5 2.8-.4-.1v.4zm-.3 1.2.3.4.2-.6zm-7.2-1.5-.2.4h.5zm2.2-1.4-.4-.1.1.4zm-1.4-.6.4.4.1-.6zm-5.9-1.1.4.4.1-.6zm5.3 2.2-.2.3h.5zm-9.2 5.2-.2.4h.5zm7.6-8.3-.4.9h1.1zm.7 3.8-.4-.1.1.5zm-.1-1 .4-.1-.3-.4zm-2.4.9.5-.1-.4-.5zm1-3 .3-.8h-.9z"/><path d="m238.7 50.1.2.3.3-.3zm1-3.4.1-.7-.8.2zm-6.3 0 .1-.7-.8.1zm-4.7.3.1-.8-.9.3zm14.3 2.4.2.4.3-.3zm-2.2.9-.3.3.4.2zm-6.5 4.9-.3.2.3.3zm5.8-3.6-.3.3.4.2zm9.5-3.6.3.9.7-.1v-.6zm3-1.1h-.9l-.1.5.4.5zm-1.2 0-.8.6.3.5.6.1zm.8 3.1-.6-.6-.3.9zm2 3-.2-.3-.2.4zm-2.8-3.7-.3-.2-.1.4zm3.1-2.1v1.1h.7l.1-.8zm-1.7 3.6.1.5.5-.4z"/><path d="m253.1 46.9-.3.5.7.3.6-.6zm2 3.9.1.9.5-.8zm-1.2 4.3v.5l.5-.4zm-1.2-1.5-.3.2.3.2zm3.5-4.5-.3-.2-.1.4zm-.2 1.6-.3-.3-.2.4zm-1.2 1.7-.4.4.5.2zm-1.1-4.8.3.7.5-.7zm2.8 8.3v.6l.6-.4zm-.4-2.3.3.5.4-.6zm.9-1.4.3.4.3-.6zm-.2 3.1-.2-.3-.3.4zm1-.9-.2-.3-.2.4zm-5.2-2.4.1.5.4-.4zm1.9-2.3-.6.4.7.5zm.1 4.1-.3-.3-.1.4zm2.1-3.7-.3-.3-.2.4zm-2.3-.9-.8-.1.3 1zm.7-.7-.9-.2.3.8zm-4.4 2.3-.1-.5-.4.3zm-.6-1.8-.6 1 1.2.2zm-.5-.1-.1.3h.4zm1.7 1.6v.4l.3-.2zm.4-2.4-.8.1-.1.5.4.1zm1 1.1-.1-.4-.4.3zm-.2 1.5-.1-.4-.4.3z"/><path d="m252.3 49.2.3.5.3-.6zm2.6 1 1.2.3v-1zm-1.6.3.9 1 .5-.9zm-5.6-.7.5.2v-.6zm-3-.2.5.3v-.7zm5.7-.5.7 1 .6-1.1zm4.2.2-.3.3.4.1zm-.8.5-.9-.4.2 1z"/><path d="m254.8 51-.3-.2v.5zm-3 .6-.3.3.4.1zm3.4-1.4-.3-.2v.5zm-1.3.8-.3.4.5.1zm2.5 1.3.1.5.5-.3zm.8.4.1.4.4-.3zm.8-.8-.4.2.3.3zm-.8-.2-.2-.3-.2.5zm.3 2-.3-.3-.1.5zm1.3-1.5-.3-.3-.1.5zm-7.7-.7-.3-.3-.2.4zm-12.8.3v-.5l-.5.2zm-5.9-5.7-.8.5.8.6zm6.1 1.7v-.9l-.9.4zm-5.4 2.8-.5.8.9.2zm3.2.1-.4.6.8.1zm-2.3 1.6.4.2v-.4zm-2.6-1.8-.1.3.4-.1zm4.3 1.6-.3-.1.2.4zm-1.6-1.1-.1.6.7-.2zm3.8 2.4h-.3l.2.3zm-8-4.4.3 1 .8-.8zm.8 3.7.5.6.3-.8zm3.1-6.5-.8 1 1.3.4.1-.7zm-.3 1.6-.6.7.9.3.1-.7zm.6 1.1h-.8l-.5.3.7 1.2z"/><path d="m230.1 53-.5.8h1zm3.5-5.9-1.6.5 1.1 1zm-1.7-.2-.6.1-.5.4 1 .7zm5.6 0-1.2.2.7 1.3z"/><path d="m238.4 47.5-1.3.3.8 1.2z"/><path d="m238.3 49-.8-.5-.2 1.1zm-6 .5-1.1-.6-.3.7.1.7zm-.8.9-1.1-.1.4 1.2zm-1.7-1.1-1.1-.7-.2 1.4zm7.1.8v-1l-1.1.4zm-1.9.9.7-.7-1-.4zm.2 2.8.5-.5-.8-.3zm-5.5-.8.7-.6-.9-.4z"/><path d="m228.4 54.9.5-.5-.7-.3zm5-1.7.7.2v-.8zm1.1-2.6-.6-.8-.6 1zm-1.3-2.6-1.3.2.8 1.2zm2.8-1-1.2.2.7 1.2zm.4 1.5-1.2.2.7 1.2zm-1.4.4-.6.6.9.3zm-1.7 3.4-.3-.1v.4z"/><path d="m232.3 51.5-.8-.4.1 1zm1.8-1.7.3.4.2-.6zm.5-3 .2.5.4-.4zm2.4 1.8-.6-.6-.3.9zm-3.7 1h-.8l.3.8zm-.7.4-.8-.1.4.9zm.1 2.6h-.8l.4.8zm-2.2-3h-.9l.4.9zm5.7-1.7-.3-.3-.1.5zm2.6 3 .1.5.4-.4zm-1.3 1.3-.3.2.3.2zm-.1-1.6.1.4.4-.4zm-1.9-1.2-.1-.5-.5.3zm-.6-1.8-.7.5.1.5 1.2.2zm-.5-.1-.1.3.3-.1zm1.7 1.6v.4l.3-.2z"/><path d="M235.2 51.3v.4l.3-.1zm1.2-4.3-.4-.1v.5zm4.1 1.5-.1-.5-.4.4zm-.3 1.4-.1-.4-.4.3zm-8.3 4.5-.1-.4-.5.3zm7.2-6.5.3.6.4-.6zm-8.5.7.9.4v-1.1zm5-.7.3.5.2-.5zM240 49l-.4-.2v.4zm-8.6 6.4-.4-.3v.5zm5.2-5.2-.3.3.4.1zm-.7-.1-.3-.3-.2.4zM216 59.3l1.5-.1-.8-1.5zm13.7-5.2-.4.3.5.2zm-3-1.9-.9.7 1.2.5zm.5 3.8-.3-.3-.2.5zm.2-1.3-.5-.4-.2.7zm-8 2.4.4 1 .8-.8zm6.7-7.1.4.9.8-.8zm1.7-.5.3.5.4-.4zm.4 1.2.2.5.5-.5zm-11.5 12.7.4 1.6 1.1-.9zm.4 1.7.4 1.3.7-1.1zm2.6-.6.2.5.4-.4zm-1.4.4.2.6.5-.5zm3.5-11.3v.9l.9-.5zm-.5 3.5-.4-.3-.1.6zm.1.9-.7-.5-.3.8zm3.7-3.8.9-.1-.5-.9zm.1 1 .2.5.3-.4zm-5.3 7.1.2.4.4-.3zm1.8 1.4h-.4l.3.5z"/><path d="m217.5 64.1.3 1 .8-.8zm1.9 1.9.2.4.4-.4zm9.3-16 .4 1.3 1.1-1.1zm-1.7 1.9 1.3-.1-.7-1.2zm-2.3-1.4 1-.1-.5-1zm3.2-.6-.7.4.9.5zm-8.3 14.9.3-.1-.3-.3zm-.7-2.2.2.2.1-.3zm4.3-1.1-.2.3.3.1zm-1.5 4-.2.3.4.1zm-1 1.7-.1.2.3.1zm.4-5.1.3.2.1-.4zm-1.4 1.2.4.4.3-.6zm3.7-2.5-.1.2h.3zm5-8.6-.5-.1.1.6zm-3.7.8.5.1-.1-.6z"/><path d="m221 54.7.5.8.6-.9zm-3.2 6.6.6.2-.1-.6zm-1.2.1.8.3-.1-1zM216 60l.9.3-.1-1zm7.7-9v.5l.5-.2zm-.6.1v.5l.5-.2zm6 .3-1 .2.7 1zm-.1 1.5-.8.2.5.8z"/><path d="m238.5 49.5-.9.2.6.7zm-14.9 1.4.2-.9-1 .3zm.6 1-.8-.4v1zm-1-.6-.5-.8-.5 1z"/><path d="m223 52.5.1-1-1 .3zm2.5-2.2.6-.2-.4-.5zm-.8.1-.9.1.5.8zm-1.4-.8.3.5.4-.6zm3.4-1-.8.9 1.3.5zm-7.6 16.6.2.5.4-.4zm-1.3-4-.3.3.3.2zm.8 5.7-.3.2.4.2zm.3-.7-.3-.3-.1.5zm-1.6-2.7 1.1-.1-.6-1.1zm1.4-3h.5l-.3-.5zm-2.8-.1.2 1 1-.7zm2.5 2.8.2.7.6-.5zm-.5-3.7-.7.4.8.6zm1.8 1.4-.7.5.8.5zm-.5-3.5-.7.4.8.6z"/><path d="m216.5 63.2 1.2-.9-1.6-.7zm1 3.3.3 1.3 1.2-.9zm1.6-2.5-.5.5.7.3zm-1 2.3.7-.2-.5-.7zm1.9-.6.2.3.3-.3zm-.7 1.3-.3.3.4.2zm3-10.8-.2.5.6.1zm-1.1-.7-.3.5.6.1z"/><path d="m219.2 56-.5.9 1.2.1zm3-1.5-.2.4.5.1zm-1.1 2.5-.3.4.6.1zm.9-.6.4.1v-.4zm-4 5.8.7.4v-1zm1.3-2.5.3.2v-.4zm5.1-6.2.3.2v-.4zm-1.2.7.3.2V54zm-.7-.5.5.2.1-.7zm-3.4 4.9.3.2v-.4zm2.3-2.3-.2.4.5.1zm-.7.3v-.7l-.8.3zm-1.1-.5v-1l-1 .6zm2.5-.4h-.3l.1.4zm-.5 1.6-.2.3h.5zm-1.5.3-.3-.1.1.4zm-.7 10.5.2-.4h-.5zm-.4 2.2.1-.4h-.4zm-.3-1.5.1-.3h-.4zm.6 2.1.4.1-.1-.4zm0-1.2.3-.4-.5-.1zm.8-.8.3-.4-.5-.1z"/><path d="m218 68 .7.3-.1-.8zm.5.8-.1 1 1.1-.4zm.5 1.6v.3l.4-.1zm-.8-11 .7.2-.1-1z"/><path d="M217.2 57v1l1-.4zm1.4 1.4v.4l.4-.2zm-.8-.1-.1.7.8-.3zm3.8-.1-.7.1.5.7zm5.3-6.8-.8.1.6.8zm-1.4-.1h.5l-.3-.4zm-.9-2.8 1 .3-.2-1.2zm-.1 2.8.2.8.7-.6z"/><path d="m223.5 49.3 1 .3-.1-1.2zm-1.7 4 1-.3-.8-.9zm4.1-1.3-.5.1.4.4zm.1 2.5-.3.1.2.4zm-5.7 4.3-.4.1.3.4zm-.4-3.8.6.7.4-1zm4.6-5.8.9.2-.1-.9zm-7.1 7.5 1.2.4-.1-1.3zm5.1 2.5.4.2v-.6zm4.9-5.4.5.2-.1-.5zm-4.2-.3.5.4.2-.7zm.5-1.2-.1.7.7-.2zm-1.1.2.5.5.2-.7zm-.5.9.5.5.2-.7zm.9 1.4-.3.1.2.4zm1.7-.1h-.4l.3.4z"/><path d="m223.1 59.4.4.1V59zm-.7-1.3v.4l.5-.2zm-1.9.2-.4-.3-.2.5zm1.3 2 .3.4.3-.4zm-1.7-1.7-.2.5.6.1z"/><path d="m219.8 58.7.4.2v-.4zm-.2.9-.2.6h.7zm.5 1.3.4.2v-.6zm1.5-1.8.4.1v-.5zm-.7 2.6.5.2-.1-.5zm-.5-2.3v.4l.4-.1zm10.3-8.4-1 .2.6.9zm-6.2 2.8-.4.1.3.3zm-2.8 6.5-.3.1.2.4z"/></g><path xmlns="http://www.w3.org/2000/svg" fill="#4f2b23" d="M237.9 68.6c-.6-.4-.7-1.2-.4-1.6.1-.1 1.7-2.4 5.3-2.1.4 0 1.1.2 1.1 1.2 0 .6-.4.9-.8.9-2.7-.2-3.8 1.5-3.9 1.6-.3.2-.9.3-1.3 0zm15.3-2.1-.4-.1c-.8-.6-2-.2-2.1-.2-.4.1-.8-.1-.9-.4-.3-.8.2-1.3.5-1.4.1 0 1.9-.6 3.3.4.3.2.6.8.1 1.5l-.5.2z"/><linearGradient xmlns="http://www.w3.org/2000/svg" id="d" x1="169.6" x2="169.6" y1="106.8" y2="106.8" gradientUnits="userSpaceOnUse"><stop offset="0" stop-color="#997ebd"/><stop offset=".4" stop-color="#7c59aa"/><stop offset="1" stop-color="#6629c8"/></linearGradient><path xmlns="http://www.w3.org/2000/svg" fill="url(#d)" d="M169.6 106.8z"/><path xmlns="http://www.w3.org/2000/svg" fill="#ea9d7d" d="m198.7 398.3 5.3-28.2 28.2 6.8-5.9 35.7z"/><path xmlns="http://www.w3.org/2000/svg" fill="#cc7a5e" d="M200.4 390.5c-.2-.1-.2-.3-.2-.4l3.2-17.3c.1-.2.3-.4.5-.3.2 0 .4.3.3.5l-3.2 17.3c-.1.2-.3.4-.5.3l-.1-.1z"/><linearGradient xmlns="http://www.w3.org/2000/svg" id="e" x1="213.9" x2="216.2" y1="394.3" y2="385.4" gradientUnits="userSpaceOnUse"><stop offset="0" stop-color="#cc7a5e" stop-opacity="0"/><stop offset=".9" stop-color="#aa5f4b"/></linearGradient><path xmlns="http://www.w3.org/2000/svg" fill="url(#e)" d="M212.3 393.9c11.1 3.2 17.2.1 17.2.1l2.6-13.9-28.5-6.4-3 14.6c0-.1 3.7 3.2 11.7 5.6z"/><g xmlns="http://www.w3.org/2000/svg" fill="#ad5c49"><path d="m201.4 387.5-.1.9.8-.3zm10.6.8 1 .2-.3-1zm-9.3-2.5.8 2.2 1.2-1.9zm11.3 2.9.8.2-.2-.8zm-5.5-.4.7-.2-.5-.5zm-6 1.4.2-.1-1.5-.9-.2 1.4 1.2-.3.4.8.7-.7zm2.4.3.9-1.1h-1.5zm-2.5-1.6 1.3 1.3.2-1.6zm4.5.5 1.4-.3-1.1-.8zm-1.7 2.3.9-1.1h-1.4zm-1.4.8 1.3-.7-1.4-.6zm8-4.7-1.3-.1.5 1.3zm-1.4-.2-1.3-.2.5 1.3zm-1.6-.3-1.3-.2.5 1.3zm-2.2-.2-1.9.2.6 1.8zm9.9 2.7.4-.6-.9-.1z"/><path d="m212 390.5.4-.6-.9-.1zm-5.1 1.8.5-.7-1-.1zm1.8-1.7 1.3-.2-1-1.1zm-4.3-.5-1.3-.5.1 1.2zm-2.9-2.9 1.2-.1-.9-1.2z"/></g><path xmlns="http://www.w3.org/2000/svg" fill="#73b7e5" d="M167.9 242.6s28.4 53.3 30.1 69.4c2.5 23.1-.7 65.7-1.3 73.4-.1.7.4 1.3 1.1 1.3l38.1 3.6s16.7-66.9 20.2-92.7c1.8-13.4-28-82.9-28-82.9l-60.2 27.9z"/><g xmlns="http://www.w3.org/2000/svg" fill="#d2ebff"><path d="m197.5 373.7.1-1 41 4.2v1z"/><path d="m215.2 374.8-1-.1c.1-.5 7.8-54.7 7.8-65.5 0-12.3-17-59.7-17.1-60.2l.9-.3c.7 2 17.2 48.1 17.2 60.5 0 10.8-7.8 65-7.8 65.6z"/></g><linearGradient xmlns="http://www.w3.org/2000/svg" id="f" x1="197.8" x2="217.6" y1="335.3" y2="249.3" gradientUnits="userSpaceOnUse"><stop offset="0" stop-color="#093f5c" stop-opacity="0"/><stop offset="1" stop-color="#094193"/></linearGradient><path xmlns="http://www.w3.org/2000/svg" fill="url(#f)" d="M167.9 243.3s17.1 30.6 23.1 49.2 8.9 25.3 8.2 35 43.2 35 43.2 35 12.4-51.7 13.6-65-28-82.9-28-82.9l-60.1 28.7z"/><path xmlns="http://www.w3.org/2000/svg" fill="#595959" d="m176.7 269.6 10-4.1 10.5 25.3-10 4.1z"/><path xmlns="http://www.w3.org/2000/svg" fill="#fff" d="M229.2 393.3c-2.1.4-6.4 1-13 1.5-7.3.6-13.4-.2-16.5-.8l.4 11.2s1 1.6 14 1.5 15.8-4 15.8-4l-.7-9.4z"/><path xmlns="http://www.w3.org/2000/svg" fill="#10646c" d="m229.4 395.6-.1-4.4s-5.6 1.6-14.2 1.9c-8.1.4-15.5-.8-15.5-.8l.2 4c3.1.5 9.2 1.3 16.5.8 6.8-.6 11-1.1 13.1-1.5z"/><g xmlns="http://www.w3.org/2000/svg" fill="#fed6d6"><path d="M267.6 423.8v-3.1l-71.5-6.1-.2 4.3c.1.9.7 1.6 1.7 1.7l67.2 5.8c1.4 0 2.7-1.1 2.8-2.6z"/><path d="M267.5 419.5c-.6-3.3-8-9.3-13.2-11.9l-1.6-.8-4.2 12.3 19.2 1.6c-.2-.4-.2-.8-.2-1.2z"/></g><path xmlns="http://www.w3.org/2000/svg" fill="#ad203a" d="m244.8 401.7-4.3 6.7c-.3.5-1 .7-1.6.6l-.4-.2c-.6-.5-.7-1.3-.2-1.9l4.3-6.7-2.5-1.8-5.7 7.1c-.3.4-.9.6-1.4.4a.6.6 0 0 1-.5-.3c-.6-.5-.5-1.4-.1-1.9l5.5-6.8-1.9-1.4-.7-6.7c-.1-.7-.7-1.2-1.3-1.1-1 0-2.4.6-3.2 3.3-1.3 4.6-.7 7.9-.7 7.9s-6.6 4.9-15.2 5.3c-7.2.3-12.8-2-15.9-4.3-.7-.6-1.9-.2-2.1.8-.5 2-.9 4.7-.8 8.4 0 1.9.2 3.9.3 5.6l52.3 4.5 4.2-12.3a98.7 98.7 0 0 1-8.1-5.2z"/><path xmlns="http://www.w3.org/2000/svg" fill="#fff8f8" d="m232.4 405.7.4.2c.6.1 1.1 0 1.4-.4l5.7-7.1-2.2-1.5-5.5 6.9c-.5.6-.3 1.4.2 1.9zm6.2 3.1.4.2c.6.1 1.2 0 1.6-.6l4.3-6.7-2.2-1.5-4.3 6.8c-.7.6-.4 1.4.2 1.8z"/><g xmlns="http://www.w3.org/2000/svg" fill="#442624"><path d="M196.2 415.2v-1.4l71.4 6 .2 1.5-71.6-6.1z"/><path d="m249.1 419.2-1.3-.4 4.2-12.5 1.2.8-4.1 12.1z"/></g><g xmlns="http://www.w3.org/2000/svg" fill="#dd5472"><path d="m240.4 410.6.9-.1-.6-.8-.3.9zm5.3 0-1.2-.2.3 1.4.9-1.2zM235 389.2l-1.2-.8-.3 1.7 1.5-.9zm-1.2 5.7-.2 1.6 1.4-.9-1.2-.7zm16 10.5.2-.1-1-.7-.2 1.4.7-.4-.2 1.5 1.4-.9-.9-.8zm-21-5.6-1.3.6 1.2 1.1.1-1.7zm2.8-.6-1.5-.2.5 1.6 1-1.4zm8.7 2.3-1.4-.3.4 1.7 1-1.4zm-1 3.4 1.1-1.4-1.4-.3.3 1.7zm10 7.4.9-1.1-1.2-.2.3 1.3zm-4.3-10.4-1.1 1 1.5.6-.4-1.6zm-16.7-.1-1.5-.9-.1 1.5 1.6-.6z"/><path d="m225.4 403.1 1.6-.6-1.5-.9-.1 1.5zm-3.7 3.6 1.5-.6-1.5-.9v1.5zm16.8-5.6-1.1 1.1 1.5.6-.4-1.7zm-18.3 2.5-.1 1.1-.8 1.1 1.6.4-.5-1.1 1.2-.5-1.4-1zm-8.8 2.7 1.3-.5-1.2-.7-.1 1.2zm10.5-3.3-.1 1.2 1.3-.5-1.2-.7zm-16.5 2.5 1.3-.5-1.2-.7-.1 1.2zm-2.8-3.6v1.2l1.2-.5-1.2-.7zm6.4 3.2-1.2-.7v1.3l1.2-.6zm-9.6-4.8v1.3l1.3-.5-1.3-.8zm48.5 5.1-.9.9 1.3.5-.4-1.4zm-1.2-2.4-1.1-.5-.1 1.4 1.2-.9zm-.1 2.7-1.4-.3.4 1.7 1-1.4zm-5.5 9.5-.5.2-.2-.4-.2.7.3-.1.5.2.1-.6zm3.7-11.1-1.2-.2.3 1 .9-.8zm.2.5.9.5-.1-1-.8.5zm3 4.4.9-.4-.7-.6-.2 1zm-45.1-1.5 1.1-.3-1-.7-.1 1zm6.2-.8.2-.9-.8.1.6.8zm-8.1-2.2 1 .2-.3-.8-.7.6zm30.4-4.2 1.1-.1-.8-.9-.3 1zm-4.8 6.2.8-.8-1.2-.2.4 1zm6.9-5.9 1.1-.1-.8-.9-.3 1zm7 .3.6-.8-.8-.2.2 1zm-5.6-1.4.6-.8-.8-.2.2 1zm-.7 6.8.9.4-.1-.8-.8.4zm-.6-8.7-.7.5.9.3-.2-.8zm-5 13.5.9.2-.2-1.2-.7 1zm0-6 .8-.4-.9-.5.1.9zm6 4.3.6.8.2-.9-.8.1zm-3.3-2.8.9.2-.3-1.2-.6 1zm-.7-2.3-.7.9.9.2-.2-1.1zm-13-.6-.6 1.1 1 .1-.4-1.2zm13.8 0 .5-.7h.1l-.1-.1.4-.6h-.6l-.2-1-1.1 1 .3.1.7 1.3zm4.1-9.1-.3-2.1-1.5 1.1 1.8 1zm-31.8 9.3-.8.3.7.7.1-1zm11.3.5h-1l.6.7.4-.7zm9.2 3 .8.1-.4-.9-.4.8zm-4.1-3.8-.9.1.7.8.2-.9zm7.4 1.2.3-.8-.9.1.6.7zm-14.4-.5.1.7.6-.4-.7-.3zm15-1.1.5.4.2-.8-.7.4zm1.7-4.1-.2.5h.6l-.4-.5zm2.8-2.1.1.6.3-.5-.4-.1zm10.7 9.1-.7.3.6.4.1-.7zm-7.9 2.2.5-.1-.4-.5-.1.6zm2.8-5.1-.6-.1.2.5.4-.4zm5.5 11.3.6.4.1-.7-.7.3zm-1.1-3.4.4-.5h-.6l.2.5zm7.6-3-.7.3.6.4.1-.7zm-3.7 1.5-.4-.5-.1.6h-.2l.2 1 .6-.5-.6-.4.5-.2zm2.3-5.1h-.6l.3.5.3-.5zm-27.4 6.1.5-.3-.6-.3.1.6zm5.6-.9.4.5.1-.7-.5.2zm8.7 3.3.6-.7-1-.4.4 1.1zm-5.9-3.2.8.4.1-1-.9.6zm7.1-4.1-.1.9.9-.2-.8-.7zm-24.4 1.9.7.6.1-.9-.8.3zm-2.6-.4.7.6.1-.9-.8.3zm-2.6-.7.7-.1-.4-.7-.3.8zm2.4-2.1.2.7.5-.6-.7-.1zm9.2 2.2-.1.7.8-.2-.7-.5zm-19.3-2.5.5-.6-.9-.3.4.9zm29.9-1.5 1-1-1.5-.6.5 1.6zm-8.4 6 .4.9.6-.7-1-.2zm4.4-3.8-.8-.3.3 1 .5-.7zm-8 1.2 1.3.7.1-1.7-1.4 1zm-10.7-1.2 1.1-1.3-1.4-.4.3 1.7zm-2.5-.6 1.1-1.2-1.4-.4.3 1.6zm-3.1-2.9-.1 1.6 1.4-1-1.3-.6zm9 3.7 1.2.7.1-1.7-1.3 1zm-13.3-3.4 1.3.7.1-1.6-1.4.9zm19.8 9.6.6-.1-.5-.4-.1.5zm17.2-19 .8-.8-1.2-.5.4 1.3zm-16.3 15.1-.9.6.9.5v-1.1zm1.2 1.2 1-.1-.8-.8-.2.9zm25.9-3.1h-.2v-.1.1l-.6.1.2.4-.1.2h.3l.3.4.1-.4h.3l-.2-.4-.1-.3zm1.7 6.2h.9l-.3-.8-.6.8zm-7.2-1 .7-.6-.8-.4.1 1zm2.9-10.5-1 .2.6 1 .4-1.2zm-4.8 4.5-.8-.4.2 1 .6-.6zm5.6 4.1.9.2-.2-1.2-.7 1zm-2.1-9.3-.8-.4v.9l.8-.5zm5.3 4.3.4.5.6 1 .1-.5 1.1.4-.4-1.4-.5.6.1-.3-.6.1.2-.7-1 .3zm3.7 5.6-.6.7 1 .1-.4-.8zm-8.2-1.3.2 1 .6-.5-.8-.5zm4.3 0h1.2l-.8-.9-.4.9zm4.8.8.6-.7-.8-.2.2.9zm-6.3 4.8.9.4-.1-.8-.8.4zm7.5-7.3-.9-.4v1.2l.9-.8zm-54.1-5.7 1.2-.5-1.4-.4.2.9zm39.1-2.7-1.3-2.3-1.2 1.9 2.5.4zm-20.4 6.2-1.6 1.7v-.1l-1.4 1 1.3.7.1-1.4 1.9.6-.3-2.5zm9.1-.6-2.4-.8.3 2.2 2.1-1.4z"/></g><linearGradient xmlns="http://www.w3.org/2000/svg" id="g" x1="186.4" x2="183.5" y1="283.1" y2="266.8" gradientUnits="userSpaceOnUse"><stop offset="0" stop-color="#151e28" stop-opacity="0"/><stop offset="1" stop-color="#151e28"/></linearGradient><path xmlns="http://www.w3.org/2000/svg" fill="url(#g)" d="m183.1 284.5-6.3-14.8 9.9-4.2 6.6 16.1z"/><g xmlns="http://www.w3.org/2000/svg" fill="#595959"><path d="m401.4 458.1-6.9-73.8 6.9-74.3 1.5.2-6.9 74.2 6.9 73.5zm-18.8 3.3-1.5-.2 7-76.8-7-70.9 1.5-.2 7 71.2z"/><path d="m467.6 396.6-74.3-6.9-73.5 6.9-.1-1.5 73.7-6.9 74.3 6.9zm-74.3-13.3-77-6.9.1-1.5 76.9 6.9 70.9-6.9.2 1.5z"/><path d="m348.6 444.5-1.2-1 47.3-57.1 57.4-47.6 1 1.2-57.3 47.5zm-16.8-11.9-1-1.2 59.3-49.4 45.2-55.1 1.2 1-45.4 55.2z"/><path d="m449.8 430.6-57.1-47.2-47.6-57.5 1.2-1 47.6 57.5 56.9 47zm-12.1 16.6-49.4-59.3-55.1-45.2 1-1.2 55.2 45.4 49.5 59.3z"/></g><circle xmlns="http://www.w3.org/2000/svg" cx="392" cy="385" r="10.4" fill="#283749"/><use xmlns="http://www.w3.org/2000/svg" xmlns:xlink="http://www.w3.org/1999/xlink" xlink:href="#h" fill="#333"/><use xmlns="http://www.w3.org/2000/svg" xmlns:xlink="http://www.w3.org/1999/xlink" xlink:href="#i" fill="#71b9ea"/><g xmlns="http://www.w3.org/2000/svg" fill="#595959"><path d="m124.4 458.1-6.9-73.8 6.9-74.3 1.5.2-6.9 74.2 6.9 73.5zm-18.8 3.3-1.5-.2 7-76.8-7-70.9 1.5-.2 7 71.2z"/><path d="m190.6 396.6-74.2-6.9-73.6 6.9-.1-1.5 73.7-6.9 74.3 6.9zm-74.2-13.3h-.1l-77-6.9.1-1.5 77 6.9 70.9-6.9.1 1.5z"/><path d="m71.7 444.5-1.2-1 47.3-57.1 57.4-47.6 1 1.2-57.4 47.5zm-16.8-11.9-1-1.2 59.2-49.4 45.3-55.1 1.2 1-45.4 55.2z"/><path d="m172.9 430.6-57.1-47.2-47.6-57.5 1.2-1 47.5 57.5 57 47zm-12.1 16.6-49.5-59.3-55-45.2 1-1.2 55.2 45.4 49.5 59.3z"/></g><circle xmlns="http://www.w3.org/2000/svg" cx="115.1" cy="385" r="10.4" fill="#283749"/><use xmlns="http://www.w3.org/2000/svg" xmlns:xlink="http://www.w3.org/1999/xlink" xlink:href="#h" x="-276.9" fill="#333"/><use xmlns="http://www.w3.org/2000/svg" xmlns:xlink="http://www.w3.org/1999/xlink" xlink:href="#i" x="-276.9" fill="#71b9ea"/><path xmlns="http://www.w3.org/2000/svg" fill="#7c59aa" d="M200.8 270h-16.5s-21 6.2-27.8 7c-5 .6-12.5-2.4-12.5-9.8V263c0-8.4 7.7-10.4 12.5-10.4h44.3a8.7 8.7 0 0 1 8.7 8.7 8.7 8.7 0 0 1-8.7 8.7zm196.3 111.3-61.6-153.9c-1.1-2.8-4.2-4.1-7-3s-4.1 4.2-3 7l9.1 22.7-144.5 32.4-.5.1h-.1l-.4.1h-.1l-.4.2-.1.1-.3.2-.1.1-.8.8-.2.3-76.3 93.1a5.4 5.4 0 0 0-.7 5.7 5.5 5.5 0 0 0 4.5 3.1c4.2.5 76 12.3 123.5 20.2h1.6l.4-.1.2-.1.4-.1.3-.1.3-.1.3-.2.3-.2.3-.2.2-.2.2-.2.5-.5.2-.2L340.4 269 387 385.4a5.4 5.4 0 0 0 7 3 5.5 5.5 0 0 0 3.1-7.1zm-282.4 8.9zm10.4-9.2 64.7-78.9 40.5 96.1L125.1 381zm115.1 13-41.5-98.4 130.5-29.2-89 127.6z"/><path xmlns="http://www.w3.org/2000/svg" fill="#595959" d="M346.3 209.3s-20.9 3.5-22.9 13.1a20.5 20.5 0 0 0 3.8 15.7l19.1-7v-21.8z"/><linearGradient xmlns="http://www.w3.org/2000/svg" id="j" x1="330.1" x2="358.4" y1="225.2" y2="228.3" gradientUnits="userSpaceOnUse"><stop offset="0" stop-color="#151e28" stop-opacity="0"/><stop offset="1" stop-color="#151e28"/></linearGradient><path xmlns="http://www.w3.org/2000/svg" fill="url(#j)" d="m333.7 213.3 8.8.7 3.5 17.2-17.3 6.3-.6-6.2c-.1-14.8 5.6-18 5.6-18z"/><linearGradient xmlns="http://www.w3.org/2000/svg" id="k" x1="160.5" x2="186.2" y1="274.1" y2="256.6" gradientUnits="userSpaceOnUse"><stop offset="0" stop-color="#7c59aa" stop-opacity="0"/><stop offset="1" stop-color="#5530b0"/></linearGradient><path xmlns="http://www.w3.org/2000/svg" fill="url(#k)" d="M156.5 277c6.8-.8 27.8-7 27.8-7h16.5a8.7 8.7 0 0 0 8.7-8.7 8.7 8.7 0 0 0-8.7-8.7h-44.3l-1.7.1c3.5 3 6.8 7.6 3.1 13.1a19 19 0 0 1-11.8 7.2c2.5 3.1 7 4.4 10.4 4z"/><linearGradient xmlns="http://www.w3.org/2000/svg" id="l" x1="361.5" x2="371" y1="312.8" y2="309.8" gradientUnits="userSpaceOnUse"><stop offset="0" stop-color="#7c59aa" stop-opacity="0"/><stop offset="1" stop-color="#5530b0"/></linearGradient><path xmlns="http://www.w3.org/2000/svg" fill="url(#l)" d="m338.2 234.3 58.9 147s2.2 4.9-3 7c-4.8 1.9-7-3-7-3L333 236.2l5.2-1.9z"/><linearGradient xmlns="http://www.w3.org/2000/svg" id="m" x1="216" x2="223.9" y1="354.1" y2="351.4" gradientUnits="userSpaceOnUse"><stop offset="0" stop-color="#7c59aa" stop-opacity="0"/><stop offset="1" stop-color="#5530b0"/></linearGradient><path xmlns="http://www.w3.org/2000/svg" fill="url(#m)" d="M199 295.5 243.8 403s2.3 4.8-2.9 7c-4.8 2-7-2.9-7-2.9l-40.1-109.6 5.2-2z"/><linearGradient xmlns="http://www.w3.org/2000/svg" id="n" x1="148.7" x2="154.6" y1="341.5" y2="347" gradientUnits="userSpaceOnUse"><stop offset="0" stop-color="#7c59aa" stop-opacity="0"/><stop offset="1" stop-color="#5530b0"/></linearGradient><path xmlns="http://www.w3.org/2000/svg" fill="url(#n)" d="m189.6 301.6-70.5 86.5s-3.2 4.3-7.6.8c-4-3.2-.8-7.6-.8-7.6l76.6-85.9 2.3 6.2z"/><linearGradient xmlns="http://www.w3.org/2000/svg" id="o" x1="176.6" x2="165.6" y1="382.9" y2="409" gradientUnits="userSpaceOnUse"><stop offset="0" stop-color="#7c59aa"/><stop offset="1" stop-color="#5530b0"/></linearGradient><path xmlns="http://www.w3.org/2000/svg" fill="url(#o)" d="m232 409.1-117.7-18.9s-5.3-.5-4.5-6.1c.7-5.1 6.1-4.5 6.1-4.5l114.4 18.9 1.7 10.6z"/><linearGradient xmlns="http://www.w3.org/2000/svg" id="p" x1="289" x2="294.7" y1="334.3" y2="338.4" gradientUnits="userSpaceOnUse"><stop offset="0" stop-color="#7c59aa" stop-opacity="0"/><stop offset="1" stop-color="#5530b0"/></linearGradient><path xmlns="http://www.w3.org/2000/svg" fill="url(#p)" d="M340.5 268.9 244.3 407l-4.6-6.6L337.2 266c0-.1 3.9-1.7 3.3 2.9z"/><linearGradient xmlns="http://www.w3.org/2000/svg" id="q" x1="262.8" x2="264.7" y1="275.8" y2="284.2" gradientUnits="userSpaceOnUse"><stop offset="0" stop-color="#7c59aa" stop-opacity="0"/><stop offset="1" stop-color="#5530b0"/></linearGradient><path xmlns="http://www.w3.org/2000/svg" fill="url(#q)" d="m198.8 295.6 130.4-29.2s3.2-5.2-6.6-3.4c-9.8 1.9-118.5 26.5-123.2 27.8s-.6 4.8-.6 4.8z"/><path xmlns="http://www.w3.org/2000/svg" fill="#333" d="M238.8 385.5a19 19 0 1 1 0 38 19 19 0 0 1 0-38m0-4a23 23 0 1 0 0 46 23 23 0 0 0 0-46z"/><path xmlns="http://www.w3.org/2000/svg" fill="#595959" d="M212.3 430.8a2 2 0 0 1-1.5-.7c-.7-.8-.7-2.1.2-2.8l54.5-48.9c.8-.7 2.1-.7 2.8.2.7.8.7 2.1-.2 2.8l-54.5 48.9c-.3.3-.8.5-1.3.5z"/><g xmlns="http://www.w3.org/2000/svg" fill="#283749"><path d="m226.1 433.4-27.9-2.1a5 5 0 0 1-4.6-5.4 5 5 0 0 1 5.4-4.6l27.9 2.1a5 5 0 0 1 4.6 5.4 5 5 0 0 1-5.4 4.6zm52.4-40.9-26-10.3a5 5 0 0 1 3.7-9.3l26 10.3a5 5 0 0 1 2.8 6.5 5 5 0 0 1-6.5 2.8z"/><circle cx="238.8" cy="404.5" r="6.7"/></g><path xmlns="http://www.w3.org/2000/svg" fill="#ea9d7d" d="m248.1 348.4 8.2-27.5 27.3 9.7-9.6 34.9z"/><path xmlns="http://www.w3.org/2000/svg" fill="#cc7a5e" d="M250.6 340.2a.8.8 0 0 1-.2-.5l5.6-16.6c.1-.2.3-.4.6-.3.2.1.4.3.3.6l-5.6 16.6c-.1.2-.3.4-.6.3l-.1-.1z"/><linearGradient xmlns="http://www.w3.org/2000/svg" id="r" x1="263.5" x2="266.3" y1="347.6" y2="338.9" gradientUnits="userSpaceOnUse"><stop offset="0" stop-color="#cc7a5e" stop-opacity="0"/><stop offset="1" stop-color="#aa5f4b"/></linearGradient><path xmlns="http://www.w3.org/2000/svg" fill="url(#r)" d="M262 345.4c10.7 4.4 17.1 1.9 17.1 1.9l4-13.5-27.6-9.4-4.5 14.2s3.3 3.6 11 6.8z"/><g xmlns="http://www.w3.org/2000/svg" fill="#ad5c49"><path d="m251.9 337.9-.2.9.8-.2zm10.5 1.9.8.4-.1-1.1zm-9.1-3.4.6 2.2 1.4-1.7zm11 4 .7.4v-.9zm-5.5-.9.7-.2-.4-.5zm-6.1.7h.2l-1.4-1.1-.3 1.4 1.2-.2.3.8.7-.6zm2.4.6 1-1-1.5-.2zm-2.4-1.8 1.2 1.3.3-1.6zm4.5.9 1.4-.1-1-1zm-2 2.1 1.1-1-1.5-.1zm-1.1.1h1l-1.3-.7zm8.1-3.3-1.3-.3.4 1.4zm-1.4-.4-1.2-.3.3 1.4zm-1.5-.4-1.3-.3.4 1.4zm-2.2-.4h-1.9l.5 1.8zm9.6 3.7.5-.6-1-.2z"/><path d="m262.1 342.1.5-.7-1-.1zm-5 .7.5-.8-1-.1zm1.7-1.1h1.3l-.8-1.2zm-4.2-.9-1.3-.6v1.2zm-2.7-3.1 1.3-.1-.8-1.2z"/></g><path xmlns="http://www.w3.org/2000/svg" fill="#8ab7d9" d="M305.9 240.7a36 36 0 0 0-20.2-18.5c-14.6-6-32.3-10.9-45.1-14.1h-86.7c-2.6 8.7-5.6 22.7-1.7 33.3a26.2 26.2 0 0 0 17 16c17.3 5.3 81 7.8 84.5 11 3.4 3.1 2.6 9.1 1.4 14.8a1728 1728 0 0 1-11.3 47.2c-.3 1.2.4 2.4 1.6 2.7l39.6 11.4c.6.2 1.3-.2 1.5-.8 2-6 11.5-35.1 18-62 4.6-18.9 4.9-32.5 1.4-41z"/><path xmlns="http://www.w3.org/2000/svg" fill="#aad2f9" d="m246 321.3.2-1 43.9 11.2-.3 1z"/><linearGradient xmlns="http://www.w3.org/2000/svg" id="s" x1="286.2" x2="322.9" y1="292.1" y2="309" gradientUnits="userSpaceOnUse"><stop offset="0" stop-color="#4089c2" stop-opacity="0"/><stop offset=".9" stop-color="#247cde"/></linearGradient><path xmlns="http://www.w3.org/2000/svg" fill="url(#s)" d="M284.6 344.5c.9.3 1.9-.3 2.2-1.2l15.2-51.4c11.2-40.9 3.5-50.7 3.5-50.7s-13 15.4-25.5 32.5c-14 19.2-35.3 59.1-35.3 59.1l39.9 11.7z"/><linearGradient xmlns="http://www.w3.org/2000/svg" id="t" x1="203.2" x2="194.5" y1="250" y2="276.1" gradientUnits="userSpaceOnUse"><stop offset="0" stop-color="#4089c2" stop-opacity="0"/><stop offset=".9" stop-color="#247cde"/></linearGradient><path xmlns="http://www.w3.org/2000/svg" fill="url(#t)" d="M248.5 251.3c-20.1-3.8-60.4-10.2-73.6-14.8-13.2-4.7-24.1-12.2-24.1-12.2s-2.5 15.6 5.7 24.6 17.5 10.3 43.1 13l37.9 3.7L254 268c8 1.5 7.6-14.2-5.5-16.7z"/><g xmlns="http://www.w3.org/2000/svg" fill="#5094b5"><path d="m204.3 220.8-1.7.8 1.4.9zm13.4-.6.5-1.4-1.6.5zm1.4-5.2 1.4-.1-.8-1.4zm6.3-6-1.8 2.9 2.9-1.3zm-6.6 8.4.6-1.3-1.7.1zm-18.7 5 1.4 1.4.7-1.6zm-17.8 4.4.7-1.5-2.1.1zm32.6-10.6v-.4l-.7.4.2-.9.1.5.7-.6-.8-.3.1-1-.4.1-.3-.2-.1.4-.7.1.4-1.2-1.5.6.9.7-1.3.4 2.7 1.8v-.3l.2.1 1 1 .5-1.3zm-3.4.9-1.6.1 1.1 1.1zm-7.8 16.9 1 .2-.3-1.1zm-.2-6.1.1.8.8-.4zm6.8 4.9.2-.9-.8.2zm-18.7.7 1 .2-.3-1zm.7-5.7-.9-.3.1.7zm5.9 4.6.2-.9-.8.2zm-3.9-1.3 1 .1-.3-1zm-.2-6.1v.8l.9-.4zm6.8 4.9.2-.9-.8.2zm2.7-4.2 1.8-.9-1-.4.3-.2-1.1-.4.1.3-.2-.1zm3.8 2.2.2-.9-.8.3zm16.7-7.4 1 .2-.3-1zm8.9-8 .9.2-.2-1zm-13.6 12.4 1 .2-.3-1zm4.5-10.5.1.8.8-.4zm6.8 4.9.2-.9-.8.3zm-9.4-2.9.2-.9-.8.3zm6.5-1.9.2-.9-.8.2zm-27.6 9.5h-1.1l.6.9zm-1.6-2.6.7.5.1-.9zm3.1 4.1 1.4.1-.5-1.3zm10.1-.2.7-.7-1-.4zm-4.6-4-.8.5.7.4zm6.7-2.6-.3.7h.9zm-.8.8.4-1.5-1.5.6zm2.2-3.7 1.5-.5-1.3-.9zm.5 2.1.4.9.6-.6zm-.9 3.7.1-.9-.8.5zm-8.5-3.6-.2.5-.1-.1-.3.7h.9l-.2-.3h.3zm4.5 2-.1-.9-.7.7zm-7.4-1 .3-1.5.2.2.3-1.8-1.7.9 1 .6-1.5.7zm2.5-4.8-2.3 1.2 1.9 1.1zm-15.2 8.2-.3 1.8 2.1-.5zm8.1 3.2.7-.6-1-.4zm-4.6-3.8-.8.5.7.4zm6.4-1.8.9-.1-.6-.7zm-23.9-4.6.9-.1-.6-.7zm31 10 .6-.4-.8-.4zm2.2 1.9 1.1-.9-1.4-.6zm-4.5-1.2.6-.5-.9-.3zm-5.6.3-.3.6h.8zm-35.7 8.1 1 .2-.2-1zm-3.1-.7 1 .2-.2-1zm3-4.6.8-.4-.8-.4zm6.7 4.1.2-.9-.8.3zm-6.8-8.8.1 1.7 1.8-.8zm-9.9-10v1.7l1.8-.9zm-.3 3.3 1.2.3-.3-1.4zm.7-6-.7 2.5 2.3-.5zm13.5 16.7.1-.9-.8.2zm-7.3-3.9-1.1-.1.6.9zm1.9.7.3 1 .8-.6zm-4.3-1.9.1-.9-.8.5zm4.1.4-.8 1.2 1.3.1zm5.7 1.3.2.9.6-.5z"/><path d="m171.6 227-1.4-.7.4 1.5zm-5.6-.3.6-.6-.9-.3zm-5.9.9.8-.1-.5-.5zm21.7 6 1 .2-.2-1zm-.1-6v.7l.8-.4zm6.9 4-.8.2.6.6zm-16.2-.9.9.2-.2-1zm6.8-2-.8.2.6.6zm4.3-4.2-1.9-.8.1 1.6zm-15.1-1.7.1 1.6 1.8-.8zm17.3 3.9-.8.2.6.7zm-7.4-3h-1.2l.7.8zm3.5 14.7.7-.6-1-.4zm-4.7-3 .2-.8-.9.4zm6.5-2.7h1l-.7-.7zm2.3-7.6.6-.5-.8-.3zm1.9.3.3 1.5 1.1-.8zm-4.5-.5.3.9.6-.5zm-5.4 1.2-.2.6.8-.1zm-11.6-3.2 1 1 .6-1.5zm5.9 1.8.1.7.8-.4-.8-.4.3-.9-2.4.7 1.6 1.4zm24.3-1.8 1.5.2-.5-1.5zm-7.4 8.8.2-1.3-1.2.4zm-12.9-7.1h-1.7l1.1 1.3zm15.3-5.2 1.4 1.8.8-1.8zm-7.7 11.2 1.3-.7-1.4-.5zm-14.8 2.2 1.1-.9-1.5-.3zm13.1-10.1-.8-.7.5-.1-2.1-1.3-.3 2 .6-.1-.2.5zm3.9 6.4.9-.8-1.4-.5zm-9-2.1-1.9 1.1 1.6.9zm9.6-5.2-.1 2 1.7-.7zm-1.5 1.1-2 .7 1.9 1zm7.6-1.9-2 .8 1.9 1zm-33.4 2.1 1.8-1.1-1.6-.8zm-2-1.6 1.8-1.1-1.6-.9zm37.3-1.2-.5-.2v.8l.4-.2v.7l1.8-1.1-1.7-.9zm12.6-2.2-.2 1.9.6-.3.2.8.6-.5-.8-.4 1.2-.7zm-2.3 3.7-.1 1.2 1.1-.7zm7.7-5.8v.5l-.1-.1.1.4-.1.5.2-.1.1.7 1.1-.8-.6-.3.4-.2zm-34.2 8.6-.1 1.3 1.2-.8zm-16.1-3.5h-.1.3l.3.2v-.1h.1v.2l-1.2.7 1.6.8.2-1.7v-.2l.2-.1-.3-.1.7-.5v1l1.1-.5.3.1-.9.5.9.5-1.7.6 1.9 1v-1.4l1.1.6.3-2.8-.9.5-.3-.8-.4.7h-.1l-.3-.4-.1.2-.3-.2.3-.1-2.4-.8.1.5-1.5.9zm-2.3-.5v-.2l.1.2.2-.5.4.7 1.7-2.2-2.4.1v-.1l-.1.1h-.5l.1.2-1.3.8 1.8.9zm.3-.9h-.1v-.1l.1.1zm-4.1-1.7 1.6.9.1-.6.1.1-.1.4 2.8-.4-.7-.6.4-.2.1.3 1-.6-.4-.1-1.6-.9-.1.9-.5-.4-.7-.7.9-.6-1.6-.8-.1.6-1.5-1.6.2 3.5 2.3-.3-.2.9-.3.1.1-.9zm20.1 3.1-.8 1.8 1.8-.1zm-2.4-.8 1 .6.1.1 1.1.5.3-2.7zm46.6-8.4-2.1.6 1.9 1.3.1-1 1.1.8.4-1.4-1.5.5zm2.7 1 .2-2-2.2.7zm-27.1 7.1 1.9 1.1.2-2.4zm-18.7 10-.3.9 1.2-.2zm14.4.9 1.1-.9-1.5-.5zm-6.3-5.5-1.2.6 1 .6zm9.1-2.5 1.3-.1-.9-.9zm24.7-13.9h-1.9l1 2.2zm-1.4 4.9-.3-.2v.3l-.2.1.1-1.2-1 .2-.8-.2.2.4-.5.2 1.2.9h-.1l1.1.9-.1.2 1.6-.7-1.1-.8.1-.2zm1.1-3.8h.4l1 .8.5-1.5-.7.3-.7-.7zm.3 1.1-1.7.1 1.1 1.1zm-18.8 6.3h-.4l.5.4v.6l.3-.2.6.6.7-1.5zm-19.6 3 1.3 1.4.2 1.8 1.9-1v-.1l1.2-.5-1.6-1.3v1.7l-1.5-.6.6-1.5zm35-9.2-1.6.1 1 1.1zm-21.6 14.9 1 .2-.3-1zm6.6-1.2.2-.9-.8.3zm3.5-5.5.3-.2-1.1-.4.1.3-.2-.1.1.5-1.5-.7-.2 1.9 1.7-1v1l1.8-.8zm-5.3-.4.6.9.5-.8zm.2-2.1.1-.9-.8.5z"/><path d="m211.7 220.3.8-.7-1.1-.4zm-4.5-3.8-.8.4.7.4zm-.9-3.4-.2.4h-.1l-.3.7.9-.1-.2-.2h.3zm3.7 1.7.8.3-.1-.9zm-8-1.6 1.5.9v-.4l.8.8.7-1.6-1.4.1.1-.7zm-.9 1.2-2.2 1.2 1.8 1.1zm-3.6 2.3.7-.2-1.5-1 2.7-.6-2.2-1.6-.5 2.2-1.6-1-.2 1.1-1.5.9 1.3.7v.3l.4-.1.3.1v-.2l1.4-.4-.4 1.7 2.8-.7zm12.4 5-.6.3 1 .8v-.8l.8-.6-1.4-.6zm-4.4-.5.6-.4-.9-.4zm-39.8-5.5-.6-.6-.3.7zm2.6 5.4.2-.1.8.4.4-2.7-2.6 1.5 1.2.6zm4.8 3.9-.7.9h.3l-.7.2 1.4 1 .3-1.4-.4.1zm5.3-1 .6.6.1-.3 1.2.7v-1.8l-1.8.8zm-.1-5.2h-1.2l.7.8zm7.6 1.4.6-.5-.8-.3zm2.7.8v-.3l-.2.1-.6-.2.1.5-1.1.6 1.6.9.1-.8.7-.6zm-5.3-.9.3.8.6-.5zm-5.4 1.1-.2.6.8-.1zm-10-3.7-1.6.5 1 1zm-5.3-3.4.1.6-1.5.9 1.6.8.1-.5v.2h.2l.1-.1 1.8-1.1zm7.6 5.4 1.6 1.5.4-1.2.1.8.8-.4-.8-.4.3-1zm19.5-2.3-1.6 2.3 2.5.3zm-16 3.7-1.7.3.7.5-1 .4.1-.4-1.6.3v-.8l-1 .4.9.8.1-.3 1.3 1 .2-.9 1.5 1.4.8-2.3-.5.2zm-10.2-4.8-1.8 1.1 1.6.9zm24.9 1.6.2-1.9-1.8 1zm-1.9 1.3 1.7-.8-1.6-1.3zm-6.2-.6-1.9.7 1.9 1zm-14.6.3v-1.5l1.1.6.3-2.3 1.5-.8-1.9-.8.1 1.3-2.2 1.3.9.5-1.7.7zm27.8.6 1.7-1.1-1.6-.8zm20.1-7.7-1.1-.6-.1 1.3zm-35.2 8.1-.1 1.3 1.2-.7zm-22.2-6.5 1.6.9.2-1.6h.3l-.3-.3v-.1h-.1l-2.6-2.7.1 3.5 1.7-.2zm68.9-4.2H221l1.2 2.1zm4 5.9 1.4-.1-.8-1.3zm-.2 2.4.5-1.2-1.6.1zm-3.5-4.1.6-1.2-1.7.1zm7-1.8.6-1.3-1.7.1zm-3.1-2.4h-1.9l1.1 2.1zm-.2 1h.4l1 .9.4-1.5-.7.3-.6-.7zm.2 1.1-1.6.1 1.1 1.2zm-42.4 9.9 1-.9-1.4-.6zm2-10-.3-1.6-1.1 1.2zm20.7-2h-3.7l2.1 1.8zm-7.4 2.7-.8.4.6.4zm13.1-1.1v.3l1.5-.5-.7-.4.4-.3-.2.4.9-.1-.4-.5.6-.5-2.7.1.2 1.9zm-36.4-.2-.6 1.2 1.6.1zm38.8 1-.8.4.8.4zm-16-.2 1.8 1.1.3-1.7.6-.1-.5-.4v-.1.1-.1l.6-.9-3.1.1 1.4 1.4zm-8.5 3.7 2.2-.5-1.8-1.3zm8.1.4.3 1 .8-.6-.2-.1.3-.1.1-.1 1-.6-1.6-.9-.1.8h-.1l.1.1v.7zm-5-2.4.6.5.2-.9zm14.8 2.6-.8-.4.2.9zm-30-1.1H180l.7.9zm8.3 1-.8-.4.1.9zm-23-3.7-1.8 1.1 1.6.9zm16.8 2.3-2 .7 1.9 1z"/><path d="m205.4 212.1.8-.5.2.1-1.1.5 1.4.9.1-1.1.8.5-.1.8-.4-.2-.1 1.5-.7-.3.1.3h-.2l.1 1.7 1.6-.8-.3 2.1 3.3-1-2.9-1.8-.1.5-.8-.3 1.2-.8.9.9.5-1.2h-1l-1-.5.7-.3 1.1.7.2-1 .1.1.1-.5 1 1 .5-1.2-1.5.1.1-.3-.3.2.2-1.1 2.1 1.4.2-2.1 2 1.4.3-2.7-2.7.7.5-.8-2.7.1.8 1.3-.5.1v-.1l-3.4 1h.1l-1.1-.6.9-.5-1.7-.9-.1 2 .9-.6zm-44.1-1.7 1.6.9v-.1l1 .9.4-.7 1.3.7.1-.7v.4l1.5-.9.7 1-.5.3.9.5-1.6.6 1.8 1 .1-1.5 1.1.6.3-2.7-.5.2 1.6-1.7-5.2.1.7.8-1.1-.4v.6l-.9.6.9-1.6h-4.8l1 .9zm-1.7 2.1-1-.9-.7 2.3 2.5-.4.1.1-.1.1h-.2v-.1l-.1.1h-.5l.1.2-1.3.8 1.6.9.1-1 .8 1.2 1.7-2.2h-.1l.6-.4.5-.1-.2-.1.4-.2.2.9 1-.7-1.1-.3-1.6-.8v.2l-.8-.7.4-.3-1.6-.8-.2 1.9-.5.3zm1 1.1zm1.2.1.4-.3v.2l-.4.1zm.4-.2h-.1.1zm-1.5 0 .1-1.7.5-.3-.6 2zm17.6.2 1.8-.2-1-1.6z"/><path d="m170.1 211 .8 2.7-.6.4.3-1-1.6.5.8.7-1.4.8 1 .6-2.2-.4 1 3.4 1.3-1 .6.4.6.5.1-.8.5.4v.5l1.1-.5.7.7.2-.6.2.2v-.1l1.7.9.2-1.8.2.2-.2.6 1.8-.2-.8-1.3v-.1h-.1l-.1-.2-.1.3-.6.1v-.2l1.4-.4-1.7-1 .2-.6-.8.2-.7-.4-.1.6-1 .3.8.8-.1.6-1.9.6-.1-.1.1-.3-.4.1h-.1l-1 .2.8-.6v.3l.6-.5-.8-.4v.2h-.2l.2-2.1.1.5 1.9-1.5 1.3 1 .2-.9 1.5 1.4.2-.6 1.9 1.1.3-2.7-1.2.7 1.7-3.2 1.5 1.8.7-.8-.6 1.4h-1.1l1.3 2.5 1.9-2.2.4.1-.5 1.5.8-.1-.2.2 1.2.3v.3h-.1l.1 1.7.5-.2.1.2-.9.1-.2-.2v.2h-.2l.1.2v.7l-1.7-1 .1-.1-1-.6-.1 1.3.7-.5-.2 1.3-1.4-1.2.1-.8-.7.4.1-.9-2.5 1.5 2.2 1.2.1-1.2.5.3-.5 1.5 1.9-.3v.6h.1v.4h-.1l.1 1.7 1.8-.8-.7-.3.7-.4 1.5.8.1-1.7-1.7.7-1.2-.5h.1v.1l1.6-.5v.2l1.1-.5.2.2.1-.3.2-.1-.1-.1.1-.2.5.9 1.5-2.2-2 .1.9-.4-.7-.3.7-.4 1.5.8.1-1.7-1.7.7-1.2-.5 1.7-.5v.2l1.7-.8-1.6-1.3v1.1l-1.9-1.2.9-1.2-1.6.1.4-.8-2.3-.1 1.4 1.9.5-.9.6 1-.2 1.7-.1-.1-.1-.3-.1.1-.8-.7-.2-1.2-1 1h-.1l-.8-1.7 1.3-1.3-3.5.1h-4.6l-3.3.1 1.6 2.2-2.3-1.3zm4.8 5.8-1.2.7v-.4l.1-.2 1.6-.5-.5.4zm-4.6.8v-.2l.2.1-.2.1zm0-.3-.6.3.5-.4.1.1zm6.1-4.1.1-.3.1.2-.2.1zm-2.1-3.5 1.9 2.6-1.6.5.1-.4-1.5.3 1.2-.9-1.1-.2 1-1.9zm16.4 1.3.3.4-.8.5-.2-.2-.2.4-.2.1.1.1-.1.3-.3-.2-.1 2 1.7-.8-1.1-.9h.6l.8.5.1-1.2.9 1.1-1.4 2 2 .2h-1.2l.7.8-.9.4h-.1l.2-.1-2.1-1.3-.2 2.1 1.5-.5v.1l.1.7-.1-.1-.4 1.8 2.2-.5-1.6-1.2.5-.4 1.1.6.1-1.4.5.6.8-1.7h-.6l-.6-1.5.7-1.3 1.8 1 .1-1.4.5.6.8-1.7h-1.2l1-1.6 1.2 2.2-.2 1.6 2.1-.6-.3 1.7 2.8-.7-1.7-1.2.5.3.1-.5.2-.1-.1-.1.3-2.8-1.1.3.2-.4h-3.7v-.1l-3.9.7.3-.7H189l1.8 2-.1.1zm3.4.5.4.5-.8.3.4-.8zm1.2.1-.2.1.2-.1zm-2.5-1.6.5.6-.8.2.3-.8z"/><path d="m187.7 211.3 1.1 2.1 1.5-2.2zm-27.8-1.9-4.5-.1 2.8 2.3zm28.2-.3h-3.7l1.8 2.1zm-24.3 27.5 1.3.3-.4-1.3zm-.6-7.6.1.9 1-.5zm9 5.8.1-1.1-1 .3zm6 5.2 1.3.2-.4-1.3zm-.6-7.7.1 1 1-.5zm-20.4-5.1.9.2-.2-1.1zM154 222l1 .2-.3-1zm3.1 9.9.8-.6-1-.4zm-4.6-2.9.1-.9-.8.4zm6.5-2.7.9-.1-.6-.7zm-3.5 0 .9-.1-.6-.6zm-1.9 7.3 1.2.2-.3-1.3zm-.6-7.7.1.9 1-.5zm33.5 12.2.2-1.1-1 .4zm.8-2.1 1.5.2-.4-1.5zm-.6-8.1 1.2-.6-1.3-.6zm10.6 5.8.2-1.3-1.2.4zm31.1 19.9.3-.9.9.7zm5.6 2.8-1.4-.7 1.5-1.1zm-24.7 6.6-1.8-.2 1.1-1.8zm6.3.6-1.8-.2 1.1-1.7zm19.7 1-1.9-.2 1.2-1.8z"/><path d="m234.1 265.1-1.5-.2 1-1.5zm-32.4-2.9-1.8-.2 1.1-1.9zm8.7-5.6-1.5-.9 1.8-1.2zm10.3 4.7-1.5-.9 1.6-1.2zm4.5-.5-1.6-.8 1.7-1.3zm13 4.8-1.4-.7 1.4-1.1zm-12.7-1.8-.1-1.8 1.9.6zm-23.7-7.1v-1.9l1.9.8zm-6.8 4.6-.1-1.8 1.9.7zm-3.1-5.3-.1-1.8 1.9.7zm10.5-12.2-.1-1.9 1.9.6zm9.6 10.8-.1-1.8 1.9.6zm4.3 2.3-.2-1.8 2 .6zm-26.6 3.8v-1.9l1.9.7zm-10.9-1.7-.1-1.5 1.7.6zm5-4.8-.1-1.5 1.6.6z"/><path d="M175.6 258.7v-1.5l1.6.7zm54.3 6.1-.1-1.5 1.6.5zm1.9-1.8-.1-1.5 1.6.5zm21.9 4.1.1-1.5 1.6.7zm.9 1.6 1.1-1.1.6 1.6zm-4.5-1.6-1.5-.1.9-1.5zm.3-6.3-.9-.1.5-.9zm-.6 2.9-.9-.1.5-.9zm1-1.5-.5.8-.6-.8zm1.5 3.9-.4.7-.6-.8zm-24.9-2.1-1.4-.7 1.4-1.1zm.4-4.5-1.6-.8 1.7-1.3zm19 7.3-1.4-.7 1.5-1.1zm-12.9-18.5-.6.6-.4-.9zm-7.7 12.4 1.1-.7.1 1.4zm2.5 1.9-.3-1 1.2.2z"/><path d="M235.6 260.7h-1.1l.5-1.1zm.2-17.8.2-.8.7.6zm4.4 2.3-.6-.3.7-.4zm-.3-6.5-.5.5-.3-.7zm4.5 27.4-.2-1.1 1.3.2zm7.7.3h-1l.5-1zm-4.8-8.3-.3.9-.9-.7zm-49.4-2.2-.1-1.2 1.3.4zm8.2.9-1.1-.1.7-1.1zm-4.3-9.4-.4 1-.8-.9zm8.8 9.3.4-1.2 1.1.9zm-13 1.7.4-1.3 1 1zm15.4-.3.4-1.3 1.1 1zm7.3 5-.9-.4 1-.8zm-2.7-.6-1-.5 1-.8zm2.1-9.8-.7.8-.4-1.1zm-7.8 6.3-.8.7-.4-1.1zm1.2 3.2-.8.8-.4-1.1zm-6.1-17.7 1.2-.1-.4 1.4zm-1.4 8.3.2-1 1 .6zm9.6-4.7-1-.4.9-.8zm-9.6 10.5 1.3-.1-.6 1.4zm-3 .3 1.2-.1-.6 1.3zm-16.8.4 1.3-.1-.6 1.4zm17.2 1.6 1.2-1.5.9 1.9zm-12.7-8.2.4-2.3 2.1 1.4zm-30.6-1.2 2.3-.4-.5 2.4zm36.4-2.5-1-.4.9-.8zm-14.1 3.6.4.9-1.2-.1zm12.9 3.5 1-.1-.4 1.2zm-5.7 3.6.3 1h-1.2zm9.8-.4.4 1-1.2-.1z"/><path d="m210 250.3.8-.1-.3.9zm-.9 5.3.2-.7.6.4zm6.2-3-.6-.3.5-.5zm10.1 2-.5.7-.4-.8zm-3.3-4 .4.5-.7.2zm-2.1 6.5.6-.3v.8zm16.2-5.7-.5.7-.4-.8zm-3.3-4 .4.5-.7.2zm-2.1 6.5.6-.3v.8zm6 7.9-.5.7-.5-.9zm-3.3-4 .4.5-.8.2zm-2.2 6.5.7-.3-.1.7zm12.8-.9-.4.5-.4-.6zm-2.9-3.3.4.4-.7.2zm-1.7 5.2.5-.2v.6zm-10.6-25.7v.9l-.9-.3zm-9.1 2.4.7.1-.4.6zm4.8 6.1.3-.6.5.6zm-17.3-9.3.4-.5.3.6zm6.3 4.6-.4-.5.7-.2zm-25.2 5.8.8.9-1.4.5zm-7.5 4 1-.5v1.2zm8.9 5-.1-1 1.1.2zm16.5-5.8.8.9-1.4.4zm-7.4 4 .9-.5v1.2zm8.9 5-.2-1.1 1.2.2zm-28.5-8.6.2 1-1.2-.3zm-1.5 2.8.1 1.1-1.1-.4zm-4.2 1 .9.1-.5.8zm14.6.5-.2-.9 1 .2zm7.8-5.9.7.7-1.1.5zm3.2-2.3 1.2 1.3-1.9.8z"/><path d="m193.2 250 .7.8-1.2.3zm2.4 1.6.7.7-1.2.4zm-15.6.1 1.6-.8.1 2zm-10.6 4.8 1.7-.8v2zm5.4-2.8 1.6-.8.1 2zm-1.4 2.1 1.6-.8.1 2zm7.8 1.2 1.7-.8.1 2zm1.2-6.2-.2-.6.8.1z"/><path d="m200.6 245.1 1 .9-1.6.6zm-8.2 5 1.1-.6.1 1.3zm10.5 5-.3-1.2 1.3.2zm25.8 5.4-.7-1 1.4-.4zm7.6-3.7-.9.5v-1.2zm-8.6-5.4.1 1.1-1.1-.3zm-3 13-1.9-.2 1-2zm-5.5-.5-1.8-.1.9-2zm9.6.9-1.9-.2 1-2zm2.5-4.5-1 .5v-1.2zm-8.7-5.4.1 1.1-1.1-.3zm1.9 1.4 1.1.6-1.1.9zm-5.6 6.5.7-.8.5 1.1zm10.4 1.1-.6-.8 1.2-.2z"/><path d="m230.2 263.9-.8-1 1.4-.4zm7.7-3.5-1 .4v-1.2zm-9-5.4.2 1-1.2-.3zm1.7 4.2.4-1.2 1.1.9zm7.5 3.8-1-.5 1-.7zm-.9-10.2-.7.7-.5-1.1zm.9 6 .2-1 1 .7zm6.1 3.1-.7-.4.8-.6zm-.7-8.5-.6.6-.4-.9zm-6.6 10.6.1-1 1.1.5zm6.8 1.9-.9-.2.7-.7zm-2.4-8.2-.5.8-.5-.9zm-5.5 7.7-.8-1 1.4-.3zm7.7-3.5-1 .4v-1.1zm-9-5.4.2 1-1.2-.2zm-11.9 5.3-.7-1 1.4-.3z"/><path d="m213.1 259.6-.7-1 1.4-.3zm17.5 4.2-.7-1 1.5-.3zm13.5.6-1.2-.1.8-1.3zm-42.5-8.7-1.3-.1.8-1.2zm28.7 2.9-.9.5.1-1.3zm-8.2-5.9.1 1-1.1-.3zm-51 .6-.1-1.5 1.7.6zm-7.6-.1-.1-1.1 1.1.4zm7 .8-.9-.1.6-.9zm-3.8-7.7-.4.8-.7-.7zm.2-3.7 1.1-.1-.4 1.1zm-1 6.7.1-.9.9.6zm8.1-3.7-.8-.3.7-.7zm1.5-2 1-.1-.3 1.1zm-1 6.7.1-.9.9.6zm8.1-3.7-.8-.3.7-.7zm5.3 11.1-.8-1 1.4-.4zm-9.6-1.1-.9-.9 1.4-.5zm17.9 2-.8-.9 1.3-.4zm13.5-1-1.3.1.6-1.4zm-43.4-3.5H165l.6-1.3zm29-.5-1 .5v-1.2zm-9-4.9.2 1-1.2-.2zm53.2 16 .4-2.7 2.7 1.6z"/><path d="m213.2 261.1.4-2.7 2.7 1.6zm-29.5-3.5 2.7-.8-.4 3zm9.6 1.7.4-2.6 2.7 1.6zm-26-2.7.4-2.7 2.7 1.7zM274.5 341l-.3-1.2 1 .2zm14.5-11.3 2-.2-.5 1.7zm-1.8 3.6 2.1-.2-.5 1.7zm2.9-13.7 1.8-1.1.3 1.8zm-7.7 6.4 1.7-1.1.3 1.8zm.4 11.4 1.9-1 .1 1.8z"/><path d="m284.3 338.9 1.8 1-1.3 1.2zm-.3-4.6 1.9 1-1.3 1.2zm-2.6 6.6 1.8-1 .2 1.8zm1.8 2.9 1.7-1.4.4 2zM286 320l.1-2 1.6.8zm7-3.8v-2.1l1.7.8zm-4.3-5.1V309l1.7.8zm-8.5 17.4.2-2.1 1.6.9zm.5 4.8.2-2 1.6.9zm14-22.4.1-2.1 1.6.9zm2.6-10.1.1-1.8 1.3.7zm1 4.3L297 303l2.1-.7zm-8.3-2.9.1-1.8 1.3.7zm7 .7v-1.8l1.4.7zm-16.6 34.3 1.5-.9.1 1.6zm-1.5 5.4 1.7-1.1.4 1.8zm4 1.2-1.4-.5.9-.9zm-2.6-3.2.3-1.2.8.7zm3.4-12.5-.5-1.3 1.2.1zm6.2-10.8-.5-1.3 1.3.1zm-5.9 13.6-.5-1.3 1.3.1zm1.5 7.2 1.1-.6.1 1.1zm.4-2.8 1.1-.6.1 1zm-8.8-2.9.9.8-1 .3zm9.3-4.7.9.9-1 .4zm2.5-3.4h-1.4l.5-1.2zm1.4-2.7h-1.4l.5-1.2zM297 306l-1.5.8.5-1.1z"/><path d="m292.1 326.4-1.4-1.7 1.9-.5zm1-3.5-1.3-1.7 1.9-.4zm-6.9 5.2.8-2 1.3 1.5zm.9-5.3.7-2.1 1.3 1.5zm-5.2 17.5.7-2.1 1.3 1.5zm-1-30.7 1.1-.4v1zm11.3-11.7-.6 1.1-.6-.8zm-2.1 15.7h-1.2l.5-1zm7.2-5-.4 1.1-.8-.8zm-5.1 8.8-.5 1.2-.7-.8zm4.8-11.5-.8-1.1 1.1-.2zm-19.1 32.5.5.8-.8.1zm-1.9-3.8-.5.6-.3-.6zm6.1 1.5-.7-.3.6-.4zM268.6 317l-.5-.7.7-.1zm1.4 7 .5-.6.3.6z"/><path d="m284.1 321-1 1-.5-1.1zm5.4-3.8-1.1-.6.8-.6zm-.5 9.6.2-1.1.9.6zm4.6-31.3-.3 1.1-.9-.6zm3.6.7-.3 1.2-.8-.7zm2.3-1.8h-1l.4-.8zm-2.4 10.3-.4-.9.9.1zm-5.3 2.6.2-.9.7.5zm-6.2 4.4-.7.8-.4-.9zm1 12.1-1.5 1.4-.6-1.7z"/><path d="m285.2 308-.7.9-.5-.9zm1 3.4-.8.9-.4-1zm5.3-13.3-1.7-1.1 1.5-1zm10.1-5.7-1.1-1.7 1.8-.3zm-.4 2.1-1.2-1.7 1.8-.3zm-5.5.2-1.7-1.2 1.5-1zm8.1-14-1.9-.6 1.2-1.4zm.2-6.5.3-1.4 1.4.9zm-6 17.7.9-1.9 1.1 1.5zm5.7-15.6 2-.3-.5 1.8zm-5.2 18.8-1.7-1.1 1.5-1zm-2.8 7.4-1.8-.9 1.4-1.1zm-21.9 30.9-1.3.6-.1-1.2zm6.4-1.8-.8-.9 1-.3zm-3.9 8.9.7-1 .6.9zm26.9-53.9-.4 1-.6-.8zm-17.8 46.8-.4-3.1 2.6.8zm1.1 10.7-1.6-2.6 2.6-.6z"/><path d="m287.5 341-1.8-2.6 2.6-.6zm1-3.3-1.8-2.5 2.6-.6zm-1.8-4.1.7-3.1 2.1 1.8zm3.2-8.8.8-3.1 2.1 1.8zm1.2-4.2.7-3.1 2.1 1.7zm-.1 8.9-1.7-2.7 2.7-.4zm5.4-23.5-2.9-.9 1.8-2.1zm-4.8 8.7-.4-3.2 2.6.9z"/><path d="m300.4 290.2-.3-3.2 2.6 1zm2.9-4.7-1.4-1.9 2-.5zm-2.8 1.1-.2-2.4 2 .7zm-10 44.5-.8 2.1-1.4-1.5zm-.4-3.1-.9 2.2-1.3-1.5zm2.3-12.8 2-.3-.5 1.8zm-.9 3.7 2-.3-.5 1.8zm1.5-9.2-1.5-.1.6-1.1z"/><path d="m294 306.9-1.4-.1.5-1.1zm2.2 5.5-1.3-1.8 2-.5zm1.4-4.6-1.3-1.8 1.9-.4zm-6.8.3.7-2.2 1.3 1.6zm-2.2-2.1-1 1-.5-1.1zm5.3-3.8-1-.6.8-.6zm-.7 9.8.3-1.2.8.7zm-2.2 7.2.7-3.1 2 1.7zm3.6-9.2.7-3.2 1.8 1.6zm.6 5.9-1.7-2.8 2.6-.4zm4.4-15.8-1.7-2.8 2.7-.4z"/><path d="m298.9 302.5-1.3-2.2 2.1-.3zm1.6-5.6-1.3-2.1 2.1-.4zm-5.5 19.3-.7 2.6-1.4-1.6zm-.4-2.9-.8 2.1-1.3-1.5zm-22.9 18.9.4-.9.6.7zm-3 3.6.8.2-.5.6zm-1.2-6.9v.9l-.6-.3zm4.1 10.6-.5-.8.8-.2z"/></g><circle xmlns="http://www.w3.org/2000/svg" cx="348.9" cy="220.3" r="11.6" fill="#283749"/><circle xmlns="http://www.w3.org/2000/svg" cx="348.9" cy="220.3" r="6.2" fill="#7c59aa"/><path xmlns="http://www.w3.org/2000/svg" fill="#fff" d="M278.4 349.8c-2.1-.3-6.4-.9-12.9-2.3-7.2-1.5-12.8-4-15.6-5.5l-3.5 10.6s1.2 2 13.7 5.6 16.3.7 16.3.7l2-9.1z"/><path xmlns="http://www.w3.org/2000/svg" fill="#10646c" d="m278 352.1 1.2-4.2s-5.8-.1-14.2-2.2c-7.4-1.7-14-4.9-14.6-5.2l-1.2 3.8a71.5 71.5 0 0 0 15.7 5.6c6.7 1.3 11 1.9 13.1 2.2z"/><path xmlns="http://www.w3.org/2000/svg" fill="#fed6d6" d="M306.5 390c.3-.8.7-1.9.9-3l-66.7-26.3c-.4 1.7-1.1 3-1.4 4-.2.9.2 1.7 1.1 2.1l62.8 24.8c1.2.5 2.8-.2 3.3-1.6zm1.1-4.2c.3-3.3-5-11.2-9.3-15.2l-1.3-1.2-7.6 10.5 17.9 7a8.1 8.1 0 0 0 .3-1.1z"/><path xmlns="http://www.w3.org/2000/svg" fill="#ad203a" d="m291 362.3-6 5.2c-.5.4-1.2.4-1.7.1l-.4-.3c-.4-.6-.3-1.4.3-1.8l6-5.2-1.9-2.4-7.5 5.1c-.4.3-1.1.3-1.5 0-.2-.1-.3-.2-.4-.5-.4-.6-.1-1.5.5-1.9l7.2-4.9-1.5-1.9 1.2-6.7c.1-.7-.3-1.3-.9-1.5-1-.3-2.4-.1-4 2.2-2.6 4-2.9 7.4-2.9 7.4s-7.7 2.8-16 .7c-7-1.8-11.8-5.6-14-8.6-.5-.8-1.7-.7-2.2.1a28.6 28.6 0 0 0-3.2 7.8l-1.3 5.5 48.8 19.2 7.6-10.5a76.8 76.8 0 0 1-6.2-7.1z"/><path xmlns="http://www.w3.org/2000/svg" fill="#fff8f8" d="M277.9 362.6c.1.2.2.2.4.3.5.3 1.1.3 1.5 0l7.5-5.1-1.7-2.1-7.3 5c-.6.4-.7 1.3-.4 1.9zm5.1 4.7.3.3c.5.3 1.1.4 1.7-.1l6-5.2-1.7-2.1-6.1 5.3c-.7.4-.7 1.3-.2 1.8z"/><g xmlns="http://www.w3.org/2000/svg" fill="#442624"><path d="m240.5 361.4.4-1.4 66.7 26.1-.2 1.5-66.9-26.2z"/><path d="m290.1 380.3-1.1-.8 7.6-10.8.9 1.1-7.4 10.5z"/></g><g xmlns="http://www.w3.org/2000/svg" fill="#dd5472"><path d="m284.2 369.5.9.2-.4-.9-.5.7zm5 1.6-1.1-.6-.1 1.5 1.2-.9zm-4.1-23.5-.9-1.1-.7 1.6 1.6-.5zm-2.7 5-.7 1.5 1.7-.5-1-1zm12.3 14.7.3-.1-.8-.9-.5 1.3.8-.2-.6 1.3 1.7-.5-.9-.9zm-18.5-11.4-1.4.2.8 1.4.6-1.6zm2.8.2-1.3-.6v1.7l1.3-1.1zm7.7 4.7-1.3-.7-.1 1.7 1.4-1zm-1.9 3 1.4-1.1-1.2-.7-.2 1.8zm7.5 10 1.2-.8-1.1-.6-.1 1.4zm-1.2-11.2-1.3.7 1.2 1 .1-1.7zm-16-4.9-1.2-1.3-.5 1.4 1.7-.1z"/><path d="m272 358.1 1.7-.1-1.2-1.3-.5 1.4zm-4.7 2.4 1.6-.2-1.2-1.3-.4 1.5zm17.8-.5-1.4.8 1.3 1 .1-1.8zm-18.3-2.9-.4 1-1.1.8 1.4.9-.2-1.2 1.3-.1-1-1.4zm-9.1.1 1.4-.1-1-1-.4 1.1zm11-.2-.4 1.1 1.4-.1-1-1zm-16.6-2.3 1.4-.1-1-1-.4 1.1zm-1.6-4.2-.4 1.1 1.3-.1-.9-1zm5.2 4.9-1-1-.4 1.2 1.4-.2zm-7.8-7.4-.4 1.2 1.4-.1-1-1.1zm45 18.8-1.1.6 1.1.9v-1.5zm-.5-2.7-.9-.8-.5 1.3 1.4-.5zm-.9 2.5-1.3-.7-.1 1.7 1.4-1zm-7.9 7.6h-.5l-.1-.4-.4.6h.4l.4.4.2-.6zm6.6-9.6-1-.5v1.1l1-.6zm.2.5.7.8.2-1-.9.2zm1.5 5.2 1-.1-.5-.7-.5.8zm-42.8-14.4h1.1l-.8-.9-.3.9zm6.2 1 .5-.8-.8-.2.3 1zm-7.1-4.4.9.4-.1-.8-.8.4zm30.3 4.6 1.1.2-.5-1.1-.6.9zm-6.3 4.7 1-.5-1-.5v1zm8.3-3.7 1.1.2-.5-1.1-.6.9zm6.5 2.2.8-.6-.7-.4-.1 1zm-4.9-2.9.8-.6-.7-.4-.1 1zm-2.6 6.3.7.7.2-.8-.9.1zm1.9-8.5-.9.3.8.6.1-.9zm-8.7 11.5.8.5.1-1.2-.9.7zm1.8-5.8.9-.1-.7-.8-.2.9zm4.5 5.8.4.9.5-.8-.9-.1zm-2.4-3.6.8.5.1-1.2-.9.7zm0-2.4-1 .7.8.5.2-1.2zm-12.2-4.3-.9.8.9.3v-1.1zm13.2 4 .7-.5.1.1v-.1l.5-.5-.6-.1v-1l-1.3.7.2.2.4 1.2zm6.5-7.5.3-2.1-1.8.6 1.5 1.5zm-33.2-.2-.8.1.5.9.3-1zm10.8 3.7-1-.3.4.8.6-.5zm7.9 5.5.7.3-.1-1-.6.7zm-2.9-4.8-.9-.2.4 1 .5-.8zm6.8 3.2.5-.7-.9-.2.4.9zm-13.7-4.6-.1.7.7-.2-.6-.5zm14.7 3.3.3.6.4-.7-.7.1zm2.8-3.4-.4.4.6.1-.2-.5zm3.2-1.2-.1.6.5-.4-.4-.2zm7.8 11.7-.8.1.5.5.3-.6zm-8.2-.2.5.1-.2-.6-.3.5zm4.1-4.1-.5-.2v.6l.5-.4zm2.1 12.4.5.5.3-.6-.8.1zm-.1-3.5.6-.3-.6-.1v.4zm8.1-.7-.8.1.5.5.3-.6zm-3.9.4-.2-.6-.3.5-.2-.1v1l.8-.3-.5-.5h.4zm3.6-4.2-.6-.1.1.5.5-.4zm-28-2 .5-.1-.5-.4v.5zm5.6.7.2.6.3-.6h-.5zm7.4 5.7.8-.5-.9-.6.1 1.1zm-4.7-4.8.6.6.3-.9-.9.3zm7.9-1.9-.4.8.9.1-.5-.9zm-23.9-5.2.5.8.4-.8h-.9zm-2.4-1.1.5.8.4-.8h-.9zm-2.3-1.4.7.1-.2-.8-.5.7zm3-1.3v.7l.7-.4-.7-.3zm8.1 4.7-.3.6h.8l-.5-.6zm-17.7-7.9.7-.4-.8-.6.1 1zm29 7.1 1.2-.7-1.2-1v1.7z"/><path d="m266.2 362.1.1 1 .7-.5-.8-.5zm5.3-2.3-.7-.5v1.1l.7-.6zm-7.9-1.2 1.1 1 .6-1.6-1.7.6zm-10-4.1 1.5-.9-1.2-.8-.3 1.7zm-2.1-1.3 1.4-.8-1.2-.8-.2 1.6zm-2.2-3.8-.6 1.5 1.6-.5-1-1zm7.6 6.3 1 1 .6-1.6-1.6.6zm-11.9-7.1 1.1 1 .6-1.5-1.7.5zm16.3 14.7.6.1-.3-.6-.3.5zm22-13.2 1-.5-1-.8v1.3zm-20 9.8-1.1.3.7.8.4-1.1zm.8 1.5 1 .2-.5-1-.5.8zm25.7 4.4h-.2l.1-.1-.1.1-.6-.1.1.4-.2.1.3.1.2.5.2-.3.3.1-.1-.4v-.4zm-.1 6.4.8.3-.1-.8-.7.5zm-6.6-3 .8-.4-.6-.6-.2 1zm5.7-9.2h-1l.3 1.1.7-1.1zm-5.9 3-.6-.6v1l.6-.4zm4.3 5.5.8.5.1-1.2-.9.7zm.5-9.5-.6-.6-.3.8.9-.2zm3.9 5.6.2.6.3 1.1.3-.4.9.7v-1.5l-.7.4.2-.2-.6-.1.4-.6h-1zm2 6.5-.8.5.9.3-.1-.8zm-7.5-3.7v1l.8-.3-.8-.7zm4.1 1.2 1.1.4-.5-1.1-.6.7zm4.3 2.2.8-.5-.7-.5-.1 1zm-7.4 2.8.7.7.2-.8-.9.1zm9.4-4.9-.7-.7-.4 1.1 1.1-.4zm-50.3-20.9 1.3-.1-1.2-.8-.1.9zm38.2 8.6-.6-2.5-1.7 1.5 2.3 1zm-21.2.1-2.1 1.1.1-.1-1.6.6 1.1 1 .5-1.3 1.7 1.1.3-2.4zm8.9 2L270 357l-.3 2.2 2.4-.7z"/></g><path xmlns="http://www.w3.org/2000/svg" fill="#aad2f9" d="M224.9 232.3c-11.8-2.3-24.1-4.6-34.6-7.2-3.4-.8-6-2.2-8-3.9 1.4-.3 9.3-2 13.3-6.9a21 21 0 0 0 3.4-6.2h-1.1c-.7 1.9-1.7 3.9-3.1 5.6-3.8 4.7-12.2 6.5-13.5 6.7-3.9-3.8-5-8.8-5.2-12.3h-1c.4 5.6 2.9 15 15 18 10.5 2.6 22.8 4.9 34.6 7.2 24.9 4.7 48.3 9.2 52.9 15.3 5.5 7.4 2.9 18.6-.7 34.1l-.7 2.8-9.6 40.6 1 .2c0-.1 3.4-13.5 9.6-40.6l.7-2.8c3.7-15.8 6.4-27.2.6-34.9-4.9-6.4-28.5-10.9-53.6-15.7z"/><linearGradient xmlns="http://www.w3.org/2000/svg" id="u" x1="207.4" x2="202.5" y1="229.6" y2="200.7" gradientUnits="userSpaceOnUse"><stop offset="0" stop-color="#4089c2" stop-opacity="0"/><stop offset=".9" stop-color="#247cde"/></linearGradient><path xmlns="http://www.w3.org/2000/svg" fill="url(#u)" d="M151.1 221.2c-1.2 8.2-.4 13.8-.4 13.8s20.3 5.5 49.3 2.6c46.6-4.8 62.3-23.6 62.3-23.6l-22.2-5.9h-86c-1 3.6-2.2 8.2-3 13.1z"/><defs xmlns="http://www.w3.org/2000/svg"><path id="h" d="M392 321.6a63.5 63.5 0 0 1 0 126.8 63.5 63.5 0 0 1 0-126.8m0-15a78.4 78.4 0 1 0 0 156.8 78.4 78.4 0 0 0 0-156.8z"/><path id="i" d="M392 324.5a60.7 60.7 0 1 1-.2 121.4 60.7 60.7 0 0 1 .2-121.4m0-7a67.6 67.6 0 1 0 0 135.3 67.6 67.6 0 0 0 0-135.3z"/></defs><linearGradient xmlns="http://www.w3.org/2000/svg" id="v" x1="199.3" x2="199.3" y1="108" y2="108" gradientUnits="userSpaceOnUse"><stop offset="0" stop-color="#997ebd"/><stop offset=".4" stop-color="#7c59aa"/><stop offset="1" stop-color="#6629c8"/></linearGradient><path xmlns="http://www.w3.org/2000/svg" fill="url(#v)" d="M199.3 108z"/><linearGradient xmlns="http://www.w3.org/2000/svg" id="w" x1="152" x2="251.2" y1="153.1" y2="153.1" gradientUnits="userSpaceOnUse"><stop offset="0" stop-color="#997ebd"/><stop offset=".6" stop-color="#7c59aa"/><stop offset="1" stop-color="#603b99"/></linearGradient><path xmlns="http://www.w3.org/2000/svg" fill="url(#w)" d="m153.8 208.5 91.1-.3s3.3-25.1 5.1-61.1c1-19.4 7.5-47.8-24.1-49.4-12.7-.7-26.7 7.9-40.7 36.2-8.9 17.9-28.7 61.4-33 72-.6 1.3.3 2.6 1.6 2.6z"/><linearGradient xmlns="http://www.w3.org/2000/svg" id="x" x1="276" x2="225.2" y1="190.6" y2="192.8" gradientUnits="userSpaceOnUse"><stop offset="0" stop-color="#cc7a5e" stop-opacity="0"/><stop offset=".9" stop-color="#aa5f4b"/></linearGradient><path xmlns="http://www.w3.org/2000/svg" fill="url(#x)" d="M360.5 211.9c-1.8-3-10.6-7.3-13.4-7.7-22.3-3.3-45.5-15.8-45.5-15.8a85.3 85.3 0 0 1-19.3-14c-4.7-4.5-24.2-18.7-24.2-18.7l-16.1 8.7 18.7 22.6c6.6 8.1 21.5 11.8 25.7 13 5.7 2 21.4 6.2 34.9 9.4 4.9.9 11.6 2.9 17.4 4.5 2-3.6 5.8-6.1 10.2-6.1a11.6 11.6 0 0 1 11.6 11.6c0 1.2-.2 2.3-.5 3.4.2.1.7-.2.8-.3 2-5.3 1.1-8.5-.3-10.6z"/><linearGradient xmlns="http://www.w3.org/2000/svg" id="y" x1="200.9" x2="235.8" y1="165.1" y2="154.7" gradientUnits="userSpaceOnUse"><stop offset="0" stop-color="#6a4bb4" stop-opacity="0"/><stop offset="1" stop-color="#4f3282"/></linearGradient><path xmlns="http://www.w3.org/2000/svg" fill="url(#y)" d="M211.8 105.6s-17.6 12.6-16.7 45.1c.3 11.6 0 17.1 1.1 32 1.3 16.2 1.1 25.7 1.1 25.7l47.5-.1 4.7-50.3-37.7-52.4z"/><path xmlns="http://www.w3.org/2000/svg" fill="#ea9d7d" d="M362.2 207.7c-1.9-1.1-6.3-2.2-9.4-3.5-7.4-3.2-13.5-4.8-18.8-7.3-3-1.5-41.3-27.5-45.6-30.1-5.6-4.1-27.3-35.2-27.3-35.2l-31.5 16.1s28.7 38.3 34.5 42.7c6.7 5.3 17.2 8.2 31.4 12.3s26.5 6.7 37.5 9.5c1.7.4 3.3 1.3 5.7 1.6 2-3.6 5.8-6.1 10.2-6.1a11.6 11.6 0 0 1 11.6 11.6l-.1 1.5-.5 2 .5.5c3.6 1.7 4.8-14 1.8-15.6z"/><path xmlns="http://www.w3.org/2000/svg" fill="#cc7a5e" d="M360.9 223.8c-.3 0-1.8-.3-1.3-.3l.3-1c.3.2 1.1.4 1.2.3.7-.3 1.3-2.4 1.5-3.3.6-2.2.6-5.9.6-7.7 0-1.9-.2-3.6-3-4.4-3.2-.9-23.4-8-24.2-8.3l-.1-.1c-.1-.1-12.9-8.7-18.8-12.5l-16.7-11a204 204 0 0 0-7.8-5.1l-.3-.2c-2.8-1.9-5.9-4-9.4-8.1a405.4 405.4 0 0 1-13.5-17.5l.8-.6c.1.1 9.9 13.3 13.5 17.4 3.4 4.1 6.5 6.1 9.2 7.9l.3.2 7.8 5.1 16.6 11 18.8 12.5 24.1 8.3c3.5 1 3.8 3.3 3.8 5.3s0 5.6-.6 8c-.5 2.1-1.1 3.6-2.1 4l-.7.1z"/><linearGradient xmlns="http://www.w3.org/2000/svg" id="z" x1="217.9" x2="281.2" y1="137" y2="111.1" gradientUnits="userSpaceOnUse"><stop offset="0" stop-color="#997ebd"/><stop offset=".6" stop-color="#7c59aa"/><stop offset="1" stop-color="#6a4bb4"/></linearGradient><path xmlns="http://www.w3.org/2000/svg" fill="url(#z)" d="M275.3 146s-11.8-21.1-22.2-32.5c-10.4-11.3-21.1-23.2-38.2-13.3s-8.8 30.8-3.3 42.7a692 692 0 0 0 14.8 28.8l48.9-25.7z"/><linearGradient xmlns="http://www.w3.org/2000/svg" id="A" x1="238.8" x2="261.8" y1="127.6" y2="118.2" gradientUnits="userSpaceOnUse"><stop offset="0" stop-color="#6a4bb4" stop-opacity="0"/><stop offset="1" stop-color="#4f3282"/></linearGradient><path xmlns="http://www.w3.org/2000/svg" fill="url(#A)" d="M220.9 97.8s11.4 9.5 18.7 29.1 2.5 36.6 2.5 36.6l33.2-17.3s-11.4-19.5-18.5-28.2-13.5-16-21.3-19.4c-8.1-3.6-14.6-.8-14.6-.8z"/><path xmlns="http://www.w3.org/2000/svg" fill="#51347a" d="M275.2 146.6v-.6c-.2-.3-.5-.4-.9-.3L226.5 171c-.3.2-.4.6-.3.9s.5.4.9.3l47.8-25.3.3-.3z"/><g xmlns="http://www.w3.org/2000/svg" fill="#59338c"><path d="m245.1 122.4-.7.4-.1-.8zm-1.5-4.5.4 1.1-1.3-.1zm18.1 8.7.4 1.1-1.3-.1zm6.5 9.8.4 1.1-1.3-.1zm-8.1-6.6.4 1.1-1.3-.1zm-1.2-7.1.4 1.1-1.3-.1zm-3.3 1.2.4 1.1-1.3-.1zm3-2.2-.6 1-.7-1.1zm5.7 11.5-.6.8-.7-1zm1.5 3.3-.6 1-.7-1.1zm-2 4.2-.7 1-.6-1.2zm5.8-2-1.2 1.7-1.1-2zm.2 4.5-.6.9-.7-1.1zm-5 .6-.7 1-.6-1.1zm8.5 2.1-1.7.8-.1-1.9zM250.1 115l-.7.9-.7-1.1z"/><path d="m247.3 108-.6.9-.7-1.1zm-7.4-6.2-.6 1-.7-1.2zm13.4 12.8 1.5 2-2.8.6zm-4.3-4.9 1.4 1.9-2.8.6zm7.8 9.5 1.5 2.1-2.8.5zm6.3 9.1 1.5 2-2.8.6zm4.1 6.6 1.4 2-2.8.6zm3.3 5.6 1.4 2.1-2.8.5zm-19.6-28.3.4 1.1-1.3-.1zm4.9 6.6.4 1.1-1.2-.1zm3.7 5.2.7 2.1-2.5-.2zm-3.3-1.3-1.7 1.3-.7-2.3zm1.2 6.6-1.7 1.4-.6-2.4zm-5.1-14-1.8 1.4-.6-2.4zm-8.9-8.8-1.5 1.2-.5-2.1zm4.4 8.4-1.9-.2 1-1.8z"/><path d="m248.8 120.2-1.9-.1 1.1-2zm10.8 12.9-1.8-.1 1-1.9zm1.4 6.7-1.9-.2 1.1-1.9zm0 4.9-1.9-.2 1.1-1.9zm6.6 4.7-2.4 1.2v-2.9zm.6-6.8-1.9-.2 1.1-1.9zm-5-7.5-1.9-.2 1.1-1.8zm0 3.6-.3-1.9 2.1.6zm-16.5-30 .4 1.1-1.3-.1zm-7.3 14.1.7-.1-.3.7zm10.6-3.6-.9-.1.6-.9zm2.7-5.6-.3.7-.6-.7zm-7.8 1.1.6.5-.8.4zm-1.4 13.6-.4.3-.1-.6zm-1.1-3 .2.3h-.5zm-2.4 3.3.4-.1-.2.5zm4.1-19.6-.7.4-.1-.9zm-1.8-4.9.2.7-.8-.1zm-4 5.3h.7l-.2.7zM266 135l-.5.7-.5-.8zm-3.7-3.6.5.5-.7.3zm-1.4 6.4.6-.4.1.8zm-.8-8.1-.7.5-.1-1zm6.9 4.3-.6.3-.2-.8zm-7.6-5.9-.6.4-.2-.8zm-1.1-3.3.2.7-.7-.1zm1 1.5.2.6h-.7zm-4.9 3.8h.6l-.2.7zm5.9-2 .7-.1-.3.7zm-3.3 11.3-.6-.5.7-.5zm3.9-3.5-.5.5-.2-.7zm-6.2-1.8.3.6-.8.1zm5.7 18.3-.8-.5.9-.5zm2.8-21.7-.6-.5.7-.4zm-5.7 7.4L256 137l1.9-1zm-2.5 12.1.2-1.9 1.8 1.1zm5.9-19.9-.7-.5.8-.5zm3.9 1.5-.7-.5.8-.4zm5.5 9.7-.6-.5.8-.4zm-1.7-3.1-.7-.5.8-.4z"/><path d="m252 157.5-.8-.5.9-.5zm-8.6 4.5-.8-.5.9-.6zm20.8-13.3-.5.4-.2-.7zm-6.3-1.8.3.6h-.7zm2.3 1.8.3.6h-.7zm.7 2.5.3.6-.8.1zm4.1-5.7.2-.6.7.5zm5.3 1.9-1.3-.8 1.5-1zm-2.8-11.3-.6-.4.7-.4zm-1 3.8.1-.7.6.5zm-3.6-4.1.2-.7.6.5zm6.3 5.9-.4.5-.3-.7zm-11.3-6.4-.4-.3.5-.3zm2.5-2.1-.3.3-.1-.5zm-4-1.1.2.3-.5.1zm-3.4-5.3.5-.1-.1.6zm-.1 3.3.1-.4.4.2zm3.6-2.2-.4-.1.3-.4zm-9.7-4.1.5-.1-.1.6zm-.1 3.3.1-.4.4.2zm3.6-2.2-.4-.1.3-.4zm.4-6.2.5-.2-.1.6zm-.1 3.3v-.4l.4.2zm3.6-2.2-.4-.2.3-.3zM241.7 109l.5-.1-.2.6zm-.1 3.2v-.4l.4.2zm3.5-2.1-.4-.1.3-.4zm-1.7 40.7.4-.5.3.6zm5.9 2.8-.3-.3.5-.2zm.1-5.6-.5.2.1-.6zm-.9-5.1-.4-.1.2-.4zm-3.5-3.5-.1.4-.4-.3zm.2 3.2.3-.5.3.6zm5.1 2.6-.3-.3.5-.1zm.2-4.9-.4.2.1-.5zm-5.1-7.5.3-.5.3.5zm5 2.6-.2-.4.5-.1zm.3-4.9-.4.1v-.4zm1.7 18.4-.3-.5.6-.1zm2.2-6.9-.4.1.1-.5zm-1-4.9-.1.4-.4-.2zm9 6.2v-.8l.8.3zm5.1.9-.7-.2.5-.6zm-2.5-6.1-.3.6-.4-.5zm-4.7-4.9-.1-.8.9.3zm5.1.8-.7-.1.5-.6zm-2.5-6-.3.6-.5-.6zm2.6 19.4 1.1-2.2 1.7 2.2zm3.2-1.8.4-.6.5.6zm3.3 1-.5-.5.7-.3zm-.6-2.9-.6.4-.1-.7zm-24.5 15.2-.6-.4.7-.5zm2.5-.8-.5.4-.2-.6zm-3.2 2-.4.5-.2-.7zm-2.8-3.4.4.5-.8.1zm6.6-1.4.3-.8.6.6zm2.3 1.2.2-.7.6.5zm5.7-2.3.2-.7.7.5zm-4.6 1.6-.5-.3.6-.4zm1.5.2-.5-.3.5-.4zm-1-4.6-.5.5-.2-.7zm-13.3 5.7.3-.6.5.6zm3.8 3-.5-.4.7-.4zm.5-6.1-.5.4-.1-.7zm6.9 1.3-.4-.6.8-.1zm4.5-1.7-.5.3.1-.7zm-4.8-3.7.1.6-.7-.2zM237.9 163l.3-.7.6.6z"/><path d="m241.3 162.5-.5-.3.7-.4zm.9-2.7-.4.4-.2-.7zm13.5-5.6-.1-.7.8.2zm3-1-.7-.1.4-.6zm-1.3 1.4-.6-.1.4-.6zm.7-5.3-.2.5-.4-.5zm9.3-.6-.2.5-.4-.5zm-1.2-7.6-.5 1.3-1.1-1.3zm-9.1 10-.2.6-.5-.5zm4.8-.4v-.7l.7.3zm1.7.1v-.7l.7.3zm-1.9-5.3v-.6l.6.3zm-1.3-4-.1-.7.7.3zm5.7 7.8-.5-.1.4-.5zm-2.6-.6-1.9-.4 1.3-1.9zm.5-2.2-.2.4-.4-.4zm-7.7-.6-.1-.6.7.2zm4.1.7h-.5l.3-.6zm-2-4.8-.3.5-.3-.5zm-4.5-19.1-.1.7-.8-.4zm-5-1.5.7.2-.5.6zm1.8 6.2.4-.6.4.6zm6.9-4.4-.1.8-.8-.4zm-5-1.3.7.2-.5.5zm1.9 6.2.3-.6.4.6zm-.4-1.1-.3-.7h.9zm5.1-.7-.7.1.3-.8zm-4.3-4.8v.6l-.7-.4zm-5.4-5.9-.1 1-.9-.5zm-6-1.7.8.2-.6.7zm2.2 7.5.4-.7.5.8zm1.2-3.3-.8.5-.2-1z"/><path d="m244.7 112.1.3.7-.9-.1zm-4.7 6.3h.8l-.3.8zm3.4-3.7-.7.5-.1-.9zm-1.8-4.7.2.6-.8-.1zm-3.9 5.2.6-.1-.2.7zm8.8-4.2-.7.4-.1-.8zm-1.8-4.8.2.6h-.7zm-3.9 5.2h.7l-.3.6zm8.3.6-.1.9-.9-.5zm-6-1.7.8.3-.6.7zm2.2 7.5.5-.7.5.7zm11.8 3.2-.1.7-.8-.3zm3.7 4.7v.8l-.8-.4zm-7-8.9v.8l-.8-.4zm-6.2-5.5.5.5-.8.3zm17.4 20.9.5.5-.8.4zm-12.9-12.6.6.1-.5.6zm1.8 6.1.4-.6.4.6zm6.9 8.3v.8l-.8-.4zm3.8 4.9v.7l-.8-.4zm-6.9-8.9-.1.8-.8-.5zm-6.3-5.6.5.5-.8.4zm17.4 20.9.5.5-.8.4zm-12.9-12.6.6.2-.5.5zm1.8 6.2.4-.6.4.6z"/></g><g xmlns="http://www.w3.org/2000/svg" fill="#be95f9"><path d="m216.3 100-.2 1.1-1.1-.8zm-5 19.6.5-.6.4.7zm-6.2 5.3.4-.6.4.7zm9.7-6.4-.5-.6.8-.2zm-2.6-15.2.8.4-.8.7zm-4.8 12.7.9.3-.8.8zm-2.4 1.6.9.3-.8.7zm12.8-18.7 1.5-.6-.1 1.8z"/><path d="m221.8 97.4 1.7-.3-.5 1.8zm-1.7.6 1.1.5-1.1.9zm3.3 1.4.8.4-.8.6zm.8-2 .8.3-.8.7zM207.3 108l.5-.5.3.7zm4.4-2.6-.8-1.1 1.5-.4zm-1.7 2.1-.5-.6.8-.2zm-.8 3.9-.1.9-.9-.5zm-3-.8.6.6-.9.3zm4.2.7.7.1-.6.6zm9.7-7.6.7.3-.6.6zm2.1-2.5.7.3-.6.6zm2.6-1.6.7.2-.6.5zm.9-.4.7.3-.6.5zM208 120.5l.7.3-.6.6zm-2.1 1.2.8.2-.6.7zm3.2-3.6v.8l-.8-.4zm-1-3.8v.8l-.8-.4zm-2.6 2.5.4-.6.5.7zm18.6-13.4-.3.4-.4-.5zm-3.5-1.3.4.3-.5.2zm-1.9 6.6.4-.3.1.6zm1-3.2.3.5-.6.2zm-2.8 6.7.5-.2-.1.5zm-5.8 11.9.5-.2v.6zm6.3-7.4-.1-.5.6.1zm-.4 4.7-.1-.5.5.1zm7-2.2-.1-.4.5.1zm-12.2-5.9.3.9-1-.1zm-2.6-8.3.7 1.7-2-.1zm9.7-4.7.2.9-1-.2zm-13.8 12.8h.8l-.3.8zm5 5.7.1-.7.7.5zm-1.8-7.9-.3 1.2-1.1-.8zm-.2 1.8-.2.9-.8-.7zm-1.5-.7-.3.8-.7-.8zm6.3-2.4.7.4-.8.5zm-8.3 6.3.3-1.3 1.1.9zm20-17.3.7.3-.7.6zm-6.9 1.2.4-.5.4.6z"/><path d="m227.2 97.9.4-.5.3.6zm-1.1.5-.4-.5.7-.1zm-4.7 1.5-.1.6-.7-.4zm1.5-1.6.3 1.1-1.3-.2zm-2.3 1.9-.1.7-.7-.4zm-3.1 1.4-.1.7-.7-.4zm-.6-2 1.2.3-.9 1.1zm4.6-1.6.6.1-.5.5zm-3.9 5.3.4-.5.3.6zm5-3.2-.2.7-.6-.5zm5.3-.3.5.3-.6.3zm-4.7-1.2.4-.5.3.7zm3.3 2.4-.2.7-.6-.5zm-1 3.1.5.3-.6.4zm3.3-6.4.6.3-.6.4zm-1.2 5.4.5-.5.2.6zm.6-3.9-.5.2v-.6zm4.3-.4-.6.1.1-.6zm-2.3-.6-.5.2.1-.6zm3.2 1.1.2.6-.7-.1zm2.2 1.3.1.6-.7-.1zm-4-1.3-.7.4-.1-.9zm-3 1.3.2.6-.7-.1zm2.3.8h.6l-.3.6zm2 1h.6l-.3.6zm5-.4.2.6-.6-.2zm-4.1 2.6h.6l-.3.6zm3.3 1.9h.6l-.3.6zm-22.3-6.2.3 2.2-2.4-.8zm-1.9 2h.6l-.3.6zm2.6-.8h.7l-.3.7zm-1.3 4.4.2-.6.5.4zm-5 10.2.1-.6.6.4zm5.5-12.1.2-.6.5.4zm-4.5.1.2.7-.8-.1zm3.8 3 .2.7-.8-.1zm-2.2-4.7.4 1.4-1.7-.2zm-.8 6.8.2.7-.8-.1zm2.4 5.9.1.7-.8-.1zm5.4 2.9.4-.6.4.7zm3.4-1.1-.4-.6.8-.2zm2.7-1.8-.1-.5.5.1zm-4.1-1.6.2.8-.8-.2zm4-1.4.2.7-.8-.1zm4.7-.3.2.7-.8-.1zm.3-6.9.2.7-.8-.1zm-22.4 3.9h.6l-.3.6zm.8-.8.1-.6.6.4zm-.4 2.6.1-.6.6.4zm-1 9.2v.9l-.9-.4zm1.3-.2.7.2-.6.6zm-2.3 3.1v.6l-.8-.3zm3.6-1 .3.9-1-.1zm-3.9-2.3-.3.9-.7-.7zm.3 1.7-.2.9-.8-.7zm1.1 3.3.1-.6.6.4zm.4-5.6.1-.6.5.4zm8-10.4.1.7-.8-.2zm-3.6-.9h.6l-.3.6zm2.4 4.7.2-.6.5.5zm-8-2.2.5-1 .7 1zm5.2-3.9.6-.4.2.8zm-1.7 0 .6-.4.2.8zm7.2-.9-.3-.7.9.1zm-.7-2.3 1.3.4-1.1 1.1zm.6-1 .4.3-.5.2zm-.9 3.5.3.4-.6.2zm-2.1-2.3.4-.5.3.6zm-.8 1.9-.3-.7.9.1zm1.5 1.8-.3-.8.8.1z"/><path d="m216.4 109.6-.2-.7h.8zm-2.6-5.2v1.3l-1.3-.6zm-4.1 4.8-.5.7-.6-.8zm2.8 2.2-.5.7-.6-.8zm7.4-10.1-.5.8-.5-.9zm1.9 3.5-.5.8-.5-.8zm-6.3-1.3v.8l-.8-.4zm-5 3.3.6.1-.5.6zm2.1 0 .3-.5.4.5zm-1.1 2.4.3-.6.5.6zm4.6-2 .6.1-.5.5zm11.2 2 .4-.1-.1.5zm-3.3 2.2h.5l-.3.4zm-2.2-4.3.4.7h-.9zm-2.3 5-.2.7-.7-.5zm5-4.9-.2.7-.7-.5z"/><path d="m221.5 110.1.5-.5.2.7zm4.3-3.6.4.4-.7.3zm-15.5 2 .3-.6.4.6zm-1.3 7 .6.4-.6.5zm1-2.6.2.7-.8-.1zm-3 2.2.3.7-.9-.1zm.6-1.7h.6l-.2.7zm.9-.7.2-.6.5.5zm-.9 2.4.3-.5.4.5zm-1.3-.6.3-.6.4.6zm10.6-8.1.1-.6.6.4zm-6.3 6.5 1.5.7-1.4 1.3zm-1.9-4.1 1.5.7-1.4 1.3zm-2.3 6.1-.3.9-.8-.8zm7.8-2.1v2l-2.1-.9zm-2.8-7.6.1 2-2.1-.9z"/><path d="m214.4 101.6-.7 1.9-1.7-1.6zm-5.9 7.1.1 2-2.1-.8zm1.5 2.4v1.9l-2.1-.9zm1.7-3.2v2l-2-.9zm-2.3 4.9.6 1.9-2.2-.2z"/><path d="m208.5 113.1.3 2-2.1-.6zm7-6.4 1.6.7-1.5 1.3zm-5.6 7.7 1.3 1-1.7.9zm6.2-9.7 1.1.4-.9 1zm-4.2 6.5.6-.8.6 1zm9.7-.1-.7-.7 1.1-.3zm1.9 4.2-.4 1.1-.9-.9zm-6.4-4 .8.4-.9.6zm0 9.5.7-.6.3 1zm1-10.4h-1.2l.7-1.2zm2.3-7.3-.3.9-.8-.7zm-9.3 2.7.8.5-.9.6zm1.1-3.6 1.6.7-1.4 1.3zm2.7-.3 1.7 2-2.8.9zm8.9-4.8 1.4 1.5-2.2.7zm-9.5 8.7-.1 2.6-2.7-1.2zm2.8-4.5 1.2 1.2-1.7.8zm-.9-1.9 1.3 1.1-1.8.7zm.8 16-.5 1-.9-1zm-2.8 1.2-1-.1.5-.9z"/><path d="m219 116 .8.5-.9.6zm-4.1-8 .7.7-1.1.4zm-1.9-5.7 2.8-2.4 1.3 3.8zm-3.8 2.5 2.9-2.5 1.2 4zm-2.3 3.6 2.3-3 2 3.7zm13.3-8.3-.8 1.7-1.5-1.6z"/><path d="m216.1 99.9 3.4-1.8.3 4.1zm-10.8 13.2 1-3.6 3.3 2.5zm10.6-1.2-1.6.2.6-1.7zm-4 16.4 1.4-.9.3 1.9z"/><path d="m207.3 127.5 1.4-.9.3 1.9zm6 0 1.4 1.5-2.1.8zm-6.7-3.4 1.2 1.6-2.2.6zm-.6-4.6.8 1.8-2.2.1z"/><path d="m206.8 128 1.6 1.1-1.9 1.2zm3.1-.3 1.7 1-1.9 1.3zm-1.5-1.6 1.3 1.6-2.2.5zm1.5 4.7 1.7 1.2-2 1.1zm2.3-16.7.4 2-2.2-.5zm-.7 5.2-2 .3.6-2.2z"/><path d="m210.6 117.7-2-.2 1.1-2zm-.5 6.7 1.7-.1-.8 1.7zm2.7 5.8 1.4-.9.3 1.9zm-3.6-9.8 1.1-.4v1.3zm1.4 7.5-.2-1 1.1.3zm7-6.6-.9-.1.5-1zm4.4 1.7.4 1h-1.3zm-7.6 1.3 1-.1-.3 1z"/><path d="m221 131.4.1-1 .9.5zm5.5-16 .2 1.1-1.3-.4zm-7.5-1.1 1 .1-.6.9zm4 8.7.3-.8.8.7zm-8.5-6.9 2 .8-1.8 1.7zm1.9 5.9.7-.8.5 1z"/><path d="m215.3 116.9-1 .6-.1-1.3zm-1.8-7.3.2.9-1-.2zm-6.6 7h1l-.5 1zm18.7-11.4-1 .6-.2-1.3zm-2.6-7.1.4.9-1.1-.1zm-5.9 7.7 1-.1-.4 1zm-2.1 15.5-.7.9-.7-1.2zm-4.9-5.9.6.7-1 .3zm-2.9 9.1.9-.4v1.1zm-2-2.8h1.7l-.7 1.7zm2.3-1.3 2.4 1-2.2 1.9zm1.8 2.5 1.5 2.1-2.9.7zm-1-8.7.4 2.6-2.9-.8zm-.9 3.7 1.7-.1-.7 1.8zm-2.1-.4 1.7.3-1.2 1.6zm11.9 10 .3 1.1-1.3-.1z"/><path d="m215.1 130.8-.8.6-.2-1zm4-4.3 1-.1-.4 1zm-11.7-9.8-.3.9-.8-.7zm3.7 7.6.9.1-.6 1zm7.5-20.9.6 1.9-2.2-.2zm-14.2 13.3.9-3.7 3.4 2.5zm0 4.1V117l3.9 1.7zm.7 4.5-.4-3.7 4 1.1zm1 4.1-1-3.6 4.2.6zm1.1 4.1-1.2-3.6 4.2.3zm7.3-12-.8.5-.1-1zm2.8.3-1.2 1.1-.6-1.7z"/><path d="m216.2 119.2-.8.5-.1-1.1zm-2 1.9-.8.4-.1-1zm6.6 1.8-1 .9-.5-1.2zm-4.3-7.3.5 1-1.3.1zm-5 9.7 1.1-.3-.2 1.2zm2.2 11.2 1.5-.8.2 1.9zM210 135l1.5-.8.1 1.9zm1.8 6 .4.9h-1.1z"/><path d="m215.8 133.7 1.6 1.1-2 1.1zm-5.9 1.8 1.6 1.2-1.9 1.2zm1.9.3 1.6 1.2-1.9 1.1zm-.7-3.7 1.6 1.2-1.9 1zm2.2 8.1 1.6 1.2-1.9 1.1zm-1.3-2 1.6 1.2-1.9 1.2zm3.1-.9 1.4-.9.2 1.9zm-4.5-10 .9-.7.3 1.3zm2.5 7.1-.3-.9 1.2.1zm5.9-7.7-1 .1.4-1.1zm5 .4.6 1-1.3.2zm-7.1 2.9.9-.4-.1 1.1zm7.8 5.4-.1-1 1.1.4zm-4.5-2.9.6 1-1.3.2zm-1.4 3.3-.7.8-.4-1zm3.9-5.2.9-.3-.1 1.1z"/><path d="m208.8 137-1.5-3.5 4.2.1zm1.6 3.5-1.5-3.5 4.2-.1zm12.5 14.1 1.5-.9.2 1.9zm-3.1.5 1.4-1 .4 1.9zm1.2 3.6 1.4-1 .3 1.9zm.2-1.9 1.5-.8.2 1.8zm1.7-6 1.7 1.1-1.9 1.3zm-4.8.4 1.7 1-1.9 1.4zm-2.6-3.1 1.7.9-1.8 1.4zm4.7 11.6-1.2-2.3 3-.1zm3.6-2.7 1.7 1-1.8 1.3zm-3.7-5 1.7 1.1-1.8 1.3zm4.7 8.3 1.5 1.3-1.9 1zm-9.5-20.6 1.6 1.1-1.9 1.2zm3.3 5.7-1.6 1.2-.6-2.1zm-2-2-1.6 1.2-.6-2.2zm1.9 5.2 1.4-.9.2 2zm6.8 10.8 1.5-.8.1 1.9zm-3.3 1.5 1.5-.9.2 1.9zm-5.2-19.4.8-.8.5 1.2z"/><path d="m220.7 148-.5-.9 1.1-.1zm4.3-8.7-1 .3.2-1.1zm-9.1.1 2-.8-.2 2.4zm7.9 3.1-.1-1 1.1.4zm.4-5.2-.4 1.1-.9-.9zm-6.4-4.1.8.6-.9.5zm-.1 9.6.8-.7.3 1.1zm5.5-12.7-.2 1.2-1.1-.8zm-7.1-2.9.9.4-.8.7zm1.8 9.4.6-.7.5.9zm-1.9 12.7 1.4-1 .3 1.9z"/><path d="m216.4 147 2.6-.2-1.1 2.8zm3.8 2.1 2 1.6-2.6 1.4zm-7.6-10 2.1 1.6-2.5 1.5zm2.6 6.3 1.4-.8.3 1.8zm-2.2.2 1.5-.8.2 1.8zm16 10.6-.7.7-.4-1z"/><path d="m214.4 144 .4.9h-1.2zm6.7 6.5 1-.1-.5 1.1zm-7.9-5.1-1.7-3.3 4.2-.2zm1.9 4.1-1.9-3.3 4.2-.5zm1.8 3.8-1.8-3.3 4.2-.4zm2.1 4.1-2-3.6 4.2-.1zm2.8 5.4-1.6-3.2 4.2-.4zm.2-19.3-.2.9-.8-.7z"/><path d="m220.1 145.6-.4 1.6-1.5-1.2zm3.6 3.2-.2 1-1-.8zm-1.9-8.2-.3.9-.8-.7zm-.2 2.8-.4.8-.7-.7zm3.3 24.3 1.5.6-1.3 1.2zm3.8-3.2-1.3 1.3-.6-2zm1.1 3.5-1.3 1.2-.7-1.9zm-7-21-1.6.8-.1-2zm4.9 15.6-1.5 1-.4-2zm3.4-3.4-.4 1-.8-.9zm-5.5-4.1.7.6-.9.5zm-.7 8.7.7-.5.2.9zm6.8-16.8-.4 1-.8-.9zm-5.5-4.1.7.6-.8.5zm-.6 8.7.7-.5.2.9zm7.8 5.4-.2 1-.9-.6z"/><path d="m227.2 154.2.8.4-.8.6zm1.1 8.6.6-.7.4.9zm-2.3 5.7 1.2-.6.1 1.5z"/><path d="m225.3 166.3 2-.2-.6 2.1zm-.3-.8 1.1-.9.4 1.5zm-1.7 0 1.3-.7.1 1.8zm2-1.7.3.9-1-.1z"/><path d="m223.2 165.7-1.4-3.2 3.8-.4zm1.6 3.4-1.2-2.7 3.3-.1zm1.8 2.6-1.6-2.6 3.3-.5z"/></g><g xmlns="http://www.w3.org/2000/svg" fill="#59338c"><path d="m261.1 135.6-1.6-1 1.4-.8zm1.2-4.8-1.3-1.4 1.6-.6zm-3.6 2.9-2.2.7.2-1.9zm3.4-7.4-2.1.7.2-2z"/><path d="m258.7 122-1.7 1.5-.6-1.8zm5.7 7.9-1.9 1.3-.3-2zm-2.1 1.6-1.9 1.2-.3-2zm-.7-2.5-2.2.7.3-2zm2.3 5.7-2.1.6.3-1.9z"/><path d="m265 134.5-2 1v-1.9zm-9.3-6.4-1.3-1.4 1.6-.5z"/><path d="m262.5 136.9-1.8-.6 1.1-1.3zm-7.1-10.4-.9-1 1.1-.4zm3.2 5.1.7-.9.5.8zm-8.9-1 1.1.3-.7.8zm-1.2 3.8-1 .9-.3-1.1zm5.4-2.6-.8-.7.8-.5zm-2 8.7.5-1 .6.7zm-.1-13.7.6 1.2-1.1.1zm-1.8-5.7-.8.7-.3-.9zm8.3 3.2-.9-.5.8-.6zm1.1-.3-1.3-1.4 1.6-.5zm-1.5 1.1-2.8-.8 1.7-1.9zm-4.5-10.4h-2.3l.8-1.8zm6.5 12.3-2.8 1 .2-2.6zm-4.8-3.3-1.7-.8 1.2-1.1zm.9-2-1.8-.7 1.2-1.2z"/><path d="m255 134.9-1 .9-.3-1.1zm3.2 2 .7.8-.9.2zm-6.6-.6-.9-.6.9-.5zm5.1-7.6-1-.5.8-.6zm-2.3-7.7 1.8-3 1.8 2.5zm4 4.6 1.7-2.4 1.3 2.2zm2.4 3.4 1.6-2.4 1.4 2.2zm-5.1-11.2-2 1v-2zm-6.5-4.7.9-2.1 1.5 1.4zm13.6 19.6 1.8-2.5 1.4 2.3zm1.6 3.7 2-2.9 1.7 2.7zm1.5 3.2 2.4-3.5 2 3.2z"/><path d="m256.3 129.9.4 1.8-1.6-.2zm5.2 6.4-2.1.8.1-2zm.7-.2 1.4 1.8-1.9.5zm7.8 3.1 1.4 1.7-2 .6zm-2.8.4 1.4 1.8-1.9.5zm-1.6-3.2 1.4 1.8-1.9.5zm-3.1 5.5-.2-1.3 1.2.2zm-.2 6 1-.4v.9zm-6.7-5.8.7.9-1 .2zm-10.4-7.3-1.3.3.2-1.1zm6.1-.3-.6-.8 1-.1zm-5.5 7.2.9-.7.2.9zm19.9 1.8-1.6-1.8 2.1-.6zm-13.3-2 .6-.9.6.8zm5.5-4 .1 1.3-1.1-.3zm.5-6-1 .4.1-1z"/><path d="m264.8 137.7-.6-.9.9-.2zm-20.3-22.8-.6 1.2-.7-.9zm3.9-4.7-1.1-.2.6-.8zm1.7 8.8v-1.1l.9.4zm9.1 23.2-.4 1.3-.9-.8zm3.1-5.3-1-.1.5-.8zm3.1 8.4-.2-.9.9.2zm.7-9.5-2.7 1.3-.1-2.6zm-.2-2.1-2.1.5.3-1.9zm-.4 5-.8 1.7-1.1-1.2zm-10.5-.6-.2 1-.8-.5zm-4.4 3.6-.6 1.4-.9-1zm4.2-5.6-1.3-.2.7-.9zm2.4 9.8-.1-1.1 1 .4zm11.9-2.9.1-1.9 1.5.7zm1.4 3.3 1.5-1.2.5 1.5zm.6-1.3v-1.9l1.6.7z"/><path d="m272.7 143.2 1.7 2.3-2.6.5z"/><path d="m271.1 141 1.8 2.4-2.6.5z"/><path d="m270 145.4-.6-2.1 2 .3zm-4.2 2.3-.8-2h2zm1.8.5-.2-1.9 1.6.6z"/><path d="m268.2 147.3 1.5-1.3.5 1.7zm-2.3-3.5-.2 1.1-.8-.6z"/><path d="m269.2 144.8 3 2.9-3.4 1.4zm-13.5 10.1.8-1 .5 1zm2.7-1.2-.8-1.6 1.6-.1zm3.1-1.2-.5-1.7 1.6.1z"/><path d="m257.2 153.1-.6-1.3 1.3-.1zm5.6-6.5-1.5 1.4-.6-1.7zm2.1-.3-1.5 1.5-.6-1.8zm4.1-3.1-1.5 1.4-.5-1.8zm-3.8-1.7-1.1.1.3-1zm5.6.4-.4-.9h.9zm-5.7 5.8.8-.6.2.9zm-9-6.3-1.1.1.3-1zm5.6.3-.4-.9h.9zm-5.7 5.9.8-.6.2.9zm3.6 3.8.8-1.4.8 1.2z"/><path d="m260.7 150.6.5-2.3 1.7 1.2zm1.3-1.9 1.1-1.1.5 1.3zm2.5 1.5 1.1-1.3.6 1.5zm1.3-1.4-.8-.6.8-.4z"/><path d="m266.6 146.5 2.6 2.7-3.1 1.5zm-3.7 2.4 2.5 2.2-2.7 1.3zm-3.5 1.7 2.4 2.3-2.8 1.2zm1.3-6.7 1.2-1.5.8 1.5zm-6.8 12.7.5-1.7 1.3 1zm3.9-7.3 1.2-1.5.7 1.5zm6.5-3.7-1-2h2zm2.4-.1 1.3-1.4.7 1.5z"/></g><g xmlns="http://www.w3.org/2000/svg" fill="#be95f9"><path d="m170.2 193.4 1-.7-.9-.6zm-1.9 4-.5-1.7-1.1 1.1zm-8.9 4.3-.6-1.6-1.1 1.1zm2.9 1.2-.5-1.5-1.2.9zm5.8-28.4-1.4-1.6-.7 1.7zm-.9 3.1-1.3-1.6-.8 1.6zm-6.9 17.7-1.4-1.7-.8 1.7z"/><path d="m159.8 194-1.1-1.3-.6 1.4zm13.5-28-.6-2-1.4 1.2zm1.3 9.3-.7-2-1.3 1.2zm-6.6 8.3-.8-2-1.3 1.3zm-2.3 0-2-.4.3 1.8zm-1.2 10.5-2-.6.2 1.8zm4.2-14.2-2-.4.3 1.8zm-1.8 7.8-.7-2-1.3 1.3zm-8.7 10.9-.5-1.7-1.1 1.1zm4-10.4 1.2-1.8-1.8-.3zm14-19.3 1.3-1.5-1.8-.5zm-2.7-7.5 1.3-1.6-1.8-.5zm6.9-3.3 1.2-1.6-1.8-.4zm-6.4 20.5 1.1-1.7-1.8-.4zm-1.6 3.6 1.1-1.7-1.8-.4zm4.1-25.1.9-1.7-1.8-.1z"/><path d="m181.8 145.2 1-1.4-1.4-.2zm-3.2 2.3 1.8-.3-.8-1.8zm6.2 4.1 1.1-1.3-1.4-.5zm-4.3-4.5 1.1-1.3-1.4-.5zm-20.4 44.8 1-1.4-1.5-.2zm1.2 2.4 1-1.5-1.5-.2zm1.6-5.6-.6-1.7-1.1 1.1zm4.4 1.8-.7-1.9-1.3 1.2zm7.3 7.4-1 .1.4.8zm-11-9 1.4.3-.2-1.2zm-1 1.9.6-1h-1.1zm.4 5.7-.8-.8-.4 1.1zm9.3-20.4 1.2-.7-1.1-.8zm3.3-11.9 1.2-.7-1.1-.8zm-5.3 13.8 1.2-.7-1-.8zm-4.9 4.2-.5-1.1-.7.8zm1.2-2.7-.5-1-.7.6zm8.3 4.1-1.2.1.5.9zm-4.3-9.4-1.2.1.5.9zm.5-4.1 1.1.9.3-1.2zm.6-2.9 1.1.8.3-1.2zm6-17.8.5 1.7.4-1.3zm-9.8 20.9 2.2-.4-1.2-1.6zm1.5-3.3 2.1-.3-1.2-1.6z"/><path d="m171.1 175.1.8-2.1-2 .4zm2.3-5 .8-2.1-2 .3zm-6.2 16.7.7-2.2-1.9.4zm-6 9.6.8-2.1-1.9.2zm23.1-35.6-.7-1-.5.9zm1.8-13.8-.3 1.2 1-.2zm-8.7 14 1 .8.2-1.1zm-.7-9.4-.5 1.1h1zm-3 11.2-.3 1.1h1zm4-13.5 1.3-.2-.6-1zm-6.3 38.7-.9.2.5.6zm3.8-1.7v.8l.6-.3zm-5.7-2.9.8.2-.1-.7zm-8.7 13.4-.9.1.5.7zm3.9-1.6-.1.7.6-.2zm-5.6-3.1.7.3-.1-.7z"/><path d="m189.6 177.3.7-.1-.4-.6zm-7.7.9v-.8l-.6.2zm-4.6-7v1.4l1.2-.5zm-1.6-6.5 1.2.3-.3-1.1zm-5.8 7.6.5-1.1-1-.1zm16.5-28.8-.6 1.1 1.1.1zm-2.3-2.2-.6 1 1 .1zm-.4-3 .7.8.3-.9zm-5.3 10.1.9-.4-.6-.6zm2.2 5.5.5-.8-.8-.1zm1.1 8.7.1 1.1.9-.4zm-8.5 8.6.2 2 1.6-.8z"/><path d="M184.3 158.1v1.2l.9-.4zm-2.9 3.7.1 1.2.9-.5zm5.1-14.2 2 .4-.4-1.8zm-3.3-9.6 1.9-.5-.8-1.8zm2.4 3.4 1.9.4-.3-1.8zm-4.7 6.4 1.9.6-.2-1.8zM163 185.2v-1.5l-1.1.5zm1.3 6.5-1.2-.3.2 1zm6.2-7.2-.6 1 1 .1zm-2.7 2.2.6 1.3.8-.9zm-3.8-5.6 1.1-.1-.6-1zm-2.5 9.3.1-1-1 .3z"/><path d="m161.5 191.7.1-1.4-1.1.4zm.9 6.7-1.1-.4.1 1.1zm6.5-7.4-.6 1 1 .1zm-1.2-11.9 2.3-2-2.5-1.1zm-8.3 20.5 1.5-1.3-1.5-.8zm-3.5-2.8 3-.7-1.6-2.4zm3.2-7.1 3-.7-1.5-2.6zm-1.5 3.4 3-.7-1.7-2.3z"/><path d="m160.7 186.2 3-.8-1.7-2.1zm1.4-3 3-.8-1.7-2.2zm1.4-3.2 3-.8-1.7-2.1zm3.8-2.3 1.4-2.8-2.7-.1zm3.2-7.7 1.4-2.7-2.7.2zm1.7-3.3 1.4-3.5-2.7 2.2zm-5.5 6.4 3-.8-1.7-2.2zm-12.3 27.2 3-.8-1.7-2.2z"/><path d="m156.6 204.8-.4-3.1-2.3 1.5zm3.9-.8-.4-3-2.3 1.5zm17.5-54.2 2.8 1.5.1-2.9zm-2.5 11.7 2.3-2.1-2.5-1.1zm-5.5 27.8 1.2.2-.2-1.1zm-5.7.2.5-1h-.9zm5.4 6.4-.8-.6-.2.9zm-3.8-21.3-1 2.3 2-.1zm2.4-2-.7 2.2 2-.2zm6.2-11.6-1.3-1.5-.7 1.7zm-2 3.9-1.3-1.6-.8 1.8zm5.7-10 1.1.9.3-1.2zm1-2.7 1 1 .4-1.3zm-4 2.8 2.1-.1-.9-1.9zm1.3-3 2-.5-1-1.7zm4.4 3.2.9-2-2 .2z"/><path d="m182.8 156.2-.1 1.3 1.2-.4zm-1.1-6.6 1.2.3-.2-1zm-2.4 9.7.6-1-1-.1zm-6.1 5.8 1.4-2.9h-2.7zm4.5-10.1 1.7-2.8-2.4-.2zm-4.6 4.3 3-1.2-1.6-1.9zm8-17 3.1-.8-1.6-2.3zm-1.4 2.9 2.4-.7-1.1-2z"/><path d="m172.4 160.7-1.1 2.5 2-.3zm1.7-2.3-.7 2.2 1.9-.2zm-4.2 36 1.2.2-.2-1.1zm-5.7.2.5-1h-.9zm5.4 6.5-.8-.7-.2 1zm-1.5-9.3-.2-1.4-1.1.7zm2.2 6.3-1.2-.1.3 1zm4.9-8.6-.4 1.1 1-.1zm-1.6-8.6.3-1-.9.2zm-.1 4.8-.7-.4v.8zm5.3-4.4-.5.6.7.2zm2.6-14.9-.4.8h.8zm1.2-4.2.5.5.2-.6zm-5.8 2.9.6-.5-.6-.3zm11.2-20.6.5-.7-.7-.1zm-.6 7.7-.5-.5-.3.6z"/><path d="m181 168.1 1-.7-1-.6zm-3.5 4.6-.5-.9-.5.7zm8.3-.3-1 .3.5.7zm-4.1-1.2-1.2-.7-.1 1.3zm6.1 2.2-.8.8.9.4zm-3.2-9.3.6 1.1.6-.9zm1.6-3.7-.5-.8-.5.8zm3.2 3.3-.8.3.5.6zm.8-6.9v.9l.7-.4zm-1-22.9-.3-2.1-1.5.9zm2.3 3.4 1.5-1.4-1.7-.7zm-1.3-7.9 1.5-1.3-1.7-.8zm7.6-1.8 1.5-1.4-1.7-.8zm-5.3-2.4 1.2-1.6-1.8-.4zm7.2-11.3 1.1-1.4-1.5-.4zm-3.7 2 1.7-.1-.7-1.4zm5.1 5 1.2-1.3-1.4-.5zm-2.9-5.2 1.2-1.3-1.4-.5zm-6.5 16.8 1.3-.4-.9-1zm-5.5 5 1 1.1.5-1.1zm1.2-2.8.9 1.1.5-1.2zm7.9-16.9.4 1.7.5-1.2zM185 134.3l2.3-.1-1.1-2.2zm3.6 3.7 1.1-2h-2z"/><path d="m197.8 130.5-.4-1.2-.8.7zm-3.7-.7.9.9.3-1zm.1-9.8-.6 1.1 1.1.1zm-4 10.8-.6 1.1 1.1.1zm5.1-13 1.4-.2-.6-1zm-3.2 21.9-.2 1.5 1.2-.3zm-.3-6.6 1.1.5-.1-1.1zm-7.1 6.4.7-1-1-.3z"/><path d="m200.1 119.8-.7 1.1 1 .1zm2.3-8.8-.6.9 1 .2zm-.6 2.1.7.8.3-.9zm-5.7 3.8.9-.4-.6-.6zm1.9 5.7.6-.8-.9-.2zm.4 9.6-.1 1.2.9-.3zm3.2-4-.1 1.2 1-.3zm-5.5 4.6-.1 1.2 1-.3zm7-25.1 1.6.8-.2-2.2zm-3 7.3 2 .4-.3-1.8zm-1.5 1.5 1.9.7-.1-1.9zm-12.9 20.9 1.9-2.6-2.8-.2zm2.4-3.6 1.9-2.6-2.7-.6zm7.5-15.5 2.7 1.6.3-2.8zm-3.5 11.6 2.7-1.7-2.3-1.5zm-1.4-1.4-1.1-1.7-1 1.5z"/><path d="m188.3 132.2-1.2-2-.9 1.7zm7.3-8.9.9 1 .5-1.2zm1.1-2.5.9 1 .5-1.2zm-5.3 1.9h2.2l-.9-2.1zm1.7-2.7 2.2-.1-.9-1.8zm5.1 3.8 1-1.9-2 .1zm1.8 1.1-.1 1.4 1.2-.4zm-.7-6.6 1.1.4v-1.1z"/><path d="m191.3 124.5.7-1-1-.1zm-2.1 8.5 1.9-2.6-2.6-.5zm5.9-9.7 1.8-2.5-2.4-.4zm-6.2 3.6 3.2-.6-1.5-2.3z"/><path d="m199.1 111.9 2.4.1-.3-2.4zm-1.8 2.2 2.1-.1-.6-1.8zm-8.7 13.3-1.4 2.5 2.1.1zm2.7-.8-1.1 2 2 .1zm5.7 9.1-.5.7.8.1zm1.9-3.8.5.6.3-.6zm-6.2 1.7.7-.3-.5-.4zm11.5-23.6.3-.7-.7-.1z"/><path d="m207.7 103.7 1.1.3-.1-1zm-3 2.4 1.5.3.1-1.6zm-3.5 3.4 2.4 1.2-.6-3zm-1.4 13.2-.2 1.3 1.2-.3zm6.8-18.1 1.1.5-.1-1.1zm-7 8.5.7-1-1-.2zm4.3-1.3-.5-.5-.3.6zm-1 12-.5-.8-.5.7zm-1.5-7.3v.8l.7-.3zm-37.9 87.4-.4.9.8-.1zm1.2-4 .5.5.3-.7zm-5.8 2.7.6-.4-.6-.3zm9.8-21.4.3-.7h-.7zm-.1 7.1-.6-.5-.2.7zm15.3-15.5.9-.8-.9-.5zm-3.4 4.8-.5-1-.5.8zm8.3-.5-1 .3.5.7zm-4.1-1.1-1.3-.7-.1 1.3zm6.1 2-.8.8 1 .3zm-3.4-9.3.6 1.1.6-1zm-18.9 27.9-.6-.7-.4.8zm3.6 2.9-.8.4.6.4zm-.1-7 .1.8.6-.4zm8.6-10.6.3-.9-.8.1zm-.6 4.2-.7-.4-.1.7zm5.4-3.6-.6.6.6.2zm-7.6 10-.3.7.8-.1zm-6.1 5.3.7.3.1-.6zm11.1-16.4-.8 1 1 .3zm2.6-5.1.6.9.5-.9zm-8.2 1.9 1-.5-.7-.6zm4.3.4 1.3.5-.1-1.3z"/><path d="m175.1 177.6.7-.9-1-.2zm4.9 8.4-.8-.9-.5 1.1zm-3.4 3.9.7.5.3-.7zm-3.9-2.4.7-.5-.7-.4zm1 6.8-.3-.8-.5.5zm10.9-47.4-.2-1.4-1 .7zm2.3 6.3-1.2-.1.3 1zm4.9-8.6-.4 1.1 1-.1zm2.6 3-.3.7.7-.1zm-1.2-2.6.7.5.3-.7zm-3.9-2.4.6-.4-.6-.4zm.9 6.8-.2-.8-.5.5zm-8.6 11.1-.2-1.5-1.1.8zm2.2 6.3-1.2-.1.3 1zm4.9-8.7-.4 1.2 1-.1zm2.6 3.1-.2.7.7-.1zm-1.2-2.8.7.7.3-.9zm-3.9-2.2.7-.5-.6-.4zm1 6.8-.3-.8-.5.5zm-13.7 33.5 1-.3-.6-.7z"/></g><g xmlns="http://www.w3.org/2000/svg" fill="#50297a"><path d="m211.2 155.6-1.6-.9 1.4-.9zm1.7-4.9-1.2-1.4 1.6-.4zm-5.5 3-2.1.3.5-1.8zm2.2-2.9 1.2 1.7-1.8.3z"/><path d="m210.2 149.2-2.2.2.6-1.8zm7.9 19.6H216l.7-1.6zm-5.4-21.6-2.1.1.6-1.7zm2.2 2.8-1.8 1-.2-1.8zm-2 1.3-1.8 1-.2-1.8zm-.6-2.4-2 .6.2-1.9zm1.9 5.3-2.1.4.5-1.8z"/><path d="m214.8 154.7-1.9.6.1-1.8zm-8.4-7.3-.9-1.6h1.6zm-1.3-3.1-.9-1.6 1.6-.1zm.9-7.3-1.3-1 1.3-.6zm1.7-.4-1.3-1 1.3-.6zm5 19.5-1.6-.8 1.2-1zm-6.1-11-.5-1.1 1.1-.1zm1.3 5.4.8-.6.3.9zm-7.6-3.8.8.6-.7.5zm3.5 13.1-1.1.4.1-1zm5.7-.6-.6-.9.9-.1zm-4.4 7.1.6-.8.4.8zm-.6-19 .2 1.2-1-.3zm.2-5.6-.9.4v-.9zm6.4 5.5-.7-.8.9-.2zm-.5-2.6-.8-1.6 1.6-.1z"/><path d="m210.7 144-2.3-1.7 2.1-1.2zm-2.2-3.5-1.1-1.5 1.7-.3zm2 6.8-2.8.3.8-2.3zm-6.2 4.4-1.1.5v-1.1zm4.4 3.9.6.8-.9.1zm-6.3-5.5-.6-.9.9-.1zm9.6 33.2-.6-.8.9-.2zm30.8 9-.7-.7.8-.3z"/><path d="m207.3 148.1-.9-.7.9-.4zm1.4-2.2 2.7-2.8 1.5 3.2zm1.8 3.4 2.3-3 1.8 3.1zm-2.8-7.2-2 .6.2-1.8zm2.1-.1-1.9.6.1-1.8z"/><path d="m206.3 140.6 2.8-2.8 1.3 3.3z"/><path d="m205.4 140.8 1.3-1.5.8 1.6zm-.6-7.9 1.6-1.2.5 1.7zm0-2.2 1.2-.9.3 1.3zm-.1 1.9-.4-1.4 1.3.2zm1.3 2.1-.5-1.3 1.3.1zm-.8 1.2-1.4-.1.6-1.2zm-.4-6.2-.5-1.4 1.3.2zm1.2 7.9 2.1-2 1 2.4zm-.2-2.5 1.4-1.4.7 1.5zm6.4 17.6 2.4-3 1.7 3.2z"/><path d="m213.7 155.8 2.4-3.1 1.7 3.2zm1.7 3.2 2.3-3.1 1.9 3zm-8.8-9.9v1.8l-1.4-.7zm5 7.1-2 .7.1-1.8zm13 16.4-1.9.7v-1.9z"/><path d="m218.6 172.3-1.9.7.1-1.8zm-6.6-16.5 1.2 1.7-1.8.3zm7.5 3.1 1.1 1.9-2 .3zm-2.6.3 1.2 1.8-1.9.3zm-1.7-2.7 1.2 1.6-1.8.3zm-3 4.4-.1-1.2 1.1.3zm-.7 5.6 1-.3-.1.9zm-5.8-6.1.6.8-.9.2zm2.6 13-1.2-.1.5-.9zm5.6 1.6-.2-1 .9.2zm-6.9 4.6 1-.3v.8zm8.1-16.9-1.4-1.8 2-.4zm.3 2.8-1.4-1.7 1.9-.4zm-4.3-6.8-1.2-1.7 1.8-.4zm9.2 17.6-1.5-1.6 1.9-.5zM200 156.5l.8-.5.2.8z"/><path d="M208.6 156.7v1.2l-1-.4zm.7-5.5-1 .3.1-1zm5.8 6.1-.6-.8.9-.1zm-3.7 12.2.8 1.1-1.1.1zm-2.2-5.2-.7.8-.3-.9zm8.1 2.6-.9-.5.7-.5zm-1.6-10.9-2.6.8.1-2.3zm0-2.2-2 .4.4-1.8zm-.8 4.6-.9 1.5-.8-1.2zm-11.6-3.9-.5.9-.5-.8zm-1.2 4.5-.7 1.2-.7-1zm4.3-4.6-1.1-.3.6-.8zm1.5 9.3v-1.2l.9.5zm8.8-1.1.3-1.7 1.3.9zm3.2 2.4-1.3-1.3 1.5-.5z"/><path d="m217.8 164.7.5-1.7 1.2 1.1z"/><path d="m220 163.2.9 2.8-2.5-.4z"/><path d="m220.4 160.6 1.4 2.9H219zm-1.6 5.1-2 .7.2-1.8zm3.6 4.4-1.8 1.1-.3-1.9zm-3.4 1.4-1.5-1 1.3-.8zm1.6-4.4-1.2-1.3 1.5-.5zm-4.8.2-.3.9-.7-.5z"/><path d="m219.1 166.2 2.5-3 1.6 3.1zm11.2 6.7-.9.9-.3-1zm-1.8-.4.8 1.5-1.5.1z"/><path d="m227.6 172.4.5 1.6-1.5-.1zm1.9 1.1.5 1.3h-1.2zm-5.5 1 1.6 1.1-1.4.9zm18.1-7.8.3-2.1 1.7 2.2zm-14.7 9.6 1.4-1.4.6 1.6zm-7.8-4.7 1.5 1.2-1.5.8zm-3.3 1.8.3 1-1-.1zm-.8-5.1-.8.5-.2-.9zm6.5 4-.7-.6.8-.4zm-5.6 10.3.2 1.1-1-.2zm-.4-5.1-.8.5-.1-.9zm6.2 4.4-.6-.6.8-.3zm-4.2-5.3.3 1.1-1-.1zm-.9-5.1-.8.5-.1-.8zm6.6 3.9-.7-.6.8-.3zm4.2-1.1-.7 1.2-.7-1z"/><path d="m227.4 173.3-2.2-.1.8-1.8z"/><path d="m225.9 172.7-1.2-.8 1-.7zm-2.6-2.2-1.4-.8 1.1-.8zm-3.1-2.7-.4.8-.6-.7zm.5.7 2.4-2.4 1.6 2.8z"/><path d="m222.6 171.1 1.9-2.5 1.4 2.5zm6.3 3.2-2.3-2.1 2.7-1.3z"/><path d="m229.6 173.4-1.9-1.7 2.2-1zm-7.5 5.7-1.5-.8 1.3-.9zm10.7-2-1.5-1.2 1.4-.7zm2.4-3.6-1.5-1 1.4-.8zm-4 3.9-1.9.9-.1-1.9zm7.7-11.4-.5 3.1-2.5-1.5zm-2.9 1.8-.5 3-2.5-1.5zm2 1.9-1.7.3.3-1.5zm-3.8 2.4-1.4-1.2 1.4-.7zm2.1 4.1 1.7 1.5-1.9.7zm.8 6.2h2.3l-1 1.8zm.8-9.6 2.3-.1-.9 1.8z"/><path d="m242.7 172 2.2-.1-.9 1.8zm-9.8 1.4-3.1-2.8 3.3-1.4zm6-6.2 1.9-.1-.6 1.5zm-.5 26.3.5.9-.9.2zm-1.9-4.7-.6.6-.4-.8zm7.3 2.4-.8-.5.6-.4zm-4.2-.8.5 1-1 .1zm-1.6-4.8-.7.6-.3-.8zm7.1 2.9-.8-.5.7-.5zm-8.3-3 .5 1-1 .1zm-1.9-4.8-.6.6-.4-.8zm7.3 2.5-.8-.5.6-.4zm-38.5-16.4-1.2.4.2-1.1zm5.7-.2-.5-.9.9-.1zm-4.9 6.6.7-.7.4.9zm5.3 13.4-.5-.9.9-.1zm-5.2-7.3-1.2-.2.6-.8zm5.4 2.1-.1-1 .8.3zm-7.3 4.1.9-.3-.1.8zm21-7.5-1.2-1.7 1.8-.3zm19-7.6-2.1-.4 1.1-1.5zm-.4 20.5-1.4-1.5 1.9-.5z"/><path d="m242.5 187.8-.5 2-1.5-1.1zm-3-19.9.9 2-2-.1zm2.7 27.6-.3 1.3-1-.8zm3.5.2-1.4-1.6 1.8-.5zm-19.4-16.9L225 177l1.9-.3zm19.9 13.6-1.5-1.5 1.8-.5zm-.8 6.5-2.6-2.4 2.9-.4zm-1.9-3.3-.3-1.4 1.5.5zm2-5.2-.3-1.3 1.4.4zm-1.4-3.2-.2-1.4 1.4.5zM210 176.8l.7 1.1-1.1.1zm-2-5.4-.7.7-.3-.8zm8 2.9-.8-.5.7-.5zm-11.1-37.7-1 .1.3-.8zm-3 .7-.2-.7h.7zm2.7 3.3.7-.5.1.8zm.5-13.1-1.2-.1.5-1zm-1-1.7-.1-1 .8.3zm2.1 13 .3-1.1.9.6zm-2.2.5.3.9-.9-.1zm-6.5 3.4-1.1.4.1-1zm5.8-.7-.6-.8.9-.1zm-4.5 7 .7-.7.3.8zm2.8-20 .8-.2-.2.8zm1.6 1.9-.8.6-.1-.9zm.4 4.8-.9.6-.2-1zm.6-1.8-1.1.7-.2-1.2zm.7-3.1-.9-.8 1-.4zm-1.2 7.7.7-1 .5 1zm-2.1-4.5-.9.1.2-.6zm3.8.4-.2-.5h.6zm-4 4 .6-.4.1.7z"/><path d="m198.3 144.9.1 1.2-1-.4zm.5-5.7-.9.4v-.9zm6 6-.6-.7.9-.2zm13.1 47.2-.9 1-.5-1.1zm5.2-3.7-1.1-.6.8-.6zm-.3 9.3.2-1.2.8.7zm.3-18.3-.2 1.1-.8-.6zm2.1-4.6h-.9l.3-.8zm3.4 6.7-.2-.9.8.1zm8.7 1.8-.2 1.1-.8-.6zm1.7-4.8-.9.1.2-.8zm4 6.5-.4-.9.9.1zm-29.2-1.4.2 1-.9-.1zm-.4-5.1-.8.3-.1-.7zm6.2 4.5-.6-.7.8-.3zm19.5-13.8-.9 1.9-1.2-1.4z"/><path d="m244.2 167.1-.9 1.8-1.2-1.3zm-5.4 8.2-1.6-.9 1.3-.9zm5.8 18.7-1.6-.8 1.3-1zm-3.8-20.4-1.5-.9 1.3-.9zm-9.2 5.5.3 1-.9-.2zm7.5 1.7.3 1-.9-.2zm1.2 3.8.3 1-.9-.2zm-3-4.3.3 1-.9-.1zm-.6 3.5.5 1h-1zm-1.1-4.9-.7.4-.2-.7zm6.9 3.4-.8-.5.7-.4zm-5.8 11.9.5 1h-1zm-1.1-5-.7.6-.2-.9zm6.8 3.5-.7-.6.7-.4zm-8.9 7.9.6.9-1 .1zm-1.9-4.9-.6.7-.3-.8zm7.3 2.5-.8-.4.6-.5zm2.7 3-.4 1.3-.9-.8zm3.5.2-1.5-1.6 1.9-.5zm-.3 3.1-2.7-2.3 3-.5z"/><path d="m242.9 201.3-.3-1.3 1.4.4zm1.1-1.5-1.6-.9 1.2-.9zm-7.9.1.4 1h-1zm-1.1-5.1-.7.6-.3-.8zm6.8 3.6-.7-.5.7-.4zm.8-11.3-.1-1.4 1.2.4zm4.7-14.2-.2-1.5 1.2.4zm-2.5-3.4-1.3-1.1 1.3-.6zm-2.8-1.7.4.8-.9-.1zm-12.5 7 2.3-2.7 1.7 2.8zm16.9-1.1-2-.7 1.2-1.4zm-5.2-2.5-2.1.5.4-1.9zm3.9 9.2-.3-1.2 1.1.2zm1.3-1.3-1.7-.1.7-1.3z"/><path d="m247 176.8-1.6-.4.8-1.2zm-2 2.6-1.4-.2.7-1zm-2.6-6.7.5 1.8-1.6-.2zm1.3 3.6.5 1.9-1.7-.4zm-7.3-.7-.5 1-.6-.8zm3-4.2-.9-.2.5-.7zm1.9 7.4-.1-.9.8.3zm-6.9-5.8-.5 1-.6-.8z"/><path d="m237.6 168.9-.9-.2.4-.7zm1.7 7.5-.1-1 .8.3zm5.9 1.4-.7-1.3 1.3-.1z"/><path d="m245.2 176.5-1.7-1.5 1.8-.8z"/><path d="m244.4 175.3-.4-1.4 1.2.1zm-.3-4.4-1.3-1 1.3-.7zm-12.5 13.5-.4.8-.6-.7zm-2.6 9.4.6.9-1 .1zm-1.9-4.8-.6.7-.3-.8zm7.3 2.5-.8-.5.7-.5zm-4-3.7.5 1-1 .1zm-1.6-4.9-.7.6-.3-.8zm7.1 2.9-.8-.5.7-.5zm-10.1-.7.6.9-1 .2zm-1.9-4.8-.6.6-.3-.8zm7.3 2.5-.8-.5.6-.5zm-17.5-2.8-.2 1-.8-.6zm2.1-4.7h-.9l.3-.7zm3.4 6.8-.2-.9.8.1zm8.7 1.8-.1 1-.9-.5zm1.7-4.8h-.9l.3-.7zm4 6.5-.3-.9h.8zm-3.9-4.6.4 1-1-.1zm-1.8-.4.4 1-1-.2zm-.5 13.8.4 1.1-1-.1zm-1.1-4.9-.8.5-.2-.8zm6.8 3.5-.8-.6.8-.4zm-9 7.8.6.9-1 .1zm-1.8-4.8-.7.6-.3-.7zm7.2 2.5-.8-.4.7-.5zm-2.8 1.7.4 1h-1zm-1.1-5.1-.7.6-.2-.9zm6.8 3.6-.7-.6.7-.4zm-10.2-14.1-.4.9-.5-.7zm23-10.3 3-1-.3 2.8zm-1.1-2.9 1.5-2.7 1.8 2.2zm.9 5.5 3-.8-.4 2.8zm.2 2.7 2.5-.6-.3 2.3zm-4.1.4-.6-1.6 1.6.1zm3 1.9-.4-1.8 1.5.4z"/><path d="m243.7 180.9-.5-1.8 1.5.3zm-.6 1-2-.5 1.1-1.5zm.8 2.3-.4-1.7 1.5.3zm-8.4-9.8.3-4 3 1.6zm9.7 7.7 2.3-1-.5 3.4zm-5.2-4.7.1-2.2 1.7 1zm2.1-4.5.1-2.2 1.7 1zm-8.5 2.4 1.8-1.3.3 1.9zm6.7 9.5 1.7-1.3.4 1.9zm-1.3 3.5-.5-2.1 1.8.4zm6.6.3-.5-2.1 1.9.5zm-3.5-24.3-.3 3.2-2.9-1.4z"/><path d="m244.1 185.5 3-1-.3 2.8zm-4-10.4 3-1-.3 2.8z"/></g><linearGradient xmlns="http://www.w3.org/2000/svg" id="B" x1="267.6" x2="258.8" y1="168.2" y2="153.2" gradientUnits="userSpaceOnUse"><stop offset="0" stop-color="#cc7a5e" stop-opacity="0"/><stop offset=".9" stop-color="#aa5f4b"/></linearGradient><path xmlns="http://www.w3.org/2000/svg" fill="url(#B)" d="M291 168.3s-6.9 3.5-17.8 5.4-15.6 9.6-15.6 9.6-6.6-7.7-15.4-19c1-.9 30.9-16.5 30.9-16.5-.3-.3 3.3 4.8 7.1 9.5 3.6 4.6 6.1 8.3 10.8 11z"/><radialGradient xmlns="http://www.w3.org/2000/svg" id="C" cx="1031.5" cy="124.6" r="7.3" gradientTransform="matrix(1.2119 .07935 -.08006 -.9623 -907 236.6)" gradientUnits="userSpaceOnUse"><stop offset=".3" stop-color="#aa5f4b"/><stop offset="1" stop-color="#cc7a5e" stop-opacity="0"/></radialGradient><path xmlns="http://www.w3.org/2000/svg" fill="url(#C)" d="M333.8 196.7c2.5 1.6 4.1 1.7 5.9 3 .6.5.8 1.1.6 1.7-.7 2.2-4.5 2.9-8.5 1.7-4.1-1.2-6.8-4-6.2-6 .7-2.3 1.3-5 8.2-.4z"/><path xmlns="http://www.w3.org/2000/svg" fill="#283749" d="m331.5 194.8-5 15.8c-.2.7.2 1.4.8 1.6l2.9.6c.7.2 1.4-.2 1.6-.8l5-15.4c.2-.6-.1-1.3-.7-1.6l-3-1c-.7-.5-1.4 0-1.6.8z"/><linearGradient xmlns="http://www.w3.org/2000/svg" id="D" x1="331.5" x2="332.1" y1="203.5" y2="201.9" gradientUnits="userSpaceOnUse"><stop offset="0" stop-color="#151e28" stop-opacity="0"/><stop offset="1" stop-color="#151e28"/></linearGradient><path xmlns="http://www.w3.org/2000/svg" fill="url(#D)" d="m334.8 202.1-.7 2.3-5.2-1.5.8-2.4z"/><path xmlns="http://www.w3.org/2000/svg" fill="#283749" d="M327.5 196c.7-2.3 3.9-3.3 7.2-2.3s5.4 3.6 4.7 5.9-3.9 3.3-7.2 2.3-5.4-3.7-4.7-5.9z"/><g xmlns="http://www.w3.org/2000/svg" fill="#445a6b"><ellipse cx="333.7" cy="197" rx=".8" ry="1.3" transform="rotate(-71 333.7 197)"/><path d="m335.7 198.7-.1-.1-2.6-1.8 4.2-.3.5.2c.1.1 0 .3-.2.3l-2.9.2 1.5 1.1c.1.1.2.3.1.4h-.5z"/></g><g xmlns="http://www.w3.org/2000/svg" fill="#b7654f"><path d="m255.1 163.4.8 1.4 1.1-1.5zm-5.2-1.9.4 1.6 1.4-1.2zm2.6 6.8 1.7.6-.1-2zm1.3-2.4-.3-1.9-1.7 1.2z"/><path d="m248.6 166.1 1.7.7-.1-2.2zm15.2-8.5 1.7.9.2-2zm-17.2 5.9 1.8.7-.2-2.2zm3.6-1.6 1.9-.1-1-1.9zm1.3 2 1.8-.1-.9-1.9zm-2.9.3 1.9.3-.5-2zm4.9-2.6 1.8.6-.2-2z"/><path d="m254.5 160.9 1.9.2-.6-2zm-10 3.9v1.7l1.6-.9zm11.2-2.7 1 1.3.8-1.6zm6.4 10.2 1.1.1-.4-1.2zm-.5-7.1.1.9.8-.5zm7.9 4.1-.9.4.7.7zm-26.1-5.8.1 1.6 1.6-.8zm2.8 2.7 2.3.8-.1-2.7z"/><path d="m251.1 170.8 1.1.1-.4-1.2zm6.7-4.7-.1-.9-.9.5zm-8.7 5 .1 1 .8-.6zM278 162l.1.9.8-.6zm-30 5.5.3.7.7-.7zm-.7-5.7-3.2 1.5 2.8 2.7zm3.2-1.6-3.2 1.7 3 2.4zm3.4-2-3.2 1.7 3.1 2.4zm3.7-1.9-3.2 1.4 2.9 2.6z"/><path d="m260.6 154.7-3.1 1.6 2.9 2.4zm-9.5 14.8.7-1.4h-1.7zm5.3-4.7 1.9.1-.7-2zm15.1-11.7 1.8.3-.4-2z"/><path d="m270.4 157 1.7.4-.4-1.8zm-11.6 5.8-.2-1.9-1.8 1.1zm3.5-7.2-.2-1.9-1.8 1.2zm.3 2.6-.1-1.8-1.9.9zm-2.9 1.4-.2-1.8-1.9 1zm1.5 1.5-.5 1h1.3zm7 1.2-.9-.1.2 1zm-6.2 6.6-.1-.9-.9.5zm-.2-10.3.3 2 1.9-1.2zm2.4 2.3.2 1.9 1.8-1.2zm-6.1 1.9.3 1.9 1.8-1.2zm-.5 10.6-.9.1.6.9zm.9-6 .5-1h-1.2zm-7-1 .9.1-.3-.9zm6-6.8.1.9.9-.6zm15.3 5.9v-1.1l-1.1.6z"/><path d="m266 167.7.9-.3-.7-.7zm2.5-8.7.5.7.5-.8zm-13 1.7 2.4.2-.7-2.6zm-2.7-1.1 1.8.6-.2-2.1zm7 1.4 1.3-.8-1.4-.9zm-4.4 11 .8-.5-.9-.5zm4.6 1.9 1-.7-1.1-.8zm-5.7-5.6.8.7.3-1.2zm10-2.2-.5.9 1.1.1zm-1.5-10.6-1 1.1 1.7.5zm1.6-1.6.6 1.5 1.2-1.4z"/><path d="m265.1 154.2-1 1.2 1.7.4z"/><path d="m266.8 155.5.3-2.5-2.7 1z"/><path d="m264.8 155.2-.1-2.8-2.8 1.5zm.9 1.4 1.8.1-.7-1.9zm2.4-1.8 1.9-.1-.9-1.9zm-.2.9.7 1.4 1.2-1.3zm-1.5-2.9.5 1.5 1.3-1.3zm-1.8 7.4.7-.6-1-.4z"/><path d="m267.6 151-3.1 1.5 2.9 2.6zm7.7 2.4-.7-1.5-1.3 1.4zm-3.7 1.2-.6-1.6-1.4 1.3zm.6 4.4.2-1-1.1.2zm-6.5.1.8-.1-.4-.8zm4.5-6.9.2.8.7-.6zm6.6 7.8.2-.9-1.1.2zm-6.5.2h.8l-.4-.9z"/><path d="m274.6 153.3.3.8.7-.6zm-2.1-2.1.5 1.2 1-1.1zm-2.6-1.2.6 1.3 1.1-1.3zm.6 2.4.7-.5-.8-.5z"/><path d="m270.2 149.5-3 1.4 2.5 2.6zm2.6-1.4-2.5 1.3 2.3 2zm-8.6 25 1.1.2-.2-1.2zm.3-7.1-.1.9 1-.4zm7.4 4.9-.9.2.6.8z"/></g><g xmlns="http://www.w3.org/2000/svg" fill="#ffbca4"><path d="m295.4 173.9 1.2-.7-1-.7zm-2.6-1.2 1.2-.8-1-.6zm7.9 5.6 1.4-.2-.6-1zm-7.1.3 1.4-.1-.6-1.1zm-4.6-6.1 1.3-.2-.6-1zm.2-1.4.6-1.2-1.2-.1z"/><path d="m290.8 173.6.6-1.3-1.2-.1zm-7.3-7.2.6-1.2-1.1-.1zm-2.1-4.2.6-1.3-1.2-.1zm5.3 9.1 1.4-.2-.7-1zm.1-2.9.8 1 .6-1zm11.7 11.4.9 1 .5-1.1zm5.4-.8.9.9.5-1.1zm-.1 4.3.9 1 .5-1.2zm2.7-2.4.9 1 .5-1.2zm5.9 4.2.8.8.4-.9zm-1.1-2.3.1 1.2.8-.5zm-3.3 3.8.8.8.4-.9z"/><path d="m311.2 184 .8.8.4-.9zm-26.4-17.6.7.9.5-.9zm1.8 2.1h1.1l-.4-.8zm-2.2 3.2 1.4-.2-.7-1zm1.9-2.7-.5.8.8.1zm-1-1 .5.5.3-.6zm8.1 9.1.3.8.7-.6zm8.3 2.7.3.8.6-.6zm-9.2-4.2.3.8.6-.6zm-2.4-4.6.8-.1-.4-.6zm1 1.5.7-.2-.3-.5zm-3.4 5.2.1-.8-.6.3zm7.1-1.5.2-.8-.7.2zm2.9.6-.7.7.8.3zm2.3.5-.7.7.7.2zm10.1 4.8-1.1.2.8.3z"/><path d="m298.3 174.3.1 1.4 1.1-.6zm2 1.3v1.4l1.2-.6zm-5.6.2 1.2.7.1-1.3zm2.8 2.6 1.2.7v-1.4zm-10.2-7 1.2.8.1-1.3zm23.1 16.2-.6-.3-.1.7zm-6.9-6.3-.6.6.6.2zm5.2-.1-.7-.4v.7zm-5.9-2.4-.7-.4-.1.7zm7.4 3.3v.9l.7-.4zm-24.6-7.7v-.6l-.5.2zm.6 2.7-.5-.1.1.4zm2.6-3.4-.3.4h.5zm8.2 6.3-1-.1.2.8zm4.3-.4-.3.7h.7zm-4.2-4.5.6.5.2-.7z"/><path d="m312.1 188.4-.6-.5-.2.7zm1.9-1.3-.6-.5-.1.7zm2 0-.6.4.5.3zm-5.3-4.5.2.6.4-.4zm-3.7 1.1.5.4.1-.6zm-5.2.6h-.7l.2.6zm-5-6.1-1.3-.1.4 1zm6.3 7.7-.7-.1.1.6z"/><path d="M302.2 184.2h-.8l.2.6zm7.8 3.6-.5 1.2h1.2zm8-.4v1.3l1.1-.6zm-1.1-.7v1.3l1.1-.6zm-3.1 1.3-.5 1.3 1.2-.1zm1.4-.8-.6 1.2h1.2zm-4.5-2.9-.5 1.2h1.2zm-22.2-14.9.9.3v-.8zm-4.3-.6.5-.6-.7-.1zm3.1 5.4-.5-.6-.3.7zm-.7-2.2-1 .1.4.7zm4.3-1.3-.2.8.7-.2zm-5.2-3.4.7.3v-.7zm-5.3 3.6.1-.8-.7.3zm-2.1-3.2v-.6l-.5.3zm.6 2.6-.5-.1.1.4zm2.5-3.3-.2.5.4-.1zm-.2-4.3.9.3-.1-.8zm-4.3-.6.4-.6-.6-.1z"/><path d="m279.9 167.5-.5-.5-.3.6zm-.7-2.2-.9.1.4.7zm4.3-1.3-.2.8.7-.2zm-5.2-3.5.7.3.1-.6zm42.7 28.9-.6-.3v.6zm-28.9-15.7 1 1.8 1-1.5zm-5.4-7.6-.2 1.9 1.7-.5zm-2-1.9-.2 2 1.7-.6zm-1.4-1.7-.4 1.5 1.4-.3zm5.2 5.1v1.9l1.6-.8zm1.6 1.2.1 2 1.6-.8zm2 1.2v2.1l1.7-.8zm.7 2.8 1.6 1.3.4-1.8zm5.2 3.4 1.6 1.2.4-1.7zm2.8 1.6 1.7 1.2.3-1.7zm-4.2-4.6.2 2 1.5-.9z"/><path d="m309.8 182.3-1.1 1.7 1.8.2zm-6.2-2.1 1.1 1.7 1-1.5zm14.5 8.5 1.1 1.7 1-1.5zm3.1 1.7.6 1.3.9-1.1zm-1.6 0 .8 1.3.8-1.2zm-23.8-17.9-1.3-.7-.1 1.3zm1 1.7-1.3-.7-.1 1.3zm7.2 5.4 1.2-.6-1-.7zm-2.3-1.1 1.1-.8-.9-.6zm4.8 3.6-.7.6.8.3zm1.7.8-.7.7.8.3zm-1.5-3 .1 1.4 1.2-.6zm2 1.2v1.4l1.1-.6zm-2.6 2.7 1.3.7v-1.3zm-.8 2.1-.9-.1.2.8zm4.3-.4-.3.8.7-.1z"/><path d="m305.3 181 .6.4.1-.6zm-4-2.4 1.7 1.1.3-1.7zm5.5 2.8 1.7 1.2.3-1.5zm-1.7-2.5.2 2 1.6-.9zm8.7 5.7.2 2.1 1.6-.9z"/><path d="m312.5 183.7.2 1.7 1.2-.7zm3.1 2.2.2 1.6 1.2-.7zm-11.2-7.5-1.4-1v1.4zm1.1 1.4-1.3-.7-.1 1.3zm-9.5 1.3-.2.7.7-.1zm18.4 12.1h-.7l.3.5zm2.9-.6-.1.5.5-.1zm-3.5-2.7.5.3v-.5zm9 2.1.9.7.2-1zm2.5.4-.7-.4v.7zm-19.3-2.3h-.7l.3.4zm3-.6-.2.5h.5zm-3.5-2.8.5.3v-.5z"/></g><g xmlns="http://www.w3.org/2000/svg" fill="#da7f57"><path d="m297.8 190.7.2-1-1.2.3zm-6.1.9 1.5-.2-.9-1.4zm-9.4 4.1 1.5-.1-.7-1.5zm1.5-3.8 1.5-.1-.9-1.4zm24.2 13.8 1.6.4-.4-2zm-3.2-1.7 1.7.4-.4-2zm-17.9-5 1.7.5-.4-2.1z"/><path d="m287.7 199.8 1.5.4-.3-1.7zm30.6 7.5 1.7-.4-1.1-1.7zm-5.9-7.7 1.7-.4-1.2-1.7zm-11 .8 1.7-.2-1-1.8z"/><path d="m298.6 200.5 1.2 1.2.9-1.8zm-8.8-5 1.1 1.2.9-1.8zm13.2 4.6 1.2 1.2.9-1.8zm-5.1-1 1.8-.2-1.1-1.8zm-14-.6 1.5-.2-.8-1.4zm12.6 3.2.8-1.6-2-.1zm23.4 1.1.7-1.6h-1.9zm4.2 6.4.7-1.7h-2z"/><path d="m342.1 209.9 1.1-.7-1.1-.7zm-30.4-12.7.8-1.7-2-.1zm-4.7.7.8-1.7-1.9-.1zm28 13.1.7-1-1.4-.3zm-1.9.8.5-1.1-1.3-.1zm-41.6-10.7.8-1.4-1.7-.1zm-.9-2.4.7-1.3-1.7-.1zm4.2 2.6 1.5-.2-.9-1.5zm1.3-4.3 1.7-.3-1-1.7zm-1.2-13.1.3.8.7-.7zm2.2 14.7-.8-1-.6 1.3zm-3.4 1.1.7-.9-1.2-.2zm-5.5-4.4.9.3v-1.1zm24 4.3v-1.2l-1.3.5zm10.7 5.4.1-1.3-1.3.6zm-13.5-4.7.1-1.3-1.3.6zm-8.3 1.9 1-.2-.6-.9zm2.7.3 1-.2-.6-.9zm1.7-10.1.4 1 .7-.9zm4.6 9.1.4.9.7-.8zm5.7 1.7-1.1-.5v1.5zm2.3 1.4-1.1-.6v1.5zm-3.4 3-.3-2-1.7 1.3zm3.4.8-.5-1.9-1.6 1.5z"/><path d="m311.5 203.3 1.4-1.4-2.1-.5zm5.2.9 1.4-1.3-2-.7zm-16.8-4.7 1.4-1.3-2-.7zm-11.2-1.5 1.4-1.3-2-.7zm46.6 13.8h.9l-.4-.9zm3.3 1-.7.5.9.4zm-17.3-7.4-.7.8 1.1.3zM300 193.3l.2.7.7-.5zm4.4-2.6-.5.3.6.4zm-.4 6.8-.5-.6-.3.8zm-17.4-1.7.2.8.7-.6zm4.5-2.5-.5.3.5.5zm-.6 6.8-.4-.5-.3.7zm26.8-2.7-1.1.6 1.1.9zm5.2 6.2-.7-.8-.4 1.1zm-9.9 1.5.6-.8-1.1-.2zm26.1 6.3-.6.6.9.4zm-1.1-2.2-.6.6.9.4zm2.1.6-.7.4.6.6zm-24.4-10-1.6.7 1.4 1.3zm25.1 11.5-1.2-.3.6 1.1zm1.5-1.3-1.3-.5v1.7zm-44.2-7.3 1.1-.7-1.1-.7zm-5.4-6 .7.8.4-1.1zm9.8-2-.6.9 1.1.1zm-2.3.6-1.2.2.7 1.2zm2.6 7.8-.3-1-.8.9zm-9.6-2.3.8-.6-1-.7z"/><path d="m291.7 200.1 1.1-.6-1.2-.8zm-5.5-6 .7.8.4-1.1zm10.1-1.7-.6.9 1.2.2zm11.8 10.5.6-2.5-3 .6zm-22-6.2.4-1.7-1.9.4zm1.5 3.6-.6-2.7-2.4 1.9zm7.6 2-.6-2.5-2.4 1.9zm-3.5-.9-.6-2.7-2.4 1.9z"/><path d="m298.7 203.3-.7-2.6-2.4 1.8zm3.1.8-.7-2.6-2.3 1.9zm3.2.9-.7-2.7-2.4 1.9zm2.1-.1 1.6-2.2-3.1-.6zm8.3 2.8 1.5-2.2-3-.5zm4.5.9 1.6-2.2-3-.5zm-7.2-1.6-.7-2.6-2.4 1.9zm-28.3-7.8-.4-2.4-2.6 1.7z"/><path d="m280.5 197.9 2.7-.7-1.9-2.3zm.9-3.2 2.6-.6-1.9-2.4zm19.2-1.2-.7-.9-.5 1.1zm-4.5 5.4.6-.7-1-.2zm-2.7-8.5.8.4v-.9zm13.8 13.4-1.2 1.6 2.1.5zm3-.7-1.3 1.5 2.1.6zm12.2 5.4 1.7.4-.4-2zm-3.7-.8 1.7.5-.3-2.1zm2.7.4 1.5-2.1-3-.6zm16.4 5.3-.5-2-2 1.5zm-11.8-3.1-.5-2.1-2.1 1.5z"/><path d="m334.7 212.5-.1-1.7-1.8 1zm-13.1-5.1-1.5 1.4 2.5.6zm-25.3-17-.7-.8-.6 1zm-4.6 5.3.6-.6-1-.3zm-2.6-8.4.8.4.1-1zm-10-.2 1.5-.1-.7-1.5zm-9.3 3.5 1.5-.1-.7-1.4zm-4.2 0h1.5l-.7-1.4zm8.2 3.6 1.6.6-.1-2.1z"/><path d="m274.6 195.1 1.4.5-.2-1.7zm2.4-4.2 1 1.4 1.1-1.8zm-5.7 2.3h1.5l-.7-1.5zm7 3.5.8-1.3-1.7-.3zm-.8-2.5.8-1.2-1.6-.3zm-2.1-3.6.9.5.1-1.1zm.2 2.8 1.6-1.2-2-.9zm-1.8-2.4.1.8.8-.5zm4.7-2-.6.3.5.5zm-1.2 6.6-.4-.5-.3.6zm6.7 3.1 1.1-.5-1-1zm-4.8-6.5.6.8.6-1.1zm9.9-1.1-.6.8 1.1.3zm-2.3.4h-1.2l.6 1.3zm1.8 8.1-.2-1-.9.8zm-9.3-3.4.8-.5-.9-.7z"/><path d="m278.5 195.7 1.1-.5-1-.9zm-5-6.3.7.8.5-1zm10.2-.9-.6.8 1.1.3zm-19 1.5.6-1.6-1.9.2zm9.8 5.7-.4-2.7-2.6 1.7zm6.9 2.6-.4-2.7-2.5 1.7zm-3.2-1.2-.4-2.6-2.5 1.6zm-6.3-2.7-.4-2.7-2.6 1.7zm-4.2-1.9 1.6-.4-1.2-1.5zm16.2-6-.6-.9-.7 1zm-5.1 4.9.7-.7-1-.3zm-1.8-8.7.8.5.1-1zm19 12.3 1.2-.4-1-1zm-4.2-6.8.5.9.7-1zm10.2.2-.7.8 1.1.4zm-4.3-2.6-.2-.8-.8.6z"/></g></g></svg>
