<svg xmlns="http://www.w3.org/2000/svg" fill="none" viewBox="0 0 144 88"><path fill="#fff" d="m137.7 33.2-4.1-.1h-4c-1.2 0-2.4.3-3.4.9l.5-7.3c0-2.7-1-5.1-2.6-7-.8-5.2-5.1-6.8-6.8-7.3v-.6c.5-4.1-2.9-11.5-12.2-11.5a20 20 0 0 0-12.7 4.4A13 13 0 0 0 91 2.3c-1.6-2-1.5-.9-2.4.9L88 4.6A6.8 6.8 0 0 0 83.2 8l-1.6.1c-2 .3-3-.2-1.6 2 .8 1.2 1.7 2 2.2 2.6-1.5.5-4 1.4-5 1.5-1.7 0-2.2 1.8-2.2 1.8h12.4v.1H29.6c-5.9 0-10.6 4.8-10.6 10.6l.6 7.7a7.1 7.1 0 0 0-4.2-1.3H8.7a7.2 7.2 0 0 0-7.1 7.1l3.5 27a7.2 7.2 0 0 0 7.2 7.1h2.2l-2.2 13.5h3.4l5.1-13.5h3c.7 0 1.1 0 1.3-.2l1.4.2h92c.5 0 1 0 1.3-.2.3.2.6.2 1.3.2h2.3l5.2 13.5h3.3l-2.2-13.5h3a7.2 7.2 0 0 0 7.1-7.1l3.6-27c0-3.4-2.5-6.3-5.7-7ZM117 16l.9.3-1.8-.1V16h.4-.3l.1-.3.7.3Zm-97 5.7.3-.6-.3.6Zm80 65.7Zm4.6.4Zm-94-.4h-.3.2Zm46 0Zm-39.2.4Z"/><path fill="#9CA5B2" d="M100.4 36.6a3 3 0 1 0-6 0 3 3 0 0 0 6 0Zm-5.7 0a2.7 2.7 0 1 1 5.3 0 2.7 2.7 0 0 1-5.3 0Zm48.8 3.6v-.7l-.6-2v.2a7 7 0 0 0-1.4-2.4 6.9 6.9 0 0 0-2.2-1.5l-.5-.2-.4-.1-.5-.1h-.3l.7.2.7.3.6.3.2.2a7.4 7.4 0 0 1 2.8 3.4c.3.7.5 1.4.5 2.1v.6l-.3 2.2-1.2 8.7-.7 5.7-.4 3.4-.1.4-.1 1.2-.2 1.3v.6l-.4 2.6v.6l-.1.5-.1 1c-.2.5-.3 1-.7 1.7-.4 1-1 1.5-1.6 2-.6.5-1.3 1-2.3 1.3.3 0 0 0 0 0-1 .4-2 .4-2 .4h-1.8.2-1.6l.4.1h-1l-3-.1h-5.6a4 4 0 0 0 1.8-2c.4-.7.4-1.1.4-1.5v-1 .4-11.1.6V40a7.4 7.4 0 0 1 .7-2.9V37c.5-1 1.3-1.8 2.1-2.5h.2l.4-.3.3-.2.3-.2.8-.3 2-.3h2.2c1.2-.1 2.1-.1 1.9-.2H129a7 7 0 0 0-2.6.6v-1l.4-4v-1.2c0 .6 0 .8.1-.4v-1.7l-.1-.3v1-.7l-.1-.7-.4-1.5-.5-1.1-.3-.6a10 10 0 0 0-1.2-1.6v-.3l-.2-1-.2-.5-.3-.6a8.3 8.3 0 0 0-3.8-4.1 9.8 9.8 0 0 0-2.3-.8l.1-.4v-.5l.1-.5v-.6l-.1-1v-.2l-.1-.1a11 11 0 0 0-1.2-3.2l-.4-.6-.4-.6-1-1.1-.6-.5-.5-.5-.7-.5-.3-.2-.4-.2-.8-.4-.9-.4-.4-.2h-.5l-1-.4a18.9 18.9 0 0 0-15 3.2l-.7.6-.1.1a15.4 15.4 0 0 0-2.1-3l-.4-.2c-.1 0-.2-.1-.4 0h-.3l-.4.6-.2.6A19.9 19.9 0 0 1 88 4l-.1.3v.1h-.2l-.1.1-.4.1-.8.3h-.2l-.5.3-.5.4-.2.1-1 .8-.5.8-.2.3-.2.2v.1h-1.3l-1.2.2c.2 0 0 0 0 0H80l-.3.1-.3.1h-.1l-.1.3V9v-.1l.2.7v-.1l.2.4.7 1.2 1 1.2.4.3-.4.2s-.1 0 0 0c-.4.2-.7.2-.7.4h-.3l-.5.2-.3.1h-.1c-.1.1-.1.1 0 0l-.4.2c-.3 0-.6.2-.8.3v-.1h-.1.1l-.7.2h-.4l-.4.1h-.2l-.2.2.1-.1-.4.2c-.1.1 0 0 0 0l-.4.4h.1l-.4.4-.3.7c-.1 0-.1 0 0 .1h-2.4c-25.5.3-5.4.4-5.4.4H94v3.3l.3 3.6v.1c.1 1.3.4 2.7.5 2.7l.2.9s.2.8.7 1.4a2.6 2.6 0 0 1 0 .2l.5.4.3.1h.3c.2 0 .4 0 .5-.2l-.2.1-.2.1h.2l.1-.2.2-.1.1-.2.3-.6.2-1v-1l.4-1.9 1-4 .6-2 .5-1.8H115c1 0 2 0 3.2.2l.8.5a3.9 3.9 0 0 1 1.7 3.6l-.1.7-.2.7c-.2.5-.5.9-1 1.2a6 6 0 0 1-1.3.8c-1 .4-2.2.6-3.2.8l-1.5.5c-.5.2-1 .4-1.2.8a2 2 0 0 0-.3 1v1l.5.8.9.6c.6.2 1.2.3 1.9.3s1.3-.2 2-.3c1.2-.3 2.4-.9 3.5-1.5a8.1 8.1 0 0 0 2.9-3v-.3a8 8 0 0 0 .9-4.3 10.3 10.3 0 0 1 2.1 5.9v.5l-.1 1.4-.5 5.7c-.3.1-.6.3-.8.6l-.7.6-.4.4-.3.4-.8 1.5c-.3.5-.4 1-.5 1.6v-.3l-.1 2v11.5-.6V54c0 1 .2 2 .1 3v.4-.2.5l-.2-.3-.9-1.1c-.6-.6-1.4-1-2.2-1h-6.4 1.1-2 1.8-15.5.2-3.8 1.2-8.7.4H82c-18.4.3-3.9.4-3.9.4h41.3l1.2.6a4 4 0 0 1 1.6 2.2v2.7l.1 6.9v3a3.6 3.6 0 0 1-1.4 2.1 3.6 3.6 0 0 1-.8.5 3 3 0 0 1-1.3.3h-4 .1-8.2c-4 .2-6.4 0-10.6 0h-3l-1.3.1h-3.7.6-3.2.6-59.4c-.4 0-.8 0-1.2-.2a3.8 3.8 0 0 1-2.9-3.4v-11c0-.4 0-.9.2-1.3a3.8 3.8 0 0 1 3.7-2.6H46s32.4 0 7.8-.4h.2-12.4.1H35h.6-10a4.2 4.2 0 0 0-3 2.4V54c-.1-.6 0-.9 0-1.6v-.1l-.1-3v-1.5.6V46l-.1-3.2v-.3.1-2.2h.1v-.9l-.1-.8a18.7 18.7 0 0 0-.5-1.4l-.3-.6-.1-.4-.2-.3-.5-.6-.3-.4-.4-.3-.4-.4-.1-.1-.2-1.7-.3-4-.1-2v-1l.2-.9a11 11 0 0 1 3.9-6.3l.6-.4.3-.2a11 11 0 0 1 4.3-1.5H33s44.7 0 10.7-.4h.3a563.2 563.2 0 0 0-14.2 0H29l-.8.1-.7.1-.6.1h.1a10.9 10.9 0 0 0-7.2 5.7l.1-.2a10 10 0 0 0-1 2.6v.7l-.2.6v1.6l.5 6.8c-.5-.4-1.1-.7-1.8-.8-.7-.3-1.6-.4-2.5-.4h-2.5.3-2.9.5-1 .2H8h.2c-.7.1-1 .1-1.8.4h.2-.2c-1 .3-2.3 1-3.1 2l-.4.4-.5.8-.5.8V37v.3l-.2.6-.1.3c0 .2-.2.4-.2 1V39v.6-.2.8-.2.6-.4 1a33.9 33.9 0 0 0 .5 4.1l.1.3.3 2.1.6 4.6.1.5.6 3.7v1.2-.1l.5 2.9.2 1.5v.7a4.2 4.2 0 0 1 .2.5V63l.2 1.8.3 2.3a8.2 8.2 0 0 0 .2 1.6l.1.5.2.5s0-.2-.2-.3l-.1-.6c.1.6.4 1.2.7 1.8l1.3 1.7.3.2.2.2.3.2v.1l.6.3 1 .6.6.2.6.1c-.4-.1-.2 0 0 0l.8.1h1.1-.6 2.1l-.3 2.1-.2 1.2v.7l-.1.5v.2l-.2 1v-.1l-.2 1.4c0 .8-.3 1.2-.3 2 0-.2 0 0 0 0l-.1.7v.2l-.1.5v-.1l-.1.5v.3c0 .4-.2.6-.3 1v.7l-.1.3h-4 .1-1.2.4H6c-.4 0 .1 0-.1.1H4.7h.1H3c-6 .3-1.2.4-1.2.4h21.8v-.1h6c-.2 0 0 0 0 0h2.5-.1 1l-.2-.1h.6l2 .1h30.4s10.4 0 2.5-.4h-6 .2-8.7.4-1.4l-2 .2c-.4 0 .3-.1-.2 0 0-.1.2 0 0-.1H46l-.3-.1h-5.3.1-1.8.3-.6.1-.9.2-1.1c-.2 0 .4 0 0 0h-5.3.1-.7.2-10.9.1-4.1l.1-.3v-.2s.1-.1.1 0v-.3l.2-.2.6-1.8c.4-.8 1-2.3 1.2-3.1l1.5-3.8v-.2l.5-1 .8-2.1c6.8-.3.2-.3.2-.3h-8.6A8.5 8.5 0 0 1 11 74a6.7 6.7 0 0 1-3.7-2l-1.1-1.6a7 7 0 0 1-.8-2.3v-.7l-.1-.8-.2-1.5-.4-3-.5-3.5v-.4L4 57l-.2-1.4-.1-.6v.1l-.4-2.8-.5-4.1-.8-5.5v-.1l-.3-2.1v-1.1l.1-.7v.2l.2-.8c0-.2.1-.5.3-.7l-.2.3.3-.5.2-.5.2-.3.2-.3.3-.3.2-.3.5-.4.6-.5c1-.7 2.2-1.1 3.4-1.3h7.4c1.2 0 2.3.3 3.2.9l.2.1 1.1.8.4.4s.3.3 0 .1l.4.4.2.3.3.4c.4.8.7 1.6.9 2.5V42l.1 9.6v11.8a3.5 3.5 0 0 0 0 .5v6.7-.8.6a4.2 4.2 0 0 0 .7 2.3 4 4 0 0 0 1.8 1.4h-.5c-.3.1-.5.1-.4.2h.4l.7-.1.6.2H31h-.3 10.2c2.5 0 1.7.2 4.2.1h17.6a5 5 0 0 1-.4 0H62h5.7-.8 1.8-.3H71h-.3 11.5l3.4.1h4.1c-1 0-.5-.1.7-.1h-.3 2.1-.7 9.9c-.6 0 1 0 .6.1h4-.1 12.4l1-.1.5-.1h.2l.8.2-.5-.1h1-.2l1.4.1h-.2 1.1l.1.5.6 1.4.2.7.4 1 .2.6.8 2v-.1c.1.2 0 .3.2.5l.4 1 .2.5-.1-.2.3.8.5 1c0 .1-.1-.2 0 0 0 .3 0 .4.2.7.2.4.2.8.4 1l.2.8v.1l.2.4v.1h-.1l-1.4.2c-.2 0 .2-.1-.1 0 0-.1.1-.1 0-.1h-3.1l-.1-.1h-3.6.1-1.2.2-.4.1-1.2c-.2 0 .2 0 0 0h-4 .1-7.3.1-1.9s.1 0 0 0h-.2c-.2 0-.2 0 0 0h-2.6.2-.4.4-3.4c.2 0 .2 0 0 0h-.7.2-.9c-.3 0 .1 0 0 .1h-1 .2a8 8 0 0 1-1.2 0c-4 .3-.9.4-.9.4h14.5v-.1h4c-.1 0 0 0 0 0h1.7-.1.7l-.2-.1h.5l1.3.1h6.9s.2 0 0 0h13.3s7 0 1.7-.4h-4 .1-2.4v-.2c0-.1 0 .2 0 0l-.2-1.3v-.2c-.2-.4 0-.1-.1-.6l-.2-.7V84l-.1-.3-.1-.7-.1-.7c0 .1 0-.2 0 0l-.1-.8-.3-1.6v-.2l-.3-1.2v-.4l-.2-1-.2-.5v-.3c0-.2 0-.2 0 0v-.7l-.3-1h2.3-.2 1.1-.4l1-.1 1.2-.3.5-.2.4-.1.2-.1c.2 0 .3-.2.5-.3l.3-.2.3-.2.3-.3c-.2.3.4-.3.3-.1l.7-.8.3-.5.3-.4v.1l.9-2.2v-.6l.1-.5v-.6l.1-.5V66l.5-3.5c0-.7.1-.8.2-1.2v.2l.3-2.8.2-1.5v-.5l.1-.2v-.2l.3-1.7.5-4.3v.6-1 .9c.2-1.2.2-2.5.5-3.9V46l.2-.7.3-2.2c0 .3 0 .2 0 0v-.8l.2-1v.6l.1-1.4v-.3ZM75.2 16Zm7.8-.3h-7.7l.2-.1.5-.7c.2-.2.4-.4.8-.5h.4l.4-.1 1-.2 1.1-.4c.2 0 .5-.1.7-.3h.3l.2-.1h.2l.5-.3.6-.2h.1v.4l.6 1.5.2.8v.2H83Zm33.4.2h.1-.1Zm0 0Zm7.6 5.9-.1.8-.1.5-.4 1-.2.5-.1.3-.2.2-.3.5-.4.4-.7.8.2-.3a8.8 8.8 0 0 1-2 1.4 13 13 0 0 1-3.7 1.4h-2c-.5 0-1-.2-1.3-.4-.3-.2-.5-.4-.6-.7a2.3 2.3 0 0 1 0-1.1c0-.3 0-.6.2-.8.1-.2.4-.5.7-.6.6-.3 1.2-.5 1.6-.5l2-.4-.7.1c.2-.1 1.5-.2 2.8-1 .6-.2 1.2-.7 1.5-1.3l.4-1 .1-1v-.4.2-1.2l-.7-1.4a5.4 5.4 0 0 0-2.7-1.9l-.7-.2-.4-.3-.2.3v.2h-12.6v-.2l.4-.6.6-.6.3-.2h.6c.1 0 .4-.1.4 0h1.7c.3.2.7.2 1 .3h.5v-.4l-1.4-.2-.2-.1h-.1l-.2-.1s-.2 0 0 0l-1-.5h-.2l-.2-.2h.1l-.5-.3s.2 0 0 0l-.2-.2c0-.1 0-.2-.2-.3 0 0 0 .2 0 0l-.2-.2-.2-.3h-.1v-.1l-.1-.3-.2-.4c0 .1 0 0 0 0v-.3l-.1-.5V10s0-.1 0 0v-.5l.1-.4c0-.2 0-.3.2-.5 0 0 0-.1 0 0 0-.4.2-.6.1-.8l.2-.2.2-.5.2-.3c0 .1 0 0 0 0l.1-.1.1-.2h.1l.3-.4.4-.3-.1.1.1-.1v.1l.6-.4.1-.1h.2l.2-.1.2-.1h.4-.2l.5-.1c.1 0 0 0 0 0 .1 0 .3-.1.4 0V5h1.5c.1 0 .1 0 0 0 0-.1-.1-.2-.3-.2h-.2c-.4-.2-.7-.2-1-.2l-1.1.2-1 .3-.8.5-.5.5-.4.5s0 .2-.2.3l-.1.3v.1l-.2.2v.3h-.1v.1l-.2.6-.2.8v1.2l.1.5v.1l.1.3.1.2c.1.1 0 0 0 .2h.1l.3.6c.3.4.7.8 1.1 1l.9.5a3 3 0 0 0-1.4 0l-.7.4-.3.4-.5.9v.4h-.9.5-2.7l-.4 1.4.2-.5-.4 1.2v-.3l-.5 1.8.1-.2-.6 2.1c0 .5.3-.8 0 .1l-.5 2.1-.5 2.4v.7c0 .8-.1 1-.2 1v.3l-.4.6v.1h-.6l-.3-.3c0-.2-.3-.3-.6-1l.1.3-.3-.7.1.1a7 7 0 0 1-.3-1.3l.1.4a17.7 17.7 0 0 1-.5-4l-.1-1v-4.5.1-1h-1.8l.2-.2.5-.4.5-.4a5.8 5.8 0 0 0 1.6-2.4l.1-.3.1-.4.2-.8V9.8a5 5 0 0 0-.7-1.8l-.6-.7.2.5c.3.4.4.9.5 1.4.2.7.2 1.2.2 1.8l-.1.3-.1.5-.3.7-.3.6V13l-.2.4-.2.3-.2.2-.2.3-.5.5-.5.4-.4.3-.2.2h-.2l-.1.1h-2 .3-1L88 16s.1 0 0-.1h-3.3l-.1-.1h-1v-.4l-.4-1-.2-.7-.1-.3v.1l-.1-.6v-.2l-.2-.2-.3-.2.1.2-.3-.3h.1l-.4-.4-.5-.5c-.1-.1.2.2 0 0l-1-1.2V10l-.4-.7-.2-.4-.1-.3s0 .1 0 0l.1-.1h.2-.1H81l.4-.1.4-.1h1.5l.2-.3.1-.2a4.8 4.8 0 0 1 .8-1l.1-.2c.5-.6 1-.8 1.2-1l.5-.2 1-.5.7-.2h.2l.1-.1v-.2c.2-.2.1-.2 0 0l.4-.7.4-1 .3-.8V2c0-.1 0-.3.2-.4l-.2.4.4-.7s.3 0 .5.3h.1v.1s.2 0 .2.2l.2.2.6.8c0-.1 0 0 0 0l.2.3.3.4-.2-.2.5.8c.1.3 0 0 0 0l.5.9V5l.1.3.1.2h.1l.5.4 1.4 1.2c.2.3.2.2.2 0l-.4-.5-.3-.4-.9-.7-.2-.2H93V5l-.2-.3.7-.5c1-.7 1.7-1.2 2.6-1.6l.6-.3.6-.3 1.3-.5-.8.3 1.3-.4-1.1.4c1.5-.6 3.1-1 5-1.2h.4l.7-.2h1l1.4.1h.4l.4.1.7.1c-.5 0-.3 0 0 0l1 .2.5.2h.3l.2.1.3.1c.2.2-.6-.2-.8-.2l.6.2.3.1.4.2 1.2.6c.9.5 0-.1.3.1l1 .7.6.5.3.2.2.3-.2-.2.8.8.6.7.4.7.2.4.2.4c.7 1.3 1 2.5 1.1 3.4v2.2c-.1 0-.2 0 0 0 0 .5 0 .5.1 0l1.3.6c.4.2 1 .5 1.6 1 .6.4 1.2 1 1.8 1.7a8 8 0 0 1 1.4 2.6l.1.6.2.6.1 1.3v1.1ZM14.2 76.6v-.1l.1-.1s0-.1 0 0v-.2l.1-.5.2-1.3h2-.3 4.4l-.3.6c-.3.5-.4 1-.5 1.4l-.3.6-.4 1.1V78l-.3.6-.7 2-.1.5-.4 1-.2.5v-.2l-.2.7c-.2.3-.1.7-.3 1v.2l-.1-.1c0 .3-.2.4-.3.7l-.4 1-.3.7v.1l-.2.4s-.1.2 0 .1l-.2.2H13h.4-.7.6-.6v-.2c0-.1 0 .2 0 0l.2-1.2v-.2l.2-.6v-1.1l.1-.1v.1-.3l.2-.8v-.6l.2-.1v-.8l.3-1.5v-.2c0-.6.3-1 .2-1.3v-.4l.2-1v-.5Zm115.9 1.2v.6l.1.4v.3l.2.9.3 1.4c.1.7 0 1.2.3 2 0-.2 0 0 0 0 0 .3 0 .7.2.7v.6l.1.5V85v.3h.1l.1 1 .1.8v.2h-2.9.2-.3l-.2-.5v-.2l-.2-.3v-.2l-.7-1.8-1.2-3c-.6-1.2-1-2.7-1.5-3.9v-.1l-.5-1.1-.6-1.7h.3c.3 0-.7 0 0 0h5.5c0 .7.2 1.4.3 2l.3 1.2Z"/><path fill="#9CA5B2" d="M96.7 55.2ZM85.5 74.6h-.2.2Zm-16.1-19 .1-.2-.1-.2H68l-.1.2.1.2h1.4ZM72.5 19v13.6c0-.1 0 0 0 0l.1.6v17s0 5.2.3 1.3v-7.1.2-1.7c-.1-.1 0 .1 0 0V40l.1-1.4v-.8.1-.9.2V36s0 .2 0 0v-4.3c0 .1 0-.1 0 0v-5.1c0 .1 0 0 0 0v-.2c0-.2 0-.2 0 0v-.6l-.1-1.4v.2-.3.3V22c0 .2 0 .1 0 0v-.5.2-.7c0-.2 0 0 0 0v-.7c-.1-.3-.1-.6 0-.8-.3-3-.4-.6-.4-.6Z"/></svg>
