<svg xmlns="http://www.w3.org/2000/svg" fill="none" viewBox="0 0 223 131"><path fill="#B1CBC0" d="M43.4 37.1Zm.2.5Zm-.3 0h.4s0-.1 0 0c.1-.1.1 0 .2 0v-.1h.4c0 .1 0 0 0 0 0 .1.1 0 .1 0 0 .1.2 0 .2 0s.1.1.2 0c0 0 .4 0 .1-.3h-.4v.1-.1h-.1s0-.1 0 0h-.1V37h-.7v.1h-.4c0 .1 0 .1 0 0-.2.3-.1.4-.1.4 0 .1.1 0 .2 0Zm4-.5Zm.1.4Zm-.2 0h.5c0-.1 0 0 0 0v-.1h.4c0 .1 0 0 0 0h.4s.1.1.2 0c0 0 .3 0 0-.4h-.3c0 .1 0 0 0 0l-.1.2V37h-.1s0-.1 0 0h-.7c0 .1 0 0 0 0l-.1.1h-.2c-.1 0 0 0 0 0H47s0 .1 0 0v.1c-.2.3 0 .4 0 .4h.1Zm3.8-.7Zm.3.4Zm-.3 0s.1.1.2 0h.4c0-.1 0 0 .1 0V37h.7c0-.2.2 0 .2 0s.3 0 0-.5h-.2v.1h-.1s0 .1 0 0c0 .1 0 0 0 0H52c0-.1 0 0-.1 0-.1-.1-.1 0-.1 0s0-.1 0 0h-.1s0-.1 0 0v-.1c0 .1 0 0-.1 0v.1h-.4v.1H51c-.1 0 0 0 0 0s-.1.1-.1 0v.1c-.2.3 0 .4 0 .4h.1Zm3.9-.8Zm.2.4Zm-.2 0h.3v-.1h.2v-.1h.7c0-.2.2 0 .2 0v-.1h.1s.3 0 0-.4H56v.2s0-.1 0 0l-.1-.1h-.1c0-.1 0 0-.1 0 0-.1 0 0 0 0h-.2s0-.1 0 0h-.4v.1h-.4v.1h-.1c-.2.3 0 .4 0 .4 0 .1 0 0 .2 0Zm3.8-1Zm.2.3Zm-.2 0s0 .1.1 0h.2c.1 0 .1-.1.1 0 0-.1.1 0 .1 0v-.2h.4c0 .1 0 0 0 0h.4c0-.2.2 0 .3 0 0 0 .3-.1 0-.5H60c-.1.1-.1 0-.1 0v.1h-.1v.1h-.1s0-.1 0 0c0 0 0-.1-.1 0v-.1h-.3c0 .1-.1 0-.1 0v.1H59c0 .1 0 0-.1 0v.1h-.1c-.1 0 0 0 0 0h-.2v.1h-.1c0 .1 0 .1 0 0-.2.4 0 .4 0 .4h.2Zm3.7-1.2Zm0 .4h.4s0-.1.1 0c0-.2 0 0 .1-.1V35h.5l.2-.1c0-.1.2 0 .2 0s.3-.1 0-.5h-.1l-.2.1c0 .1 0 0 0 0l-.1.2v-.1h-.2c0-.1 0 0 0 0s-.1 0 0 0h-.1c0-.1 0 0 0 0H63s0 .1 0 0h-.4v.2h-.4v.1c0 .1 0 .1 0 0-.2.4 0 .4 0 .4h.2Zm3.7-1.4Zm.3.4Zm-.2 0h.3v-.1h.2c0-.1 0 0 0 0V34h.6l.1-.1c0-.1.2 0 .2 0s.3-.1 0-.5h-.1l-.2.1c0 .1 0 0 0 0l-.1.2s0-.1 0 0v-.1h-.5c0 .1 0 0 0 0v.1h-.4v.1c-.1 0-.1 0 0 0h-.1v.1H66v.1c-.1.3 0 .4 0 .4h.2Zm3.6-1.6Zm.1.4h.2V33h.1s0-.1.1 0v-.1h.1v-.1h.4s0-.1 0 0l.1-.1.2-.1h.2s.3-.1 0-.5h-.1c0 .1-.1 0-.1 0s0 .1 0 0l-.1.1-.1.1v.1h-.2s0-.1 0 0c0-.1 0 0 0 0-.1-.1-.1 0-.2 0 0-.1 0 0 0 0h-.2s0 .1 0 0h-.1c-.1 0-.1.1-.2 0v.2s0-.1 0 0c-.1 0-.1 0 0 0h-.1v.1c-.1 0 0 0 0 0h-.2v.1c0 .1 0 .1-.1 0v.4h.3Zm3.5-1.8Zm.3.3Zm-.2.1h.2v-.1h.1l.1-.1h.1v-.1h.1c.1 0 .2-.2.3-.1h.1l.1-.2h.2s.4-.1 0-.4h-.2l-.1.1c0 .1-.1 0-.1 0v.2-.1H74v.1h-.2c-.1 0-.1.1-.2 0v.2h-.1v.1h-.2v.1c0 .1 0 .1 0 0-.1.4 0 .4 0 .4h.2Zm3.3-2Zm.4.3Zm-.2.1h.2v-.2h.2v-.1h.1v-.1h.1c.1 0 .1-.1.2 0v-.1h.1c.2 0 .2-.1.2-.2h.2s.3-.2 0-.4H78v.1h-.1c0 .1 0 0 0 0v.2s-.1-.1-.1 0v-.1h-.4v.1h-.1v.1h-.2l-.1.1v.2h-.1c0-.1 0 0 0 0h-.1v.1s0 .1 0 0c-.1.4 0 .4 0 .4h.2V30Zm3.2-2.2Zm.4.3Zm-.2.1h.1l.1-.1V28h.1c0-.1.2 0 .2 0v-.2h.1s0-.1.2 0c0 0 0-.1 0 0v-.1h.1l.2-.2h.2s.3-.2-.1-.4h-.1s-.1 0 0 0h-.1l-.1.1-.1.1v.1h-.4c0 .1-.1 0-.1 0v.1h-.1l-.1.1v.1h-.1s0 .1 0 0v.1h-.1v.1h-.1v.5l.2-.1Zm3-2.5Zm.5.3Zm-.2.1h.1V26h.1s0-.1 0 0h.1v-.1h.1v-.2h.1c.1 0 .1-.1.2 0v-.1h.1l.2-.2c0-.1.2 0 .2 0v-.1s.3-.2-.2-.4c0 .1-.1 0 0 .1h-.1s-.1 0 0 0h-.1v.1c0 .1 0 0 0 0-.1 0 0 .2 0 .2H84s-.1 0 0 0v.1h-.2v.1h-.1v.1s-.2 0 0 0c0 .1-.1 0-.1 0v.1s0 .1-.1 0v.2c-.1-.1 0 0-.1 0h-.1v.1c0 .1 0 .1 0 0 0 .4.2.4.2.4v-.2Zm2.9-2.6Zm.2.4.1-.1h.1v-.1h.1v-.1c0-.1.2 0 .1-.1v-.1h.2s0-.2.2-.1v-.1c.2 0 .2-.1.2-.2h.2s.3-.2-.1-.4c0 0-.1 0 0 0h-.2v.1l-.1.1v.2s0-.1 0 0V23h-.4s0 .1 0 0v.1H87v.1h-.2v.1c0 .1-.1 0 0 .1h-.1v.1l-.1.1h-.1v.5l.2-.1Zm3-2.6Zm.4.3Zm-.2.1h.1v-.1h.1s0-.1 0 0v-.1h.1s0-.1 0 0l.1-.2h.2s0-.2.2-.2c0 .1 0 0 0 0h.1l.1-.2h.2s.3-.2 0-.4H91l-.1.1h-.1v.2h-.4v.1h-.1s0 .1 0 0c0 0 0 .1-.1 0v.1H90v.2l-.1.1h-.1v.1h-.1s0 .1 0 0v.1l.1.3.2-.1Zm3.1-2.4Zm.4.3Zm-.2.1h.1l.1-.2h.1l.1-.1v-.1h.4v-.1h.1l.1-.2h.2s.3-.2 0-.5c-.1 0-.1.1-.1 0v.1h-.1s-.1 0 0 0l-.1.1c0 .1 0 0 0 0-.1 0 0 .2 0 .2H94s0-.1 0 0v-.1h-.3s0 .1 0 0h-.1v.1h-.1v.1h-.2c0 .1-.1 0 0 .2h-.1l-.1.1H93v.2l.1.3.1-.1Zm3.2-2.2Zm.2.4h.2v-.1h.1s0-.1.1 0v-.1h.1v-.1h.1l.2-.1c.1 0 0 0 0 0h.1c.2 0 .2-.1.2-.2h.2s.3-.1 0-.4h-.2s-.1 0 0 0l-.1.1c0 .1-.1 0-.1 0v.2s0-.1 0 0l-.1-.1h-.4v.1H97s0 .1 0 0 0 .1 0 0l-.2.1v.2c-.1 0 0 0 0 0h-.2v.1h-.1s0 .1 0 0v.1c-.1.3 0 .4 0 .4l.2-.2Zm3.4-1.9Zm.3.4Zm-.2 0h.2v-.1h.1c.1 0 0-.1.1 0 0-.2.1 0 .1-.1v-.1h.4s0-.1 0 0V16h.1l.2-.1c0-.1.1 0 .2 0 0 0 .3-.2 0-.5h-.2l-.1.1c0 .1-.1 0-.1 0v.2h-.1s0-.1 0 0c0 0-.1-.1-.1 0v-.1h-.2v.1h-.4s0 .1-.1 0v.1c0 .1 0 0 0 0h-.1v.2h-.2c-.1 0 0 0 0 0h-.1v.1c-.1.4 0 .4 0 .4h.2Zm3.5-1.7Zm.4.4Zm-.3 0s.1.1.2 0h.2V15h.3s.1-.1.2 0c0 0 0-.1 0 0l.2-.1h.1c0-.2.2 0 .2-.1 0 0 .4 0 0-.4h-.2v.1h-.1v.1h-.1s0-.1 0 0c-.1 0-.1-.1-.1 0v-.1h-.4c0 .1 0 0 0 0v.1h-.2c0 .1-.1 0 0 .2h-.4c0 .1 0 0 0 0h-.1v.1c0 .1 0 .1-.1 0v.4h.2Zm3.7-1.3Zm0 .4h.3l.1-.1c0-.1.1 0 .2 0V14h.5l.2-.1c0-.1.1 0 .2 0 0 0 .3 0 0-.4h-.4c0 .1 0 0 0 0l-.1.2v-.1h-.2c0-.1 0 0 0 0h-.1c0-.1 0 0 0 0h-.1s0-.1 0 0h-.1s0-.1 0 0h-.2l-.1.1h-.3v.1c-.1 0 0 0 0 0h-.1c0 .1 0 .1 0 0-.2.4 0 .4 0 .4 0 .1 0 0 .1 0Zm3.8-1Zm0 .3s0 .1.1 0h.3c.1-.1.1 0 .2 0v-.1h.7c0-.2.1 0 .2 0 0 0 .3 0 0-.5h-.2l-.1.1v.1h-.1s0-.1 0 0V13h-.1c-.1-.1-.1 0-.2 0 0-.1 0 0 0 0h-.2s0-.1 0 0h-.4c0 .1 0 0 0 0l-.1.1h-.2c-.1 0 0 0 0 0h-.1v.1h-.1c-.1.3 0 .4 0 .4h.2Zm3.9-.7Zm.2.5Zm-.3-.1s.1.1.2 0h.8c0 .1 0 0 0 0h.4s.2.1.2 0c0 0 .4 0 .2-.4h-.4c0 .1 0 0 0 0l-.1.2s0-.1 0 0V13c-.1 0-.1-.1-.1 0 0 0 0-.1 0 0v-.1h-.2c0-.1 0 0 0 0h-.2s0-.1 0 0h-.5v.1c-.1-.1-.1 0-.1 0 0-.1-.1 0-.1 0h-.1c-.2.3 0 .4 0 .4h.1Zm4-.3Zm0 .5Zm-.1-.1h1c0 .1 0 0 0 0 .1.1.1 0 .2 0 0 .1 0 0 .1 0s.1.2.2.1c0 0 .4 0 .2-.4h-.4s0 .1 0 0c-.1.1 0 0 0 0h-.1c-.1 0 0-.1-.1 0 0-.1 0 0 0 0V13h-.4s0-.1 0 0v-.1c0 .1 0 0-.1 0v.1h-.1v-.1h-.1l-.1.1h-.4c0 .1 0 0-.1 0-.2.3 0 .4 0 .4 0 .1 0 0 .1 0Zm3.9 0Zm0 .5Zm-.2 0h.5s0 .1.1 0h.1l.3.1c0 .1 0 0 0 0h.2c0 .1 0 0 .1 0s.1.2.2.1c0 0 .3.1.2-.3 0-.1 0 0 0 0-.1 0-.1-.1-.1 0v-.1h-.3s0 .1 0 0c0 .1 0 0 0 0h-.1s0-.1 0 0v-.1h-.2c0-.1 0 0 0 0h-.1s0-.1 0 0v-.1h-.2s-.1 0 0 0h-.2s0-.1 0 0h-.5c-.3.3-.2.4-.2.4h.2Zm4 .4Zm0 .5Zm-.2-.1.1.1h.4s0 .1 0 0h.1v.1h.3c0 .1 0 0 0 0v.1h.4c.1 0 .1.2.2.1 0 0 .3.1.3-.3h-.1c0-.1 0 0 0 0s0-.1 0 0v-.1s-.1 0 0 0h-.5s-.1.1-.1 0c0 0 0-.1 0 0-.1 0 0-.2-.1-.1l-.1-.1h-.2v-.1l-.1.1s0-.1 0 0v-.1h-.2s0-.1 0 0c-.1 0 0 0 0 0h-.5c-.3.2-.2.3-.2.3 0 .1 0 0 .2 0Zm3.8.9Zm0 .5Zm-.2-.1h.3v.1h.4c.1 0 0 0 0 0 .2.1.3 0 .3.2h.2c0 .1 0 0 .1 0s0 .2.2.2c0 0 .3.1.3-.3 0 0 0-.1-.1 0 0-.1 0 0 0 0V16s-.1 0 0 0c-.1 0-.2-.1-.2 0-.1 0 0-.1-.1 0 0-.1-.1 0-.1 0s0-.1 0 0v-.1h-.2v-.1h-.1v-.1h-.2c0-.1-.1 0-.1 0s0-.1-.1 0h-.5v-.1h-.2c-.3.2-.2.3-.2.3 0 .1.1 0 .2 0Zm3.7 1.2Zm0 .5Zm-.2-.2v.1h.2v.1h.2c.1 0 0 .1.1 0v.1h.1c.1.1.2 0 .3.2h.1c0 .1.1 0 .2 0 0 0 0 .3.1.2 0 0 .3.2.3-.3h-.1v-.1h-.4v-.1c0-.1 0 0 0 0v-.1h-.1v-.1h-.1c-.1 0 0-.1 0-.1h-.2l-.1-.1h-.4v-.1h-.3c-.3.1-.2.3-.2.3h.2Zm3.6 1.7Zm-.1.4Zm-.2-.1v.1h.4v.1h.1s0 .1 0 0v.1h.2c0 .1.2 0 .2.2h.2l.1.2.1.1h.1s.2.2.3-.2c0 0 0-.1 0 0 0-.1-.1-.1 0-.1h-.1v-.1h-.4s0-.1 0 0v-.1s0-.1 0 0v-.2h-.1s0-.1 0 0h-.1v-.1h-.1s0-.1 0 0v-.1s-.1 0 0 0h-.2s0-.1 0 0l-.1-.1s-.1 0 0 0h-.2c0-.1 0 0 0 0v-.1h-.2c-.3.1-.3.3-.3.3h.2Zm3.4 2Zm-.2.4Zm-.1-.2v.2h.2l.1.1c.1 0 0 .1.1 0 0 0 0 .1.1 0v.2l.2.1.2.1h.1c.1 0 0 .3.1.2 0 0 .3.3.4-.2l-.1-.1s0-.1-.1 0c0 0 0-.1 0 0v-.1h-.3s.1-.1 0-.1c0 0 0-.1 0 0v-.2c0-.1 0 0 0 0h-.1v-.1c-.1 0 0-.1 0-.1h-.1s-.1 0 0 0h-.1v-.1h-.1s0-.1 0 0c-.1 0 0 0 0 0h-.1s-.1 0 0-.1h-.2c0-.1 0 0 0 0v-.1h-.2c-.3 0-.3.2-.3.2 0 .1.1 0 .2 0v.1Zm3.2 2.3Zm-.2.5Zm-.2-.2v.1h.2s0 .1 0 0v.1h.1v.1h.1s0 .1 0 0c.1 0 0 0 0 0h.1v.1c0 .2.2.1.2.3h.1l.1.2c.1 0 0 .2.1.1h.1s.2.3.3-.1V25c0-.1 0-.2-.2-.1v-.1h-.2v-.1s0-.1 0 0v-.3h-.1v-.1h-.1v-.1s-.1 0 0 0h-.1c-.1 0 0-.1-.2 0v-.1h-.2V24h.1-.1c0-.1 0 0 0 0s0-.1 0 0h-.1c-.4 0-.3.2-.3.2v.1h.1Zm2.9 2.7Zm-.3.4Zm-.1-.2v.1h.1l.1.1v.1h.1c.1 0 0 .1 0 .1h.2v.1l.1.2v.1h.1l.1.2.1.2s.2.2.4-.2V28l-.1-.1h-.1v-.1h-.2.1v-.1c0-.1 0 0 0 0v-.1s0-.1-.1 0v-.2c-.1 0 0-.1 0-.1h-.1s0-.1-.1 0v-.2h-.2V27h-.2v-.1s-.1 0 0 0h-.1c-.3 0-.3.2-.3.2h.1Zm2.6 3Zm-.3.4Zm-.1-.3v.2c.1 0 0 .1.1 0v.1h.1v.1c.1 0 0 .1 0 .1h.2v.1c0 .1.1.1 0 .2h.1v.1l.2.2v.2s.2.3.5 0v-.1l-.1-.1v-.1h-.1v-.1c-.1 0 0 0 0 0h-.2s.1-.1 0-.1h.1v-.2h-.1c.1-.1 0-.1 0-.1v-.1c-.1 0 0 0 0 0h-.1v-.2h-.1s0-.1 0 0c-.1 0 0-.1 0-.1h-.1v-.1h-.1v-.1h-.1V30s-.1 0 0 0h-.1l-.4.1.2.1Zm2.3 3.2Zm-.3.4Zm-.1-.3v.2l.1.1v.1h.1c.1 0 0 .1 0 .1h.2v.4s.1 0 0 0h.1v.1l.2.2v.2s.2.3.4-.1v-.2h-.1v-.1c-.1 0 0 0 0 0 0-.1-.2 0-.2 0v-.1s.1 0 0 0h.1v-.1c0-.1 0 0 0 0v-.1s0-.1 0 0c0-.1-.1-.1 0-.1V34h-.2v-.2c-.1 0 0-.1-.2 0v-.1l-.1-.1c.1 0 0 0 0-.1v-.1h-.1c-.1 0-.1 0 0 0l-.4.1v.1Zm2.1 3.3Zm-.3.4Zm-.1-.3v.2l.1.1.1.1v.1h.1v.1h.1v.1c0 .1.1.1 0 .2 0 0 .1 0 0 0h.1v.1c0 .2.1.2.2.2 0 0-.1.2 0 .2 0 0 .1.3.4 0v-.1s0-.1 0 0v-.1l-.1-.1c-.1 0 0-.1 0-.1h-.2s.1 0 0 0l.1-.1v-.4h-.1v-.1h-.1v-.3h-.2c0-.1 0 0 0 0V37c0-.1 0 0 0 0 0-.1-.1-.1 0-.1h-.1v-.1h-.1c-.4-.1-.4 0-.4 0l.1.2Zm2.1 3.4Zm-.3.4Zm-.1-.3v.2l.1.1v.1h.1c.1 0 0 .2 0 .2h.2v.3l.1.2.1.1v.2s.2.3.5 0v-.1c-.1 0 0-.1 0-.1s-.1 0 0 0l-.2-.1v-.1h-.1V41c-.1 0 0 0 0 0-.1 0 0-.1-.1 0v-.2s-.1 0 0 0c-.1 0 0-.1-.1 0 0 0 0-.2-.1-.1 0-.1 0 0 0 0v-.1h-.1v-.2h-.1c-.1 0-.1 0 0-.1l-.4.1.1.1Zm2 3.4Zm-.3.4Zm-.1-.3v.2l.2.1v.1c.1 0 0 .2 0 .2h.2v.4s.1 0 0 0l.1.2.1.1c.1 0 0 .2 0 .2s.2.3.5 0v-.1c-.1 0 0-.1 0-.1l-.1-.1h-.1V45h-.1v-.1s.1-.1 0-.1v-.4c-.1 0 0-.1 0 0h-.1v-.2s0-.1-.1 0v-.1c0-.1-.2 0-.1 0V44h-.1v-.2h-.1s-.1 0 0-.1l-.4.1.1.1Zm2 3.4Zm-.3.4Zm-.1-.3v.2h.1v.1s.1 0 0 0h.1v.1s.1 0 0 0c.2 0 0 .1.1.1h.1v.2s.1.1 0 .2h.1v.2h.2v.3s.1.3.4 0v-.4h-.1v-.1c-.1 0 0 0 0 0h-.2s.1-.1 0-.1h.1V48h-.1s0-.1 0 0h-.1v-.4h-.1v-.1h-.1v-.1h-.1v-.1h-.1v-.1l-.4.1.1.1Zm2.1 3.4Zm-.3.3Zm-.1-.2v.2h.2v.1c0 .1.1 0 0 .1.2 0 0 .1.1.1h.1v.2s.2 0 .1.2l.1.1.1.1c.1 0 0 .2 0 .2h.1s.1.3.4 0c0 0 0-.1 0 0v-.1c-.1 0 0 0 0 0V52s0-.1-.1 0h-.1v-.1h-.1v-.5c-.1 0 0 0 0 0h-.1v-.1c0-.1-.1-.1 0-.2h-.2V51h-.1v-.2h-.7c0 .2.1.1.2.2Zm2.3 3.3Zm-.3.3Zm-.1-.2v.2h.1v.1h.1v.1c.1 0 0 .1.1 0v.1h.1v.1l.1.2v.1l.2.2v.2s.2.3.5-.1v-.1h-.1v-.2h-.1c-.1 0 0 0 0 0h-.2s.1-.1 0-.1h.1s0-.1 0 0v-.4s-.1 0 0 0h-.1v-.1c-.1 0 0 0 0 0h-.1v-.2c-.1 0 0-.1-.2 0v-.2h-.1v-.2h-.1c-.1 0-.1 0 0 0h-.4l.1.2Zm2.4 3.1Zm-.3.4Zm-.1-.2v.2h.1v.1h.1v.1h.1s0 .1.1 0v.2s.2 0 .2.2c-.1 0 0 0 0 0v.1l.2.1v.2h.1s.1.3.4 0c0-.1 0-.2-.1-.1v-.1l-.1-.1v-.1h-.2v-.1s0-.1 0 0v-.2c0-.1 0 0 0 0V58h-.1c-.1 0 0 0 0 0h-.1v-.1c0-.1-.1 0 0-.1h-.2v-.1h-.1v-.1h-.1v-.1h-.1c-.1 0-.1 0 0 0l-.4.1.2.1Zm2.6 3Zm-.2.4Zm-.1-.3v.2h.1v.1s.1 0 0 0h.1l.1.1s.1.1.1 0v.1h.1v.1s.2 0 .1.2l.2.1v.1c.2 0 0 .2.2.2 0 0 .2.3.4-.2h-.1v-.1l-.1-.1h-.1s0-.1 0 0c0-.1-.2 0-.1 0v-.1s0-.1 0 0v-.2s-.1 0 0 0v-.1h-.1V61c-.1 0 0 0 0 0h-.1s-.1 0 0 0l-.1-.1h-.2v-.1h-.1v-.1h-.1v-.1h-.1c-.4 0-.4.2-.4.2h.2Zm3 2.6Zm-.2.5Zm-.2-.2v.1h.2s0 .1 0 0v.1h.1l.1.1h.2v.2l.2.1v.1l.2.1c.1 0 0 .2.2.2 0 0 .2.2.3-.3h-.1v-.1h-.1v-.1h-.2V64s0-.1 0 0-.1 0 0-.1h-.1v-.1h-.1s0-.1 0 0v-.1c-.1 0 0 0 0 0h-.1l-.1-.1h-.2v-.1h-.1v-.1h-.2c-.1 0-.1 0 0 0-.4 0-.4.2-.4.2l.2.1Zm3.3 2.1Zm0 .5Zm-.2-.2v.1h.2s0 .1 0 0v.1h.1c.2 0 .1.1.2 0v.1h.1c0 .1.2 0 .2.2h.2c0 .2 0 .1.1.1s0 .2.2.2c0 0 .3.2.3-.3h-.1s0-.1 0 0v-.1h-.2c-.1 0 0-.1-.1 0 0-.1-.1 0-.1 0v-.1s0-.1 0 0v-.1l-.1-.1h-.1s0-.1 0 0V66c-.1 0 0 0 0 0h-.2s0-.1 0 0h-.1s0-.1-.1 0h-.1v-.1h-.1c0-.1 0 0 0 0 0-.1-.1 0-.1 0v-.1h-.1c-.4.2-.3.3-.3.3h.1Zm3.6 1.5Zm0 .5Zm-.2-.1h.4v.1h.4c.1.1.2 0 .3.2h.2s0 .2.1.1h.1s.3.2.2-.3h-.1s0-.1 0 0V68h-.4s0 .1-.1 0c0 .1 0 0 0 0s0-.1 0 0v-.1h-.1v-.1h-.2c-.1 0 0-.1 0-.1h-.2c0-.1-.1 0-.1 0s0-.1-.1 0h-.3c0-.1 0 0 0 0v-.1h-.2c-.3.2-.2.3-.2.3 0 .1.1 0 .2 0Zm3.9.6Zm0 .5Zm-.2-.1.2.1h.8c0 .1 0 0 0 0 .1.1.2 0 .2 0 0 .1.1.1.1 0l.2.1h.1s.3.1.1-.3c-.1 0-.1-.1-.2 0v-.1h-.2v.1s0-.1-.1 0v-.1h-.1v-.1h-.4s0-.1 0 0v-.1c0 .1 0 0 0 0v.1h-.1v-.1h-.3v.1h-.2c0-.1 0 0 0 0h-.2c-.3.3-.2.4-.2.4h.2Zm4 0Zm.2.4Zm-.3 0h.5c0-.1 0 0 .1 0h.1v-.1h.3c0 .1 0 0 0 0 .1.1.1 0 .2 0 0 .1 0 0 .1 0 0 0 .2.1.2 0 0 0 .4 0 .1-.3 0-.1 0-.1 0 0 0-.1 0 0 0 0s-.1-.1-.1 0v-.1h-.2c0 .1 0 0-.1 0v.2-.1h-.1s0-.1 0 0v-.1h-.9v.1h-.3s-.1.1-.1 0v.1c-.2.3-.1.4-.1.4l.2-.1Zm3.9-.7Zm.2.5Zm-.2 0h.4V69c.1-.1.1 0 .2 0h.7c0-.2.1 0 .2 0 0 0 .3-.1 0-.5h-.4v.1l-.1.1s0-.1 0 0v-.1h-.2c0-.1 0 0 0 0h-.1c0-.1 0 0 0 0h-.1s0-.1-.1 0h-.3v.1h-.4v.1c-.2.3 0 .4 0 .4Zm3.8-1.1Zm0 .4h.4v-.1h.2v-.1h.4s0-.1 0 0h.1l.2-.2s.1.1.2 0c0 0 .3 0 0-.4h-.2l-.1.1c0 .1 0 0-.1 0v.2-.1h-.2c0-.1 0 0-.1 0 0-.1 0 0 0 0h-.4s-.1 0 0 0c-.1.1-.2 0-.1.1h-.1s0 .1 0 0c0 0 0 .1 0 0l-.1.1h-.1c-.1 0 0 0 0 0h-.1v.1c-.2.4 0 .4 0 .4h.1ZM192 67Zm0 .4h.2l.1-.1h.1s0-.1 0 0c0-.2.2 0 .2-.1V67h.1l.2-.1h.1l.2-.2s.2.1.2 0c0 0 .3-.1 0-.4h-.2s-.1 0 0 .1h-.1c0 .1-.1 0-.1 0v.2s0-.1 0 0l-.1-.1h-.4v.1h-.2s0 .1 0 0v.1l-.1.1h-.1v.1h-.2v.1c0 .1-.1.1-.1 0v.4h.2Zm3.4-2Zm.4.3Zm-.2.1h.1v-.1l.1-.1h.1v-.1c0-.1.1 0 .1 0v-.2h.2s0-.1.2 0v-.1h.1l.1-.2h.2v-.1s.3-.1 0-.4c-.1 0-.2 0-.1.1h-.1l-.1.1h-.1c0 .1 0 0 0 0v.2h-.1s-.1-.1-.1 0h-.1c-.1 0 0 0 0 0h-.2c0 .1 0 0 0 0v.1h-.1l-.1.1c0 .1-.1 0 0 .1h-.1v.1l-.1.1h-.1v.1c0 .1 0 .1-.1 0l.1.4.2-.1Zm3-2.6Zm.4.2Zm-.2.1h.1v-.1s.1 0 0 0h.1v-.1l.1-.1V63h.1c.2 0 .2-.2.3-.2 0 .1 0 0 0 0 .2 0 .2-.1.2-.2l.2-.1s.2-.2-.2-.4c0 0-.1 0 0 0h-.1v.1h-.1v.1h-.1v.2h-.1s-.1 0 0 0h-.2v.1c-.1 0 0 0 0 0h-.1v.1h-.1s0 .1 0 0c0 0 0 .1 0 0v.1h-.1v.1s-.1 0 0 0c0 .1 0 0 0 0h-.1v.1s0 .1 0 0v.2h-.1c0-.1 0 0 0 0-.1 0 0 0 0 0h-.1v.2c0 .3.2.3.2.3v-.2Zm2.4-3Zm.4 0Zm-.1.2h.1v-.2h.1v-.1l.1-.2c0-.1 0 0 0 0V60h.1l.1-.2c.1 0 0 0 0 0l.1-.1.1-.2.2-.1s.2-.3-.3-.3h-.1s0 .1 0 0c0 .1-.1.1 0 .2h-.1v.2h-.2v.1h-.1v.1c0 .1-.1 0-.1 0v.1s0 .1 0 0v.1h-.1s0 .1 0 0v.1s-.1 0 0 .1v.1h-.1v.1h-.1v.2c.1.4.3.3.3.3v-.2Zm1.7-3.5Zm.5 0Zm-.2.2h.2V57s.1 0 0-.1v-.1h.1l.1-.3c.1 0 0 0 0 0l.1-.1v-.2s.2 0 .2-.2c0 0 .1-.3-.4-.2v.1s-.1 0 0 .1v.1h-.1s.1.2 0 .2c0 0-.1 0 0 0h-.1l-.1.1v.1s-.1 0 0 0h-.1v.2h-.1v.3s0 .1 0 0v.2c-.1 0 0 0 0 0h-.1v.2l.3.3c.1 0 0-.1 0-.2Zm1.6-3.8Zm-.1.2v-.5s.1 0 0 0v-.1l.1-.1v-.2c.1 0 0 0 0 0v-.1c.1 0 0 0 0-.1.2 0 .1-.1 0-.2 0 0 .2 0 .2-.2 0 0 0-.3-.4-.2v.2s-.1 0 0 .1v.1s-.1 0 0 0v.1h-.1v.1h-.1v.1s0 .1 0 0c-.1 0 0 .1 0 .1s-.1 0 0 0v.1h-.1v.4s-.1 0 0 .1v.5c.2.2.3.1.3.1.1 0 0 0 0-.2Zm.3-4Zm.4 0Zm0 .2v-.6h-.1v-.1h.1V49c.1 0 0 0 0 0v-.1c.1 0 0-.2 0-.2s.2-.1 0-.2c0 0 .1-.4-.3-.2v.4s.1.1 0 .1c.1 0 0 0 0 0v.1s-.1 0 0 0h-.1v.2c-.1 0 0 0 0 0v.1s-.1 0 0 .1h-.1c.1 0 0 0 0 0h.1v.1h-.1v.1l.1.2v.3c.1.1.1.1 0 .1.3.2.4.1.4.1.1 0 0 0 0-.2Zm-.3-4Zm.4-.1Zm0 .2s.1 0 0-.1v-.3c-.1-.1 0-.1 0-.2h-.1V45c.1 0 0 0 0 0 .1 0 0-.1 0-.1.1 0 0-.1 0-.2 0 0 .1-.1 0-.2 0 0 0-.3-.4 0v.5c.1 0 0 0 0 0h.2-.1v.1c0 .1-.1.1 0 .1h-.1v.4s.1 0 0 0v.2l.1.1v.4h.1v.1c.3.2.4 0 .4 0v-.2Zm-.9-3.8Zm.4-.3Zm0 .3c0-.1.1-.1 0-.2v-.2s-.1 0 0-.1c-.2 0 0 0-.1-.1h-.1v-.5l-.1-.2c-.1 0 0-.2 0-.2s-.1-.3-.5 0v.1l.1.2c.1 0 0 0 0 0l.2.1h-.1v.2c-.1 0 0 0 0 0v.1c-.1 0 0 0 0 0v.2s.1 0 0 0v.3h.2v.4c0 .1.1 0 .1 0v.1c.1 0 .1 0 0 0 .4.1.4 0 .4 0 .1 0 0 0 0-.2Zm-1.5-3.7Zm.3-.3Zm.1.2v-.2h-.1v-.1h-.1V38c-.1 0 0 0 0 0h-.2v-.4l-.1-.1v-.1c-.2 0 0-.2-.1-.2 0 0-.2-.4-.4 0v.4h.1l.2.1s-.1 0 0 0h-.1v.1c0 .1 0 0 0 0v.4c.1 0 0 0 0 0h.1v.3h.2v.1h.1v.2h.1c.4.1.4 0 .4 0l-.1-.2Zm-2-3.3Zm.2-.4Zm.1.2-.1-.1v-.1h-.1l-.1-.1v-.1h-.1v-.3h-.1V34l-.2-.2v-.2s-.2-.3-.5.1c0 0 0 .1 0 0 0 .1.1.1 0 .1h.1s0 .1 0 0v.1s0 .1 0 0l.1.1c.1 0 0 .1 0 .1h.2s-.1 0 0 0c0 0-.1.1 0 .1 0 0-.1 0 0 0 0 .1 0 0 0 0v.1c-.1 0 0 0 0 .1-.1 0 0 0 0 0v.2c.1 0 0 0 0 0h.1s0 .1 0 0v.2h.1v.1h.2v.2h.1l.1.1.3-.1-.1-.2Zm-2.4-3v-.1Zm.3-.5Zm.1.2v-.1l-.1-.1h-.1v-.1s-.1 0 0 0l-.2-.1V31s-.2 0-.2-.2-.1-.2-.2-.2v-.2h-.1s-.2-.3-.4.1c0 0 0 .1 0 0v.1h.1v.1h.1v.1c.1 0 0 0 0 0h.2v.1s0 .1 0 0v.5h.1v.1h.1v.2h.1s0 .1.1 0v.1s.1 0 0 0l.2.1c-.1 0 0 0 0 .1h.5c0-.2-.1-.1-.2-.2Zm-2.6-2.9Zm.2-.4Zm.1.2v-.2h-.1l-.1-.1h-.1v-.1h-.2V28l-.1-.1c0-.1 0 0 0 0v-.1h-.1l-.2-.2v-.2s-.3-.2-.4.2v.1l.1.1h.1s0 .1 0 0c0 .1.2 0 .2 0l-.1.1v.1c0 .1 0 0 0 0v.1h.1v.1s0 .1 0 0v.1c.1 0 0 .1 0 0v.1h.2v.1c.1 0 0 .1.2 0v.1h.1v.1l.1.1h.1l.4-.1-.2-.1Zm-2.8-2.7Zm.2-.5Zm.1.2v-.1l-.2-.1c0-.1-.1 0 0-.1-.2 0 0-.1-.2 0v-.1h-.1V25c0-.1-.2 0-.1-.2 0 0-.1 0 0 0h-.1v-.1l-.2-.1v-.2h-.1s-.2-.3-.4.2l.1.1.1.1c.1 0 0 .1.1 0 0 .1.1 0 .1 0v.5h.1v.2h.2v.2h.1s0 .1.1 0v.1s.1 0 0 0h.2v.2h.2c.3 0 .3-.2.3-.2l-.2-.1Zm-3-2.6Zm.2-.4Zm.2.2v-.2h-.2v-.1h-.1c-.1 0 0-.1-.1 0v-.1c-.1 0 0 0 0 0h-.1v-.1s-.2 0-.2-.2h-.1l-.2-.2v-.1h-.1s-.2-.3-.4.2h.1s0 .1 0 0v.1s0 .1.2 0v.1h.2v.4c0 .1 0 0 0 0v.1h.1v.1h.1s0 .1 0 0v.1h.1c.1 0 0 .1.1 0v.1h.2v.1c0 .1 0 0 .1 0v.1h.1c.4 0 .3-.2.3-.2l-.1-.1Zm-3-2.4Zm.1-.4Zm.1.1V20h-.2v-.1c-.2 0 0-.1-.2 0v-.2h-.2v-.1h-.1l-.1-.1-.1-.2s-.2-.2-.4.3c0 0 .1 0 0 0h.1v.1h.3v.1s0 .1 0 0v.2s.1 0 0 0h.1v.1h.1s0 .1 0 0v.1h.1c.1 0 0 .1.1 0h.1v.1s.1 0 0 0h.1v.1h.1s.1 0 0 0c.4 0 .3-.2.3-.2 0-.1 0 0 0 0Z"/><path fill="#E3EFF9" d="m163.4 0 30 2.7-6.5 5.3-23.5-8Z"/><path fill="#B5D3E2" d="m187.2 16.7-.3-8.7-23.5-8 7.2 6.1 16.6 10.6Z"/><path fill="url(#a)" d="m187.2 16.7-.3-8.7-23.5-8 7.2 6.1 16.6 10.6Z" opacity=".5"/><path fill="#CADDEA" d="m182.7 11 4.5 5.7-7-4.3 2.5-1.4Z"/><path fill="url(#b)" d="m182.7 11 4.5 5.7-7-4.3 2.5-1.4Z" opacity=".5"/><path fill="#E3EFF9" d="m182.7 11-7.3 6.1-12-17.1 19.3 11Z"/><path fill="#EAEAEA" d="M25.9 59.5h-9.6a2.5 2.5 0 0 1-2.5-2.5v-4.3h63V57c0 1.4-1.1 2.5-2.5 2.5H25.9Zm24.1 0h-9.5l-.4 8.3h10.3l-.3-8.3Z"/><path fill="#fff" d="M45.3 57.1a1.1 1.1 0 1 0 0-2.2 1.1 1.1 0 0 0 0 2.2Z"/><path fill="#B2968E" d="M13.8 52.7V21.3c0-1.3 1-2.5 2.5-2.5h58c1.4 0 2.5 1.2 2.5 2.5v31.4"/><path fill="url(#c)" d="m50.3 63.8-.2-4.3h-9.6l-.2 4.3h10Z"/><path fill="#EDB78E" d="m9.9 72-6 58.7h2l8-58.5-4-.1Zm103.5 0 6 58.7h-2l-8-58.5 4-.1Z"/><path fill="url(#d)" d="M115.6 94.2 113.4 72h-4l3 22h3.2Z"/><path fill="url(#e)" d="m10.8 94.2 3-22-4-.1-2.2 22h3.2Z"/><path fill="#EFBB78" d="M117 72.2H4.5A4.5 4.5 0 0 1 0 67.8h121.5c0 2.4-2 4.4-4.5 4.4Z"/><path fill="url(#f)" d="M117 72.2H4.5A4.5 4.5 0 0 1 0 67.8h121.5c0 2.4-2 4.4-4.5 4.4Z"/><path fill="#fff" d="M220.4 81.8H169a1.8 1.8 0 0 1-1.8-1.7V47.5a1.8 1.8 0 0 1 1.8-1.7h51.3a1.8 1.8 0 0 1 1.8 1.7v32.6a1.8 1.8 0 0 1-1.8 1.7Z"/><path fill="url(#g)" d="M220.4 81.8H169a1.8 1.8 0 0 1-1.8-1.7l53-34.3a1.8 1.8 0 0 1 1.8 1.7v32.6a1.8 1.8 0 0 1-1.7 1.7Z" opacity=".5"/><path fill="#B2968E" d="M167.3 50.9v-3.4a1.8 1.8 0 0 1 1.8-1.7h51.3a1.8 1.8 0 0 1 1.7 1.7V51h-54.8Z"/><path fill="#FFA88A" d="M170.2 49.1a1 1 0 1 0 0-1.8 1 1 0 0 0 0 1.8Z"/><path fill="#FFE197" d="M173 49.1a1 1 0 1 0 0-1.8 1 1 0 0 0 0 1.8Z"/><path fill="#BDD184" d="M175.7 49.1a1 1 0 1 0 0-1.8 1 1 0 0 0 0 1.8Z"/><path fill="url(#h)" d="M220.4 45.8H202v5h20v-3.3a1.8 1.8 0 0 0-1.7-1.7Z" opacity=".5"/><path fill="#8E706B" d="m217.1 48.4.2-.2h-.3l.1.2Zm-.7 2 .2-.3h-.3l.1.3ZM218 49h.3l-.2-.2v.2Zm2.1.7h-.4l.2.2.2-.2Zm2.2 1-1.4-.6 1.3-.6v1.3Zm-1.3-.9.8-.2-.6-.5-.2.7Z"/><path fill="#8E706B" d="m221.6 50.8-.2-.5-.4.6h.6Zm.5-2.5v1.2l-.8-.5.8-.7Zm-4.2 2.1v.2h.2l-.2-.2Zm-1.4-1.3-.1.2h.2l-.1-.2Zm1.2-.7v.2h.1l-.1-.2Zm1 0-.2.2h.2v-.2Zm-3.4 1.4.2.1v-.2l-.2.1Zm2.5 0 .2.1v-.2l-.2.1Zm-3.2-.8h.1-.1Zm0 1.5.2.1v-.2l-.2.1Zm-1.5-1.8h.2-.2Zm4.3.5.2.1v-.2l-.2.1Zm2-.9v.2h.2l-.1-.2Zm-.1 2.2-.3.3h.4l-.1-.3Zm-.6-.3-.2.3h.4l-.2-.3Zm1.4-.3-.2.3h.4l-.2-.3Z"/><path fill="#8E706B" d="m220.9 50.3-.4-.6-.3.5h.7Zm-6.5-2.5h-.3l.2.2v-.2Zm3.9 1.7h-.2l.1.1v-.1Zm.5 1.1h-.2v.2l.2-.2Zm.4-2.3h-.2l.1.1.1-.1Zm-2 1.8h-.2v.1l.2-.1Zm-5.4.3h-.2l.1.2.1-.2Zm.3-2h-.2v.2l.2-.2Zm6 .1.1-.3-.3.2.2.1Zm1.2.7.1-.4-.3.2.2.2Zm1.7 1.6-.2-.5-.2.5h.4Zm-1.6-2.2h-.4l.2.3.2-.3Zm2.4-1.2h-.4l.2.3.2-.3Zm-2.7 2.2v.4l.3-.2-.3-.2Zm1 .8-.5-.1.2.5.3-.4Zm.6-1-.5-.2.2.5.3-.4Z"/><path fill="#8E706B" d="m221.5 49-.5-.2.2.5.3-.4Zm-1-.2-.4-.1.2.5.3-.4Zm1.6-.5v-1l-.9.6 1 .4Zm-1-.4-.6.4.7.2-.1-.6Zm-.1.9-.4-.1.1.5.3-.4Zm1 .5-.6-.2.2.5.3-.3Zm-.3-1-.5-.1.2.5.3-.4Zm-2.1 1h.4V49l-.4.2ZM217 49l.2-.2h-.3v.2Zm1.4 0 .2-.2h-.2v.2Zm2-.6-.7-.3v.8l.6-.5Zm-2.1 1.7-.3.1.3.2v-.3Z"/><path fill="#8E706B" d="m219.7 49.4-.4.1.3.2v-.3Zm-2.2 1v.2-.1h-.2l.2.1-.1.2h.5l-.4-.4Zm2.3-2.5h-.4l.2.1v.3l.4-.1-.3-.3Zm1.9.4v.2l-.1-.1h-.2l.2.1v.2h.4l-.3-.4Zm-1.1 2.5v-.5l-.4.4.4.1Zm-3.8 0 .2-.3h-.4l.2.3Zm2.5-.4.2-.3h-.3l.1.3Zm2.8-3-.8-.5.6-.2.2.7Z"/><path fill="#8E706B" d="m221.6 46.7-.3-.5-.4.5h.7Zm-3.7-.7-.1.2h.2l-.1-.2Zm-6.5 1h.1v-.2l-.1.1Zm3.2-1 .1.2V46h-.1Zm-4.6.3h.1-.1Zm6 .6h.1v-.1h-.1Zm3.2-.8-.2.3h.4l-.2-.3Zm.4 1.5-.2.3h.4l-.2-.3Zm-.9-1.8-.3.2h.5l-.2-.2Zm.5 2-.2.3h.4l-.2-.3Zm-2.1-.4-.3.3h.4l-.1-.3Zm3.3.4-.3.3h.4l-.1-.3Zm1.3.1-.3.3h.4l-.1-.3Zm-5.2-1.7h-.2v.1l.2-.1Zm2.2 0h-.2l.1.2.1-.2Zm-3.6.7h-.2l.1.1.1-.1Z"/><path fill="#8E706B" d="M215.4 48.5h-.2l.1.2v-.2Zm2.2-1.5v-.3l-.3.1.3.2Zm-1.6 1 .2.1V48h-.2Zm.6-.6h-.3l.2.1v-.1Zm1.6.7v-.4l-.2.2.2.2Zm2.7-1.1-.3-.6-.3.4.5.2Zm1-.5-.5-.4-.2.5h.6Zm-1 1.2.6-.4-.6-.5v1ZM220 46l-.5-.1.2.5.3-.4Zm-1.7.9.2-.2h-.2v.2Zm1.8 1 .1-.9-.4.5.3.4Zm-1-1.1v.3l.2-.2-.3-.1Zm1.3.6v.3l.3-.2-.3-.1Zm-1.7 0 .1.3.2-.2-.3-.2Zm-.5-1.6h-.3l.3.3v-.3Zm2 1.2-.3-.1.2-.1-.1-.3-.1.3-.4-.2.1.8.5-.4Zm-1.4 2.5v-.2.1h-.2v.3l.2-.2Zm1.6-3v-.6l-.4.4.4.1Zm.5 0V46l-.4.5.4.1Zm-4 .2.3-.3h-.4l.2.3Zm1.3 1 .2-.3h-.4l.2.3Zm.4-.6.3-.3h-.4l.1.3Zm.5-1 .2-.3h-.3l.1.2Z"/><path fill="#E6F1FA" d="M195.5 54.9Zm16 0Zm-13.6.4Zm-3.2 0h8.6v-.1h.2l.6.1h9.7s.1 0 0 0h.8s3.6 0 .9-.4h-5 .1-.5c-.2 0-.4.2-.7.1 0 0 .1 0 0 0h-.5v-.1h-3v-.1h-.6.1-.8s.1 0 0 0h-1.7l-.1.1h-1.2s-.2 0-.1-.1H200s-.1 0 0 0l-.8.1h-1.4c-.1 0-.1 0 0 0h-1.4.1-.2.2-2.1.1-.4c-.2 0 0 0 0 0h-.5v.1a2 2 0 0 1-.6 0c-2 .3-.5.4-.5.4h2.2v-.1Zm.8 3.8Zm16 0Zm-13.6.4Zm-3.2 0h8.6v-.1h3.8v.1h6.6s.1 0 0 0h.8s3.6 0 .9-.4h-5 .1-.5l-.7.1s.1 0 0 0h-.5V59h-3.6.1-.8s.1 0 0 0h-1.6s0 .1-.1 0H200s-.1 0 0 0l-.8.1h-1.4c-.1 0-.1 0 0 0h-1.4.1-.2.2-2.1.1-.4c-.2 0 0 0 0 0h-.5v.1a2 2 0 0 1-.6 0c-2 .3-.5.4-.5.4h2.2v-.1Zm0 4Zm12-.1Zm-10.2.5Zm-2.5-.1h5.7c-.1 0 0 0 0 0h.8v-.1h.1l.5.1h2.7s.1 0 0 0h5.4s2.7 0 .7-.4a2 2 0 0 0-.7 0h-3.5c-.2 0-.4.2-.5.1-.1 0 0 0 0 0h-.9c-.2 0-.1-.2-.4-.1h-.2s-.1 0 0 0H202h.1-.6s.1 0 0 0h-.6l-.4-.1h-.3v.1h-1v-.1H198l-.6.1h-1c-.1 0-.1 0 0 0h-1.1.1-.2.2-2.2v.1h-.5c-1.5.3-.3.4-.3.4h1.7Zm1.5 3.7Zm16 0Zm-13.6.5Zm-3.2 0h6.3c.4-.2.7 0 1.1-.1h5.1c0 .1.3 0 .4 0h6.2s.1 0 0 0h.8s3.6 0 .9-.4h-5 .1-.5l-.7.2s.1-.1 0 0v-.1h-1.6l-.1-.1h-2.4.1-.8s.1 0 0 0h-.9c-.3 0-.1-.1-.4 0H200s-.1 0 0 0h-2.2c-.1 0-.1 0 0 0h-1.4.1-.2.2-2.1.1-.4c-.2 0 0 0 0 .1h-.5a2 2 0 0 1-.6 0c-2 .3-.5.4-.5.4h2.2Zm-1.4 3.7Zm6.2 0Zm-5.2.5Zm-1.3-.1c.3 0 .4.1.8 0h2.5V72h.1l.3.1h4s1.4 0 .4-.4h-1.9c0 .1-.1 0-.2 0s-.2.2-.3.1h-.5s0-.1-.1 0v-.1h-.8c0-.1-.1 0-.2 0h-.2s0-.1 0 0c-.1 0 0 0 0 0h-.4c-.1 0 0-.1-.2 0v-.1c-.1.1 0 0-.2 0v.1h-1s-.1 0 0 0c-.2 0-.3-.1-.4 0h-2l-.2.1h-.2c-.8.3-.1.4-.1.4h.8Z"/><path fill="#CEE4D0" d="M173 54.5h14.7v14.8H173V54.5Z"/><defs><linearGradient id="a" x1="179.1" x2="174.2" y1="4.3" y2="10.3" gradientUnits="userSpaceOnUse"><stop stop-color="#9CAEE3" stop-opacity="0"/><stop offset="1" stop-color="#9CAEE3"/></linearGradient><linearGradient id="b" x1="182.8" x2="182" y1="13.1" y2="11.7" gradientUnits="userSpaceOnUse"><stop stop-color="#ABC1DA" stop-opacity="0"/><stop offset="1" stop-color="#ABC1DA"/></linearGradient><linearGradient id="c" x1="45.3" x2="45.4" y1="63.9" y2="59.2" gradientUnits="userSpaceOnUse"><stop stop-color="#BDBDC9" stop-opacity="0"/><stop offset="1" stop-color="#BDBDC9"/></linearGradient><linearGradient id="d" x1="112.5" x2="112.5" y1="93.5" y2="83.4" gradientUnits="userSpaceOnUse"><stop stop-color="#E39157" stop-opacity="0"/><stop offset="1" stop-color="#E39157"/></linearGradient><linearGradient id="e" x1="10.7" x2="10.7" y1="93.5" y2="83.4" gradientUnits="userSpaceOnUse"><stop stop-color="#E39157" stop-opacity="0"/><stop offset="1" stop-color="#E39157"/></linearGradient><linearGradient id="f" x1="60.7" x2="60.7" y1="67.1" y2="72.4" gradientUnits="userSpaceOnUse"><stop stop-color="#E39157" stop-opacity="0"/><stop offset="1" stop-color="#E39157"/></linearGradient><linearGradient id="g" x1="212.1" x2="255.9" y1="21.9" y2="135.9" gradientUnits="userSpaceOnUse"><stop stop-color="#ABC1DA" stop-opacity="0"/><stop offset="1" stop-color="#ABC1DA"/></linearGradient><linearGradient id="h" x1="202.1" x2="222.2" y1="48.3" y2="48.3" gradientUnits="userSpaceOnUse"><stop stop-color="#896E67" stop-opacity="0"/><stop offset="1" stop-color="#896E67"/></linearGradient></defs></svg>
