<svg xmlns="http://www.w3.org/2000/svg" fill="none" viewBox="0 0 223 95"><mask id="a" width="224" height="95" x="-1" y="0" maskUnits="userSpaceOnUse" style="mask-type:alpha"><path fill="#232323" stroke="#000" d="m16.6 94 59.6-1 134.6-1.2-11.2-18.7 7.7-12 15-3v-5.7l-18.9-1.6 10.4-19.3-8-9-7.8 9-4-12.5-2.8-18-24.7 8.4v40.8l-13.6 6-5.8 7-1 4.7v2.7l-2.5-1.3-3.5 1.3-2.7 1.4-1.4 3.3v3.2l1.4 2.5h-6.5l-3.6 3.2-5-2.1h-10l-3.8 2.1-2.7 2.5-2.2-3.6-3.5-4.6-3.8-1.9h-4.1l-4 2-3.3 2.4-1.7 3.2-3.5-2.1h-3.5l-1.7-3.6-1.9-3.2-3.2-2.5h-6L62 69.3l-3-4.1-3-.8-4 .5-1.7 1.6-2.7-.5h-3.3l-3.8 2-2.4 3.4.5-17-.5-7.2-5-15.7-1.8 9.8v14.1l1 12.8-1.6-1.7-4-11.6 1.9-3L28 48l-6.5-16.6-3-3.8-3.5-5v6l-3.3 8 4.9 8 3 8.5L0 55.4l15 6 8.7 17.1L16.6 94Z"/></mask><g mask="url(#a)"><path fill="#fff" d="M65.7 19.4ZM49.1-2.8v.1Zm15.7-10.5Zm-14.5-2.9Zm7-5.8Zm148 76.3c-1-.1-2.4-.4-4.2.5-1.7.8-3.6 3-5 4.9l-8.5 10.4h-1.4s.7-4.3-1.8-7.7l2.6-7.8c4.4-13.5 6.5-28.8 6.5-28.8s-4.6 7-8.4 14.8l-3 7.6-1.5 4.4-1.9 6.5a8 8 0 0 0-2 0l-.5-5c-1.6-12.8-4.8-25.4-4.8-25.4s-2.8 12.9-.9 26.7l1 6-1.1 1s-5.2-5.8-15-4.2c-5 .9-7.4 4-8.6 6.9-17.9-8.6-48-20.6-79.6-22.8L64.3 2.6l1.4-3.3v-2.5h-1.4v-10.2H66v-1.8h-.3l-8.2-5.2H57l-8 5.2v1.8h1.7v10.2h-1.4v2.5l1.4 3.3-2.8 38.8H36.3c-1.4-5-3-8.3-3-8.3s-1 4-1.5 8.5l-4.8.1c.2 4.2 1.1 10.7 2 15.6l3.7 15.5-1.9 1-5.7-12a19 19 0 0 0-3.4-4.7 5 5 0 0 0-2.5-.9L4 56l12 3.3c.5.2 1 .5 1.4 1 .7.9 2 2.5 2.6 3.8l3 5.8 2 4 2.4 4.4a9.4 9.4 0 0 0 .4 7.9 7.3 7.3 0 0 0-7.9 4.5h104l5.2-.1h73s2.4-1.5-.6-6.1-7.7-3.7-7.7-3.7 2-2.4.6-7c-.4-1-1-1.7-1.7-2.3L200 63c1.2-1.4 3.1-3.1 4.2-4a3 3 0 0 1 2-1l14.2-2-15.1-1.6Z"/><path fill="#fff" d="M179.5 53.4Zm14.2-28v-.2l-.1.2.1-.2v.3ZM29.6 70.7Zm1.4-2.5Zm1.3 2.3ZM177 90.8h.2-.2ZM75-21.4h14.6c2.8 0 2.4-1.6 2-2.4-.8-1.1-2.7-.6-2.7-.6s.6-2.8-2-4c-2.3-1-4 .2-4 .2s-2.6-4-7.4-2.5c-4.7 1.4-4.2 5.7-4.2 5.7s.2 3.6 3.7 3.6Zm7 .1h.2-.1Zm5.7-6.8ZM142-11.8h32.4c5 0 4.4-6.7-.6-6.4l-3.4.4s1.6-6.7-5-9.5c-7.7-3.2-10.8 4.2-10.8 4.2s-4.2-2-8-.3c-4.3 2-3.4 6.6-3.4 6.6s-3.1-.8-4.3 1.1c-.8 1.4-1.5 3.8 3.1 3.9Zm36.1-2.8Zm3.2 52.3a3.6 3.6 0 0 0 4.2-2.8l4.3-20.6a3.6 3.6 0 0 0-5.5-3.7c-.8.5-1.3 1.4-1.5 2.3l-.8 3.7-.8 4.3-2.7 12.6c-.4 2 .9 3.8 2.8 4.2ZM181 39v-.1Zm5-29Zm-7.7 23Zm14.3 23c1.6 1 3.7.4 4.7-1.1l10.5-17.1c1-1.6.5-3.7-1-4.7-1.7-1-3.8-.5-4.8 1.1l-10.5 17a3.4 3.4 0 0 0 1.1 4.8Zm.6-7.7v-.1Zm8 .4h.1ZM22 51.7a3.4 3.4 0 0 0 6.2.2c.4-.9.4-1.8.1-2.6l-7.2-18.8a3.4 3.4 0 0 0-6.3-.1 3 3 0 0 0 0 2.6L22 51.8Zm4.2 3.2Zm-1.1-14.6Zm3.1 1.1c-.1-.6-.1-.5 0 0Z"/><path fill="#9CA5B2" d="M218.8 56.4h.2l3-.5-3.4-.3h-.7v-.1l-1.8-.2h-.2c-1.2-.1-.6-.2-2-.2h-.3.2l-.7-.1h-.4.3l-1-.1-2.1-.3-2-.2h-.3l-2.1-.3-1.2-.2a6.4 6.4 0 0 0-3.5.7l-.4.4a15.4 15.4 0 0 0-2.7 2.6l-1 1 .2-.2-1.8 2.3-1 1.2-.3.4c.1-.2.2-.3-.1 0a2 2 0 0 1-.2.3c-.4.5-.3.4-.1.2l-1.1 1.3-2.9 3.5c0 .2.1-.1.4-.5l-.7.9.6-.8-2.2 2.7h-1.1v-1.2l.5-1 .1-.2.3-.5.4-.7.1-.4v.1l.7-1.4 1.1-2 1.5-2.7c0 .2 0 0 0 0l.5-1c.2-.4.2-.3.3-.3l.3-.6h-.1l.4-.7-.1.1.3-.5.4-.6h.2l.3.2.5.1h1.1a3.2 3.2 0 0 0 2-1.2l.3-.4.3-.5 1-1.6v.2l.5-1 1.6-2.6.5-.8.8-1.3.5-.7-.2.2.6-1 .9-1.5c0-.3-.1.2 0-.2.1 0 0 .2 0 .1l.7-1 .9-1.4c.3-.6.3-.3.6-1l.2-.2.2-.4.2-.2 1.3-2.2.3-.8.2-.5c0-.2 0-.3 0 0v.2c.1-.6 0-1 0-1.6v.2l-.2-.5v-.3a4 4 0 0 0-.3-.4v.1l-.5-.8c-.2-.1.2.3 0 0a3 3 0 0 0-.7-.5l.6-.8 1.9-3.2c.7-1.3 1-1.8-1 1.1l-1.3 2-.4.8-.9-.4h-1.4l-.5.2h-.2l-.3.2-.2.1-.3.2-.1.1v-.1l-.1.2-.2.2a3 3 0 0 0-.5.5l-.2.4-.6 1c.1-.2-.2.2-.1 0l-.6 1-1.3 2.1-.1.3c-.4.8-1 1.3-1 1.7l-.4.6V41l-.7 1.3-.4.7-.2.2s.1-.1 0 0l-.1.2c-.2.3-.1.2 0 .1l-.5.8-1.3 2 .2-.2-.3.5.2-.5-1.1 1.9v.1h-.1l-.1.3-.3.3-.6 1.1c0-.2 0-.1 0 0l-.2.4-.3.5.1-.3-.6 1c-.2.3 0-.1 0 0l-.3 1.2v-.1l.1 1.5a3.3 3.3 0 0 0 1.5 1.8v.1s.2 0 .3.2l-.2-.1v.2c-.4.6-.3.2-.6.8v.1l-.5 1c.1-.3 0-.1 0 .2v-.1c-.2.1-.2.2-.2.3l-.2.2v-.2l-.1.5-.7 1-.5 1-.1.1-.5 1-1.3 2.3s-.2.3 0 .3c-.5.8-.9 1.4-1 1.8l-.3.6V67l-.3.7v-.1l-.5-2.5a9.3 9.3 0 0 0-1.3-2.7v-.3.1-.3l.7-1.9c-.2.5-.1.3 0-.3v.1l.3-.7.1-.3v.3l.2-1 .8-2.1.5-1.9c0 .2.2-.6.2-.3l.6-2.1.7-2.3.6-2.3s.2-.8 0-.6l.7-2.2.3-1.4.3-1.3v.2l.6-3c.1-.5 0-.6.3-1.5v-.5c0 .3 0 .3.1-.1v-.3a3.7 3.7 0 0 0 0-.1l.5-1.8.8-4.6-.1.6.2-1-.2.9.4-2 .1-1 .2-1.5v-.4l.1-.1v-.2l-.3.5c-.2.2 0-.2-.6.8l-.1.3-.2.2-.3.5-.7 1.2c.2-.4.2-.3 0-.1l-.4.7-.6 1c0 .2.3-.5.4-.6l-1.2 2c-.4.7.1-.1 0 .2l-1.1 2 .1-.3-1.4 2.6a65.6 65.6 0 0 0-1.2 3l.5-1 2.3-4.4 2.8-4.7 1.1-1.9.2-.3.1-.1-.2 1.2-.5 3.1-1.1 6-.8 3.6v.4l-.4 1.2c0 .5-.2 1.2-.3 1.4l-.1.7v-.1l-.7 2.8a69.4 69.4 0 0 0-1.2 4.1c-.5 2.1-1 3.3-1.7 5.5.1-.3 0 0 0 0-.3 1-.7 2-.6 2.1l-.3.7-.4 1.2.1-.3-.5 1.6a8.5 8.5 0 0 0-3-2.4c-.8-.3-1.5-.6-2.3-.7v-.3l.7-2.5.5-1.7.6-2.2.7-2.1c.8-2.6 1-3.6-1.2 2.6l-1.2 4.3v-.3l.3-3.4.2-2V51l.1-.7.1-.8v-.4l.3-1.5.3-2.4.5-3.2c0 .2 0 0 0 0l.2-1.2v-.4s0-.4.2-.7v.1-1 .3l.2-.6v-.7c.6 0 1.1 0 1.5-.2l.5-.2h.2l.3-.3.3-.1.4-.4.1-.2c.3-.3.5-.6.6-1l.3-1.4.2-.8s.2-1 0-.4v.1l.4-1.5-.1.3.1-.5.2-.7v.1l.1-.9c0-.2 0 .4 0 0l.4-1.8v-.3c.2-.7.2-.3.3-1 0-.7 0-.4.2-1 0 .2-.1 0 0-.2v-.3l.1-.2v.2-.5l.3-1.1.2-1v-.2l.3-1 .5-2.4v-.3c.1-1 .4-1.6.3-2l.2-.6v.1l.3-1.5V14c.1.2.1 0 .1-.2v-.1a1.3 1.3 0 0 1 0-.2c0-.3 0-.2 0 0 0-.1 0 0 0 0l-.2-1c-.3-1-.8-1.4-1.5-1.9l.2.1-.3-.2.4.2-1-.5-.5-.1.2-1.1.8-3.9c.3-1.4.3-2-.6 1.5l-.5 2.5-.2 1-.2-.1h-.9a3 3 0 0 0-1.2.5c.2-.1.1 0 0 0l-.4.2-.4.4.2-.2a1.9 1.9 0 0 0-.5.6l-.2.3c-.2.3 0 0 0 .1a5 5 0 0 0-.4 1l-.3 1.5c-.8 4.9 0 1 0 1a47.7 47.7 0 0 0 1-3.5c.3-.4.6-.8 1-1 .9-.6 1.6-.6 2.2-.5.6 0 1.2.2 2 .9.6.7 1 1.7 1 2.6 0 .2 0 .5-.2.9l-.2 1v.1l-.1.6-.2.8v.3l-.3 1.4c-.2 1-.2 1.3-.5 2.1-.1 1.1-.4 1.7-.5 2.9 0-.2 0 0 0 0-.2.5-.3 1-.2 1.1l-.1.4-.1.6V26l-.2.8.1-.2-.2.6c0 .6-.2 1-.3 1.5l-.8 3.9-.4 1.8-.2 1-.4.7-.2.3-.3.3-.2.2s-.2.1 0 0l-.4.3-.2.1-1.4.4c-.4 0-.9 0-1.3-.2a3.6 3.6 0 0 1-2.2-2.8v-1.1c.4-2 1-4 1.3-6v-.3l.5-1.7s1.8-8.6 0-2.2l-.4 2.2-.2 1-.4 1.8v-.1l-.2 1-.6 3-.2.8v.4l-.1.5v1h.1c0 .1.1.7.5 1.2.3.5.8.8 1.3 1l.2.1h-.1l1 .4v.1l-.2 1v.2c0 .6-.1.3-.2 1v.3-.1.7-.2l-.1.5-.3 1.3-.1 1.1c0-.2 0 .3-.1.2l-.2 1.2-.4 2.6v.4c0 1-.3 1.7-.2 2l-.1.8v-.1l-.2 1.7v1.1c0-.1 0-.2-.1.1v.3l-.1 1-.2 2.6V57v.6-.5l-.2 1.7h-1.8l-.1-1.2-.1-1.5v.5l-.2-2.1-.5-3c0-.6.1.4 0-.4v.2c0-.7 0-1.2-.2-2v-.1l-.5-3c-.2-1.2 0-.8-.3-2v-.5l-.3-1s-.1-.7 0-.4l-.9-4.4-.4-1.5s-.3-1.8 0-.8v.4l-.6-2.8v.5l-.2-1 .1.2-.3-1.3v.2L172 30c-.1-.3 0 .7-.1 0l-.2-1-.3-1.3-.4 1.6-.1.7v.5l-.1.6c-.2 1.2-.2.4-.3 1.6v.3c-.1 1-.2.5-.2 1.8v.3-.1l-.1.6v.4-.3l-.1 1-.2 2v1.9c-.1-.3-.2.5-.2.3v7l.2 2.1.1 1.4v1.2-.2l.4 2.8.2 1.5v.5l.1.3c.1.6.1.5 0 .2l.3 1.6.3 1.9-.4.3-.4.4-.1.1-.3-.2-.6-.6a18.3 18.3 0 0 0-17.3-2.2 8.7 8.7 0 0 0-3.7 2.8c-.8 1-1.4 2-1.8 3L141 62l-.4-.2c-.2-.2-3.1-1.3-3.5-1.5l-1.3-.6-.5-.2-2-.8-1.4-.6A257.4 257.4 0 0 0 93.3 46a208.2 208.2 0 0 0-26-4l-.2-4v-2h24.3l2.4-.1h2.1-.3 1.9-.4 21.3c.1.1 1.4 0 1.6 0h37.2s18.8 0 4.5-.3h-11 .4-15.8.7-2.6l-3.6.1h-.4.2-6l-2.4-.1h-10.3.4-3.3.5-1 .1-1.6.2-2c-.3 0 .8 0 0 0h-9.6.2-1.2.4-20 .2H67l-.2-1.8-.1-2c-.2-1-.2-2.3-.3-3.4v.4-2l-.5-5.7-.2-1.6v-.1l-.2-2.8V15v.6l-.2-2.2c0-1-.3-2.1-.3-3.2V10v.2V8l-.2-3.1-.2-2.1v-.3l.2-.2V2a4.8 4.8 0 0 0 .3-.6l.3-.6s.7-1.6.5-1.5V-1c0-.1 0 .2 0 0v-.7h.1v-1.7h-1.4v-2.3a34.8 34.8 0 0 0 0-2.7v-4.9h1.3-.1.4V-15h.2l-.3-.2c-.2 0-.2-.1-.3-.2l-.5-.3-.2-.1v-.1c-.1 0-.2 0-.3-.2h-.2c0-.2 0-.1-.2-.2l-.1-.1-1.2-.8-.4-.2-.2-.1s.1 0 0 0h.1l-.7-.4s.2 0 0 0l-.1-.1-.3-.2c-.2 0-.2-.2-.4-.3-.1 0 .1.2 0 0l-1-.5c.1 0 0 0 0 0v-.1l-.5-.3-.5-.3H59l-.2-.1-.2-.2-.5-.3-.2-.1v-.1l-.3-.1-.1-.6v-2.2h-.1v-1c.1 0 0 0 0 0s0-.1 0 0v-.1c.1-.2 0-.3 0-.4v-1.3s0-1-.3-.3v1.3c.1 0 0 0 0 .1 0 0 .2.1.1.2v.3s-.1 0 0 .1H57v2.5c0 .1 0 0 0 0v1h.1v.3l-.3.3h-.2l-1.1.8-.1.1c-.4.3-.8.4-.9.6l-.3.2-.7.4c-.1.1 0 .2-.3.3H53v.1c-.2.1-.2.1-.1 0l-.4.3-1 .8c-.1 0 0 0 0-.1l-.2.1.2-.1-1 .6-.2.2h-.2l-.3.2-.1.2-.2.1c.1 0 .1 0 0 0l-.3.2-.3.2c-.2 0 .1 0 .1-.1l-.4.3h.4l-.1.7v1h1.7v6c0-.1 0 0 0 0v1.7-.1 2.3H50h.2-.3.2-.9v1.7c0-.1 0 0 0 0v.6-.2.6l.1.5.8 1.7.2.6v.3l.2.1v.9c0 .3 0-.7 0 0L50.2 7v.5c0 1.3-.1.5-.2 1.7v2.5-.2l-.1.7v.4-.4l-.1 1-.2 2.1-.1 2v.2l-.2 2.1L49 24v.6l-.3 3.5v1.3-.2l-.3 2.8v2c0-.2 0-.3-.1.1v.5l-.1 1h-2 .2-3.3c-10.8.2-2.3.3-2.3.3h7.4v.4l-.3 4.4v-.6l-.1 1v-.9 1H36.4l-1.2-4a34.1 34.1 0 0 0-.8-2.1c0-.4-.2-.7-.4-1l-.2-.7-.4-.8v-.1l-.1.3v.1l-.2.6-.1.4-.2.6-.3 1.3-.3 1.9-.4 3.3v.4c-1.8 0-3 .2-3.4.2h3.4v1l.5-3.6.6-3.3.4-1.5.1-.7.1.3.3.6-.1-.2.5 1.4c.6 1.4 1.2 3.4 1.5 4.3L36 41l.6 2.2.2 1.1V44c0 .1 0 .9.3 1.7l.5 2.4c0 .4-.1-.3 0 .2 0 0 0-.2 0 0l.1 1.6.3 2.4v8.6-.2 2.2-.3.7-.1l-.1 1v1.3c0 .2 0-.6 0 0l-.2 2.7v.5l-.1 1.3v.2l-.1 1.4a10.6 10.6 0 0 0-2.6.2l-1 .3h.1l-.4.2-.6.2v-.8l-.2-1.2V70c0 .2 0 .3 0 0v-.5.1l-.1-1.3-.3-3.5v.5-.8.7l-.1-3.1v-.2l-.1-.4v-.6l-.1-1.8v.1-.7l-.1-.8v.5-1.7c-.1-.6 0 .1-.1-.2l-.1-1.6v.2-2.2l-.2-3.4v-.2l-.1 1.2v.8c-.2 3 0 4.4.2 7.8l.4 7 .4 4.5.2 2.3h-.3l-.4-1.5-.8-3.2-.6-1.9V66l-.2-.6-.3-.8v-.3l-.5-1.4-.7-2.2c-.5-1-.6-1.8-1-2.9 0 .2 0 0 0 0l-.5-1.1v-.4l-.3-.6v.1l-.2-.8v.2l-.2-.6-.2-.6.2-.1h.3l.4-.3a2.3 2.3 0 0 0 .5-.4 3.5 3.5 0 0 0 1.1-2.4c0-.5 0-1-.2-1.4l-.6-1.5-1.8-4.5-1.1-3-.7-1.8-.1-.2-.2-.6-.3-.7-.1-.3-.6-1.3-.8-2.1c-.5-1-.6-1.7-1-2.8 0 .2 0 0 0 0l-.7-1-.3-.3-.6-.4h.2c-.3 0-.6-.2-.8-.3l.1.1-.3-.1-.2-.1-.9-.1h-1l-.3-.8-1.4-3.5c-.6-1.4-.9-1.8.3 1.5l.8 2.2.3.8a3.3 3.3 0 0 0-1.4 1 3.8 3.8 0 0 0-.8 1.9 3.8 3.8 0 0 0 .3 2l.6 1.7v.1l.3.7.2.3v.1c0 .3 0 .3.2.4v.3l1.1 2.8 2 4.8 2.2 5.9v.2l.4.8a4.6 4.6 0 0 0 .4 1l.2.2.7.7a3.5 3.5 0 0 0 2.3.7l.6-.1v.1l.3 1h.1c.3.6 0 .4.4 1-.1-.3 0-.1 0 .2l.2.3c-.1-.1-.1 0 0 .2v-.2l.1.5.4 1.2.3 1c0-.2.1.3 0 .1l.4 1.1.8 2.4.2.3.6 2 .2.6.4 1.5.2.8v.2c0-.1 0-.2 0 0l.1.2c.1.3.1.3 0 .1.1 0 .1 0 0 0 .2.3.3.9.3 1l.7 2.3-.1-.3.1.6-.1-.5.3 1.3a7 7 0 0 0-.3.2l-.6.3-1.4-3-1-2-.2-.4-.3-.7-.4-.8-.2-.4-.8-1.7-1.3-2.5-.9-1.6-1-1.6v-.1l-1-1-.3-.4-.7-.6.1.1-1-.5.2.1-.7-.2-1-.2h-1l-10-.2H2.4l1.8.4 1.7.5 6.3 1.7a72.6 72.6 0 0 1 4.6 1.6c.2 0 .3.2.4.3l.3.4 1.1 1.6.1.2h.1l1.2 2s5 10.2 1.5 2.4a43.5 43.5 0 0 0-1.6-3.2l-.4-.6-1.3-2 .1.2-.8-1.1a3 3 0 0 0-.8-.8l-1-.4-1.8-.4-1.1-.3-2-.6-1-.3.4.1-1.5-.4c-.7-.2-1.4-.2-2-.5h-.3.1l-.3-.1H6l-.1-.1-.4-.1A4 4 0 0 1 5 56h2.4s.5 0 .3.1h4.8-.1l-.1.1h2-.3.7-.2 1-.1 1.2c.2 0-.5 0 0 0h2.8v.1l.6.1.5.2h.1c.4 0 .5.2.6.2l.5.4c-.3-.2-.1-.2.2.1h-.1l.3.3.2.2a3.9 3.9 0 0 0 .3.3c.3.4.8 1 .8 1.2l.3.5.5.6c-.2-.2.1.3 0 .2L25 62l1.4 2.8s.2.5.2.3c.5 1 .8 2 1.1 2.3l.4.8V68l.8 1.8.5 1c-.1-.2 0 0 0 .2v.1l.2.2c.2.4.1.3 0 .1l.5 1 .7 1.4-.2.1h.2c-.7.4-.2 0-1 .7l-.4.5-.4.4-.7.9-1 1.7-.8-1.5c-3.2-5.7-.9-1-.9-1l1.3 2.4.3.4a9.6 9.6 0 0 0-.6 4v.4l.1 1 .2.5a9.5 9.5 0 0 0 .5 1.5v.2a8 8 0 0 0-1.4 0 7.6 7.6 0 0 0-5.7 3.7l-.2.4-.1.2-.2.2v.3c-.1.1 0 0 0 0h.7l3.3.1h49.8c.1 0 0 0 0 0H88c0 .2 0 .2 0 0h20.3a5.9 5.9 0 0 0 .5 0h4.3s20.6 0 5-.3H106h.4-9.7.2H89h.8-2a9 9 0 0 0-.8-2.7l-.3-.4-.2-.4a9.7 9.7 0 0 0-2.6-2.8l-.3-.2.2-.2.4-.8-.2.2.6-.8.7-1c.2-.3-.6.7 0 0l.6-.7.4-.4.4-.4c.2 0 .3-.2.5-.3l.5-.4.4-.3.5-.3.6-.3c.7-.4.8-.4 1-.4l1-.4H91h.4l.7-.2h.4l.4-.1h.8c-.6 0-.3-.1.4-.1H94h.5a5.4 5.4 0 0 1 .9.1h-.5.6l.6.1c.9.2 2.2.7 2.5 1h.3l.6.4.6.5.5.3c-.3-.2.4.5.2.3a9.1 9.1 0 0 1 1.7 1.8l.8 1.2.6 1.3.5 1.2.4 1.4v.5l.1.2c0 .1 0 .1 0 0l.2 1.2h.1l.4-.9.2-.3.2-.3.4-.5 1-1.3.8-.6.5-.4-.2.2 1.6-1 1.5-.6 1.8-.6h.8l.3-.1.5-.1h-.3l1.2-.1h.9a15.5 15.5 0 0 1 4.7.1l1.3.4-.5-.1-.6-.2a14.5 14.5 0 0 1 4.8 2.2l.3.1.3.2.7.5 2.4 1.7c-.4-.3-.3-.2 0 0l.7.6 1.1.8-.6-.4 2 1.7c.8.6 0-.2.3.1l.4.3.2.2h-1.5.3c-1.6.2-2.5.2-3.6.2l-2.5.1h-1c-6 .4 1 .3 1 .3l3.3-.1h59.5-.1 5-.2 7.5l.2-.2h.1a2.2 2.2 0 0 0 .5-.7l.1-.3c.2-.4.2-.9.2-1.3 0-.8-.3-1.5-.6-2.2-.3-.7-.7-1.4-1.2-2-.4-.8-1-1.4-1.8-2l-.2-.1a6 6 0 0 0-2.3-1.1l-.4-.1h-.4l-.4-.1h-.7l-.3-.1h-.5a1 1 0 0 0-.1 0h-.2l.1-.1v-.1l.3-.6c0 .1 0 .3-.2.4.3-.4.4-.9.5-1.4l.2-.7v-.7.5V76l-.7-2.6a4 4 0 0 0-1.3-2l1.5-1.7 1-1.2-.3.4c0-.2.8-.8 1.5-1.7l2-2.5.2-.3s-.2.3 0 .2l1.4-1.7a15 15 0 0 1 2.2-2.2c.9-1 .7-.6 1.6-1.5l.4-.3.4-.3.4-.2.3-.1c.2 0 .3-.1.1 0l.5-.2h.5l1.2-.2a59 59 0 0 1 2.5-.3l1.6-.3s1.9-.3.8 0h-.3c1 0 1.9-.3 3-.4h-.5l1-.1h-.2l1.4-.1h-.2l.9-.1h.4l.8-.2h-.3Zm-26-.5h-.1l-.2-.2-.3-.3a2.3 2.3 0 0 1-.3-.4c-.5-.8-.6-1.6-.5-2.3 0-.4.1-.7.4-1.1l.8-1.4c1-1.8 1.4-2.2 2.6-4.1l1.6-2.7 1-1.7.1-.1.3-.6.4-.6.2-.3.8-1.3 1.1-1.9 1.6-2.5c0 .1 0 0 0 0l.7-.9.3-.1.5-.3.7-.2h-.1.5v-.1c.6 0 1 .1 1.5.4l.8.5a3.3 3.3 0 0 1 1 2.6 3.5 3.5 0 0 1-.6 1.7l-1 1.6-.4.7-.2.3s-.1.2 0 0l-.3.5-.1.2-1.6 2.5-2.7 4.4-3.3 5.4-.1.2-.5.8-.5.7-.3.3-.7.5a3.4 3.4 0 0 1-2.2.2l-1-.3.1-.1ZM26.3 53.8H26l-.3.1H25l-1-.3-1-.7-.6-.7-.2-.5-.2-.5-.7-1.7.1.1-.4-1-1.1-2.9-.4-.8-.6-1.5-.2-.8v.3s-.1-.6-.4-1.1l-.7-1.6c-.1-.3.1.2 0-.2 0 0 0 .2 0 0l-.4-1-.6-1.6c-.2-.6 0-.4-.4-1V36l-.2-.5-.1-.3L15 33l-.2-.8v-.4c0-.2 0-.3 0 0 0 0 0 .1 0 0v.2c0-.6 0-1 .3-1.5l-.1.2.2-.4.2-.2.2-.3.6-.6c.1 0-.3.2 0 0 .4-.3 1-.5 1.7-.5h.7l.4.2h.1l.9.4.2.1H20l.2.2.2.2-.2-.1.2.2.1.1a4.5 4.5 0 0 1 .5 1l.4 1v.2l.4 1c.3 1 .7 1.5 1 2.4 0 0 .1.3 0 .2.4.8.6 1.6.8 1.8l.3.7v-.1l.5 1.4c0 .3.2.3.3.8v.2l.1.1v.2c.2.3.2.2.1 0l.3 1 1 2.1-.2-.2.2.5-.2-.5.8 2v.2l.2.3.1.4.5 1.1c-.1-.2 0-.1 0 0l.1.4.3.6-.2-.4.4 1.1c.2.4 0 0 .1.1.1.4.2.7.1 1.1v-.1c0 .7 0 1-.3 1.5-.3.6-.6 1-1 1.2l-.6.4h-.2c0 .1 0 .1 0 0v.1Zm158.2 8-.1.4.1-.4Zm-13.6-5-.2-1.6-.2-1.7V53l-.1-1.2-.2-1.3V50l-.1-2.6v-6.6l.2-2.7c0 .3 0 0 0 0l.2-2v-.7l.2-1.2v.3l.1-1.6v.3l.1-1 .2-1.5.2-.6v-.3l.1-.1.6 2.4.8 3.4a91 91 0 0 1 1.3 6.4v.2l.3 1.4v.4c0 .2.1.5 0 .2l.2.8.1.5.4 2.6.4 2.7.3 2 .3 2.5.3 2.5.1 1.2-2 .5-.4.1-1 .6-1.2.7-.3.3-.6-4.2ZM50.5-13.7a6 6 0 0 0-1 0h-.3v-1.1L49-15c.1 0-.1 0 0 0h.9l-.1-.1h.8c2.8-.2.6-.3.6-.3h-1.6.1l1-.6 1-.7 1.5-1 .9-.6.4-.2.3-.2.2-.1.6-.5 1-.6a2.3 2.3 0 0 1 .4-.3h.3l.2.1.3.2.6.3.2.2.3.1.3.2.2.2.7.5 3.6 2.2.4.3h.1s.2.1 0 0l.3.2.1.1.2.1.3.2h-7.3s-4.8 0-1.1.3h6.8-.2 1.2l.4-.1h.2s-.1 0 0 0h.7v.3l-.1.7v.4H50.5Zm13.7 4v2.3-.1 4.1h-1.4.2-.9l-1.3.1h-.1s.1 0 0 0h-2.2l-.9-.1h-3.8.1-1.1.1-.4.1-.6.1-.7c-.2 0 .3 0 0 0h-.5v-3.2.2-2.2c0 .2 0-.2 0 0v-4.7H52l.2-.1h.6s-.1 0 0 0h.2c.2 0 .2 0 0 0h3.7-.1.7s-.2 0 0 0h.7l.3.1h.4c-.1 0 0-.1 0 0h2.4l.7-.1h1c-.1 0 0 0 0 0h.1c.1 0 .1 0 0 0h1.2-.1.1-.1.3l-.2 1.8v1.8Zm-13.9 11v.1-.1l-.1-.2V.9c-.2-.1-.1 0-.2 0V.4v.1a2 2 0 0 1-.2-.5l-.4-.6c.2 0 0 0 0 0h.8-.1c.4-.1.6-.1.8 0 2.9-.3.6-.4.6-.4h-1.8v-.1l-.1-.5V-3h.8l1.8-.1H58c-.1 0 0 0 0 0h7s.4-.1.4 0c.1 0 .1 0 0 0h.1v2h-1.1l-1.1.1h-4.6s-5 0-1.3.3h7-.2 1.5c-.1 0-.3.2-.5.6a3 3 0 0 0-.3.7l-.2.3-.2.6-.2.3v.3l-.2.1h-5.3.1-3.3.4-2.9.5-1 .2-1.4.2-.8l-.1-.2h-.1v-.2l-.2-.4ZM50 14.7c0 .3 0-.1 0 0l.1-2.1c0-.8 0-.6.1-.7v-1.2.2l.1-1.6v.3l.1-1c0-1.2.2-1.8.3-3l.2-2.7h5.6l.7-.1h2.9c0 .1.2 0 .2 0h.1s.1 0 0 0h3.7V3l.1.4v.5l.4 5a4 4 0 0 0-.5.3c-.2 0-.4.2-.5.3l-.3.1c0 .2-.3.2-.4.3h-.2c-.3.2-.6.3-.7.5h-.3c0 .2-.3.2-.3.3h-.2l-.3.1c-.1 0-.2.3-.4.3h-.3c-.2.1-.3 0-.4.2h-.4l-.1.1h-.1l-.6.2-.3.1s-.2 0 0 0l-.4.1h-.3l-.2.1s.1 0 0 0a9 9 0 0 0-.5.2h-.3c-.2.2-.2 0-.3.2H56c-.2 0-.3.2-.4.1l-.3.1-.3.1-.6.2s-.1 0 0 0c-.3.2-.5.1-.6.3h-.2l-.3.1-.2.2H53c-.1 0-.1 0 0 0h-.3l-.6.4v-.1l-.5.2v.1h-.2l-.3.2H51l-.1.1-.2.1c-.1.1 0 0 0 0l-.3.3-.3.2-.2.2v-.5Zm-1.8 25 .5-5.8.2-3.5V30l.1-1.2v-1.3h.1l.7-.4c.3-.1.4-.2.5-.4l.3-.2.5-.3s.2-.1.2 0l.8-.6h.3c0-.2.3-.2.4-.3h.2l.3-.2.4-.3s0 .1 0 0h.4l.5-.2.3-.1h.2s.1-.1 0 0c.3-.1.5-.3.8-.3l.2-.1s.3-.1.2 0l.4-.2h-.1.3c.1-.1.2 0 .3-.2 0 0-.1 0 0 0l.5-.1.1-.1h.3v-.1l.3-.1.1-.1h.2l.3-.1.3-.2s.1 0 0 0h.4l.7-.4.6-.3h.2l.4-.3.2-.1.1-.1.3-.1.6-.4.5-.3h.1l.1-.1.3-.2.1-.1.2-.1.2-.1V20s.1-.2.3-.2c0-.2.2-.2.3-.3l.4-.6-.4.2-1.2 1-.6.3-.7.4-.8.5-.5.2-.2.1-.2.1h-.1l-.4.2-.6.3-.8.4c-.2 0-.4 0-.3.1h-.2l-.1.1h-.3l.1.1h-.2l-.4.1c-.8.3-1.5.7-2.3.8l-.2.1h-.1l-.1.1h-.1l-.9.4a8 8 0 0 0-1.4.6c-.5.3-1.2.5-1.7.9l-.5.4-.3.2a8.5 8.5 0 0 0-.7.6v-.5.1l.2-2.7.3-4.1c0-1.8.2-3 .3-4.6l.2-.1 1.2-.8 1.2-.5.8-.3.4-.2h.3l.2-.2.4-.1.6-.2c.2-.2.4-.1.7-.3l.3-.1h.3l.2-.1.5-.1 2-.7c0 .1.2 0 .2 0h.1l.1-.1h.1c.3 0 .5-.2.8-.3l.6-.2.6-.3.8-.4a3.5 3.5 0 0 0 .8-.4l.5-.3.3-.2a7 7 0 0 0 .5-.4v.2l.7 9.4c.4 3.6.5 7.9.9 11.6v.7l-.7.4-.6.5-.3.2c0 .2-.3.3-.5.4l-.2.2-.9.6-.2.2-.5.2-.2.2-.3.1c-.2 0-.3.3-.5.3 0 .1 0 0 0 0l-.4.2c-.2 0-.4 0-.5.2l-.4.1-.2.1h-.1c-.3 0-.5.2-.8.3l-.3.2h-.1l-.5.1h.1-.2l-.2.1-.2.1-.7.2v.1h-.4v.1l-.3.1-.2.1h-.1l-.4.2-.4.1c.1 0 0 0 0 0l-.4.1-.8.3v.1c-.3.1-.6.1-.6.3h-.3l-.4.2-.2.2H52c-.1.1 0 0 0 0l-.3.2-.7.4h.1l-.6.3-.1.2h-.2l-.3.2-.1.1-.1.2v-.1l-.3.2c0 .1 0 0 0 0 0 .2-.2.3-.3.3a2 2 0 0 1-.3.4c-1.2 1.3-.1.4-.1.4l1.4-1.2 1.4-.8 1-.5.5-.2.3-.1.2-.1h.1c.1-.2.3-.2.5-.3.3 0 .3-.2.6-.3l1-.3c.2 0 .4-.1.3-.2h.2l.2-.1h.2v-.1h.1l.6-.2 2.5-.9.2-.1h.1l.2-.1 1-.5a8 8 0 0 0 1.5-.8c.6-.4 1.3-.7 1.9-1.2l.5-.5.3-.2.6-.6.2-.2.2 3 .6 8-4.9-.4h-1.1l-9.3-.4h-3.6v-1.7Zm-10.6 32c0-.2 0-.1 0 0Zm-5 1-.3.2.2-.1ZM84 84.8l.4.3.2.2.3.2.4.4.7.9.6.8.4.7c.5 1 .7 1.7.8 2.1v.4h-.9l-6.1-.1h-9.4.1-5.2.5-11.6.1-9.2.8-8.6.3-7.9c-1.9 0-1.2-.1-3.2 0h-2.2s-1.2 0-.7-.1h-4.5v-.1l.2-.2.2-.4.5-.8.9-1 .9-.6 1-.6.4-.1-.4.2h-.3l-.1.2a8.6 8.6 0 0 1 3-.8h1.3-.9c-.1 0-.2 0 0 0H28l-.2-.4-.1-.3v-.1l.1.3-.1-.2v-.1l-.1-.2-.2-.5-.3-1v.2-.6l-.1-.6v-.5c0-.3-.1-.5 0-.8 0-.5-.2 1-.1 0V81l.1-.6.3-1.3a10.8 10.8 0 0 1 1.3-2.6l.4-.5.4-.4.2-.3.3-.2.3-.3.7-.5.2-.2.2-.2.2-.2.3-.1.4-.2.4-.2 1-.4c-.8.2-.4 0 .4-.3l-.2.1.6-.1.4-.2h.6a5 5 0 0 0 .8-.2h2.3v-.3l.2-.2v-.2l.2-.4.2-.4a9.3 9.3 0 0 1 1.3-2c-.1.2 0 0 .2-.1l.2-.2a6.8 6.8 0 0 1 2.5-1.5 8 8 0 0 1 6.5.5h.1l.1.1s.1.1.2 0l.2-.2.2-.3 1.4-1 .7-.3.6-.3.7-.2h.5a8.6 8.6 0 0 0 .8-.2c1.1 0 1.3.1 1.9.2h-.3c1 .2 1.7.5 2.2.7l.7.5.8.7.3.3.3.3.3.4.4.7.3.6c-.1-.3-.2-.4 0 .3l.2.3.1.6a3.4 3.4 0 0 0 0-.4 7.7 7.7 0 0 1 0 3v.5l-.1.3.8-.3a8.7 8.7 0 0 1 3.8-.4l.8.1c.2 0 .5 0 .7.2l-.5-.1-.8-.2c.9.2 1.8.4 2.7.8a8 8 0 0 1 2.5 1.7l.3.3v.1s.2 0 .3.2l.3.4.1.2.1.2.3.5a9.5 9.5 0 0 1 1.1 3.1v2.6h.5c0-.1 0-.1 0 0h-.5v-.6.5s0 .1 0 0l.6-.1.5-.1c.3 0 .5-.2 1.6-.3h.3c1 0 2 0 3.1.4l-.3-.1h.3l.3.1.6.2 1 .5.4.2.4.3.4.3Zm43-.3-1-.6-2.1-1.2c-.8-.4-1.9-.7-3.1-1a22 22 0 0 0-9.4 1c-.8.3-1.5.6-2.1 1l-.5.2-.6.5-.5.4-1.3 1.3-.5.6-.4.7-.1.2h-.1V87l-.2-.4v.1c-.2-1.1-.5-1.9-.8-2.6l-.2-.5-.3-.5-.7-1.2c-.7-1-1.5-1.9-2.3-2.6a9.7 9.7 0 0 0-3-1.7c.4 0-.1-.1 0-.1L96 77h-.8c-1-.1-.8-.1-.9-.2h-.5c-.3 0-.6 0-1 .2l.3-.1-1 .1-1 .3h.4-.6l-.6.3-1 .4-.4.2-.4.2-1.6 1a13 13 0 0 0-3 3.5l-.5 1a10.2 10.2 0 0 0-6.2-1.4h-.5l-.5.2h-.5l-.5.2v-.2a8.8 8.8 0 0 0 0-1.5 9 9 0 0 0-5.4-7.7 10 10 0 0 0-3.8-.7h-1.1c-.4.1-.8.1-1.1.3l-.6.1-.3.1V73a7.3 7.3 0 0 0-4.5-8l-.6-.2-1.8-.3h-1.2l-1 .2h-.4l-.5.2h.2a7.8 7.8 0 0 0-2.8 1.6l-.2.2-.1.2-.2-.1a8 8 0 0 0-3-1c-1 0-1.9 0-3.1.3a8.5 8.5 0 0 0-4.8 3.7 8 8 0 0 0-.6 1.5l-.1.3h-.4v-.5.2-1.2.2l.1-.8.2-2.3c.2-3.8.2-7.8.2-11.2v-3l-.2-2c0-.8-.2-1.5-.3-2.2 0-.5 0-1-.2-1.7l-.1-1-.3-1c0-.6-.2-1.3-.4-1.9l-.5-1.7H41h-.2l11.7.1 5.3.2h-.1l9.3.5h-1l5.3.4 4.2.5 4.3.6 7 1.2h-.2c1.9.2 2.4.4 4.5.8h.2l7.5 1.8 4 1c-.5 0-1-.2-1.4-.3.5 0 3 .8 5.8 1.6l4 1.2 4.1 1.2c1.4.5-1.1-.3.8.3 0 0-.9-.2-.4 0l5.5 1.9c3.1 1 5.8 2.2 7.8 3 1.6.5 2.1.8 2.6 1l2.7 1.1 1.3.6 2.5 1 1 .5 7.3 3.4v.3a15.8 15.8 0 0 0-1 4v.5h-.2l-.1-.1a7 7 0 0 0-.5-.2l-.5-.1h-.5a6.6 6.6 0 0 0-2.6 0l-.5.2-1 .5a8 8 0 0 0-1.6 1.1 5.8 5.8 0 0 0-2 3.6c0 1.4.1 2.7.5 4l.2.4v.3l.4.8.2.3v.1h-.4l-.3-.1a10.8 10.8 0 0 0-3.3 0h-.3l-.9.3a8.7 8.7 0 0 0-4.7 3.5l-.3-.2Zm66.9-11 .3 1 .2.7v.8l.1.4v1-.1 1.2l-.1.4-.2.5-.1.4-.2.4v.2l-.2.2-.5.6h.2-.2l.4-.5-.3.4h1l.2-.1h-.3 1.2c-.4 0-.2 0 .7.2l-.6-.1 1.6.3a8 8 0 0 1 2 1l.4.3.3.3.3.2.1.2.3.4c.2.1.4.5.6.8.3.3.4.6.6 1l.4.6c-.1-.2 0 0 0 .2.2.3.2.5.2.3l.4 1.7c0 .7-.2 1.4-.5 1.7l.1-.2c0 .2-.2.3-.3.4v.1h-8.4l-6.5.1H185h.3-9.4a6.2 6.2 0 0 0-.2 0h-11.1 1-1.7 1.6-14.2.2-3.5 1.2-8 .4-5.1l-1.4.1-.1-.1-.3-.2-.5-.5-.6-.5-2.9-2.3a48.2 48.2 0 0 0-3-2.1l.7-.9.4-.4.1-.2.2-.1.8-.6.4-.3.4-.2a9.1 9.1 0 0 1 3.8-1.1h2l1 .3.6.1-.3-.5-.2-.4a12.6 12.6 0 0 1-.7-2 10 10 0 0 1-.4-2.8v.4c0-.6 0-1.4.3-2l.5-1a6.9 6.9 0 0 1 6.4-3.3h.5l.5.2a7.6 7.6 0 0 1 1.1.4v-.8.2l.2-1.5.4-1.5v-.1a13 13 0 0 1 2.3-4.4c.6-.8 1.3-1.4 2-2l-.4.4-.4.3.4-.3.3-.3.4-.3a13.1 13.1 0 0 1 5-1.8l1.3-.3h1.5-.1.5-.3s-.2 0 0 0h1l.8.1 2 .4c.6 0 1 .3 1.5.4l1.4.5 2.2 1.1 1.4 1 .4.4.3.3.2.1.3.4.3-.3.2-.2.6-.6.7-.5.7-.6.6-.2c.2-.2.4-.2.1-.1a8 8 0 0 1 7.8 0c.3 0 .8.4 1.2.7l1 .9a9 9 0 0 1 1.2 1.5l-.3-.4-.2-.3-.2-.2a9.6 9.6 0 0 1 2 4.7l-.2-.8.2 1.7v-.4a12.7 12.7 0 0 1 0 1.9v.3a9.5 9.5 0 0 1-.1.6h.6l.3-.1h2c.6.1-1.1 0 .2 0a8 8 0 0 1 2.7.9c.5.2 1 .6 1.3 1l.8 1.3ZM213 56.9l-7 1h-.2l-.6.1-.7.4-.5.3c-.1.1-.3.3-.1.2l-.7.5-.4.4-2 2-1.9 2-6.3 7.5h-.2c-.9-.6-2-1-3-1.2L188 70l2.5-3 3.8-4.7 2.3-2.8.2-.3.8-.9 1-1c0-.2.2-.4.4-.5a9 9 0 0 1 2-1.8 6 6 0 0 1 4-.5c2 .1 3.3.4 5.5.6h.1l2.1.2h.7l.4.1h.8-.2l1.6.2h-.3l1 .1h.9l.3.1h.4l.4.2h.1l-5.7.8Z"/></g></svg>
