<svg xmlns="http://www.w3.org/2000/svg" fill="none" viewBox="0 0 203 150"><path fill="#fff" d="M117.5 137.4Zm-3.5 0Zm-3.6 0Zm-61.8-30.1Zm0 0s.1 0 0 0c.1 0 0 0 0 0h.1c-.1 0 0 0 0 0v-.1s-.1 0 0 0h.3s-.1 0 0 0c-.1 0 0 0 0 0h.1s-.1 0 0 0H49v.1h-.4ZM75.7 78h-.3.3Zm-40.6 6.5ZM18.8 55h-3.9a2.9 2.9 0 0 1-2.8-3v-9.3c0-1.6 1.2-2.8 2.8-2.8h30.2c1.6 0 3 1.2 3 2.8v4.5h26.2c1.2 0 2.2 1 2.2 2.3V78H18.8V55Zm57.9 6.3V61v.3Zm36 62v.1ZM13 112v.3-.3Zm2.9 3.7Zm-4.5-19.6a4 4 0 0 1-4-4.1h35.5l.4-7.6H21a2.3 2.3 0 0 1-2.3-2.3v-4h57.7v4a2.3 2.3 0 0 1-2.3 2.3h-22l.3 7.6h66.3a4 4 0 0 1-4.1 4h-5v.1h2.7v10.6h-1.6l3 30.2h.1v.1h.1c.1 0 0 0 0 0h.4c0 .1 0 .1 0 0 .2.3 0 .4 0 .4h-.4l1.2 12.3h-1.7l-6-43H17l-5.9 43H9.3l4.4-43h-1.3V96h2.4-3.4Zm7 0H106 18.5Zm26 10.7h-.5.5Zm-4.8-67.3Zm5.5-2H15a2.9 2.9 0 0 1-2.9-2.9v-9.4c0-1.5 1.3-2.8 3-2.8H45c1.6 0 3 1.3 3 2.8v9.4a2.9 2.9 0 0 1-3 2.9Zm.3.2Zm149.8 111.8h.2-.2Zm-5 .4Zm-60.4-99 .1-.1h-.1Zm.5 0h56.5a1.6 1.6 0 0 1 1.6 1.6v35.6a1.6 1.6 0 0 1-1.6 1.6h-56.5a1.6 1.6 0 0 1-1.6-1.6V52.5a1.6 1.6 0 0 1 1.6-1.6Zm44-.1h-.4.3ZM151.4 7.3a3.6 3.6 0 1 1 0-7.1 3.6 3.6 0 0 1 0 7Zm-2.3-.7Zm-20.4 5a2.9 2.9 0 1 1 0-5.8 2.9 2.9 0 0 1 0 5.8ZM126 23.8a4.9 4.9 0 1 1 0 9.8 4.9 4.9 0 0 1 0-9.8Zm28.8 16.1a5.9 5.9 0 1 1 0-11.8 5.9 5.9 0 0 1 0 11.8Zm-3.7-1.1Zm-8.5-9.5a10.3 10.3 0 1 1 0-20.7 10.3 10.3 0 0 1 0 20.7Z"/><path fill="#8F99A8" d="M52.2 46.8Zm-4-12.7v.6a3.2 3.2 0 0 1-.6 1.8 3.1 3.1 0 0 1-2.2 1.2h-16c.2 0-.1 0 0 0H26h.3-1.4l.3-.1h-.9l-2.5.1h-6.7l-.8-.1a3 3 0 0 1-1.4-.7 3 3 0 0 1-1-2V25a3 3 0 0 1 3-2.7h11.5a2.2 2.2 0 0 1 .3 0h2.8s13.7 0 3.3.3H25h.2-6.4.1H15a2.8 2.8 0 0 0-.8.1c-.1 0-.8.3-1.4 1-.3.2-.5.6-.6 1l-.1 1.3v.2s0-.3 0 0v4.2c0 1 .2.7.1 1.8v2.3c0 .3 0 .6.2.9.1.5.5 1 1 1.4.2.1.4.3.7.3l.5.2h.7c.3 0 .4 0 0 0H15h2.4-.4.8-.1 1.1-.1H20c.3 0-.5 0 0 0h5-.1H27h-.1.8-.2 6.1-.1 8.3-.2 4c-.2 0-.3 0 0 0h.3l.3-.2h-.1l-.1.1.7-.4.4-.4c.5-.5.7-1 .7-1.6v-1.7.5-.9.8-6.6.1-1.6.5-1.3l-.1-.3c-.3-.6 0 0 0-.2a2.6 2.6 0 0 0-1.2-1.3l.2.1a3 3 0 0 0-1.2-.5h-1c-7.8-.2-1.7-.3-1.7-.3H45c.7 0 1.4.1 2 .5a3.2 3.2 0 0 1 1.3 2.9V34Zm-5.8 9.4a1.3 1.3 0 0 1 1.3 1.3v4.7a1.3 1.3 0 0 1-1.3 1.3h-4.7a1.3 1.3 0 0 1-1.3-1.3v-4.7a1.3 1.3 0 0 1 1.3-1.3h4.7Zm-5.7 1.3v4.7a1 1 0 0 0 1 1h4.7a1 1 0 0 0 1-1v-4.7a1 1 0 0 0-1-1h-4.7a1 1 0 0 0-1 1Zm7-17.3v4.8a1.3 1.3 0 0 1-1.3 1.2h-4.7a1.3 1.3 0 0 1-1.3-1.2v-4.8a1.3 1.3 0 0 1 1.3-1.3h4.7a1.3 1.3 0 0 1 1.3 1.3Zm-7 0v4.8a1 1 0 0 0 1 .9h4.7a1 1 0 0 0 1-1v-4.7a1 1 0 0 0-1-1h-4.8a1 1 0 0 0-.9 1Z"/><path fill="#8F99A8" d="M28.4 26.7h5s2.7 0 .7.4h-3.8.1-.4c-.1 0-.3-.2-.5-.1 0 0 .1 0 0 0h-1.2v.1h-1.5.1-.5.1-.4s0 .1-.2 0c0 0 .1 0 0 0h-.6c-.3 0-.1.1-.4 0h-1.6c-.3.1-.5 0-.8 0 0 0-.1 0 0 0h-4.2.1-.3c-.2 0 0 0 0 0l-.4-.1h-.5c-1.5-.3-.3-.3-.3-.3.6-.1 1 0 1.6 0H25v.1h3v-.1h.2s.1 0 0 0h.2ZM16.8 44.1h5.6v.1h2.4v.1l.6-.1H28s.1 0 0 0h5.2s2.7 0 .7.4h-3.8.1-.3l-.5-.2c-.1 0 0 .1-.1 0v.1h-.8c-.2 0-.2.1-.4 0v.1h-.2s-.1 0 0 0h-1.3c-.1.1-.3 0-.4 0h-.5s.1 0 0 0h-1.3c.1 0 0 0 0 0h-.9s-.1 0 0 0h-2.9c-.1 0-.1 0 0 0h-1.1.1-.1.1-1.5.1-.3c-.1 0 0 0 0-.1H17c-1.6-.3-.3-.4-.3-.4Zm.2 3.3c-1.4-.2-.2-.3-.2-.3H24c-.1 0 0 0 0 0l.3.1h9s2.6 0 .6.3h-4.5c-.1-.1 0 0 0 0h-1.5s-.1 0 0 0l-.8.1h-.8s.1 0 0 0h-.5c-.1 0 0 0 0 0h-1.6.1-.8s-.1 0 0 0H21l-.3-.1h-.1c-.1 0-.1 0 0 0h-1.1.1-.1.1-1.3c.1 0 0 0 0 0H18h.1-.3c-.1 0 0 0 0 0h-.4a1 1 0 0 0-.4 0Zm8.6-17.6c-.8-.3-.2-.4-.2-.4h3v.1h1.2v.1h.1l.3-.1h4s1.4 0 .3.4h-1.9.1c0-.1-.1 0-.2 0 0 0-.2-.2-.3-.1h-.2s-.2.1-.2 0c-.1 0-.1.1-.2 0v.1h-.1s-.1 0 0 0h-.6s-.2 0 0 0h-.9c-.1 0 0 .1-.2 0h-1.2s-.1 0 0 0H26h.1-.2v-.1h-.4Zm126.8 60.4c.1 0 0 0 0 .2v.5h-.1v.4h.1v.2c-.1.1 0 .2 0 .2s0 .3-.4.1v-.4c.1 0 0 0 0 0s.2 0 .1-.1c0 0-.1 0 0 0 0-.1-.1-.1 0-.1h-.1v-.1c-.1 0 0 0 0-.1s-.1 0 0 0v-.1s0-.1 0 0v-.6s.1 0 0 0h.1v-.1c.3-.2.3 0 .3 0Zm0 4Zm0-.3v.6h-.1v.3h.1v.3c-.1 0 0 .1 0 .2 0 0 0 .3-.4 0V95c.1 0 0 0 0 0h.1v-.1s-.1 0 0 0c0 0-.1 0 0 0l-.1-.1v-.1c-.1 0 0 0 0 0v-.1c0-.1-.1-.1 0-.1v-.7s.1 0 0 0h.1c.2-.2.3-.1.3-.1.1 0 0 0 0 .1Zm0 3.7Zm0-.2v.6h-.1v.3h.1v.4c-.1 0 0 .1 0 .2 0 0 0 .3-.4.1v-.5c.1 0 0 0 0 0l.1-.1c0-.1-.1-.1 0-.1 0 0-.1 0 0 0h-.1v-.2c-.1 0 0 0 0 0 0-.1 0 0 0 0V98s-.1 0 0 0v-.7s.1 0 0-.1h.1c.2-.2.3 0 .3 0 .1 0 0 0 0 0v.1Zm0 3.8Zm0-.2v.5h-.1v.4h.1v.2c-.1.1 0 .2 0 .2s0 .3-.4.1v-.4c.1 0 0 0 0 0l.1-.1s-.1 0 0-.1c0 0-.1 0 0 0h-.1v-.1c-.1 0 0 0 0-.1v-.1s-.1 0 0 0v-.7s.1 0 0 0h.1v-.1c.2-.2.3 0 .3 0 .1 0 0 0 0 .1Zm0 3.7Zm0-.2v.5h-.1v.4h.1v.3c-.1 0 0 .1 0 .1v.1s0 .3-.4 0v-.4c.1 0 0 0 0 0h.1v-.1s-.1 0 0 0c0 0-.1 0 0-.1h-.1v-.1c-.1 0 0 0 0 0v-.1c0-.1-.1-.1 0-.1v-.7s.1 0 0 0h.1c.2-.2.3-.1.3-.1.1 0 0 0 0 .1Zm0 3.7Zm0-.2v.6h-.1v.3h.1v.4c-.1 0 0 .1 0 .2 0 0 0 .3-.4.1v-.5c.1 0 0 0 0-.1h.1c0-.1-.1-.1 0-.1 0 0-.1 0 0 0h-.1v-.2c-.1 0 0 0 0 0v-.1s-.1 0 0 0v-.2c-.1 0 0-.1 0-.1v-.4l.1-.1c.3-.2.3 0 .3 0 .1 0 0 0 0 0v.1Zm-.4.6h-.1Zm.4 3.2Zm0-.3v.6h-.1v.1c.1 0 0 .2 0 .2h.1v.4c-.1 0 0 .2 0 .2s0 .3-.4.1v-.5c.1 0 0 0 0 0l.1-.1s-.1 0 0-.1c0 0-.1 0 0 0h-.1v-.1c-.1 0 0 0 0-.1v-.1s-.1 0 0 0v-.1s0-.1 0 0v-.1c-.1 0 0 0 0-.1v-.4h.1v-.1c.3-.2.3 0 .3 0 .1 0 0 0 0 .1Zm-.4.7h-.1Zm.4 3.1Zm-.5.4Zm.5-.7v.6h-.1v.4h.1v.3c-.1 0 0 0 0 .1v.1s0 .3-.4 0v-.4c.1 0 0 0 0 0h.1v-.1s-.1 0 0 0c0 0-.1 0 0-.1h-.1v-.1c-.1 0 0 0 0 0v-.2s-.1 0 0 0v-.2c-.1 0 0 0 0 0v-.5h.1l.3-.1c.1 0 0 0 0 .1Zm0 3.8Zm0-.2v.6h-.1v.3h.1v.4c-.1 0 0 .1 0 .2 0 0 0 .3-.4.1v-.5c.1 0 0 0 0-.1h.1c0-.1-.1-.1 0-.1 0 0-.1 0 0 0h-.1v-.2c-.1 0 0 0 0 0v-.1s-.1 0 0 0v-.2c-.1 0 0-.1 0-.1v-.4l.1-.1c.3-.2.3 0 .3 0 .1 0 0 0 0 0v.1Zm-.4.6h-.1Zm.4 3.2Zm0-.3v.6h-.1v.1c.1 0 0 .2 0 .2h.1v.4c-.1 0 0 .2 0 .2s0 .3-.4.1v-.5c.1 0 0 0 0 0l.1-.1s-.1 0 0-.1c0 0-.1 0 0 0h-.1v-.1c-.1 0 0-.1 0-.1v-.1s-.1 0 0 0v-.2c-.1 0 0 0 0-.1v-.4h.1v-.1c.3-.2.3 0 .3 0 .1 0 0 0 0 .1Zm-.4.7h-.1Zm.4 3.1Zm0-.2v.5h-.1v.4h.1v.4c-.1 0 0 0 0 .1v.1s0 .3-.4 0v-.5c.1 0 0 0 0 0h.1v-.1s-.1 0 0 0c0 0-.1 0 0-.1h-.1v-.1c-.1 0 0 0 0 0v-.2s-.1 0 0 0v-.2c-.1 0 0 0 0 0v-.5h.1v-.1h.3c.1 0 0 0 0 .1Zm-.4.6h-.1Zm.4 3.1Zm-.5.4Zm.5-.6v.6h-.1v.3h.1v.4c-.1 0 0 .1 0 .2 0 0 0 .3-.4.1v-.5c.1 0 0 0 0-.1h.1c0-.1-.1-.1 0-.1 0 0-.1 0 0 0h-.1v-.2c-.1 0 0 0 0 0v-.1s-.1 0 0-.1v-.1c-.1-.1 0-.1 0-.1v-.4l.1-.1.3-.1c.1 0 0 .1 0 .2Zm0 3.8Zm0-.3v.6h-.1v.1c.1 0 0 .2 0 .2h.1v.4c-.1 0 0 .2 0 .2s0 .3-.4.1v-.5c.1 0 0 0 0 0l.1-.1s-.1 0 0-.1c0 0-.1 0 0 0h-.1v-.1s0-.1 0 0c-.1 0 0-.1 0-.1v-.1s-.1 0 0 0v-.2c-.1 0 0 0 0-.1v-.4h.1v-.1c.3-.2.3 0 .3 0 .1 0 0 0 0 0v.1Zm-.4.6h-.1Zm.4 3.2Zm0-.2v.4s0 .1 0 0v.1h-.1v.5c.1.1 0 0 0 0 0 .1-.1 0-.2 0 0 .1-.2 0-.2 0s-.1.1-.2 0c0 0-.3 0-.1-.3h.4l.1.1s0-.1 0 0v-.1c0-.1 0 0 0 0v-.7c0-.1 0 0 0 0 0-.1.1-.1 0-.1h.1l.3-.1c.1 0 0 0 0 .2Zm-3.1 1.1Zm-1.3-.4h.4v.1s.1-.1.1 0v-.1h.1c0-.1 0 0 .1 0 0-.1 0 0 0 0h.1s0-.1 0 0h.1v-.1s0 .1 0 0h.4v.1h.4c0 .1 0 .1 0 0 .2.3.1.4.1.4h-.5c-.1-.1-.1 0-.2 0v-.1h-.5c0 .1 0 0 0 0h-.2c0 .1 0 0-.1 0 0 0-.2.1-.2 0 0 0-.3 0-.1-.3Zm-3.5 0h.4v.1s0-.1 0 0v-.1h.2c0-.1 0 0 0 0h.1c0-.1 0 0 0 0s0-.1.1 0v-.1h.1s0 .1 0 0h.2v.1h.5c0 .1 0 .1 0 0 .2.3 0 .4 0 .4h-.5c0-.1 0 0-.1 0v-.1h-.4c0 .1 0 0 0 0h-.1c0 .1-.1 0-.2 0 0 0 0 .1-.1 0h-.1s-.3 0 0-.3h-.1Zm-3.5 0h.4l.1.1s0-.1 0 0v-.1h.1c0-.1.1 0 .1 0 0-.1.1 0 .1 0s0-.1 0 0h.1v-.1s0 .1.1 0h.2v.1h.4c0 .1.1.1.1 0 .2.3 0 .4 0 .4h-.7c0-.1 0 0 0 0v-.1h-.4c0 .1 0 0 0 0h-.1c0 .1-.1 0-.2 0 0 0-.1.1-.2 0 0 0-.3 0 0-.3h-.1Zm-3.6 0h.4v.1c.1 0 .1-.1.1 0v-.1h.1c0-.1 0 0 .1 0 0-.1 0 0 0 0h.1s0-.1 0 0h.1v-.1s0 .1 0 0h.4v.1h.4c0 .1 0 .1 0 0 .2.3.1.4.1.4h-.5c-.1-.1-.1 0-.2 0v-.1h-.5c0 .1 0 0 0 0h-.2c0 .1 0 0-.1 0 0 0-.1.1-.2 0 0 0-.3 0-.1-.3Zm-2.6.3h-.3c0 .1 0 0 0 0 0 .1-.1 0-.1 0 0 .1-.1 0-.2 0 0 0-.1.1-.2 0 0 0-.3 0 0-.3h.4v.1h.1s0-.1 0 0v-.1h.2c0-.1 0 0 0 0 .1 0 .1-.1.1 0 .1 0 0-.1.1 0 0 0 0-.1 0 0h.1v-.1h.1l.1.1h.3c.1 0 .1.1.1 0v.1c.2.2.1.3.1.3h-.6c0-.1 0 0 0 0h-.1v-.1Zm-3.2.1Zm-.6-.1c0 .1 0 0 0 0-.1.1-.1 0-.2 0 0 .1 0 0-.1 0 0 0-.1.1-.2 0 0 0-.3 0-.1-.3h.4l.1.1s0-.1 0 0v-.1h.2s.1 0 0 0c0-.1.1 0 .1 0s0-.1 0 0h.1v-.1h.1v.1l.1-.1h.1v.1h.4v.1h.1c.2.2 0 .3 0 .3h-.5c0-.1-.1 0-.1 0v-.1h-.4Zm-3.6 0c0 .1 0 0 0 0 0 .1 0 0-.1 0 0 .1-.1 0-.2 0 0 0 0 .1-.1 0 0 0-.4 0-.2-.3h.4v.1h.1s0-.1 0 0v-.1h.2c0-.1 0 0 0 0h.1s0-.1 0 0h.1v-.1.1h.1v-.1h.1l.1.1h.4v.1c.2.2.1.3.1.3h-.5c-.1-.1-.1 0-.2 0v-.1h-.1c0 .1-.2 0-.2 0Zm-3.5 0c0 .1 0 0 0 0 0 .1-.1 0-.1 0 0 .1-.1 0-.2 0 0 0-.1.1-.2 0 0 0-.3 0 0-.3h.4v.1s0-.1.1 0v-.1h.2c0-.1 0 0 0 0s.1-.1.1 0l.1-.1v.1h.1v-.1h.1l.1.1h.4v.1c.2.2 0 .3 0 .3h-.5c0-.1 0 0 0 0s-.1 0 0 0l-.1-.1h-.4Zm-3.9-.3h.1l.1.1s0-.1 0 0v-.1h.1c0-.1.1 0 .1 0v-.1h.2s0 .1 0 0h.4c0 .1 0 0 0 0h.1v.1h.3c0 .1.1.1.1 0 .2.3 0 .4 0 .4h-.4c-.1 0-.1-.1-.2 0 0-.1 0 0 0 0v-.1h-.4c0 .1 0 0 0 0h-.2c0 .1 0 0-.1 0 0 0-.1.1-.2 0 0 0-.3 0-.1-.3h.1Zm-2.1 0c.1.3 0 .4 0 .4h-.6c0-.1 0 0 0 0l-.1-.1h-.4c0 .1 0 0 0 0 0 .1 0 0 0 0-.1.1-.2 0-.2 0-.1 0-.2.1-.2 0 0 0-.3 0-.1-.3h.4l.1.1s0-.1.1 0v-.1h.1c0-.1.1 0 .1 0s0-.1 0 0h.1s0-.1 0 0c0 0 0-.1 0 0h.1v-.1h.2v.1h.4s0 .1 0 0v.1h.1Zm-8.1.3c0 .1 0 0 0 0-.1.1-.1 0-.2 0 0 .1 0 0-.1 0 0 0-.1.1-.2 0 0 0-.3 0-.1-.3h.4l.1.1s0-.1 0 0v-.1h.3c0-.1 0 0 0 0s0-.1 0 0h.1v-.1h.1v.1h.1v-.1h.1v.1h.4v.1h.1c.2.2 0 .3 0 .3h-.5c0-.1 0 0-.1 0v-.1h-.4Zm-3.6 0c0 .1 0 0 0 0 0 .1 0 0-.1 0 0 .1-.1 0-.1 0-.1 0-.2.1-.2 0 0 0-.3 0-.1-.3h.3l.1.1s0-.1 0 0v-.1h.2c0-.1 0 0 .1 0 0 0 0-.1 0 0h.1v-.1.1h.1v-.1h.1l.1.1h.4c.1 0 0 0 0 0h.1v.1h.1v.3h-.5c-.1-.1-.1 0-.2 0v-.1h-.1c0 .1-.2 0-.2 0Zm-3.5 0c0 .1 0 0 0 0 0 .1-.1 0-.1 0 0 .1-.1 0-.2 0 0 0-.1.1-.2 0 0 0-.3 0 0-.3h.4v.1s0-.1.1 0v-.1h.2c0-.1 0 0 0 0 .1 0 .1-.1.1 0l.1-.1v.1h.1v-.1h.1l.1.1h.3c.1 0 0 0 0 0h.1v.1c.2.2.1.3.1.3h-.6c0-.1 0 0 0 0l-.1-.1h-.4Zm-3.5 0c0 .1 0 0 0 0-.1.1-.1 0-.2 0 0 .1 0 0-.1 0 0 0-.1.1-.2 0 0 0-.3 0-.1-.3h.4l.1.1s0-.1 0 0v-.1h.3c0-.1 0 0 0 0s0-.1 0 0c.1 0 0 0 0 0h.1v-.1h.1v.1h.1v-.1h.1v.1h.4v.1h.1c.2.2 0 .3 0 .3h-.5c0-.1 0 0-.1 0v-.1h-.4Zm-3.6 0c0 .1 0 0 0 0 0 .1 0 0-.1 0 0 .1-.1 0-.1 0-.1 0-.2.1-.2 0 0 0-.3 0-.1-.3h.4l.1.1s0-.1 0 0v-.1h.2c0-.1 0 0 .1 0 0 0 0-.1 0 0h.1v-.1.1h.1v-.1h.1s.1 0 0 0l.1.1h.4v.1h.1c.2.2 0 .3 0 .3h-.5c-.1-.1-.1 0-.1 0v-.1h-.4Zm-3.5 0c0 .1 0 0 0 0 0 .1-.1 0-.1 0 0 .1-.1 0-.2 0 0 0-.1.1-.2 0 0 0-.3 0 0-.3h.4v.1s0-.1.1 0v-.1h.2c0-.1 0 0 0 0h.1s0-.1 0 0l.1-.1v.1h.1v-.1h.2v.1h.2c.1 0 0 0 0 0h.1v.1c.2.2.1.3.1.3h-.6c0-.1 0 0 0 0l-.1-.1H92Zm-3.5 0c0 .1 0 0 0 0-.1.1-.1 0-.2 0 0 .1 0 0-.1 0 0 0-.1.1-.2 0 0 0-.3 0-.1-.3h.4l.1.1s0-.1 0 0v-.1h.3c0-.1 0 0 0 0s0-.1 0 0c.1 0 0 0 0 0h.1v-.1h.1v.1h.1v-.1h.1v.1h.1c.1 0 0 0 0 0h.4v.1c.2.2 0 .3 0 .3H89c0-.1 0 0-.1 0v-.1h-.4Zm-3.6 0c0 .1 0 0 0 0 0 .1 0 0 0 0-.1.1-.2 0-.2 0-.1 0-.2.1-.2 0 0 0-.3 0-.1-.3h.4l.1.1s0-.1 0 0v-.1h.2c0-.1 0 0 .1 0 0 0 0-.1 0 0h.1v-.1.1h.1v-.1h.2v.1h.4v.1h.1c.2.2 0 .3 0 .3h-.5c-.1-.1-.1 0-.1 0v-.1H85Zm-3.5 0c0 .1 0 0 0 0 0 .1 0 0-.1 0 0 .1-.1 0-.2 0 0 0-.1.1-.1 0H81s-.3 0 0-.3h.4v.1s.1-.1.1 0v-.1h.2c0-.1 0 0 0 0h.1s0-.1 0 0l.1-.1v.1h.1v-.1h.2v.1h.4v.1c.2.2.1.3.1.3h-.5c-.1-.1-.1 0-.2 0v-.1h-.4Zm-3.5 0c0 .1 0 0 0 0-.1.1-.1 0-.2 0 0 .1 0 0-.1 0 0 0-.1.1-.2 0 0 0-.3 0-.1-.3h.4v.1s0-.1 0 0v-.1h.4c0-.1 0 0 0 0s0-.1.1 0v-.1h.1v.1h.1v-.1h.1v.1h.1c.1 0 .1 0 0 0h.1c.1 0 0 0 0 0h.2v.1c.2.2 0 .3 0 .3h-.5c0-.1 0 0-.1 0v-.1H78Zm-3.5 0c0 .1 0 0 0 0h-.1c0 .1 0 0 0 0-.1.1-.2 0-.2 0s-.2.1-.2 0c0 0-.3 0-.1-.3h.4l.1.1s0-.1 0 0v-.1h.2c0-.1 0 0 .1 0 0 0 0-.1 0 0h.1v-.1l.1.1v-.1h.2v.1h.4v.1h.1c.2.2 0 .3 0 .3H75c0-.1 0 0 0 0v-.1h-.4Zm-3.5 0c0 .1-.1 0-.1 0 0 .1 0 0-.1 0 0 .1-.1 0-.2 0 0 0 0 .1-.1 0h-.1s-.3 0 0-.3h.4v.1s.1-.1.1 0v-.1h.2c0-.1 0 0 0 0h.1s0-.1 0 0h.1v-.1.1h.1v-.1h.2v.1h.4v.1c.2.2.1.3.1.3h-.5c-.1-.1-.1 0-.2 0v-.1h-.1c-.1.1-.2 0-.2 0Zm-3.6 0c0 .1 0 0 0 0-.1.1-.1 0-.2 0 0 .1 0 0-.1 0 0 0-.1.1-.2 0 0 0-.3 0-.1-.3h.4v.1s0-.1 0 0v-.1h.4c0-.1 0 0 0 0s0-.1.1 0v-.1h.1v.1h.1v-.1h.1v.1h.5v.1c.2.2 0 .3 0 .3H68c0-.1 0 0-.1 0v-.1h-.4Zm-4.1-.3h.4l.1.1s0-.1 0 0v-.1h.1c0-.1.1 0 .1 0 0-.1 0 0 .1 0 0 0 0-.1 0 0h.1v-.1s0 .1.1 0h.2v.1h.4c0 .1.1.1.1 0 .2.3 0 .4 0 .4h-.7c0-.1 0 0 0 0v-.1h-.4c0 .1 0 0 0 0h-.1c0 .1-.2 0-.2 0s-.1.1-.2 0c0 0-.3 0 0-.3h-.1Zm-3.6 0h.4v.1s.1-.1.1 0v-.1h.1c0-.1 0 0 .1 0 0-.1 0 0 0 0h.1s0-.1 0 0h.1v-.1s0 .1 0 0h.4v.1h.4c0 .1 0 .1 0 0 .2.3.1.4.1.4H61c-.1-.1-.1 0-.2 0v-.1h-.5c0 .1 0 0 0 0h-.2c0 .1 0 0-.1 0 0 0-.1.1-.2 0 0 0-.3 0-.1-.3Zm-3.5 0h.4v.1s0-.1 0 0v-.1h.2c0-.1 0 0 0 0h.1c0-.1 0 0 0 0s0-.1.1 0v-.1h.1s0 .1 0 0h.2v.1h.5c0 .1 0 .1 0 0 .2.3 0 .4 0 .4h-.5c0-.1 0 0-.1 0v-.1h-.4c0 .1 0 0 0 0h-.1c0 .1-.1 0-.2 0 0 0 0 .1-.1 0 0 0-.4 0-.2-.3Zm-2.9.3c0 .1 0 0 0 0h-.1c0 .1 0 0 0 0-.1.1-.2 0-.2 0s-.2.1-.2 0c0 0-.3 0-.1-.3h.3l.1.1s0-.1 0 0v-.1h.2s.1 0 0 0c0-.1.1 0 .1 0s0-.1 0 0h.1v-.1h.1v.1l.1-.1h.1v.1h.4v.1h.1c.2.2 0 .3 0 .3h-.5c0-.1-.1 0-.1 0v-.1h-.4Zm-4.2-.3h.4v.1c.1 0 .1-.1.1 0v-.1h.1c0-.1 0 0 .1 0 0-.1 0 0 0 0h.1s0-.1 0 0h.1v-.1s0 .1 0 0h.2l.1.1h.4c0 .1 0 .1 0 0 .2.3.1.4.1.4h-.5c-.1-.1-.1 0-.2 0v-.1h-.4c0 .1 0 0 0 0h-.2c0 .1 0 0-.1 0 0 0-.1.1-.2 0 0 0-.3 0-.1-.3Zm0-2.2Zm-.5.4v-.2s.1 0 0 0c.1-.1 0-.1 0-.2h.1v-.4c-.1 0 0 0 0 0v-.3s-.1-.1 0-.2c0 0 0-.3.3-.1v.5c0 .1-.1.1 0 .1-.1 0 0 0 0 0v.1c.1.1 0 .1 0 .1s0 .1 0 0h.1v.6H49v.3c-.1.1 0 .1 0 .1-.3.2-.4 0-.4 0v-.2Zm.5-4Zm-.5.5v-.2s.1 0 0-.1c.1 0 0 0 0 0s0-.1 0 0l.1-.1v-.4c-.1 0 0 0 0 0v-.3s-.1 0 0-.1c0 0 0-.4.3-.2v.4s-.1 0 0 0c-.1.1 0 0 0 .1v.1c.1 0 0 0 0 .1h.1v.6H49v.4c-.1 0 0 0 0 .1-.3.2-.4 0-.4 0v-.4Zm0-3.5v-.2c0-.1.1-.1 0-.1.1 0 0 0 0-.1h.1v-.4c-.1 0 0 0 0 0v-.4s-.1-.1 0-.2c0 0 0-.3.3 0v.5s-.1 0 0 0c-.1 0 0 0 0 0v.2c.1 0 0 0 0 0v.1h.1v.5l-.1.1v.2c0 .1 0 0 0 0v.1c-.1 0 0 0 0 0-.3.2-.4.1-.4.1v-.4Zm.5-.5Zm0-3.5Zm-.5.4v-.2s.1 0 0 0c.1-.1 0-.1 0-.2h.1v-.4c-.1 0 0 0 0 0v-.3s-.1-.1 0-.2c0 0 0-.3.3-.1v.5c0 .1-.1.1 0 .1-.1 0 0 0 0 0v.1c.1.1 0 .1 0 .2h.1v.5H49c0 .1 0 0 0 0v.4c-.1 0 0 0 0 0-.3.2-.4 0-.4 0v-.2Zm0-3.5v-.2s.1 0 0-.1c.1 0 0 0 0 0l.1-.1v-.4c-.1 0 0 0 0 0v-.3s-.1 0 0-.1c0 0 0-.3.3-.2v.4s-.1 0 0 .1c-.1 0 0 0 0 0v.1c.1 0 0 0 0 .1h.1v.6H49v.4c-.1 0 0 .1 0 .1-.3.2-.4 0-.4 0v-.4Zm.5-.5Zm-.5-3v-.2c0-.1.1-.1 0-.1.1 0 0 0 0-.1h.1v-.4c-.1 0 0 0 0 0v-.4s-.1-.1 0-.2c0 0 0-.3.3 0v.5s-.1 0 0 0c-.1 0 0 0 0 0v.2c.1 0 0 0 0 0v.1h.1v.5l-.1.1v.3c-.1 0 0 0 0 0-.3.2-.4.1-.4.1v-.4Zm.5-.5Zm0-3.5Zm-.5.4v-.2s.1 0 0 0c.1-.1 0-.1 0-.2h.1v-.4c-.1 0 0 0 0 0v-.2s-.1-.1 0-.2c0 0 0-.3.3-.1v.3c0 .1-.1.1 0 .1-.1 0 0 0 0 0v.1c.1.1 0 .1 0 .2h.1v.5H49c0 .1 0 .1 0 0v.1c0 .1 0 0 0 0v.4c-.1 0 0 0 0 0-.3.2-.4 0-.4 0v-.2Zm.5-4Zm-.5.5v-.2s.1 0 0-.1c.1 0 0 0 0 0l.1-.1v-.4c-.1 0 0 0 0 0v-.2c0-.1-.1-.2 0-.2 0 0 0-.3.3-.1v.4s-.1 0 0 .1c-.1 0 0 0 0 0v.1c.1 0 0 0 0 .1h.1v.6H49v.3c-.1 0 0 .1 0 .1-.3.2-.4 0-.4 0v-.4ZM37.3 77.9H37h.2ZM52 91Zm-3-9.5Zm-.1.1v.1h-.1v.2h-.2v.2l-.3.2H48l-.3.1h-.2c-.2 0-.2-.1-.3-.2H47V82h-.1l-.1-.1v-.1l-.1-.1v-.6h.2c.1.2 0 .3.2.5.1.1.2 0 .3.2h.3c0 .1 0 0 .1 0h.4l.2-.1.1-.2h.1v-.2h.1v-.5l-.3-.3v-.1h-.1l-.2-.1h-.7l-.2.2-.1.2-.2.3s0 .1 0 0c-.1 0-.2 0-.2-.2v-.3l.1-.1s0-.2.2-.2c.1-.2.3-.3.4-.2h.5s.1.2.2.1h.2l.2.1v.1h.1s0 .2.2.3v.1h.1v.2c0 .1.1.1 0 .2l.1.3v.1l-.1.2ZM116.3 96l.2-.1h-.2Z"/><path fill="#8F99A8" d="M114.7 148v.2-.1Zm-70-41.2h-7.3.1H34h1-8.7.4-5.6l-8.7-.2c0 .2 0 .2 0 0-.9 0-.7-.1 0-.1l-.3-9v.2V96c-4.5-.2 4.3-.2 4.3-.2h64.3-.2 5.6-.2 23.6l.2.1h3.8-.5 1.6l1.5-.3-.5.2a2.8 2.8 0 0 0 .9-.4s.2 0 .8-.6a3.8 3.8 0 0 0 1.2-2.6H47.9c0 .1-.4 0-.4 0h-.2s-.1 0 0 0H7.5v.2c.1.7.4 1.3.7 1.8a4 4 0 0 0 2.4 1.7h.8c.1.1.1.1 0 .1h-.7a4 4 0 0 1-3.4-3.8V92s.2-.2 0-.1h3.1-.2c3.7-.1 6.1-.1 8.7 0h4-.1 7-.7l3.9-.1h9.8v-3.7l.1-.1v-1l.2-2.4H30.4h.6-2.4c-1.1 0-2.3-.2-3.4-.1H25h.1H21a2 2 0 0 1-1.4-.5 2.8 2.8 0 0 1-.9-1.4V78h.2l-.2-5v.1-10 .3V55h-4.2a3 3 0 0 1-2.6-3v-9.2c0-.4 0-.8.2-1a3 3 0 0 1 1.2-1.7 3 3 0 0 1 1.3-.5h.4s-.5 0-1 .4a2.9 2.9 0 0 0-1.7 2.3V51v-.2 1.7l.6 1.2 1 .8c.5.2.9.2 1.3.2h6.5-.5 2l2.9.2h.3c0-.1-.4 0-.2-.1h6.6l.4-.1h5.6l.4.2.3.3.5.4s1.3 1 .6.4l-.2-.2 2.1 1.5-.3-.2.7.5-.2-.1.8.5v-.7c0-.3.1.6.1-.1v-2.5h1.6c.5 0 .6-.1.7-.2l.6-.3h.2l.5-.5.4-.7v.1-.1l.2-.3V52v.3-6.8.2-3.1c0-.4-.1-.7-.3-1v-.2l-.2-.2c-.4-.6-1-.9-1.5-1l-.6-.1h-1.7.2-5 .1-1.6l-4-.1h.6-1 .9-7.2c.4 0 .2 0 0 0h-1.7.6-4.1.3H19c-8.5-.3-1.8-.4-1.8-.4h28.3l.6.2H46c.9.2 1.6 1 2 1.7l.2 1V47h6.6-.2 1.1-.3 18-.2 1a2.6 2.6 0 0 1 1.3.4l.6.5.3.6.2 1V57v-.7 1.1-1 8.3-.1 2-.7 4.7-.3 3l-.2 4.8h.3v2.8c0-.4 0-.2 0 0V82l-.2.7.1-.2V82v.8l-.2.4-.2.3-.6.6c-.8.4 0-.1-.3 0a2 2 0 0 1-1 .3H73h.2-3c-10.1-.3-2.2-.3-2.2-.3h6.4a2 2 0 0 0 1.8-1.5v-4.2H56h.2-17.5.3-1.8l.4-.1H19v4.2c0 .1 0 .3.2.4.1.5.4.8.8 1 .4.3.8.3 1.2.3h31.1c4 0 13.8.1 2.8.4h-2.8v2l.1 1.3c0 .6.1 1 0 1.6 0-.1 0 0 .1 0v1.6-.1.3a3.6 3.6 0 0 0 0 .6H57h-1.1 11.4-.3 17.9s1.5 0 .8-.1h14.1-.7 5.9-.9 2-.5 2.9-.4 10.5l.3.2v.2l-.2 1.1-.7 1.3-.3.4-.3.3-1 .7-.6.1-1.2.2h-2.1v8.4-.2 2.4H111l.1 1.6 1 9 .6 5.8.3 3.5v.4l.2 1.2v1.4l.2.6.2 2.7.4 4.1.6 5.5c0-.3 0 0 0 0l.1 2.1c.1.8.1.6.2.7v1.2-.2l.2 1.6-.1-.3.1 1v.7h4.7l2.7.1h-.3.6-.6 4.8c-.2 0-.1 0 0 0h1.1-.4 2.7-.1 1.7c5.7.3 1.2.4 1.2.4h-20.9v-.1h-5.8c.2 0 0 0 0 0H104h.1-1 .3-31.8s-10 0-2.4-.3h5.7-.1 8.4-.4 3.3c.3.1-.3 0 .2 0h-.1 5.4s.4 0 .2-.1h4.3-.2 1.7-.2 1.3-.1 1c.2 0-.4 0 0 0h5.2-.1.5-.2 8.1v-.1l-2-14.4v-.2l-.2-1.4v-.5l-.1-.2-.1-.8-.1-.5-.7-5.5-1.3-9.4-1.4-9.6H93.8h.1-19.6.3H69l-3-.1h-1.6a7.1 7.1 0 0 1-.3 0H52h1.2-2 1.6-8.3ZM20.3 78h4.3-.4 3.2-.5 1-.2 1.5-.2 2c.3 0-.7 0 0 0h9-.2H41h-.4 18.5-.2 7.6l4.7.1h-.6 1.1-1 5.6V49.5a2 2 0 0 0-1.3-2l-.8-.2h-3.7.1-2.9.1-10c.3 0-.1 0 0 0h-4.2.3-1.7l.3-.1h-1l-3.2.1v2.8l-.1 1.9v.6l-.2.4-.3.7.1-.2a3 3 0 0 1-1 1l.2-.2-.4.3-.5.2c-.4.2-.8.2-1.2.2h-.8v3.8L38.6 55H19v23h1.4ZM52 91v-.6c0 .2 0 .1 0 0V90v.1-1.5c0 .1-.1-.1-.1 0v-2.2c0-.5-.2-.9 0-1l-.1-.4v-.4h-7.1.4-2l.2 1.2-.1 1.2v2.1l-.1 1.7v.5l-.1.4 1.6.1h-.2H50c.1 0 .1 0 0 0h-.1.9-.2 1.1c.1 0 0 0 0 0h.5V91Zm60.4 5.3Zm-4.8 10.6h.6-.6c0 .7.1 1.3.2 1.3l.7 5.8.2 1.6v.1l.4 2.8.2 1.6v-.6l.3 2.2.3 3.2v.3-.2l.4 2.2.4 3 .3 2.2.1.5.2 1v.4l.7 4.6.2 1.6.1.8v-.3l.4 2.9-.1-.4.1 1v-.3l.2 1.4v-.2l.2 1.8c0 .3 0-.7 0 0l.3 2.3h1c-.1 0 0 0 0 0h.3v-.7l-.1-.8v-.2c0-1.2-.1-.6-.2-2v-.3.2-.7l-.1-.4v.3-1c-.2-.6-.3-1.8-.3-2.1l-.2-2v-.2l-.3-2.1-.4-4.5v-.6l-.4-3.6-.1-1.3v.2l-.3-2.9-.1-1.5v-.4c0 .2 0 .3-.1-.2v-.5.1l-.2-1.7-.4-4.5v.6-1 .9l-.4-4v-.8l-.2-.7-.2-2.3c0 .4 0 .2 0 0v-.8l-.2-1v-.1.7-.7h-.5.5-1.2.3-2Zm-53.2-.5h25.3-.2H93c4 .1 6.5 0 10.7 0h2.9a9 9 0 0 1 1.3.1h3.7-.5 1v-1.8.6-9H95h.2-82.7v5.8l-.1 4.1v.3l4.8-.1h37.2Z"/><path fill="#8F99A8" d="M36 106.8Zm0-1.7h.3H34h.4-.8.1-1.2.2-9.3.3-4.3.1-.6v-2 .1-5.7h7.6-.1 5.2-.5.9-.8 3.6l.5.1h2.6-.1 1.6-.6 3.8-.2 2.4c7.9.3 1.7.4 1.7.4H19.7h.1-.3v1.4h-.1v5.3h2.3c-.2 0 .1 0 0 0h3.4-.2 1.3l-.2.1h.8l2.6-.1h32.1v-2.4a74 74 0 0 1 0-2.9V98h-1s-13.8 0-3.3-.4a56.3 56.3 0 0 1 3.9 0h.7v3.8-.3 4.1H54h.5-1.9L50 105h-.3c0 .1.3 0 .1.1h-6.2l-.5.1H36Z"/><path fill="#8F99A8" d="M26.2 105.2h.1Zm25.2-7.3h-1l-.1-.2.1-.2h1l.2.2-.2.2Zm-9.9 3.7Zm-.1.1v.1l-.1.2h-.1v.2l-.3.2h-.1c-.1 0-.2.1-.2 0H40l-.2-.1h-.2v-.1h-.1l-.1-.2-.1-.1v-.7h.2v.1l.2.4c.1.1.2 0 .3.2h.5a.1.1 0 0 0 .1 0l.2-.1.2-.2v-.1h.1v-.5l-.2-.3h-.1c-.2 0-.2-.1-.3-.2h-.4l-.2.1-.2.2-.1.1-.2.3v.1c-.1 0-.2 0-.2-.3v-.2l.1-.2.2-.1v-.1l.4-.2h.4s0-.1.1 0c.1 0 .2.1.2 0 0 .1 0 0 0 0h.2l.2.1h.1v.1h.1l.2.3s0 .2.1.1v.2l.1.2v.4c-.1 0 0 0 0 .1h-.1Zm63.8-.7v.1ZM74 97.5h19.3-.1 12.4v2.3-.2 1.4-.2 4.3H62.9v-6.3c0-1.7.2-2 .3 3v2.9h5.3-.3 8.2s.1 0 0 0h3.9-.4 2l2.7.2h.3c0-.1-.3 0-.2-.1h6.6l.3-.1H99h-.3 2.5-.3.8-.2 1.3-.2 1.5c.3 0-.6 0 0 0h1.1v-5.8.1-.9.3-.4H95l-3.2-.1h-1.1.2-10.1.5-.9.8-6.9c.3 0 .2 0 0 0h-1.7.6-2.1l-1.8-.1h.2-2.6c-8.2-.3-1.7-.3-1.7-.3H74Zm9.3 3.8-.1-.2c0-.2 0-.4.3-.6.2-.2.2-.3.5-.4h.8l.2.1.2.2.3.3v.4l.2.2c0 .1 0 .3-.2.5l-.2.4h-.1c0 .1 0 0 0 0v.1l-.4.2h-.6l-.4-.2s-.2 0-.3-.2l-.1-.2v-.2l-.1-.3.3.1.1.2c0 .2.2.1.2.2l.2.2h.3c0 .2 0 0 .1 0l.2.2v-.1c.1 0 .1-.2.2-.1v-.1h.1v-.1l.1-.2s.1 0 0 0l.1-.2v-.6H85l-.1-.1-.2-.2-.1-.1H84l-.1.1h-.1v.1h-.1v.1c-.1.1-.1 0-.1 0l-.1.2-.2.3ZM62.1 84.5c-.1 0-.2 0-.2-.2l.2-.1h.7l.2.1c0 .1 0 .2-.2.2h-.7Zm-60.2 65h3.9-.2 3.5v-.5l.1-.9v.1-.3l.3-1.9v-.3.1l.1-.7v-.4.4-1l.3-2.2.2-1.9v-.3l.2-2 .5-4.6v-.5c.3-1.7.3-3 .5-3.6v-1.3.2l.3-2.9.3-1.5c-.1.3 0-.1 0-.4v-.7.1l.2-1.8.5-4.4-.1.6.1-1-.1.9c0-1.3.3-2.6.4-4v-.4l.1-.5v-.7l.3-2.4v.1l.1-.8.1-1.1v.6-.8h.4l-.2 1.8-.8 9-.6 5.8-.4 3.5v.5l-.2 1.1-.1 1.4v.6l-.4 2.7-.4 4.1-.6 5.5c0-.3 0 0 0 0l-.2 2.1v.7l-.2 1.2v-.3l-.2 1.7v-.4 1.1l-.1.5v.2h1.4v-.2l2-14.4v-.2l.2-1.4.1-.5v-.2l.1-.8v-.5l.9-5.5c.2-2.4.9-6.8 1.3-9.4l1.3-9.7h.4l-.2 1.6-.9 5.8v-.1c0 .7 0 .9-.2 1.7l-.4 2.9-.2 1.5v-.5l-.2 2.2c-.2 1-.5 2-.6 3.1v.3-.1c0 .7 0 1.2-.2 2.1l-.4 3.1c-.2 1.3 0 .9-.3 2.1v.5c0 .6-.1.4-.2 1v.5l-.6 4.6-.3 1.6s-.2 1.8 0 .8v-.4c0 1-.3 1.8-.4 2.9v-.5l-.1 1v-.2l-.1 1.4v-.2l-.3 1.7c0 .4.1-.6 0 .1l-.3 2.3h2-.1 3l.2-.1h3.4-.1 1.1-.2 1.5c.2 0-.2 0 0 0h12.5c-.1 0-.1 0 0 0h2.7-.2.4-.4 3.2c-.2 0-.1 0 0 0h.7-.2.8c.3 0 0 0 .1.1h.9-.1 1.1c3.8.3.8.4.8.4H30.6v-.1h-6.2l.1-.1h-.4l-1.2.1H3.5s-6.7 0-1.6-.4Zm49.1 0h.5l.1.1c.1 0 .1-.1.1 0v-.1h.2s.1 0 0 0c.1-.1.1 0 .1 0h.1s0-.1 0 0h.1s0-.1 0 0c0 0 0-.1.1 0h.1v-.1h.2v.1h.5c.1 0 0 0 0 0 .1 0 .1.1.1 0v.1c.3.2.1.3.1.3 0 .1 0 0-.2 0h-.6c0-.1-.1 0-.1 0l-.1-.1h-.5c0 .1 0 0 0 0 0 .1-.1 0-.2 0 0 .1-.1 0-.2 0 0 0-.2.2-.2 0H51s-.4 0-.1-.3Zm1.3-.1Zm100.2.1h4.5-.2 6.5-.3 1c.5 0 1 .2 1.5.1h.1s-.1 0 0 0h2.4l1-.1h4.2-.1 1.3-.2 1-.1c.3 0 .4-.1.8 0 .2 0-.3 0 0 0h1.9c.6 0 .3-.1.8 0h.2c.5 0 .2-.1.8 0h.6-.1 2.4c-.2 0 .2 0 0-.1h3.4l1.7.1h.6-.1 2.2c-.1 0-.1 0 0 0h3.1-.2.4-.4 3.8c-.2 0-.1 0 0 0h.8-.3 1c.3 0-.1 0 0 0h1v.1h1.3c4.4.2.9.3.9.3h-20.5s-.1 0 0 0l-1-.1h-1.6.2-9.6s-.2 0 0 0h-14.9s-7.7 0-1.8-.3ZM151 90Zm-17.4-39.3h-.2.2ZM130 89.6h.3c.1 0 .1 0 0 0h-.6a1.6 1.6 0 0 1-1-1.6v-1.9l-.1-3.5v.1-16.6.5l-.1-3.4V55v.2-2c0-.3 0 .8 0 0v-.9a1.8 1.8 0 0 1 1.5-1.6h6.4-.1 1.2-.4 8.4-.1 11.3-.2 17.7a4 4 0 0 0-.4 0h-.2 5-.8 1.7-.4 2.5-.4 6.1c.5.2 1 .7 1.2 1.2.2.3.1.7.1 1v4.7-.3 4.5-.3 1.8-.5 12.7-.1V88c0 .6-.3 1.2-.6 1.4-.3.3-.7.4-1 .4l-2.2.1h.3-9.1a5.3 5.3 0 0 1-.2 0h-10.7 1-1.7 1.5-13.6.2-3.4 1.1-4l-3.7-.1h.5-5l-8-.2Zm58.1-36.9c0-1-.7-1.5-1.4-1.5h-33.2.1-3.1l-3.3-.1h-16.9c-.2 0-.5 0-.7.2a1.4 1.4 0 0 0-.7 1.3v2.8h45.4a4.4 4.4 0 0 1 .5 0h13.4v-2.7ZM152 89.5h34.8c.2 0 .4 0 .6-.2.2 0 .5-.3.6-.6l.1-.4v-.5.2-4.8l.1.1V59.8v.5-2.8l.1.5v-2.4c0 .4 0 .3 0 0h-.1l-5 .1h-10.9.3H157h.7-2.5l-3.6-.1h-.4.2-2.4v.1h-16.1.4v.1h-3.2.5-1 .1-.8v32.9a1.5 1.5 0 0 0 1 .8h4.8c6.4-.2 9.7 0 17.3 0Z"/><path fill="#8F99A8" d="M155.2 78.2v-1.9.3-.5h.5c.3 0 .7.2 1 .1.1 0-.2 0 0 0h2.2l.1-.1h2.5c.2-.1.5 0 .8 0h-.1 1.1s-.2 0 0 0h.6V80c0-.1 0 .1 0 0v4.9h-.7c-.1 0-.1 0 0 0h-1.8.2-.4.3-2.3c.1 0 0 0 0 0h-.6.2-.6c-.2 0 0 0 0 0l-.7-.1a4 4 0 0 0-.8 0l-1.2-.2c0 .2 0 .2 0 0h-.1l-.2-1.3v-2.8.1-2.3Zm1 6.1h7.2V82h.1v-4.4h.1v-.8l-.1-.1v-.1H159s-.1 0 0 0h-3.4v7.9h.5Zm7.8-6.7Zm-11 0Zm-8.7.6v-1.9.3-.5h.4c.4 0 .7.2 1 .1h2.2l.2-.1h2.5-.1c.3-.1.5 0 .8 0 0 0-.2 0 0 0h1c.1 0-.2 0 0 0h.7V80c0-.1 0 .1 0 0v3.2c-.1.2 0 .3 0 .4v.8l-.1.4h-.6c-.2 0-.2 0 0 0h-1.9.2-.3.3-2.4c.2 0 .1 0 0 0h-.5.2-.7c-.2 0 0 0 0 0l-.6-.1a4 4 0 0 0-.8 0l-1.2-.2c0 .2-.1.2-.1 0-.2 0-.1 0 0 0-.1-.3-.2-.6-.2-1.3v-2.8.1-2.3Zm.9 6.1h7.3v-3.5c.1-.6 0-1 0-1.6l.1-.7v-2H148s-.2 0 0 0h-3.5v7.9h.6Zm-11.4.2c-.1 0-.1 0 0 0l-.2-1.3v-6.9.3-.4h1.5c.1 0-.2 0 0 0h2.2l.1-.1h3.3-.1.3-.1.9s-.2 0 0 0h.6V80c0-.1 0 .1 0 0v4.9h-2.5.1-.3.3-2.3c.1 0 0 0 0 0h-.6.2-.6c-.2 0 0 0 0 0l-.7-.1a4 4 0 0 0-.8 0l-1.2-.2c0 .2 0 .2-.1 0Zm.7-.2h7.3V82h.1v-5.5h-4.5s-.1 0 0 0H134v7.9h.5ZM165 59.8h-12.3l-.7-.1h-.9.1-5.2c0 .1-.3 0-.4 0h-.1s-.2 0 0 0h-4.7c-1 0-2.2.1-3.2 0h-1.1s-4.6 0-1-.3h-.1 2.8-.2 3.9-.2.7l.8.1h1.6c.3 0 .2-.2.6-.1h.4s.2 0 0 0h2.2-.1c.3-.1.5 0 .8 0h-.1.4c.1 0 .2-.1.4 0 .1 0-.2 0 0 0h4s.2 0 .1-.1h2l1 .1h1.6c-.1 0 0 0 0 0h2-.2.3-.3 2.3c-.2 0-.1 0 0 0h.5-.2.6c.2 0 0 0 0 0h.6v.1h.8c2.6.2.5.3.5.3Zm0 3.9h-9.7v-.1h-4.2l.1-.1h-.3l-.8.1h-4.6s-.2 0 0 0h-9s-4.6 0-1-.4h-.1 2.8-.2 3.9-.2.7l.8.2h.1v-.1h2.1v-.1h.4s.2 0 0 0h2.2-.1.8-.1 1c.1 0-.2 0 0 0h8.1c.2 0 .2.1.4 0h.2c-.1 0-.1 0 0 0h.6l1.3.1h-.2.3-.3 2.3c-.2 0-.1 0 0 0h.5-.2.6c.2 0 0 0 0 0h1.4c2.6.3.5.4.5.4Zm-27.4 7.5h-1.1s-4.6 0-1.1-.4h2.7-.1 3.9-.2.6l1 .1s-.2 0 0 0h.6v-.1h1.9s.2 0 0 0h2.2-.1v-.1h.8-.2.7-.1.5s-.2 0 0 0h3.8s.2 0 0 0h4.2l.4.1h.2c-.1 0-.1 0 0 0h1.8-.1.3-.3 2.7-.1.6c.2 0 0 0 0 0h.6c.3.1.5.1.8 0 2.6.3.5.4.5.4h-12.3l-.7-.1h-.9.1-5.2c0 .1-.3 0-.4 0h-.1s-.2 0 0 0h-4.7c-1 0-2.2.1-3.2 0Zm17.1-4H150s-2.5 0-.6-.3h3.8c.1 0 .3.1.4 0 .1.1 0 0 0 0h.8c.2 0 .2-.1.4 0h.2s.1 0 0-.1h1.5s-.1 0 0 0h.5s-.1 0 0 0h4.3l.3.1h1.1-.1.1-.1 1.5-.1.3c.1 0 0 0 0 0h.3c.2.1.3 0 .4 0 1.5.3.3.4.3.4h-4.7a2 2 0 0 0-.5 0h-.6c-.3-.1-.5 0-.8 0l-.3-.1H155c0 .1-.2 0-.2 0h-.3Zm31-15.1a1 1 0 1 1 0 2 1 1 0 0 1 0-2Zm0 1.7a.7.7 0 0 0 .5-1.1.7.7 0 0 0-1.1.5.7.7 0 0 0 .2.4.7.7 0 0 0 .4.2Zm-2.5-1.7a1 1 0 1 1 0 2 1 1 0 0 1 0-2Zm0 1.7a.7.7 0 0 0 .5-1.1.7.7 0 0 0-1.2.5.7.7 0 0 0 .4.6h.3Zm-2.5-1.7a1 1 0 1 1 0 2 1 1 0 0 1 0-2Zm0 1.7a.7.7 0 0 0 .5-1.1.7.7 0 0 0-1.2.5.7.7 0 0 0 .2.4.7.7 0 0 0 .5.2Zm-11.3 5.6v-.5h1.4-.1 6.1-.3 1c.5 0 1 .2 1.4.1h.1s-.1 0 0 0h2.3c.6 0 .4-.2 1-.1h1.1v4.3-.2.5-.1 1.3c0 .1 0-.3 0 0v3.6c0-.3 0-.2 0 0v.5-.2V72v-.1 1h-1.7l-1.6-.1h-5.7.3-.4.4-3.5c.2 0 0 0 0 0h-.8.2-1.1c0-.1 0 0 0 0v-2.2c.3-4.2.4-1 .4-1v2.8h10.9-.1 2.2v-2.7l.1-1v-1.4.1-8l-.1-.1h-.5s-.2 0 0 0h-12.6v1s0 7.4-.4 1.8v-2.8Zm-40.7-48.1Zm-2.8 22Zm22.9-12.8Zm-10.6-6Zm17.1-11.1s0-.1 0 0v.8c-.1.3 0 .2 0 .4h-.1l-.1.4-.1.1v.1l-.1.2-.2.4-.3.3v.1l-.3.3c-.2.3-.5.4-.8.6 0 0-.1 0 0 0-.3 0-.4.1-.5.2h-.5l-.6.1h-.5c-.1 0-.1 0 0 0h-.4a3 3 0 0 1-.8-.4v.1h-.1.1l-.7-.4-.1-.2h-.1s-.2 0-.2-.2l-.2-.2V6l-.2-.2V6l-.2-.3v-.1l-.1-.4-.2-.5v-.9h.2v.5l.3.8.5.8.6.6.7.3 1 .3h1l.2-.1h.2l.4-.3.6-.4c.4-.2.4-.5.7-.8l.2-.3V5l.2-.2v-.4h.1v-.6c0-.4 0-.9-.2-1.3-.2-.5-.4-.9-.7-1.1l-.3-.2V1s-.1 0 0 0l-.2-.1-1-.5-.8-.1h-.9c-.4 0-.7.2-1 .4l-.8.8h-.1l-.3.5-.1.2-.1.3-.3.7v.4c-.1 0-.2-.3-.2-1 0-.3.2-.5.4-.8l.2-.3.4-.6.2-.2c.3-.3.9-.5 1.1-.6h.3l.6-.2h.7l.3.1.3.1h.5l.6.4.3.2h.1l.2.2s.1 0 0 0l.7.8V2c.1 0 .3.3.2.1l.1.2v.3s0-.1 0 0v.1h.1V3l.1.3Zm-.1 1.2ZM132 9.4ZM131 30Z"/><path fill="#8F99A8" d="M160.9 34.1v.8c-.2.4 0 .2-.1.6-.2.4 0 .3-.3.7 0-.2 0-.1 0 0l-.1.3c0-.1 0 0 0 0l-.2.3-.3.6-.2.3-.2.2s-.1.2 0 .2c-.2 0-.4.3-.6.4-.4.5-.8.6-1.2 1h-.2a3 3 0 0 0-.4.1l-.3.2c-.2 0-.3.1-.4 0l-.5.2h.1l-1 .1h-.8c-.1 0-.1 0 0 0l-.6-.1-1.4-.5h.2-.3.2c-.3 0-.7-.3-1.1-.6h-.1l-.1-.2-.2-.1-.3-.3-.3-.3c.1 0 .1 0 0 0l-.1-.2-.2-.3v.2l-.3-.6c-.1-.2 0 0 0-.1l-.3-.6-.3-.9v-1.4c0-.2 0-.2 0 0l.2.4v.3l.4 1.5.8 1.4.6.5.5.4 1.2.7a5.5 5.5 0 0 0 2.3.4h.6l.1-.1h.4l.4-.2h.2l.8-.4c.4-.3.7-.3 1-.7.6-.4.7-.8 1.1-1.3l.2-.2v-.2l.2-.2c.1-.2 0-.2 0-.2l.2-.4v.1l.1-.5v.1-.3h.1v-1c0-.7 0-1.5-.3-2.2a5 5 0 0 0-1.2-2l-.4-.2-.1-.2s-.1 0 0 0c-.2 0-.2 0-.3-.2h-.1l-1.6-.8-1.4-.2h-1.5c-.6.2-1.2.4-1.7.8a8.7 8.7 0 0 0-1.5 1.3l-.6.9-.2.4v.3c-.3.4-.4 1-.4 1.3 0 .4-.1.7-.2.6v-1.5c.1-.6.3-1 .5-1.4l.4-.5.3-.5.4-.4.3-.3-.2-.2-1.5-2-1.5 1-.3.2-.7.3-.5.2-.8.2c-.4 0-.5.1-.7.2h-.8l-.8.1h-1.2a1.3 1.3 0 0 0-.2 0c-.3 0-.2 0 0 0-.1 0 0 0 0 0l-1-.2a10.1 10.1 0 0 1-2.2-.6l-.5-.3.4.2c-.6-.2-1.3-.7-2-1.1v-.2h-.1l-.2-.2-.4-.2-.5-.5-.4-.5c.1.2 0 .1 0 0l-.3-.3-.4-.6.2.4-.5-.8-.5.3h-.1l-.7.5-1.9 1 .1.2s.2.5.2.2l.1.3.1.4v-.1.2l.1.4v.4c0 .1 0-.2 0 0V30c-.2.3 0 .2-.3.5v.1l-.1.1v.2-.1l-.1.2-.3.6-.1.1-.2.3s-.1.1 0 0l-.5.5-1 .7s-.2.1-.2 0l-.3.2-.2.1c-.2 0-.3.1-.4 0l-.4.2h-1.3c.1 0 .1 0 0 0h-.6l-1.2-.5.2.1h-.3.2c-.3 0-.6-.3-1-.5v-.1l-.1-.1-.2-.1-.2-.2-.2-.3c0 .1 0 0 0 0l-.1-.2-.2-.2v.2c-.2-.4 0-.2-.3-.5v-.1l-.2-.5-.2-.7v-1.2c0-.2 0-.2 0 0l.2.3v.2l.4 1.2c0 .4.3.8.6 1.2a4.2 4.2 0 0 0 .9.8l1 .5a4.8 4.8 0 0 0 1.9.3h.9l.3-.2h.2l.6-.3.9-.6.9-1V31c.1-.2.2-.5.3-.4v-.2l.2-.3V30l.1-.2V29c0-.6 0-1.3-.2-1.9-.3-.6-.6-1.1-1-1.5h-.1l-.2-.3-.1-.1s-.1 0 0 0l-.3-.2-1.4-.7-1.1-.1H125c-.5.1-1 .3-1.4.6a8 8 0 0 0-1.2 1 5 5 0 0 0-.5.8v.2l-.2.4c-.2.3-.2.8-.3 1l-.1.6s-.2-.4 0-1.3h-.1c.1-.5.3-.8.5-1l.2-.6.3-.4.3-.3.4-.3c.4-.4 1-.8 1.4-.8l.4-.1.5-.1h.3v-.1h.5-.2.6l.5.1.4.1c.1.1-.1 0 0 0l.6.1.8.4c.3.2.2 0 .5.3h.1c.1.2 0 .2.2.3 0 0 .2.1.1 0l.9 1v.2l.8-.8a5 5 0 0 1 1-.5l.4-.3.7-.4h-.1l.2-.1c0-.2 0 0 0 0L133 23v.2l-.5-1.6V21l-.1-.4v-1.7l.2.9v.5c.2 1 .5 1.8.8 2.6.3.7.7 1.5 1.5 2.5l.5.6.4.4.9.7 2.2 1.2c1 .4 2.1.6 3.2.6h2.2l.3-.1h.3l.8-.3.3-.1c.5-.1 1-.4 1.4-.6l1.9-1.3c.9-.7 1.2-1.4 2-2.4-.2.2 0 0 0 0l.2-.4.1-.3.2-.3.2-.4.2-.6v.1l.2-.8v.1c.2-.4 0 0 .1-.5l.2-.9v-.8c0-1.4-.2-2.8-.7-4a9.1 9.1 0 0 0-2.1-3.4h-.1l-.6-.6-.2-.2s-.2-.2 0 0l-.5-.4-.2-.1c-.9-.6-1.7-1-2.8-1.4-.6-.1-1.5-.4-2.5-.4h-1.5l-.6.1h-.3l-.3.1c-1 .2-2 .7-3 1.3-1 .6-1.8 1.3-2.5 2.1l-.1.2-.6.8-.5.8-.2.4-.1.4-.2.5c-.3.7-.5 1.6-.6 2.3 0 .7-.1 1.2-.2 1.1v-2.1l.2-.6c0-.5.2-.9.3-1.3l.6-1 .4-.7a6 6 0 0 1-.6-.5l-.7-.5s-1.4-.8-1.7-1.2l-.5.4h-.1c-.3 0-.5.3-.6.2h-.2l-.5.1h-.7l-.7-.4.1.1h-.1l-.5-.3V11h-.2l-.3-.4v-.1l-.1-.1-.2-.2V10l-.1-.3-.1-.4v-.7c0-.1.1-.1.1 0l.1.3.2.7.4.6.5.4.6.4.8.1h1l.4-.2.5-.4c.3-.1.3-.3.5-.6 0-.1.1-.3.2-.2v-.2l.1-.2c.1 0 0 0 0-.1h.1v-.5c0-.3 0-.7-.2-1a2 2 0 0 0-.6-.9l-.1-.2h-.1l-.1-.1-.8-.4c-.4 0-1-.2-1.4 0-.3 0-.6 0-.8.3l-.6.5a3 3 0 0 0-.4.5v.1l-.1.2-.2.7-.1.3s-.2-.3-.1-.8l.2-.7.2-.3.4-.4.2-.2c.2-.2.6-.5.8-.5h.3l.5-.1h.8l.2.1h.4l.5.3.3.1.2.2.6.6v.3s.2.3.2.1l.1.4V8l.1.3s0-.1 0 0v1l-.2.3v.2l-.2.1-.1.4-.2.2s0 .1 0 0l-.3.3 1 .5.8.6.4.2.7.5.2.1.6-.7.6-.7.7-.7.7-.5.9-.5 1.4-.6.4-.2h.5v-.1l.9-.2.7-.1h1-.4.5c.2-.1.5 0 .8 0l1 .1.4.1.4.1c.3.1-.2 0 .2 0 0 0-.2 0 0 0l.5.1.6.2.3.1.2.1.4.2.7.4h.2l.1-.2.2-.3-.1.2.2-.5c.2-.1 0 0 .1 0l.3-.4.4-.6c1.5-1.8.5-.2.5-.2-.4.8-.7 1.1-1.4 2v.3l.5.4.3.2.4.4.2.1.5.5.4.5.8 1.1.3.5.1.4.2.4c.1.2.2.3 0 0v-.2l.3.8.2.4v.4-.2l.1.5v-.1l.1.4v.4-.1l.2 1c0 .2 0-.4 0 0V20l-.1.3-.2 1v.2c-.2.6 0 .3-.4 1 .1-.3 0-.2 0 .2l-.2.3v.2-.2l-.2.5-.2.3-.2.4-.2.4-.1.1-.2.3-.4.5-.1.2-.9.8-.3.4h.1l.1.2V27l.3.4c0 .2 0 0 0 0 0 .2.2.4.3.5l.4.5.4.6.3-.2c.2 0 .4-.2.5-.3l.8-.3.5-.2h.6l.4-.1.5-.1h-.2.8l.5.1a3.7 3.7 0 0 0 .5.2c.2 0-.1-.1.1 0l.7.1.9.5c.3.2.3 0 .6.4h.2c.1.2 0 .2.2.3 0 0 .2.2.1 0l1 1.3.1.2.1.3.2.2c0 .1 0 .2 0 0v-.1l.2.5v.4-.1l.1.3.1.4v.5c0 .2 0-.2 0 0l.1.7Z"/><path fill="#8F99A8" d="M160.8 35.5Zm-8-14h.1Zm-17.6-10Zm1.1 6.8v-.7l.5-1.3.1-.1.4-.6c0-.1 0-.2.2-.3l.2-.2V15l.2-.2.2-.3.5-.5.4-.3.5-.3.9-.3c.3-.2.7-.2 1-.3h.4l.1-.1h1.7c.2.1 0 0 0 .1l.5.1h.1s-.1 0 0 0c.2 0 .4 0 .7.2l1 .5c.3.2.3 0 .6.4h.1l.3.3s.2.2.1 0c.4.4.7.8 1 1.4l.3.5.1.2v-.1c.2.3.2.6.3 1V17v.4-.1l.2.5v.5c0 .1 0-.2 0 0V20l-.1.6c-.2.4 0 .3-.3.7V21v.2l-.1.2v.1l-.1.2-.4.7a3.2 3.2 0 0 1-.4.5s-.1.2 0 .1l-.6.5c-.4.5-.8.6-1.3 1h-.2l-.4.2-.3.1-.5.1h-.1l-.3.1-1 .1h-.5s.1 0 0 0h-.2c-.2 0-.1 0 0 0h-.7l-.4-.2h-.5c-.2-.1-.1-.2-.3-.2h-.1l-1.2-.7-.4-.3-.2-.2v.1l-.2-.3-.3-.3s.1.1.1 0l-.2-.2v.1l-.2-.3-.3-.4c0-.1.1.1 0 0a5 5 0 0 1-.5-1v-.1c-.1-.4-.2-.1-.2-.5l-.1-.6v-.4.1-.3l-.1-.6v-.6Zm4.1-5.3h.2-.2Zm7.7 3.8c-.2-.8-.7-1.5-1.2-2l-.4-.3-.1-.1s-.2-.1-.1 0l-.2-.3h-.2l-.3-.2-.3-.1-1.2-.5-1.4-.2h-.7l-.5.1-.6.1-.6.3-1.4.8-.7.6v.1l-.3.3-.2.3-.1.2-.2.3-.2.3c-.1.5-.3.6-.3 1-.2.3-.1.6-.2.8v1.1l.1.3.4 1.5c.2.5.4 1 .9 1.5l.6.6.5.4 1.3.7a5.8 5.8 0 0 0 2.4.4h.6l.5-.1.4-.2h.2l.8-.4 1.1-.7.2-.2.6-.7.4-.5.1-.2.1-.2v-.1l.1-.2.1-.2.2-.4.1-.6.1-.5V19c0-.8 0-1.6-.4-2.3Zm-11.6 3.9Zm-5.3-1.6c0 .1 0 0 0 0h-.2c0 .1 0 0-.1 0 0 0-.1.1-.2 0 0 0-.3 0-.1-.3h.4v.1s0-.1 0 0v-.1h.2c0-.1 0 0 0 0h.1v-.1c.1 0 0 0 0 0h.2s0 .1 0 0h.2c.1.1.1 0 .1 0v.1c.1 0 .1 0 0 0h.4c0 .1 0 .1 0 0 .2.3 0 .4 0 .4h-.5c0-.1 0 0-.1 0V19h-.4Zm-3.5 0c0 .1 0 0 0 0h-.1c-.1.1-.2 0-.2 0s-.2.1-.2 0c0 0-.3 0-.1-.3h.4l.1.1s0-.1 0 0v-.1h.1c0-.1.1 0 .1 0v-.1h.2s0 .1 0 0h.3c0 .1 0 0 0 0h.1v.1h.3c0 .1.1.1.1 0 .2.3 0 .4 0 .4h-.7c0-.1 0 0 0 0V19h-.4Zm-2.5.1h-.6c0-.1 0 0-.1 0V19h-.4c0 .1 0 0 0 0h-.1c0 .1-.1 0-.2 0 0 0 0 .1-.1 0h-.1s-.3 0 0-.3h.4v.1c.1 0 .1-.1.1 0v-.1h.1c0-.1 0 0 .1 0 0-.1 0 0 0 0h.1s0-.1 0 0h.1v-.1.1h.1v-.1h.2v.1h.4v.1c.2.2.1.3.1.3Zm-3.5 0h-.7c0-.1 0 0 0 0V19h-.4c0 .1 0 0 0 0h-.1c0 .1-.2 0-.2 0s-.1.1-.2 0c0 0-.3 0-.1-.3h.4v.1s0-.1 0 0v-.1h.2c0-.1 0 0 0 0h.1c0-.1 0 0 0 0s0-.1.1 0v-.1h.1v.1h.1v-.1h.1v.1h.5v.1c.2.2 0 .3 0 .3Zm-3.6 0h-.5c-.1-.1-.1 0-.2 0V19h-.4c0 .1 0 0 0 0h-.2c0 .1 0 0-.1 0 0 0-.2.1-.2 0 0 0-.3 0-.1-.3h.5l.1.1s0-.1 0 0v-.1h.1c0-.1.1 0 .1 0s.1 0 0 0c0-.1.1 0 .1 0s0-.1 0 0h.1v-.1l.1.1s.1 0 0-.1h.2v.1h.4v.1h.1c.2.2 0 .3 0 .3Zm-3.5 0h-.6c0-.1 0 0-.1 0V19h-.4c0 .1 0 0 0 0h-.1c0 .1-.1 0-.2 0 0 0 0 .1-.1 0h-.1s-.3 0 0-.3h.3v.1h.1s0-.1 0 0v-.1h.1c0-.1 0 0 .1 0 0-.1 0 0 0 0h.1s0-.1 0 0h.1v-.1.1h.1v-.1h.1l.1.1h.4v.1c.2.2.1.3.1.3Zm-3.6 0h-.5c0-.1-.1 0-.1 0V19h-.4c0 .1 0 0 0 0h-.1c0 .1-.1 0-.2 0 0 0-.1.1-.2 0 0 0-.3 0 0-.3h.4v.1s0-.1.1 0v-.1h.1c0-.1 0 0 0 0h.1c0-.1 0 0 0 0s0-.1.1 0l.1-.1v.1h.1v-.1h.1l.1.1h.4v.1c.2.2 0 .3 0 .3Zm-3.5 0h-.5c-.1-.1-.1 0-.2 0V19h-.4c0 .1 0 0 0 0h-.2c0 .1 0 0-.1 0 0 0-.1.1-.2 0 0 0-.3 0-.1-.3h.5l.1.1s0-.1 0 0v-.1h.1c.1-.1.1 0 .1 0s.1 0 0 0c.1-.1.1 0 .1 0s0-.1 0 0h.1v-.1h.1v.1l.1-.1h.1v.1h.4v.1h.1c.2.2 0 .3 0 .3Zm-3.5 0h-.6c0-.1 0 0 0 0s-.1 0 0 0l-.1-.1h-.4c0 .1 0 0 0 0h-.1c0 .1-.1 0-.2 0 0 0 0 .1-.1 0 0 0-.3 0-.2-.3h.4l.1.1s0-.1 0 0v-.1h.1c0-.1 0 0 .1 0 0-.1 0 0 0 0h.1s0-.1 0 0h.1v-.1.1h.1v-.1h.1l.1.1h.4v.1c.2.2.1.3.1.3Zm-3.5 0h-.6c0-.1 0 0-.1 0V19h-.4c0 .1 0 0 0 0h-.1c0 .1-.1 0-.2 0 0 0-.1.1-.2 0 0 0-.3 0 0-.3h.4v.1s0-.1.1 0v-.1h.1c0-.1 0 0 0 0h.1c0-.1 0 0 0 0s.1-.1.1 0l.1-.1v.1h.1v-.1h.1l.1.1h.4v.1c.2.2 0 .3 0 .3Zm-3.5 0h-.6c-.1-.1-.1 0-.2 0V19h-.4c0 .1 0 0 0 0h-.2c0 .1 0 0-.1 0 0 0-.1.1-.2 0 0 0-.3 0-.1-.3h.5l.1.1s0-.1 0 0v-.1h.1c.1-.1.1 0 .2 0 0-.1 0 0 0 0s0-.1 0 0h.1v-.1h.1v.1h.1v-.1h.1v.1h.4v.1h.1c.2.2 0 .3 0 .3Zm-3.6 0h-.6c0-.1 0 0 0 0l-.1-.1h-.4c0 .1 0 0 0 0h-.1c0 .1-.1 0-.2 0 0 0 0 .1-.1 0 0 0-.3 0-.2-.3h.4l.1.1s0-.1 0 0v-.1h.1c0-.1 0 0 .1 0 0-.1 0 0 .1 0 0 0 0-.1 0 0h.1v-.1.1h.1v-.1h.1l.1.1h.4v.1c.2.2.1.3.1.3Zm-3.5 0h-.6c0-.1 0 0-.1 0V19h-.4c0 .1 0 0 0 0h-.1c0 .1-.1 0-.2 0 0 0-.1.1-.2 0 0 0-.3 0 0-.3h.4v.1s0-.1.1 0v-.1h.1c0-.1 0 0 0 0h.1c0-.1 0 0 0 0 .1 0 .1-.1.1 0l.1-.1v.1h.1v-.1h.1l.1.1h.4v.1c.2.2.1.3.1.3Zm-3.6 0h-.5c-.1-.1-.1 0-.2 0V19h-.4c0 .1 0 0 0 0H85c0 .1 0 0-.1 0 0 0-.1.1-.2 0 0 0-.3 0-.1-.3h.4l.1.1s0-.1 0 0v-.1h.1c.1-.1.1 0 .2 0 0-.1 0 0 0 0s0-.1 0 0h.1v-.1h.1v.1h.1v-.1h.1v.1h.4v.1h.1c.2.2 0 .3 0 .3Zm-3.5 0h-.6c0-.1 0 0 0 0L82 19h-.4c0 .1 0 0 0 0h-.1c0 .1-.1 0-.1 0-.1 0-.2.1-.2 0 0 0-.3 0-.1-.3h.5l.1.1s0-.1 0 0v-.1h.1c0-.1.1 0 .1 0 0-.1 0 0 .1 0 0 0 0-.1 0 0h.1v-.1.1h.1v-.1h.1l.1.1h.3c.1 0 0 0 0 0h.1v.1h.1v.3Zm-3.5 0h-.6c0-.1 0 0-.1 0V19h-.4c0 .1 0 0 0 0H78c0 .1-.1 0-.2 0 0 0-.1.1-.2 0 0 0-.3 0 0-.3h.4v.1s0-.1.1 0v-.1h.1c0-.1 0 0 0 0h.1c0-.1 0 0 0 0 .1 0 .1-.1.1 0l.1-.1v.1h.1v-.1h.1l.1.1h.4c.1 0 0 0 0 0h.1v.1c.2.2.1.3.1.3Zm-3.6 0h-.5c-.1-.1-.1 0-.2 0V19h-.3c0 .1 0 0 0 0h-.2c0 .1 0 0-.1 0 0 0-.1.1-.2 0 0 0-.3 0-.1-.3h.4l.1.1s0-.1 0 0v-.1h.1c.1-.1.1 0 .2 0 0-.1 0 0 0 0s0-.1 0 0h.1v-.1h.1v.1h.1v-.1h.1v.1h.4v.1h.1c.2.2 0 .3 0 .3Zm-3.5 0h-.6c0-.1 0 0 0 0l-.1-.1H71c0 .1 0 0 0 0-.1.1-.2 0-.2 0-.1 0-.2.1-.2 0 0 0-.3 0-.1-.3h.5l.1.1s0-.1 0 0v-.1h.1c0-.1.1 0 .1 0 0-.1 0 0 .1 0 0 0 0-.1 0 0h.1v-.1.1h.1v-.1h.1l.1.1h.4v.1h.1c.2.2 0 .3 0 .3Zm-3.5 0H68c0-.1 0 0-.1 0V19h-.4c0 .1 0 0 0 0h-.1c0 .1-.1 0-.2 0 0 0-.1.1-.2 0 0 0-.3 0 0-.3h.5v.1s0-.1.1 0v-.1h.1c0-.1 0 0 .1 0 0-.1 0 0 0 0h.1s0-.1 0 0l.1-.1v.1h.1v-.1h.2v.1h.3c.1 0 0 0 0 0h.1v.1c.2.2.1.3.1.3Zm-3.6 0h-.5c-.1-.1-.1 0-.1 0V19H64c0 .1 0 0 0 0h-.2c0 .1 0 0-.1 0 0 0-.1.1-.2 0 0 0-.3 0-.1-.3h.4v.1s0-.1 0 0v-.1h.1s.1 0 0 0c.1-.1.1 0 .2 0 0-.1 0 0 0 0s0-.1 0 0c.1 0 0 0 0 0h.1v-.1h.1v.1h.1v-.1h.1v.1h.1c.1 0 0 0 0 0h.4v.1c.2.2 0 .3 0 .3ZM63 20.5Zm0-.1v.2c-.1.1 0 .1 0 .2h-.1v.4c.1 0 0 0 0 0v.2c.1 0 0 0 0 .1 0 0 .1.1 0 .2 0 0 0 .3-.3.1v-.5l.1-.1s-.1 0 0 0h-.1v-.1c-.1-.1 0-.1 0-.1s0-.1 0 0h-.1v-.3s.1 0 0 0v-.2h.1v-.4c.1-.1.1-.1 0-.1.3-.2.4 0 .4 0v.2Zm0 3.6Zm0-.1v.4c-.1 0 0 0 0 0s0 .1 0 0l-.1.1v.4c.1 0 0 0 0 0v.1c.1 0 0 .1 0 .2 0 0 .1 0 0 .1 0 0 0 .4-.3.2V25h.1v-.1s-.1 0 0 0h-.1v-.1c-.1 0 0 0 0-.1h-.1v-.2s.1 0 0 0v-.2l.1-.1v-.5c0-.1 0 0 0 0v-.1c.1 0 .1 0 0-.1.3-.1.4 0 .4 0v.4Zm0 3.6Zm0-.1v.3c-.1 0 0 0 0 .1h-.1v.4c.1 0 0 0 0 0v.1c.1 0 0 .1 0 .2 0 0 .1.1 0 .2 0 0 0 .3-.3 0v-.4h.1s-.1 0 0-.1h-.1v-.1c-.1 0 0 0 0 0V28h-.1v-.2s.1 0 0 0v-.2l.1-.1v-.3c0-.1 0 0 0 0v-.1c.1 0 .1 0 0 0 .3-.2.4-.1.4-.1v.4Zm0 3.6Zm0 0v.2c-.1.1 0 .1 0 .2h-.1v.4c.1 0 0 0 0 0v.2c.1 0 0 0 0 .1 0 0 .1.1 0 .2 0 0 0 .3-.3.1V32l.1-.1s-.1 0 0 0h-.1v-.1c-.1-.1 0-.1 0-.2h-.1v-.2s.1 0 0 0v-.2h.1v-.4c.1-.1.1-.1 0-.1.3-.2.4 0 .4 0v.2Zm0 3.6Zm0-.1v.4c-.1 0 0 0 0 0l-.1.1v.4c.1 0 0 0 0 0v.1c.1 0 0 .1 0 .2 0 0 .1 0 0 .1 0 0 0 .3-.3.2v-.4l.1-.1s-.1 0 0 0h-.1v-.1c-.1 0 0 0 0-.1h-.1V35s.1 0 0 0v-.2l.1-.1v-.4c.1 0 .1 0 0-.1.3-.2.4 0 .4 0v.3Zm0 3.6Zm0-.1v.3c-.1 0 0 0 0 .1h-.1v.4c.1 0 0 0 0 0v.1c.1 0 0 .1 0 .2 0 0 .1.1 0 .2 0 0 0 .3-.3 0V39h.1s-.1 0 0-.1h-.1v-.1c-.1 0 0 0 0 0v-.1h-.1v-.2s.1 0 0 0v-.4h.1v-.3c0-.1 0 0 0 0v-.1c.1 0 .1 0 0 0 .3-.2.4-.1.4-.1v.4Zm0 3.6Zm0 0v.2c-.1.1 0 .1 0 .2h-.1v.4c.1 0 0 0 0 0v.2c.1 0 0 0 0 .1 0 0 .1.1 0 .2 0 0 0 .3-.3.1v-.5l.1-.1s-.1 0 0 0h-.1v-.1c-.1-.1 0-.1 0-.2h-.1V42s.1 0 0 0v-.2h.1v-.1c0-.1 0 0 0 0v-.4c.1 0 .1 0 0 0 .3-.2.4 0 .4 0v.2Zm0 3.6Zm0-.2v.4c-.1 0 0 0 0 0l-.1.1v.4c.1 0 0 0 0 0v.1c.1 0 0 .1 0 .1 0 .1.1.2 0 .2 0 0 0 .3-.3.1V46l.1-.1s-.1 0 0 0h-.1v-.1c-.1 0 0 0 0-.1h-.1v-.2s.1 0 0 0v-.3h.1v-.4c.1 0 .1-.1 0-.1.3-.2.4 0 .4 0v.3Z"/></svg>
