<svg xmlns="http://www.w3.org/2000/svg" fill="none" viewBox="0 0 215 94"><path fill="#DBEAD3" d="M47.2 85.6 26.1 59.8a21 21 0 0 0-5.5-5.3c-1.9-1-3.5-.6-4.4-.5L0 55.8l15.3 2a4 4 0 0 1 2 1c1.2 1 3.2 3 4.5 4.4a971 971 0 0 0 22.4 25.5l3-3.1Z"/><path fill="url(#a)" d="M47.2 85.6 26.1 59.8a21 21 0 0 0-5.5-5.3c-1.9-1-3.5-.6-4.4-.5L0 55.8l15.3 2a4 4 0 0 1 2 1c1.2 1 3.2 3 4.5 4.4a971 971 0 0 0 22.4 25.5l3-3.1Z"/><path fill="#B1CBC0" d="M44.9 60v-.2.2Zm-7.1-45.6Zm6 38.6Zm.9 9.3-.5-5.6-.3-3.7-.2-2.2v-.2l-.2-.8V49l-.1-.4-.2-1.7-.4-2.5c-.1-1.3-.4-2-.5-3.4 0 .1 0-.1 0 0l-.2-1.4-.1-.4-.1-.7v.1l-.1-1v.2l-.1-.6-.4-2-1.6-8.8v-.1l-.2-.9V25l-.1-.6-.1-.3-.7-3.4-1-5.8L36 7.7v-.2l-.5-2.1-.8-4.2c-.3-1.5-.3-2.2.6 1.7v-.1l.6 2.7.3 1.2c0 .7.3 1.4.4 2v-.1l.2 1.2.7 3.6.2 1 .3 1.8.2 1v-.4c-.1.1.1.7.2 1.4l.3 2v.1s0-.2 0 0l.3 1.2c.2.8.4 1.4.4 2 .1.7.2.4.3 1.3v.3l.2.6v.2l.6 2.9.1 1s.2 1.1.2.5v-.2l.2 1.8v-.3.6-.1l.3.9v-.2l.1 1.1c0 .2 0-.4 0 0l.4 2.2v.4c.2.8.2.3.3 1v.2l.1 1.2v.2-.1l.1.4v.3-.2l.1.5.3 1.4s.2 1 .1 1.2l.1.2.2 1.3.4 2.8v.3c.2 1 .4 1.9.3 2.3l.1.8v-.1l.2 1.7v1l.1.3c0-.2 0-.2 0 0v.4l.2 1 .1 2.8V57l.1.7V57c0 .8 0 1.6.2 2.5v1l.1 1.5c0-.3 0-.2 0 0v1.2c.1 0 0-.4 0-.4l.2 1.3v1.5-.2 4.7l-.2-1.6-.3-6.3Zm-4.7 14V76v.2ZM18.8 37.7Zm18 32.6Zm3.7 8.1-2.2-5-1.5-3-1-2v-.2l-.3-.6-.4-.8-.2-.3-.7-1.4L33 63l-1.6-2.8c0 .1 0 0 0 0l-.6-1.2-.2-.3-.3-.7v.2l-.4-.9.1.2-.4-.5-1-1.6-4.2-7.5h-.1l-.4-.8-.2-.2c0-.1-.1-.3 0-.1l-.3-.5-.2-.2-1.6-2.9-3-4.8c-1-2-2.5-4-3.6-6v-.2l-1.2-1.7-2-3.5c-.8-1.3-1-1.9 1 1.3V28l1.4 2.2.7 1 1 1.8v-.2l.6 1 1.7 3 .5.8.9 1.5.5.8-.2-.3c0 .2.4.6.7 1.2.3.5.5 1.1.9 1.6l.1.2v-.1l.7 1v.1l1 1.6.6 1 .2.3c.2.3 0 .2.3.5l.1.2 1.4 2.4.5.9s.5 1 .3.4l-.1-.1v-.1l.8 1.5-.1-.2.3.5v-.1l.4.7h-.1l.5.8c.1.2-.2-.3 0 0l1.1 1.9.1.3c.4.7.3.2.6.9v.2c.3.6.3.3.6 1-.2-.3-.1-.1 0 .2l.2.3.2.2-.1-.2.2.5.7 1.1.5 1 .2.2c0 .2.4.8.6 1l1.3 2.4s.2.4 0 .4c.5.8 1 1.5 1 1.9l.4.6.7 1.5.4.8.1.3c0-.2 0-.2 0 0l.1.2c.2.3.2.2 0 .1l.5.9c.5 1 .8 1.6 1 2.4.2.1 0 0 0-.3l.2.6-.2-.6 1 2.2v.2l.2.3.2.4.6 1.3c-.1-.2-.1-.2 0 0l.1.4.3.6-.1-.4.5 1.2c.1.4 0 0 0 .2l.5 1.1-.1-.1.7 1.6c1 2.6 1 3 .8 2.6a26 26 0 0 1-.7-1.4l-2.3-5.5Z"/><path fill="#DDEDDE" d="M47.6 84.7s3.8-14.6 5.9-29.5c2-14.8-1.3-28.6-1.3-28.6S48.6 40 47 53.6c-1.6 13.7-1.2 26.2-1.2 26.2l1.9 5Z"/><path fill="url(#b)" d="M47.6 84.7s3.8-14.6 5.9-29.5c2-14.8-1.3-28.6-1.3-28.6S48.6 40 47 53.6c-1.6 13.7-1.2 26.2-1.2 26.2l1.9 5Z"/><path fill="#CEE4D0" d="M37.5 39c-4-8.3-9-15.9-9-15.9s2.2 16.4 7 31c4.7 14.5 11 32 11 32l4-1.8s-3.3-16.5-8.2-32.5l-1.6-4.7-3.2-8.1Z"/><path fill="url(#c)" d="M37.5 39c-4-8.3-9-15.9-9-15.9s2.2 16.4 7 31c4.7 14.5 11 32 11 32l4-1.8s-3.3-16.5-8.2-32.5l-1.6-4.7-3.2-8.1Z"/><path fill="#B5D9CD" d="M20.3 86.3c3.1-4.9 8.3-3.9 8.3-3.9s-2.7-2.7-.6-7.5c2.3-5.5 8.6-4 8.6-4s-1.3-7.8 5.4-11c6.7-3 11.6 2.8 11.6 2.8s5.5-6.3 16-4.5C80 60 80.1 71 80.1 71s4.2-2.1 8 1.6c4.2 3.9.4 10.2.4 10.2s4.8-1.6 9 1.6c.8.7 1.5 1.5 2 2.3l.7-.3c2.6-1.4 7.1-4.4 14.5-2.7 5 1.1 7.5 4.4 8.6 6.7.7-5.7 4.2-10.4 9.3-11.7a11 11 0 0 1 8 1l2.2 1.3c1.6 1.3 3 3 4 5 2.6-1.6 5.9-2 9-1-.3-2 0-4 1-5.8a9.7 9.7 0 0 1 12.4-4.4 7 7 0 0 1 .5-5.5 7.8 7.8 0 0 1 12.9-1.6 8.6 8.6 0 0 1 8.3-.2 8 8 0 0 1 4.2 5.3c1.2-.1 2.4 0 3.6.2 6 1.3 10 6.9 8.7 12.6a10 10 0 0 1-.9 2.5 7.8 7.8 0 0 1 8.4 5H103.4l-5.4-.3H19.7s-2.6-1.5.6-6.5Z"/><path fill="#8FC9C9" d="m28.8 82.4-.4.5-.1-.5h.5Zm-.6 1.2h.2v-.3l.2.1-.2.2v.2l-.2-.2-.2.2v-.3l.2.1Zm-1.7-.6v.5l-.4-.3.4-.2Zm-.7.4v.3l-.2-.2h.2ZM24 84v.5l-.4-.4h.4Zm1 1.3h.3l-.2.2v-.2Zm.7.8.2.1-.1.1v-.2Zm1.4 1h.2l-.2.1v-.1Z"/><path fill="#8FC9C9" d="M28 87.9h.2l-.2.1Zm-1.7-2.5h.2l-.2.1v-.1Zm-.5-.6h.2l-.2.1v-.1Zm.9-1.4v.4l-.3-.2.1-.1.2-.1Zm-1.2.4h.2v.1h-.5l.2-.3.1.2Zm-2.4.1v.6l-.5-.3.5-.3Zm5-1.1-.1-.1h.2v.2l.2.2-.4.1.2-.4Zm-2.9.5v.6l-.4-.4.4-.2Zm-1.7.4.5.2-.5.3v-.5Zm2.3-.5.1-.2.1.2h.2l-.2.3-.2-.3Zm2 1.1v-.4h.4l-.4.4Zm-.4.9V85h.2l-.2.2ZM23 83.5h.4l-.3.4-.1-.4Zm3.6.6-.1-.2h.2l-.1.2Zm-3.3 0H23l.1-.2.2.2Zm.9-.6h.2v.2l-.2-.2Z"/><path fill="#8FC9C9" d="M26 85.5h-.3l.2-.2v.2Zm.1-1-.2-.1.2-.1v.1Zm.6-2.1h.4l-.2.4-.2-.4Zm1.2.8v.3l-.2-.2h.2Zm.4 1.2-.2.4-.2-.2.4-.2ZM26.9 83l.2-.4v.2l.3-.2.1.3h-.3l.1.1H27Zm.5.9.5-.2v.5l-.5-.3Zm0 1.6h-.2.1ZM27 85h-.2v-.1h.2Zm-1.4 2h-.2.2Zm-1 1h-.2.2Zm4-.5h-.1l.2-.1v.1Zm-3.5-3h-.2.2Zm.9 0h-.2.2Zm-.4-1.4.2-.5h.2v.1l.2.2-.6.2Zm-1.4.7-.1-.3h.2v.3Zm0 1.3H24V85l.3.2Zm.2-1-.3.1.1-.2.2.2Zm3-.2-.1-.3.2.2h-.2Zm-2.8 1-.1-.1h.2l-.1.2Zm.4-.6-.1-.3h.2l-.1.3Zm.3-1h.3v.2l-.3-.2Zm-.3.3.1.3-.3-.1.2-.2Zm-.4.6v.2h-.2l.2-.2Zm-.3.2v.2h-.1v-.2Zm-.3.2v.2h-.2l.2-.2Zm6.2 0H30l.1-.1.1.2Zm-2.3.1v.2h-.2l.2-.2Zm.4-.2.2.1-.2.1v-.2Zm-1.5-.2.2.1-.2.1v-.2Zm2 .2.2.2h-.3v-.2Zm-1.3-.5.3.2-.3.1V84Zm-1.2 0 .3.1-.3.2V84Zm0 1.9.4.1-.3.2V86Zm2 0 .4.2-.4.2V86Zm-.9.4.4.2-.4.1v-.3Zm.6-1.2-.1.4-.2-.3h.3Zm.7-1 .3.2-.4.1v-.3Zm.9 0-.2.3-.2-.4h.4Zm-.2-1.6-.6.6v-.7l.6.1ZM25.5 85h-.2l.2.2Zm0 .6-.2.1.1-.2.2.1Zm.3-1.3h-.3l.1-.2.2.2Zm-.3-.2h-.4l.2-.3.2.3Zm3.8 1H29l.2-.4.2.3Zm-2.2-2v.4l-.4-.2.4-.1Zm-.2.4.2.1-.2.2v-.3Zm-.4-.8.3.2-.4.2v-.4Zm4 1.1.2-.1v.2l-.2-.1Zm-6.3 0H24l.1-.2.2.2Zm-1 0-.5-.1.4-.3.1.4Zm.3.4v.3h-.3l.3-.3Z"/><path fill="#8FC9C9" d="M24.2 84.1 24 84l.2-.1v.2Zm2 0v-.2h.2l-.1.2Zm-1.9-.9v.1h.1v.3l-.4-.3h.3Zm.5.7h-.3v-.2l.3.2Zm3.6 1.3-.2-.2h.2v.2Zm-3.4 1V86h.2l-.2.2Zm-.2-1.5v-.2l.1.1-.1.1Zm.3-.1v-.2h.1l-.1.2Z"/><path fill="#8FC9C9" d="M27.9 85.8h-.1v-.2l.1.2Zm-.9-.3-.4-.1.4-.2v.3Zm-1.5-1-.2.3v-.3h.2Zm-.7 1.2-.2.3-.2-.4h.4Zm1.4.2-.3.2v-.3h.3Zm-1.6-2.7h.2V83h.2l-.1.2h.1l-.3.5-.1-.5Zm5.7-.1v.3l-.4-.2.4-.1Zm-1 .1v-.1l-.1-.1.2-.2v.3-.1l.1.2h-.1v.2l-.2-.1h.1Zm.2.3-.2.2v-.2h.2Zm-.5-.1h.2l-.2.2v-.2Zm1.9 0h-.3v-.2l.3.1Zm-1.1-.1.2.1h-.2v-.1Zm-.9 2.4h-.2l.1-.1h.1ZM26.8 88h-.2l.1-.1Zm-.5.8H26l.1-.1Zm.3-3.1v.1h-.2l.2-.1Zm-.2-.9v.1h-.2l.2-.1Zm.9 1.4H27h.2Zm.8.7H28h.1Zm-.4-2.3h-.2.2Zm-.5-1.5-.1.2V83h.2l.2-.2.1.4-.4-.1Zm-1 .1.2.3-.4.1v.1l-.2-.2h.3v-.3Zm1.3.6v.3l-.2-.2h.2Zm-.7.2v.2l-.2-.1.2-.1Zm-.2.4v.2-.1h-.2v-.2l.2.1Zm3.1 1.2h.2-.4l.2-.2v.2ZM26.1 84h.1v.1h-.3l.1-.2.1.1Zm.7-.2.1-.2.1.2h.2l-.2.4-.2-.4Zm.5 1-.1-.3h.2l-.1.2ZM27 84l.3.2-.4.2-.2-.1.2-.1.1-.2Zm-1.5-.2h.3v.4h-.2V84l-.1-.2Zm-1.1 0 .3.3-.4.1h-.2l.2-.2.1-.2Z"/><path fill="#8FC9C9" d="m27.6 83.4-.4.2.1-.5.3.3Z"/><path fill="#8FC9C9" d="m28 83.6-.6.2v-.4l.6.2Zm-1.4-.5h.4v.1l-.1.1-.2-.2Zm3.5 0-.2.1-.1.1-.2-.6.5.2v.2Zm-.6-.1h.2l-.2.2Zm-.9.4.2-.1v.2l-.2-.1Zm2 0v.3l-.4-.2.4-.1Zm-.2 1.4h.2l-.1.2v-.2Zm-5.3-1.7.4-.3.1.6-.5-.3Zm4.4 1.6v.3l-.2-.2h.2Zm.3-.5v.3l-.2-.2h.2Zm-1-.5.2-.2.1.2h-.2Z"/><path fill="#8FC9C9" d="M29.7 83.6v.4h-.3l.3-.4Zm1.4-.2v.3H31l.2-.3Zm-1.2.2h.4l-.2.3-.2-.3Zm-1 .4.2-.4.1.5-.4-.1Zm-.5-.6-.1-.4h.3l-.1-.2h.4l-.1.2.2.1-.3.1V83l-.3.3Zm-.4 0 .2-.1v.2H28Zm2.4-.1V83l.1.2h-.1Zm0 .7-.1.1Z"/><path fill="#8FC9C9" d="M26.7 85v.2-.2Zm-.3 2-.2.1V87h.2Zm2.8-3.8H29V83l.2.2Zm.5 0v.3l-.3-.2h.3Zm-.8.9h-.5l.3-.6.2.6Zm-.7-1.7h-1l.6.8.4-.8Zm-1.5 0h-.8l.4.6.4-.6Zm-1.4.2-.6.2.6.7v-.9ZM24 83l-.7.4.6.4.1-.8Zm-1.3.7-.5.4.7.3-.2-.7Zm3.2-1.2h-.5l.3.4.2-.4Zm-1.3.3-.6.2.6.3v-.5Zm-3.1 7.5v-.1l.1.1h-.1Zm1.6.3.1-.1.1.1h-.2Zm.1-2 .1-.1.1.1h-.2Zm0 .3v.2-.2Zm-2.8 1v.3l-.1-.2h.1Zm3.5-4.3.1-.4.2.4h-.3Zm-.3 1.4.2-.3.1.3h-.3Zm-4.3 3.4v-.3l.2.3h-.2Zm.4-.7.3.1-.2.2v-.3Zm5.4-3.3.2.5-.5-.2.3-.3ZM19.5 90l-.2-.2h.3v.2Zm-.6-.2.1.2h-.2v-.2Zm.8 1v.1h-.1v-.1Zm5 .2v.2l-.2-.1h.1Zm-2.5-.1.1.1h-.1v-.1ZM19 90h.3v.3L19 90Zm1.4-.3v-.1h.2l-.2.1Zm0 1.2h.3l-.2.2v-.2Zm.4-.3h-.2l.1-.2.1.2Zm.3-1.2.3.3-.3.1v-.4Zm2.5.4-.1.1v-.1h.1Zm-1.8-2.2v.3l-.1-.2h.1Zm-.5 2.3h.2l-.2.2v-.2Zm0-.4.1-.2v.3l-.2-.1Zm0-.6.2-.2v.3h-.1Zm.8-.2v.4l-.4-.4h.4Zm-.3.9h-.2v-.1h.2Zm.4.6v.1l-.1-.1h.1Zm.3-1v.2l-.2-.1h.2Zm.7.3v.2-.2Zm-2 .6v.1H21l.1-.1Zm1.5-1.9h.2-.1v.3l-.2-.2h.1Zm-1 0 .2.1-.3.1v-.2ZM20 90.4h.3l-.2.2v-.2Zm-1-1h.2v.1h-.3Zm-.2 1.5v-.2h.1l-.1.2Zm.2-.7-.2-.1.2-.1v.2Zm.7-.2h.1v.1l-.1-.1Zm3-5 .2.1h-.3l.2-.2Zm-1.2 1.3v.5l-.4-.2.4-.3Zm1.6.6h.2v.1H23Zm.7.9h.2l-.1.1v-.1Zm.2-1.4h.2l-.1.1-.1-.1Zm-.6-.3h.2v.1l-.2-.1Zm-.7-.8h.1v.2l-.3.2v-.4h.2Zm-2.1 1.2.2.5-.6-.1.4-.4Z"/><path fill="#8FC9C9" d="m22.2 85.2.3.4h-.6l.3-.4Zm-1.3 1h.5l-.3.4-.2-.5Zm1.8-1.5h-.1v-.2l.2.1h.2v.3l-.3-.2ZM20.6 86h.3l-.1.3-.2-.3Z"/><path fill="#8FC9C9" d="M21 86.5h-.3l.1-.2.2.2Zm.5-.8.1-.2.2.2h-.3Zm2.1.9h-.2l.1-.1h.1Zm0-1-.3.1.1-.2.2.1Zm0 3h-.1l.1-.1v.1Zm-.3 1H23h.1Zm-.5-3.2h-.2l.1-.2v.2Zm.7-.5h-.2l.1-.1.1.1Zm-1-1.1-.1-.5h.2l.3.1-.4.4Zm-1 1.3-.2-.2.3-.1v.3Zm.7 1.3-.2.2v-.2h.2Zm-.2-1h-.2v-.1h.2Zm.4.6h-.2l.3-.2v.2Zm.1-.8-.2-.2h.2v.2Zm-.2-1 .3-.2v.3l-.3-.1Zm0 .4.2.2H22l.1-.2Z"/><path fill="#8FC9C9" d="m22.1 86.2.2.2H22l.1-.2Zm-.2.4.2.2h-.3l.1-.2Zm-.3.4.1.1h-.2V87Zm1.9-2h.3l-.2.3-.1-.3Zm-.1 1.5-.2.2v-.3l.2.1Zm.2.8-.2.2v-.3l.2.1Zm-.4-1.5-.2.2v-.3h.2Zm-.3-.1-.3.3v-.5l.3.2Zm-1.3.4-.2.1V86h.2Zm-.9.3h-.5l.3-.4.2.4Zm.4.3v.3H21l.2-.3Zm.6-.4h-.2l.1-.2.1.2Zm-.3-.9v.1h.2-.2l.1.2h-.4l.3-.3Zm.7.3-.2.2v-.2h.2Zm1.2 2.3v-.2h.1v.2Zm-.8-1.5v-.2.2Zm.2-.2V86h.1v.2Z"/><path fill="#8FC9C9" d="M23.1 86v.4l-.3-.3h.3Zm-.1 1.3v.3l-.3-.2.3-.1Zm-2 .4-.1-.3.2.2H21Zm.3.9v.2h-.1v-.2Zm-.2-.3-.2.2v-.3l.2.1Zm-.2.7.1-.1v.2Zm-.2-1.7.1.2h-.3l.2-.2Zm.8 0 .1.2h-.3l.2-.3Zm.6.3H22v-.2l.1.2Zm-.8.2.3.1-.3.2v-.3ZM25 87l-.1.4-.2-.3h.3Zm-3.5-1.7.3-.1h-.2l.2-.2v.2h.2v.5l-.5-.4Zm3.9 3.6-.2.1v-.2h.2Zm-.3.9h-.2.2Zm-1.3-3.9v.1Zm-.8-1.2h.4l-.3.4H23l.1-.2v-.2Zm.3.6.1-.1v.1l-.2.2v-.3h.1Zm-.5.1.2-.3.2.4-.1.2-.1-.2-.2-.1Zm-1 .5h.3l-.2.3v.1h-.2l.1-.2v-.2Zm.2-.9.2-.4.3.4H22Z"/><path fill="#8FC9C9" d="M24.3 88.1v.2l-.1-.2h.1ZM22 84.4l-.5.5 1 .3-.5-.8Zm-.8 1-.6.6.8.1-.2-.8Zm-.9 1-.3.6h.7l-.4-.6Z"/><path fill="#8FC9C9" d="m22.3 84-.4.4h.4v-.3Zm-1 1-.3.4h.6l-.3-.4ZM20 88.9l.3.4h-.5l.2-.4Zm-.7.5.4.3-.6.2.2-.5Z"/><path fill="#8FC9C9" d="m20.4 87.6.3.4h-.5l.2-.4Zm-1 1.4.5-.2v.6l-.5-.4Zm-.3 0 .3-.1v.4L19 89Z"/><path fill="#8FC9C9" d="m19.7 89.2-.3.2v-.2h.3Zm.2-.8v-.2l.2.2H20Zm.2.3h-.3l.2-.3v.3Zm.9 1-.2.2v-.2h.2Zm-.5-.9-.1.3-.1-.2h.2Zm.7.6h-.3l.2-.2v.2Zm-.7-1.4.3.2h-.3V88Zm.1.7.2.2h-.2v-.2Zm0 .4.1.1-.2.1v-.2Zm-.2.3h.2l-.2.2v-.2Zm-.3-.7-.2.2v-.2h.2Zm-.7.6-.5.2V89l.5.2Z"/><path fill="#8FC9C9" d="m19.8 89.4.3.2-.3.1v-.3Zm.4-.5H20v-.2l.2.2Zm-.5-.7h.2-.1l.1.2h-.4l.2-.2Zm.8 0-.2.3v-.2h.2Zm-.7-.2.2-.2h-.2l.1-.2.1.1h.1l.2.5-.5-.2Zm.4.5h.4l-.2.3h-.2l.1-.1v-.2Z"/><path fill="#8FC9C9" d="m20 87-.4.6h1l-.7-.6Zm-.7 1.2-.3.8.8-.1-.5-.7Zm-.5 2v.3l.3-.1-.3-.2Zm.7-2.5-.2.5.6-.1-.4-.4Z"/><path fill="#CDE8DD" d="m180.4 66-.4.2V66l.4.2Zm-.8.9h.2v-.2l.2.1h-.2v.1l-.2.2v-.2h-.2v-.2l.2.2Zm-1.5-1v.5l-.4-.4.4-.1Zm-.8.2v.2l-.2-.2h.2Zm-1.9 0-.2.5-.2-.4h.4Zm.7 1.6h.2l-.2.2v-.2Zm.4 1h.2l-.2.1v-.1Zm1.1 1.2.2.1-.2.1v-.2Z"/><path fill="#CDE8DD" d="M178.2 71h.2-.2Zm-.9-3 .2.2h-.2v-.1Zm-.3-.6h.1l-.2.1v-.1Zm1.2-1.2v.3h-.1v.2l-.3-.3h.2l.2-.2Zm-1.2.1h.1v.2l-.1-.1h-.4l.3-.3v.2Zm-2.6-.5v.6l-.5-.4.5-.2Zm5.4.3-.2-.2h.3l-.1.3.2.2h-.5l.3-.3Zm-3-.3-.2.5-.3-.4h.5Zm-1.7-.1.4.3-.6.2.2-.5Zm2.3.1.1-.1v.2l.3.1-.3.2v-.4Zm1.6 1.6.1-.4.4.2-.5.2Zm-.6.8V68h.2l-.2.2Zm-3.5-2.8.4.2-.4.1v-.3Zm3.1 1.5v-.2h.2l-.2.2Zm-3.2-.8-.3-.1.1-.2.2.3Zm1-.3h.3v.2l-.2-.2Z"/><path fill="#CDE8DD" d="M176.9 68h-.2l.2-.1v.2Zm.5-.9h-.2l.2-.2v.2Zm1-1.7h.4l-.2.4-.3-.4Zm1 1-.1.3-.2-.2h.3Zm0 1.3-.2.3-.2-.3h.4Zm-.9-1.7.2-.4.1.2.3-.1v.3l-.3-.1v.2l-.3-.1Zm.3 1 .4-.1-.1.4-.3-.3Zm-.5 1.5h-.2l.1-.1v.1Zm-.3-.7v-.2.2Zm-1.9 1.8-.1-.1h.1Zm-1 .6-.1-.1h.2v.1Zm3.8.7v-.2.2Zm-2.6-3.8-.1-.1h.2Zm.8.2v-.1.1Zm.1-1.5.3-.4h.2v.4h-.5Zm-1.5.3-.1-.3h.3l-.2.3Zm-.3 1.2h-.3l.1-.1.2.1Zm.4-.8h-.3l.1-.2.2.2Zm2.8.5v-.3l.3.2h-.3Zm-2.9.4V67h.2l-.2.3Zm.6-.7v-.2h.1l-.1.2Zm.6-.8h.2l-.1.3-.1-.3Zm-.4.2v.4l-.3-.3h.3Zm-.6.5v.2l-.2-.1.2-.1Zm-.3 0v.3l-.2-.1.2-.1Zm-.4.2v.2l-.2-.1.2-.1Zm6 1.7h-.2l.2-.2v.2ZM179 68v.1h-.2l.2-.1Zm.4-.1.2.1h-.3Zm-1.4-.6.2.1h-.3v-.1Zm1.8.7.2.2h-.2V68Zm-1-.8.2.2h-.4l.1-.2Zm-1.2-.4.3.2-.4.1.1-.3Zm-.5 1.9.3.2-.3.1v-.3Zm2 .6.2.2h-.3v-.2Zm-1 .1.3.3h-.4v-.3Zm.8-1-.1.3-.2-.4h.3Zm1-.8.3.3h-.4v-.3Zm.9.1-.3.3v-.4l.3.1Zm.2-1.3-.7.3.1-.6.6.3Zm-4.4 1.2h-.3l.2-.2.1.2Zm-.1.6h-.3l.2-.2v.2Zm.5-1.2h-.3l.2-.2.1.2Zm-.1-.3h-.5l.3-.3.2.3Zm3.4 2h-.5l.3-.4.2.3Zm-1.7-2.4-.1.3-.3-.3h.4Zm-.3.2.2.2-.2.1v-.3Zm-.2-.9.3.3-.4.1.1-.4Zm3.6 2.2.2-.1v.2l-.2-.1Zm-6-1.7h-.3l.1-.2.2.2Zm-1.2-.3-.4-.2.4-.2v.4Zm.2.5v.3l-.3-.1.3-.2Z"/><path fill="#CDE8DD" d="m175.6 66.3-.2-.2h.3l-.1.2Zm2 .5v-.2h.2l-.2.2Zm-1.6-1.3v.2l-.1.1-.3-.3h.4Zm.2.7h-.2l.1-.2.1.2Zm3.1 2.2v-.2l.1.1v.1Zm-3.4.1v-.1h.1l-.1.1Zm0-1.5.1-.1.2.1h-.2Zm.4 0v-.2l.2.1h-.2Z"/><path fill="#CDE8DD" d="m178.7 68.9-.1-.1h.1Zm-.8-.5-.3-.2.4-.1v.3Zm-1.1-1.3-.4.2v-.4l.4.2Zm-1 .9-.4.2v-.4l.3.2Zm1.2.5-.3.2v-.4l.3.2Zm-.8-3 .3.1-.1-.2h.2l-.1.2h.1l-.4.4v-.5Zm5.5 1.4v.4l-.4-.3h.4Zm-1 0v-.1l.2-.1-.2-.1.2-.1v.4l-.1.2-.2-.3h.2Zm.2.3-.3.1v-.2h.3Zm-.5-.3h.2l-.2.2v-.2Zm1.8.4h-.2v-.1l.2.1Zm-1-.3.2.2h-.3V67Zm-1.5 2h-.2.2Zm-2.7 1.8h-.2l.2-.1v.1Zm-.7.7h-.2l.2-.2v.2Zm1.1-3v.2l-.1-.1h.1Zm0-.8Zm.6 1.6h-.2v-.1h.2Zm.6.8h-.1.1Zm.2-2.3h-.2l.1-.1Zm0-1.6-.2.2V66h.5v.3l-.3-.2Zm-1.1-.1.1.3h-.3l-.2-.1h.2l.2-.2Zm1 .9v.2l-.1-.1.2-.1Zm-.6 0v.2l-.2-.2h.2Zm-.3.3v.2h-.3l.2-.3v.1Zm2.7 2h.1v.1h-.3l.2-.3v.2Zm-3-2.6v.2-.1h-.3l.2-.2v.1Zm.7 0 .1-.2v.3h.3l-.3.3-.1-.4Zm.2 1v-.2h.2l-.2.2Zm0-.7.2.3h-.4l-.1-.1h.2l.1-.2Zm-1.4-.6h.4l-.2.4h-.2v-.4Zm-1-.3.1.3h-.4v.1l-.1-.2h.2l.2-.2Z"/><path fill="#CDE8DD" d="M179 66.5h-.3l.2-.3.2.3Zm.4.3h-.6l.2-.3.4.3Zm-1.2-.8h.2v.2h-.1V66Zm3.3.8-.2.2h-.1v-.5l.4.3Zm-.5-.1v-.2l.2.2h-.2Zm-1 .1h.3v.2l-.2-.2Zm2 .5-.2.3-.2-.2.3-.1Zm-.6 1.4h.2l-.2.1v-.1Zm-4.7-3 .5-.3v.5l-.5-.3Zm3.9 2.6-.1.2-.2-.2h.3Zm.4-.4-.1.2-.1-.2h.2Zm-.8-.8.2-.1v.2h-.2Z"/><path fill="#CDE8DD" d="M181 67.2v.5l-.3-.2.3-.3Zm1.4.3v.3l-.2-.1.2-.2Zm-1.2-.2.4.2-.3.2-.1-.4Zm-1.1.1.4-.3v.5l-.4-.2Zm-.2-.7v-.4l.2.1v-.2h.3l-.1.3.2.1h-.3v-.1l-.3.2Zm-.4 0 .2-.1v.2l-.2-.1Zm2.3.4h.1v.1h-.1Zm-.2.8h-.1Z"/><path fill="#CDE8DD" d="M177.8 68h-.2v-.2l.2.1Zm-.9 1.7h-.1v-.1h.1Zm3.8-3h-.3l.2-.2v.3Zm.4.2v.2l-.2-.2h.2Zm-1 .7-.4-.2.4-.5v.7Zm-.1-1.8-1-.4.3 1 .7-.6Zm-1.6-.5-.8-.1.4.6.4-.5Zm-1.3-.1h-.7l.4.8.3-.8Zm-1.4 0-.8.1.5.6.3-.7Zm-1.6.3-.6.3.7.4v-.7Z"/><path fill="#CDE8DD" d="M177.6 65.2h-.5l.2.3.3-.3Zm-1.3 0h-.6l.4.5.2-.5Zm-4.3 6v-.1l.1.1h-.1Zm1.7 1.3v-.2l.1.2h-.1Zm-.3-2.2.2-.2v.2h-.2Zm.6.5v.2l-.1-.2h.1Zm-3.1.2v.2l-.2-.1.2-.1Zm4-3.4.2-.3.1.4h-.3Zm-.4 1.5.2-.4.1.4h-.3Zm-4.8 2.2V71l.2.3h-.2Zm.5-.6.3.1-.3.2v-.3Zm5.7-2v.5l-.4-.3.4-.1Zm-6 2.1-.1-.1.2-.1v.2Zm-.5-.2v.2h-.1v-.2Zm.6 1v.2-.1Zm5.1 1.3v.2l-.1-.1h.1Zm-2.3-1.2v.2-.2Zm-3.4-.9h.4l-.2.4-.2-.4Zm1.5-.1v-.2l.2.1-.2.1Zm0 1h.3l-.2.2v-.2Zm.4-.3h-.2l.2-.2v.2Zm.3-1.2.3.3-.3.1v-.4Zm2.6 1.4-.1.1v-.2l.1.1Zm-1.7-2.9-.1.2v-.2h.1Zm-.6 2v.2-.2Zm-.1-.4.1-.2v.3l-.1-.1Zm.1-.4.2-.2v.2h-.2Zm.8-.2-.1.4-.3-.4h.4Zm-.4.7-.2.1.1-.2.1.1Zm.4.7Zm.3-1v.1l-.1-.1Zm.2 1v.1h-.1l.1-.1Zm-1.6-.2v.1-.1Zm1.5-1.4v-.1l.1.1-.1.2-.2-.2h.2Zm-.8-.2h.2l-.2.2v-.2Zm-2 2.1h.3l-.1.2-.1-.2Zm-.9-1 .3-.2v.3l-.3-.1Zm-.3 1.4v-.3l.2.1-.2.2Zm.3-.8h-.2l.2-.1v.1Zm.7 0h.1Zm3.7-4.3.2.2h-.3l.1-.2Zm-1.5 1v.5l-.4-.3.4-.1Zm1.4 1h.2l-.1.2-.1-.2Zm1 1h.1v.2l-.2-.2Zm.2-1.3h.2l-.1.2-.1-.2Zm-.7-.4h.2v.1l-.2-.1Zm-.5-.9h.1v.1l-.3.2V67l.2.1Zm-2.3.7.1.5-.5-.2.4-.3Zm1.9-1 .1.5-.5-.2.4-.3Zm-1.5.7h.4l-.3.5-.1-.5Zm2-1v-.2l.2.1h.2l-.1.4-.3-.3Zm-2.4.8h.4l-.2.3-.2-.3Z"/><path fill="#CDE8DD" d="M171.8 67.8h-.3l.1-.2.2.2Zm.7-.6.1-.2.1.3-.2-.1Zm2 1.4h-.2l.2-.1v.1Zm0-1h-.3l.2-.2v.2Zm-.1 3-.2-.1.2-.1v.1Zm-.5 1-.2-.1.2-.1v.1Zm-.4-3.5h-.1l.1-.1v.1Zm.9-.3h-.2.1Zm-.8-1.3V66h.2v.1l.3.1-.5.3Zm-1.1 1-.3-.2h.3v.2Zm.3 1.3-.3.2v-.2h.3Zm0-1-.3.2v-.2h.3Zm.3.9-.2-.2h.2v.2Zm.2-.9-.1-.2h.2v.2Zm.1-1h.3v.2l-.3-.2Zm-.2.4.2.3h-.4l.2-.3Z"/><path fill="#CDE8DD" d="M173 67.8v.2h-.2l.1-.2Zm-.4.3.2.2h-.3l.1-.2Zm-.3.3.2.2h-.3l.1-.2Zm2.3-1.4h.3l-.3.3V67Zm-.5 1.4-.3.2v-.3l.3.1Zm0 .7-.2.2V69l.2.1Zm0-1.4-.3.1.1-.3.2.2Zm-.3-.2-.4.2.1-.4.3.2Zm-1.3 0-.3.2v-.3l.3.2Zm-1 .2-.4-.1.3-.3.2.4Zm.4.3v.4h-.3l.3-.4Zm.6-.2h-.2l.2-.2v.2Zm0-1v.2-.1.3l-.4-.1.3-.2Zm.5.6h-.2v-.2l.2.2Zm.7 2.3v-.2h.1l-.1.2Zm-.5-1.5V68h.2l-.2.2Zm.3-.2h.1l-.1.1Z"/><path fill="#CDE8DD" d="m174 67.9-.2.3-.2-.3h.3Zm-.4 1-.2.4-.2-.4h.4Zm-2 0v-.3l.2.1-.2.1Zm.2.7.2.3h-.2v-.3Zm0-.2-.3.1v-.2h.2Zm-.4.6.2-.2v.3l-.2-.1Zm0-1.6.1.3h-.3l.2-.3Zm.8.1.1.3-.2-.1.1-.2Zm.5.5h-.2v-.2l.2.2Zm-.7-.1.3.2-.4.1V69Zm3.6.4-.2.3-.1-.4h.3Zm-3-2.5h.3l-.2-.2h.2v.2h.1l-.1.4-.3-.4Zm2.8 4.3-.1.1v-.1h.1Zm0 .8h-.2.1Zm-.6-4v.2-.1Zm-.6-1.4.3.2-.3.2v.1h-.2l.1-.2v-.3Zm.1.7h.1l-.2.2V67h.1Zm-.5 0 .3-.2v.4l-.1.1v-.2l-.2-.1Zm-1 .2.2.2-.3.2h-.2l.2-.2v-.2Zm.3-.8.3-.3.3.4h-.6Zm1.9 3.5-.2.2V70h.2Zm2.8 1.5v.2l-.2-.1.2-.1Zm-.5 1v.2h-.1l.1-.2Zm-1.2-2.5h.2l-.1.1-.1-.1Zm1.6 3h.2-.2Zm-1-1.5v-.1Zm2.3.7.2-.1v.1h-.2Zm-.8.2-.1-.1h.1v.1Zm2.2-2.7v.2l-.2-.1.2-.1Zm1.6 1.4v.2h-.2l.2-.2Zm-.8 0v-.1h.1v.1Zm-2.2-.8-.2-.2h.2v.2Z"/><path fill="#CDE8DD" d="M181.5 69.7h-.1.1Zm-1 1h.1-.1Zm1.5-.5v-.1h.1l-.1.1Zm.4 1V71h.1v.1Zm-.7-.7-.1-.1v.1Zm-.6 1.2.1-.1v.2l-.1-.1Zm-.3-1 .1-.2v.2h-.1Zm-.9 1.2v-.1l.1.1Zm-.4-.6V71l.1.2h-.1Zm1.5 1v-.1l.1.1h-.1Zm-8-6.3-.5.3.8.5-.3-.8Zm-1 .7-.7.6.7.2v-.8Zm-1 .9-.4.5.8.1-.4-.6Zm2.6-1.8-.5.2.4.2.1-.4Zm-1.1.6-.5.3.6.2-.1-.5Zm-2 3.5.3.4h-.5l.3-.4Z"/><path fill="#CDE8DD" d="m169.8 70.3.3.4h-.5l.2-.4Zm1.3-1.7.3.4h-.5l.2-.4Zm-1.1 1.3.4-.1v.6l-.4-.5Zm-.4 0 .3-.1v.4l-.3-.2Z"/><path fill="#CDE8DD" d="m170.2 70.2-.3.2V70h.3Zm.3-.9.1-.2.2.2h-.3Zm.1.3h-.2l.2-.2v.2Zm.9 1-.2.2v-.2h.2Zm-.4-.8-.2.2v-.2h.2Zm.6.5h-.3l.2-.2v.2ZM171 69l.3.2h-.3V69Zm0 .7.3.2h-.3v-.2Z"/><path fill="#CDE8DD" d="m171 70 .3.2h-.3V70Zm0 .4.1.1-.2.1v-.2Zm-.4-.7-.1.2-.1-.3h.2Zm-.7.5-.5.2.1-.4.4.2Zm.4.2.2.2-.3.1.1-.3Zm.5-.5h-.2v-.3l.2.3Zm-.5-.8h.4-.2l.2.2h-.5l.2-.2Zm.8.2-.2.2v-.2h.2Z"/><path fill="#CDE8DD" d="m170.4 68.9.3-.2h-.2l.1-.2.1.2.1-.1.1.5-.5-.2Zm.4.5h.4l-.2.4h-.2v-.4Z"/><path fill="#CDE8DD" d="m170.7 68-.4.5 1 .2-.6-.7Zm-.8 1.1-.3.8.8-.1-.5-.7Zm-.7 2-.1.3.4-.1-.3-.2Zm1-2.5-.3.5h.7l-.4-.5ZM48.4 59.4l-.4.3v-.4l.4.1Zm-.6 1h.2v-.3l.2.2-.2.1-.1.2v-.2l-.3.2v-.3l.2.1Zm-1.7-.7v.5l-.4-.3.4-.2Zm-.8.3v.2l-.2-.1.2-.1Z"/><path fill="#CDE8DD" d="m43.2 60.6-.1.4-.3-.4h.4Zm1 1.3h.3l-.2.2v-.2Zm.7 1h.2l-.2.2v-.2Zm1.2 1 .2.2h-.2V64Zm1.3.8h.2l-.1.1v-.1ZM45.6 62h.2l-.2.2V62Zm-.5-.7h.2l-.2.2v-.2Zm1.1-1.3v.4l-.3-.2.1-.1.2-.1Z"/><path fill="#CDE8DD" d="M44.9 60.3h.1v.2h-.4l.2-.4v.2Zm-2.5 0v.5l-.5-.4.5-.2Zm5.4-.7-.2-.1h.2v.2l.2.2-.4.1.2-.4Zm-3.2.3v.5L44 60l.5-.1Zm-1.8.2.4.3-.5.3v-.6Zm2.6-.4v-.1l.2.2h.2l-.3.3-.1-.4Zm1.9 1.4v-.4l.4.1-.4.3Zm-.5.8v-.2h.2l-.2.2Z"/><path fill="#CDE8DD" d="m42.5 59.8.4.1-.3.3v-.4Zm3.7 1-.1-.2h.2l-.1.2Zm-3.4-.3-.3-.1.1-.2.2.3Zm.8-.5h.2v.3l-.2-.3Zm1.6 2.1h-.3l.2-.2v.2Zm.3-1h-.2l.2-.2v.2Zm.8-1.9h.4l-.1.3-.3-.3Zm1.2.8v.3l-.3-.2h.3Zm.2 1.2-.1.4-.2-.3h.3Zm-1.2-1.5.2-.4.1.2.3-.2v.4l-.3-.2.1.3h-.4Zm.5 1 .4-.2-.1.4-.3-.3Zm-.2 1.6h-.2V62l.2.2Zm-.5-.6h-.1v-.2l.1.2Zm-1.7 2.2h-.2l.2-.1v.1Zm-1 .9v-.1h.1Zm4.5-.3-.1-.2h.1v.2Zm-3.8-3.3h-.1l.1-.1v.1Zm1 0H45h.2Zm-.1-1.5.2-.5.1.1h.1v.1l.1.2-.5.1Zm-1.8.7v-.3h.2l-.2.3Zm0 1.3-.3.1v-.2l.3.1Zm.2-.8h-.3l.1-.2.2.2Zm3.2-.2v-.3l.3.2h-.3Zm-3 1-.2-.2h.3l-.2.2Zm.4-.8v-.3l.2.1-.2.2Zm.6-.9h.3l-.2.3-.1-.3Zm-.5.2.1.4-.3-.2.2-.2Zm-.5.7v.2l-.2-.1.2-.1Zm-.3.1v.3l-.2-.2h.2Zm-.4.2v.2H43l.2-.2Zm6.7.4h-.3l.2-.2v.2Zm1-.6h-.3l.2-.2v.2Zm.2-.2h-.3l.2-.2v.2Zm-3.7.8v.2l-.1-.1h.1Zm.5-.2.2.1-.2.1v-.2Zm-1.6-.2.2.1H46v-.1Zm2.1.3.2.1h-.2v-.1Zm-1.3-.6.3.2h-.4V61Zm-1.3-.2.4.2-.4.1v-.3Zm-.2 2 .3.2-.3.2v-.4Zm2.4.2.3.2h-.4V63Zm-1.2.3.3.2h-.3v-.2Zm.7-1.2-.2.3-.1-.3h.3Zm.8-1 .4.2-.4.1V61Zm1 0-.3.3-.1-.4h.3Zm-.2-1.4-.6.5v-.7l.6.2Zm-4.3 2.1h-.3l.2-.2.1.2Zm0 .7h-.3l.2-.2.1.2Zm.4-1.3h-.3l.2-.2v.2Zm-.3-.4-.4.1.2-.4.2.3Zm4 1.3h-.4l.3-.4.2.4Zm2.5-1.2-.2.2v-.4l.2.2Zm-4.7-.7v.3l-.3-.3h.3Zm-.2.3h.2l-.2.3v-.3Zm-.3-1 .3.3-.4.2.1-.5Zm4 1.4.2-.1v.2H50Zm-6.7-.4h-.2v-.2l.2.2Zm-.9-.2-.4-.2.4-.2v.4Z"/><path fill="#CDE8DD" d="M42.8 60.7v.3l-.4-.1.4-.2Zm.6 0-.2-.2h.2v.2Zm2.3 0v-.2h.2l-.2.3Zm-2-1v.2l-.1.2-.3-.3h.3Zm.4.8h-.3v-.2l.3.2Zm3.8 1.5-.1-.2h.2v.2Zm-3.8.8v-.2l.2.1-.2.1Zm-.2-1.5v-.2l.2.1-.2.1Zm.4-.2V61h.2l-.2.1Zm3 1.4H47h.1Zm-1-.2-.4-.2.4-.1v.3Zm-1.5-1.1-.3.2V61l.3.2Zm-1 1.1-.2.3v-.4l.3.1Zm1.5.3-.3.2v-.4l.3.2Zm-1.4-3 .3.1-.2-.2h.3l-.1.2h.1l-.3.5-.1-.5Zm6 .4v.3l-.4-.2.4-.1Zm-1 0-.1-.2.2-.1v.2l.1.2H49v.2l-.3-.2h.2Zm.2.4-.2.2v-.2h.2Zm-.6-.2h.3l-.2.2v-.2Zm2 0-.3.1v-.2l.2.2Zm-1.1 0h.2l-.3.1v-.2Zm-1 2.3h-.1v-.1l.1.1Zm2.3-.2v.2-.2Zm.6.9h-.1v-.1h.1Zm0-1.2h-.2l.1-.2.2.2Zm.7-.6h-.3l.1-.2.2.2Zm-6.3 3.5h-.2.1Zm-.6.9H45v-.1h.1Zm.7-3.3v.2l-.2-.1h.2Zm-.1-.9v.1h-.1.1Zm.9 1.4h-.2.2Zm1 .8h-.1.1Zm4.3-1.3v.2l-.2-.1h.2Zm-1.5 1.6h-.1.1Zm-3.3-2.7H47h.1Zm-.3-1.5-.1.2v-.3h.2l.2-.1.1.4-.4-.2Zm-1.1 0 .2.4h-.4v.1l-.1-.2h.2l.1-.2Zm1.3.8v.2l-.2-.1.2-.1Zm-.8 0v.3H46l.2-.1Zm-.2.5v.2h-.3l.2-.3v.1Zm3.3 1.3v.1H49l.2-.2v.1Zm2.3-1.4h-.3l.2-.2v.2Z"/><path fill="#CDE8DD" d="M45.6 60.7v.1h-.3l.2-.3v.2Zm.7-.2.1-.1.1.2h.2l-.3.3v-.4Zm.4 1v-.3h.2l-.2.2Zm0-.7.1.3h-.4v.1l-.1-.2h.2l.1-.2Zm-1.7-.4h.4l-.1.4h-.2v-.4Zm-1.3 0 .3.3h-.4v.1l-.2-.2h.2l.1-.2Zm3.5-.2h-.4l.1-.3.3.3Z"/><path fill="#CDE8DD" d="m47.5 60.3-.5.3V60l.5.2Zm-1.3-.5h.3v.1l-.2.2v-.3Zm3.5.1-.2.2h-.1l-.2-.4.5.2Z"/><path fill="#CDE8DD" d="M49.1 60v-.3l.2.1-.2.1Zm-.9.2h.2v.2l-.2-.2Zm2 .1v.3l-.4-.2h.3Zm-.2 1.5h.1v.1l-.1-.1Zm1.9-.2h.2l-.2.2v-.2Zm-1.4-.5h.2l-.1.2v-.2Zm-6-1.5.4-.2v.5l-.4-.3Zm4.6 2v.2l-.2-.2h.2Zm.3-.5v.2l-.2-.1.2-.1Zm2 .3v.2l-.2-.2h.2Zm-3-.9.2-.2v.3h-.1Zm.8 0 .1.3H49l.2-.4Z"/><path fill="#CDE8DD" d="m50.6 60.4.1.2h-.2l.1-.2Zm-1.2 0 .4.1-.1.3-.3-.3Zm-1 .4.3-.4.1.5h-.4Zm-.4-.6-.1-.4h.3l-.1-.1h.4l-.1.2h.2l-.3.2v-.2l-.3.3Zm-.4 0 .2-.1v.3l-.2-.1Zm2.4 0V60l.1.1H50Zm0 .7-.2.2v-.2h.1Zm1 0-.1.2-.1-.2h.1Z"/><path fill="#CDE8DD" d="m46 61.8-.1.2v-.2h.2Zm-.6 2-.2.1v-.2h.2Zm3.4-3.7h-.2v-.2l.2.2Zm.5 0v.2l-.3-.1.3-.1Zm-.8.8H48l.3-.6.2.6Zm-.5-1.6-1.2-.2.6 1 .6-.8Zm-1.6-.2h-.9l.4.5.5-.5Zm-1.6 0-.7.1.6.8v-.9Zm-1.4.4-.9.2.7.6.2-.8Zm-1.3.4-.6.3.7.4-.1-.7Z"/><path fill="#CDE8DD" d="m45.5 59-.6.1.3.3.3-.3Zm-1.6.3-.6.2.5.4.1-.6ZM40.1 66l.1-.2.1.2h-.2Zm2.5 1.4v-.2l.1.2h-.1Zm-1-2.4.1-.2.1.2h-.2Zm1 .6v.2l-.1-.2h.1Zm-3.8.2v.3l-.2-.2h.2Zm4.1-3.6.2-.4.2.4h-.4Zm0 1.5v-.4l.3.4h-.4Zm-5.4 2.5.2-.3.1.3h-.3Zm.6-.7.3.1-.3.2v-.3Zm6-2.3.2.5-.4-.3.3-.2ZM38 65.6l-.2-.1h.2v.1Zm-.7-.2.1.2h-.2l.1-.2Zm.7 1v.3l-.3-.2.3-.2Zm6.2 1.2v.2-.1ZM41 66.5v.1-.1Zm-3.7-.9h.4l-.2.4-.2-.4Zm1.5 0v-.3l.2.1-.2.1Zm0 1h.3l-.2.1v-.2Zm.5-.3H39V66l.2.3Zm.3-1.2.3.2-.3.2V65Zm3.4 1.3-.1.1v-.2l.1.1Zm-2.4-3-.1.1v-.2h.1Zm-.6 2h.1v.2l-.1-.2Zm-.1-.4.2-.2v.3h-.2Zm.1-.5.2-.1v.2H40Zm.8-.2v.5l-.4-.4h.4Zm-.3.8-.2.1V65l.2.1Zm.4.7v.1l-.1-.2h.1Zm.3-1v.1l-.2-.1h.2Zm.2 1v.1h-.1l.1-.1Zm-1.8 0Zm1.6-1.7h.2l-.1.3-.2-.3h.1Zm-.8-.2.2.1-.2.1V64Zm-2.1 2.3h.2l-.1.3-.1-.3Zm-1-1 .3-.2v.2h-.3Zm-.4 1.5v-.4l.3.1-.3.3Zm.3-.8-.1-.1.1-.1v.2Zm.8-.1h.1l-.1.1v-.1Zm3.9-4.6v.2h-.2l.2-.2Zm-1.6 1.1v.5l-.4-.3.4-.2Zm1.5 1h.3l-.1.2-.2-.2Zm1.3 1h.2l-.1.2-.1-.1Zm0-1.4h.2l-.1.2-.1-.2Zm-.8-.4h.2v.1l-.2-.1Zm-.6-1h.2v.2h-.1l-.3.2v-.5l.2.2Zm-2.4.9.2.5-.6-.2.4-.3Zm2-1.1.1.5-.5-.2.4-.3Zm-1.6.7.5.1-.3.5-.2-.6Zm2.1-1.1v-.2l.2.2h.2v.3l-.4-.3Zm-2.4 1h.4l-.2.3-.2-.3Z"/><path fill="#CDE8DD" d="M39.8 62.4h-.3l.1-.2.2.2Zm.6-.7.2-.1.1.2h-.3Zm2.4 1.5-.3.1.1-.2.2.1Zm-.2-1.1h-.3l.1-.2.2.2Zm.4 3.2h-.2l.1-.2v.2Zm-.3 1h-.2.1Zm-1-3.6h-.3l.2-.2v.2Zm.8-.4h-.2l.1-.1v.1Zm-.8-1.3v-.5h.2l.2.2-.4.3Zm-1.2 1-.3-.1.3-.1v.3Zm.4 1.5-.3.1v-.2h.3Zm-.1-1h-.2v-.1h.2Zm.3.8L41 63h.2v.2Zm.3-1-.2-.1h.3l-.1.2Zm0-1 .3-.1v.3l-.3-.2Zm-.2.4.2.3H41l.2-.3Z"/><path fill="#CDE8DD" d="m41 62.4.1.2H41v-.2Zm-.3.3.1.2h-.2v-.2Zm-.3.3.1.2h-.2V63Zm2-1.4h.5l-.3.3-.1-.3Zm-.2 1.3-.3.2v-.3l.3.1Zm.1.9-.2.1v-.3l.2.2Zm-.1-1.7-.3.2V62l.3.1Zm-.3-.1-.4.3v-.5l.4.2Zm-1.4.1-.3.2V62l.3.1Zm-1 .2H39l.3-.4.2.4Zm.4.4v.3h-.2l.2-.3Zm.6-.3h-.2l.2-.3v.3Zm-.1-1v.1h.2-.2v.3l-.3-.2.3-.2Zm.7.5-.3.1v-.2h.3Zm.8 2.4v-.1h.1l-.1.1Zm-.6-1.6v-.1h.1v.1Zm.3-.1v-.2h.1l-.1.2Z"/><path fill="#CDE8DD" d="m42 62.4-.1.3-.2-.3h.3Zm-.3 1.1-.2.4-.1-.4h.3Zm-2 0v-.3l.2.2-.2.1Zm.2.8.2.3h-.2v-.3Zm-.1-.1-.2.1v-.2h.2Zm-.4.6.2-.2v.3l-.2-.1Zm-.1-1.9.2.4H39l.3-.4Zm1 .2v.3l-.2-.1.2-.2Zm.5.5h-.2v-.1l.2.1Zm-.8 0 .4.1-.4.2v-.4Zm4 .1-.1.4-.2-.4h.3Zm-3.4-2.4h.3l-.2-.2h.2v.2h.1v.5l-.4-.5Zm3.6 4.4-.2.1v-.2l.2.1Zm0 .8H44h.2Zm-1.3-4 .1.1h-.2l.1-.1Zm-.7-1.5.4.2-.4.2H42l.2-.2V61Zm.2.6h.1v.2-.1l-.3.2v-.4l.2.1Zm-.6 0 .3-.1v.4h.2l-.2.1v-.2l-.3-.1Zm-1 .3.3.2-.3.2v.1h-.3l.2-.2v-.3Zm.3-.8.3-.4.3.5H41Z"/><path fill="#CDE8DD" d="m43.5 64.7-.1.2v-.2ZM41 60.5l-.6.3.9.5-.3-.8Zm-1.1.8-.7.6.8.2-.1-.8Zm-1 1-.5.5h.8l-.4-.5Zm2.7-2.1-.5.3.4.1v-.4Zm-1.2.7-.4.4.6.1-.2-.5Zm-2 3.8.3.4h-.5l.3-.4Zm-.7.4.3.5h-.6l.3-.5Z"/><path fill="#CDE8DD" d="m39 63.3.4.4h-.5l.1-.4Zm-1 1.4.5-.1-.2.5-.3-.4Zm-.4 0 .3-.2v.4l-.3-.2Z"/><path fill="#CDE8DD" d="m38.2 65-.3.2v-.3h.3Zm.2-1 .2-.1.1.2h-.3Zm.2.4-.3-.1.2-.2v.3Zm.8 1-.1.3-.1-.2h.2Zm-.4-.8-.2.2v-.2h.2Zm.7.6-.2-.1.2-.2v.3Zm-.6-1.5.3.2h-.3v-.2Zm0 .8.3.1-.3.1v-.2Zm-.1.3.2.2H39v-.2Zm-.2.4.3.2h-.3v-.2Zm-.2-.8-.2.2v-.2h.2Zm-.8.6-.5.1.2-.4.3.3Z"/><path fill="#CDE8DD" d="m38.2 65.1.2.3-.3.1.1-.4Zm.5-.5h-.2v-.2l.2.2Zm-.4-.8h.2l-.1.1.1.2h-.4l.2-.3Zm.8.2-.2.2-.1-.2h.3Z"/><path fill="#CDE8DD" d="m38.4 63.6.3-.2h-.3l.2-.2v.2l.2-.1v.5l-.4-.2Zm.4.6h.3l-.2.3v.1h-.2l.1-.2v-.2Z"/><path fill="#CDE8DD" d="m38.6 62.7-.4.5 1 .2-.6-.7Zm-.7 1.2-.4.8.8-.1-.4-.7Zm-.9 2v.3h.3l-.3-.3Zm2.7 2v-.2l.1.1-.1.1Zm-1.4.3v.3l-.2-.1.2-.2Zm3-.7v.3l-.2-.1.1-.2ZM37.1 69v-.3l.2.2h-.2Zm.4-.8h.3l-.2.2-.1-.2Zm-.3.2-.2-.1.2-.2v.3Zm-.7-.1.2.2h-.2v-.2Zm1 .9.1.1h-.1v-.1Zm-.8-.7h.3v.3l-.3-.3Zm1.5-.7v-.2h.1l-.1.2Zm.3 1h.2v.2l-.2-.2Zm1.7-1.9h.2v.2l-.2-.2Zm-1.4 1.5h-.2v-.2l.2.2Zm0-1.2.4.1-.3.2-.1-.3Zm.5.2h.1v.2l-.1-.2ZM39 67l.1-.2.1.2H39Zm0-.5.1-.2.1.3H39Zm.7-.4v.5l-.4-.3.4-.2Zm0 .8-.2.2v-.2h.1Zm-.7.9v.1-.1Zm-1.1 1h.2v.2l-.2-.2Z"/><path fill="#CDE8DD" d="M38.5 69.6h.2v.2l-.2-.2ZM36.7 68l.3-.2v.3h-.3Zm0 1.7v-.3h.2l-.1.3Zm0-.8v-.2.2Zm.8-.3h.2-.1Zm1.4-2.2.2.2H39v-.2Zm-.2 0-.1.2-.1-.3h.2Zm-.1.6.1-.2.1.3h-.2Z"/><path fill="#CDE8DD" d="m37.8 67.2.3.3h-.5l.2-.3Zm-.8.7.5.3-.6.3.1-.6Z"/><path fill="#CDE8DD" d="m37.2 67.3.4-.2v.6l-.4-.4Zm-.4.2.3-.3v.4l-.3-.1Z"/><path fill="#CDE8DD" d="m37.5 67.5-.2.3-.1-.3h.3Zm.1-.7h-.4l.2-.4.2.4Zm1.2.7v.3l-.2-.1.2-.2Zm-.6-.6v.3L38 67h.2Zm.8.3h-.3l.2-.2.1.2Zm-.7-.4h.2l-.2.2v-.2Zm0 .3h.2l-.2.2v-.2Zm-.1.4h.3l-.3.2v-.2Zm-.4-.6-.1.2-.2-.2h.3Zm-.7.8-.5.3v-.5l.5.2Z"/><path fill="#CDE8DD" d="m37.7 67.7.2.2-.2.1v-.3Zm.3-.7-.3.1V67l.3.1Zm.2-1-.1.3-.2-.2h.3Zm-.3.4h.4l-.1.3-.2.1v-.4Zm-1 .2-.2.7.6-.2-.5-.5Zm-.3 2.2v.4l.4-.2-.4-.2Zm1.6-5.5-.3.5.6-.1-.3-.4Zm107.3 20.6h-.5l.2-.3.3.3Zm-1.1.4h.1l.1-.1.2.2h-.3l-.2.1v-.2h-.2l.2-.2v.2Zm-6-4.9-.1.5-.3-.4h.4Zm-1 0v.3l-.1-.2h.2Zm-2 0-.3.4v-.5l.3.1Zm.6 1.5.2.1-.3.1V81Zm.2 1.1.2.2h-.2V82Zm.9 1.5.1.2h-.2v-.2Zm1 1 .2.2h-.2v-.1Z"/><path fill="#CDE8DD" d="m137.1 81.5.1.2h-.1v-.2Zm-.2-.8.1.2h-.2v-.2Zm1.5-1v.3l-.1.2-.3-.3h.3l.1-.1Zm-1.3 0h.1l-.1.2v-.1h-.4l.4-.3v.2Zm-2.3-.9-.3.5-.3-.5h.6Zm10 4.9v-.2h.2l-.1.2v.3l-.4-.2.4-.1ZM137 79l-.3.5-.2-.5h.5Zm-1.8-.3.3.4-.6.2.3-.6Z"/><path fill="#CDE8DD" d="m137.6 79.3.2-.2v.2l.2.2-.4.2v-.4Zm6 5.2.2-.3.3.3h-.5Zm-5-2.8v-.2l.2.1-.3.1Zm-3.5-3.2.3.2-.5.1.2-.3Zm3 2v-.2h.1l-.2.2Zm-3-1.4-.3-.1.2-.2v.3Zm.9-.1h.2l-.1.2-.1-.2Zm.7 2.5-.2-.2h.2v.2Z"/><path fill="#CDE8DD" d="m137.4 80.6-.3-.2h.3v.2Zm1.4-1.7.7.2-.6.3v-.5Zm5.6 5h-.2v-.2l.2.1Zm-.6 1-.3.2v-.4l.3.2Zm0-2 .4-.1v.2h.3l-.2.3-.1-.3v.2l-.4-.2Zm-.2 1 .4.2-.3.3-.1-.5Zm-5.4-1.8h-.2l.1-.2v.2Zm-.3-.7h-.1l.1-.2v.2Zm-2.4 1.6-.1-.2h.1v.2Zm-1.2.5-.1-.2h.2l-.1.2Zm4.9 1-.1-.1h.1v.1Zm-3-4.2h.1Zm.9.4-.1-.1h.2l-.1.1Zm.4-1.5.3-.4.2.1v.4l-.5-.1Zm-1.8 0V79h.3l-.3.3Zm-.6 1.4h-.2l.1-.2.1.2Zm.6-.9h-.3l.2-.2.1.2Zm3.2.8v-.2l.2.2h-.2Zm-3.4 0v-.2l.2.1-.2.2Zm.8-.5v-.3l.2.2h-.2Zm.8-.7h.2l-.2.3v-.3Zm-.5 0v.4l-.3-.2.3-.1Zm-.7.5v.3l-.2-.2h.2Zm-.4.1v.3l-.2-.2h.2Zm-.4 0v.3l-.2-.2h.2Zm10 6.6-.2-.2h.3v.2Zm-6-5v.2l-.1-.1h.1Zm4.7 3.6v.2h-.2l.2-.2Zm-5.9-4.2.2.2h-.3l.1-.2Zm6.2 4.5v.3l-.2-.1.2-.2Zm-5.1-4.6.2.2h-.4l.2-.2Zm-1.3-.5.2.3h-.4l.2-.3Z"/><path fill="#CDE8DD" d="m136.8 82.2.3.2h-.4l.1-.2Zm6 4 .2.4-.4-.1.3-.3Zm-5-3.3.3.3h-.4l.2-.3Zm2.1-1.1-.2.3v-.4h.2Zm4.4 3.2.2.4-.4-.1.2-.3Zm.8.6-.4.1.1-.4.3.3Zm.7-1.2h-.7l.4-.5.3.5Zm-9.3-3.5h-.3l.2-.2v.2Zm-.3.7h-.3l.2-.3.1.3Zm.8-1.2h-.3l.3-.3v.3Zm0-.3-.5-.1.3-.3.1.4Zm7.2 6-.4-.1.5-.2-.1.4Zm-5.1-6.3-.2.3-.2-.3h.4Zm-.5.3.2.2-.3.1v-.3Zm-.1-1 .2.4h-.4l.2-.3Zm7.4 7h.2v.2l-.2-.3Zm-10.2-6.8-.3-.1.2-.2.1.3Zm-.8-.4-.3-.5h.4l-.1.5Zm0 .5-.1.3-.2-.3h.3Zm.7.1-.1-.2h.2l-.1.2Zm2 .8v-.2h.3l-.3.2Zm-1.5-1.6v.3-.1l-.1.1-.2-.3h.3Zm.2.8h-.3l.2-.2v.2Zm7.2 6v-.1l.1.1h-.1Zm-8-3.7v-.1l.1.1h-.2Zm.4-1.5v-.2l.2.2h-.2Zm.4 0V80l.2.1h-.2Zm2.5 2.1Zm-1.1-.4-.3-.3h.4l-.1.3Zm-1-1.6-.3.2v-.4l.3.2Zm-1.3.9-.4.2V81l.4.2Zm1.3.6-.3.2v-.4l.3.2Zm-.3-3.2.2.2v-.3l.2.2-.1.1-.4.4v-.6Zm9.9 6.5-.3.3-.1-.4.4.1Zm-.8-.5h.1v-.2h.2l-.2.2h.2l-.2.2v-.1l-.2.2-.1-.3h.2Zm0 .4h-.4l.1-.2.2.2Zm-.4-.5.2.2h-.3v-.2Zm1.4 1.2h-.2l.2-.2v.2Zm-.7-.7v.2h-.2l.2-.2Zm-2.3 1.2h-.1l.2-.1v.1Zm-7.2-2h-.2l.2-.1v.1Zm-1 .6h-.2l.2-.1v.1Zm1.8-2.9v.2l-.1-.2h.1Zm.3-.9v.2l-.2-.2h.2Zm.3 1.7h-.1v-.2l.1.2Zm1.2 1h-.2l.1-.1Zm0-2.5Zm5 2h-.2l.1-.2.2.2h.3l-.2.3-.1-.3Zm-6-3.7v.3h-.4v-.2h.2l.1-.1Zm1.1 1v.2l-.2-.2h.2Zm-.9 0v.2l-.2-.3h.2Zm-.4.3h.1v.1h-.1l-.3-.1.3-.2v.2Z"/><path fill="#CDE8DD" d="m144.2 86.9-.3-.1h.3Zm-6.7-6.7h.1v.1h-.3l.2-.3v.2Zm1 0h-.1.2v.2l.2.1-.4.2v-.4Zm0 1V81h.3l-.2.3Zm.2-.6.1.3h-.4l-.1-.2h.2l.2-.1Zm-1.6-.8h.4l-.3.4h-.2l.2-.2-.1-.2Zm-1-.5v.4h-.4v-.2h.1l.2-.2Zm8 4.4-.4-.2.4-.2v.4Z"/><path fill="#CDE8DD" d="m144.2 84-.5-.1.3-.3.2.5Zm-5.7-4.5.2.1v.1l-.2.1v-.3Zm7.6 5.6h-.4l.3-.5.2.5Z"/><path fill="#CDE8DD" d="m145.7 84.8.1-.2.1.2h-.2Zm-.9-.4h.3l-.2.2v-.2Zm1.5 1.3-.2.2-.2-.3h.4Zm-1 1v.1h-.1v-.1Zm-8.3-7.8.4-.1v.5l-.4-.4Zm7.6 7.1-.2.2v-.3l.2.1Zm.6-.2-.2.2v-.2h.2Zm-.4-1h.3l-.1.2-.2-.2Z"/><path fill="#CDE8DD" d="m145.5 85.2-.2.4-.2-.3h.4Zm1.1.8v.3l-.2-.2h.2Zm-1-.6.3.3h-.3v-.3Zm-1-.4.5-.1-.3.4-.2-.3Zm0-.7.2-.4.3.2V84l.3.2-.2.2v.2l-.2-.1v-.2h-.3Zm-.3-.2h.3l-.2.2V84Zm2 1.4h.1v.1l-.2-.1Zm-.6.5h-.1.1Z"/><path fill="#CDE8DD" d="M137.6 81.5h-.2l.1-.2.1.2Zm-1.2 1.6h-.2l.1-.1.1.1Zm9 1.6-.2-.2h.2v.2Zm.3.3-.2.1V85h.2Zm-1.1.2-.4-.4.6-.3-.2.7Zm.7-1.6-.7-.9-.3 1 1-.1Zm-6.5-4.7-.8-.3.3.7.5-.4Zm-1.4-.4-.7-.1.3 1 .4-.9Z"/><path fill="#CDE8DD" d="M136 78.4h-1l.5.7.5-.7Zm-1.4 0h-.6l.4.7.2-.7Zm3.3.3-.5-.2.2.4.3-.2Zm2.4 1.5-.2.4-.2-.5h.4Z"/><path fill="#CDE8DD" d="m139.4 80-.1.3-.1-.3h.2Zm.9.5-.1.3-.2.2-.1-.4h.4Zm-.7-.6.2-.1v.4h-.3V80Zm.2 1.3V81h.2l-.2.2Z"/><path fill="#CDE8DD" d="m140.8 79.7.5.3-.6.4.1-.7Zm-1.4 0 .4-.2.2.1h-.1v.3l-.5-.1Zm1.2 1.7V81l.2.3h-.2Zm0 .2.2.3h-.3l.1-.3Zm-1.2-.7.2.3h-.4l.2-.3Zm1.3-.2-.2.3-.2-.4.4.1Zm-.4.2.2.2h-.3l.1-.2Zm.1-1 .2.4h-.5l.3-.4Z"/><path fill="#CDE8DD" d="M139.4 81v-.3l.2.1-.2.1Zm.3-.8v.4l-.3-.1-.1-.2h.4Zm1 1.2v.2l-.2-.2h.2Zm-.9-.2v.2l-.2-.2h.2Zm-.4.3v.1l-.3-.1.3-.2v.2Zm0-.7-.1.1-.3-.2h.3Zm.8.2.1-.1v.2l.2.2-.4.1V81Zm.1.3.1.4h-.4v-.3h.2Zm-1.3-1 .3.1-.3.3h-.2l.2-.2v-.2Zm1.4 0 .1.1h.1v.1h-.2v-.2Zm-1.4-.9h.5l-.2.5-.3-.5Zm1.8.3-.8-.4.2.7.6-.3Zm-.8-.4-.5-.2v.5l.5-.3Zm-3.5-.9h-.6l.4.5.2-.5Zm-6.3 5 .2-.2v.2h-.2Zm2.1 2h.2v.1h-.2Zm0-2.5.2-.1v.2l-.2-.1Zm.7 1h-.1v-.1h.1Zm-4-1.3v.2l-.1-.2h.2Zm5.6-1.8.3-.3v.4l-.3-.1Zm-.7 1.4.3-.4v.5l-.3-.1Zm-6.3.2.2-.1v.3l-.2-.2Zm1-.4.2.2h-.3V82Zm6.7.2v.4l-.3-.4h.3Zm8.4.5-.4.3v-.5l.4.2Zm-.9-.4-.1.1v-.2h.1Zm-1.7-1.1-.5.2.2-.5.3.3Zm-.3 1.6.1.2h-.2l.1-.2Z"/><path fill="#CDE8DD" d="M140.5 83.9v.2l-.1-.1v-.1Zm0 1.7v.2l-.1-.1.1-.1Zm.4 1.4v.2h-.1V87Zm.6-3.1v.2h-.1l.1-.2Zm.2-.8v.2h-.1l.1-.2Zm1.8 0h-.1l-.2.2V83h.2Zm-1-.8-.2.1-.2-.3h.4v.2Zm0-.6-.4.3v-.5l.5.2Zm-1.4-1.1.1.5-.5-.2.4-.3Zm2 1.6V82h.2l-.1.2v.2h-.3l.2-.3Zm-.4 2.5v-.1l.2.2h-.2Zm-1.5-4.5.2.4-.4-.2.2-.2Zm1.6 3.2.1-.2.2.2h-.3Zm-1-2.3.2.1-.2.2V81Zm-.6 2.5-.1-.2h.2l-.1.2Zm1-.4-.1-.3.2.1-.1.2Z"/><path fill="#CDE8DD" d="m144.2 82.4.3.3-.4.2v-.5Zm-2 2.5-.1-.1h.1Zm0-.8.2-.1-.1.1Zm-2.8.2v-.2l.1.1-.1.1Zm2.4 3.2v-.2l.2.1h-.2Zm-.4-5v-.3.2Zm.5.6V83h.1l-.1.1Zm1-1.1.6-.1v.2l-.1.2-.4-.3Zm-1.5-.8.1-.3.2.3h-.3Zm-.2.4-.2-.2h.2v.2Zm2.3 2.3.2-.2v.3l-.2-.1Zm-2.9-1.6.1-.3.2.2h-.3Zm1-.2V82l.2.2h-.2Zm1-.2.2.2h-.3V82Zm-.4-.1-.3.3v-.4h.3Zm-1 0v.2l-.1-.3h.2Zm-.3-.1-.2.2v-.3h.2Zm2.4 3.2-.2.1v-.2l.2.1Zm-.7-1.2v.2h-.2l.2-.2Zm.9.4v.4l-.2-.2.2-.2Zm-.9-1v.3l-.3-.2.3-.1Zm-1.6 1.2v.4l-.3-.2.3-.2Zm.5 1.2v.3l-.3-.2.3-.1Zm1.5-.3-.3.2V85l.3.2Zm-1.8-2.2-.2-.1h.3v.1Zm-.5.4-.2-.1h.3v.1Zm1.3-.6-.2-.2h.3l-.1.2Zm0-.3-.3-.3h.5l-.1.3Zm1.8.8-.2.2V83l.2.2Zm-.3 0v.3h-.3l.3-.2Zm.4-.8v.4l-.4-.2.4-.2Zm-2.5-1.3-.2-.2h.3v.2Z"/><path fill="#CDE8DD" d="M141.2 81.3v-.2l.2.1-.2.1Zm1.4 1.8v-.2l.2.2h-.2Zm-.6-2.2v.4-.3l-.3.1v-.4l.3.2Zm-.2.8-.2-.2h.2v.2Zm-1.9 1.6.1-.1v.2h-.1Zm1.1-1.1.2-.1v.2l-.2-.1Zm.4.2.2-.1v.1h-.2Zm1.1 3.1v-.1h.1v.1Z"/><path fill="#CDE8DD" d="m141.8 84.6-.1-.4.3.1-.2.3Zm0-1.9h-.5l.3-.3.1.3Zm-1.6-.3h-.4l.2-.3.2.3Zm.8 1.6h-.4l.3-.3v.3Zm1.2-3 .2.3v-.2l.2.2h-.2v.2h-.5l.3-.4Zm-2.7 4.9-.2-.1h.2Zm-1.2 0-.2-.1h.2v.1Zm3-1.6-.1.1v-.2.1Zm.6-.6v-.1Zm-.4 1.6-.2-.1h.1Zm.4 1.4v-.1Zm1.3-2-.1-.1h.1Zm0-2.2-.1.4-.4-.2v-.2l.2.1h.2Zm.5 1.5-.2.2v-.3l.2.1Zm-.8-.5-.2.2v-.3l.2.1Zm-.5.1-.1.1-.2-.2h.3v.1Zm.2-.7v.1h-.1l-.2-.2h.3v.1Zm.7.5h.2l-.1.2v.2h-.3l.2-.4Zm-.4 1 .1-.2.2.1h-.3Zm.4-.6v.4l-.4-.2v-.2h.4Zm-1-1.4.4.2-.4.2-.2-.1.2-.1v-.2Zm-.7-1v.4l-.4-.2v-.2h.4Zm2.1 1.4.1.2h.1v.1h-.4l.1-.3Zm-1-1.3.5.2-.4.4-.1-.6Z"/><path fill="#CDE8DD" d="M142 84h-.2.2Zm-1.9.9h-.2l.2-.2v.2Zm4.2-2.5-.6-.6v.7l.6-.1Zm-1-1-.6-.5-.2 1 .8-.5Z"/><path fill="#CDE8DD" d="m142 80.5-.7-.4v.8l.8-.4Zm1.7 1.3-.4-.4v.5l.4-.1Z"/><path fill="#CDE8DD" d="m142.5 80.9-.5-.4v.7l.5-.3Zm-3 1.6-.2.3v-.4h.3Zm-11.4-.4V82h.2l-.2.2Zm-.4-.5v.2h-.2l.2-.2Zm.1 1.1v.4l-.3-.3h.3Zm6 3.6v.1l-.2-.1h.1Zm-3-2.2v.2l-.1-.1Zm-3.1-2.2.3.1-.3.3v-.4Zm1.5.4.1-.1.1.1h-.2Zm-.4 1h.2l-.2.2v-.3Zm.5 0-.2-.2.3-.2-.1.3Zm.8-1 .2.3h-.3l.1-.3Zm3 2.5h-.2l.1-.2.1.2ZM132 81l-.2.2v-.3h.2Zm-1.7 1.8h.1l-.1.1v-.1Zm.1-.5h.2v.2l-.2-.2Zm.3-.3.3-.1-.1.2-.2-.1Zm1 0-.2.4-.1-.5.4.1Zm-.8.7h-.2l.1-.2.1.2Zm.1.8h-.1v-.1h.1Zm1-1-.1.2v-.2Zm-.2 1v.2-.1Zm-2-.6v.1-.1Zm2.5-1 .1.1-.2.2V82Zm-.8-.4.2.2h-.3l.1-.2Zm-3 1.3h.1l-.2.2v-.2Zm-.5-1.4h.2v.3l-.2-.3Zm-1.2 1.2.2-.4.2.3-.4.1Zm.7-.6-.1-.2h.2l-.1.2Zm.7.3v.2-.2Zm5.7-2.8v.2l-.2-.1.2-.1Zm-1.8.5-.2.5-.3-.4h.5Zm1 1.4h.3l-.2.2v-.2Zm.8 1.4.2.1-.1.1v-.2Zm.5-1.2h.2l-.1.1v-.1Zm-.5-.7h.2l-.2.2v-.2Zm-.2-1h.1v.1h-.4l.2-.4v.2Zm-2.7-.2v.6l-.5-.4.5-.2Zm2.3-.3v.5l-.4-.3.4-.2Zm-1.7.1.5.3-.6.3.1-.6Z"/><path fill="#CDE8DD" d="M134 79.2V79l.2.2.2.1-.2.3-.2-.4Zm-2.6 0 .3.2-.3.2v-.3Zm.2.7h-.3l.1-.3.2.3Zm.8-.4.2-.1v.2l-.2-.1Zm1.6 2.2h-.2l.2-.1v.1Zm.3-1.1h-.3l.2-.2v.2Zm-.8 3h-.2l.2-.1v.2Zm-.7 1-.2-.1h.2Z"/><path fill="#CDE8DD" d="m133.2 80.8-.2-.1h.2Zm.9 0-.2-.1h.2Zm-.3-1.6.2-.5v.1h.2l.1.3-.5.1Zm-1.5.6-.1-.3h.2l-.1.3Zm-.1 1.4h-.3v-.1l.3.1Zm.3-1-.3.1v-.2l.3.2Zm0 1-.1-.3h.2l-.1.3Zm.5-.8v-.2h.2l-.2.2Zm.5-1h.3l-.2.3-.1-.2Zm-.4.3.1.4-.3-.2.2-.2Zm-.5.6.1.2h-.2l.1-.2Zm-.3.2v.2h-.2l.2-.2Zm-.4.1v.3l-.2-.1.2-.2Zm2.5-.5h.3l-.3.3V80Zm-.8 1.1-.3.1.2-.3v.2Zm-.2.8h-.3l.2-.2v.2Zm.5-1.5h-.3l.1-.2.2.2Zm-.3-.3-.4.2.2-.5.2.3Zm-1.3-.4h-.3l.1-.2.2.2Zm-1 0-.5-.4.4-.1v.4Z"/><path fill="#CDE8DD" d="M131.4 80.2v.3l-.3-.1.3-.2Zm.8 0-.1-.2.2-.2v.3Zm.3-1 .1.2-.2-.1v.2l-.3-.3h.4Zm.4.6h-.3l.1-.2.2.2Zm-.1 2.6v-.2h.2l-.2.2Zm0-1.7v-.2l.2.1-.2.1Zm.4 0v-.2h.1l-.1.2Z"/><path fill="#CDE8DD" d="m133.6 80.7-.3.2v-.4l.3.2Zm-.7.9-.3.2v-.3h.3Zm-2-.7v-.3l.2.2h-.2Zm-.2.8v.3l-.1-.1.2-.2Zm0-.2h-.3v-.2l.2.2Zm-.6.4h.2l-.1.2-.1-.2Zm.7-1.7v.4l-.4-.2.4-.2Zm1 .5v.3l-.3-.2h.2Zm.2.6h-.2l.2-.2v.2Zm-.8-.3.2.3h-.4l.2-.3Zm3.8 1.6-.3.3v-.4h.3Zm-2.3-3.4h.3l-.2-.2h.3l-.1.2h.1l-.3.5-.1-.5Zm1.7 5.3h-.1v-.1h.1Zm-.2.7h-.2.2Zm.2-4Zm0-1.8.2.3-.4.1v.1l-.2-.2h.2l.1-.3Zm-.1.7v.2-.1h-.3l.2-.2v.1Zm-.6-.2h.4l-.1.3v.1h-.2V80Zm-1.1-.1.3.3h-.4v.1l-.2-.1.2-.1v-.2Zm.6-.6.4-.3.2.5-.6-.2Z"/><path fill="#CDE8DD" d="m134.1 83.3-.1.2v-.3l.1.1Zm-.6-4.8-.7.2.6.8v-1Zm-1.4.4-.8.3.7.5.1-.8Zm-1.4.5-.5.3.6.4v-.7Zm3.3-.9h-.5l.3.4.2-.4Zm-1.3.2-.6.2.6.4v-.6Zm-3.4 2.7v.5l-.4-.3.4-.2Zm-1 .2v.6l-.5-.3.5-.3Z"/><path fill="#CDE8DD" d="m130.4 80.4.1.5-.5-.2.4-.3Zm-1.7.8h.5l-.3.5-.2-.5Zm-.3-.2h.4l-.2.4-.2-.4Z"/><path fill="#CDE8DD" d="M128.8 81.5h-.3v-.2l.3.2Zm.7-.7h.2v.2l-.2-.2Zm0 .4-.2-.2h.3l-.1.2Zm.3 1.3-.2.1v-.2l.2.1Zm0-1-.3.2v-.2h.3Zm.4.9-.2-.2h.2v.2Zm0-1.6.3.3h-.4l.2-.3Zm-.2.7v.3h-.2l.2-.3Zm-.3.3.1.2h-.2v-.2Zm-.3.3.1.2h-.2V82Zm0-.9-.2.1v-.2l.3.1Zm-1 .4-.5-.2.3-.3.2.5Z"/><path fill="#CDE8DD" d="M128.9 81.7v.4h-.3l.3-.4Zm.6-.2-.2-.1.2-.2v.3Zm0-1v.1h.1-.1v.3l-.4-.2.4-.2Zm.6.6h-.3V81l.3.2Zm-.4-.7h.3l-.2-.2.2-.1v.2h.2l-.2.5-.3-.4Zm0 .7.4.2-.4.2h-.2l.2-.2v-.2Z"/><path fill="#CDE8DD" d="m130.3 79.7-.6.3.8.6-.2-1Zm-1.3.7-.6.5.7.3v-.8Zm-1.7 1.5-.2.3.4.1-.2-.4Zm1.7 3 .1-.2v.1Zm-1.7-.3v.3l-.2-.2h.2Zm3.3.6v.2l-.2-.2h.2Zm-4.7-.5.2-.3v.4l-.2-.1Zm.8-.5.2.2h-.3v-.2Zm-.3 0-.2-.1h.3l-.1.1Zm-.6-.4v.3h-.2l.2-.3Zm.4 1.3v.2-.2Zm-.4-1h.4l-.3.4v-.4Zm1.7.2V84l.2.1h-.2Zm-.2 1h.2l-.2.2v-.2Zm2.7-1.1h.2l-.1.2-.1-.2Zm-2.3 1-.1-.2.1-.2v.3Zm.9-1.4.3.3-.4.1.1-.4Zm.3.5h.2l-.2.1v-.1Zm0-.5.2-.1v.2h-.2Zm.2-.4.2-.2v.3l-.2-.1Zm.8-.2-.2.5-.2-.4h.4Zm-.4.8h-.2.2Zm-1 .5v.2-.2Zm-1.8.5h.2l-.2.2V85Zm0 .9h.3l-.2.2V86Zm-.7-2.3.3-.1v.2l-.3-.1Zm-.8 1.4v-.2h.3l-.3.2Zm.5-.7-.2-.1h.2v.1Zm.7.1.2.1h-.2Zm2.6-1.3.1.3h-.2l.1-.3Zm-.2-.2-.2.2v-.3l.2.1Zm-.4.6.3-.1-.1.2h-.2Z"/><path fill="#CDE8DD" d="m127.3 83.4.1.5-.4-.2.3-.3Zm-1 .3.2.5h-.6l.4-.5Z"/><path fill="#CDE8DD" d="M126.7 83.3h.5l-.2.5-.3-.5Zm-.4 0 .4-.2-.1.4-.3-.3Z"/><path fill="#CDE8DD" d="m126.9 83.6-.3.1v-.3l.3.2Zm.5-.6-.4-.2.4-.2v.4Zm.7 1.3-.2.2v-.2h.2Zm-.3-.9-.2.2v-.2h.2Zm.9.6-.3-.2h.3v.2Zm-.7-.6.2.1h-.3v-.1Zm-.2.3.2.1h-.3v-.1Zm-.3.3.2.2h-.2V84Zm0-.8-.3.1v-.2h.3Zm-1 .4h-.6l.3-.4.3.4Zm.5.2.1.3h-.3l.2-.3Zm.6-.4h-.3l.2-.2v.2Zm.6-.8-.2.2v-.3l.2.1Zm-.4.2.4.1-.3.3v.1h-.2l.1-.2v-.3Zm-1-.3-.5.5.7.1-.3-.6Zm-1.3 1.8-.2.3h.5l-.3-.3Zm4-4.3-.4.4.6.2-.1-.6Zm-6.7 9.3h-.4l.2-.4.2.4Zm-1.2.4h.2l.1-.2.1.3h-.4v-.1h-.2l.2-.2v.2Zm-6.1-5.2-.1.5-.4-.4h.5Zm-1 .1v.3l-.2-.3h.2Zm-2.1-.2-.4.4v-.5h.4Zm.7 1.6.2.1h-.3V86Zm.2 1 .1.2h-.1v-.1Z"/><path fill="#CDE8DD" d="m114.2 88.7.1.2h-.2v-.2Zm1.2 1.2.1.1h-.1Zm-1.2-3.2.1.1h-.2v-.1Zm-.3-.9.2.2h-.2v-.2Zm1.6-.9v.2h-.1v.3l-.3-.3.2-.1.2-.1Zm-1.4-.2h.2l-.2.2-.3-.1.3-.3v.2Zm-2.4-1-.3.4-.2-.6.5.2Zm10.4 5.3v-.2l.2.1-.2.2v.3l-.4-.2.4-.2Zm-8.1-4.8-.3.5-.2-.5h.5Zm-1.8-.4.3.4h-.6l.3-.4Zm2.5.6.1-.2v.3l.2.1-.3.2v-.4Zm6.1 5.5.3-.4.2.4h-.5Z"/><path fill="#CDE8DD" d="M115.7 86.8v-.2h.2l-.2.2Zm-3.6-3.4.3.3h-.5l.2-.3Zm3 2.2v-.2h.2l-.2.2Zm-3-1.5-.3-.2.2-.1v.3Zm1 0h.2l-.1.2-.1-.3Zm.7 2.4-.3-.1h.3v.1Zm.6-.8-.2-.1h.2v.1Zm1.5-1.6.7.2-.6.2v-.4Zm5.8 5.1-.3.2V89l.3.1Zm-.7 1-.3.3V90l.3.2Zm.1-1.9.4-.2v.2h.3l-.2.4-.1-.3-.1.2-.3-.3Zm-.3 1 .5.2-.4.3v-.5Zm-5.5-2.1h-.2l.1-.1v.1Zm-.3-.7h-.1v-.2l.1.2Zm-2.9 1.5h.1v.1Zm-1.6.5v-.2h.1v.2Zm6 1.4-.2-.2h.2v.2Zm-3.1-4.5-.1-.1h.1v.1Zm.8.4h-.2.2Zm.3-1.5.4-.4v.1h.2l-.1.1v.3h-.5Zm-1.7 0V84l.3.1-.3.2Zm-1 1.2-.3-.1.2-.2.1.3Zm.9-.7-.3-.2h.2v.2Zm3.3.9v-.3l.3.3h-.3Zm-3.6-.1v-.3l.2.1-.2.2Zm1-.5v-.3l.1.1-.2.2Zm.7-.7h.3l-.2.3v-.3Zm-.4 0v.4l-.3-.3h.3Zm-.7.5v.2l-.2-.2h.2Zm-.6 0v.3l-.2-.2h.2Zm-.4 0v.3l-.2-.2h.2Zm10.4 7-.2-.2h.2v.2Zm-6.1-5.2v.2l-.2-.2h.2Zm4.7 3.8.1.2h-.2l.1-.2Zm-6-4.5.2.2h-.3l.1-.2Zm6.4 4.8v.3l-.2-.1.2-.2ZM116 86l.2.3h-.3l.1-.3Zm-1.4-.5.3.3h-.4l.1-.3Zm-.8 1.8.3.3h-.4l.1-.3Zm6.2 4.4.2.3h-.4l.2-.3Zm-5.2-3.5.3.3h-.4l.1-.3ZM117 87l-.2.2V87h.2Zm4.6 3.4.1.4-.3-.2.2-.2Zm.7.6h-.4l.2-.3.2.3Zm.8-1.2h-.7l.5-.5.2.5Zm-9.5-3.8h-.3l.2-.2v.2Zm-.3.6h-.3l.2-.2.1.2Zm.8-1.2h-.3l.2-.2v.2Zm-.1-.3h-.5l.4-.4v.4Zm7.5 6.4-.4-.2.4-.1v.3Zm-5.3-6.6-.1.3-.2-.3h.3Zm-.5.3.2.2h-.3l.1-.2Zm0-1 .2.3-.4.1.2-.4Zm7.5 7.2h.2l-.1.2-.1-.2Zm-10.5-7.1-.3-.1.2-.2v.3Zm-.9-.6-.2-.4h.4l-.2.4Z"/><path fill="#CDE8DD" d="m111.8 84.2-.2.3-.2-.3h.4Zm.7.3v-.2h.2l-.2.2Zm2.2 1v-.3h.2l-.2.3Zm-1.5-1.7v.2-.1l-.1.2-.2-.4h.3Zm.2.8-.3-.1.2-.2v.3Zm7.3 6.4v-.3l.1.2Zm-8.5-4.2v-.2l.2.2h-.2Zm.8-1.4v-.2l.1.1h-.1Zm.3 0 .1-.2.1.1h-.2Zm2.7 2.1h-.2l.2-.1v.1Z"/><path fill="#CDE8DD" d="m114.8 87.1-.3-.3h.4l-.1.3Zm-1-1.6-.4.2.1-.4.3.2Zm-1.6.8-.4.1.1-.4.3.3Zm1.6.7-.4.2.1-.4.3.2Zm-.4-3.2.2.2v-.3l.2.1-.1.2-.4.4v-.6Zm10.1 6.8-.2.3-.2-.4.4.1Zm-.8-.5h.2l-.1-.2h.2l-.1.1h.1l-.1.3-.1-.2-.2.2v-.2h.1Zm0 .4h-.3v-.2l.3.2Zm-.4-.5.2.2h-.3l.1-.2Zm1.5 1.2h-.2l.1-.2v.2Zm-.8-.8.1.3h-.2l.1-.3Zm-2.2 1.3-.2-.1h.2Zm-7.3-2-.1-.1.1-.1v.1Zm-2 .4-.2-.1h.2Zm2.7-3v.2l-.1-.1h.1Zm.2-.8v.1l-.1-.2h.1Zm.4 1.6h-.1v-.1h.1Zm1.2 1h-.2.1Zm0-2.4v-.1.1Zm5.2 2.2h-.2v-.2l.3.2h.3l-.2.3-.2-.3Zm-6.3-4 .1.3h-.4l-.1-.2h.2l.2-.1Zm1.3 1v.3l-.3-.2h.3Zm-1 0v.2l-.2-.2h.2Zm-.4.3v.1h-.3l.3-.3v.2Z"/><path fill="#CDE8DD" d="m121.4 92.2.1.1h-.1l-.2-.1.3-.1v.1Zm-6.8-6.9v.2-.1h-.3l.3-.3v.2Zm1 0 .1-.1v.2l.2.2-.3.1v-.4Zm.1 1v-.2h.2l-.2.2Zm.1-.7.1.4h-.4l-.1-.2h.2l.2-.2Zm-1.6-.7h.3l-.2.4v.1h-.2l.1-.2v-.3Zm-1.2-.5v.3h-.4v-.2h.2l.2-.1Zm8.3 4.7-.4-.2.4-.2v.4Z"/><path fill="#CDE8DD" d="m121.5 89.4-.6-.1.4-.3.2.4Zm-5.8-4.8h.3l-.1.1v.1h-.2v-.2Zm7.7 5.9h-.4l.2-.5.3.5h-.1Z"/><path fill="#CDE8DD" d="M123 90.2V90l.2.2h-.2Zm-1-.4h.3l-.1.2-.1-.2Zm1.6 1.3-.3.2-.1-.4.4.2Zm-1.1 1 .1.1h-.2l.1-.1Zm-8.5-8 .5-.2-.1.6-.4-.5Zm7.9 7.3-.2.1v-.2h.2Zm.5-.2-.2.2V91l.2.1Zm-.3-1h.2v.1l-.2-.1Z"/><path fill="#CDE8DD" d="m122.7 90.6-.2.4-.2-.3.4-.1Zm1.2.8-.1.3-.2-.2h.3Zm-1-.7.2.4h-.3v-.4Zm-1-.3.4-.2-.2.5-.3-.3Zm0-.8.3-.4.2.3v-.2l.3.2-.2.1v.2h-.2v-.4l-.3.1Zm-.3-.2h.3l-.2.2-.1-.2Zm1.9 1.4h.2l-.1.2-.1-.2Zm-.5.6h-.2v-.1l.2.1Z"/><path fill="#CDE8DD" d="M114.7 86.6h-.2l.1-.1h.1Zm-1.2 1.7h-.2v-.1h.2Zm9.1 1.8-.1-.2.1-.1v.3Zm.4.2-.2.2v-.2h.2Zm-1.2.2-.3-.3.6-.3-.3.6Zm.8-1.6-.7-1-.3 1.2 1-.2Zm-6.7-5-.9-.1.3.6.6-.4Zm-1.5-.3-.7-.1.3 1 .4-1Zm-1.4-.2-.9-.1.3.8.6-.7Zm-1.4-.1h-.6l.3.6.3-.6Zm3.4.5-.6-.2.2.5.4-.3Zm2.4 1.5-.2.5-.2-.5h.4Z"/><path fill="#CDE8DD" d="m116.5 85.2-.1.3-.1-.3h.2Zm1 .5-.2.2-.1.2-.2-.3h.4Zm-.8-.7h.2v.2l.1.1-.4.1.1-.4Zm.2 1.3v-.2l.2.1-.2.1Z"/><path fill="#CDE8DD" d="m118.2 85 .5.2-.6.4V85Zm-1.7 0 .5-.4v.1l.1.1v.3l-.6-.2Zm1.2 1.5.1-.2.1.3h-.2Zm0 .3.2.3-.3-.1.1-.2Zm-1.2-.7.2.3h-.4l.2-.3Zm1.3-.2-.2.3-.2-.4h.4Zm-.3.2.1.2h-.3l.2-.2Zm0-1 .2.3h-.4l.3-.3Z"/><path fill="#CDE8DD" d="M116.5 86h.3l-.3.2Zm.4-.6v.4l-.4-.2v-.1h.2l.2-.1Zm1 1.2-.1.2-.2-.2h.2Zm-1-.2v.2l-.2-.3h.3Zm-.4.2v.2-.1h-.3l.3-.2v.1Zm0-.7-.1.2V86h-.2l.2-.2v.1Zm.8.3.2-.1v.2l.1.2h-.4v-.3Z"/><path fill="#CDE8DD" d="M117.5 86.5v.4l-.4-.1v-.2h.4Zm-1.4-1h.3l-.3.4h-.2l.2-.2v-.2Zm1.4 0 .2.1v.1h-.2v-.2Zm-1.4-1h.5l-.2.6-.3-.5Zm1.9.3-.8-.3.2.7.6-.4Zm-.9-.3-.5-.2.1.4.4-.2Zm-3.5-1-.6-.1.4.6.2-.5Zm-7.9 3.6h.2v.1l-.2-.1Zm1.7 3 .1-.1v.2l-.1-.1Zm.6-2.8h.2-.2Zm.7 1.2-.2.1v-.2l.2.1Zm-3.7-2.4-.2.2v-.2h.2Zm6.2-.5.3-.2v.4l-.3-.2Zm-.9 1.4.4-.3v.5l-.4-.2Zm-6.7-1.7h.3l-.1.2-.2-.2Zm1.1 0 .1.4-.3-.2.2-.2Zm7 1.8v.4l-.3-.4h.4Zm9.2 1-.3.3V88l.3.2Zm-.7-.5-.2.2v-.3l.2.1Zm-1.7-1.2-.5.2.2-.4.3.2Zm-.6 1.5.1.3h-.2l.1-.3Zm-.3 1.2v.2h-.2l.2-.2Zm.2 1.8v.2h-.2l.2-.2Zm.3 1.5v.2l-.1-.1.1-.1Z"/><path fill="#CDE8DD" d="M118.7 89.3v.2-.2Zm.3-.8v.2l-.2-.1.2-.1Zm1.8-.1-.2.2-.2.1v-.4h.4Zm-1-.9.1.1h-.2l-.2-.2.4-.1v.2Zm.2-.5-.5.3v-.6l.5.3Zm-1.5-1.2.1.5-.6-.2.5-.3Zm2 1.7h.2l-.1.2v.2h-.3l.2-.4Zm-.6 2.6.1-.2.2.2h-.3Zm-1.3-4.7.2.4-.4-.1.2-.3Zm1.5 3.4v-.2l.2.2h-.2Zm-1-2.5.2.2-.2.1v-.3Zm-.7 2.7v-.3l.1.1v.2Zm1-.5v-.2h.2l-.2.2Zm2-.7.4.3-.4.1v-.4Zm-2 2.4Zm.1-.7v-.1h.1v.1Z"/><path fill="#CDE8DD" d="M116.6 89.7v-.2l.2.1h-.2Zm2.5 3.2v-.2h.1l-.1.2Zm-.3-5.2v-.2.2Zm.3.8v-.2l.2.1-.2.1Zm1.2-1.2.6-.1v.2l-.1.3-.5-.4Zm-1.5-.8.1-.3.2.2h-.3Zm-.2.4-.2-.2h.2v.2Zm2.2 2.4.2-.2v.3l-.2-.1Zm-3-1.9v-.2l.2.2h-.3Zm1.2 0V87l.2.3h-.3Zm1-.2.1.2-.2.1v-.3Zm-.5-.2-.2.3v-.4l.2.1Zm-.8 0-.2.2V87h.2Zm-.7-.2-.1.2-.1-.2h.2Zm2.5 3.5h-.1v-.1h.1Zm-.7-1.2v.2l-.2-.1.2-.1Zm1 .4v.3l-.3-.1.3-.2Zm-1-1 .1.3-.3-.2.3-.2Zm-1.6 1.1.1.4-.3-.2.2-.2Zm.5 1.2v.4l-.2-.2.2-.2Zm1.6-.2-.4.1.1-.3.3.2Zm-1.8-2.3-.2-.2h.3v.2Zm-.7.4-.3-.1.3-.1v.2Zm1.5-.6-.3-.2h.4l-.1.2Z"/><path fill="#CDE8DD" d="m119.4 87.7-.3-.3h.5l-.2.3Zm1.7 1-.3.2v-.4l.3.2Zm-.4 0v.3h-.2l.2-.3Zm.4-.8v.3l-.4-.1.4-.2Zm-2.3-1.4-.2-.2h.2v.2Zm-.2 0v-.2l.2.2h-.2Zm1.2 2 .1-.2.2.1h-.3Zm-.4-2.3v.2-.1h-.3V86l.3.2Zm-.2.8-.2-.2.2-.1v.3Zm-2.2 1.6.1-.1v.1h-.1Zm1.4-1.2h.2v.1h-.2Zm.4.2h.2-.2Zm1 3.3v-.2.2Zm-.8-1v-.4l.3.2-.3.2Zm0-1.9h-.4l.3-.3v.3Zm-1.7-.4h-.4l.2-.3.2.3Z"/><path fill="#CDE8DD" d="M118 89.3h-.4l.3-.3.1.3Zm1.6-3 .2.3v-.2l.2.2h-.2v.1h-.5l.3-.4Zm-2.9 5-.1-.1h.1Zm-1.1 0h-.1.1Zm3-1.6-.2.1v-.2l.1.1Zm.6-.7-.1.1V89v.1Zm-.5 1.6h-.1l.1-.1v.1Zm.5 1.5h-.1v-.2l.1.2Zm1.3-2-.2-.1.2-.1v.1Zm-.1-2.2v.4l-.4-.3h-.1v-.2l.2.2h.3Zm.5 1.5-.1.2v-.3h.1Zm-.8-.5-.1.2v-.3h.1Zm-.5 0 .1.2h-.2l-.1-.2h.3Zm.2-.7h.1l-.2.1-.1-.2h.3Zm.7.6h.2v.4h-.4l.2-.4Zm-.3 1v-.3l.2.2h-.2Zm.4-.6v.4l-.4-.3v-.2l.1.1h.3Zm-1-1.6.3.3-.3.1v.1l-.2-.1.2-.1v-.3Zm-.6-1v.4l-.4-.2v-.2l.2.1h.2Zm2 1.6v.2h.2-.1v.1h-.2v-.3Zm-1-1.3.5.1-.3.4-.1-.5Zm-.7 2.6h-.2l.1-.2v.2Zm-2 .8h-.1l.1-.2v.2Zm4.4-2.6-.6-.6-.1.8.7-.2Z"/><path fill="#CDE8DD" d="m120.6 86.6-.5-.4-.3 1 .8-.6Zm-1.1-.9-.8-.4v.8l.8-.4ZM121 87l-.4-.3v.4h.4Zm-1-.9-.6-.3v.6l.5-.3Zm-3.3 1.5-.3.4v-.5l.3.1Zm-12.4-2.3V85l.2.1h-.2Zm-.2-.7-.1.2-.1-.1h.2Zm-.4 1-.2.4v-.4h.2Zm5.3 5.7v.1l-.1-.1h.1Zm-2.8-3.2v.2-.1Zm-2.3-3.3.3.3-.4.1.1-.4Zm1.4 1.3.1-.1v.1h-.1Zm-.9.5.2.2h-.3l.1-.2Zm.6.2-.1-.2h.2l-.1.2Zm1-.8v.4h-.3l.3-.4Zm2.1 3.4h-.2l.2-.2v.2Zm.1-4h-.2v-.2l.2.2Zm-2 1.2v.1h-.1v-.1Zm.2-.4h.2l-.1.2-.1-.2Zm.4-.3h.2l-.1.2-.1-.2Zm1 .3-.4.4V86l.4.1Zm-1 .5h-.2l.2-.2v.2Zm-.1.8h-.2l.1-.2.1.2Zm1.1-.7v.1-.2Zm-.4 1Zm-1.9-1.3v.2-.2Zm2.7-.1h.1l-.3.2v-.3h.2Zm-.5-.8v.3h-.1l.1-.3Zm-3.4.4.1.2h-.2V86Zm0-1.4.3.1-.2.2v-.3Zm-1.5.7.3-.3.1.3h-.4Zm1-.4-.1-.2.2.1-.2.1Zm.4.6v.1-.1Zm6.6-1.2v.3l-.2-.2h.2Zm-2.2.1-.3.4-.1-.4h.4Zm.8 1.6h.2l-.2.2V86Zm.9 1.7h.1l-.1.2v-.2Zm.7-1.3h.1l-.1.1v-.1Zm-.5-.7.2.1h-.2v-.1Zm0-1h.1v.2l-.1-.1h-.4l.3-.3v.2Zm-2.8-.9-.2.6-.4-.5h.6Zm2.3.3-.1.5-.4-.5h.5Zm-1.7-.3.4.4-.6.2.2-.6Zm2.6.2.1-.2v.2l.3.1-.3.3-.1-.4Z"/><path fill="#CDE8DD" d="m108.1 83.5.4.2-.4.2v-.4Zm0 .7-.2-.2.2-.1v.3Zm1-.3h.2v.3l-.2-.3Zm1.4 2.7h-.2l.2-.2v.2Zm.4-1.3h-.2l.2-.2v.2Zm-1.6 3h-.2l.2-.1v.2Zm-1.4.8-.2-.1h.2v.1Zm1.6-3.7-.1-.1h.2Zm1.2.2-.2-.1h.2v.1Zm0-1.7.3-.4h.2l-.1.2.1.2h-.5Zm-1.8.4-.1-.3h.3l-.2.3Zm-.6 1.3h-.3l.2-.2.1.2Zm.7-.8h-.3l.1-.2.2.2Zm-.2.8v-.2h.2l-.2.2Zm.7-.6v-.2h.2l-.2.2Zm.8-.7h.3l-.1.2-.2-.2Z"/><path fill="#CDE8DD" d="M109.7 84.3v.4l-.3-.2.3-.2Zm-.6.5v.2l-.1-.1.1-.1Zm-.4.1v.3l-.2-.2h.2Zm-.5 0v.3l-.2-.1.2-.1Zm3 0 .3.1-.4.2v-.4Zm-1.3 1h-.3l.2-.2v.2Zm-.4.7h-.3l.2-.2.1.2Zm1-1.2h-.2l.2-.3v.3Zm-.4-.4h-.4l.3-.4.1.4Zm-1.2-.7h-.3l.1-.2.2.2Zm-1-.4-.4-.4h.5l-.1.4Zm0 .5-.1.3-.3-.2h.4Zm.9.1-.2-.2h.3l-.1.2Zm.4-.9v.2l-.1.2-.3-.3h.4Zm.3.8h-.3l.1-.2.2.2Zm-.6 2.5v-.2l.1.1h-.1Zm.3-1.6V85l.2.1h-.2Zm.4 0V85l.1.1h-.1Z"/><path fill="#CDE8DD" d="m110 85.4-.3.2v-.4l.3.2Zm-.9.7-.3.2V86l.3.2Zm-1.9-1.2.2-.2v.2h-.2Zm-.3.8v.2h-.2l.2-.2Zm0-.3h-.3l.1-.2.1.2Zm-.7.3h.2l-.2.2v-.2Zm1-1.5v.5l-.3-.4h.4Zm.9.8v.3l-.3-.3h.3Zm0 .7v-.2.2Zm-.7-.6.2.4h-.4l.2-.4Zm4 2.3-.3.3v-.4l.3.1Zm-2-3.7.3.1-.1-.2h.2v.2l-.3.5-.1-.6Zm1.3 6h-.2l.1-.2v.1Zm-.9.5h-.1.1ZM111 86v.1h-.1l.1-.1Zm.2-1.7.2.3h-.4v.2l-.2-.2h.2l.2-.3Z"/><path fill="#CDE8DD" d="M111 84.9h.1v.1h-.3l.1-.3.1.2Zm-.5-.3h.4l-.2.4h-.2v-.4Zm-1.3-.3.2.3h-.4v.1l-.2-.2h.2l.2-.2Zm1-.3.4-.3v.6l-.5-.3Zm.2 4.3-.2.1v-.2h.2Zm0-5h-.8l.5.8.2-.9Zm-1.5 0-.9.1.5.7.4-.8Zm-1.5.2-.6.1.5.6.2-.7Zm3.6-.3h-.5l.2.4.3-.4Zm-1.5 0-.6.1.5.5v-.5Zm-4 1.8-.2.5-.3-.4.4-.1Zm-1-.2v.6l-.5-.5h.6Zm2.4-.5v.5l-.5-.3.5-.2Zm-1.9.2.5.3-.6.3.1-.6Z"/><path fill="#CDE8DD" d="M104.9 84.6h.4l-.4.3v-.3Z"/><path fill="#CDE8DD" d="M105.1 85h-.3l.2-.2.1.3Zm.8-.5h.2v.2l-.2-.2Zm-.2.3-.1-.2h.3l-.2.2Zm0 1.4h-.4l.1-.2.2.2Zm.2-1-.3.1v-.2l.3.2Zm.2 1-.1-.2h.3l-.2.2Zm.6-1.5v.3l-.3-.1.3-.2Zm-.6.6.1.3-.2-.2h.1Z"/><path fill="#CDE8DD" d="M105.7 85.4v.3l-.1-.1.1-.2Zm-.2.5v.2h-.2l.2-.2Zm.2-1h-.3l.2-.2.1.2Zm-1 0-.4-.3.5-.2v.5Z"/><path fill="#CDE8DD" d="M105 85.3v.3l-.3-.1.4-.2Zm.7-.2-.2-.2h.2v.2Zm.2-1v.2l.1.1h-.1v.1l-.3-.3h.3Zm.5.8h-.3v-.2l.3.2Z"/><path fill="#CDE8DD" d="M106.2 84.1h.3l-.2-.1h.3v.1l-.2.5-.2-.5Zm-.2.7.3.3-.4.1-.2-.1h.2l.1-.3Z"/><path fill="#CDE8DD" d="m107 83.6-.7.2.6.7v-1Zm-1.4.3-.9.3.7.6.2-.9Zm-2 .9h-.4l.4.4v-.4Zm.3 3.3.2-.1v.2h-.2Zm-1.7-.8-.2.2v-.2h.2Zm3.2 1.9-.1.2-.1-.2h.2Zm-4.4-2.4.3-.2-.1.3-.2-.1Zm.9-.1.1.3-.3-.1.2-.2Zm-.3-.1v-.3l.2.1-.2.2Zm-.3-.7v.3l-.3-.1.3-.2Zm-.2 1.3-.1.2v-.2Zm0-1 .3.2-.3.2v-.4Zm1.6.9.2-.2v.2h-.2Zm-.8.8.2.2h-.3l.1-.2Zm3.5.2.2.1-.2.1v-.2Zm-3-.1-.1-.2h.2l-.1.2Zm1.6-1 .1.4h-.3l.2-.4Zm.1.5.1.2h-.2l.1-.2Zm.1-.4h.3l-.1.2-.2-.2Zm.5-.2h.2l-.1.2-.1-.2Zm.9.2-.3.4-.1-.5.4.1Zm-.9.4h-.2l.2-.1v.1Zm-1 .1-.1.2v-.2Zm-2.2-.2.2.1h-.2v-.1Zm-.4.8.2.2h-.2v-.2Zm.5-2.4.3.1-.1.2-.2-.3Zm-1.3 1 .1-.3v.2h-.1Zm.7-.5-.1-.1h.2l-.1.1Zm.6.5v.1-.1Zm3-.3v.3h-.1l.2-.3Zm0-.2h-.3l.1-.2.2.2Zm-.6.4h.2l-.1.2-.1-.2Z"/><path fill="#CDE8DD" d="m103 86.2-.1.5-.3-.4h.4Zm-1.2-.2v.6l-.5-.4.5-.2Zm.5-.1.5.2-.5.3V86Zm-.2-.2h.3l-.3.3v-.3Z"/><path fill="#CDE8DD" d="M102.3 86.2h-.3l.2-.2.1.2Zm.9-.3-.2-.4h.4l-.2.4Zm.1 1.5h-.3v-.2l.3.2Zm.2-1h-.3v-.2l.3.1Zm.5.8-.2-.2h.3l-.1.2Zm-.4-.9.1.3-.2-.1.1-.2Zm-.3.3v.2h-.2l.2-.2Zm-.4.2.1.3-.2-.1.1-.2Zm.3-.8-.3.1.1-.2.2.1Zm-1.2 0-.5-.2.4-.3.1.5Z"/><path fill="#CDE8DD" d="M102.3 86.5v.3l-.3-.1.3-.2Zm.9-.2-.2-.1.2-.2v.3Zm1-.5h-.3v-.2l.3.2Zm-.5 0 .3.2-.4.2-.2-.1.2-.1v-.2Zm-1-.6-.6.3.6.3v-.6Zm-1.9 1-.3.2.4.2v-.4Zm5.4-2.4-.6.1.6.4v-.5ZM77.4 62.9H77l.2-.3.3.3Zm-1.2.5h.2v-.2l.2.3h-.4v-.1H76l.1-.2.1.2ZM70 58.9l-.1.5-.4-.4.5-.1Zm-1 .1v.2l-.2-.2h.3Zm-2.3 0-.3.3v-.5l.3.1Zm1 1.5.2.1-.3.1v-.2Zm.3 1.1.1.2H68v-.2Zm.9 1.4.1.2V63Zm1 1 .2.2H70V64Z"/><path fill="#CDE8DD" d="m68.8 61 .2.2h-.2v-.1Zm-.3-.7.2.1h-.2v-.1Zm1.5-1v.2l-.1.2-.3-.3h.2l.2-.2Zm-1.3 0h.1l-.1.1-.4-.1.3-.3v.2Zm-2.6-1-.3.5-.2-.6h.5Zm10.7 4.4v-.2h.1l-.1.3v.3l-.4-.2.4-.2Zm-8.3-4-.2.5-.3-.5h.5Zm-2-.4.3.5h-.6l.3-.5Z"/><path fill="#CDE8DD" d="m69.2 58.8.1-.2v.2l.2.2-.3.2v-.4Zm6.3 4.8.2-.3.2.3h-.4Zm-5.3-2.5V61l.3.1-.3.1ZM66.4 58l.3.2-.4.1.1-.3Zm3.3 2v-.3h.2l-.2.3Zm-3.3-1.4-.3-.1.3-.2v.3Zm1.1 0h.2v.2l-.2-.2Zm.9 2.4-.2-.1h.2v.1Z"/><path fill="#CDE8DD" d="m69 60.1-.2-.1h.2v.1Zm1.4-1.7.6.2-.5.3-.1-.5Zm5.8 4.5-.2.2v-.3l.2.1Zm-.5 1.1-.3.2V64l.3.1Zm0-2 .3-.1v.2h.3l-.2.3-.1-.3v.2l-.4-.2Zm-.3 1 .5.2-.4.3v-.4ZM70 61.7h-.1v-.2l.1.2Zm-.3-.7h-.1v-.2l.1.2Zm-3 1.6-.2-.1h.2v.1Zm-1.3.4-.1-.1h.2v.1Zm5.8 1-.2-.1h.2v.1ZM68 60h-.1.1Zm.8.4V60v.2Zm.3-1.6.4-.4v.1h.1v.4H69Zm-2 .2v-.3h.3l-.3.3Zm-.7 1.2h-.2l.1-.2.1.2Zm.7-.8h-.2l.1-.2.1.2Zm3.5.7v-.3l.3.2h-.3Zm-3.7.2V60l.2.1-.2.2Zm1-.6v-.3l.3.1-.2.2Zm.8-.8h.3l-.2.3v-.3Zm-.4.2v.3l-.3-.3h.3Zm-1 .4-.1.3-.2-.2h.3Zm-.4.1v.3l-.2-.2h.2Zm-.5 0v.2l-.2-.2h.2Zm3.6 4.1-.2-.2h.2v.2Zm1-2.6v.1h-.2l.1-.1Zm4.8 3.2v.2h-.2l.2-.2Zm-6.1-3.9.2.2h-.3v-.2Zm3 4 .1.2-.2-.1.1-.2Zm-2-4.1.3.2h-.4l.1-.2Zm-1.3-.4.2.3h-.3v-.3Zm-.7 2 .2.2h-.3v-.3Zm2-.5.2.3-.4-.1.2-.2Zm-1 1.1.3.3h-.4l.1-.3Zm2-1.2-.2.3V61h.2Zm4.6 3 .2.3-.4-.1.2-.3Zm.8.4-.4.2.1-.4.3.2Zm.8-1.2H77l.4-.5.4.5Zm-9.9-3h-.3l.3-.2v.2Z"/><path fill="#CDE8DD" d="M68 61.1h-.4l.2-.2.1.2Zm.6-1.2h-.3l.3-.2v.2Zm0-.3H68l.3-.4.1.4Zm7.5 5.2-.4-.2.5-.2v.4Zm-5.5-5.6v.4l-.3-.3h.3Zm-.4.4.2.2H70v-.2Zm-.2-1 .3.3-.5.1.2-.4Zm7.3 6.1h.2l-.1.2-.1-.2ZM67 58.9l-.2-.1.2-.2v.3Zm-.8-.6L66 58h.5l-.2.4Z"/><path fill="#CDE8DD" d="m66.2 58.8-.1.3-.2-.2h.3Zm.7.3-.1-.2h.3l-.2.2Zm2.4.7v-.2h.2l-.2.2Zm-1.8-1.5v.3-.1l-.2.2-.1-.4h.3Zm.4.8h-.3l.1-.2.2.2Zm7.5 5.6v-.2l.1.1-.1.1Zm-8.8-3.3v-.2l.2.2h-.2Zm1-1.5v-.1l.1.1h-.2Zm.3 0v-.2l.2.1H68Zm2.7 2-.1-.1h.1Z"/><path fill="#CDE8DD" d="m69.4 61.5-.3-.3h.4l-.1.3Zm-1-1.5-.4.2v-.4l.4.2Zm-1.9.8-.3.2v-.4l.3.2Zm2 .7-.4.2v-.4l.3.2Zm-.6-3.2.3.2-.1-.3.2.1-.1.2h.1l-.4.4v-.6Zm10.3 6-.2.2-.2-.4.4.1Zm-.8-.5v-.4h.3l-.2.2h.1v.2l-.2-.1-.1.2-.1-.3h.2Zm0 .3H77l.1-.2.2.2Zm-.4-.4.2.1h-.3v-.1Zm1.5 1h-.2l.1-.1v.2Zm-.8-.6v.2h-.2l.2-.2Zm-9.3.6-.2-.1h.2Zm-.2-.8H68l.1-.1Zm-2 .5H66l.2-.1v.1Zm2.7-2.8v.1l-.2-.1h.2Zm.1-1v.2l-.1-.1h.1Zm.5 1.7h-.1v-.1h.1Zm1.2.9h-.1v-.1h.1Zm0-2.4h-.2v-.1h.2Zm5 1.6h-.2l.1-.2.2.2h.3l-.1.4-.2-.4ZM69.5 59l.2.3h-.4l-.2-.2h.3l.1-.1Zm1.3.9v.2l-.2-.2h.2Zm-1 0v.2l-.2-.2h.3Zm-.3.4v.1H69l.2-.3v.2Z"/><path fill="#CDE8DD" d="M72.2 61.8h.1l-.1.1-.2-.2h.3Zm-3-2.1v.1h-.3l.2-.3v.2Zm.8 0 .2-.1v.2l.2.1-.3.2v-.4Zm.3 1v-.2h.2l-.2.2Zm0-.7.2.4H70v-.2h.1l.2-.2Zm-1.6-.7h.4l-.3.4v.1h-.2l.2-.2-.1-.3Zm-1.4-.3.2.3H67v-.2h.2l.1-.1Zm8.6 3.8-.4-.1.4-.3v.4Z"/><path fill="#CDE8DD" d="m76 63.2-.5-.2.3-.3.3.5ZM70 59h.4v.1h-.1v.1H70V59Zm8 5v.1h-.2l.2-.5.3.5H78Zm-.4-.2v-.2l.2.2h-.2Zm-1-.3h.3l-.1.2-.1-.2Zm1.6 1.1-.2.3-.1-.3h.3ZM67 64.2l.2.2H67v-.2Zm1.6-5.7.5-.2-.1.6-.4-.4Zm2.7 4.1-.2.2v-.3l.2.1Zm-.4-.1-.1.1v-.2h.1Zm6 1.4.1-.1v.2l-.2-.1Z"/><path fill="#CDE8DD" d="m77.4 64.2-.2.4-.2-.2.4-.2Zm1.1.6.1.1h-.3l.2-.1Zm-1-.4.3.3h-.3v-.3Zm-1-.4h.5l-.2.4-.3-.4Zm.1-.7.2-.4.2.3v-.3l.3.2-.2.2.1.2-.2-.1v-.2l-.4.1Zm-.4-.2h.2l-.1.2-.1-.2Zm2 1.3h.1v.2l-.2-.2Zm-1 .3-.2.1v-.1h.2Z"/><path fill="#CDE8DD" d="M69.3 61h-.2l.1-.1h.1Zm-1 1.7H68l.1-.1h.1Zm9 1-.2-.2h.2v.2Zm.3.3-.1.2-.1-.3h.2Zm-1.1.2-.4-.3.6-.3-.2.6Zm.7-1.6-.8-.8-.2 1 1-.2Zm-6.9-4.2-.8-.2.3.6.5-.4ZM69 58h-.7l.3.8.4-.8Zm-1.5-.1h-.9l.3.6.6-.6Zm-1.4-.1h-.7l.4.7.3-.7Zm3.5.3L69 58l.2.4.4-.3Zm2.4 1.3-.1.5-.3-.5h.4Zm-1 .1-.1.2-.1-.2h.2Zm1 .4h-.1v.2h-.1l-.1.2-.2-.3h.2l.2-.1Zm-.8-.6.1-.2v.3l.2.2H71v-.3Zm.2 1.3v-.3l.2.1-.2.2Z"/><path fill="#CDE8DD" d="m72.4 59 .5.3-.5.4V59Zm-1.4.2.4-.4v.1h.2l-.1.2v.2l-.5-.1Zm1.2 1.5.2-.3v.3h-.2Zm.1.2.2.3h-.3l.1-.3Zm-1.2-.6.2.3h-.4l.2-.3Zm1.2-.3-.2.3-.2-.3h.4Zm-.3.2.1.2-.3.1.2-.3Zm0-1 .2.4h-.4l.2-.3Z"/><path fill="#CDE8DD" d="M71 60.3v-.2l.3.1-.3.1Zm.3-.7.1.4-.4-.1v-.2h.2Zm1.1 1.1v.3l-.2-.3h.2Zm-.9-.1v.2l-.2-.2h.2Zm-.5.3h.2l-.2.1-.2-.1.3-.2v.2Zm0-.7v.1l-.3-.1.3-.2v.2Zm.8.2.2-.2v.3l.2.1-.4.2v-.4Z"/><path fill="#CDE8DD" d="m72 60.7.1.3h-.4v-.2h.1l.2-.1Zm-1.4-1 .3.1-.3.3v.1h-.2l.2-.2v-.3Zm1.4 0h.3l-.1.1-.2.1v-.3Zm-1.5-.9h.5l-.1.5-.4-.5Zm1.9.2-.8-.3.2.7.6-.4Zm-.8-.3-.6-.1.2.3.4-.2ZM68 58h-.6l.4.5.2-.5Zm-8 4h.2v.1H60Zm2 2.6.2-.1v.2l-.2-.1Zm.5-2.5.2-.1v.2l-.2-.1Zm.9 1-.2.1V63l.2.1ZM59.2 61l-.2.2V61h.2Zm6.6-.7.3-.2v.4l-.3-.2Zm-.8 1.4.3-.3v.4l-.3-.1Zm-7.1-1.3.3-.1-.1.3-.2-.2Zm1-.1.1.3-.3-.1.2-.2Zm7.5 1.5v.4l-.3-.4h.3Zm9 .1-.3.4v-.5l.3.1Zm-.7-.4-.2.2v-.3h.2Zm-2-1-.4.3.1-.5.4.3Zm-.1 1.7.1.2h-.2V62Zm-.3 1v.3h-.1l.1-.2Zm1.6 1v.2l-.1-.1V64Zm-2 .4.1.2h-.2l.1-.2Z"/><path fill="#CDE8DD" d="M73.3 63.1v.2-.2Zm.2-.8v.2h-.1l.1-.2Zm1.8-.1-.1.1-.2.2-.1-.4h.4Zm-1-.8v.1h-.1l-.3-.2.4-.1v.2Zm0-.6-.4.4v-.6l.5.2Zm-1.5-1 .1.6-.6-.2.5-.3Zm2.1 1.5v-.1h.2v.4h-.4l.2-.3Zm-.4 2.6.2-.2.1.3h-.3Zm-1.7-4.4.2.3h-.4l.2-.3Zm1.8 3.1.1-.2.2.2h-.3Zm-1-2.3h.1l-.2.2v-.2Zm-.6 2.6-.1-.2h.2v.2Zm1-.5-.2-.2h.3l-.1.2Zm2-1 .4.3-.4.2v-.4Zm-2 2.7V64h.1v.1Zm.2-.8H74l.2-.1v.1Z"/><path fill="#CDE8DD" d="M71.3 63.7v-.2.2Zm2.9.8v-.2l.1.1-.1.1Zm-1-2.9v-.1h.1v.1Zm.5.8v-.2l.1.1h-.1Zm1.1-1.3.5-.2v.1l.1.1h-.1v.3l-.5-.3Zm-1.6-.7.1-.3.2.2-.3.1Zm-.3.5-.2-.2h.2v.2Zm2.5 2.1.1-.2v.3h-.1Zm-3-1.4v-.3l.2.2h-.3Zm1-.3.1-.2.1.2h-.2Zm1-.3.2.2h-.3V61Zm-.4 0-.2.2-.1-.3h.3Zm-1 0-.2.3V61h.2Zm-.4 0-.1.2-.1-.3h.2Zm2.5 3v.2L75 64h.1Zm-.7-1.1v.2h-.2l.2-.2Zm1 .4v.3l-.3-.2.2-.1Zm-1-1v.3l-.3-.1.3-.2Zm-1.6 1.3.1.3-.3-.1.2-.2ZM72 62l.1.3-.3-.1.2-.2Zm3 2.4-.3.2v-.4l.3.2Zm-1.9-2-.2-.3h.3v.2Zm-.5.4-.2-.2h.3v.2Zm1.3-.8-.3-.1.3-.1v.2Z"/><path fill="#CDE8DD" d="m74 61.6-.5-.2.5-.1v.3Zm1.6.8-.2.2v-.4l.2.2Zm-.3.1v.2H75l.3-.2Zm.3-.9v.4l-.3-.1.3-.3Zm-2.5-1.1-.2-.2h.2v.2Zm-.2.1v-.2l.2.1-.2.1Zm1.5 1.7V62l.2.2h-.2Zm-.6-2.2v.2l-.1-.1-.2.1V60l.3.2Zm-.2.8-.2-.2h.2v.2Zm-1.9 1.8.1-.2.1.2h-.2Zm1-1.2.2-.1v.2l-.1-.1Zm.6 0h.1v.1h-.1Zm1.2 3.2v-.1.1Zm-.8-.9-.2-.4.4.2-.2.2Zm-.2-1.8H73l.3-.3v.3Zm-1.6-.2h-.4l.3-.3.1.3Z"/><path fill="#CDE8DD" d="M72.8 63.3h-.4l.3-.3.1.3Zm1.2-3 .2.2v-.3l.2.2-.2.1v.1l-.5.1.3-.5Zm-2.8 4.3-.2-.1h.2Zm-1.7-.1-.2-.1h.2Zm3.6-.9v.1-.2.1Zm.6-.7v-.1Zm-.3 1.6h-.2l.2-.1v.1Zm.2.2h-.1l.1-.2v.2Zm1.5-1h-.2.2Zm-.2-2v.4l-.4-.2h-.1v-.3l.2.2.3-.1Zm.6 1.4-.2.2v-.2h.2Zm-.8-.4-.2.2v-.3h.2Zm-.5.1v.1l-.3-.2h.3v.1Zm.1-.7v.1L74 62h.3v.1Zm.8.5h.2l-.1.1v.2H75l.2-.3Zm-.3 1v-.3l.2.2h-.2Z"/><path fill="#CDE8DD" d="M75.1 63v.3l-.3-.2h-.1V63l.2.1h.2Zm-.9-1.5.3.2-.4.2H74l.1-.2.1-.2Zm-.8-.9v.4l-.4-.2v-.2h.4Zm2 1.4.2.1v.1h-.2V62Zm-1-1.3h.6l-.4.5-.1-.5Zm-.6 2.6h-.2l.2-.2v.2Zm-1.8 1h-.2l.2-.2v.1Zm4.1-2.9-.6-.5v.7l.6-.2Z"/><path fill="#CDE8DD" d="m75 60.5-.5-.5-.2 1 .7-.5Zm-1.2-.8-.8-.4v.8l.8-.4Zm1.7 1.1-.5-.3v.4h.5Zm4.3 7.8-.4-.2.3-.2.1.4Zm-1.2 0v-.1.1h.3v.2l-.2-.2v.1h-.3l.2-.2h-.2l.2-.2v.2Zm.8-.5V68l.2.2-.3.1v.3l-.4-.3h.5Zm-1.6.3.3-.2.1.4-.4-.2Zm1-.3h-.3l.1-.2.2.2Zm-1 .7h-.4l.2-.2.2.2Zm.8-1.7h.4v.1l.2.2-.3.2v-.3l-.1.1-.2-.3Z"/><path fill="#CDE8DD" d="m78 67.9.3.3-.4.1V68Zm-.3 1v.3l-.2-.1.2-.1Zm.6.3v.4l-.4-.3.4-.1Zm.4.8h-.4l.3-.4.1.4Z"/><path fill="#CDE8DD" d="m80 69.2-.7-.3.6-.3v.6Zm-2.1.5-.3-.3h.5l-.2.3Zm1 .4.2.1-.2.2V70Zm-1.7-.8.1-.2v.2Zm2.8.8-.4.2v-.4l.4.2Zm-.6-.8h.2v-.2l.2.1-.2.1h.1l-.2.2v-.1l-.3.1v-.3l.2.1Zm-.2.4-.3-.1.2-.2.1.3Zm0-.6v.2h-.3l.2-.2Zm.8 1.7-.2-.2h.2v.2Zm-.4-1v.2l-.2-.1.2-.1Zm-1-2.4h-.2l.1-.2.1.2.3.2-.3.2v-.4Z"/><path fill="#CDE8DD" d="m78.5 67.8-.3-.2.5-.1-.2.3Z"/><path fill="#CDE8DD" d="m78.5 68.2-.4-.3.4-.2v.5Zm-.5-2.9-.4-.4.5-.1v.5Zm2 4.6h-.4l-.2-.1.4-.4v.6Z"/><path fill="#CDE8DD" d="m79.6 69.5.2-.2v.3l-.2-.1Zm-.7-.7.2.1-.2.1v-.2Zm1 1.7-.4.2v-.4l.3.2Zm-1.1-1.3h.2l-.2.2v-.2Z"/><path fill="#CDE8DD" d="m79.2 69.8-.3.3v-.4h.3Zm.8 1v.2l-.2-.2h.2Zm-.7-.8.1.4h-.3l.2-.4Zm-.8-.8.5.1-.4.3v-.4Zm.4-.6.4-.3v.4l.2-.2.2.3h-.3v.2l-.2-.1.1-.2H79Zm-.3-.3h.3l-.3.2v-.2Zm1.2 2h.2l-.1.2v-.2Zm-1-.2h-.2.2Z"/><path fill="#CDE8DD" d="m79.4 69.2-.1-.2h.2l-.1.2Zm.1.4-.2.1v-.2l.2.1Zm-1-.2-.3-.5h.7l-.5.5Zm1.3-1.2-.3-1-.7.8 1 .2Zm-1.2-1.5-.5.3.2-.6.3.3ZM78 66l-.3.1.1-.2.2.1Z"/><path fill="#CDE8DD" d="m78.3 67-.2.1h-.3l.1-.3h.2l.2.2Zm0-1h.3l-.2.2v.2l-.4-.1.3-.3Zm-1.5 2.2h.2v.2l-.2-.2Zm.7-1 .2-.2v.2h-.2Z"/><path fill="#CDE8DD" d="m79.2 66.7.3.4H79l.2-.4Zm-1-.9.6.1v.2l-.2.2-.3-.5Zm-.3 2h.3v.2l-.3-.2Zm0-2.2.2.2h-.3l.2-.2Zm-.6 3h-.1v-.1l.1.1Zm-.2-1.4v.3l-.2-.2h.2Zm.7.8v.3l-.2-.2h.2Zm-.4-1.3v.4l-.3-.3.3-.1Z"/><path fill="#CDE8DD" d="M77 68.8h-.4l.2-.2.2.2Zm1.5-1.4H78l.1-.3.3.3Zm-.4-.1v.3l-.3-.2.3-.1Zm.7-.7-.1.4-.3-.3h.4Zm-1.4 0h.1l.1.2-.2-.1Zm-1 2.3v-.1h.1v.1Zm1-.5-.1-.1h.1Zm.7-2-.2.3-.2-.3v-.2l.2.1h.2Z"/><path fill="#CDE8DD" d="M78 68h-.2v-.2l.2.2Zm-.5-.8h-.2V67l.2.2Zm.4 0 .2.1-.2.2v.2l-.3-.2.3-.2Zm-.7.8.2-.2v.3l-.2-.1Zm.6-.4-.2.4-.2-.4h-.1l.1-.2.2.2h.2Zm-.2-1.7.2.4h-.5v-.2h.1l.2-.2Zm1 1v.3h-.1l-.2-.1.2-.2Zm-.4-1.6.4.3-.5.2.1-.5Z"/><path fill="#CDE8DD" d="M79.4 66.7 79 66l-.3.7.7.1Zm-.6-1.3-.3-.7-.6.9.9-.2Z"/><path fill="#CDE8DD" d="m79 65.9-.2-.5-.2.4h.4ZM74.3 60l-.5-.3v.6l.5-.3Zm-3 1.9-.2.3-.1-.4h.3Zm3.6 5.6-.1-.1h.2v.1Zm1.6.3v.3l-.2-.1.2-.2Zm-2-3 .1.4-.3-.1.2-.2Zm1 0-.2.3-.1-.4h.3Zm-1 .7-.2-.1h.1Zm0 1.3h-.1.2Zm1.6-1.4v.1l-.3-.2h.3Zm-1 .8-.2.2V66l.2.1Zm-.4-.1-.2.2V66l.2.1Zm1.7-.4.2.2h-.3l.1-.2Zm-.2 1v.3H76l.2-.2Zm-.4 1.4v.2h-.1V68Zm1.4-1.3v.2l-.2-.1.2-.1Zm.1-.9v.2-.2Zm-.5.6-.1-.2h.2v.2Zm-1.7.8v-.2l.1.1-.1.1Zm2-2V65v.1Zm-1 0 .2-.3.1.2h-.2Zm.6 1.9v.4l-.3-.2.3-.2Zm-1-1.6.1.4-.3-.2.3-.2Zm1.2.3-.3-.1h.3v.1Zm-.5.5-.3-.2h.3v.2Zm1.2-.7-.2-.2h.3v.2Zm.2-.4-.4-.3.5-.1-.1.4Zm-2.2 1v-.1l.1.1h-.1Zm1-1.2.2-.1v.2l-.2-.1Zm.5 0h.2v.1h-.2Zm.4 2.3-.1-.4.4.2-.3.2Zm-.2-1.8H77l.3-.3.1.3Zm-1.5-.2h-.4l.2-.3.2.3Zm1.2.1h-.4l.2-.3.2.3Zm-.3 1.4h-.4l.2-.3.2.3ZM75 68.2l-.1-.1h.1Zm2-1-.1.1v-.2.1Zm.2 1-.1-.1.1-.1v.1Zm.3 0h-.2.2Zm-1.6-.3h-.2l.1-.2v.2Zm3.6 4.1h.2v.2l-.2-.2Zm.3-1v.3l-.2-.2h.2Zm-.2 1.6h-.3l.2-.2.1.2Zm-.5.1v-.2.2Zm-1.5-1.4-.2-.1h.2v.1Zm1.5.3.1.2H79l.1-.2Zm-1.9-1h-.1v-.1h.1Zm1.3-.2-.1.2v-.2h.1Zm-.4 0h-.2v-.2l.2.1Zm.7.2v.2l-.1-.1.1-.1Zm-.4 1.3.1.2h-.2l.1-.2Zm1.4-1.4v.2-.2Zm-.3-.2-.1-.3.2.1-.1.2Zm-1.8.8v-.2l.2.1h-.2Zm2 .2v.4l-.3-.2.2-.2ZM79 70h-.2l.3-.2v.2Zm-.8 0 .1-.2v.2h-.1Zm1.3 1h-.4l.3-.3.1.3Zm-1.8.9-.2-.2h.2v.2Zm2-1-.2.1v-.2l.1.1Zm.2 1-.2-.2h.2v.1Zm-1.4-.4h-.2l.2-.1v.1Zm-3.3-6.1-.3.4v-.5h.3Zm-16.7-5.3v-.3l.2.2h-.2Zm-.3-.7v.3l-.2-.2h.2Zm-.2 1.2-.2.3v-.4h.2Zm6.2 3.8-.1.1v-.1Zm-3.4-1.6v.2l-.1-.1Zm-2.8-3 .3.2-.4.2v-.4Zm1.3 1 .1-.2v.2h-.1Zm-.7.6.2.2h-.3v-.2Zm.5.2-.1-.2h.2l-.1.2Zm1-.6.1.4-.3-.2.3-.2Zm3.1 3H63l.1-.1.1.1Zm-.7-3.9-.2.1V60l.2.1Zm-2 1.4.1.1h-.2l.1-.1Zm.2-.4h.2l-.1.2-.1-.2Zm.4-.3h.2l-.1.2-.1-.2Zm1 .3-.3.3V61l.3.2Zm-1 .4H61l.2-.1v.1Zm0 .8H61h.2Zm1-.7v.2-.2Zm-.3 1v.1-.1Zm-2-1.1h-.2.1Zm2.8-.4.1.1-.3.2V61h.2Zm-.6-.6v.2l.2-.2Zm-3.5.4.1.2h-.2V61Zm-.1-1.5.3.2-.2.1-.1-.3Zm-1.5.8.4-.3v.4H57Zm.9-.3v-.2h.1l-.1.2Zm.6.5v.2h-.1v-.2Zm6.7-1.5v.3L65 59h.2Zm-2.3.3-.3.4-.1-.5h.4Zm1 1.5h.2l-.2.2v-.2Zm1 1.6h.2l-.1.1v-.1Zm.7-1.3.2.1-.2.1V61Zm-.5-.7.2.1H65v-.1Zm-.2-1h.2l-.1.1h-.4l.2-.4.1.2Zm-3-.6-.1.5-.4-.5h.6Zm2.5 0v.6l-.4-.4.4-.1Zm-1.8-.1.3.4-.5.2.2-.6Zm2.7 0 .1-.1.1.2h.2l-.3.3v-.3Z"/><path fill="#CDE8DD" d="m62.4 58.3.3.2-.4.2v-.4Zm0 .7-.2-.2.2-.1v.3Zm1.1-.3h.2v.2l-.2-.2Zm1.7 2.4h-.3l.2-.1v.1Zm.3-1.1h-.3l.2-.2v.2Zm-1.6 3-.2-.1h.2Zm-1.2.8-.2-.1h.2ZM64 60h.2Zm1.3.1H65l.2-.1v.1Zm-.2-1.6.2-.4h.3l-.1.1.1.2-.5.1Zm-1.8.4v-.3h.2l-.2.3Zm-.6 1.4h-.2v-.2l.2.2Zm.8-.9h-.3v-.2l.3.2Zm-.2.9V60l.2.1-.2.2Zm.7-.7v-.2h.2l-.2.2Zm.8-.8h.3l-.2.2-.1-.2Zm-.6.2v.3l-.3-.2.3-.1Zm-.6.4v.3l-.2-.2h.2Zm-.4.2v.2l-.2-.1.2-.1Zm-.6 0v.3l-.2-.1.2-.1Zm3-.2.4.2-.4.1v-.3Zm-1.2 1.1H64l.2-.2v.2Zm-.3.7h-.3l.2-.2v.2Zm1-1.4h-.3l.2-.2v.2Zm-.5-.2h-.5l.4-.4.1.4Zm-1.3-.6H63l.2-.3.1.3Zm-1.1-.3-.4-.4.4-.1v.5Zm0 .5-.1.3-.2-.3h.3Z"/><path fill="#CDE8DD" d="m63.2 59.3-.1-.2h.2v.2Zm.4-1v.2l.1.1h-.1v.1l-.3-.3h.3Zm.4.8h-.3V59l.3.2Zm-.6 2.5v-.1h.2l-.2.1Zm.3-1.6v-.2l.2.1-.2.1Zm.3 0v-.2l.2.1-.2.1Zm.8 0-.3.3V60l.3.2Zm-1.1.8-.4.3v-.4l.4.1Zm-2.2-1 .2-.3v.3h-.2Zm-.2.7v.3l-.2-.1.2-.2Zm-.1-.2h-.3l.2-.2.1.2Zm-.6.3h.2l-.2.2v-.2Zm1-1.5v.4l-.4-.3.4-.1Zm.8.7v.3l-.2-.3h.2Zm.2.6h-.2l.2-.2v.2Zm-.8-.4.2.4-.4-.1.2-.3Z"/><path fill="#CDE8DD" d="m66 62-.2.3V62l.3.2Zm-2.2-3.6.3.1v-.2h.2l-.2.2h.2l-.4.5v-.6Zm1.6 5.5h-.2.1Zm-.4.7h.1Zm.6-4v.1h-.1l.1-.1Zm0-1.7.3.3h-.4v.1l-.2-.2h.2l.1-.2Zm0 .7v.1h-.3l.1-.3.1.2Zm-.6-.3h.3v.4H65v-.4Zm-1.4-.3.3.3h-.5v.2l-.1-.2h.2l.1-.3Zm1-.5.4-.2v.5l-.4-.3Z"/><path fill="#CDE8DD" d="m65.2 62.7-.2.2v-.2h.2Zm-.5-4.7H64l.5.8.2-.8Zm-1.5 0-.9.2.6.7.3-.8Zm-1.5.3-.6.2.5.5.1-.7Zm3.7-.4h-.6l.4.4.2-.4Zm-1.5.1h-.6l.5.5.1-.5Zm-4.1 2-.2.4-.3-.4h.5Zm-1-.3-.1.5-.5-.4.5-.1Z"/><path fill="#CDE8DD" d="M61.2 59.2v.5l-.4-.3.4-.2Zm-1.9.3.5.2-.5.4v-.6Zm-.2-.3.3.1-.3.3v-.4Z"/><path fill="#CDE8DD" d="M59.3 59.8H59l.1-.2.2.2Zm.9-.4h.2v.2l-.2-.2Zm-.2.4-.1-.3h.3l-.2.3Zm0 1.3h-.4l.1-.1.2.1Zm.2-.9h-.3l.1-.1.2.1Zm0 1v-.3h.2l-.1.2Zm.8-1.6.1.3-.3-.1.2-.2Zm-.7.6.1.3-.2-.1.1-.2Zm-.3.2v.2l-.2-.1.2-.1Zm-.4.1v.3l-.1-.1.1-.2Zm.4-.7h-.3l.2-.2.1.2Zm-1-.1-.6-.3.5-.2v.5Z"/><path fill="#CDE8DD" d="m59.3 60-.1.4-.3-.2.4-.1Zm.7 0-.2-.1.2-.1v.2Zm.2-.9v.1h.1v.1l-.1.2-.3-.3h.3Zm.4.7h-.3l.2-.2.1.2Z"/><path fill="#CDE8DD" d="m60.5 59 .3.1-.1-.2h.2v.2l-.2.5-.2-.5Zm-.2.7.3.3-.4.1v.1L60 60h.2l.1-.3Z"/><path fill="#CDE8DD" d="m61.2 58.5-.7.2.7.7v-1Zm-1.3.3-.8.3.6.6.2-.9Zm-2 1-.4.1.3.3v-.4Zm.5 3.3.2-.2v.2h-.2Zm-1.6-.8v.2l-.2-.2h.2Zm2.9 1.5-.1.3-.1-.2h.2Zm-4.1-2h.2v.2l-.2-.1Zm.8-.1.2.2h-.3l.1-.2Zm-.3-.1v-.2h.2l-.2.2Zm-.4-.6v.3l-.2-.1.2-.2Zm0 1.4v.1l-.1-.1h.1Zm0-1h.2l-.3.3v-.4Zm1.5.6.1.1h-.1Zm-.6.9.2.1-.2.1v-.2Zm2.9-.2.2.2h-.2v-.2ZM57 63l-.1-.2h.2v.2Zm1.3-1 .1.4h-.3l.2-.3Zm.2.6-.1.2v-.2Zm0-.5h.2l-.1.2-.1-.2Zm.3-.4h.2v.2l-.2-.2Zm.8.2-.3.4v-.5l.3.1Zm-.6.6h-.3l.2-.2v.2Zm-1 .2v.1l-.1-.1Zm-2-.2.3.2h-.2v-.2Zm0 .8.1.2H56v-.2Zm0-2.4h.3v.2L56 61Zm-1.2 1 .1-.1.2.1h-.3Zm.6-.4v-.2h.2l-.2.2Zm.7.3.1.1h-.1Zm2.8-.4v.3l-.2-.1.2-.2Zm0-.2h-.3V61l.2.2Zm-.6.4h.3l-.2.2v-.2Z"/><path fill="#CDE8DD" d="M57.3 61.2v.5l-.4-.4.4-.1Zm-1-.1v.5l-.5-.2.4-.3Z"/><path fill="#CDE8DD" d="m56.8 60.8.5.2-.5.4v-.6Zm-.3-.1h.3l-.2.3-.1-.3Z"/><path fill="#CDE8DD" d="M56.8 61.2h-.3l.1-.3.2.3Zm.7-.4-.3-.4h.5l-.2.4Zm.2 1.5h-.2v-.1h.2Zm.1-1-.3.1v-.2l.3.1Zm.6.8-.2-.2h.3l-.1.2Zm-.4-.8v.3l-.2-.1.2-.2Zm-.3.2v.3h-.2l.2-.3Zm-.4.3.2.2h-.3l.1-.2Zm.2-.8h-.3l.1-.2.2.2Zm-1 0-.5-.2.3-.2.2.4Zm.3.4v.4l-.2-.1.2-.3Zm.7-.2h-.2l.2-.2v.2Zm1-.5-.3.1v-.2l.2.1Zm-.5 0 .3.3-.4.2h-.2l.2-.2v-.2Zm-1-.6-.5.4.6.2v-.6Zm-1.7 1.3-.3.2.4.2-.1-.4Zm5.2-2.7-.6.2.6.4v-.6Z"/><path fill="#A7D1C2" d="M20.3 86.3c3.1-4.9 8.3-3.9 8.3-3.9s-2.7-2.7-.6-7.5a6.6 6.6 0 0 1 2.4-3l-.2 1.7a8.5 8.5 0 0 0 13 7.2 9.4 9.4 0 0 0 13.2 4.8 5 5 0 0 0 9.5.8 8.5 8.5 0 0 0 9 1.1c.3 2.5 2 4.5 4.3 5.3H19.7s-2.6-1.5.6-6.5Zm103.2 4c.2-2.6 1.2-5 2.7-7a11.5 11.5 0 0 0 20.5 2.6l.1.2c2.7-1.7 6-2.1 9.1-1.1a9.5 9.5 0 0 1 2.6-8 4 4 0 0 0-.6 2.2 4.8 4.8 0 0 0 7.4 4 7 7 0 0 0 12.8.1 10.8 10.8 0 0 0 16.4 3.4 7 7 0 0 0 5.3 6.3h-87.1s10-.1 10.8-2.7Z"/><path fill="#D69072" d="M42 36.2h-.3c-2 .5-3.9-.8-4.3-2.8L33 11.2c-.4-2 1-4 2.9-4.3h.3c2-.5 3.9.8 4.3 2.8L45 31.9c.4 2-.9 4-2.9 4.3Z"/><path fill="url(#d)" d="m37.4 33.3-4.4-22c-.3-1.4.3-2.9 1.4-3.7 0 0 3 2.2 7 12.3.1.6 2.8 10.9 3.2 10.6l.3 1.3a3.8 3.8 0 0 1-7.5 1.5Z"/><path fill="#B27059" d="M41 26.6h.3l-.2-.2v.2Zm.7 6.1v-.3l-.2.1.2.2Zm-.1-2v.3l.2-.2-.2-.1Zm-2-2.8-.1-.3-.1.2h.2Zm2.8 3.7v-.2h-.2l.2.2Zm.8-1 .2-.2h-.2v.2Zm-2.5 3.2.3.1-.1-.3-.2.2Zm-1-1.3h.3v-.2l-.3.2Zm-.9-.6.3.1v-.3l-.3.2Zm-.2-.7.3.1V31l-.3.2Zm4.5 3.9.1.3.1-.3h-.2Zm-1-5.7v-.2h-.2l.1.2Zm2 5.2v-.1H44Zm-1.4.2-.2-.1v.2l.2-.1Zm-.3-4v-.4l-.2.2.2.2Zm1.3 4h-.3l.1.3.2-.3Zm-1 .6-.1-.3-.3.3h.3Zm0 .4v-.3l-.2.3h.3ZM44 34h-.2l.2.2V34Zm.3 0-.2.2h.2V34Zm-1.4-1 .2-.2H43v.2Zm.2.8-.2.3h.3l-.1-.3ZM42 35l-.2.3h.3L42 35Zm1.3-3v-.3l-.2.1.2.1Z"/><path fill="#B27059" d="M41.8 33h.2-.2Zm1.5 2.2.2.2v-.3h-.2Zm-.3-1V34l-.2.1.2.3Zm.9.5.1.3.2-.2-.3-.1Zm-3.4-3.1.1-.3h-.3l.2.3Zm2.6 3.2v-.2H43l.2.2Zm-1.3-1.2.3.4.1-.5h-.4Zm1.5-1 .2-.2h-.2v.1Zm-.4.7v.3l.2-.2h-.2Zm-2.7-2.8.1-.3-.3.1.2.2Zm2.6 5.4.5-.3-.5-.1v.4Zm-2-.1.2-.5-.5.1.3.4Zm1.7-2.7v-.3l-.3.1.3.2Zm-.4-.6h.4l-.4-.3v.3Zm1.4 2-.1-.2-.2.2h.3Zm-1.5 0 .4.3-.1-.5-.3.3Z"/><path fill="#B27059" d="M41.2 28.7v-.2l-.1.1.1.1Zm.4 5.6.3-.2-.2-.2-.1.4Zm-.7-1 .3-.1-.3-.3v.5Zm.7 3V36l.1.1.2-.2h-.3v-.4l-.6.4.6.3Zm.9-6.3v-.3l-.2.2h.2Zm-1 2 .2.3.2-.3h-.3Zm-1-4-.2-.2v.2h.2Zm1.7.8h.1v-.1l-.1.1Zm-.9-.7v-.2l-.1.1.1.1Zm1.4 4-.1-.2v.3l.1-.1Zm-.4 2v-.3l-.3.3h.3Zm-.7-4.1v-.4l-.3.3h.3Zm.8-3h-.2l.2.2v-.3Zm-.6.8h.2l-.2-.2v.2Zm.8 6.4-.1.1.2.1.2-.2-.3-.2v.2Zm-1.6-3V31h-.2l.2.3Z"/><path fill="#B27059" d="m41.5 33.9.2-.5-.4.1.2.4Zm.1 1.8h.5l-.4-.4-.1.4Zm-1.5-.1v.3l-.2-.2v.4l.2-.1v.1l.6-.3-.6-.2Zm-3-3.8 1.5.4-1.2.9-.3-1.3Zm2 .4.6.4-.6.1v-.5Zm0 1.6.5.2-.2-.4-.2.2Zm1.4 2.5h.5V36l-.4.4Zm-1.6-4.9.4.4.2-.4H39Zm3 4.4.4.3.2-.5-.6.2Zm-1-2.4-.2-.3-.2.3h.4Zm0 .7v.3l.3-.1-.3-.2Zm.7 1.3H41l.2.3.3-.3Zm.9-1.9v-.2l-.2.1.2.1Zm-.6 1.6-.6-.4v.6l.6-.2Zm-.4-.7-.3-.2v.4l.3-.2Zm-1.2 1h.1v.1h.2l-.2-.2h.3l-.5-.4v.5Zm1-2.5v-.2l.2.1v-.1h-.1v-.3l-.4.3.4.2Zm-1.8 1.7.6.4-.1-.7-.5.3Zm-.9.7.9-.2-.4.6-.5-.4Zm1.1.4.4-.2-.3-.2v.4Zm.2-2 .3-.1-.3-.2v.4Zm-1.6.1.3.6.2-.6h-.5Zm1.3 0 .2.3.1-.3h-.3Zm.8.7.1.3.2-.3h-.3Z"/><path fill="#B27059" d="m41 33.4.2.4.1-.4H41Zm-1-.2V33l-.2.1.2.2Zm-1.2.8.4-.2-.3-.1v.3Zm.5 0v.6l.5-.3v-.2l-.2.1-.3-.1Zm-1.9-.8.8-.5v1l-.8-.5Zm2.4 2.9-.6-.3.4-.6.2.9Zm.3-1.7v-.6l.6.3-.6.3Zm.1-.9.4-.3v.6l-.4-.3Z"/><path fill="#B27059" d="M38.4 34.1v-.7l-.7.4.7.3Zm.2-.6v-.7l-.5.3.5.4Zm-.6 1.2-.3-.6.9.3-.6.3Zm1.8.3h-1l.2-.9.8.9Z"/><path fill="#B27059" d="m41.1 35.3-.4-.3.5-.3v.6ZM40 32h.5l-.3-.4-.2.4Zm-.8.8-.6.6.8.2-.2-.8Zm-.3 1.7-.9.2.6.6.3-.8Z"/><path fill="#B27059" d="m38.9 32-.6.7.7.2-.1-.9Zm-.4-.4-.5.2.4.3v-.5Zm1.7 3.2-.4.5.5.1v-.6Zm-.6-2-.4.3.5.2-.1-.6Zm.5-1.3-.7.2.4.4.3-.6Zm.5 1.4-.4-.4.4-.1v.5Zm-3.7-2 1.4.4-1 .8-.4-1.1Zm-.7-3.8 1.3.4-1.1.7-.2-1.1Zm-.2-.8.8.2-.7.5v-.7Zm-.2-1 .8.2-.7.4-.1-.7Zm-.2-1.3.7.3-.6.4-.1-.7Zm-.2-.8.8.2-.7.5-.1-.7Zm6.3 11.2.5.4-.6.2.1-.6Zm1.2-5.8h.2l-.1-.1-.1.1Zm-3-.1v.3l.3-.2-.2-.1Zm.4.8v.4l.2-.2-.2-.2Zm-1.7 1.3.4.4.1-.4h-.5Zm-.9-.7.4.4.2-.4h-.6Zm3-.6h.4l-.2-.2-.2.2Zm.4.8v-.3l-.3.2.3.1Zm-1.5 1 .5.1-.3-.4-.2.4Z"/><path fill="#B27059" d="M40.1 30.6h-.4l.1.2.3-.2ZM38 28.9h-.4v.2l.4-.2Zm-.3 2.4-.6.6.8.2-.2-.8Zm.8-.5-.6.6.7.2-.1-.8Z"/><path fill="#B27059" d="m38.3 30.4-.7.3.7.4v-.7Zm-.8-1-.7.3.7.4v-.8Zm-.1-1.6-.7.3.7.4v-.7Zm3.2 2.2-.1.3h.2V30Zm-1 .7-.6.2.4.3.3-.5Zm1.2 1.9.3-.5h-.6l.3.5Zm.6-1 .2.2v-.3l-.2.1Zm-2.6-2.8.6.2v-.7l-.6.5Zm1.5-.2.4.2v-.5l-.4.3Zm-.2 1.2-.4.1.2.3.2-.4Zm0-.2-.2-.3-.2.3h.3Zm-1.6-.7-.2-.3v.3h.2Zm2.8 1.4-.3.1.2.2v-.3Zm-1 .8.2-.1-.3-.2v.3Zm.6.3-.1.1.2.1v-.2Zm-2-1 .1-.1.2.1.1-.2H39l.1-.4-.7.4.6.3Z"/><path fill="#B27059" d="m39.4 29.7.2.5.2-.5h-.4Zm-1.7-1.4.3.4.2-.6-.5.2Zm-1-1.5.3.4.2-.6-.6.2Zm1.7 1.5.2.5.2-.5h-.4Zm.4.7.2.5.1-.5h-.3Zm-1 .7.1-.8 1 .8h-1.2Zm-.8 1.4-.3-1.3 1 .6-.7.7Zm-.3-1.5-.3-1.2 1 .6-.7.6Zm2.8-.4-.1.3h.3l-.2-.3Zm0-6.6h.2l-.1-.1v.1Zm.5 4.1v.3l.3-.2H40ZM38 24v-.3l-.1.3h.1Zm2.5 1.5v-.2l-.1.1.1.1ZM39 27.7l.2-.3h-.3l.1.3Zm-.2-1.1.1-.3h-.3l.2.3Zm1-1.8v-.2h-.1l.1.2ZM41 26v-.2l-.2.2h.2Zm-2-2-.2-.1v.2h.1Zm-.4-1h.2l-.1-.2v.2Zm1.2 1.2V24h-.1l.1.2ZM40 26v-.3l-.3.3h.3Zm-1-4.4h-.2l.1.2v-.2Zm.8 1.7h.2l-.2-.2v.2Zm-.4 4 .1-.3h-.2l.1.3Zm-2 .2.4.4.2-.4h-.6Zm1 .6h.6l-.3-.4-.2.4Z"/><path fill="#B27059" d="m38.5 27.6-.7.2.5.4.2-.6Zm2.9-3h.2-.2Zm-3.2 0v.4l.2-.2-.2-.1Zm.6.8v.3l.2-.2h-.2ZM37 26.7l.3.4.2-.4H37Zm-.9-.7.4.4.1-.4h-.5Zm3-.6h.3l-.1-.3-.2.3Zm-.7-.5.4-.1-.2-.2-.2.3ZM37 21.3h.3L37 21l-.1.3Zm2.6 4.9v-.3l-.3.1.3.2Zm-1.5 1h.4l-.2-.4-.2.4Z"/><path fill="#B27059" d="m38.6 26.7-.4-.1.1.3.3-.2Zm-2-2-.6-.1v.6l.6-.6Zm2.5 1.4-.1.2h.2l-.1-.2Zm-1 .7-.6.1.4.4.2-.5Zm-1-2.2.6.3-.1-.8-.5.5Zm-.5-1 .4.3v-.5l-.4.3Zm2 2.3h-.4l.2.3.1-.3Zm0-.2-.3-.3v.2l.2.1ZM37 25l-.2-.3-.1.2.3.1Zm2.7 1.4-.3.1.3.2v-.3Zm-1 .8.3-.2h-.3v.2Zm-1.2-.6v-.3l.1.2.2-.2h-.3v-.4l-.6.4.6.3Zm.4-.9.2.6.1-.5H38Zm-2-2 .5.5.2-.6-.6.2Zm1.3 0 .4.4.2-.6-.6.2Zm-.6.4.2.5.2-.5h-.4Zm.6 1 .2.5.2-.5h-.4Zm-1 .7.2-.9 1 .8h-1.2Zm1.8-.5-.2.3.3-.1-.1-.2Zm-3.1-4.7 1.3.3-1 .8-.3-1.1Zm-.2-.9.8.3-.7.4v-.7Zm-.2-1 .8.2-.7.5v-.7Zm-.2-1.2.7.2-.6.5-.1-.7Zm-.2-.9.8.3-.7.4-.1-.7Zm2 4.7-.7.3.7.4v-.7Zm.4 1.3-.7.3.7.4v-.7Zm-1.2-2.3.4.4.2-.6-.6.2Zm0 2.8-.2-1.3 1 .7-.7.6ZM36 14h.2l-.2-.1v.1Zm.6 3v-.2l-.2.2h.2Zm2.3 3v-.1h-.2l.2.2Zm-1.2.3.1-.3-.3.1.2.2Z"/><path fill="#B27059" d="M38.4 18.3V18h-.1l.1.2Zm-.7-.8-.2-.2v.3l.2-.1Zm-1-1.7h.2l-.1-.2v.2Zm1.8 1.8v-.1h-.1l.1.1ZM36.1 16v-.3l-.3.3h.3Zm2 7.1v-.3l-.2.3h.3ZM36 14.5h-.2l.1.2v-.2Zm1.8 1.6h.2l-.2-.2v.2ZM36.1 21l.4.4.2-.4h-.6Zm2.8-2.1h.2l-.1-.2v.2Zm-2-.7v.3l.2-.2-.2-.1Zm-2-3.1-.1.3.3-.2-.3-.1Zm2.6 3.8v.3l.2-.2h-.2Zm-1.7 1.3.4.4.1-.4h-.5Zm-.9-.7.4.4.1-.4H35Zm2.8 2.8.3-.1-.2-.2-.1.3Zm0-1V21l-.2.2.3.1Zm-1-.6h.5l-.2-.4-.2.4Zm-.3 1.1h.5l-.2-.4-.3.4Zm-.2.5.4.1-.2-.4-.2.3Zm1.2-.5-.3-.1v.3l.3-.2Zm-2.3-3.3-.3-.1v.3l.3-.2Zm0-2.2h-.4l.1.2.3-.2Zm3 3-.2.3h.3l-.1-.3Zm-.5 3.6-.6.2.4.4.2-.6Zm-1-.2.6.2-.1-.7-.5.5Zm-1.3-5.5.4.2V17l-.4.3Zm1.6 2.3-.4.1.3.3v-.4Zm.4-.5-.1-.3-.2.2h.3Zm-1.6-.5-.2-.3-.1.2.3.1Zm2.7 2.1h.3l-.3-.2v.2Zm-2.2-.5v-.3l.1.2.2-.2h-.3v-.4l-.6.4.6.3Z"/><path fill="#B27059" d="m36.3 20.3.2.5.2-.5h-.4Zm-1.6-3 .4.4.2-.6-.6.1Zm.7.2.1.6.2-.5h-.3Zm-.1-1.7.2.5.2-.5h-.4Zm.7 2.5.2.5.1-.5H36Zm-1 1 .1-.9 1 .8h-1.2Zm1.6-.4-.2.3.3-.1-.1-.2Zm-.2-1.6-.1.3h.3l-.2-.3Zm-2.6-1.7 1 .2-.8.5-.2-.7Zm-.2-1.1.8.2-.6.5-.2-.7Zm-.2-1 .8.2-.7.4v-.6Zm-.2-1.3.8.3-.7.4-.1-.7Zm-.2-.8.8.2-.7.5v-.7Zm1.2 3.6.4.5.2-.7-.6.2Zm0-6.5h.2l-.2-.2v.2Zm1.2 3.2v-.3l-.2.2h.2Zm3.2 4.5V16l-.1.1.1.1Zm-2-4-.2-.1v.2h.2Zm-1.8-1.8h.2v-.1l-.2.1Zm2 3.4v-.2h-.2l.1.2Zm-2.2-3v-.4l-.3.3h.3ZM33.9 9l-.2.1.2.2V9Zm2.3 2 .2-.2h-.2v.1Zm-.4 1.8v.3l.2-.2-.2-.1Zm-2.4-3v.3l.2-.2-.2-.1Zm2.8 4.4v.4l.2-.2-.2-.2Zm-.8.8.3.4.2-.3h-.5Zm-1.6-.9.4.4.2-.4h-.6Zm.3-1-.4-.1v.3l.4-.2Zm0-2.2h-.5l.1.3.3-.3Zm.1.9.4.2v-.5l-.4.3Zm1 2.5H35l.3.3v-.3Z"/><path fill="#B27059" d="m37.3 14.6-.2-.3v.2h.2Zm-2.7-1.4-.2-.3v.2l.2.1Zm1.2 3.5v-.2l.2.2.2-.3H36V16l-.7.4.6.3ZM33.6 12l.4.4.2-.6-.6.2Zm.7.3.2.5.1-.5h-.3Zm-1.1-1.7.2.5.2-.5h-.4Zm1.7 2.4.2.5.1-.5H35Zm-.6 1 .1-.5.5.5h-.6Zm1.2-.4-.2.3h.3l-.1-.3Zm-.2-1.5v.3l.2-.1-.2-.2Z"/><path fill="#E8A374" d="M36.7 16.5h-.2l.1.2.1-.2Zm-.5-6-.1.2.2-.1-.1-.2Zm0 2V12l-.2.2.2.2Zm2 2.8v.3l.2-.3h-.2Zm-2.8-3.8v.2h.2l-.2-.2Zm-.9 1-.1.2h.2v-.2Zm2.6-3.2-.3-.1.1.3.2-.2Zm1 1.4-.3-.1v.2l.3-.1Zm.9.5h-.3v.2l.3-.2Zm.1.7h-.3l.2.2.1-.2ZM34.8 8l-.2-.3-.1.3h.3Zm1 5.7-.1.2h.2l-.2-.2Zm-2-5.2-.1.1h.1v-.1Zm1.3-.2.2.2v-.3l-.2.1Zm.3 4v.4l.2-.2-.2-.2Zm-1.3-4h.4l-.2-.3-.2.3Zm1.1-.6V8l.3-.2-.3-.1Zm-.2-.4v.3l.3-.3H35ZM33.8 9h.2l-.2-.2V9Zm-.3 0 .2-.2h-.2V9Zm1.4 1-.2.2h.2V10Zm-.1-.8.1-.3h-.3l.2.3Zm1-1.2.1-.3h-.3l.2.3Zm-1.4 3v.3l.2-.1-.2-.1Z"/><path fill="#E8A374" d="M36 10h-.2l.2.2V10Zm-1.5-2-.1-.3-.1.3h.2Zm.4.8-.2.3h.3l-.1-.3Zm-1-.4v-.3l-.2.2.3.1Zm3.4 3.1-.1.3h.3l-.2-.3Zm-2.6-3.2v.2l.2-.1-.2-.1ZM36 9.5l-.3-.4-.1.5h.4Zm-1.5 1-.2.2h.2v-.2Zm.5-.7v-.3l-.3.1.3.2Zm2.6 2.8-.1.3h.3l-.2-.3ZM35 7.2l-.4.2.4.2v-.4Zm2 .1-.2.5.5-.1-.3-.4ZM35.4 10v.3l.2-.1-.2-.2Zm.3.6h-.3l.3.3v-.3Zm-1.3-2v.2l.2-.2h-.2Zm1.5 0-.5-.3.1.5.4-.3Zm.7 5.8v.2l.1-.1-.1-.1Zm-.3-5.6-.4.2.3.2v-.4Zm.7 1-.4.2.3.2v-.4Zm-.7-3V7H36l-.1.2h.2v.4l.7-.4-.6-.3Zm-1 6.3v.3l.2-.2h-.2Zm1-2L36 11l-.1.2h.2Zm1 4 .2.2v-.2h-.2Zm-1.7-.8h-.2l.2.2v-.2Zm.8.7v.2h.2l-.2-.2Zm-1.3-4 .1.1V11l-.1.1Zm.4-2v.3l.3-.3h-.3Zm.7 4.2v.3l.3-.3h-.3Zm-.9 3 .2-.1-.1-.2v.3Zm.7-.9-.2.1.2.1v-.2ZM35.2 9l.1-.1-.1-.1-.3.2.3.2V9Zm1.6 3v.3h.2l-.2-.3Z"/><path fill="#E8A374" d="m36.3 9.2-.2.5.5-.1-.3-.4Zm0-1.8h-.6l.4.4.1-.4Zm1.5.2v-.4l.2.2V7h-.2l-.7.3.7.3Zm2.9 3.7-1.5-.3 1.2-1 .3 1.3Zm-2-.3-.6-.4.6-.2v.6Zm0-1.7-.4-.1v.4l.3-.3Zm-1.3-2.5h-.6l.2.4.4-.4Zm1.5 5-.4-.5-.2.4h.6Zm-3-4.5-.4-.3-.1.5.5-.2Zm1 2.4.2.3.2-.3H37Zm0-.7v-.3l-.3.1.3.2Zm-.6-1.3h.4l-.1-.3-.3.3Zm-1 1.9v.2l.2-.1-.2-.1ZM36 8l.5.4v-.6L36 8Zm.3.7.3.2v-.4l-.3.2Zm1.3-1h-.3l-.2.2.5.3v-.5Zm-1.1 2.5v.2l-.2-.1v.1h.1v.3l.5-.3-.4-.2Zm1.8-1.7-.5-.4v.7l.5-.3Zm1-.7-1 .2.4-.6.5.4ZM38 7.5l-.3.2h.2l.1-.2Zm0 1.8-.4.3h.3v-.3Zm1.5 0-.3-.6-.2.7.5-.1Zm-1.3 0L38 9v.3h.2Zm-.8-.7-.1-.3-.1.3h.2Z"/><path fill="#E8A374" d="m36.8 9.7-.2-.3-.1.3h.3Zm1 .2v.3l.3-.1-.3-.2ZM39 9l-.3.2.3.2V9Zm-.4 0v-.6l-.5.3H38V9l.3-.2.3.1Zm1.8.8-.8.5v-1l.8.5ZM38 7l.6.3-.4.6L38 7Zm-.3 1.7v.7L37 9l.6-.3Zm-.1.9-.4.3v-.5l.4.2Z"/><path fill="#E8A374" d="M39.5 9v.7l.7-.3-.7-.4Zm-.3.7v.7l.5-.3-.5-.4Zm.6-1.2.4.6-1-.3.6-.3Zm-1.7-.3.8-.2-.1 1-.7-.8Z"/><path fill="#E8A374" d="m36.7 7.8.4.3-.5.3.1-.6Zm1.1 3.3h-.5l.3.4.2-.4Zm.8-.7.6-.7-.8-.2.2.9Zm.3-1.8.9-.2-.6-.6-.3.8Z"/><path fill="#E8A374" d="m39 11 .6-.5-.8-.3.1.9Zm.3.5.5-.2-.4-.2v.4Zm-1.7-3.2.4-.4-.5-.2.1.6Zm.6 2.1.4-.4-.5-.2.1.6Zm-.5 1.2.7-.2-.4-.4-.3.6Zm-.5-1.4.5.4-.5.1v-.5Zm3.7 2-1.4-.4 1-.8.4 1.2Zm.8 3.9-1.4-.4 1.1-.8.3 1.2Zm.1.8-.8-.2.7-.5.1.7Zm.2 1-.7-.2.6-.5.1.7Zm.3 1.2-.8-.2.7-.5v.7Zm.2 1-.8-.3.6-.5.2.7ZM36 8.6l-.5-.4.6-.2v.6Zm-1 5.9h-.2l.1.1v-.1Zm3 .1v-.3l-.3.2.2.1Zm-.4-.8v-.3l-.2.2h.2Zm1.7-1.3-.4-.4-.1.4h.5Zm.9.7-.4-.4-.2.4h.6Zm-3 .6h-.4l.2.2.2-.2Zm-.4-.8v.3l.3-.2-.3-.1Zm1.5-1-.5-.1.3.4.2-.3Z"/><path fill="#E8A374" d="M37.7 12.5h.3v-.2l-.3.2Zm2.1 1.8h.4V14l-.4.3Zm.3-2.5.6-.6-.8-.2.2.8Zm-.8.5.6-.5-.8-.3.2.8Z"/><path fill="#E8A374" d="m39.5 12.8.7-.3-.7-.4v.7Zm.8 1 .7-.3-.7-.4v.7Zm.1 1.6.7-.3-.7-.4v.7ZM37.2 13l.1-.2h-.2v.2Zm1-.7.6-.1-.4-.4-.3.5ZM37 10.5l-.4.5h.6l-.2-.5Zm-.7 1-.2-.2v.3l.2-.1Zm2.6 2.8-.6-.2v.7l.6-.5Zm-1.5.3-.5-.3.1.5.4-.2Zm.2-1.3h.4l-.3-.3v.3Zm0 .2.2.3.1-.2-.3-.1Zm1.6.7.1.3.2-.2-.3-.1Zm-2.8-1.4.3-.1-.2-.2v.3Zm1-.8-.2.1.3.2V12Zm-.6-.3.1-.1-.2-.1v.2Zm1.9 1v.1h-.2l-.1.1h.3l-.1.4.7-.3-.6-.4Zm-.4.7-.2-.5-.2.5h.4Zm1.8 1.5-.4-.5-.2.7.6-.2Zm1 1.5-.4-.4-.2.6.6-.2Zm-1.8-1.6-.2-.5-.2.5h.4Zm-.4-.7-.2-.5-.2.5h.4Zm1-.7-.1.9-1-.8H40Zm.8-1.3.3 1.2-1.1-.6.8-.6Zm.3 1.4.3 1.3-1-.6.7-.7Zm-2.8.4.1-.3-.3.1.2.2Zm0 6.7H38l.1.1.1-.1Zm-.5-4.1v-.3l-.2.1.2.2Zm2 2.8v.3l.2-.3h-.2Zm-2.5-1.5v.2l.1-.1-.1-.1Zm1.6-2.3-.2.3h.3l-.1-.3Zm.3 1.1-.2.3h.4l-.2-.3Zm-1 1.8-.1.2.2-.1-.2-.1Zm-1.3-1.2v.2l.1-.2h.1Zm2 2 .1.1v-.2h.1Zm.3 1H39l.1.2.1-.2ZM38 19v.2h.2L38 19Zm-.2-1.8v.3l.3-.3h-.3Zm1 4.4h.3l-.2-.2v.2ZM38 20h-.2l.2.2V20Zm.4-4-.1.3h.2l-.1-.3Zm2-.2-.4-.4-.2.4h.6Zm-1.1-.6-.5-.1.3.5.2-.4Z"/><path fill="#E8A374" d="m39.3 15.6.7-.2-.5-.4-.2.6Zm-2.8 3h-.2.1Zm3.2-.1v-.3l-.3.2.3.1Zm-.6-.7v-.4l-.3.3h.3Zm1.7-1.3-.4-.4-.2.4h.6Zm.8.7-.3-.4-.2.4h.5Zm-3 .6h-.3l.2.3.1-.3Zm.7.5-.3.1.1.2.2-.3ZM41 22h-.3l.1.3.2-.3Zm-2.7-5v.3l.2-.2-.2-.1Zm1.5-1-.5-.1.3.4.2-.3Z"/><path fill="#E8A374" d="M39.2 16.5h.4v-.2l-.4.2Zm2 2h.6V18l-.6.5Zm-2.4-1.4v-.2h-.2l.2.2Zm1-.7.6-.1-.5-.4-.2.5Zm1 2.2-.6-.3v.8l.6-.5Zm.5.9-.5-.2.1.5.4-.3Zm-2-2.2h.4l-.3-.3v.3Zm0 .2.2.3.1-.2-.3-.1Z"/><path fill="#E8A374" d="m40.8 18.2.2.3.2-.2-.4-.1Zm-2.7-1.4.3-.1-.2-.2-.1.3Zm1-.8-.2.1.3.2V16Zm1.3.6v.2h-.2l-.1.1h.2v.4l.6-.4-.5-.3Zm-.4.8-.2-.5-.2.5h.4Zm1.9 2-.4-.4-.2.6.6-.2Zm-1.2.1-.4-.4-.2.6.6-.2Zm.5-.4-.2-.5-.2.5h.4Zm-.6-1-.2-.5-.2.5h.4Zm1-.7-.2.9-.9-.8h1.1ZM40 18l.1-.3-.3.1.2.2Zm3 4.7-1.3-.3 1.1-.8.3 1.1Zm.2.9-.7-.3.6-.4.1.7Zm.3 1-.8-.2.6-.5.2.7Zm.2 1.2-.8-.2.7-.5.1.7Zm.2.9-.8-.3.7-.4v.7Zm-2-4.7.7-.3-.8-.4v.7Zm-.5-1.3.7-.3-.7-.4v.7Zm1.2 2.3-.4-.4-.1.6.5-.2Zm0-2.8.2 1.2-1-.6.8-.6Zm-.5 9.2h-.2l.1.1v-.1Zm-.6-3v.2l.2-.2h-.2Zm-2.3-3v.1h.1l-.1-.2Zm1.2-.3-.2.3.4-.1-.2-.2Zm-.9 2v.1h.2l-.2-.2Zm.8.7.2.2v-.3l-.2.1Zm1 1.7H41l.1.2v-.2Zm-1.9-1.8v.1h.2l-.2-.1Zm2.5 1.7v.3l.3-.3h-.3Zm-2.1-7.1v.3l.2-.3h-.2Zm2.2 8.5h.3l-.2-.2v.2Zm-1.7-1.6H40l.2.2V27Z"/><path fill="#E8A374" d="m41.7 22.2-.4-.4-.1.4h.5ZM39 24.3h-.2v.2l.2-.2Zm2 .7v-.3l-.3.2.3.1Zm2 3v-.2l-.2.2h.2Zm-2.6-3.7V24l-.3.2.3.1Zm1.7-1.2-.4-.5-.2.4h.6Zm.9.6-.4-.4-.2.4h.6ZM40.2 21l-.4.1.2.2.2-.3Zm-.1 1v.3l.2-.2-.2-.1Zm1 .6h-.5l.3.4.2-.4Zm.3-1-.4-.2.2.5.2-.4Zm.3-.6h-.5l.3.4.2-.4Zm-1.3.5.4.1v-.3l-.4.2Zm2.3 3.4h.4v-.3l-.4.3Zm.1 2.1h.4l-.1-.2-.3.2Zm-3-3 .1-.3h-.2l.1.3Zm.4-3.7.7-.2-.4-.4-.3.6Zm1 .2-.6-.2.1.7.5-.5Zm1.4 5.5-.5-.2.1.5.4-.3ZM41 23.7l.3-.1-.2-.3-.1.4Zm-.5.5.2.3.1-.2h-.3Zm1.7.5.1.3.2-.2h-.3Zm-2.7-2.1h-.3l.3.2v-.2Zm2.2.6v.2l-.2-.2-.1.2h.2v.4l.7-.3-.6-.3Zm-.2-.3-.2-.5-.2.5h.4Zm1.7 3-.4-.4-.2.6.6-.1Zm-.7-.3-.2-.5-.2.5h.4Zm0 1.8-.1-.5-.2.4h.4Zm-.6-2.5-.2-.5-.2.5h.4Zm1-1-.2.9-.9-.8H43Zm-1.6.4.1-.3h-.3l.2.3Zm.1 1.6.2-.3h-.3l.1.3Zm2.6 1.7-1-.3.8-.5.2.8Zm.2 1-.8-.1.7-.5v.7Zm.2 1.1-.8-.2.7-.5.1.7Zm.3 1.2-.8-.2.6-.5.2.7Zm.1.9-.7-.2.6-.5.1.7Zm-1.2-3.7-.4-.4-.1.6.5-.2Zm.1 6.6h-.2l.1.2.1-.2Zm-1.3-3.2v.3l.2-.3h-.2ZM39.3 27v.2-.2Zm2 4 .1.1V31h-.1Zm1.7 1.8h-.2l.2.1v-.1Zm-1.9-3.4v.2l.2-.1-.2-.1Zm2.2 3v.4l.3-.3h-.3ZM44 34h.2l-.2-.2v.2Zm-2.3-1.8h-.2l.2.1v-.1Zm.3-2V30l-.2.2h.2Z"/><path fill="#E8A374" d="M44.5 33.3V33l-.2.2.2.1Zm-2.8-4.5v-.3l-.3.2.3.1Zm.8-.8-.4-.4-.2.4h.6Zm1.5 1-.3-.4-.2.4h.5Zm-.2 1h.4l-.1-.2-.3.2Zm0 2.2h.4V32l-.4.3Zm-.2-1-.4-.2v.5l.4-.2Zm-1-2.4.3-.1-.2-.3-.1.4Zm-2-.2.1.3.2-.2h-.3Zm2.6 1.4.2.3.1-.3h-.3ZM42 26.4v.3l-.2-.2-.2.3h.4l-.1.4.8-.4-.7-.4Zm2.2 4.8-.3-.4-.2.6.5-.2Zm-.6-.3-.2-.5-.2.5h.4Zm1 1.7-.1-.5-.2.5h.4ZM43 30.2l-.2-.5-.2.4h.4Zm.5-1v.4l-.6-.4h.6Zm-1.1.3v-.3l-.2.1.2.2Zm.1 1.6.1-.3-.3.1.2.2Z"/><path fill="#D69072" d="M29.8 56c-1.8 1.1-4 .6-5-1.1L13.3 36.4c-1-1.7-.5-4 1.2-5s4-.5 5 1.2L31 51c1 1.7.5 4-1.2 5Z"/><path fill="url(#e)" d="M24.7 54.9 13.4 36.4a3.7 3.7 0 0 1 0-3.9s3.5 1 10.4 9c.4.4 6.2 8.9 6.5 8.4L31 51a3.7 3.7 0 0 1-6.3 3.9Z"/><path fill="#B27059" d="m25.8 47.6.2-.1h-.2Zm2.6 5.3v-.3l-.2.2.2.1Zm-.8-1.8v.3l.3-.3h-.3ZM25 49.2l-.2-.2v.2h.2Zm3.7 2.5v-.2l-.1.1h.1Zm.5-1.2.1-.2H29l.1.2ZM28 54.3h.3L28 54l-.1.3Zm-1.4-1h.3l-.1-.2-.2.3Zm-1-.2h.4l-.2-.2-.1.2Zm-.3-.5h.3l-.2-.3-.1.3Zm5.3 2 .2.2v-.3l-.2.1Zm-2.9-4.8v-.2l-.1.1h.1Zm3.5 4 .1-.1h-.1v.1Zm-1 .7-.3-.1.1.2.1-.1Zm-1.7-3.6-.1-.3-.2.2.3.1Zm2.5 3.3h-.3l.3.2v-.2Zm-.7.9-.2-.3-.1.3h.3Zm.2.3-.1-.3-.1.3h.2Zm.5-2.1-.1.1.2.1v-.2Zm.3 0-.1.2h.2l-.1-.3Zm-1.6-.5.2-.3h-.3l.1.3Zm.4.6v.3h.2l-.2-.3Zm-.5 1.5v.3l.2-.2-.2-.1Zm.2-3.3v-.2l-.2.2h.2Z"/><path fill="#B27059" d="m28.7 53.2.1-.1h-.2v.1Zm2 1.4.2.2v-.3l-.2.1ZM30 54v-.3l-.2.1.2.2Zm1 0 .2.3V54H31Zm-4.2-1.6V52l-.2.1.2.2Zm3.5 2v-.2l-.2.2h.2Zm-1.6-.6.4.2v-.4l-.4.2Zm1-1.5.1-.2-.2.1.1.1Zm-.1.9v.3l.2-.3h-.2Zm-3.4-1.7v-.3l-.3.2.3.1Zm4.2 4 .3-.3h-.5l.2.3Zm-1.9.6v-.5l-.3.3.3.2Zm.6-3v-.3l-.3.3h.3Zm-.5-.4.3-.2h-.4l.1.2Zm2 1.3h-.3v.1h.2Zm-1.4.6h.5l-.3-.4-.2.4Z"/><path fill="#B27059" d="M26.7 49.5v-.2l-.2.1h.2Zm2.1 5 .3-.4-.3-.1v.4Zm-1-.7.3-.3-.3-.2v.5Zm1.7 2.4V56h.1v-.2l-.2.1v-.3l-.5.5h.6Zm-1.3-6V50l-.1.2h.1Zm-.1 2 .2.3v-.3h-.2ZM25.7 49h-.2v.1h.2Zm1.8.2h.2l-.2-.1v.1Zm-1-.3v-.2l-.1.1h.2Zm2.7 3.1H29v.1h.2Zm.3 2-.2-.3-.1.4h.3Zm-2.1-3.5-.2-.3-.1.3h.3Zm-.2-3H27l.2.2v-.3Zm-.4 1 .2-.2h-.2v.1Zm3 5.5-.1.1h.1l.2-.2h-.3v.1Zm-2.6-2.2v-.3l-.2.1.2.2Z"/><path fill="#B27059" d="M28.7 54v-.4l-.4.2.4.2Zm.6 1.7.5-.3-.5-.1v.4ZM28 56l.1.4-.2-.1v.3l.2-.2.1.2.4-.5H28Zm-4-2.4 1.5-.1-.7 1.2-.7-1Zm2-.4.7.2-.6.4v-.6Zm.6 1.5h.4l-.2-.3-.2.3Zm2 1.8h.5l-.3-.4-.2.4Zm-3-3.8.5.2v-.4l-.5.2Zm4.2 3h.4v-.5l-.4.4ZM28 53.8l-.3-.2v.3h.3Zm.2.6.2.3.2-.2h-.4Zm1 1h-.3l.2.3.2-.3Z"/><path fill="#B27059" d="M29.4 53.4v-.2l-.2.2h.2Zm0 1.6-.7-.2.2.6.5-.4Zm-.6-.5h-.3v.3l.3-.3ZM28 56l.1-.2v.2h.2l-.1-.2.2-.2h-.6l.2.4Zm.2-2.7V53l-.1-.3-.4.4h.5Zm-1.2 2 .6.2-.3-.6-.3.4Zm-.6 1 .7-.4-.1.6-.6-.2Zm1.1 0 .2-.4h-.2v.3Zm-.5-1.8.2-.3H27l.1.3Zm-1.4.6.5.4v-.7l-.5.3Zm1.2-.5.3.2v-.3l-.3.1Zm1 .4.2.2V55h-.3Z"/><path fill="#B27059" d="m28 53.8.3.2v-.3l-.2.1Zm-1 .1v-.3l-.2.2.3.1Zm-.7 1.2.2-.3h-.3v.3Zm.4-.1.2.4.3-.4h.1l-.1-.2-.2.2h-.3Zm-2-.2.5-.7.4 1-1-.3Zm3.2 1.8h-.7l.2-.7.5.7Zm-.3-1.6-.2-.6.5.1-.3.5Zm-.2-.9.2-.3.2.4h-.4Z"/><path fill="#B27059" d="m25.9 55.3-.3-.6-.5.5.8.1Zm0-.7-.3-.6-.3.4.6.2Zm-.2 1.3-.5-.4h1l-.5.4Zm1.7-.3-.7.4-.2-1 1 .6Z"/><path fill="#B27059" d="M28.7 55.4h-.4l.3-.5.1.5Zm-2-2.5.4-.1-.4-.4v.5Zm-.5.9-.4.7h.8l-.4-.7Zm.3 1.7-.7.5.7.3v-.8Z"/><path fill="#B27059" d="m25.6 53.2-.3.8h.8l-.5-.8Zm-.5-.2-.3.3.5.1-.2-.4Zm2.7 2.3-.3.5h.6l-.3-.5Zm-1.3-1.7-.2.5h.5l-.3-.5Zm0-1.2-.5.4.5.2v-.6Zm1 1-.5-.1.3-.3.1.4Zm-4-.5 1.4-.1-.7 1-.7-.9Zm-2-3.3H23l-.8 1-.6-1Zm-.4-.6.8-.1-.4.7-.4-.6Zm-.5-.9h.8l-.5.6-.3-.6Zm-.6-1h.7l-.4.6-.3-.6Zm-.5-.7.8-.1-.4.7-.4-.6Zm9.5 8 .6.2-.5.4-.1-.5Zm-.9-5.6h.2l-.1-.2v.2Zm-2.7.9.1.2.2-.2h-.3Zm.6.6.1.3.2-.3H26ZM25 52l.4.3v-.5l-.5.2Zm-1.1-.3.4.2v-.4l-.4.2Zm2.5-1.5.3-.2-.2-.1-.1.3Zm.6.6-.1-.3-.2.2h.3Zm-1 1.4h.4l-.3-.4-.1.4Z"/><path fill="#B27059" d="M26.3 51.5h-.4l.2.3.2-.3Zm-2.5-.8h-.4l.2.3.2-.3Zm.6 2.3-.4.7h.8l-.4-.7Zm.5-.7-.3.7h.7l-.4-.7Z"/><path fill="#B27059" d="m24.5 52-.5.5h.8l-.3-.6Zm-1-.7-.5.5.7.1-.2-.6Zm-.6-1.4-.6.5.8.1-.2-.6Zm3.6 1v.2l.2-.1-.2-.1Zm-.6.9-.5.3.5.2v-.5Zm1.6 1.3.2-.6-.6.3.4.3Zm.3-1h.3l-.2-.3-.1.2Zm-3.3-1.8h.6l-.3-.6-.3.6Zm1.3-.7.4.1-.2-.4-.2.3Zm.2 1.2-.3.2.3.2v-.4Zm-.1-.1-.3-.2v.2h.3Zm-1.6-.1-.3-.3v.3h.3Zm3 .3-.3.2.3.1V51Zm-.8 1 .2-.2h-.3l.1.3Zm.8 0-.1.3h.2l-.1-.2Zm-2-.1-.1-.2h.2v-.2l-.2.2v-.4l-.6.5.6.1Zm0-.9.4.4V51h-.4Zm-2-.6.5.2V50l-.5.4Zm-1.5-1 .5.2V49l-.5.3Zm2.2.7.3.4v-.5l-.3.1Zm.5.5.4.4v-.5l-.4.1Zm-.7 1v-.8l1 .4-1 .4Zm-.2 1.5-.7-1 1.2.2-.5.8Zm-.7-1.2-.7-1 1.2.1-.5.9Zm2.3-1.3v.3l.3-.2-.3-.1Zm-2-6v-.1.1Zm1.7 3.5.1.3.2-.2h-.3Zm-2.7-1.8-.2-.3v.3h.2Zm2.7.5v-.2l-.1.2h.1Zm-.7 2.5V49l-.2.2.2.1Zm-.6-.8V48l-.2.2.2.2Zm.4-2v-.2l-.2.2h.2Zm1.5.7v-.2l-.1.2h.1ZM23 46l-.2-.1v.2l.2-.1Zm-.6-1h.2-.2Zm1.5.8v-.2l-.2.2h.2Zm.8 1.6-.2-.3-.1.3h.3Zm-2.5-3.7-.1.2h.2v-.2Zm1.3 1.3.2-.1h-.2Zm1 3.8v-.4l-.1.2.2.2Zm-1.7.8.5.3v-.5l-.5.2Zm1.2.2.4-.1-.4-.4v.5Z"/><path fill="#B27059" d="m23.9 49.3-.6.4.5.2v-.6Zm1.6-3.6h.1l-.1-.1v.1Zm-3 1.1.1.3.2-.3h-.2Zm.8.5.1.3.2-.3h-.3Zm-1 1.7.4.2v-.4l-.5.2Zm-1.1-.3.5.2v-.4l-.5.2Zm2.5-1.6.3-.2h-.2v.2Zm-.8-.3.3-.1-.2-.1v.2Zm-2.6-2.7.3-.2h-.2v.2Zm4 3.6-.1-.3-.2.3h.3Zm-1 1.4h.4l-.3-.4-.1.4Z"/><path fill="#B27059" d="M23.6 48.5h-.4l.2.3.2-.3ZM21 47.3l-.6.2.3.4.3-.6Zm2.8.5v.2h.1l-.1-.2Zm-.7 1-.5.3.5.2v-.6ZM21.5 47h.6l-.3-.6-.3.6Zm-.7-.7.4.1-.2-.4-.2.3Zm2.5 1.4-.3.2.3.1v-.3Zm-.1-.2-.3-.2v.2h.3Zm-1.6-.1-.3-.2v.2h.3Zm3 .4-.3.1.3.2v-.3Zm-.8 1 .3-.2h-.4l.1.2Zm-1.3-.2v-.1h.2v-.2h-.2V48l-.6.6h.6Zm.1-.8.4.4v-.5h-.4Zm-2.3-1.2.4.3v-.6l-.4.3Zm1-.5.5.3v-.6l-.5.3Zm-.3.6.3.4v-.5H21Zm.8.7.4.4v-.5h-.4Zm-.7 1v-.9l1 .4-1 .5Zm1.4-1v.2l.3-.2h-.3Zm-4.3-3.3 1.3-.1-.7 1-.6-1Zm-.4-.7h.8l-.5.6-.3-.6Zm-.6-.9h.8l-.4.6-.4-.6Zm-.6-1h.8l-.4.6-.4-.6Zm-.4-.7h.8l-.5.6-.3-.6Zm3.3 3.5-.5.5.8.1-.3-.6Zm.9 1-.6.6.8.1-.2-.7Zm-1.9-1.7.5.3v-.6l-.5.3Zm1 2.6-.7-1 1.2.1-.5 1ZM17 37.8h.2l-.2-.1v.1Zm1.6 2.5-.2-.2v.3h.2Zm3 2v-.1h-.1l.1.1Zm-1 .7v-.4l-.2.2.2.2Z"/><path fill="#B27059" d="M20.6 41v-.3l-.1.2h.1Zm-1-.5-.1-.1v.2l.2-.1Zm-1.3-1.3h.2l-.2-.1v.1Zm2.2 1.1v-.2l-.1.2h.1Zm-2.8-.7-.1-.3-.1.3h.2Zm4.3 5.7V45l-.2.4h.3Zm-5-7v.2h.1v-.2Zm2.3.9.2-.2h-.3v.2Zm.2 5 .5.2v-.5l-.5.2Zm1.8-3h.2-.2Zm-2 .1v.3l.2-.2h-.3Zm-3-2 .1.2.2-.2h-.3Zm3.7 2.5.1.3.2-.3H20Zm-1.1 1.7.4.2v-.4l-.4.2Zm-1-.3.4.2V43l-.4.2Zm3.4 1.6.3-.2-.2-.1v.3Zm-.2-1-.1-.2-.2.2h.3Zm-1.1-.1.4-.1-.4-.3v.4Zm0 1h.5l-.4-.4v.5Zm0 .6h.4l-.4-.4v.4Zm1-1-.4.2.1.2.2-.3Zm-3.3-2.1h-.3l.1.3.2-.3Zm-.7-2-.4.1.2.2.2-.3Zm3.7 1.8v.2h.1l-.1-.2Zm.8 3.4-.6.3.5.3v-.6Zm-1 .1h.6l-.3-.6-.3.6Zm-3-4.6.4.1-.2-.4-.2.3Zm2.2 1.6-.3.2.3.2v-.4Zm.2-.6-.3-.2v.2h.3Zm-1.6.1-.3-.2v.2h.3Zm3.1 1 .2-.1h-.3l.1.2Zm-2.2.3V43h.1l.1-.2-.2.1-.1-.4-.5.6h.6Z"/><path fill="#B27059" d="m19.4 43.4.4.4v-.5l-.4.1ZM17 41.2l.5.3v-.6l-.5.3Zm.7 0 .4.5v-.5h-.4Zm-.6-1.5.3.4v-.5l-.3.1Zm1.4 2 .4.4v-.5l-.4.1Zm-.6 1.3-.1-.9 1 .4-1 .5Zm1.4-.9v.3l.2-.2-.2-.1Zm-.7-1.4v.3l.3-.2h-.3Zm-2.9-.7h.9l-.5.6-.4-.6Zm-.6-1h.8l-.4.6-.4-.6Zm-.5-.8h.8l-.4.6-.4-.6Zm-.6-1h.8l-.5.6-.3-.6Zm-.5-.8h.8l-.4.6-.4-.6Zm2.3 3 .5.2V39l-.5.4Zm-2.2-6h.2l-.1-.1v.1Zm2.2 2.5-.1-.2v.3h.1Zm4.4 3v-.1l-.1.1h.1ZM17 36.2l-.2-.2v.3l.2-.1ZM14.8 35l.2-.1h-.2Zm2.8 2.4v-.2l-.2.2h.2Zm-3-2-.1-.3-.2.3h.3ZM13.5 34l-.2.2h.2V34Zm2.7 1 .2-.2h-.2v.2Zm.3 1.8v.3l.2-.3h-.2Zm-3.2-2v.4l.2-.3h-.2Zm4 3.2.1.3.2-.3h-.3Zm-.5 1 .5.2V39l-.5.2Zm-1.7-.3.5.2v-.4l-.5.2Zm-.1-1h-.4l.2.2.2-.3Zm-.8-2H14l.1.3.2-.3Zm.5.7.5.1-.3-.4-.2.3Zm1.8 2-.3.2.3.1v-.4Z"/><path fill="#B27059" d="m18.4 38-.2-.3v.3h.2Zm-2.9-.4-.3-.2v.2h.3Zm2.3 2.8v-.2h.2V40l-.3.2v-.5l-.6.7h.7Zm-3.6-3.6.5.3v-.7l-.5.4Zm.7 0 .3.5v-.5H15Zm-1.6-1.1.4.4v-.5h-.4Zm2.4 1.6.3.4v-.5l-.3.1Zm-.2 1.1V38l.6.3-.6.2Zm1-.7v.3l.2-.2-.3-.1Zm-.7-1.4v.3l.2-.2h-.2Z"/><path fill="#E8A374" d="M18.5 40h-.2.2ZM16 34.4v.3l.2-.2H16Zm.7 1.9V36l-.2.2h.2Zm2.7 1.9.2.2v-.3h-.2Zm-3.7-2.5v.2l.2-.2h-.2Zm-.5 1.2v.2l.1-.1Zm1.3-3.8h-.3l.2.2.1-.2Zm1.3 1h-.3l.2.2.1-.3Zm1 .1h-.3l.2.3.1-.3Zm.4.6h-.3l.2.3v-.3Zm-5.3-2-.2-.3v.3h.2Zm2.8 4.8v.2l.2-.2h-.2Zm-3.5-4.1v.1h.1v-.1Zm1.1-.6h.2v-.2l-.2.2Zm1.6 3.5.2.3v-.2H16Zm-2.5-3.2.3-.1-.2-.2v.3Zm.8-1 .2.4v-.4h-.2Zm-.3-.3.2.3.1-.3h-.3Zm-.5 2.1.2-.1h-.2v.1Zm-.2 0h-.1v.2Zm1.5.5-.1.3h.2v-.3Zm-.4-.6.1-.3-.3.1.2.2Zm.6-1.4v-.3l-.3.1.3.2Zm-.2 3.2v.3l.1-.2-.1-.1Z"/><path fill="#E8A374" d="m15.7 34.2-.2.1h.2Zm-2-1.4-.3-.1v.3l.3-.2Zm.6.7v.3h.2l-.2-.3Zm-1 0-.2-.3v.2h.2Zm4.1 1.7v.3l.2-.1-.2-.2ZM14 33l.1.2.2-.2H14Zm1.6.7-.3-.3v.5l.3-.2Zm-1 1.4v.2h.1l-.1-.2Zm.2-.8-.1-.3-.2.2h.3ZM18 36v.4l.3-.2-.3-.2Zm-4.2-4-.3.4h.5l-.2-.4Zm2-.6-.1.5.4-.2-.4-.3Zm-.7 3 .1.3.2-.2h-.3Zm.5.4-.3.2.4.1v-.3Zm-1.9-1.3.2.1v-.2h-.2Zm1.4-.6h-.5l.3.4.2-.4Z"/><path fill="#E8A374" d="M17.7 38v.2l.1-.1h-.1Zm-2.2-5-.2.3.3.2V33Zm1 .7-.3.3.4.1-.1-.4Zm-1.6-2.5v.2h-.1l-.1.2.2-.1.1.4.5-.6H15Zm1.2 6 .1.3v-.2Zm.2-2L16 35v.3l.3-.1Zm2.3 3.3h.2v-.1h-.2Zm-1.8-.3-.2.1h.2Zm1 .4v.2l.1-.1h-.1Zm-2.6-3.2.2.1-.1-.2-.1.1Zm-.3-2 .1.3.2-.3h-.3Zm2 3.6.2.3.1-.3H17Zm.2 3 .2-.1H17v.1Zm.4-1-.2.2h.2v-.1Zm-2.9-5.6-.1-.1-.2.3h.4v-.2Zm2.5 2.2v.4l.2-.2-.2-.2Z"/><path fill="#E8A374" d="M15.7 33.4v.5l.4-.3-.4-.2Zm-.7-1.7-.4.3.5.2v-.5Zm1.5-.3-.2-.3h.3V31l-.3.2V31l-.5.5h.7Zm3.9 2.5-1.5.1.8-1.2.7 1Zm-2 .3-.6-.2.5-.3.1.5Zm-.5-1.5h-.4l.2.3.2-.3Zm-2-1.8-.5.1.2.4.3-.5Zm3 4-.5-.4v.5l.5-.2Zm-4.2-3.1-.5-.1.1.5.4-.4Zm1.7 1.8.3.3.1-.3h-.4Zm-.2-.6v-.2l-.3.2h.3Zm-1-1h.4l-.2-.3-.2.4Z"/><path fill="#E8A374" d="M15 34v.3l.1-.2h-.2Zm0-1.6.6.2-.1-.5-.5.3Zm.6.5h.3l-.1-.2-.2.2Zm.7-1.3v.1-.1H16l.2.1-.2.2.6.1-.3-.4Zm-.1 2.7v.1h-.1v.1h.1v.2l.4-.4h-.4Zm1.1-2.2-.6-.2.3.6.3-.4Zm.6-1-.8.5.2-.6.6.2Zm-1.1.1-.3.3h.3v-.3Zm.4 1.8-.2.3h.3V33Zm1.5-.6-.5-.4v.6l.5-.2Zm-1.3.5-.2-.3v.4l.2-.1Zm-.9-.4-.2-.3v.4l.2-.1Z"/><path fill="#E8A374" d="m16.3 33.6-.2-.2v.3h.2Zm1 0v.2l.3-.2h-.3Zm.8-1.2-.2.3h.3l-.1-.3Zm-.4 0-.2-.4-.3.4H17v.3l.3-.2h.3Zm2 .3-.6.7-.4-1 1 .3Zm-3.2-1.8h.7l-.2.7-.5-.7Zm.3 1.6.2.6-.6-.2.4-.4Zm.2.8-.2.4-.2-.5.4.1Z"/><path fill="#E8A374" d="m18.5 32.2.3.6.5-.6h-.8Zm0 .6.2.7.4-.5-.6-.2Zm.2-1.2.5.4h-1l.5-.4Zm-1.7.2.7-.3.2 1-1-.7Zm-1.4.2.5.1-.4.4V32Zm2.1 2.6-.5.1.4.4.1-.5Zm.5-1 .3-.7h-.8l.5.8Zm-.3-1.6.7-.5-.7-.3v.8Z"/><path fill="#E8A374" d="m18.7 34.2.4-.7h-.8l.4.7Zm.5.3.3-.4h-.4l.1.4Zm-2.6-2.4.2-.5h-.5l.3.5Zm1.2 1.8.3-.6h-.5l.2.6Zm0 1.2.6-.4-.6-.2v.6Zm-.9-1.1.5.2-.4.3-.1-.5Zm4 .6-1.4.1.7-1 .6.9Zm2 3.3h-1.4l.8-1 .6 1Zm.4.6-.8.1.4-.6.4.5Zm.5.9H23l.5-.6.3.6Zm.6 1h-.7l.4-.6.3.6Zm.5.7-.8.1.4-.6.4.5ZM15.4 33l-.6-.2.5-.4v.6Zm.8 5.6-.2.1h.1Zm2.7-.8-.1-.3-.2.3h.3Zm-.6-.7v-.3l-.2.3h.2Zm1.1-1.6-.4-.3v.4l.4-.1Zm1 .3-.4-.3v.4l.5-.1ZM18 37.3l-.3.2h.3v-.2Zm-.6-.6.1.3.2-.3h-.3Zm1-1.4H18l.4.4v-.4Z"/><path fill="#E8A374" d="m18 36 .4-.1-.2-.3-.1.4Zm2.6.8h.3l-.1-.3-.2.3Zm-.6-2.3.3-.7h-.7l.4.7Zm-.5.7.3-.7H19l.4.7Zm.3.4.6-.6h-.8l.2.6Zm1 .6.6-.5-.8-.1.2.6Zm.7 1.4.5-.5-.7-.1.2.6Zm-3.7-1v-.2h-.2l.2.2Zm.6-1 .6-.3-.5-.2v.6Zm-1.6-1.2-.1.5.5-.2-.4-.3Zm-.2 1h-.3l.1.2.2-.2Zm3.2 1.7h-.6l.3.7.3-.7Zm-1.3.8-.4-.1.2.4.2-.3Zm-.1-1.2.3-.3-.3-.1v.4Zm0 .1.3.2v-.2h-.3Zm1.7.1.2.3v-.3h-.2Zm-3-.3.3-.2-.3-.1v.3Zm.7-1-.2.1h.3v-.2Zm-.7-.1v-.2H17l.2.2Zm2 .2v.2H19v.2l.2-.2v.4l.6-.5-.7-.1Z"/><path fill="#E8A374" d="m19 36.5-.3-.4v.5h.3Zm2.1.8-.5-.3v.6l.5-.3Zm1.5 1L22 38v.6l.5-.3Zm-2.2-.8L20 37v.5l.4-.1Zm-.6-.5-.3-.4v.5l.3-.1Zm.7-1 .1.8-1-.4 1-.4Zm.2-1.5.7 1-1.2-.2.5-.8Zm.8 1.2.7 1-1.2-.1.5-.9ZM19.1 37v-.3l-.2.2.2.1Zm2.2 6h-.2l.2.2V43Zm-1.8-3.5-.1-.3-.2.2h.3Zm2.7 1.9.2.2v-.3h-.2Zm-2.7-.6v.2l.1-.1h-.1Zm.7-2.5-.1.3.3-.1-.2-.2Zm.6.8v.4l.2-.2-.2-.2Zm-.4 2v.2l.2-.1h-.2Zm-1.5-.7v.2l.1-.2Zm2.5 1.2h.2v-.2l-.2.2Zm.6.8-.2.1h.2Zm-1.5-.7v.2l.2-.1h-.2Zm-.8-1.6.2.3.1-.3h-.3Zm2.5 3.7.1-.2h-.2v.2Zm-1.3-1.3-.2.1h.2Zm-1-3.8v.4l.1-.1-.2-.3Zm1.7-.8-.5-.3v.5l.5-.2Zm-1.2-.2h-.5l.4.5v-.5Z"/><path fill="#E8A374" d="m20.5 38.2.6-.4-.5-.2v.6ZM19 41.8h-.1l.1.1v-.1Zm3-1-.1-.4-.2.3h.3Zm-.8-.6L21 40l-.2.2h.3Zm1-1.6-.4-.3v.4l.5-.1Zm1.1.3-.5-.3v.4l.5-.1Zm-2.5 1.5-.3.2.2.1v-.3Zm.8.3-.3.2h.2v-.2Zm2.6 2.7-.3.2h.2l.1-.2Zm-4-3.6.1.3.2-.2H20Zm1-1.4h-.5l.4.4.1-.4Z"/><path fill="#E8A374" d="M20.8 39h.4l-.2-.3-.2.4Zm2.5 1.2.6-.1-.3-.5-.3.6Zm-2.8-.5v-.2h-.1l.1.2Zm.7-1 .5-.3-.5-.2v.6Zm1.7 1.7h-.6l.3.6.3-.6Zm.7.7-.4-.1.2.4.2-.3Zm-2.5-1.3.3-.3-.3-.1v.4Zm.1.1.3.2V40h-.3Zm1.6.1.3.2V40h-.3Zm-3-.3.3-.2-.3-.1v.3Zm.8-1-.3.1h.3v-.2Zm1.3 0v.3l-.2-.1v.2h.2v.3l.6-.6h-.6Zm-.1 1-.4-.5v.5h.4Zm2.3 1.1-.4-.3v.7l.4-.4Zm-1 .5-.5-.3v.6l.5-.3Zm.4-.5-.4-.4v.4h.4Zm-1-.7-.3-.4v.4h.4Zm.8-1v.8l-1-.4 1-.4Zm-1.4 1v-.3l-.3.2.3.1Zm4.3 3.3H25l.7-1 .6 1Zm.4.6-.7.1.4-.7.3.6Zm.6.9h-.8l.4-.6.4.6Zm.6 1H27l.5-.6.3.6Zm.5.7-.8.1.4-.6.4.5Zm-3.4-3.5.5-.5-.8-.1.3.6Zm-.8-1 .5-.6h-.8l.3.6Zm1.8 1.7-.5-.3v.6l.5-.3Zm-1-2.6.7 1-1.2-.1.5-.9Zm2.6 8.5h-.2l.2.1v-.1ZM26 47.2l.1.2v-.3H26Zm-3.1-2v.2l.1-.2Zm1-.6v.3l.3-.2-.3-.1Zm-.1 2v.2l.2-.1h-.2Zm1 .4.1.2v-.3l-.2.1Zm1.4 1.3H26l.2.1v-.1Zm-2.3-1h.2-.2Zm2.8.6.1.4.2-.4h-.3Zm-4.3-5.7.1.3.2-.3h-.3Zm5 7v-.1l-.1-.1v.2Zm-2.2-.8H25l.2.1v-.1Zm-.2-5-.5-.3v.5l.5-.2Zm-2 2.8-.1.1.1.1v-.2Zm2.1 0v-.3l-.2.3h.2Zm2.9 2V48l-.2.2h.3Zm-3.7-2.5v-.3l-.2.3h.2Zm1.1-1.7-.4-.2v.4l.4-.2Zm1 .3-.4-.2v.4l.5-.2ZM23 42.7l-.3.2.3.1v-.3Zm.2 1 .2.3.1-.3h-.3Zm1.2.2H24l.4.4v-.4Zm-.1-1.1H24l.3.4.1-.4Zm0-.6H24l.4.4v-.4Zm-.9 1 .4-.1-.2-.3-.2.3Zm3.2 2.2.4-.1-.2-.2-.2.3Zm.8 1.9h.3l-.2-.3-.1.3Zm-3.8-1.8v-.2l-.1.1.1.1Zm-.7-3.4.5-.3-.5-.2v.5Zm1 0h-.7l.4.5.2-.6Zm3 4.5-.5-.1.2.4.3-.3ZM24.8 45l.2-.2-.3-.2v.4Zm-.3.6.3.3v-.3h-.3Zm1.7 0 .2.1v-.2h-.2ZM23 44.4l-.2.2h.3v-.2Zm2.2-.2v.2l-.1-.1v.2h.2v.3l.5-.6h-.6Z"/><path fill="#E8A374" d="m25 44.1-.3-.4v.5h.3Zm2.5 2.2L27 46v.6l.5-.3Zm-.7 0-.3-.5v.5h.3Zm.6 1.5-.3-.4v.5l.3-.1Zm-1.4-2-.3-.4v.5l.3-.1Zm.6-1.3.1.9-1-.4 1-.5Zm-1.3 1V45l-.3.2.3.1Zm.6 1.3v-.3l-.2.2h.2Zm2.9.7h-.9l.5-.6.4.6Zm.5 1h-.7l.4-.6.3.5Zm.6.8H29l.4-.6.4.6Zm.6 1h-.8l.5-.6.3.6Zm.5.7-.8.1.4-.7.4.6Zm-2.3-2.9-.5-.2v.6l.5-.4Zm2.2 6h-.1l.1.1v-.1Zm-2.2-2.5.1.2v-.3h-.1Zm-4.4-3v.1l.2-.1h-.2Zm3.1 2.9h.2v-.1h-.2Zm2.2 1-.1.1h.1Zm-2.8-2.4v.2l.2-.2h-.2Zm3 2 .1.3.2-.3h-.3Zm1.1 1.3.2-.2h-.2v.2Zm-2.7-1-.1.2h.2v-.2Zm-.3-1.8v-.3l-.2.3h.2Zm3.3 2-.1-.4-.2.3h.3ZM27 49.3l-.1-.3-.2.3h.3Zm.5-1-.5-.2v.4l.5-.2Zm1.7.3-.5-.2v.4l.5-.2Zm.1 1h.4l-.2-.2-.2.3Zm.8 2h.3l-.1-.3-.2.3Zm-.5-.7-.5-.1.3.4.2-.3Zm-1.8-2 .3-.2-.3-.1v.4Z"/><path fill="#E8A374" d="m26 49.6.3.2v-.2H26Zm2.9.3.3.2V50h-.3Zm-2.3-2.8.1.3-.2-.1-.1.3.3-.2v.5l.7-.7h-.8Zm3.6 3.6-.5-.3v.7l.5-.4Zm-.7 0-.3-.5v.5h.3Zm1.6 1.1-.4-.4v.5h.4Zm-2.4-1.6-.3-.4v.5l.3-.1Zm.2-1.1v.5l-.6-.3.6-.2Zm-1 .7v-.3l-.2.2.3.1Zm.7 1.4v-.3l-.2.2h.2Z"/><defs><linearGradient id="a" x1="15.3" x2="34.2" y1="58.7" y2="86.2" gradientUnits="userSpaceOnUse"><stop offset=".2" stop-color="#B5D9CD" stop-opacity="0"/><stop offset=".4" stop-color="#A5D0C7" stop-opacity=".1"/><stop offset=".6" stop-color="#92C6C1" stop-opacity=".3"/><stop offset=".7" stop-color="#8CC2BF" stop-opacity=".5"/></linearGradient><linearGradient id="b" x1="58.5" x2="44" y1="39.7" y2="66.5" gradientUnits="userSpaceOnUse"><stop offset=".4" stop-color="#B5D9CD" stop-opacity="0"/><stop offset=".5" stop-color="#A5D0C7" stop-opacity=".1"/><stop offset=".8" stop-color="#92C6C1" stop-opacity=".3"/><stop offset="1" stop-color="#8CC2BF" stop-opacity=".5"/></linearGradient><linearGradient id="c" x1="36.1" x2="41.8" y1="34.1" y2="67.1" gradientUnits="userSpaceOnUse"><stop offset=".4" stop-color="#B5D9CD" stop-opacity="0"/><stop offset=".5" stop-color="#A5D0C7" stop-opacity=".1"/><stop offset=".8" stop-color="#92C6C1" stop-opacity=".3"/><stop offset="1" stop-color="#8CC2BF" stop-opacity=".5"/></linearGradient><linearGradient id="d" x1="40.6" x2="28.8" y1="21" y2="25.4" gradientUnits="userSpaceOnUse"><stop offset=".3" stop-color="#D69072"/><stop offset=".7" stop-color="#B5775A"/></linearGradient><linearGradient id="e" x1="23.5" x2="14.4" y1="42.7" y2="50.6" gradientUnits="userSpaceOnUse"><stop offset=".3" stop-color="#D69072"/><stop offset=".7" stop-color="#B5775A"/></linearGradient></defs></svg>
